<svg width="149" height="32" viewBox="0 0 149 32" fill="none" xmlns="http://www.w3.org/2000/svg">
<path d="M50.3365 14.5889H49.1162L48.7173 8.78084L45.8543 14.5889H45.3615L42.5103 8.78084L42.1113 14.5889H40.938L41.6772 6.14081H42.346L45.6548 12.6294L48.7759 6.14081H49.656L50.3365 14.5889Z" fill="#2F292B"/>
<path d="M73.1346 14.5889H71.926L71.5271 8.78084L68.6641 14.5889H68.1596L65.3201 8.78084L64.9211 14.5889H63.7478L64.487 6.14081H65.1558L68.4647 12.6294L71.5858 6.14081H72.4658L73.1346 14.5889Z" fill="#2F292B"/>
<path d="M133.081 14.5889H131.861L131.462 8.78084L128.599 14.5889H128.106L125.266 8.78084L124.867 14.5889H123.682L124.422 6.14081H125.102L128.411 12.6294L131.532 6.14081H132.4L133.081 14.5889Z" fill="#2F292B"/>
<path d="M59.3363 6.10559L56.1096 10.7051V14.5889H54.9832V10.7051L51.8503 6.10559H53.1528L55.652 9.71951L58.0339 6.10559H59.3363Z" fill="#2F292B"/>
<path d="M83.9763 10.3414C83.9763 11.6086 83.5656 12.6529 82.7326 13.4742C81.9112 14.2838 80.8669 14.6828 79.5997 14.6828C78.3325 14.6828 77.2882 14.2838 76.4669 13.4742C75.6338 12.6646 75.2231 11.6203 75.2231 10.3414C75.2231 9.07417 75.6338 8.02989 76.4669 7.20855C77.2882 6.39894 78.3325 6 79.5997 6C80.8669 6 81.9112 6.39894 82.7326 7.20855C83.5539 8.01816 83.9763 9.06244 83.9763 10.3414ZM82.6504 10.3414C82.6504 9.30884 82.3571 8.49923 81.7704 7.88909C81.2072 7.31415 80.4797 7.02081 79.588 7.02081C78.6962 7.02081 77.9688 7.31415 77.4056 7.88909C76.8072 8.49923 76.5138 9.30884 76.5138 10.3414C76.5138 11.3739 76.8072 12.1835 77.4056 12.7819C77.9688 13.3569 78.6962 13.6385 79.588 13.6385C80.4797 13.6385 81.2072 13.3569 81.7704 12.7819C82.3571 12.1835 82.6504 11.3622 82.6504 10.3414Z" fill="#2F292B"/>
<path d="M93.1284 10.271C93.1284 11.855 92.6239 13.0284 91.6148 13.7676C90.8756 14.319 89.9369 14.5889 88.8223 14.5889L86.2996 14.5772V6.09387H88.7871C89.9135 6.09387 90.8521 6.34028 91.5796 6.84482C92.6239 7.56056 93.1284 8.6987 93.1284 10.271ZM91.9316 10.271C91.9199 8.9803 91.4975 8.08856 90.6644 7.59575C90.1129 7.27895 89.3385 7.11469 88.3294 7.11469H87.4729V13.5681H88.5289C90.8052 13.5681 91.9434 12.4651 91.9316 10.271Z" fill="#2F292B"/>
<path d="M100.509 14.5889H95.6277V6.09387H100.075V7.11469H96.801V9.82511H99.5349V10.8459H96.801V13.5681H100.509V14.5889Z" fill="#2F292B"/>
<path d="M140.414 14.5889H135.533V6.09387H139.98V7.11469H136.707V9.82511H139.44V10.8459H136.707V13.5681H140.414V14.5889Z" fill="#2F292B"/>
<path d="M108.992 14.5889H107.678L105.003 10.7286H103.818V14.5889H102.645V6.09387H105.003C105.86 6.09387 106.528 6.31681 107.009 6.77441C107.444 7.19682 107.666 7.74829 107.666 8.42884C107.666 9.50831 107.174 10.2123 106.176 10.5409L108.992 14.5889ZM106.388 8.4523C106.388 8.00642 106.258 7.66615 106 7.45495C105.73 7.23202 105.285 7.11469 104.686 7.11469H103.853V9.68431H104.686C105.296 9.68431 105.742 9.59044 106 9.39097C106.258 9.21497 106.388 8.89817 106.388 8.4523Z" fill="#2F292B"/>
<path d="M118.168 14.5889H117.569L112.066 8.3819V14.5889H110.858V6.11734H111.573L116.877 12.0075V6.09387H118.168V14.5889Z" fill="#2F292B"/>
<path d="M148.323 7.11469H145.636V14.5889H144.462V7.11469H141.834V6.09387H148.323V7.11469Z" fill="#2F292B"/>
<path d="M79.06 22.4855C79.0014 22.4621 78.9427 22.4386 78.884 22.4269C78.9427 22.4621 79.0131 22.4855 79.0718 22.4973C79.0718 22.4855 79.0718 22.4855 79.06 22.4855Z" fill="white"/>
<path d="M83.7888 27.8242C83.8123 27.836 83.8475 27.836 83.871 27.836V27.8242H83.7888Z" fill="white"/>
<path d="M101.142 24.3394C101.154 24.269 101.166 24.1986 101.166 24.1165C101.154 24.1869 101.142 24.269 101.142 24.3394ZM101.131 25.8413C101.142 25.9117 101.142 25.9938 101.154 26.0642C101.166 26.0407 101.166 25.9586 101.131 25.8413Z" fill="white"/>
<path d="M80.0574 26.5805C79.9166 26.9677 79.5529 27.484 79.2361 27.7538C78.931 28.0237 78.4499 28.188 77.875 28.188C77.0067 28.188 76.3379 27.9299 75.8686 27.4136C75.3992 26.8973 75.1646 26.1933 75.1646 25.2898C75.1646 24.3394 75.411 23.6002 75.9038 23.0605C76.3966 22.5207 77.0771 22.2509 77.9571 22.2509C78.1918 22.2509 78.403 22.2743 78.5673 22.3095C78.6846 22.3447 78.7902 22.3682 78.9075 22.4151C78.9662 22.4503 79.0366 22.4738 79.0953 22.4855C79.2595 22.5325 79.4238 22.5207 79.5411 22.4973C79.6937 22.4738 79.7993 22.4269 79.7993 22.4269V24.2807H79.4942C79.3299 22.5794 77.9102 22.509 77.9102 22.509C77.4291 22.509 77.1475 22.6733 76.8542 22.9549C76.5726 23.2365 76.5022 23.5767 76.3848 23.9874C76.2675 24.3981 76.2088 24.797 76.2088 25.2077C76.2088 25.677 76.2792 26.1112 76.4083 26.5218C76.5374 26.9325 76.7486 27.261 77.0419 27.5074C77.3352 27.7539 77.5112 27.8477 77.9571 27.8477C78.3091 27.8477 78.6025 27.7891 78.8254 27.6717C79.0483 27.5544 79.2243 27.4136 79.3534 27.2376C79.4707 27.0733 79.7289 26.6861 79.8345 26.4632L80.0574 26.5805Z" fill="#B80B30"/>
<path d="M87.4847 27.7421C87.4026 27.6835 87.3322 27.5544 87.2618 27.3549L85.4666 22.3213L84.8799 22.3799L83.026 27.1906C82.9908 27.2728 82.9556 27.3549 82.8969 27.4253C82.6036 27.8008 82.146 27.836 82.146 27.836V28.0824H84.1172V27.8477C84.0233 27.8595 83.9412 27.8477 83.8708 27.8477C83.8356 27.8477 83.8121 27.836 83.7887 27.836C83.554 27.7773 83.4601 27.6248 83.4367 27.484C83.4132 27.3667 83.4249 27.2493 83.4601 27.132L83.8121 26.1464H85.7716C85.7716 26.1464 85.9124 26.5805 86.1354 27.2258C86.3583 27.8829 85.5135 27.8477 85.5135 27.8477V28.0824H87.9189V27.8243C87.7077 27.8243 87.5669 27.8008 87.4847 27.7421ZM83.9178 25.853L84.7743 23.4946H84.7978L85.6778 25.853H83.9178Z" fill="#B80B30"/>
<path d="M72.7005 27.7421C72.6184 27.6835 72.548 27.5544 72.4776 27.3549L70.6824 22.3213L70.0957 22.3799L68.2418 27.1906C68.2066 27.2728 68.1714 27.3549 68.1128 27.4253C67.8194 27.8008 67.3618 27.836 67.3618 27.836V28.0824H69.333V27.8477C69.2392 27.8595 69.157 27.8477 69.0866 27.8477C69.0514 27.8477 69.028 27.836 69.0045 27.836C68.7698 27.7773 68.676 27.6248 68.6525 27.484C68.629 27.3667 68.6408 27.2493 68.676 27.132L69.028 26.1464H70.9875C70.9875 26.1464 71.1283 26.5805 71.3512 27.2258C71.5741 27.8829 70.7293 27.8477 70.7293 27.8477V28.0824H73.1347V27.8243C72.9235 27.8243 72.7827 27.8008 72.7005 27.7421ZM69.1336 25.853L69.9901 23.4946H70.0136L70.8936 25.853H69.1336Z" fill="#B80B30"/>
<path d="M94.7361 23.0722C94.2433 22.6029 93.551 22.3682 92.6475 22.3565H90.0662V22.6029C90.2891 22.6029 90.4416 22.6146 90.5238 22.6381C90.6059 22.6615 90.6646 22.7085 90.6881 22.7789C90.7115 22.8493 90.7233 22.9666 90.7233 23.1309V27.3197C90.7233 27.484 90.7115 27.6013 90.6881 27.6717C90.6646 27.7421 90.6059 27.7891 90.512 27.8008C90.4182 27.8243 90.2656 27.836 90.0544 27.836V28.0941H92.4246C93.3868 28.0941 94.1377 27.8477 94.6657 27.3432C95.1937 26.8387 95.4518 26.1112 95.4518 25.1373C95.4636 24.2221 95.2289 23.5416 94.7361 23.0722ZM92.4715 27.7891H91.7441V22.6381H92.5419C93.1755 22.6381 93.6449 22.861 93.9382 23.3069C94.2316 23.7528 94.3841 24.3629 94.3841 25.149C94.3841 26.9091 93.7505 27.7891 92.4715 27.7891Z" fill="#B80B30"/>
<path d="M102.28 26.252L102.14 28.0824H97.8687V27.836C98.0916 27.836 98.2559 27.8243 98.338 27.8008C98.4319 27.7773 98.4905 27.7304 98.514 27.6717C98.5375 27.6013 98.5492 27.484 98.5492 27.3197V23.1309C98.5492 22.9666 98.5375 22.8493 98.514 22.7789C98.4905 22.7085 98.4319 22.6615 98.338 22.6498C98.2441 22.6263 98.0916 22.6146 97.8687 22.6146V22.3682H101.987L102.187 24.0461H101.882C101.823 23.741 101.635 23.2247 101.565 23.0722C101.483 22.9197 101.365 22.8141 101.201 22.7554C101.037 22.6967 100.79 22.6615 100.462 22.6615L99.5113 22.6733V24.973H100.38C100.438 24.973 100.485 24.973 100.544 24.9613C100.544 24.9613 101.025 24.9261 101.142 24.3511C101.154 24.2807 101.166 24.2103 101.166 24.1282H101.412V26.076H101.166C101.166 26.0525 101.166 25.9704 101.142 25.853C101.095 25.6418 100.943 25.3368 100.544 25.2546C100.497 25.2546 100.438 25.2429 100.38 25.2429H99.5113V27.8008C99.5113 27.8008 100.121 27.7891 100.45 27.7891C100.825 27.7891 100.99 27.7539 101.189 27.6952C101.389 27.6365 101.541 27.5192 101.659 27.3432C101.776 27.1672 101.94 26.5805 102.022 26.252H102.28V26.252Z" fill="#B80B30"/>
<path d="M110.905 23.0957V27.3432C110.905 27.484 110.916 27.5896 110.952 27.66C110.987 27.7304 111.045 27.7773 111.151 27.7891C111.245 27.8125 111.362 27.8243 111.573 27.8243V28.0707H109.239V27.8243C109.473 27.8243 109.591 27.8125 109.696 27.7891C109.802 27.7656 109.86 27.7187 109.896 27.6483C109.919 27.5896 109.943 27.484 109.943 27.3315V22.9666H109.919L107.995 27.8829H107.608L105.683 23.0605H105.66L105.648 27.2611C105.66 27.2963 105.742 27.7773 106.34 27.8125C106.376 27.8125 106.422 27.8125 106.469 27.8125V28.0589H104.58V27.8125H104.592C104.662 27.8125 105.249 27.7891 105.296 27.2611V23.0839C105.296 22.9314 105.284 22.8258 105.249 22.7671C105.214 22.7085 105.155 22.6615 105.061 22.6381C104.968 22.6146 104.932 22.6029 104.698 22.5911V22.3447H106.528L108.147 26.604H108.159L109.86 22.3447H111.609V22.5911C111.386 22.5911 111.257 22.6146 111.163 22.6381C111.069 22.6615 111.01 22.7085 110.975 22.7671C110.916 22.8375 110.905 22.9431 110.905 23.0957Z" fill="#B80B30"/>
<path d="M117.241 22.3682V22.6146H117.581C117.698 22.6146 117.839 22.685 117.886 22.7554C117.909 22.7906 117.921 22.8258 117.933 22.8728C117.968 23.0018 117.933 23.1309 117.862 23.2482L116.724 25.1256H116.701L115.457 22.9901C115.422 22.9314 115.434 22.8023 115.469 22.7319C115.528 22.6381 115.657 22.6029 115.692 22.6029H116.02V22.3565H113.627V22.6029C113.85 22.6029 113.908 22.6264 114.014 22.685C114.12 22.7437 114.213 22.8493 114.307 23.0253L115.915 25.6418V27.308C115.915 27.4723 115.903 27.5896 115.868 27.6483C115.833 27.7187 115.774 27.7656 115.657 27.8008C115.539 27.8243 115.398 27.836 115.117 27.836V28.0824H117.663V27.836C117.381 27.836 117.194 27.8243 117.065 27.7773C116.971 27.7421 116.959 27.7187 116.924 27.66C116.889 27.5896 116.877 27.484 116.877 27.3197V25.4072L118.379 23.1192C118.461 22.9666 118.543 22.861 118.602 22.7906C118.66 22.7202 118.742 22.6733 118.836 22.6498C118.93 22.6263 119.071 22.6146 119.247 22.6146V22.3682H117.241Z" fill="#B80B30"/>
<path d="M11.7451 15.715L6.09511 18.831L0.359544 15.578C0.256817 15.5181 0.119848 15.5438 0.0428027 15.6465C0.00856055 15.6893 0 15.7407 0 15.7921V24.267C0 24.4125 0.128409 24.5238 0.273939 24.5067C0.393786 24.4896 0.487952 24.3783 0.487952 24.2584V16.203L5.87253 19.2591V31.3466C5.87253 31.4835 5.98382 31.5863 6.11223 31.5863C6.2492 31.5863 6.35193 31.475 6.35193 31.3466V19.242L11.6167 16.3399V28.0593C11.6167 28.2048 11.7451 28.3161 11.8906 28.299C12.0104 28.2819 12.1046 28.1706 12.1046 28.0508V15.9376C12.1046 15.8862 12.0875 15.8349 12.0618 15.7921C11.9848 15.6808 11.8478 15.6551 11.7451 15.715Z" fill="#2F292B"/>
<path d="M2.60237 14.6621L5.98378 16.6139C6.00947 16.631 6.04371 16.6396 6.06939 16.6396C6.09507 16.6396 6.12931 16.631 6.15499 16.6139L9.56209 14.7477C9.6477 14.7049 9.68194 14.5936 9.63057 14.508C9.58777 14.4224 9.47649 14.3881 9.39088 14.4395L6.06939 16.2543L2.77358 14.3453C2.68797 14.294 2.58525 14.3282 2.53388 14.4138C2.49108 14.508 2.51676 14.6193 2.60237 14.6621Z" fill="#2F292B"/>
<path d="M3.77515 13.4807L6.01801 14.7734C6.0437 14.7819 6.06082 14.7905 6.0865 14.7905C6.11218 14.7905 6.1293 14.7819 6.15498 14.7734L8.3208 13.5578C8.38928 13.5235 8.41497 13.4293 8.37216 13.3609C8.33792 13.2924 8.25231 13.2667 8.18383 13.3095L6.0865 14.4823L3.91212 13.2239C3.84363 13.1811 3.75803 13.2068 3.72379 13.2753C3.68954 13.3523 3.70667 13.4379 3.77515 13.4807Z" fill="#2F292B"/>
<path d="M4.82805 12.5733L6.02652 13.2753C6.04364 13.2838 6.06932 13.2924 6.08645 13.2924C6.10357 13.2924 6.12925 13.2838 6.14637 13.2753L7.34485 12.5733C7.40477 12.5391 7.42189 12.462 7.38765 12.4107C7.35341 12.3507 7.27636 12.3336 7.225 12.3679L6.08645 13.0356L4.94789 12.3679C4.88797 12.3336 4.81949 12.3507 4.78524 12.4107C4.751 12.462 4.77668 12.5391 4.82805 12.5733Z" fill="#2F292B"/>
<path d="M5.60712 11.8028L6.04371 12.1196C6.06939 12.1367 6.10363 12.1367 6.12931 12.1196L6.5659 11.8028C6.59158 11.7857 6.60014 11.76 6.59158 11.7344L6.08651 8.35295C6.08651 8.34439 6.07795 8.34439 6.07795 8.35295L5.57288 11.7344C5.57288 11.76 5.58144 11.7857 5.60712 11.8028Z" fill="#2F292B"/>
<path d="M32.6327 15.6465C32.5557 15.5438 32.4187 15.5181 32.316 15.578L26.5804 18.831L20.9305 15.715C20.8277 15.6636 20.6993 15.6808 20.6223 15.7749C20.588 15.8177 20.5709 15.8777 20.5709 15.929V28.0593C20.5709 28.2048 20.6993 28.3161 20.8449 28.299C20.9647 28.2819 21.0589 28.1706 21.0589 28.0508V16.3399L26.3664 19.2676C26.3664 20.9712 26.3664 30.1566 26.3664 31.338C26.3664 31.4664 26.452 31.5691 26.5804 31.5863C26.726 31.6034 26.8544 31.4921 26.8544 31.3466V19.2334L32.1961 16.203V24.267C32.1961 24.4125 32.3246 24.5238 32.4701 24.5067C32.5899 24.4896 32.6841 24.3783 32.6841 24.2584V15.7921C32.6841 15.7407 32.667 15.6893 32.6327 15.6465Z" fill="#2F292B"/>
<path d="M23.1391 14.7563L26.5462 16.6224C26.5719 16.6396 26.5976 16.6481 26.6318 16.6481C26.6661 16.6481 26.6917 16.6396 26.7174 16.6224L30.0988 14.6706C30.1844 14.6193 30.2101 14.5166 30.1673 14.4309C30.116 14.3453 30.0132 14.3197 29.9276 14.3625L26.6318 16.2715L23.3103 14.4481C23.2247 14.4053 23.122 14.4309 23.0706 14.5166C23.0278 14.6022 23.0535 14.7134 23.1391 14.7563Z" fill="#2F292B"/>
<path d="M24.3804 13.5578L26.5462 14.7734C26.5633 14.7819 26.589 14.7905 26.6147 14.7905C26.6404 14.7905 26.666 14.7819 26.6832 14.7734L28.926 13.4807C28.9945 13.4379 29.0202 13.3523 28.9774 13.2838C28.9346 13.2154 28.849 13.1897 28.7891 13.2325L26.6147 14.4909L24.5173 13.3181C24.4489 13.2838 24.3633 13.301 24.329 13.3694C24.2948 13.4379 24.3119 13.5235 24.3804 13.5578Z" fill="#2F292B"/>
<path d="M25.3648 12.5733L26.5633 13.2753C26.5804 13.2838 26.6061 13.2924 26.6232 13.2924C26.6403 13.2924 26.666 13.2838 26.6831 13.2753L27.8816 12.5733C27.9415 12.5391 27.9587 12.462 27.9244 12.4107C27.8902 12.3507 27.8131 12.3336 27.7618 12.3679L26.6232 13.0356L25.4847 12.3679C25.4247 12.3336 25.3563 12.3507 25.322 12.4107C25.2878 12.462 25.3049 12.5391 25.3648 12.5733Z" fill="#2F292B"/>
<path d="M26.1439 11.8028L26.5804 12.1196C26.6061 12.1367 26.6404 12.1367 26.6661 12.1196L27.1026 11.8028C27.1283 11.7857 27.1369 11.76 27.1283 11.7344L26.6233 8.35295C26.6233 8.34439 26.6147 8.34439 26.6147 8.35295L26.1096 11.7344C26.1096 11.76 26.1267 11.7857 26.1439 11.8028Z" fill="#2F292B"/>
<path d="M16.4105 3.31935C16.4362 3.33647 16.4619 3.33647 16.4876 3.31935L16.8728 3.03685C16.8899 3.01973 16.8985 2.99405 16.8985 2.97693L16.4533 0.00642041C16.4533 -0.00214014 16.4448 -0.00214014 16.4448 0.00642041L16.0082 2.97693C16.0082 3.00261 16.0167 3.02829 16.0339 3.03685L16.4105 3.31935Z" fill="#2F292B"/>
<path d="M20.5796 13.0356C20.5796 13.1811 20.708 13.2924 20.8535 13.2753C20.9734 13.2581 21.0675 13.1469 21.0675 13.027V6.78638C21.0675 6.73501 21.0504 6.67509 21.0247 6.63229C20.9477 6.52956 20.8107 6.50388 20.708 6.5638L16.4448 9.01212L11.9933 6.39259C11.8906 6.33267 11.7537 6.34979 11.6766 6.46107C11.6424 6.50388 11.6252 6.55524 11.6252 6.61516V13.0441C11.6252 13.1897 11.7537 13.301 11.8992 13.2838C12.019 13.2667 12.1132 13.1554 12.1132 13.0356V7.03463L16.2137 9.44871V27.092C16.2137 27.2204 16.2993 27.3317 16.4277 27.3402C16.5732 27.3574 16.7016 27.2461 16.7016 27.1006V9.43158L20.5967 7.19728V13.0356H20.5796Z" fill="#2F292B"/>
<path d="M3.02185 18.9937L1.47239 18.1377C1.45527 18.1291 1.42959 18.1205 1.41247 18.1205C1.36966 18.1205 1.33542 18.1377 1.30974 18.1719C1.29262 18.189 1.28406 18.2233 1.28406 18.2575V19.6186C1.28406 19.6871 1.32686 19.7385 1.38679 19.747C1.42959 19.7556 1.46383 19.747 1.48951 19.7214C1.51519 19.6957 1.53232 19.6614 1.53232 19.6272V18.463L2.902 19.2249C2.93624 19.242 2.97049 19.242 3.01329 19.2334C3.04753 19.2163 3.07321 19.1906 3.09033 19.1478C3.10745 19.0879 3.08177 19.028 3.02185 18.9937Z" fill="#2F292B"/>
<path d="M3.64677 20.9198C3.68101 20.9284 3.71525 20.9284 3.7495 20.9027C3.77518 20.8856 3.7923 20.8513 3.7923 20.8171V19.7556L5.03358 20.449C5.07638 20.4747 5.12774 20.4661 5.15342 20.4404C5.17911 20.4148 5.19623 20.3805 5.18767 20.3463C5.18767 20.312 5.16198 20.2863 5.1363 20.2692L3.74093 19.4902C3.69813 19.4645 3.62965 19.4817 3.60396 19.5245C3.58684 19.5416 3.58685 19.5673 3.58685 19.5844V20.8171C3.57828 20.8599 3.60396 20.9027 3.64677 20.9198Z" fill="#2F292B"/>
<path d="M3.64677 23.8047C3.68101 23.8133 3.71525 23.8133 3.7495 23.7876C3.77518 23.7705 3.7923 23.7362 3.7923 23.702V22.6405L5.03358 23.3339C5.08494 23.3596 5.14486 23.3425 5.1791 23.2911C5.20479 23.2397 5.18767 23.1713 5.1363 23.1456L3.74093 22.3666C3.69813 22.3409 3.62965 22.358 3.60396 22.4008C3.58684 22.4179 3.58685 22.4436 3.58685 22.4607V23.6934C3.57828 23.7448 3.60396 23.7876 3.64677 23.8047Z" fill="#2F292B"/>
<path d="M5.13625 25.8935L3.74088 25.1145C3.72376 25.1059 3.70664 25.0974 3.68952 25.0974C3.65527 25.0974 3.62103 25.1145 3.60391 25.1487C3.58679 25.1659 3.58679 25.1915 3.58679 25.2087V26.4414C3.58679 26.4928 3.61247 26.527 3.65528 26.5441C3.68952 26.5527 3.72376 26.5527 3.758 26.527C3.78368 26.5099 3.80081 26.4756 3.80081 26.4414V25.3799L5.04208 26.0733C5.09345 26.099 5.15337 26.0818 5.18761 26.0305C5.20473 26.0048 5.20473 25.9791 5.19617 25.9534C5.17905 25.9278 5.16193 25.9106 5.13625 25.8935Z" fill="#2F292B"/>
<path d="M5.13625 28.727L3.74088 27.948C3.72376 27.9395 3.70664 27.9309 3.68952 27.9309C3.65527 27.9309 3.62103 27.948 3.60391 27.9823C3.59535 27.9994 3.58679 28.0165 3.58679 28.0422V29.2749C3.58679 29.3263 3.61247 29.3605 3.65528 29.3776C3.68952 29.3862 3.72376 29.3862 3.758 29.3605C3.78368 29.3434 3.80081 29.3092 3.80081 29.2749V28.2134L5.04208 28.9068C5.06777 28.9239 5.09345 28.9239 5.11913 28.9154C5.14481 28.9068 5.17049 28.8897 5.17905 28.864C5.20473 28.8212 5.18761 28.7613 5.13625 28.727Z" fill="#2F292B"/>
<path d="M3.02185 21.9129L1.47239 21.0483C1.45527 21.0397 1.42959 21.0311 1.41247 21.0311C1.36966 21.0311 1.33542 21.0482 1.30974 21.0825C1.29262 21.0996 1.28406 21.1339 1.28406 21.1681V22.5292C1.28406 22.5977 1.32686 22.6491 1.38679 22.6576C1.42959 22.6662 1.46383 22.6576 1.48951 22.632C1.51519 22.6063 1.53232 22.572 1.53232 22.5378V21.3735L2.902 22.1354C2.93624 22.1526 2.97049 22.1526 3.01329 22.144C3.04753 22.1269 3.07321 22.1012 3.09033 22.067C3.10745 22.007 3.08177 21.9385 3.02185 21.9129Z" fill="#2F292B"/>
<path d="M3.02185 24.7122L1.47239 23.8561C1.45527 23.8475 1.42959 23.839 1.41247 23.839C1.36966 23.839 1.33542 23.8561 1.30974 23.8904C1.29262 23.9075 1.28406 23.9417 1.28406 23.976V25.3371C1.28406 25.4056 1.32686 25.4569 1.38679 25.4655C1.42959 25.4741 1.46383 25.4655 1.48951 25.4398C1.51519 25.4141 1.53232 25.3799 1.53232 25.3456V24.1814L2.902 24.9433C2.93624 24.9604 2.97049 24.9604 3.01329 24.9519C3.04753 24.9347 3.07321 24.9091 3.09033 24.8663C3.10745 24.8063 3.08177 24.7464 3.02185 24.7122Z" fill="#2F292B"/>
<path d="M8.49201 19.4902C8.47489 19.4902 8.45776 19.4988 8.43208 19.5074L7.03672 20.3805C7.00247 20.3977 6.98535 20.4319 6.98535 20.4747V21.6646C6.98535 21.7074 7.01103 21.7502 7.05384 21.7673C7.08808 21.7759 7.12232 21.7759 7.15656 21.7502C7.18224 21.7331 7.19937 21.6989 7.19937 21.6646V20.5261L8.54337 19.6786C8.56905 19.6614 8.58617 19.6358 8.58617 19.6101C8.59474 19.5844 8.58617 19.5502 8.56905 19.533C8.56049 19.5074 8.52625 19.4902 8.49201 19.4902Z" fill="#2F292B"/>
<path d="M8.51767 22.221C8.50911 22.221 8.50055 22.221 8.49199 22.221C8.47487 22.221 8.44919 22.2296 8.44063 22.2382L7.04526 23.1113C7.01102 23.1285 6.9939 23.1627 6.9939 23.2055V24.3954C6.9939 24.4382 7.01958 24.481 7.06238 24.4981C7.09662 24.5067 7.13087 24.5067 7.16511 24.481C7.19079 24.4639 7.20791 24.4297 7.20791 24.3954V23.2569L8.55192 22.4094C8.5776 22.3923 8.59472 22.3666 8.59472 22.3409C8.60328 22.3152 8.59472 22.281 8.5776 22.2638C8.56904 22.2467 8.54335 22.2296 8.51767 22.221Z" fill="#2F292B"/>
<path d="M8.51767 25.0974C8.50911 25.0974 8.50055 25.0974 8.49199 25.0974C8.47487 25.0974 8.44919 25.1059 8.44063 25.1145L7.04526 25.9877C7.01102 26.0048 6.9939 26.039 6.9939 26.0818V27.2718C6.9939 27.3146 7.01958 27.3574 7.06238 27.3745C7.09662 27.383 7.13087 27.383 7.16511 27.3574C7.19079 27.3402 7.20791 27.306 7.20791 27.2718V26.1332L8.55192 25.2857C8.5776 25.2686 8.59472 25.2429 8.59472 25.2172C8.60328 25.1915 8.59472 25.1573 8.5776 25.1402C8.56904 25.1145 8.54335 25.0974 8.51767 25.0974Z" fill="#2F292B"/>
<path d="M8.58616 27.9737C8.56904 27.948 8.55191 27.9309 8.51767 27.9224C8.50911 27.9224 8.50055 27.9224 8.49199 27.9224C8.47487 27.9224 8.44919 27.9309 8.44063 27.9395L7.04526 28.8127C7.01102 28.8298 6.9939 28.864 6.9939 28.9068V30.0967C6.9939 30.1395 7.01958 30.1823 7.06238 30.1995C7.09662 30.208 7.13087 30.208 7.16511 30.1823C7.19079 30.1652 7.20791 30.131 7.20791 30.0967V28.9582L8.55192 28.1107C8.60328 28.0936 8.61184 28.0251 8.58616 27.9737Z" fill="#2F292B"/>
<path d="M10.8462 18.2404C10.8548 18.2147 10.8462 18.1805 10.8291 18.1633C10.812 18.1291 10.7777 18.112 10.7435 18.112C10.7263 18.112 10.7092 18.1205 10.6835 18.1291L9.28818 19.0023C9.25394 19.0194 9.23682 19.0536 9.23682 19.0964V20.2863C9.23682 20.3292 9.2625 20.372 9.3053 20.3891C9.33954 20.3976 9.37379 20.3976 9.40803 20.372C9.43371 20.3548 9.45083 20.3206 9.45083 20.2863V19.1478L10.7948 18.3003C10.8205 18.2917 10.8376 18.2661 10.8462 18.2404Z" fill="#2F292B"/>
<path d="M10.8462 21.0654C10.8548 21.0397 10.8462 21.0054 10.8291 20.9883C10.812 20.9626 10.7948 20.9455 10.7606 20.937C10.752 20.937 10.7435 20.937 10.7349 20.937C10.7178 20.937 10.6921 20.9455 10.6835 20.9541L9.28818 21.8272C9.25394 21.8444 9.23682 21.8786 9.23682 21.9214V23.1113C9.23682 23.1541 9.2625 23.1969 9.3053 23.2141C9.33954 23.2226 9.37379 23.2226 9.40803 23.1969C9.43371 23.1798 9.45083 23.1456 9.45083 23.1113V21.9728L10.7948 21.1253C10.8205 21.1167 10.8376 21.091 10.8462 21.0654Z" fill="#2F292B"/>
<path d="M10.8376 23.7277C10.8205 23.702 10.8034 23.6849 10.7691 23.6763C10.7606 23.6763 10.752 23.6763 10.7435 23.6763C10.7263 23.6763 10.7007 23.6849 10.6921 23.6935L9.29673 24.5666C9.26248 24.5838 9.24536 24.618 9.24536 24.6608V25.8507C9.24536 25.8935 9.27104 25.9363 9.31385 25.9534C9.34809 25.962 9.38233 25.962 9.41657 25.9363C9.44225 25.9192 9.45937 25.885 9.45937 25.8507V24.7207L10.8034 23.8732C10.8462 23.8475 10.8633 23.7791 10.8376 23.7277Z" fill="#2F292B"/>
<path d="M10.8376 26.5698C10.8205 26.5441 10.8034 26.527 10.7691 26.5184C10.7606 26.5184 10.752 26.5184 10.7435 26.5184C10.7263 26.5184 10.7007 26.527 10.6921 26.5356L9.29673 27.4087C9.26248 27.4258 9.24536 27.4601 9.24536 27.5029V28.6928C9.24536 28.7356 9.27104 28.7784 9.31385 28.7955C9.34809 28.8041 9.38233 28.8041 9.41657 28.7784C9.44225 28.7613 9.45937 28.7271 9.45937 28.6928V27.5543L10.8034 26.7068C10.8462 26.6811 10.8633 26.6212 10.8376 26.5698Z" fill="#2F292B"/>
<path d="M24.4233 20.9198C24.4575 20.9284 24.4917 20.9284 24.526 20.9027C24.5517 20.8856 24.5688 20.8513 24.5688 20.8171V19.7556L25.8101 20.449C25.8614 20.4747 25.9214 20.4576 25.9556 20.4062C25.9813 20.3548 25.9642 20.2863 25.9128 20.2607L24.5174 19.4817C24.5003 19.4731 24.4832 19.4645 24.4661 19.4645C24.4318 19.4645 24.3976 19.4817 24.3805 19.5159C24.3719 19.533 24.3633 19.5501 24.3633 19.5758V20.8085C24.3548 20.8599 24.3805 20.9027 24.4233 20.9198Z" fill="#2F292B"/>
<path d="M25.9127 23.1456L24.5174 22.3666C24.5002 22.358 24.4831 22.3495 24.466 22.3495C24.4318 22.3495 24.3975 22.3666 24.3804 22.4008C24.3633 22.4179 24.3633 22.4436 24.3633 22.4607V23.6935C24.3633 23.7363 24.389 23.7791 24.4318 23.7962C24.466 23.8048 24.5002 23.8048 24.5345 23.7791C24.5602 23.7619 24.5773 23.7277 24.5773 23.6935V22.632L25.8186 23.3254C25.8699 23.351 25.9299 23.3339 25.9641 23.2826C25.9812 23.2398 25.9641 23.1798 25.9127 23.1456Z" fill="#2F292B"/>
<path d="M25.9127 25.8935L24.5174 25.1145C24.5002 25.1059 24.4831 25.0974 24.466 25.0974C24.4318 25.0974 24.3975 25.1145 24.3804 25.1487C24.3718 25.1659 24.3633 25.183 24.3633 25.2087V26.4414C24.3633 26.4842 24.389 26.527 24.4318 26.5441C24.466 26.5527 24.5002 26.5527 24.5345 26.527C24.5602 26.5099 24.5773 26.4756 24.5773 26.4414V25.3799L25.8186 26.0733C25.8699 26.099 25.9299 26.0818 25.9641 26.0305C25.9812 25.9877 25.9641 25.9192 25.9127 25.8935Z" fill="#2F292B"/>
<path d="M25.9127 28.727L24.5174 27.948C24.5002 27.9395 24.4831 27.9309 24.466 27.9309C24.4318 27.9309 24.3975 27.948 24.3804 27.9823C24.3718 27.9994 24.3633 28.0165 24.3633 28.0422V29.2749C24.3633 29.3177 24.389 29.3605 24.4318 29.3776C24.466 29.3862 24.5002 29.3862 24.5345 29.3605C24.5602 29.3434 24.5773 29.3092 24.5773 29.2749V28.2134L25.8186 28.9068C25.8443 28.9239 25.8699 28.9239 25.8956 28.9154C25.9213 28.9068 25.947 28.8897 25.9555 28.864C25.9812 28.8212 25.9641 28.7613 25.9127 28.727Z" fill="#2F292B"/>
<path d="M22.1289 19.7213C22.1632 19.7299 22.1888 19.7213 22.2145 19.7042C22.2402 19.6871 22.2488 19.6529 22.2488 19.6272V18.4201L23.6527 19.1992C23.6784 19.2163 23.7126 19.2163 23.7383 19.2077C23.764 19.1992 23.7897 19.1735 23.7982 19.1392C23.8153 19.0964 23.7897 19.0451 23.7469 19.0194L22.1974 18.1548C22.1803 18.1462 22.1632 18.1462 22.146 18.1462C22.1118 18.1462 22.0861 18.1633 22.069 18.189C22.0519 18.2061 22.0519 18.2318 22.0519 18.2575V19.6186C22.0519 19.67 22.0861 19.7128 22.1289 19.7213Z" fill="#2F292B"/>
<path d="M22.1289 22.6405C22.1632 22.6491 22.1888 22.6405 22.2145 22.6234C22.2402 22.6063 22.2488 22.572 22.2488 22.5463V21.3393L23.6527 22.1183C23.6784 22.1354 23.7126 22.1354 23.7383 22.1269C23.764 22.1183 23.7897 22.0926 23.7982 22.0584C23.8153 22.0156 23.7897 21.9642 23.7469 21.9385L22.1974 21.0739C22.1803 21.0654 22.1632 21.0654 22.1546 21.0654C22.1204 21.0654 22.0947 21.0825 22.069 21.1082C22.0519 21.1253 22.0519 21.151 22.0519 21.1767V22.5378C22.0519 22.5806 22.0861 22.632 22.1289 22.6405Z" fill="#2F292B"/>
<path d="M22.1289 25.4398C22.1632 25.4484 22.1888 25.4398 22.2145 25.4227C22.2402 25.4056 22.2488 25.3713 22.2488 25.3456V24.1386L23.6527 24.9176C23.6784 24.9347 23.7126 24.9347 23.7383 24.9262C23.764 24.9176 23.7897 24.8919 23.7982 24.8577C23.8153 24.8149 23.7897 24.7635 23.7469 24.7378L22.1974 23.8732C22.1803 23.8647 22.1632 23.8647 22.1546 23.8647C22.1204 23.8647 22.0947 23.8818 22.069 23.9075C22.0519 23.9246 22.0519 23.9503 22.0519 23.9759V25.3371C22.0519 25.3884 22.0861 25.4312 22.1289 25.4398Z" fill="#2F292B"/>
<path d="M23.7469 27.5371L22.1974 26.6725C22.1803 26.664 22.1632 26.664 22.146 26.664C22.1118 26.664 22.0861 26.6811 22.069 26.7068C22.0519 26.7239 22.0519 26.7496 22.0519 26.7753V28.1364C22.0519 28.1877 22.0861 28.2306 22.1289 28.2391C22.1632 28.2477 22.1888 28.2391 22.2145 28.222C22.2402 28.2049 22.2488 28.1706 22.2488 28.1449V26.9379L23.6527 27.7169C23.6784 27.734 23.7126 27.734 23.7383 27.7255C23.764 27.7169 23.7897 27.6912 23.7982 27.657C23.8153 27.6142 23.7897 27.5628 23.7469 27.5371Z" fill="#2F292B"/>
<path d="M29.3712 19.4902C29.3626 19.4902 29.3541 19.4902 29.3455 19.4902C29.3284 19.4902 29.3027 19.4988 29.2941 19.5074L27.8988 20.3805C27.8645 20.3977 27.8474 20.4319 27.8474 20.4747V21.6646C27.8474 21.7074 27.8731 21.7502 27.9159 21.7673C27.9501 21.7759 27.9844 21.7759 28.0186 21.7502C28.0443 21.7331 28.0614 21.6989 28.0614 21.6646V20.5261L29.4054 19.6786C29.4311 19.6614 29.4482 19.6358 29.4482 19.6101C29.4568 19.5844 29.4482 19.5502 29.4311 19.533C29.4226 19.5159 29.4054 19.4988 29.3712 19.4902Z" fill="#2F292B"/>
<path d="M29.3712 22.221C29.3626 22.221 29.3541 22.221 29.3455 22.221C29.3284 22.221 29.3027 22.2296 29.2941 22.2382L27.8988 23.1113C27.8645 23.1285 27.8474 23.1627 27.8474 23.2055V24.3954C27.8474 24.4382 27.8731 24.481 27.9159 24.4981C27.9501 24.5067 27.9844 24.5067 28.0186 24.481C28.0443 24.4639 28.0614 24.4297 28.0614 24.3954V23.2569L29.4054 22.4094C29.4311 22.3923 29.4482 22.3666 29.4482 22.3409C29.4568 22.3152 29.4482 22.281 29.4311 22.2638C29.4226 22.2467 29.4054 22.2296 29.3712 22.221Z" fill="#2F292B"/>
<path d="M29.3712 25.0974C29.3626 25.0974 29.3541 25.0974 29.3455 25.0974C29.3284 25.0974 29.3027 25.1059 29.2941 25.1145L27.8988 25.9877C27.8645 26.0048 27.8474 26.039 27.8474 26.0818V27.2718C27.8474 27.3231 27.8731 27.3574 27.9159 27.3745C27.9501 27.383 27.9844 27.383 28.0186 27.3574C28.0443 27.3402 28.0614 27.306 28.0614 27.2718V26.1332L29.4054 25.2857C29.4311 25.2686 29.4482 25.2429 29.4482 25.2172C29.4568 25.1915 29.4482 25.1573 29.4311 25.1402C29.4226 25.1145 29.4054 25.0974 29.3712 25.0974Z" fill="#2F292B"/>
<path d="M29.3712 27.9309C29.3626 27.9309 29.3541 27.9309 29.3455 27.9309C29.3284 27.9309 29.3027 27.9395 29.2941 27.948L27.8988 28.8212C27.8645 28.8383 27.8474 28.8726 27.8474 28.9154V30.1053C27.8474 30.1481 27.8731 30.1909 27.9159 30.208C27.9501 30.2166 27.9844 30.2166 28.0186 30.1909C28.0443 30.1738 28.0614 30.1395 28.0614 30.1053V28.9667L29.4054 28.1192C29.4311 28.1021 29.4482 28.0764 29.4482 28.0508C29.4568 28.0251 29.4482 27.9908 29.4311 27.9737C29.4226 27.9566 29.4054 27.9395 29.3712 27.9309Z" fill="#2F292B"/>
<path d="M30.1759 20.3891C30.2102 20.3976 30.2444 20.3977 30.2786 20.372C30.3043 20.3548 30.3214 20.3206 30.3214 20.2864V19.1478L31.6655 18.3003C31.6911 18.2832 31.7083 18.2575 31.7083 18.2318C31.7168 18.2062 31.7083 18.1719 31.6911 18.1548C31.674 18.1291 31.6569 18.112 31.6227 18.1034C31.6141 18.1034 31.6055 18.1034 31.597 18.1034C31.5799 18.1034 31.5542 18.112 31.5456 18.1205L30.1502 19.0023C30.116 19.0194 30.0989 19.0536 30.0989 19.0964V20.2864C30.0989 20.3292 30.1331 20.372 30.1759 20.3891Z" fill="#2F292B"/>
<path d="M31.6227 20.937C31.6141 20.937 31.6055 20.937 31.597 20.937C31.5799 20.937 31.5542 20.9455 31.5456 20.9541L30.1502 21.8272C30.116 21.8444 30.0989 21.8786 30.0989 21.9214V23.1113C30.0989 23.1541 30.1246 23.1969 30.1674 23.2141C30.2016 23.2226 30.2358 23.2226 30.2701 23.1969C30.2958 23.1798 30.3129 23.1456 30.3129 23.1113V21.9728L31.6569 21.1253C31.6826 21.1082 31.6997 21.0825 31.6997 21.0568C31.7083 21.0311 31.6997 20.9969 31.6826 20.9798C31.674 20.9626 31.6483 20.9455 31.6227 20.937Z" fill="#2F292B"/>
<path d="M31.6227 23.6849C31.6141 23.6849 31.6055 23.6849 31.597 23.6849C31.5799 23.6849 31.5542 23.6934 31.5456 23.702L30.1502 24.5752C30.116 24.5923 30.0989 24.6265 30.0989 24.6693V25.8593C30.0989 25.9106 30.1246 25.9449 30.1674 25.962C30.2016 25.9705 30.2358 25.9705 30.2701 25.9449C30.2958 25.9277 30.3129 25.8935 30.3129 25.8593V24.7207L31.6569 23.8732C31.6826 23.8561 31.6997 23.8304 31.6997 23.8047C31.7083 23.779 31.6997 23.7448 31.6826 23.7277C31.674 23.7106 31.6483 23.6934 31.6227 23.6849Z" fill="#2F292B"/>
<path d="M13.7396 11.0495C13.7738 11.0581 13.8081 11.0581 13.8423 11.0324C13.868 11.0153 13.8851 10.981 13.8851 10.9468V9.8853L15.0494 10.5188C15.0751 10.5359 15.1179 10.5359 15.1435 10.5188C15.1778 10.5017 15.1949 10.476 15.2035 10.4417C15.212 10.3989 15.1863 10.3561 15.1435 10.3304L13.8252 9.61136C13.8081 9.6028 13.791 9.59424 13.7738 9.59424C13.7396 9.59424 13.7054 9.61136 13.6882 9.6456C13.6797 9.66272 13.6711 9.67984 13.6711 9.70553V10.9382C13.6626 10.9982 13.6968 11.041 13.7396 11.0495Z" fill="#2F292B"/>
<path d="M13.7396 13.6862C13.7738 13.6947 13.8081 13.6947 13.8423 13.669C13.868 13.6519 13.8851 13.6177 13.8851 13.5834V12.5219L15.0494 13.1554C15.0751 13.1725 15.1179 13.1725 15.1435 13.1554C15.1778 13.1383 15.1949 13.1126 15.2035 13.0784C15.212 13.0356 15.1863 12.9928 15.1435 12.9671L13.8252 12.248C13.8081 12.2394 13.791 12.2309 13.7738 12.2309C13.7396 12.2309 13.7054 12.248 13.6882 12.2822C13.6797 12.2994 13.6711 12.3165 13.6711 12.3422V13.5749C13.6626 13.6262 13.6968 13.669 13.7396 13.6862Z" fill="#2F292B"/>
<path d="M13.7396 16.2972C13.7738 16.3057 13.8081 16.3057 13.8423 16.28C13.868 16.2629 13.8851 16.2287 13.8851 16.1944V15.1329L15.0494 15.7664C15.0751 15.7835 15.1179 15.7835 15.1435 15.7664C15.1778 15.7493 15.1949 15.7236 15.2035 15.6894C15.212 15.6465 15.1863 15.6037 15.1435 15.5781L13.8252 14.859C13.8081 14.8504 13.791 14.8419 13.7738 14.8419C13.7396 14.8419 13.7054 14.859 13.6882 14.8932C13.6711 14.9103 13.6711 14.936 13.6711 14.9531V16.1859C13.6626 16.2372 13.6968 16.28 13.7396 16.2972Z" fill="#2F292B"/>
<path d="M13.7396 18.9081C13.7738 18.9167 13.8081 18.9167 13.8423 18.891C13.868 18.8739 13.8851 18.8396 13.8851 18.8054V17.7439L15.0494 18.3774C15.0751 18.3945 15.1179 18.3945 15.1435 18.3774C15.1778 18.3602 15.1949 18.3346 15.2035 18.3003C15.212 18.2575 15.1863 18.2147 15.1435 18.189L13.8252 17.4699C13.8081 17.4614 13.791 17.4528 13.7738 17.4528C13.7396 17.4528 13.7054 17.4699 13.6882 17.5042C13.6797 17.5213 13.6711 17.5384 13.6711 17.5641V18.7968C13.6626 18.8567 13.6968 18.8996 13.7396 18.9081Z" fill="#2F292B"/>
<path d="M15.1864 20.9113C15.2035 20.8856 15.2035 20.8599 15.195 20.8342C15.1864 20.8086 15.1693 20.7829 15.1436 20.7743L13.8167 20.0552C13.7996 20.0467 13.7825 20.0467 13.7653 20.0467C13.7311 20.0467 13.6969 20.0638 13.6712 20.098C13.6626 20.1151 13.6541 20.1323 13.6541 20.158V21.3821C13.6541 21.4249 13.6797 21.4677 13.7225 21.4848C13.7568 21.4934 13.791 21.4934 13.8253 21.4677C13.8509 21.4506 13.8681 21.4163 13.8681 21.3821V20.3206L15.0323 20.9541C15.058 20.9712 15.0837 20.9712 15.1093 20.9626C15.1521 20.9541 15.1778 20.937 15.1864 20.9113Z" fill="#2F292B"/>
<path d="M15.1949 23.4024C15.1864 23.3767 15.1693 23.351 15.1436 23.3425L13.8167 22.6234C13.7996 22.6148 13.7824 22.6063 13.7653 22.6063C13.7311 22.6063 13.6968 22.6234 13.6797 22.6576C13.6626 22.6747 13.6626 22.7004 13.6626 22.7176V23.9503C13.6626 23.9931 13.6883 24.0359 13.7311 24.053C13.7653 24.0616 13.7996 24.0616 13.8338 24.0359C13.8595 24.0188 13.8766 23.9845 13.8766 23.9503V22.8888L15.0408 23.5222C15.0922 23.5479 15.1521 23.5308 15.1864 23.4794C15.2035 23.4623 15.2035 23.4281 15.1949 23.4024Z" fill="#2F292B"/>
<path d="M15.2035 26.1161C15.1949 26.0818 15.1778 26.0562 15.1521 26.039L13.8252 25.3199C13.8081 25.3114 13.791 25.3028 13.7739 25.3028C13.7396 25.3028 13.7054 25.3199 13.6883 25.3542C13.6711 25.3713 13.6711 25.397 13.6711 25.4141V26.6468C13.6711 26.6896 13.6968 26.7324 13.7396 26.7496C13.7739 26.7581 13.8081 26.7581 13.8424 26.7324C13.868 26.7153 13.8852 26.6811 13.8852 26.6468V25.5853L15.0494 26.2188C15.0922 26.2445 15.1436 26.2359 15.1692 26.2102C15.1949 26.1846 15.2035 26.1503 15.2035 26.1161Z" fill="#2F292B"/>
<path d="M17.8744 11.5375C17.9087 11.546 17.9429 11.546 17.9772 11.5203C18.0028 11.5032 18.02 11.469 18.02 11.4347V10.4674L19.304 9.66271C19.3468 9.63703 19.364 9.59423 19.3554 9.55143C19.3468 9.51718 19.3212 9.4915 19.2955 9.47438C19.2869 9.46582 19.2698 9.46582 19.2527 9.46582C19.2356 9.46582 19.2099 9.47438 19.2013 9.48294L17.8659 10.3133C17.8316 10.3304 17.8145 10.3647 17.8145 10.4075V11.4347C17.8059 11.4861 17.8316 11.5289 17.8744 11.5375Z" fill="#2F292B"/>
<path d="M19.2869 11.9997C19.2783 11.9912 19.2612 11.9912 19.2441 11.9912C19.227 11.9912 19.2013 11.9997 19.1927 12.0083L17.8573 12.8387C17.823 12.8558 17.8059 12.89 17.8059 12.9328V13.9601C17.8059 14.0029 17.8316 14.0457 17.8744 14.0628C17.9086 14.0714 17.9429 14.0714 17.9771 14.0457C18.0028 14.0286 18.0199 13.9943 18.0199 13.9601V12.9928L19.304 12.1881C19.3468 12.1624 19.3639 12.1196 19.3554 12.0768C19.3468 12.0425 19.3211 12.0169 19.2869 11.9997Z" fill="#2F292B"/>
<path d="M19.2869 14.6878C19.2783 14.6792 19.2612 14.6792 19.2441 14.6792C19.227 14.6792 19.2013 14.6878 19.1927 14.6963L17.8573 15.5267C17.823 15.5438 17.8059 15.5781 17.8059 15.6209V16.6481C17.8059 16.6909 17.8316 16.7337 17.8744 16.7508C17.9086 16.7594 17.9429 16.7594 17.9771 16.7337C18.0028 16.7166 18.0199 16.6824 18.0199 16.6481V15.6808L19.304 14.8761C19.3468 14.8504 19.3639 14.8076 19.3554 14.7648C19.3468 14.7306 19.3211 14.7049 19.2869 14.6878Z" fill="#2F292B"/>
<path d="M19.2869 17.3158C19.2783 17.3073 19.2612 17.3073 19.2441 17.3073C19.227 17.3073 19.2013 17.3158 19.1927 17.3244L17.8573 18.1548C17.823 18.1719 17.8059 18.2061 17.8059 18.2489V19.2762C17.8059 19.319 17.8316 19.3618 17.8744 19.3789C17.9086 19.3875 17.9429 19.3875 17.9771 19.3618C18.0028 19.3447 18.0199 19.3104 18.0199 19.2762V18.3089L19.304 17.5042C19.3468 17.4785 19.3639 17.4357 19.3554 17.3929C19.3468 17.3586 19.3211 17.333 19.2869 17.3158Z" fill="#2F292B"/>
<path d="M19.2698 19.8583C19.2612 19.8583 19.2527 19.8583 19.2441 19.8583C19.227 19.8583 19.2099 19.8669 19.1927 19.8755L17.8487 20.7144C17.823 20.7315 17.7974 20.7658 17.7974 20.8V21.8273C17.7974 21.8701 17.823 21.9129 17.8658 21.93C17.9001 21.9385 17.9343 21.9385 17.9686 21.9129C17.9943 21.8957 18.0114 21.8615 18.0114 21.8273V20.8599L19.2955 20.0552C19.3211 20.0381 19.3383 20.021 19.3468 19.9867C19.3554 19.9611 19.3468 19.9268 19.3297 19.9097C19.3211 19.8755 19.304 19.8583 19.2698 19.8583Z" fill="#2F292B"/>
<path d="M19.2698 22.4008C19.2612 22.4008 19.2527 22.4008 19.2441 22.4008C19.227 22.4008 19.2099 22.4094 19.1927 22.4179L17.8487 23.2569C17.823 23.274 17.7974 23.3082 17.7974 23.3425V24.3697C17.7974 24.4125 17.823 24.4553 17.8658 24.4725C17.9001 24.481 17.9343 24.481 17.9686 24.4553C17.9943 24.4382 18.0114 24.404 18.0114 24.3697V23.4024L19.2955 22.5977C19.3211 22.5806 19.3383 22.5635 19.3468 22.5292C19.3554 22.5035 19.3468 22.4693 19.3297 22.4522C19.3211 22.4179 19.304 22.4008 19.2698 22.4008Z" fill="#2F292B"/>
<path d="M19.2698 25.0974C19.2612 25.0974 19.2527 25.0974 19.2441 25.0974C19.227 25.0974 19.2099 25.1059 19.1927 25.1145L17.8487 25.9534C17.823 25.9706 17.7974 26.0048 17.7974 26.039V27.0663C17.7974 27.1091 17.823 27.1519 17.8658 27.169C17.9001 27.1776 17.9343 27.1776 17.9686 27.1519C17.9943 27.1348 18.0114 27.1005 18.0114 27.0663V26.0904L19.2955 25.2857C19.3211 25.2686 19.3383 25.2515 19.3468 25.2172C19.3554 25.1915 19.3468 25.1573 19.3297 25.1402C19.3211 25.1231 19.304 25.1059 19.2698 25.0974Z" fill="#2F292B"/>
<path d="M13.6455 5.39101L16.2992 7.11168C16.3335 7.13737 16.3677 7.14593 16.4105 7.14593C16.4448 7.14593 16.479 7.13736 16.5133 7.12024L19.1756 5.51086C19.2698 5.45094 19.304 5.33109 19.2441 5.23692C19.1841 5.14276 19.0643 5.10852 18.9701 5.16844L16.4191 6.7179L13.868 5.06571C13.7739 5.00579 13.654 5.03147 13.5941 5.12564C13.5256 5.20268 13.5513 5.33109 13.6455 5.39101Z" fill="#2F292B"/>
<path d="M14.6129 4.51782L16.3678 5.55365C16.3935 5.57077 16.4192 5.57933 16.4448 5.57933C16.4705 5.57933 16.4962 5.57077 16.5219 5.56221L18.2425 4.57775C18.3196 4.53494 18.3453 4.43222 18.3025 4.35517C18.2597 4.27813 18.1569 4.25245 18.0799 4.29525L16.4534 5.22835L14.7841 4.24389C14.707 4.20108 14.6129 4.22676 14.5615 4.30381C14.5101 4.38085 14.5358 4.47502 14.6129 4.51782Z" fill="#2F292B"/>
<path d="M15.4688 3.77305L16.3848 4.33804C16.4019 4.3466 16.4276 4.35516 16.4447 4.35516C16.4704 4.35516 16.4875 4.3466 16.5047 4.33804L17.4378 3.77305C17.4977 3.7388 17.5148 3.66176 17.4806 3.6104C17.4463 3.55047 17.3693 3.53335 17.3179 3.56759L16.4533 4.09835L15.6058 3.56759C15.5459 3.53335 15.4774 3.55047 15.4432 3.6104C15.3918 3.66176 15.4175 3.73024 15.4688 3.77305Z" fill="#2F292B"/>
</svg>
