<svg width="149" height="32" viewBox="0 0 149 32" fill="none" xmlns="http://www.w3.org/2000/svg">
<path d="M50.3985 14.5889H49.1782L48.7793 8.78084L45.9163 14.5889H45.4235L42.5723 8.78084L42.1733 14.5889H41L41.7392 6.14081H42.408L45.7169 12.6294L48.838 6.14081H49.718L50.3985 14.5889Z" fill="white"/>
<path d="M73.1966 14.5889H71.988L71.5891 8.78084L68.7261 14.5889H68.2216L65.3821 8.78084L64.9832 14.5889H63.8098L64.549 6.14081H65.2178L68.5267 12.6294L71.6478 6.14081H72.5278L73.1966 14.5889Z" fill="white"/>
<path d="M133.143 14.5889H131.923L131.524 8.78084L128.661 14.5889H128.168L125.328 8.78084L124.929 14.5889H123.744L124.484 6.14081H125.164L128.473 12.6294L131.594 6.14081H132.462L133.143 14.5889Z" fill="white"/>
<path d="M59.3983 6.10559L56.1716 10.7051V14.5889H55.0452V10.7051L51.9124 6.10559H53.2148L55.714 9.71951L58.0959 6.10559H59.3983Z" fill="white"/>
<path d="M84.0383 10.3414C84.0383 11.6086 83.6277 12.6529 82.7946 13.4742C81.9732 14.2838 80.929 14.6828 79.6617 14.6828C78.3945 14.6828 77.3502 14.2838 76.5289 13.4742C75.6958 12.6646 75.2852 11.6203 75.2852 10.3414C75.2852 9.07417 75.6958 8.02989 76.5289 7.20855C77.3502 6.39894 78.3945 6 79.6617 6C80.929 6 81.9732 6.39894 82.7946 7.20855C83.6159 8.01816 84.0383 9.06244 84.0383 10.3414ZM82.7124 10.3414C82.7124 9.30884 82.4191 8.49923 81.8324 7.88909C81.2692 7.31415 80.5417 7.02081 79.65 7.02081C78.7583 7.02081 78.0308 7.31415 77.4676 7.88909C76.8692 8.49923 76.5758 9.30884 76.5758 10.3414C76.5758 11.3739 76.8692 12.1835 77.4676 12.7819C78.0308 13.3569 78.7583 13.6385 79.65 13.6385C80.5417 13.6385 81.2692 13.3569 81.8324 12.7819C82.4191 12.1835 82.7124 11.3622 82.7124 10.3414Z" fill="white"/>
<path d="M93.1905 10.271C93.1905 11.855 92.6859 13.0284 91.6768 13.7676C90.9376 14.319 89.9989 14.5889 88.8843 14.5889L86.3616 14.5772V6.09387H88.8491C89.9755 6.09387 90.9142 6.34028 91.6416 6.84482C92.6859 7.56056 93.1905 8.6987 93.1905 10.271ZM91.9936 10.271C91.9819 8.9803 91.5595 8.08856 90.7264 7.59575C90.175 7.27895 89.4005 7.11469 88.3915 7.11469H87.5349V13.5681H88.5909C90.8672 13.5681 92.0054 12.4651 91.9936 10.271Z" fill="white"/>
<path d="M100.571 14.5889H95.6897V6.09387H100.137V7.11469H96.863V9.82511H99.5969V10.8459H96.863V13.5681H100.571V14.5889Z" fill="white"/>
<path d="M140.476 14.5889H135.595V6.09387H140.042V7.11469H136.769V9.82511H139.502V10.8459H136.769V13.5681H140.476V14.5889Z" fill="white"/>
<path d="M109.054 14.5889H107.74L105.065 10.7286H103.88V14.5889H102.707V6.09387H105.065C105.922 6.09387 106.59 6.31681 107.071 6.77441C107.506 7.19682 107.728 7.74829 107.728 8.42884C107.728 9.50831 107.236 10.2123 106.238 10.5409L109.054 14.5889ZM106.45 8.4523C106.45 8.00642 106.32 7.66615 106.062 7.45495C105.792 7.23202 105.347 7.11469 104.748 7.11469H103.915V9.68431H104.748C105.358 9.68431 105.804 9.59044 106.062 9.39097C106.32 9.21497 106.45 8.89817 106.45 8.4523Z" fill="white"/>
<path d="M118.23 14.5889H117.631L112.128 8.3819V14.5889H110.92V6.11734H111.635L116.939 12.0075V6.09387H118.23V14.5889Z" fill="white"/>
<path d="M148.385 7.11469H145.698V14.5889H144.524V7.11469H141.896V6.09387H148.385V7.11469Z" fill="white"/>
<path d="M79.122 22.4855C79.0634 22.4621 79.0047 22.4386 78.946 22.4269C79.0047 22.4621 79.0751 22.4855 79.1338 22.4973C79.1338 22.4855 79.1338 22.4855 79.122 22.4855Z" fill="white"/>
<path d="M80.1194 26.5805C79.9786 26.9677 79.6149 27.484 79.2981 27.7538C78.993 28.0237 78.5119 28.188 77.937 28.188C77.0687 28.188 76.3999 27.9299 75.9306 27.4136C75.4612 26.8973 75.2266 26.1933 75.2266 25.2898C75.2266 24.3394 75.473 23.6002 75.9658 23.0605C76.4586 22.5207 77.1391 22.2509 78.0191 22.2509C78.2538 22.2509 78.465 22.2743 78.6293 22.3095C78.7466 22.3447 78.8522 22.3682 78.9695 22.4151C79.0282 22.4503 79.0986 22.4738 79.1573 22.4855C79.3215 22.5325 79.4858 22.5207 79.6031 22.4973C79.7557 22.4738 79.8613 22.4269 79.8613 22.4269V24.2807H79.5562C79.3919 22.5794 77.9722 22.509 77.9722 22.509C77.4911 22.509 77.2095 22.6733 76.9162 22.9549C76.6346 23.2365 76.5642 23.5767 76.4468 23.9874C76.3295 24.3981 76.2708 24.797 76.2708 25.2077C76.2708 25.677 76.3412 26.1112 76.4703 26.5218C76.5994 26.9325 76.8106 27.261 77.1039 27.5074C77.3973 27.7539 77.5733 27.8477 78.0191 27.8477C78.3711 27.8477 78.6645 27.7891 78.8874 27.6717C79.1103 27.5544 79.2863 27.4136 79.4154 27.2376C79.5327 27.0733 79.7909 26.6861 79.8965 26.4632L80.1194 26.5805Z" fill="white"/>
<path d="M83.8508 27.8242C83.8743 27.836 83.9095 27.836 83.933 27.836V27.8242H83.8508Z" fill="white"/>
<path d="M87.5467 27.7421C87.4646 27.6835 87.3942 27.5544 87.3238 27.3549L85.5286 22.3213L84.9419 22.3799L83.088 27.1906C83.0528 27.2728 83.0176 27.3549 82.9589 27.4253C82.6656 27.8008 82.208 27.836 82.208 27.836V28.0824H84.1792V27.8477C84.0854 27.8595 84.0032 27.8477 83.9328 27.8477C83.8976 27.8477 83.8742 27.836 83.8507 27.836C83.616 27.7773 83.5222 27.6248 83.4987 27.484C83.4752 27.3667 83.487 27.2493 83.5222 27.132L83.8742 26.1464H85.8336C85.8336 26.1464 85.9745 26.5805 86.1974 27.2258C86.4203 27.8829 85.5755 27.8477 85.5755 27.8477V28.0824H87.9809V27.8243C87.7697 27.8243 87.6289 27.8008 87.5467 27.7421ZM83.9798 25.853L84.8363 23.4946H84.8598L85.7398 25.853H83.9798Z" fill="white"/>
<path d="M72.7626 27.7421C72.6804 27.6835 72.61 27.5544 72.5396 27.3549L70.7444 22.3213L70.1577 22.3799L68.3038 27.1906C68.2686 27.2728 68.2334 27.3549 68.1748 27.4253C67.8814 27.8008 67.4238 27.836 67.4238 27.836V28.0824H69.395V27.8477C69.3012 27.8595 69.219 27.8477 69.1486 27.8477C69.1134 27.8477 69.09 27.836 69.0665 27.836C68.8318 27.7773 68.738 27.6248 68.7145 27.484C68.691 27.3667 68.7028 27.2493 68.738 27.132L69.09 26.1464H71.0495C71.0495 26.1464 71.1903 26.5805 71.4132 27.2258C71.6361 27.8829 70.7913 27.8477 70.7913 27.8477V28.0824H73.1967V27.8243C72.9855 27.8243 72.8447 27.8008 72.7626 27.7421ZM69.1956 25.853L70.0521 23.4946H70.0756L70.9556 25.853H69.1956Z" fill="white"/>
<path d="M94.7981 23.0722C94.3053 22.6029 93.613 22.3682 92.7096 22.3565H90.1282V22.6029C90.3511 22.6029 90.5037 22.6146 90.5858 22.6381C90.6679 22.6615 90.7266 22.7085 90.7501 22.7789C90.7735 22.8493 90.7853 22.9666 90.7853 23.1309V27.3197C90.7853 27.484 90.7735 27.6013 90.7501 27.6717C90.7266 27.7421 90.6679 27.7891 90.5741 27.8008C90.4802 27.8243 90.3277 27.836 90.1165 27.836V28.0941H92.4866C93.4488 28.0941 94.1997 27.8477 94.7277 27.3432C95.2557 26.8387 95.5139 26.1112 95.5139 25.1373C95.5256 24.2221 95.2909 23.5416 94.7981 23.0722ZM92.5336 27.7891H91.8061V22.6381H92.604C93.2376 22.6381 93.7069 22.861 94.0002 23.3069C94.2936 23.7528 94.4461 24.3629 94.4461 25.149C94.4461 26.9091 93.8125 27.7891 92.5336 27.7891Z" fill="white"/>
<path d="M101.204 24.3394C101.216 24.269 101.228 24.1986 101.228 24.1165C101.216 24.1869 101.204 24.269 101.204 24.3394ZM101.193 25.8413C101.204 25.9117 101.204 25.9938 101.216 26.0642C101.228 26.0407 101.228 25.9586 101.193 25.8413Z" fill="white"/>
<path d="M102.342 26.252L102.202 28.0824H97.9307V27.836C98.1536 27.836 98.3179 27.8243 98.4 27.8008C98.4939 27.7773 98.5525 27.7304 98.576 27.6717C98.5995 27.6013 98.6112 27.484 98.6112 27.3197V23.1309C98.6112 22.9666 98.5995 22.8493 98.576 22.7789C98.5525 22.7085 98.4939 22.6615 98.4 22.6498C98.3061 22.6263 98.1536 22.6146 97.9307 22.6146V22.3682H102.049L102.249 24.0461H101.944C101.885 23.741 101.697 23.2247 101.627 23.0722C101.545 22.9197 101.427 22.8141 101.263 22.7554C101.099 22.6967 100.852 22.6615 100.524 22.6615L99.5733 22.6733V24.973H100.442C100.5 24.973 100.547 24.973 100.606 24.9613C100.606 24.9613 101.087 24.9261 101.204 24.3511C101.216 24.2807 101.228 24.2103 101.228 24.1282H101.474V26.076H101.228C101.228 26.0525 101.228 25.9704 101.204 25.853C101.157 25.6418 101.005 25.3368 100.606 25.2546C100.559 25.2546 100.5 25.2429 100.442 25.2429H99.5733V27.8008C99.5733 27.8008 100.183 27.7891 100.512 27.7891C100.887 27.7891 101.052 27.7539 101.251 27.6952C101.451 27.6365 101.603 27.5192 101.721 27.3432C101.838 27.1672 102.002 26.5805 102.084 26.252H102.342V26.252Z" fill="white"/>
<path d="M110.967 23.0957V27.3432C110.967 27.484 110.978 27.5896 111.014 27.66C111.049 27.7304 111.107 27.7773 111.213 27.7891C111.307 27.8125 111.424 27.8243 111.635 27.8243V28.0707H109.301V27.8243C109.535 27.8243 109.653 27.8125 109.758 27.7891C109.864 27.7656 109.922 27.7187 109.958 27.6483C109.981 27.5896 110.005 27.484 110.005 27.3315V22.9666H109.981L108.057 27.8829H107.67L105.745 23.0605H105.722L105.71 27.2611C105.722 27.2963 105.804 27.7773 106.402 27.8125C106.438 27.8125 106.484 27.8125 106.531 27.8125V28.0589H104.642V27.8125H104.654C104.724 27.8125 105.311 27.7891 105.358 27.2611V23.0839C105.358 22.9314 105.346 22.8258 105.311 22.7671C105.276 22.7085 105.217 22.6615 105.123 22.6381C105.03 22.6146 104.994 22.6029 104.76 22.5911V22.3447H106.59L108.209 26.604H108.221L109.922 22.3447H111.671V22.5911C111.448 22.5911 111.319 22.6146 111.225 22.6381C111.131 22.6615 111.072 22.7085 111.037 22.7671C110.978 22.8375 110.967 22.9431 110.967 23.0957Z" fill="white"/>
<path d="M117.303 22.3682V22.6146H117.643C117.76 22.6146 117.901 22.685 117.948 22.7554C117.971 22.7906 117.983 22.8258 117.995 22.8728C118.03 23.0018 117.995 23.1309 117.925 23.2482L116.786 25.1256H116.763L115.519 22.9901C115.484 22.9314 115.496 22.8023 115.531 22.7319C115.59 22.6381 115.719 22.6029 115.754 22.6029H116.082V22.3565H113.689V22.6029C113.912 22.6029 113.97 22.6264 114.076 22.685C114.182 22.7437 114.275 22.8493 114.369 23.0253L115.977 25.6418V27.308C115.977 27.4723 115.965 27.5896 115.93 27.6483C115.895 27.7187 115.836 27.7656 115.719 27.8008C115.601 27.8243 115.46 27.836 115.179 27.836V28.0824H117.725V27.836C117.443 27.836 117.256 27.8243 117.127 27.7773C117.033 27.7421 117.021 27.7187 116.986 27.66C116.951 27.5896 116.939 27.484 116.939 27.3197V25.4072L118.441 23.1192C118.523 22.9666 118.605 22.861 118.664 22.7906C118.722 22.7202 118.805 22.6733 118.898 22.6498C118.992 22.6263 119.133 22.6146 119.309 22.6146V22.3682H117.303Z" fill="white"/>
<path d="M11.8072 15.715L6.15724 18.831L0.421678 15.578C0.318951 15.5181 0.181981 15.5438 0.104937 15.6465C0.0706943 15.6893 0.0621338 15.7407 0.0621338 15.7921V24.267C0.0621338 24.4125 0.190543 24.5238 0.336072 24.5067C0.45592 24.4896 0.550086 24.3783 0.550086 24.2584V16.203L5.93467 19.2591V31.3466C5.93467 31.4835 6.04596 31.5863 6.17437 31.5863C6.31133 31.5863 6.41406 31.475 6.41406 31.3466V19.242L11.6788 16.3399V28.0593C11.6788 28.2048 11.8072 28.3161 11.9527 28.299C12.0726 28.2819 12.1667 28.1706 12.1667 28.0508V15.9376C12.1667 15.8862 12.1496 15.8349 12.1239 15.7921C12.0469 15.6808 11.9099 15.6551 11.8072 15.715Z" fill="white"/>
<path d="M2.6645 14.6621L6.04592 16.6139C6.0716 16.631 6.10584 16.6396 6.13152 16.6396C6.1572 16.6396 6.19145 16.631 6.21713 16.6139L9.62422 14.7477C9.70983 14.7049 9.74407 14.5936 9.69271 14.508C9.64991 14.4224 9.53862 14.3881 9.45301 14.4395L6.13152 16.2543L2.83571 14.3453C2.75011 14.294 2.64738 14.3282 2.59602 14.4138C2.55321 14.508 2.5789 14.6193 2.6645 14.6621Z" fill="white"/>
<path d="M3.83728 13.4807L6.08015 14.7734C6.10583 14.7819 6.12295 14.7905 6.14863 14.7905C6.17431 14.7905 6.19144 14.7819 6.21712 14.7734L8.38293 13.5578C8.45142 13.5235 8.4771 13.4293 8.4343 13.3609C8.40005 13.2924 8.31445 13.2667 8.24596 13.3095L6.14863 14.4823L3.97425 13.2239C3.90577 13.1811 3.82016 13.2068 3.78592 13.2753C3.75168 13.3523 3.7688 13.4379 3.83728 13.4807Z" fill="white"/>
<path d="M4.89018 12.5733L6.08866 13.2753C6.10578 13.2838 6.13146 13.2924 6.14858 13.2924C6.1657 13.2924 6.19138 13.2838 6.2085 13.2753L7.40698 12.5733C7.4669 12.5391 7.48403 12.462 7.44978 12.4107C7.41554 12.3507 7.3385 12.3336 7.28713 12.3679L6.14858 13.0356L5.01003 12.3679C4.9501 12.3336 4.88162 12.3507 4.84738 12.4107C4.81314 12.462 4.83882 12.5391 4.89018 12.5733Z" fill="white"/>
<path d="M5.66925 11.8028L6.10584 12.1196C6.13152 12.1367 6.16576 12.1367 6.19145 12.1196L6.62803 11.8028C6.65372 11.7857 6.66227 11.76 6.65371 11.7344L6.14864 8.35295C6.14864 8.34439 6.14008 8.34439 6.14008 8.35295L5.63501 11.7344C5.63501 11.76 5.64357 11.7857 5.66925 11.8028Z" fill="white"/>
<path d="M32.6949 15.6465C32.6178 15.5438 32.4809 15.5181 32.3781 15.578L26.6426 18.831L20.9926 15.715C20.8899 15.6636 20.7615 15.6808 20.6844 15.7749C20.6502 15.8177 20.6331 15.8777 20.6331 15.929V28.0593C20.6331 28.2048 20.7615 28.3161 20.907 28.299C21.0268 28.2819 21.121 28.1706 21.121 28.0508V16.3399L26.4285 19.2676C26.4285 20.9712 26.4285 30.1566 26.4285 31.338C26.4285 31.4664 26.5142 31.5691 26.6426 31.5863C26.7881 31.6034 26.9165 31.4921 26.9165 31.3466V19.2334L32.2583 16.203V24.267C32.2583 24.4125 32.3867 24.5238 32.5322 24.5067C32.6521 24.4896 32.7462 24.3783 32.7462 24.2584V15.7921C32.7462 15.7407 32.7291 15.6893 32.6949 15.6465Z" fill="white"/>
<path d="M23.2012 14.7563L26.6083 16.6224C26.634 16.6396 26.6597 16.6481 26.6939 16.6481C26.7282 16.6481 26.7539 16.6396 26.7796 16.6224L30.161 14.6706C30.2466 14.6193 30.2723 14.5166 30.2295 14.4309C30.1781 14.3453 30.0754 14.3197 29.9898 14.3625L26.6939 16.2715L23.3725 14.4481C23.2868 14.4053 23.1841 14.4309 23.1328 14.5166C23.09 14.6022 23.1156 14.7134 23.2012 14.7563Z" fill="white"/>
<path d="M24.4425 13.5578L26.6083 14.7734C26.6254 14.7819 26.6511 14.7905 26.6768 14.7905C26.7025 14.7905 26.7282 14.7819 26.7453 14.7734L28.9882 13.4807C29.0566 13.4379 29.0823 13.3523 29.0395 13.2838C28.9967 13.2154 28.9111 13.1897 28.8512 13.2325L26.6768 14.4909L24.5795 13.3181C24.511 13.2838 24.4254 13.301 24.3911 13.3694C24.3569 13.4379 24.374 13.5235 24.4425 13.5578Z" fill="white"/>
<path d="M25.427 12.5733L26.6254 13.2753C26.6426 13.2838 26.6682 13.2924 26.6854 13.2924C26.7025 13.2924 26.7282 13.2838 26.7453 13.2753L27.9438 12.5733C28.0037 12.5391 28.0208 12.462 27.9866 12.4107C27.9523 12.3507 27.8753 12.3336 27.8239 12.3679L26.6854 13.0356L25.5468 12.3679C25.4869 12.3336 25.4184 12.3507 25.3842 12.4107C25.3499 12.462 25.367 12.5391 25.427 12.5733Z" fill="white"/>
<path d="M26.2061 11.8028L26.6427 12.1196C26.6684 12.1367 26.7026 12.1367 26.7283 12.1196L27.1649 11.8028C27.1906 11.7857 27.1991 11.76 27.1906 11.7344L26.6855 8.35295C26.6855 8.34439 26.6769 8.34439 26.6769 8.35295L26.1719 11.7344C26.1719 11.76 26.189 11.7857 26.2061 11.8028Z" fill="white"/>
<path d="M16.4727 3.31935C16.4983 3.33647 16.524 3.33647 16.5497 3.31935L16.9349 3.03685C16.952 3.01973 16.9606 2.99405 16.9606 2.97693L16.5155 0.00642041C16.5155 -0.00214014 16.5069 -0.00214014 16.5069 0.00642041L16.0703 2.97693C16.0703 3.00261 16.0789 3.02829 16.096 3.03685L16.4727 3.31935Z" fill="white"/>
<path d="M20.6417 13.0356C20.6417 13.1811 20.7701 13.2924 20.9156 13.2753C21.0355 13.2581 21.1297 13.1469 21.1297 13.027V6.78638C21.1297 6.73501 21.1125 6.67509 21.0869 6.63229C21.0098 6.52956 20.8728 6.50388 20.7701 6.5638L16.507 9.01212L12.0555 6.39259C11.9528 6.33267 11.8158 6.34979 11.7387 6.46107C11.7045 6.50388 11.6874 6.55524 11.6874 6.61516V13.0441C11.6874 13.1897 11.8158 13.301 11.9613 13.2838C12.0812 13.2667 12.1753 13.1554 12.1753 13.0356V7.03463L16.2758 9.44871V27.092C16.2758 27.2204 16.3614 27.3317 16.4898 27.3402C16.6354 27.3574 16.7638 27.2461 16.7638 27.1006V9.43158L20.6588 7.19728V13.0356H20.6417Z" fill="white"/>
<path d="M3.08398 18.9937L1.53452 18.1377C1.5174 18.1291 1.49172 18.1205 1.4746 18.1205C1.4318 18.1205 1.39756 18.1377 1.37187 18.1719C1.35475 18.189 1.34619 18.2233 1.34619 18.2575V19.6186C1.34619 19.6871 1.389 19.7385 1.44892 19.747C1.49172 19.7556 1.52596 19.747 1.55165 19.7214C1.57733 19.6957 1.59445 19.6614 1.59445 19.6272V18.463L2.96414 19.2249C2.99838 19.242 3.03262 19.242 3.07542 19.2334C3.10966 19.2163 3.13535 19.1906 3.15247 19.1478C3.16959 19.0879 3.14391 19.028 3.08398 18.9937Z" fill="white"/>
<path d="M3.7089 20.9198C3.74314 20.9284 3.77739 20.9284 3.81163 20.9027C3.83731 20.8856 3.85443 20.8513 3.85443 20.8171V19.7556L5.09571 20.449C5.13851 20.4747 5.18988 20.4661 5.21556 20.4404C5.24124 20.4148 5.25836 20.3805 5.2498 20.3463C5.2498 20.312 5.22412 20.2863 5.19844 20.2692L3.80307 19.4902C3.76027 19.4645 3.69178 19.4817 3.6661 19.5245C3.64898 19.5416 3.64898 19.5673 3.64898 19.5844V20.8171C3.64042 20.8599 3.6661 20.9027 3.7089 20.9198Z" fill="white"/>
<path d="M3.7089 23.8047C3.74314 23.8133 3.77739 23.8133 3.81163 23.7876C3.83731 23.7705 3.85443 23.7362 3.85443 23.702V22.6405L5.09571 23.3339C5.14707 23.3596 5.207 23.3425 5.24124 23.2911C5.26692 23.2397 5.2498 23.1713 5.19844 23.1456L3.80307 22.3666C3.76027 22.3409 3.69178 22.358 3.6661 22.4008C3.64898 22.4179 3.64898 22.4436 3.64898 22.4607V23.6934C3.64042 23.7448 3.6661 23.7876 3.7089 23.8047Z" fill="white"/>
<path d="M5.19838 25.8935L3.80301 25.1145C3.78589 25.1059 3.76877 25.0974 3.75165 25.0974C3.71741 25.0974 3.68317 25.1145 3.66605 25.1487C3.64892 25.1659 3.64893 25.1915 3.64893 25.2087V26.4414C3.64893 26.4928 3.67461 26.527 3.71741 26.5441C3.75165 26.5527 3.78589 26.5527 3.82014 26.527C3.84582 26.5099 3.86294 26.4756 3.86294 26.4414V25.3799L5.10422 26.0733C5.15558 26.099 5.2155 26.0818 5.24975 26.0305C5.26687 26.0048 5.26687 25.9791 5.25831 25.9534C5.24119 25.9278 5.22406 25.9106 5.19838 25.8935Z" fill="white"/>
<path d="M5.19838 28.727L3.80301 27.948C3.78589 27.9395 3.76877 27.9309 3.75165 27.9309C3.71741 27.9309 3.68317 27.948 3.66605 27.9823C3.65748 27.9994 3.64893 28.0165 3.64893 28.0422V29.2749C3.64893 29.3263 3.67461 29.3605 3.71741 29.3776C3.75165 29.3862 3.78589 29.3862 3.82014 29.3605C3.84582 29.3434 3.86294 29.3092 3.86294 29.2749V28.2134L5.10422 28.9068C5.1299 28.9239 5.15558 28.9239 5.18126 28.9154C5.20694 28.9068 5.23262 28.8897 5.24119 28.864C5.26687 28.8212 5.24975 28.7613 5.19838 28.727Z" fill="white"/>
<path d="M3.08398 21.9129L1.53452 21.0483C1.5174 21.0397 1.49172 21.0311 1.4746 21.0311C1.4318 21.0311 1.39756 21.0482 1.37187 21.0825C1.35475 21.0996 1.34619 21.1339 1.34619 21.1681V22.5292C1.34619 22.5977 1.389 22.6491 1.44892 22.6576C1.49172 22.6662 1.52596 22.6576 1.55165 22.632C1.57733 22.6063 1.59445 22.572 1.59445 22.5378V21.3735L2.96414 22.1354C2.99838 22.1526 3.03262 22.1526 3.07542 22.144C3.10966 22.1269 3.13535 22.1012 3.15247 22.067C3.16959 22.007 3.14391 21.9385 3.08398 21.9129Z" fill="white"/>
<path d="M3.08398 24.7122L1.53452 23.8561C1.5174 23.8475 1.49172 23.839 1.4746 23.839C1.4318 23.839 1.39756 23.8561 1.37187 23.8904C1.35475 23.9075 1.34619 23.9417 1.34619 23.976V25.3371C1.34619 25.4056 1.389 25.4569 1.44892 25.4655C1.49172 25.4741 1.52596 25.4655 1.55165 25.4398C1.57733 25.4141 1.59445 25.3799 1.59445 25.3456V24.1814L2.96414 24.9433C2.99838 24.9604 3.03262 24.9604 3.07542 24.9519C3.10966 24.9347 3.13535 24.9091 3.15247 24.8663C3.16959 24.8063 3.14391 24.7464 3.08398 24.7122Z" fill="white"/>
<path d="M8.55414 19.4902C8.53702 19.4902 8.5199 19.4988 8.49422 19.5074L7.09885 20.3805C7.06461 20.3977 7.04749 20.4319 7.04749 20.4747V21.6646C7.04749 21.7074 7.07317 21.7502 7.11597 21.7673C7.15021 21.7759 7.18445 21.7759 7.2187 21.7502C7.24438 21.7331 7.2615 21.6989 7.2615 21.6646V20.5261L8.60551 19.6786C8.63119 19.6614 8.64831 19.6358 8.64831 19.6101C8.65687 19.5844 8.64831 19.5502 8.63119 19.533C8.62263 19.5074 8.58838 19.4902 8.55414 19.4902Z" fill="white"/>
<path d="M8.57981 22.221C8.57125 22.221 8.56269 22.221 8.55413 22.221C8.537 22.221 8.51132 22.2296 8.50276 22.2382L7.10739 23.1113C7.07315 23.1285 7.05603 23.1627 7.05603 23.2055V24.3954C7.05603 24.4382 7.08171 24.481 7.12451 24.4981C7.15876 24.5067 7.193 24.5067 7.22724 24.481C7.25292 24.4639 7.27004 24.4297 7.27004 24.3954V23.2569L8.61405 22.4094C8.63973 22.3923 8.65685 22.3666 8.65685 22.3409C8.66541 22.3152 8.65685 22.281 8.63973 22.2638C8.63117 22.2467 8.60549 22.2296 8.57981 22.221Z" fill="white"/>
<path d="M8.57981 25.0974C8.57125 25.0974 8.56269 25.0974 8.55413 25.0974C8.537 25.0974 8.51132 25.1059 8.50276 25.1145L7.10739 25.9877C7.07315 26.0048 7.05603 26.039 7.05603 26.0818V27.2718C7.05603 27.3146 7.08171 27.3574 7.12451 27.3745C7.15876 27.383 7.193 27.383 7.22724 27.3574C7.25292 27.3402 7.27004 27.306 7.27004 27.2718V26.1332L8.61405 25.2857C8.63973 25.2686 8.65685 25.2429 8.65685 25.2172C8.66541 25.1915 8.65685 25.1573 8.63973 25.1402C8.63117 25.1145 8.60549 25.0974 8.57981 25.0974Z" fill="white"/>
<path d="M8.64829 27.9737C8.63117 27.948 8.61405 27.9309 8.57981 27.9224C8.57125 27.9224 8.56269 27.9224 8.55413 27.9224C8.537 27.9224 8.51132 27.9309 8.50276 27.9395L7.10739 28.8127C7.07315 28.8298 7.05603 28.864 7.05603 28.9068V30.0967C7.05603 30.1395 7.08171 30.1823 7.12451 30.1995C7.15876 30.208 7.193 30.208 7.22724 30.1823C7.25292 30.1652 7.27004 30.131 7.27004 30.0967V28.9582L8.61405 28.1107C8.66541 28.0936 8.67397 28.0251 8.64829 27.9737Z" fill="white"/>
<path d="M10.9083 18.2404C10.9169 18.2147 10.9083 18.1805 10.8912 18.1633C10.8741 18.1291 10.8398 18.112 10.8056 18.112C10.7885 18.112 10.7714 18.1205 10.7457 18.1291L9.35031 19.0023C9.31607 19.0194 9.29895 19.0536 9.29895 19.0964V20.2863C9.29895 20.3292 9.32463 20.372 9.36743 20.3891C9.40168 20.3976 9.43592 20.3976 9.47016 20.372C9.49584 20.3548 9.51296 20.3206 9.51296 20.2863V19.1478L10.857 18.3003C10.8826 18.2917 10.8998 18.2661 10.9083 18.2404Z" fill="white"/>
<path d="M10.9083 21.0654C10.9169 21.0397 10.9083 21.0054 10.8912 20.9883C10.8741 20.9626 10.857 20.9455 10.8227 20.937C10.8142 20.937 10.8056 20.937 10.797 20.937C10.7799 20.937 10.7542 20.9455 10.7457 20.9541L9.35031 21.8272C9.31607 21.8444 9.29895 21.8786 9.29895 21.9214V23.1113C9.29895 23.1541 9.32463 23.1969 9.36743 23.2141C9.40168 23.2226 9.43592 23.2226 9.47016 23.1969C9.49584 23.1798 9.51296 23.1456 9.51296 23.1113V21.9728L10.857 21.1253C10.8826 21.1167 10.8998 21.091 10.9083 21.0654Z" fill="white"/>
<path d="M10.8998 23.7277C10.8826 23.702 10.8655 23.6849 10.8313 23.6763C10.8227 23.6763 10.8142 23.6763 10.8056 23.6763C10.7885 23.6763 10.7628 23.6849 10.7542 23.6935L9.35886 24.5666C9.32462 24.5838 9.3075 24.618 9.3075 24.6608V25.8507C9.3075 25.8935 9.33318 25.9363 9.37598 25.9534C9.41022 25.962 9.44446 25.962 9.47871 25.9363C9.50439 25.9192 9.52151 25.885 9.52151 25.8507V24.7207L10.8655 23.8732C10.9083 23.8475 10.9254 23.7791 10.8998 23.7277Z" fill="white"/>
<path d="M10.8998 26.5698C10.8826 26.5441 10.8655 26.527 10.8313 26.5184C10.8227 26.5184 10.8142 26.5184 10.8056 26.5184C10.7885 26.5184 10.7628 26.527 10.7542 26.5356L9.35886 27.4087C9.32462 27.4258 9.3075 27.4601 9.3075 27.5029V28.6928C9.3075 28.7356 9.33318 28.7784 9.37598 28.7955C9.41022 28.8041 9.44446 28.8041 9.47871 28.7784C9.50439 28.7613 9.52151 28.7271 9.52151 28.6928V27.5543L10.8655 26.7068C10.9083 26.6811 10.9254 26.6212 10.8998 26.5698Z" fill="white"/>
<path d="M24.4854 20.9198C24.5196 20.9284 24.5539 20.9284 24.5881 20.9027C24.6138 20.8856 24.6309 20.8513 24.6309 20.8171V19.7556L25.8722 20.449C25.9236 20.4747 25.9835 20.4576 26.0177 20.4062C26.0434 20.3548 26.0263 20.2863 25.9749 20.2607L24.5796 19.4817C24.5624 19.4731 24.5453 19.4645 24.5282 19.4645C24.4939 19.4645 24.4597 19.4817 24.4426 19.5159C24.434 19.533 24.4255 19.5501 24.4255 19.5758V20.8085C24.4169 20.8599 24.4426 20.9027 24.4854 20.9198Z" fill="white"/>
<path d="M25.9749 23.1456L24.5795 22.3666C24.5624 22.358 24.5453 22.3495 24.5281 22.3495C24.4939 22.3495 24.4597 22.3666 24.4425 22.4008C24.4254 22.4179 24.4254 22.4436 24.4254 22.4607V23.6935C24.4254 23.7363 24.4511 23.7791 24.4939 23.7962C24.5281 23.8048 24.5624 23.8048 24.5966 23.7791C24.6223 23.7619 24.6394 23.7277 24.6394 23.6935V22.632L25.8807 23.3254C25.9321 23.351 25.992 23.3339 26.0262 23.2826C26.0434 23.2398 26.0262 23.1798 25.9749 23.1456Z" fill="white"/>
<path d="M25.9749 25.8935L24.5795 25.1145C24.5624 25.1059 24.5453 25.0974 24.5281 25.0974C24.4939 25.0974 24.4597 25.1145 24.4425 25.1487C24.434 25.1659 24.4254 25.183 24.4254 25.2087V26.4414C24.4254 26.4842 24.4511 26.527 24.4939 26.5441C24.5281 26.5527 24.5624 26.5527 24.5966 26.527C24.6223 26.5099 24.6394 26.4756 24.6394 26.4414V25.3799L25.8807 26.0733C25.9321 26.099 25.992 26.0818 26.0262 26.0305C26.0434 25.9877 26.0262 25.9192 25.9749 25.8935Z" fill="white"/>
<path d="M25.9749 28.727L24.5795 27.948C24.5624 27.9395 24.5453 27.9309 24.5281 27.9309C24.4939 27.9309 24.4597 27.948 24.4425 27.9823C24.434 27.9994 24.4254 28.0165 24.4254 28.0422V29.2749C24.4254 29.3177 24.4511 29.3605 24.4939 29.3776C24.5281 29.3862 24.5624 29.3862 24.5966 29.3605C24.6223 29.3434 24.6394 29.3092 24.6394 29.2749V28.2134L25.8807 28.9068C25.9064 28.9239 25.9321 28.9239 25.9577 28.9154C25.9834 28.9068 26.0091 28.8897 26.0177 28.864C26.0434 28.8212 26.0262 28.7613 25.9749 28.727Z" fill="white"/>
<path d="M22.1911 19.7213C22.2253 19.7299 22.251 19.7213 22.2767 19.7042C22.3023 19.6871 22.3109 19.6529 22.3109 19.6272V18.4201L23.7148 19.1992C23.7405 19.2163 23.7748 19.2163 23.8004 19.2077C23.8261 19.1992 23.8518 19.1735 23.8604 19.1392C23.8775 19.0964 23.8518 19.0451 23.809 19.0194L22.2595 18.1548C22.2424 18.1462 22.2253 18.1462 22.2082 18.1462C22.1739 18.1462 22.1483 18.1633 22.1311 18.189C22.114 18.2061 22.114 18.2318 22.114 18.2575V19.6186C22.114 19.67 22.1483 19.7128 22.1911 19.7213Z" fill="white"/>
<path d="M22.1911 22.6405C22.2253 22.6491 22.251 22.6405 22.2767 22.6234C22.3023 22.6063 22.3109 22.572 22.3109 22.5463V21.3393L23.7148 22.1183C23.7405 22.1354 23.7748 22.1354 23.8004 22.1269C23.8261 22.1183 23.8518 22.0926 23.8604 22.0584C23.8775 22.0156 23.8518 21.9642 23.809 21.9385L22.2595 21.0739C22.2424 21.0654 22.2253 21.0654 22.2167 21.0654C22.1825 21.0654 22.1568 21.0825 22.1311 21.1082C22.114 21.1253 22.114 21.151 22.114 21.1767V22.5378C22.114 22.5806 22.1483 22.632 22.1911 22.6405Z" fill="white"/>
<path d="M22.1911 25.4398C22.2253 25.4484 22.251 25.4398 22.2767 25.4227C22.3023 25.4056 22.3109 25.3713 22.3109 25.3456V24.1386L23.7148 24.9176C23.7405 24.9347 23.7748 24.9347 23.8004 24.9262C23.8261 24.9176 23.8518 24.8919 23.8604 24.8577C23.8775 24.8149 23.8518 24.7635 23.809 24.7378L22.2595 23.8732C22.2424 23.8647 22.2253 23.8647 22.2167 23.8647C22.1825 23.8647 22.1568 23.8818 22.1311 23.9075C22.114 23.9246 22.114 23.9503 22.114 23.9759V25.3371C22.114 25.3884 22.1483 25.4312 22.1911 25.4398Z" fill="white"/>
<path d="M23.809 27.5371L22.2595 26.6725C22.2424 26.664 22.2253 26.664 22.2082 26.664C22.1739 26.664 22.1483 26.6811 22.1311 26.7068C22.114 26.7239 22.114 26.7496 22.114 26.7753V28.1364C22.114 28.1877 22.1483 28.2306 22.1911 28.2391C22.2253 28.2477 22.251 28.2391 22.2767 28.222C22.3023 28.2049 22.3109 28.1706 22.3109 28.1449V26.9379L23.7148 27.7169C23.7405 27.734 23.7748 27.734 23.8004 27.7255C23.8261 27.7169 23.8518 27.6912 23.8604 27.657C23.8775 27.6142 23.8518 27.5628 23.809 27.5371Z" fill="white"/>
<path d="M29.4334 19.4902C29.4249 19.4902 29.4163 19.4902 29.4078 19.4902C29.3906 19.4902 29.365 19.4988 29.3564 19.5074L27.961 20.3805C27.9268 20.3977 27.9097 20.4319 27.9097 20.4747V21.6646C27.9097 21.7074 27.9354 21.7502 27.9782 21.7673C28.0124 21.7759 28.0466 21.7759 28.0809 21.7502C28.1066 21.7331 28.1237 21.6989 28.1237 21.6646V20.5261L29.4677 19.6786C29.4934 19.6614 29.5105 19.6358 29.5105 19.6101C29.5191 19.5844 29.5105 19.5502 29.4934 19.533C29.4848 19.5159 29.4677 19.4988 29.4334 19.4902Z" fill="white"/>
<path d="M29.4334 22.221C29.4249 22.221 29.4163 22.221 29.4078 22.221C29.3906 22.221 29.365 22.2296 29.3564 22.2382L27.961 23.1113C27.9268 23.1285 27.9097 23.1627 27.9097 23.2055V24.3954C27.9097 24.4382 27.9354 24.481 27.9782 24.4981C28.0124 24.5067 28.0466 24.5067 28.0809 24.481C28.1066 24.4639 28.1237 24.4297 28.1237 24.3954V23.2569L29.4677 22.4094C29.4934 22.3923 29.5105 22.3666 29.5105 22.3409C29.5191 22.3152 29.5105 22.281 29.4934 22.2638C29.4848 22.2467 29.4677 22.2296 29.4334 22.221Z" fill="white"/>
<path d="M29.4334 25.0974C29.4249 25.0974 29.4163 25.0974 29.4078 25.0974C29.3906 25.0974 29.365 25.1059 29.3564 25.1145L27.961 25.9877C27.9268 26.0048 27.9097 26.039 27.9097 26.0818V27.2718C27.9097 27.3231 27.9354 27.3574 27.9782 27.3745C28.0124 27.383 28.0466 27.383 28.0809 27.3574C28.1066 27.3402 28.1237 27.306 28.1237 27.2718V26.1332L29.4677 25.2857C29.4934 25.2686 29.5105 25.2429 29.5105 25.2172C29.5191 25.1915 29.5105 25.1573 29.4934 25.1402C29.4848 25.1145 29.4677 25.0974 29.4334 25.0974Z" fill="white"/>
<path d="M29.4334 27.9309C29.4249 27.9309 29.4163 27.9309 29.4078 27.9309C29.3906 27.9309 29.365 27.9395 29.3564 27.948L27.961 28.8212C27.9268 28.8383 27.9097 28.8726 27.9097 28.9154V30.1053C27.9097 30.1481 27.9354 30.1909 27.9782 30.208C28.0124 30.2166 28.0466 30.2166 28.0809 30.1909C28.1066 30.1738 28.1237 30.1395 28.1237 30.1053V28.9667L29.4677 28.1192C29.4934 28.1021 29.5105 28.0764 29.5105 28.0508C29.5191 28.0251 29.5105 27.9908 29.4934 27.9737C29.4848 27.9566 29.4677 27.9395 29.4334 27.9309Z" fill="white"/>
<path d="M30.2379 20.3891C30.2722 20.3976 30.3064 20.3977 30.3407 20.372C30.3663 20.3548 30.3835 20.3206 30.3835 20.2864V19.1478L31.7275 18.3003C31.7531 18.2832 31.7703 18.2575 31.7703 18.2318C31.7788 18.2062 31.7703 18.1719 31.7531 18.1548C31.736 18.1291 31.7189 18.112 31.6847 18.1034C31.6761 18.1034 31.6675 18.1034 31.659 18.1034C31.6419 18.1034 31.6162 18.112 31.6076 18.1205L30.2122 19.0023C30.178 19.0194 30.1609 19.0536 30.1609 19.0964V20.2864C30.1609 20.3292 30.1951 20.372 30.2379 20.3891Z" fill="white"/>
<path d="M31.6847 20.937C31.6761 20.937 31.6675 20.937 31.659 20.937C31.6419 20.937 31.6162 20.9455 31.6076 20.9541L30.2122 21.8272C30.178 21.8444 30.1609 21.8786 30.1609 21.9214V23.1113C30.1609 23.1541 30.1866 23.1969 30.2294 23.2141C30.2636 23.2226 30.2979 23.2226 30.3321 23.1969C30.3578 23.1798 30.3749 23.1456 30.3749 23.1113V21.9728L31.7189 21.1253C31.7446 21.1082 31.7617 21.0825 31.7617 21.0568C31.7703 21.0311 31.7617 20.9969 31.7446 20.9798C31.736 20.9626 31.7103 20.9455 31.6847 20.937Z" fill="white"/>
<path d="M31.6847 23.6849C31.6761 23.6849 31.6675 23.6849 31.659 23.6849C31.6419 23.6849 31.6162 23.6934 31.6076 23.702L30.2122 24.5752C30.178 24.5923 30.1609 24.6265 30.1609 24.6693V25.8593C30.1609 25.9106 30.1866 25.9449 30.2294 25.962C30.2636 25.9705 30.2979 25.9705 30.3321 25.9449C30.3578 25.9277 30.3749 25.8935 30.3749 25.8593V24.7207L31.7189 23.8732C31.7446 23.8561 31.7617 23.8304 31.7617 23.8047C31.7703 23.779 31.7617 23.7448 31.7446 23.7277C31.736 23.7106 31.7103 23.6934 31.6847 23.6849Z" fill="white"/>
<path d="M13.8017 11.0495C13.836 11.0581 13.8702 11.0581 13.9045 11.0324C13.9301 11.0153 13.9473 10.981 13.9473 10.9468V9.8853L15.1115 10.5188C15.1372 10.5359 15.18 10.5359 15.2057 10.5188C15.2399 10.5017 15.257 10.476 15.2656 10.4417C15.2742 10.3989 15.2485 10.3561 15.2057 10.3304L13.8873 9.61136C13.8702 9.6028 13.8531 9.59424 13.836 9.59424C13.8017 9.59424 13.7675 9.61136 13.7504 9.6456C13.7418 9.66272 13.7333 9.67984 13.7333 9.70553V10.9382C13.7247 10.9982 13.7589 11.041 13.8017 11.0495Z" fill="white"/>
<path d="M13.8017 13.6862C13.836 13.6947 13.8702 13.6947 13.9045 13.669C13.9301 13.6519 13.9473 13.6177 13.9473 13.5834V12.5219L15.1115 13.1554C15.1372 13.1725 15.18 13.1725 15.2057 13.1554C15.2399 13.1383 15.257 13.1126 15.2656 13.0784C15.2742 13.0356 15.2485 12.9928 15.2057 12.9671L13.8873 12.248C13.8702 12.2394 13.8531 12.2309 13.836 12.2309C13.8017 12.2309 13.7675 12.248 13.7504 12.2822C13.7418 12.2994 13.7333 12.3165 13.7333 12.3422V13.5749C13.7247 13.6262 13.7589 13.669 13.8017 13.6862Z" fill="white"/>
<path d="M13.8017 16.2972C13.836 16.3057 13.8702 16.3057 13.9045 16.28C13.9301 16.2629 13.9473 16.2287 13.9473 16.1944V15.1329L15.1115 15.7664C15.1372 15.7835 15.18 15.7835 15.2057 15.7664C15.2399 15.7493 15.257 15.7236 15.2656 15.6894C15.2742 15.6465 15.2485 15.6037 15.2057 15.5781L13.8873 14.859C13.8702 14.8504 13.8531 14.8419 13.836 14.8419C13.8017 14.8419 13.7675 14.859 13.7504 14.8932C13.7333 14.9103 13.7333 14.936 13.7333 14.9531V16.1859C13.7247 16.2372 13.7589 16.28 13.8017 16.2972Z" fill="white"/>
<path d="M13.8017 18.9081C13.836 18.9167 13.8702 18.9167 13.9045 18.891C13.9301 18.8739 13.9473 18.8396 13.9473 18.8054V17.7439L15.1115 18.3774C15.1372 18.3945 15.18 18.3945 15.2057 18.3774C15.2399 18.3602 15.257 18.3346 15.2656 18.3003C15.2742 18.2575 15.2485 18.2147 15.2057 18.189L13.8873 17.4699C13.8702 17.4614 13.8531 17.4528 13.836 17.4528C13.8017 17.4528 13.7675 17.4699 13.7504 17.5042C13.7418 17.5213 13.7333 17.5384 13.7333 17.5641V18.7968C13.7247 18.8567 13.7589 18.8996 13.8017 18.9081Z" fill="white"/>
<path d="M15.2485 20.9113C15.2656 20.8856 15.2656 20.8599 15.2571 20.8342C15.2485 20.8086 15.2314 20.7829 15.2057 20.7743L13.8788 20.0552C13.8617 20.0467 13.8446 20.0467 13.8275 20.0467C13.7932 20.0467 13.759 20.0638 13.7333 20.098C13.7247 20.1151 13.7162 20.1323 13.7162 20.158V21.3821C13.7162 21.4249 13.7419 21.4677 13.7847 21.4848C13.8189 21.4934 13.8532 21.4934 13.8874 21.4677C13.9131 21.4506 13.9302 21.4163 13.9302 21.3821V20.3206L15.0944 20.9541C15.1201 20.9712 15.1458 20.9712 15.1715 20.9626C15.2143 20.9541 15.24 20.937 15.2485 20.9113Z" fill="white"/>
<path d="M15.2571 23.4024C15.2485 23.3767 15.2314 23.351 15.2057 23.3425L13.8788 22.6234C13.8617 22.6148 13.8446 22.6063 13.8275 22.6063C13.7932 22.6063 13.759 22.6234 13.7419 22.6576C13.7247 22.6747 13.7247 22.7004 13.7247 22.7176V23.9503C13.7247 23.9931 13.7504 24.0359 13.7932 24.053C13.8275 24.0616 13.8617 24.0616 13.8959 24.0359C13.9216 24.0188 13.9387 23.9845 13.9387 23.9503V22.8888L15.103 23.5222C15.1543 23.5479 15.2143 23.5308 15.2485 23.4794C15.2656 23.4623 15.2656 23.4281 15.2571 23.4024Z" fill="white"/>
<path d="M15.2656 26.1161C15.2571 26.0818 15.2399 26.0562 15.2142 26.039L13.8874 25.3199C13.8702 25.3114 13.8531 25.3028 13.836 25.3028C13.8018 25.3028 13.7675 25.3199 13.7504 25.3542C13.7333 25.3713 13.7333 25.397 13.7333 25.4141V26.6468C13.7333 26.6896 13.759 26.7324 13.8018 26.7496C13.836 26.7581 13.8702 26.7581 13.9045 26.7324C13.9302 26.7153 13.9473 26.6811 13.9473 26.6468V25.5853L15.1115 26.2188C15.1543 26.2445 15.2057 26.2359 15.2314 26.2102C15.2571 26.1846 15.2656 26.1503 15.2656 26.1161Z" fill="white"/>
<path d="M17.9366 11.5375C17.9708 11.546 18.005 11.546 18.0393 11.5203C18.065 11.5032 18.0821 11.469 18.0821 11.4347V10.4674L19.3662 9.66271C19.409 9.63703 19.4261 9.59423 19.4175 9.55143C19.409 9.51718 19.3833 9.4915 19.3576 9.47438C19.3491 9.46582 19.3319 9.46582 19.3148 9.46582C19.2977 9.46582 19.272 9.47438 19.2634 9.48294L17.928 10.3133C17.8938 10.3304 17.8766 10.3647 17.8766 10.4075V11.4347C17.8681 11.4861 17.8938 11.5289 17.9366 11.5375Z" fill="white"/>
<path d="M19.349 11.9997C19.3405 11.9912 19.3233 11.9912 19.3062 11.9912C19.2891 11.9912 19.2634 11.9997 19.2549 12.0083L17.9194 12.8387C17.8852 12.8558 17.868 12.89 17.868 12.9328V13.9601C17.868 14.0029 17.8937 14.0457 17.9365 14.0628C17.9708 14.0714 18.005 14.0714 18.0393 14.0457C18.0649 14.0286 18.0821 13.9943 18.0821 13.9601V12.9928L19.3661 12.1881C19.4089 12.1624 19.4261 12.1196 19.4175 12.0768C19.4089 12.0425 19.3833 12.0169 19.349 11.9997Z" fill="white"/>
<path d="M19.349 14.6878C19.3405 14.6792 19.3233 14.6792 19.3062 14.6792C19.2891 14.6792 19.2634 14.6878 19.2549 14.6963L17.9194 15.5267C17.8852 15.5438 17.868 15.5781 17.868 15.6209V16.6481C17.868 16.6909 17.8937 16.7337 17.9365 16.7508C17.9708 16.7594 18.005 16.7594 18.0393 16.7337C18.0649 16.7166 18.0821 16.6824 18.0821 16.6481V15.6808L19.3661 14.8761C19.4089 14.8504 19.4261 14.8076 19.4175 14.7648C19.4089 14.7306 19.3833 14.7049 19.349 14.6878Z" fill="white"/>
<path d="M19.349 17.3158C19.3405 17.3073 19.3233 17.3073 19.3062 17.3073C19.2891 17.3073 19.2634 17.3158 19.2549 17.3244L17.9194 18.1548C17.8852 18.1719 17.868 18.2061 17.868 18.2489V19.2762C17.868 19.319 17.8937 19.3618 17.9365 19.3789C17.9708 19.3875 18.005 19.3875 18.0393 19.3618C18.0649 19.3447 18.0821 19.3104 18.0821 19.2762V18.3089L19.3661 17.5042C19.4089 17.4785 19.4261 17.4357 19.4175 17.3929C19.4089 17.3586 19.3833 17.333 19.349 17.3158Z" fill="white"/>
<path d="M19.3319 19.8583C19.3234 19.8583 19.3148 19.8583 19.3062 19.8583C19.2891 19.8583 19.272 19.8669 19.2549 19.8755L17.9109 20.7144C17.8852 20.7315 17.8595 20.7658 17.8595 20.8V21.8273C17.8595 21.8701 17.8852 21.9129 17.928 21.93C17.9622 21.9385 17.9965 21.9385 18.0307 21.9129C18.0564 21.8957 18.0735 21.8615 18.0735 21.8273V20.8599L19.3576 20.0552C19.3833 20.0381 19.4004 20.021 19.409 19.9867C19.4175 19.9611 19.409 19.9268 19.3918 19.9097C19.3833 19.8755 19.3662 19.8583 19.3319 19.8583Z" fill="white"/>
<path d="M19.3319 22.4008C19.3234 22.4008 19.3148 22.4008 19.3062 22.4008C19.2891 22.4008 19.272 22.4094 19.2549 22.4179L17.9109 23.2569C17.8852 23.274 17.8595 23.3082 17.8595 23.3425V24.3697C17.8595 24.4125 17.8852 24.4553 17.928 24.4725C17.9622 24.481 17.9965 24.481 18.0307 24.4553C18.0564 24.4382 18.0735 24.404 18.0735 24.3697V23.4024L19.3576 22.5977C19.3833 22.5806 19.4004 22.5635 19.409 22.5292C19.4175 22.5035 19.409 22.4693 19.3918 22.4522C19.3833 22.4179 19.3662 22.4008 19.3319 22.4008Z" fill="white"/>
<path d="M19.3319 25.0974C19.3234 25.0974 19.3148 25.0974 19.3062 25.0974C19.2891 25.0974 19.272 25.1059 19.2549 25.1145L17.9109 25.9534C17.8852 25.9706 17.8595 26.0048 17.8595 26.039V27.0663C17.8595 27.1091 17.8852 27.1519 17.928 27.169C17.9622 27.1776 17.9965 27.1776 18.0307 27.1519C18.0564 27.1348 18.0735 27.1005 18.0735 27.0663V26.0904L19.3576 25.2857C19.3833 25.2686 19.4004 25.2515 19.409 25.2172C19.4175 25.1915 19.409 25.1573 19.3918 25.1402C19.3833 25.1231 19.3662 25.1059 19.3319 25.0974Z" fill="white"/>
<path d="M13.7076 5.39101L16.3614 7.11168C16.3956 7.13737 16.4299 7.14593 16.4727 7.14593C16.5069 7.14593 16.5411 7.13736 16.5754 7.12024L19.2377 5.51086C19.3319 5.45094 19.3661 5.33109 19.3062 5.23692C19.2463 5.14276 19.1264 5.10852 19.0323 5.16844L16.4812 6.7179L13.9302 5.06571C13.836 5.00579 13.7162 5.03147 13.6562 5.12564C13.5878 5.20268 13.6134 5.33109 13.7076 5.39101Z" fill="white"/>
<path d="M14.675 4.51782L16.4299 5.55365C16.4556 5.57077 16.4813 5.57933 16.507 5.57933C16.5326 5.57933 16.5583 5.57077 16.584 5.56221L18.3047 4.57775C18.3817 4.53494 18.4074 4.43222 18.3646 4.35517C18.3218 4.27813 18.2191 4.25245 18.142 4.29525L16.5155 5.22835L14.8462 4.24389C14.7692 4.20108 14.675 4.22676 14.6236 4.30381C14.5723 4.38085 14.598 4.47502 14.675 4.51782Z" fill="white"/>
<path d="M15.531 3.77305L16.447 4.33804C16.4641 4.3466 16.4898 4.35516 16.5069 4.35516C16.5326 4.35516 16.5497 4.3466 16.5668 4.33804L17.4999 3.77305C17.5598 3.7388 17.5769 3.66176 17.5427 3.6104C17.5085 3.55047 17.4314 3.53335 17.38 3.56759L16.5154 4.09835L15.6679 3.56759C15.608 3.53335 15.5395 3.55047 15.5053 3.6104C15.4539 3.66176 15.4796 3.73024 15.531 3.77305Z" fill="white"/>
</svg>
