<?xml version="1.0" standalone="no"?>
<!DOCTYPE svg PUBLIC "-//W3C//DTD SVG 1.1//EN" "http://www.w3.org/Graphics/SVG/1.1/DTD/svg11.dtd" >
<svg xmlns="http://www.w3.org/2000/svg" xmlns:xlink="http://www.w3.org/1999/xlink" version="1.1">
<metadata>
Created by FontForge 20170731 at Thu Jul  5 17:31:31 2007
 By Aleksey,,,
Copyright (c) 2005 by Fontsmith Ltd. All rights reserved.
</metadata>
<defs>
<font id="FSAlbert-Light" horiz-adv-x="310" >
  <font-face 
    font-family="FS Albert Light"
    font-weight="300"
    font-stretch="normal"
    units-per-em="1000"
    panose-1="2 0 0 0 4 0 0 2 0 4"
    ascent="770"
    descent="-230"
    x-height="482"
    cap-height="687"
    bbox="-193 -220 1000 998"
    underline-thickness="50"
    underline-position="-200"
    unicode-range="U+000D-FB02"
  />
<missing-glyph horiz-adv-x="220" 
 />
    <glyph glyph-name="fi" unicode="fi" horiz-adv-x="479" 
d="M406 464v-446q0 -18 -16 -18h-32q-15 0 -15 18v417h-188v-417q0 -18 -16 -18h-32q-16 0 -16 18v417h-61q-6 0 -7.5 1.5t-1.5 8.5v27q0 10 11 10h59v14q0 90 36 145q50 76 151 76q67 0 105 -15q11 -5 10 -16l-5 -27q-2 -6 -6 -6q-1 0 -9 2q-44 14 -94 14q-61 0 -91 -40
q-33 -43 -33 -132v-15h235q16 0 16 -18z" />
    <glyph glyph-name="fl" unicode="fl" horiz-adv-x="491" 
d="M420 693v-675q0 -18 -16 -18h-32q-15 0 -15 18v640q-40 11 -94 11q-59 0 -85 -37q-23 -33 -23 -132v-18h120q12 0 12 -10v-26q0 -11 -11 -11h-121v-417q0 -18 -16 -18h-32q-16 0 -16 18v417h-61q-6 0 -7.5 1.5t-1.5 8.5v27q0 10 11 10h59v14q0 67 7.5 103t31.5 66
q42 52 129 52q51 0 113 -16q33 8 36 8q12 0 12 -16z" />
    <glyph glyph-name=".notdef" horiz-adv-x="220" 
 />
    <glyph glyph-name=".null" horiz-adv-x="0" 
 />
    <glyph glyph-name=".null" horiz-adv-x="0" 
 />
    <glyph glyph-name="nonmarkingreturn" horiz-adv-x="333" 
 />
    <glyph glyph-name="CR" unicode="&#xd;" horiz-adv-x="220" 
 />
    <glyph glyph-name="space" unicode=" " horiz-adv-x="220" 
 />
    <glyph glyph-name="exclam" unicode="!" horiz-adv-x="254" 
d="M180 671l-8 -515q0 -17 -16 -17h-24q-16 0 -16 17l-8 513v1q0 17 13 17h43q16 0 16 -15v-1zM194 37q0 -22 -15.5 -36t-35.5 -14t-36.5 14t-16.5 36q0 23 15.5 36t37.5 13q21 0 36 -13.5t15 -35.5z" />
    <glyph glyph-name="quotedbl" unicode="&#x22;" horiz-adv-x="300" 
d="M243 680v-140q0 -18 -16 -18h-32q-16 0 -16 18v140q0 18 16 18h32q16 0 16 -18zM119 680v-140q0 -18 -16 -18h-32q-15 0 -15 18v140q0 18 15 18h32q16 0 16 -18z" />
    <glyph glyph-name="numbersign" unicode="#" horiz-adv-x="550" 
d="M567 454q0 -1 -0.5 -3.5t-0.5 -4.5l-2 -13q-2 -12 -5.5 -16t-11.5 -4h-111l-24 -156h108q14 0 14 -10q0 -1 -0.5 -4t-0.5 -5l-1 -18q-1 -16 -21 -16h-109l-29 -186q-3 -18 -27 -18h-19q-20 0 -20 12q0 1 0.5 3.5t0.5 4.5l31 184h-162l-31 -183q-2 -9 -3.5 -12.5t-7.5 -6
t-17 -2.5h-20q-18 0 -18 12q0 6 1 10l29 182h-103q-15 0 -15 12q0 1 0.5 3t0.5 4l3 19q2 15 26 15h100l23 156h-107q-14 0 -14 12q0 1 0.5 3t0.5 3l3 20q2 8 5 11t13 3h110l31 207q3 15 15 15h35q15 0 15 -11v-4l-32 -207h159l32 206q2 16 18 16h30q17 0 17 -12
q0 -1 -0.5 -3.5t-0.5 -4.5l-30 -202h109q13 0 13 -11zM347 257l25 156h-161l-25 -156h161z" />
    <glyph glyph-name="dollar" unicode="$" horiz-adv-x="540" 
d="M479 178q0 -77 -48 -123.5t-124 -59.5v-75q0 -9 -0.5 -12.5t-5 -6t-13.5 -2.5h-11q-12 0 -15 4.5t-3 16.5v71h-8q-74 0 -152 26q-13 4 -13 14q0 4 1 7l10 33q3 9 11 9q2 0 10 -2q75 -28 137 -28h4v283l-70 40q-106 60 -106 156q0 72 51 116.5t125 51.5v81q0 16 15 16h16
q10 0 13.5 -3.5t3.5 -13.5v-79q66 -3 124 -27q13 -6 13 -15q0 -4 -1 -7l-10 -28q-3 -9 -12 -9q-3 0 -9 2q-55 23 -105 27v-258l34 -19q68 -38 103 -79.5t35 -106.5zM410 174q0 80 -97 129l-6 3v-251q46 11 74.5 40.5t28.5 78.5zM237 423l22 -12v229q-41 -7 -66 -26
q-39 -29 -39 -73q0 -73 83 -118z" />
    <glyph glyph-name="percent" unicode="%" horiz-adv-x="1000" 
d="M426 545q0 -64 -30 -107.5t-91 -43.5t-92 43t-31 107t32 109t93 45q62 0 90.5 -44t28.5 -109zM825 142q0 -64 -30 -107.5t-91 -43.5t-92 43t-31 107t32 109t93 45q62 0 90.5 -44t28.5 -109zM758 670q0 -6 -4 -11l-461 -662q-4 -7 -11 -7q-5 0 -14 6l-19 13q-6 5 -6 11
q0 7 4 12l460 660q4 7 11 7q6 0 15 -6l17 -10q8 -5 8 -13zM376 548q0 42 -17 78.5t-54 36.5q-40 0 -56 -38t-16 -84q0 -44 17 -79t56 -35q27 0 43.5 22.5t21.5 47t5 51.5zM775 145q0 42 -17 78.5t-54 36.5q-40 0 -56 -38t-16 -84q0 -44 17 -79t56 -35q27 0 43.5 22.5
t21.5 47t5 51.5z" />
    <glyph glyph-name="ampersand" unicode="&#x26;" horiz-adv-x="669" 
d="M655 32l-10 -26q-5 -14 -24 -9q-82 20 -150 86q-101 -92 -232 -92q-84 0 -141 53t-57 135q0 29 10.5 56.5t24.5 47t39.5 42.5t44 36t50.5 35l-33 40q-57 69 -57 128q0 55 41.5 94.5t104.5 39.5q65 0 106 -37t41 -96q0 -48 -32 -87.5t-90 -82.5l188 -225q70 100 82 235
q1 14 11 14h35q10 0 9 -13q-10 -158 -102 -276q52 -51 131 -80q15 -5 10 -18zM437 122l-196 236q-63 -47 -96 -85t-33 -85q0 -61 42.5 -100.5t100.5 -39.5q105 0 182 74zM352 563q0 37 -23 61.5t-61 24.5q-35 0 -59 -24t-24 -60q0 -43 49 -101l27 -33q91 68 91 132z" />
    <glyph glyph-name="quotesingle" unicode="'" horiz-adv-x="300" 
d="M177 680v-140q0 -18 -16 -18h-32q-15 0 -15 18v140q0 18 15 18h32q16 0 16 -18z" />
    <glyph glyph-name="parenleft" unicode="(" horiz-adv-x="322" 
d="M259 693q0 -6 -4 -11q-60 -94 -85 -168q-36 -105 -36 -228q0 -201 117 -371q4 -5 4 -11t-6 -11l-15 -11q-4 -4 -9 -4q-4 0 -11 10q-145 202 -145 411q0 200 151 407q4 6 11 6q5 0 8 -2l15 -9q5 -3 5 -8z" />
    <glyph glyph-name="parenright" unicode=")" horiz-adv-x="322" 
d="M253 293q0 -202 -150 -407q-5 -6 -11 -6q-5 0 -8 2l-16 10q-5 3 -5 8t4 10q60 94 85 168q37 108 37 228q0 201 -117 371q-4 5 -4 11t6 11l16 11q8 4 9 4q4 0 11 -10q143 -199 143 -411z" />
    <glyph glyph-name="asterisk" unicode="*" 
d="M284 587q0 -9 -12 -11l-93 -12l68 -71q4 -4 4 -9q0 -9 -8 -14l-24 -18q-8 -5 -11 -5q-5 0 -10 10l-43 98l-42 -102q-3 -6 -8 -6q-3 0 -9 4l-32 23q-5 3 -5 7q0 2 8 13l69 71l-98 11q-11 2 -11 8q0 4 1 6l14 44q3 8 10 8q4 0 9 -3l85 -51l-19 101q-1 4 -1 9q0 8 12 8h36
q13 0 13 -8q0 -6 -1 -9l-19 -101l88 52q4 2 7 2q6 0 10 -12l10 -34q2 -6 2 -9z" />
    <glyph glyph-name="plus" unicode="+" horiz-adv-x="500" 
d="M456 272v-20q0 -11 -3.5 -15t-13.5 -4h-160v-167q0 -12 -3 -16t-12 -4h-26q-9 0 -12 3.5t-3 13.5v170h-158q-12 0 -16 3t-4 12v26q0 9 3.5 12t13.5 3h161v168q0 13 3 16.5t14 3.5h20q11 0 15 -3.5t4 -13.5v-171h157q13 0 16.5 -3t3.5 -14z" />
    <glyph glyph-name="comma" unicode="," horiz-adv-x="192" 
d="M152 26q0 -37 -20.5 -75.5t-50.5 -59.5q-8 -5 -12 -5q-6 0 -10 6l-5 6q-3 3 -3 8q0 3 5 8q31 31 31 62q0 12 -15 31t-15 32q0 19 13 32t33 13q22 0 35.5 -17.5t13.5 -40.5z" />
    <glyph glyph-name="hyphen" unicode="-" horiz-adv-x="271" 
d="M226 272v-20q0 -11 -3.5 -15t-13.5 -4h-144q-12 0 -16 3t-4 12v26q0 9 3.5 12t13.5 3h144q13 0 16.5 -3t3.5 -14z" />
    <glyph glyph-name="hyphen" unicode="&#xad;" horiz-adv-x="271" 
d="M226 272v-20q0 -11 -3.5 -15t-13.5 -4h-144q-12 0 -16 3t-4 12v26q0 9 3.5 12t13.5 3h144q13 0 16.5 -3t3.5 -14z" />
    <glyph glyph-name="period" unicode="." horiz-adv-x="195" 
d="M155 37q0 -21 -15.5 -35.5t-36.5 -14.5t-37 14.5t-16 35.5q0 22 15.5 35.5t37.5 13.5q21 0 36.5 -14t15.5 -35z" />
    <glyph glyph-name="slash" unicode="/" horiz-adv-x="325" 
d="M300 690q0 -3 -2 -11l-193 -668q-4 -13 -9.5 -16.5t-17.5 -3.5h-20q-15 0 -15 8q0 1 2 11l196 670q3 11 6.5 14.5t13.5 3.5h27q12 0 12 -8z" />
    <glyph glyph-name="zero" unicode="0" horiz-adv-x="540" 
d="M504 346q0 -46 -6.5 -91.5t-23.5 -94t-42 -85.5t-67 -60.5t-94 -23.5q-65 0 -112 34.5t-71 90.5t-35 112.5t-11 115.5q0 58 11.5 115t36 113.5t72 91t112.5 34.5q52 0 93.5 -23.5t66.5 -59.5t41.5 -84.5t22.5 -93.5t6 -91zM429 345q0 44 -6.5 89t-22 94.5t-48.5 80.5
t-79 31t-79.5 -31t-48.5 -80.5t-21.5 -94t-6.5 -89.5t6.5 -89.5t21.5 -94t48.5 -80.5t79.5 -31t79 31t48.5 80.5t22 94.5t6.5 89z" />
    <glyph glyph-name="one" unicode="1" horiz-adv-x="540" 
d="M343 666v-645q0 -21 -18 -21h-30q-19 0 -19 21v593l-136 -90q-6 -4 -11 -4q-7 0 -13 9l-13 22q-2 3 -2 7q0 8 10 15l160 106q11 8 32 8h22q18 0 18 -21z" />
    <glyph glyph-name="two" unicode="2" horiz-adv-x="540" 
d="M475 42v-25q0 -17 -20 -17h-369q-16 0 -16 17v24q0 12 9 22q24 27 75 79t75 78q85 93 126 161.5t41 130.5q0 57 -36.5 91.5t-94.5 34.5q-70 0 -142 -41q-6 -2 -7 -2q-9 0 -12 10l-9 22q-3 6 -3 10q0 6 9 12q76 49 175 49q82 0 138.5 -47t56.5 -130q0 -74 -38 -144
t-138 -179q-25 -27 -74.5 -77.5t-60.5 -62.5h294q21 0 21 -16z" />
    <glyph glyph-name="three" unicode="3" horiz-adv-x="540" 
d="M469 199q0 -91 -65 -149.5t-158 -58.5q-97 0 -162 33q-8 5 -8 12q0 4 1 6l11 26q4 9 10 9q1 0 7 -2q64 -29 134 -29q69 0 112 40.5t43 109.5q0 70 -46 108.5t-121 38.5h-35q-13 0 -13 12v30q0 11 12 11h27q70 0 110.5 33t40.5 99q0 58 -36.5 87t-96.5 29q-61 0 -120 -33
q-4 -3 -8 -3t-7 7l-12 26q-2 4 -2 6q0 6 6 9q70 42 157 42q78 0 136 -46t58 -121q0 -53 -32.5 -96.5t-83.5 -59.5q63 -14 102 -63t39 -113z" />
    <glyph glyph-name="four" unicode="4" horiz-adv-x="540" 
d="M469 388v-373q0 -15 -13 -15h-39q-15 0 -15 16v150h-330q-18 0 -18 19v15q0 20 9 39l192 432q7 16 19 16h37q6 0 10 -4.5t4 -9.5q0 -4 -1 -6l-194 -443h272v163q0 10 3.5 13t12.5 3h35q9 0 12.5 -3t3.5 -12z" />
    <glyph glyph-name="five" unicode="5" horiz-adv-x="540" 
d="M478 205q0 -99 -66.5 -156.5t-170.5 -57.5q-73 0 -146 38q-13 7 -13 15q0 1 2 7l12 25q4 9 12 9q4 0 10 -3q65 -32 130 -32q66 0 110.5 39.5t44.5 112.5q0 92 -57 128t-155 36h-51q-27 0 -27 25v280q0 16 15 16h294q19 0 19 -17v-24q0 -10 -3.5 -13t-13.5 -3h-244v-210
h37q114 0 187.5 -53t73.5 -162z" />
    <glyph glyph-name="six" unicode="6" horiz-adv-x="540" 
d="M495 221q0 -99 -55.5 -164.5t-147.5 -65.5q-113 0 -164.5 82.5t-51.5 216.5q0 105 28 197t83 147q64 64 165 64q35 0 78 -10q9 -3 9 -11q0 -5 -1 -8l-5 -22q-3 -12 -13 -12q-1 0 -2.5 0.5t-2.5 0.5q-32 6 -67 6q-67 0 -110 -45q-69 -69 -85 -240q63 67 153 67
q81 0 135 -55.5t54 -147.5zM420 214q0 64 -30 108.5t-93 44.5q-82 0 -146 -72v-24q0 -223 142 -223q66 0 96.5 51.5t30.5 114.5z" />
    <glyph glyph-name="seven" unicode="7" horiz-adv-x="540" 
d="M483 644q0 -11 -8 -27l-272 -601q-6 -16 -23 -16h-37q-13 0 -13 12q0 3 2 9l279 608h-300q-10 0 -14 2.5t-4 11.5v28q0 16 16 16h357q17 0 17 -16v-27z" />
    <glyph glyph-name="eight" unicode="8" horiz-adv-x="540" 
d="M489 191q0 -89 -63.5 -144.5t-156.5 -55.5q-96 0 -156.5 50t-60.5 140q0 57 43 107.5t116 76.5q-60 26 -95 69t-35 98q0 71 55.5 118.5t136.5 47.5t133 -44.5t52 -117.5q0 -47 -37 -92.5t-92 -70.5q160 -67 160 -182zM383 537q0 50 -30 80.5t-84 30.5q-50 0 -81.5 -31.5
t-31.5 -79.5q0 -49 30 -79.5t86 -59.5q44 21 77.5 57t33.5 82zM414 182q0 54 -36 90t-114 69q-137 -54 -137 -157q0 -65 44 -103.5t101 -38.5q58 0 100 37t42 103z" />
    <glyph glyph-name="nine" unicode="9" horiz-adv-x="540" 
d="M479 399q0 -108 -29 -202t-87 -148q-63 -58 -164 -58q-38 0 -74 10q-9 3 -9 11q0 5 1 8l5 22q3 11 11 11h4q27 -6 60 -6q77 0 122 47q67 69 83 238q-63 -67 -154 -67q-81 0 -134.5 55.5t-53.5 147.5q0 99 55 164.5t147 65.5q113 0 165 -82.5t52 -216.5zM404 394v24
q0 104 -35 163.5t-108 59.5q-66 0 -96 -51.5t-30 -114.5q0 -64 29.5 -108.5t92.5 -44.5q83 0 147 72z" />
    <glyph glyph-name="colon" unicode=":" horiz-adv-x="205" 
d="M160 441q0 -22 -16 -35.5t-36 -13.5t-36.5 13.5t-16.5 35.5q0 23 16 37t37 14t36.5 -14.5t15.5 -36.5zM160 41q0 -22 -16 -36t-36 -14t-36.5 14t-16.5 36q0 23 15.5 36t37.5 13q21 0 36.5 -13.5t15.5 -35.5z" />
    <glyph glyph-name="semicolon" unicode=";" horiz-adv-x="206" 
d="M161 441q0 -22 -16 -35.5t-36 -13.5t-36.5 13.5t-16.5 35.5q0 23 16 37t37 14t36.5 -14.5t15.5 -36.5zM157 9q0 -72 -70 -120q-8 -5 -12 -5q-5 0 -10 6l-7 9q-3 3 -3 8q0 3 5 8q26 24 26 45q0 9 -13 28.5t-13 32.5q0 20 13.5 32.5t33.5 12.5q22 0 36 -17.5t14 -39.5z" />
    <glyph glyph-name="less" unicode="&#x3c;" horiz-adv-x="500" 
d="M398 179q0 -5 -2 -7l-20 -31q-5 -9 -12 -9q-5 0 -14 6l-256 173q-11 8 -11 18v15q0 10 11 18l256 173q9 6 14 6q7 0 12 -9l20 -31q2 -2 2 -7q0 -9 -10 -15l-217 -143l217 -142q10 -6 10 -15z" />
    <glyph glyph-name="equal" unicode="=" horiz-adv-x="500" 
d="M405 379v-20q0 -11 -3.5 -15t-13.5 -4h-274q-12 0 -16 3t-4 12v26q0 9 3.5 12t13.5 3h274q13 0 16.5 -3t3.5 -14zM405 199v-20q0 -11 -3.5 -15t-13.5 -4h-274q-12 0 -16 3t-4 12v26q0 9 3.5 12t13.5 3h274q13 0 16.5 -3t3.5 -14z" />
    <glyph glyph-name="greater" unicode="&#x3e;" horiz-adv-x="500" 
d="M398 344v-15q0 -10 -11 -18l-256 -173q-9 -6 -14 -6q-7 0 -12 9l-20 31q-2 2 -2 7q0 9 10 15l217 143l-217 142q-10 6 -10 15q0 5 2 7l20 31q5 9 12 9q5 0 14 -6l256 -173q11 -8 11 -18z" />
    <glyph glyph-name="question" unicode="?" horiz-adv-x="407" 
d="M362 545q0 -75 -58 -139l-73 -81q-18 -19 -26.5 -31.5t-16 -37.5t-7.5 -58q0 -11 -1.5 -14.5t-8.5 -3.5h-27q-5 0 -7.5 1.5t-4 4.5t-2.5 9q-3 23 -3 46t12 51t30 47l72 78q57 63 57 116q0 61 -35 87.5t-84 26.5q-45 0 -94 -22q-6 -2 -8 -2q-8 0 -11 9l-7 18q-2 6 -2 7
q0 7 7 11q59 30 129 30t119.5 -42.5t49.5 -110.5zM216 37q0 -22 -16.5 -36t-36.5 -14t-36 14t-16 36q0 23 15 36t37 13q21 0 37 -13.5t16 -35.5z" />
    <glyph glyph-name="at" unicode="@" horiz-adv-x="810" 
d="M757 386q0 -88 -49 -165t-130 -77q-43 0 -73.5 23t-30.5 71q-40 -71 -110 -71q-52 0 -79 39t-27 96q0 78 46.5 145.5t119.5 67.5q77 0 93 -71l12 47q3 10 14 10h20q13 0 13 -8v-2q-1 -2 -1 -3l-45 -198q-7 -28 -7 -63q0 -51 57 -51q36 0 63 23.5t40.5 59t20 69t6.5 62.5
q0 116 -76.5 188t-196.5 72q-75 0 -133 -30q-84 -42 -128.5 -122t-44.5 -177q0 -129 79.5 -208t207.5 -79q85 0 163 42q3 2 7 2q6 0 9 -7l7 -17l2 -6q0 -4 -8 -9q-90 -48 -189 -48q-156 0 -255 90.5t-99 235.5q0 160 112 270.5t273 110.5q140 0 228.5 -86t88.5 -226z
M477 294l21 99q0 31 -15 57.5t-48 26.5q-40 0 -67 -33t-36.5 -71t-9.5 -73q0 -89 60 -89q59 0 95 83z" />
    <glyph glyph-name="A" unicode="A" horiz-adv-x="584" 
d="M517 0q-12 0 -15.5 2.5t-7.5 12.5l-75 209h-263l-78 -210q-4 -9 -7.5 -11.5t-13.5 -2.5h-43q-11 0 -5 17l255 660q3 10 13 10h36q8 0 12 -9l249 -662q6 -16 -10 -16h-47zM175 276h226l-110 310z" />
    <glyph glyph-name="B" unicode="B" horiz-adv-x="549" 
d="M502 195q0 -195 -252 -195h-155q-11 0 -14.5 3t-3.5 14v651q0 11 4.5 15t18.5 4h126q224 0 224 -167q0 -57 -33 -99.5t-92 -54.5v-1q76 -2 126.5 -48t50.5 -122zM380 519q0 66 -44 90t-120 24h-69v-246h77q156 0 156 132zM430 194q0 139 -188 139h-95v-279h95
q90 0 139 31.5t49 108.5z" />
    <glyph glyph-name="C" unicode="C" horiz-adv-x="579" 
d="M545 79l9 -21q7 -15 -10 -23q-87 -44 -189 -44q-76 0 -135.5 28.5t-95.5 78t-54.5 112t-18.5 134.5q0 145 83 249.5t226 104.5q105 0 180 -46q15 -8 8 -22l-13 -24q-7 -13 -19 -5q-68 42 -151 42q-104 0 -170 -80q-68 -83 -68 -214q0 -58 13.5 -110t40.5 -96.5t74 -71
t109 -26.5q89 0 162 39q14 7 19 -5z" />
    <glyph glyph-name="D" unicode="D" horiz-adv-x="653" 
d="M604 339q0 -174 -99 -267q-76 -72 -245 -72h-160q-14 0 -18.5 4.5t-4.5 16.5v639q0 14 6.5 20.5t21.5 6.5h112q104 0 156.5 -10t97.5 -39q63 -41 98 -119t35 -180zM529 340q0 77 -23 141t-66 100q-63 52 -188 52h-105v-579h89q82 0 131 11.5t83 46.5q79 79 79 228z" />
    <glyph glyph-name="E" unicode="E" horiz-adv-x="489" 
d="M446 41v-27q0 -14 -17 -14h-334q-11 0 -14.5 3.5t-3.5 14.5v652q0 10 3.5 13.5t13.5 3.5h335q9 0 12 -3.5t2 -12.5l-3 -25q-1 -13 -23 -13h-270v-242h238q17 0 17 -15v-24q0 -15 -16 -15h-239v-283h281q18 0 18 -13z" />
    <glyph glyph-name="F" unicode="F" horiz-adv-x="480" 
d="M429 687q16 0 14 -16l-3 -25q-1 -13 -23 -13h-270v-242h238q17 0 17 -15v-24q0 -15 -16 -15h-239v-318q0 -12 -3 -15.5t-14 -3.5h-36q-11 0 -14 3.5t-3 15.5v651q0 10 3.5 13.5t13.5 3.5h335z" />
    <glyph glyph-name="G" unicode="G" horiz-adv-x="642" 
d="M569 374v-300q0 -18 -3 -24t-17 -14q-34 -20 -84.5 -32.5t-94.5 -12.5q-161 0 -240 95.5t-79 257.5q0 155 88.5 254.5t244.5 99.5q81 0 155 -30q9 -4 10.5 -7.5t-1.5 -10.5l-8 -28q-5 -14 -19 -8q-68 27 -137 27q-126 0 -192 -85t-66 -211q0 -46 7.5 -88t25.5 -81.5
t45 -68.5t68 -46.5t92 -17.5q80 0 136 30v264h-115h-8t-4.5 2t-3 5t-0.5 9v25q0 8 3 10.5t12 2.5h169q10 0 13 -3t3 -14z" />
    <glyph glyph-name="H" unicode="H" horiz-adv-x="639" 
d="M562 669v-651q0 -18 -15 -18h-38q-16 0 -16 18v319h-346v-319q0 -18 -16 -18h-38q-16 0 -16 18v651q0 18 16 18h38q16 0 16 -18v-278h346v278q0 18 16 18h38q15 0 15 -18z" />
    <glyph glyph-name="I" unicode="I" horiz-adv-x="349" 
d="M284 39v-25q0 -9 -2 -11.5t-9 -2.5h-198q-7 0 -9.5 2t-2.5 10v28q0 6 2 8t10 2h64v588h-67q-8 0 -10 2t-2 9v26q0 7 2 9.5t9 2.5h199q14 0 14 -11v-25q0 -9 -2 -11t-12 -2h-64v-588h64q14 0 14 -11z" />
    <glyph glyph-name="J" unicode="J" horiz-adv-x="363" 
d="M284 670v-438q0 -78 -10 -126t-42 -77q-43 -38 -124 -38q-32 0 -55 7q-10 3 -8 15l6 32q2 11 14 8q25 -5 48 -5q63 0 84 36q19 34 19 124v430h-111q-11 0 -14 2.5t-3 11.5v23q0 12 18 12h162q16 0 16 -17z" />
    <glyph glyph-name="K" unicode="K" horiz-adv-x="517" 
d="M450 0q-19 0 -32 15l-270 314h-1v-311q0 -18 -16 -18h-38q-16 0 -16 18v651q0 18 16 18h38q16 0 16 -18v-294h1l262 302q9 10 23 10h43q6 0 7.5 -5t-2.5 -9l-272 -315l293 -339q6 -7 6 -13t-9 -6h-49z" />
    <glyph glyph-name="L" unicode="L" horiz-adv-x="428" 
d="M413 42v-29q0 -8 -2.5 -10.5t-10.5 -2.5h-307q-16 0 -16 18v651q0 18 16 18h38q16 0 16 -18v-615h250q10 0 13 -2.5t3 -9.5z" />
    <glyph glyph-name="M" unicode="M" horiz-adv-x="814" 
d="M680 0q-8 0 -10.5 3.5t-3.5 13.5l-20 531h-1l-207 -539q-4 -9 -13 -9h-33q-9 0 -14 11l-221 537l-14 -535q0 -8 -3 -10.5t-12 -2.5h-38q-13 0 -13 15l21 655q0 11 2.5 14t9.5 3h33q17 0 21 -11l250 -576h1l232 575q5 12 15 12h39q12 0 12 -14l24 -656q1 -11 -2.5 -14
t-12.5 -3h-42z" />
    <glyph glyph-name="N" unicode="N" horiz-adv-x="672" 
d="M595 670v-652q0 -18 -13 -18h-32q-13 0 -26 18l-382 542h-2v-542q0 -18 -16 -18h-31q-16 0 -16 18v651q0 18 16 18h25q14 0 22 -13l391 -556h2v551q0 18 15 18h31q16 0 16 -17z" />
    <glyph glyph-name="O" unicode="O" horiz-adv-x="662" 
d="M617 348q0 -166 -80.5 -261.5t-204.5 -95.5q-128 0 -201.5 93t-73.5 257q0 162 80 259.5t205 97.5q130 0 202.5 -95t72.5 -255zM542 345q0 138 -52.5 217t-149.5 79q-93 0 -150.5 -84t-57.5 -213q0 -137 54 -217t149 -80q92 0 149.5 82.5t57.5 215.5z" />
    <glyph glyph-name="P" unicode="P" horiz-adv-x="494" 
d="M463 482q0 -104 -69.5 -158t-175.5 -54h-71v-252q0 -18 -16 -18h-38q-16 0 -16 18v651q0 18 16 18h121q112 0 180.5 -48.5t68.5 -156.5zM391 482q0 84 -49.5 117.5t-137.5 33.5h-57v-309h67q82 0 129.5 38.5t47.5 119.5z" />
    <glyph glyph-name="Q" unicode="Q" horiz-adv-x="656" 
d="M626 -63q15 -4 15 -14q0 -3 -1 -7t-2.5 -11t-2.5 -13q-3 -13 -19 -10q-67 13 -122 54q-3 2 -18.5 13.5t-20 14.5t-17.5 11t-21 10.5t-20.5 5t-25.5 2.5q-7 0 -22 -1t-23 -1q-73 0 -128 29.5t-86 80t-46 110.5t-15 129q0 67 17 129t50.5 114.5t89.5 83.5t128 31
q59 0 106 -20t78 -53.5t52 -79.5t30 -95t9 -103q0 -104 -38.5 -192.5t-121.5 -132.5q17 -6 33.5 -15t37 -22.5t30.5 -19.5q28 -17 74 -28zM536 344q0 53 -9.5 101.5t-30.5 94t-63 73t-99 27.5q-54 0 -96.5 -28.5t-65.5 -74t-34.5 -95t-11.5 -99.5q0 -53 9.5 -101t31.5 -94
t63.5 -73.5t98.5 -27.5q55 0 97 28.5t65 74t34 95t11 99.5z" />
    <glyph glyph-name="R" unicode="R" horiz-adv-x="530" 
d="M408 16l-153 279h-108v-277q0 -18 -16 -18h-38q-16 0 -16 18v651q0 18 16 18h140q236 0 236 -195q0 -71 -42 -119.5t-105 -66.5l163 -288q11 -18 -6 -18h-45q-17 0 -26 16zM396 492q0 75 -44.5 108t-132.5 33h-72v-284h86q72 0 117.5 37.5t45.5 105.5z" />
    <glyph glyph-name="S" unicode="S" horiz-adv-x="486" 
d="M445 178q0 -90 -65 -138.5t-160 -48.5q-75 0 -155 26q-17 6 -12 21l10 33q5 13 21 7q77 -28 138 -28q64 0 109 31t45 93q0 43 -25 72.5t-72 56.5l-124 70q-106 60 -106 156q0 79 59.5 124t141.5 45t147 -27q17 -7 12 -22l-10 -28q-5 -13 -21 -7q-70 28 -124 28
q-58 0 -95 -28q-39 -29 -39 -73q0 -71 83 -118l104 -59q68 -38 103 -79.5t35 -106.5z" />
    <glyph glyph-name="T" unicode="T" horiz-adv-x="531" 
d="M500 687q9 0 12 -2.5t2 -8.5l-5 -30q-2 -13 -21 -13h-193v-615q0 -18 -16 -18h-37q-16 0 -16 18v615h-196q-8 0 -10.5 2t-2.5 9v31q0 7 2 9.5t9 2.5h472z" />
    <glyph glyph-name="U" unicode="U" horiz-adv-x="681" 
d="M604 669v-372q0 -148 -62 -225q-65 -81 -199 -81q-160 0 -220 93q-46 71 -46 222v363q0 18 16 18h38q16 0 16 -18v-355q0 -112 21 -164q39 -100 174 -100q130 0 170 97q23 57 23 168v354q0 18 16 18h37q16 0 16 -18z" />
    <glyph glyph-name="V" unicode="V" horiz-adv-x="582" 
d="M517 687h31q21 0 14 -18l-228 -652q-7 -17 -23 -17h-36q-15 0 -22 19l-233 646q-9 22 10 22h42q14 0 19 -3.5t9 -14.5l198 -566h1l192 565q4 12 9 15.5t17 3.5z" />
    <glyph glyph-name="W" unicode="W" horiz-adv-x="863" 
d="M72 687q14 0 19.5 -3.5t8.5 -14.5l152 -566h1l139 565q3 12 8 15.5t18 3.5h30q16 0 21 -18l145 -566h1l156 565q4 12 8.5 15.5t17.5 3.5h31q21 0 15 -18l-194 -652q-5 -17 -22 -17h-36q-18 0 -22 19l-139 555h-1l-141 -557q-4 -17 -23 -17h-35q-10 0 -14 3.5t-8 15.5
l-188 646q-6 22 10 22h42z" />
    <glyph glyph-name="X" unicode="X" horiz-adv-x="533" 
d="M513 10q0 -10 -14 -10h-37q-22 0 -33 18l-164 283l-164 -281q-7 -12 -13 -16t-19 -4h-35q-14 0 -14 7q0 5 5 13l207 337l-188 314q-2 3 -2 7q0 9 10 9h46q13 0 22 -14l150 -253l146 253q8 14 22 14h44q10 0 10 -7q0 -4 -3 -9l-186 -306l204 -339q6 -10 6 -16z" />
    <glyph glyph-name="Y" unicode="Y" horiz-adv-x="522" 
d="M505 680q0 -3 -5 -15l-200 -401v-249q0 -15 -13 -15h-43q-13 0 -13 16v247l-212 406q-3 6 -3 9q0 9 15 9h33q22 0 30 -16l176 -348h1l168 345q6 13 10.5 16t17.5 3h24q14 0 14 -7z" />
    <glyph glyph-name="Z" unicode="Z" horiz-adv-x="511" 
d="M488 43v-30q0 -8 -2.5 -10.5t-11.5 -2.5h-443q-12 0 -12 11v17q0 10 7 22l370 583h-321q-13 0 -16 2t-3 10v30q0 8 2 10t11 2h398q16 0 16 -12v-13q0 -13 -7 -25l-372 -583h369q15 0 15 -11z" />
    <glyph glyph-name="bracketleft" unicode="[" horiz-adv-x="288" 
d="M273 -106v-22q0 -16 -17 -16h-155q-16 0 -16 18v805q0 19 18 19h153q17 0 17 -16v-22q0 -16 -17 -16h-107v-734h107q17 0 17 -16z" />
    <glyph glyph-name="backslash" unicode="\" horiz-adv-x="347" 
d="M304 -5q0 -8 -12 -8h-27q-10 0 -14 3.5t-7 14.5l-195 679q-2 10 -2 11q0 8 15 8h20q12 0 17.5 -3.5t9.5 -16.5l193 -677q2 -10 2 -11z" />
    <glyph glyph-name="bracketright" unicode="]" horiz-adv-x="288" 
d="M203 680v-805q0 -19 -18 -19h-152q-18 0 -18 16v22q0 16 18 16h107v734h-107q-18 0 -18 16v22q0 16 18 16h154q16 0 16 -18z" />
    <glyph glyph-name="asciicircum" unicode="^" horiz-adv-x="535" 
d="M467 406q0 -4 -8 -9l-25 -13q-7 -4 -12 -4q-6 0 -13 10l-142 219l-144 -215q-7 -10 -13 -10q-4 0 -9 3l-25 18q-8 6 -8 11q0 4 5 12l171 243q11 16 20 16h11q11 0 19 -12l169 -260q4 -8 4 -9z" />
    <glyph glyph-name="underscore" unicode="_" horiz-adv-x="510" 
d="M505 -100v-20q0 -11 -3.5 -15t-13.5 -4h-463q-12 0 -16 3t-4 12v26q0 9 3.5 12t13.5 3h463q13 0 16.5 -3t3.5 -14z" />
    <glyph glyph-name="grave" unicode="`" 
d="M254 597q0 -3 -3 -9l-9 -14q-4 -7 -12 -7q-2 0 -8 2l-158 74q-9 5 -9 12q0 5 3 11l17 27q6 9 13 9t12 -4l147 -90q7 -4 7 -11z" />
    <glyph glyph-name="a" unicode="a" horiz-adv-x="519" 
d="M492 35v-25q0 -10 -12 -10h-38q-28 0 -42 20.5t-14 51.5v13q-15 -38 -60 -66t-94 -28q-96 0 -145.5 70t-49.5 172q0 119 60.5 189t150.5 70q38 0 75.5 -16t61.5 -47l1 37q0 16 18 16h30q15 0 15 -18v-351q0 -47 4 -55q5 -12 21 -12h7q11 0 11 -11zM385 166v192
q-19 39 -55.5 61.5t-77.5 22.5q-66 0 -107.5 -55.5t-41.5 -149.5q0 -91 38.5 -141.5t95.5 -50.5q52 0 92 35.5t56 85.5z" />
    <glyph glyph-name="b" unicode="b" horiz-adv-x="525" 
d="M484 243q0 -109 -56 -180.5t-162 -71.5q-40 0 -77 18.5t-61 46.5l-1 -38q0 -18 -19 -18h-25q-16 0 -16 15v671q0 16 13 18q9 1 16 2l10.5 1.5t5.5 1t3 0.5h1.5h2.5q12 0 12 -16v-264q59 63 151 63q101 0 151.5 -70.5t50.5 -178.5zM418 238q0 95 -36.5 149t-109.5 54
q-37 0 -76 -20t-65 -49v-254q22 -35 57.5 -56t74.5 -21q77 0 116 55.5t39 141.5z" />
    <glyph glyph-name="c" unicode="c" horiz-adv-x="422" 
d="M403 56l5 -18q4 -12 -9 -19q-60 -28 -129 -28q-114 0 -171.5 68.5t-57.5 183.5q0 109 62.5 179t170.5 70q70 0 125 -30q9 -4 9 -11q0 -2 -2 -8l-6 -18q-4 -11 -10 -11q-1 0 -7 2q-58 27 -110 27q-75 0 -120.5 -54t-45.5 -144q0 -88 39.5 -147t123.5 -59q62 0 116 24
q13 6 17 -7z" />
    <glyph glyph-name="d" unicode="d" horiz-adv-x="526" 
d="M459 18q0 -18 -12 -18h-29q-19 0 -19 18l-1 42q-26 -32 -67.5 -50.5t-86.5 -18.5q-69 0 -116 36t-67 90.5t-20 122.5q0 113 61 182.5t157 69.5q37 0 75.5 -16.5t60.5 -44.5v255q0 17 13 18l40 5q6 1 8.5 -3.5t2.5 -12.5v-675zM395 117v243q-17 35 -54 58.5t-77 23.5
q-72 0 -114.5 -53t-42.5 -147q0 -91 39.5 -146t107.5 -55q39 0 79.5 22t61.5 54z" />
    <glyph glyph-name="e" unicode="e" horiz-adv-x="487" 
d="M452 266q0 -17 -5 -22t-23 -5h-317q0 -85 43 -139.5t125 -54.5q72 0 125 23q14 7 17 -7l5 -23q3 -14 -9 -19q-59 -28 -144 -28q-111 0 -169.5 68t-58.5 183q0 107 61.5 178.5t163.5 71.5q86 0 136 -58.5t50 -148.5v-19zM388 304q0 60 -32 99.5t-92 39.5q-67 0 -107.5 -46
t-47.5 -113h278q1 7 1 20z" />
    <glyph glyph-name="f" unicode="f" horiz-adv-x="341" 
d="M243 717q41 0 82 -15q13 -6 10 -16l-7 -27q-3 -9 -15 -4q-30 12 -65 12q-53 0 -74 -33t-21 -104v-48h130q12 0 12 -10v-26q0 -11 -11 -11h-131v-417q0 -18 -16 -18h-32q-16 0 -16 18v417h-61q-6 0 -7.5 1.5t-1.5 8.5v27q0 10 11 10h59v14q0 55 3 79q7 67 46 104.5
t105 37.5z" />
    <glyph glyph-name="g" unicode="g" horiz-adv-x="526" 
d="M460 22q0 -136 -66 -194q-56 -48 -152 -48q-67 0 -139 35q-13 7 -9 18l10 26q5 14 19 7q69 -32 119 -32q77 0 113 37q41 43 41 144v49q-25 -30 -67 -47t-83 -17q-102 0 -153 68.5t-51 174.5t57.5 177.5t159.5 71.5q89 0 137 -61l1 35q0 16 18 16h30q15 0 15 -18v-442z
M396 124v236q-17 35 -55 58.5t-79 23.5q-73 0 -113.5 -53.5t-40.5 -141.5q0 -51 12.5 -92.5t46 -72t85.5 -30.5q40 0 81.5 20.5t62.5 51.5z" />
    <glyph glyph-name="h" unicode="h" horiz-adv-x="523" 
d="M456 312v-294q0 -18 -16 -18h-32q-16 0 -16 18v285q0 67 -23.5 103t-86.5 36q-37 0 -79.5 -18.5t-71.5 -45.5v-360q0 -18 -16 -18h-32q-16 0 -16 18v668q0 16 13 18q36 5 39 5q12 0 12 -16v-263q70 62 167 62q158 0 158 -180z" />
    <glyph glyph-name="i" unicode="i" horiz-adv-x="220" 
d="M151 594q0 -17 -12 -28t-30 -11q-17 0 -29 11t-12 28t12 28t29 11q18 0 30 -11t12 -28zM141 464v-446q0 -18 -16 -18h-32q-16 0 -16 18v446q0 18 16 18h32q16 0 16 -18z" />
    <glyph glyph-name="j" unicode="j" horiz-adv-x="246" 
d="M179 594q0 -17 -12 -28t-29 -11t-29 11t-12 28t12 28t29 11t29 -11t12 -28zM169 464v-438q0 -141 -46 -195q-42 -51 -125 -51q-20 0 -49 6q-11 2 -9 15l4 25q1 9 11 7q25 -4 47 -4q46 0 72 32q31 38 31 154v449q0 18 16 18h33q15 0 15 -18z" />
    <glyph glyph-name="k" unicode="k" horiz-adv-x="415" 
d="M349 0q-18 0 -28 14l-161 233l-29 -30v-199q0 -18 -16 -18h-32q-16 0 -16 18v668q0 16 13 18q36 5 39 5q12 0 12 -16v-404h2l169 183q9 10 18 10h50q13 0 3 -12l-167 -180l189 -269q14 -21 -9 -21h-37z" />
    <glyph glyph-name="l" unicode="l" horiz-adv-x="199" 
d="M131 693v-675q0 -18 -16 -18h-32q-16 0 -16 18v668q0 16 13 18q36 5 39 5q12 0 12 -16z" />
    <glyph glyph-name="m" unicode="m" horiz-adv-x="813" 
d="M746 312v-294q0 -18 -16 -18h-32q-16 0 -16 18v285q0 68 -25 103.5t-90 35.5q-66 0 -132 -49q10 -34 10 -81v-294q0 -18 -16 -18h-32q-16 0 -16 18v285q0 66 -23.5 102.5t-85.5 36.5q-72 0 -141 -64v-360q0 -18 -16 -18h-32q-16 0 -16 18v446q0 18 16 18h31q16 0 16 -18
l1 -34q67 62 155 62q94 0 132 -61q70 61 165 61q163 0 163 -180z" />
    <glyph glyph-name="n" unicode="n" horiz-adv-x="523" 
d="M456 312v-294q0 -18 -16 -18h-32q-16 0 -16 18v285q0 68 -23.5 103.5t-87.5 35.5q-36 0 -78.5 -18.5t-71.5 -45.5v-360q0 -18 -16 -18h-32q-16 0 -16 18v446q0 18 16 18h31q16 0 16 -18l1 -34q70 62 167 62q158 0 158 -180z" />
    <glyph glyph-name="o" unicode="o" horiz-adv-x="522" 
d="M481 242q0 -109 -59.5 -180t-164.5 -71q-108 0 -162 69.5t-54 181.5q0 109 59 179.5t163 70.5q108 0 163 -68.5t55 -181.5zM415 240q0 85 -36.5 144t-115.5 59q-43 0 -74.5 -17.5t-48.5 -47.5t-25 -63.5t-8 -70.5q0 -86 35.5 -145.5t115.5 -59.5q42 0 73.5 17t49 46.5
t26 64t8.5 73.5z" />
    <glyph glyph-name="p" unicode="p" horiz-adv-x="525" 
d="M484 244q0 -107 -57 -180t-159 -73q-40 0 -77.5 16t-60.5 46v-252q0 -16 -19 -16h-29q-16 0 -16 18v664q0 15 16 15h25q20 0 20 -18v-39q25 30 67.5 48.5t86.5 18.5q91 0 147 -64t56 -184zM418 244q0 98 -40 148t-107 50q-40 0 -80 -21t-61 -53v-245q17 -35 55 -58.5
t79 -23.5q73 0 113.5 55.5t40.5 147.5z" />
    <glyph glyph-name="q" unicode="q" horiz-adv-x="526" 
d="M459 -197q0 -18 -12 -18h-36q-16 0 -16 16v259q-58 -69 -154 -69q-101 0 -150.5 71t-49.5 178q0 106 57.5 179t159.5 73q89 0 137 -61l1 35q0 16 18 16h30q15 0 15 -18v-661zM395 120v239q-18 35 -55 59t-78 24q-80 0 -117.5 -57.5t-37.5 -142.5q0 -92 38 -146t106 -54
q40 0 81 23t63 55z" />
    <glyph glyph-name="r" unicode="r" horiz-adv-x="293" 
d="M243 492q14 0 29 -3q10 -1 8 -11l-5 -33q-2 -10 -10 -8q-20 4 -32 4q-27 0 -54.5 -18.5t-47.5 -48.5v-356q0 -18 -16 -18h-32q-16 0 -16 18v446q0 18 16 18h31q16 0 16 -18l1 -35q17 25 47 44t65 19z" />
    <glyph glyph-name="s" unicode="s" horiz-adv-x="376" 
d="M196 492q63 0 121 -27q9 -5 7 -11l-10 -28q-3 -11 -15 -6q-50 24 -103 24q-43 0 -68.5 -20t-25.5 -52q0 -30 16.5 -47t53.5 -32l71 -30q103 -43 103 -126q0 -64 -48.5 -105t-128.5 -41q-67 0 -127 30q-12 6 -8 14l12 31q4 8 11 5q60 -30 115 -30q51 0 81 23.5t30 64.5
q0 32 -21.5 52.5t-62.5 37.5l-60 24q-103 41 -103 121q0 59 46 93.5t114 34.5z" />
    <glyph glyph-name="t" unicode="t" horiz-adv-x="327" 
d="M292 52q13 5 15 -6l5 -25q2 -10 -10 -15q-41 -15 -82 -15q-70 0 -103 34q-19 20 -24.5 48t-5.5 77v285h-59q-11 0 -11 10v27q0 6 1.5 8t7.5 2h61v117q0 16 13 18l35 5h4q12 0 12 -16v-124h121q11 0 11 -11v-26q0 -10 -12 -10h-120v-295q0 -60 20 -80q19 -19 59 -19
q31 0 62 11z" />
    <glyph glyph-name="u" unicode="u" horiz-adv-x="513" 
d="M446 464v-446q0 -18 -16 -18h-31q-16 0 -16 18l-1 35q-70 -62 -157 -62q-71 0 -113 40q-45 45 -45 142v291q0 18 16 18h32q16 0 16 -18v-282q0 -77 29 -110q26 -29 81 -29q34 0 74.5 20t66.5 46v355q0 18 16 18h32q16 0 16 -18z" />
    <glyph glyph-name="v" unicode="v" horiz-adv-x="433" 
d="M373 482h30q17 0 12 -15l-161 -453q-6 -14 -19 -14h-39q-16 0 -21 14l-159 452q-2 6 1.5 11t11.5 5h35q17 0 21 -11l134 -396h2l131 393q4 14 21 14z" />
    <glyph glyph-name="w" unicode="w" horiz-adv-x="671" 
d="M642 482q16 0 11 -15l-135 -453q-4 -14 -20 -14h-41q-17 0 -20 14l-103 366l-102 -366q-4 -14 -20 -14h-40q-16 0 -21 14l-135 452q-5 16 13 16h35q18 0 21 -11l110 -395h2l111 394q4 12 16 12h32q10 0 12 -10l115 -396h2l106 392q4 14 21 14h30z" />
    <glyph glyph-name="x" unicode="x" horiz-adv-x="439" 
d="M422 4q0 -4 -6 -4h-59q-11 0 -18 10l-123 191l-129 -192q-6 -9 -19 -9h-46q-7 0 -7 4q0 2 2 6l168 238l-146 222q-3 4 -3 7q0 5 7 5h55q11 0 16 -8l110 -170l114 167q8 11 18 11h46q7 0 7 -5q0 -3 -3 -7l-151 -213l162 -241q5 -8 5 -12z" />
    <glyph glyph-name="y" unicode="y" horiz-adv-x="465" 
d="M455 474q0 -2 -2 -8l-195 -526q-33 -89 -74.5 -124.5t-115.5 -35.5q-14 0 -40 4q-10 2 -10 11v3l5 32q1 11 11 11h3q30 -3 37 -3q78 0 109 77l31 76l-177 477q-5 14 8 14h47q12 0 16 -11l141 -400l139 400q4 11 16 11h39q12 0 12 -8z" />
    <glyph glyph-name="z" unicode="z" horiz-adv-x="382" 
d="M363 35v-23q0 -12 -10 -12h-318q-14 0 -14 14v15q0 13 9 27l248 379h-225q-13 0 -13 12v23q0 12 13 12h284q15 0 15 -13v-16q0 -9 -8 -22l-254 -384h261q12 0 12 -12z" />
    <glyph glyph-name="braceleft" unicode="{" horiz-adv-x="309" 
d="M294 -125q0 -9 -18 -9h-52q-61 0 -98 37t-38 104l-3 151q-1 53 -9.5 78t-35.5 28q-11 1 -14 4t-3 10v12q0 15 15 16q27 3 36.5 28t10.5 71l3 158q1 66 39 103.5t97 37.5h58q12 0 12 -7v-2q-1 -2 -1 -3l-5 -21q-3 -12 -14 -12h-57q-37 0 -54 -33t-18 -65l-3 -133
q-2 -72 -14 -106t-42 -36v-1q31 -2 42.5 -34.5t13.5 -114.5l3 -127q1 -32 18 -65t54 -33h53q13 0 16 -9l7 -23q0 -1 0.5 -2t0.5 -2z" />
    <glyph glyph-name="bar" unicode="|" horiz-adv-x="189" 
d="M125 692v-693q0 -18 -16 -18h-29q-16 0 -16 18v691q0 18 13 18h32q9 0 12.5 -3t3.5 -13z" />
    <glyph glyph-name="braceright" unicode="}" horiz-adv-x="309" 
d="M286 293v-13q0 -15 -14 -16q-27 -3 -37 -28.5t-11 -70.5l-3 -158q-1 -66 -39 -103.5t-97 -37.5h-58q-12 0 -12 7l1 2v3l5 21q3 12 14 12h57q37 0 54 33t18 65l3 134q2 71 14 105t42 36v1q-31 2 -42.5 34.5t-13.5 115.5l-3 126q-1 32 -18 65t-54 33h-53q-13 0 -16 9l-7 23
q0 1 -0.5 2t-0.5 2q0 9 18 9h52q61 0 98 -37t38 -104l3 -151q1 -53 10 -78t36 -28q16 -2 16 -13z" />
    <glyph glyph-name="asciitilde" unicode="~" horiz-adv-x="535" 
d="M470 303q0 -8 -7 -12q-4 -3 -15.5 -12t-16.5 -12.5l-15 -10.5t-17 -10t-16.5 -7t-19 -5.5t-20.5 -1.5q-33 0 -72 21q-48 26 -77 26q-20 0 -84 -33q-12 -7 -14 -7q-4 0 -8 7l-19 27q-4 5 -4 10q0 6 13 14q70 46 109 46q35 0 80 -21q59 -27 78 -27q8 0 20 4.5t20.5 9
t22.5 12.5t17 10q11 6 14 6t11 -8l16 -17q4 -4 4 -9z" />
    <glyph glyph-name="exclamdown" unicode="&#xa1;" horiz-adv-x="264" 
d="M199 442q0 -23 -15.5 -36t-37.5 -13q-21 0 -36 13.5t-15 35.5t15.5 36t35.5 14t36.5 -14t16.5 -36zM181 -191q0 -17 -13 -17h-43q-16 0 -16 15v1l8 515q0 17 16 17h24q16 0 16 -17l8 -513v-1z" />
    <glyph glyph-name="cent" unicode="&#xa2;" horiz-adv-x="540" 
d="M458 30q0 -7 -10 -11q-54 -26 -122 -28v-66q0 -9 -1 -12.5t-5 -6t-13 -2.5h-11q-12 0 -15 4.5t-3 16.5v69q-94 12 -141 78.5t-47 170.5q0 97 50 163.5t138 81.5v83q0 16 15 16h16q10 0 13.5 -3.5t3.5 -13.5v-78q70 -2 122 -30q9 -4 9 -11q0 -2 -2 -8l-6 -18
q-4 -11 -10 -11q-1 0 -7 2q-53 26 -106 27v-404q59 1 109 24q6 2 7 2q8 0 10 -9l5 -18q1 -3 1 -8zM278 43v395q-57 -15 -89.5 -66t-32.5 -127t29.5 -131.5t92.5 -70.5z" />
    <glyph glyph-name="sterling" unicode="&#xa3;" horiz-adv-x="540" 
d="M490 41v-27q0 -14 -17 -14h-382q-11 0 -14.5 3t-3.5 12v18q0 14 17 23q71 38 71 147v37h-53q-10 0 -12.5 3t-2.5 13v21q0 10 4 13.5t13 3.5h51v48h-53q-10 0 -12.5 3t-2.5 13v21q0 10 4 13.5t13 3.5h51v88q0 100 46 157t139 57q66 0 116 -21q12 -5 12 -15q0 -4 -1 -6
l-5 -22q-3 -11 -12 -11q-5 0 -7 1q-52 20 -102 20q-116 0 -116 -155v-93h166q14 0 14 -16v-24q0 -9 -3 -11.5t-13 -2.5h-165v-48h167q14 0 14 -16v-24q0 -9 -3 -11.5t-13 -2.5h-165v-59q0 -82 -56 -124v-3h298q18 0 18 -13z" />
    <glyph glyph-name="currency" unicode="&#xa4;" horiz-adv-x="540" 
d="M565 49q0 -7 -11 -13q-88 -45 -190 -45q-120 0 -187 67t-87 182h-85q-10 0 -12.5 3t-2.5 13v21q0 10 4 13.5t13 3.5h76q-2 32 -2 48h-66q-10 0 -12.5 3t-2.5 13v21q0 10 4 13.5t13 3.5h67q8 85 39.5 151t95 108.5t150.5 42.5q102 0 177 -47q10 -6 10 -13q0 -1 -2 -9
l-9 -24q-3 -8 -10 -8q-5 0 -9 3q-69 43 -151 43q-101 0 -153.5 -70t-61.5 -177h277q15 0 15 -11v-2q-1 -2 -1 -3l-5 -24q-2 -10 -4.5 -12t-11.5 -2h-272q0 -16 2 -48h258q15 0 15 -11l-1 -2v-3l-5 -24q-2 -10 -4.5 -12t-11.5 -2h-244q38 -194 207 -194q89 0 162 39q6 3 10 3
q6 0 9 -8l8 -21q2 -4 2 -10z" />
    <glyph glyph-name="yen" unicode="&#xa5;" horiz-adv-x="540" 
d="M509 679q0 -3 -5 -15l-175 -345h96q14 0 14 -16v-24q0 -10 -3 -12.5t-13 -2.5h-112v-47h114q14 0 14 -16v-24q0 -10 -3 -12.5t-13 -2.5h-112v-147q0 -9 -2.5 -12t-9.5 -3h-44q-13 0 -13 16v146h-106q-10 0 -12.5 3t-2.5 14v21q0 10 4 13.5t13 3.5h104v47h-106
q-10 0 -12.5 3t-2.5 14v21q0 10 4 13.5t13 3.5h85l-182 349q-3 6 -3 10q0 8 14 8h38q22 0 30 -16l163 -324h1l155 321q6 13 10.5 16t17.5 3h28q14 0 14 -7z" />
    <glyph glyph-name="brokenbar" unicode="&#xa6;" horiz-adv-x="189" 
d="M125 692v-231q0 -18 -16 -18h-29q-16 0 -16 18v229q0 18 13 18h32q9 0 12.5 -3t3.5 -13zM125 230v-231q0 -18 -16 -18h-29q-16 0 -16 18v229q0 18 13 18h32q9 0 12.5 -3t3.5 -13z" />
    <glyph glyph-name="section" unicode="&#xa7;" horiz-adv-x="464" 
d="M399 340q0 -70 -54 -110q48 -40 48 -94q0 -63 -48 -104t-128 -41q-71 0 -128 25q-9 3 -9 9q0 3 1 5l10 30q2 6 7 6q3 0 5 -1q63 -25 116 -25q49 0 80.5 24t31.5 64q0 31 -21.5 52t-62.5 39l-61 26q-103 44 -103 122q0 70 65 105q-59 39 -59 99q0 59 47 93t116 34
q57 0 117 -22q8 -3 8 -8l-1 -1v-2l-9 -27q-3 -8 -8 -8q-1 0 -7 2q-55 19 -99 19q-43 0 -70.5 -20.5t-27.5 -51.5q0 -28 17.5 -46.5t53.5 -34.5l70 -31q103 -46 103 -127zM337 332q0 31 -21.5 52t-62.5 39l-45 19q-27 -8 -42.5 -26t-15.5 -41q0 -28 17 -45.5t53 -34.5l70 -32
l5 -2q42 24 42 71z" />
    <glyph glyph-name="dieresis" unicode="&#xa8;" 
d="M288 653q0 -20 -14 -32t-32 -12t-33 12t-15 32q0 21 14.5 33t33.5 12t32.5 -12.5t13.5 -32.5zM116 653q0 -20 -14 -32t-32 -12t-33 12t-15 32q0 21 14.5 33t33.5 12t32.5 -12.5t13.5 -32.5z" />
    <glyph glyph-name="copyright" unicode="&#xa9;" horiz-adv-x="831" 
d="M775 346q0 -149 -104.5 -253.5t-254.5 -104.5t-255 104.5t-105 253.5t104.5 252.5t255.5 103.5t255 -103.5t104 -252.5zM724 345q0 128 -89.5 217.5t-218.5 89.5t-219 -89.5t-90 -217.5t90 -217.5t219 -89.5t218.5 89.5t89.5 217.5zM555 167q0 -5 -10 -11
q-54 -28 -114 -28q-90 0 -137 62t-47 154q0 88 50 153t137 65q62 0 110 -29q7 -4 7 -11q0 -2 -2 -8l-7 -14q-2 -6 -10 -6q-5 0 -7 2q-41 25 -87 25q-59 0 -98 -47q-40 -50 -40 -126q0 -74 34.5 -126.5t102.5 -52.5q50 0 94 23q5 3 8 3q6 0 9 -8l5 -13q2 -6 2 -7z" />
    <glyph glyph-name="ordfeminine" unicode="&#xaa;" horiz-adv-x="307" 
d="M262 589v-174q0 -7 -2 -9.5t-9 -2.5h-21q-10 0 -11.5 1.5t-2.5 9.5l-3 21q-50 -39 -90 -39q-39 0 -62 21.5t-23 59.5q0 41 29.5 65.5t65.5 32t80 7.5q0 10 -2 26q-3 27 -16 39.5t-44 12.5q-34 0 -76 -22q-7 -4 -10 -4t-8 9l-5 10q-2 6 -2 7q0 4 12 11q44 27 92 27
q108 0 108 -109zM212 471v78q-49 0 -76 -9q-45 -15 -45 -59q0 -45 48 -45q38 0 73 35z" />
    <glyph glyph-name="guillemotleft" unicode="&#xab;" horiz-adv-x="461" 
d="M384 374q0 -4 -2 -7l-85 -139l84 -144q2 -3 2 -8t-6 -9l-17 -10q-4 -3 -7 -3q-5 0 -11 9l-112 152q-5 6 -5 12q0 7 6 14l111 147q6 7 11 7q4 0 7 -2l20 -11q4 -2 4 -8zM214 373q0 -2 -2 -6l-85 -139l84 -144q2 -4 2 -7q0 -6 -7 -10l-17 -10q-5 -3 -7 -3q-5 0 -11 9
l-112 152q-4 5 -4 12q0 8 5 14l111 147q6 7 11 7q4 0 7 -2l20 -11q5 -2 5 -9z" />
    <glyph glyph-name="logicalnot" unicode="&#xac;" horiz-adv-x="510" 
d="M454 395v-166q0 -13 -3 -16.5t-14 -3.5h-20q-11 0 -15 3.5t-4 13.5v130h-323q-12 0 -16 3t-4 12v26q0 9 3.5 12t13.5 3h362q13 0 16.5 -3t3.5 -14z" />
    <glyph glyph-name="registered" unicode="&#xae;" horiz-adv-x="831" 
d="M775 346q0 -149 -104.5 -253.5t-254.5 -104.5t-255 104.5t-105 253.5t104.5 252.5t255.5 103.5t255 -103.5t104 -252.5zM724 345q0 128 -89.5 217.5t-218.5 89.5t-219 -89.5t-90 -217.5t90 -217.5t219 -89.5t218.5 89.5t89.5 217.5zM571 143q0 -8 -11 -8h-30
q-12 0 -19 12l-103 163h-53v-160q0 -15 -13 -15h-23q-13 0 -13 15v387q0 15 13 15h83q145 0 145 -120q0 -42 -24.5 -71.5t-61.5 -41.5l107 -167q3 -6 3 -9zM495 432q0 42 -25 60.5t-76 18.5h-39v-160h47q41 0 67 21t26 60z" />
    <glyph glyph-name="macron" unicode="&#xaf;" 
d="M282 678v-17q0 -12 -5.5 -16.5t-23.5 -4.5h-200q-16 0 -21 4.5t-5 16.5v17q0 11 5 15.5t21 4.5h200q18 0 23.5 -4t5.5 -16z" />
    <glyph glyph-name="macron" unicode="&#x2c9;" 
d="M282 678v-17q0 -12 -5.5 -16.5t-23.5 -4.5h-200q-16 0 -21 4.5t-5 16.5v17q0 11 5 15.5t21 4.5h200q18 0 23.5 -4t5.5 -16z" />
    <glyph glyph-name="degree" unicode="&#xb0;" horiz-adv-x="286" 
d="M236 605q0 -38 -27.5 -65.5t-65.5 -27.5t-65.5 27.5t-27.5 65.5t27.5 65.5t65.5 27.5t65.5 -27.5t27.5 -65.5zM187 605q0 18 -13 31t-31 13t-31.5 -13t-13.5 -31t13.5 -31t31.5 -13t31 13t13 31z" />
    <glyph glyph-name="plusminus" unicode="&#xb1;" horiz-adv-x="500" 
d="M456 359v-20q0 -11 -3.5 -15t-13.5 -4h-160v-144q0 -12 -3 -16t-12 -4h-26q-9 0 -12 3.5t-3 13.5v147h-158q-12 0 -16 3t-4 12v26q0 9 3.5 12t13.5 3h161v145q0 13 3 16.5t14 3.5h20q11 0 15 -3.5t4 -13.5v-148h157q13 0 16.5 -3t3.5 -14zM426 58v-20q0 -11 -3.5 -15
t-13.5 -4h-314q-12 0 -16 3t-4 12v26q0 9 3.5 12t13.5 3h314q13 0 16.5 -3t3.5 -14z" />
    <glyph glyph-name="twosuperior" unicode="&#xb2;" horiz-adv-x="330" 
d="M288 372v-21q0 -11 -13 -11h-193q-11 0 -11 12v16q0 9 6 15q7 8 43.5 45.5t55.5 59.5t38.5 56t19.5 59t-16 40.5t-42 15.5q-33 0 -68 -20q-3 -2 -8 -2q-6 0 -9 7l-8 17q-2 4 -2 6q0 4 9 10q41 26 91 26q43 0 74 -25t31 -70q0 -39 -20 -75.5t-70 -91.5q-18 -20 -56 -58
h134q9 0 11.5 -2t2.5 -9z" />
    <glyph glyph-name="threesuperior" unicode="&#xb3;" horiz-adv-x="330" 
d="M275 449q0 -49 -34.5 -80t-83.5 -31q-48 0 -79 15q-12 6 -12 12q0 4 1 6l7 19q2 5 8 5q1 0 7 -2q31 -14 64 -14q32 0 51.5 18.5t19.5 49.5q0 32 -21 49.5t-56 17.5h-17q-14 0 -14 13v15q0 12 13 12h14q68 0 68 59q0 51 -59 51q-27 0 -57 -16q-3 -2 -7 -2q-6 0 -9 6l-8 17
q-1 2 -1 4q0 6 7 10q37 22 82 22q42 0 73 -24.5t31 -65.5q0 -51 -46 -78q26 -11 42 -35t16 -53z" />
    <glyph glyph-name="acute" unicode="&#xb4;" 
d="M255 651q0 -7 -9 -12l-158 -74q-6 -2 -8 -2q-8 0 -12 7l-9 14q-3 6 -3 9q0 7 7 11l147 90q5 4 12 4t13 -9l17 -27q3 -6 3 -11z" />
    <glyph glyph-name="mu" unicode="&#xb5;" horiz-adv-x="513" 
d="M446 464v-446q0 -18 -16 -18h-31q-16 0 -16 18l-1 31q-63 -63 -147 -63q-76 0 -104 34v-169q0 -17 -16 -17h-32q-16 0 -16 17v613q0 18 16 18h32q16 0 16 -18v-287q0 -77 29 -110q27 -30 82 -30q72 0 140 63v364q0 18 16 18h32q16 0 16 -18z" />
    <glyph glyph-name="mu" unicode="&#x3bc;" horiz-adv-x="513" 
d="M446 464v-446q0 -18 -16 -18h-31q-16 0 -16 18l-1 31q-63 -63 -147 -63q-76 0 -104 34v-169q0 -17 -16 -17h-32q-16 0 -16 17v613q0 18 16 18h32q16 0 16 -18v-287q0 -77 29 -110q27 -30 82 -30q72 0 140 63v364q0 18 16 18h32q16 0 16 -18z" />
    <glyph glyph-name="paragraph" unicode="&#xb6;" horiz-adv-x="510" 
d="M423 671v-794q0 -18 -16 -18h-29q-16 0 -16 18v762h-90v-762q0 -18 -16 -18h-28q-16 0 -16 18v499q-69 1 -115 46t-46 110q0 64 44.5 109.5t109.5 45.5h202q9 0 12.5 -3t3.5 -13z" />
    <glyph glyph-name="periodcentered" unicode="&#xb7;" horiz-adv-x="205" 
d="M160 288q0 -22 -16 -35.5t-36 -13.5t-36.5 13.5t-16.5 35.5q0 23 15.5 36.5t37.5 13.5q21 0 36.5 -14t15.5 -36z" />
    <glyph glyph-name="periodcentered" unicode="&#x2219;" horiz-adv-x="205" 
d="M160 288q0 -22 -16 -35.5t-36 -13.5t-36.5 13.5t-16.5 35.5q0 23 15.5 36.5t37.5 13.5q21 0 36.5 -14t15.5 -36z" />
    <glyph glyph-name="cedilla" unicode="&#xb8;" 
d="M250 -121q0 -33 -23 -55t-69 -22q-30 0 -61 12q-14 6 -14 12q0 3 1 5l4 12q3 8 8 8q1 0 9 -2q27 -10 53 -10q17 0 30.5 9t14.5 26v4q0 36 -53 36h-16q-25 0 -25 23q0 9 1 14l5 49h43l-3 -50h8q36 0 61.5 -16.5t25.5 -54.5z" />
    <glyph glyph-name="onesuperior" unicode="&#xb9;" horiz-adv-x="330" 
d="M198 691v-329q0 -6 -0.5 -8t-3 -4t-8.5 -2h-23q-12 0 -12 14v286l-59 -37q-5 -4 -9 -4q-3 0 -6 4l-13 18q-3 5 -3 7q0 6 8 10l82 54q9 5 20 5h14q13 0 13 -14z" />
    <glyph glyph-name="ordmasculine" unicode="&#xba;" horiz-adv-x="334" 
d="M299 545q0 -65 -35.5 -108.5t-98.5 -43.5q-65 0 -97.5 42.5t-32.5 109.5q0 65 35.5 109t98.5 44q65 0 97.5 -42.5t32.5 -110.5zM254 544q0 49 -21 84.5t-65 35.5q-46 0 -67 -35t-21 -83q0 -51 20 -85.5t65 -34.5t67 34t22 84z" />
    <glyph glyph-name="guillemotright" unicode="&#xbb;" horiz-adv-x="461" 
d="M406 223q0 -8 -5 -14l-111 -147q-6 -7 -11 -7q-4 0 -7 2l-20 11q-5 2 -5 9q0 2 2 6l86 140l-84 143q-2 3 -2 8t6 9l17 10q4 3 7 3q5 0 11 -9l112 -152q4 -5 4 -12zM236 223q0 -8 -5 -14l-112 -147q-6 -7 -10 -7t-7 2l-20 11q-5 2 -5 9q0 2 2 6l85 140l-84 143q-2 4 -2 7
q0 6 7 10l17 10q4 3 7 3q4 0 10 -9l112 -152q5 -6 5 -12z" />
    <glyph glyph-name="onequarter" unicode="&#xbc;" horiz-adv-x="750" 
d="M680 196v-191q0 -5 -0.5 -7t-2.5 -3.5t-6 -1.5h-28q-7 0 -8.5 2t-1.5 10v71h-162q-8 0 -10 2.5t-2 10.5v9q0 12 5 24l96 216q4 13 16 13h21q14 0 14 -8q0 -4 -3 -10l-94 -214h119v75q0 15 10 15h26q7 0 9 -2.5t2 -10.5zM611 708q0 -7 -6 -16l-428 -704q-6 -10 -9.5 -13
t-13.5 -3h-33q-11 0 -11 11q0 5 3 9l429 705q7 12 13 16t19 4h24q13 0 13 -9zM194 691v-329q0 -6 -0.5 -8t-3 -4t-8.5 -2h-23q-12 0 -12 14v286l-59 -37q-5 -4 -9 -4q-3 0 -6 4l-13 18q-3 5 -3 7q0 6 8 10l82 54q9 5 20 5h14q13 0 13 -14z" />
    <glyph glyph-name="onehalf" unicode="&#xbd;" horiz-adv-x="750" 
d="M676 25v-21q0 -11 -13 -11h-193q-11 0 -11 12v16q0 8 7 15q6 7 43 45t55.5 59.5t38 56t19.5 59.5t-16 40.5t-42 15.5q-33 0 -68 -20q-3 -2 -8 -2q-6 0 -9 7l-8 17q-1 2 -1 6q0 5 8 10q41 26 91 26q43 0 74 -25t31 -70q0 -39 -20 -75.5t-70 -91.5q-18 -20 -56 -58h134
q9 0 11.5 -2t2.5 -9zM598 708q0 -7 -6 -16l-428 -704q-6 -10 -9.5 -13t-13.5 -3h-33q-11 0 -11 11q0 5 3 9l429 705q7 12 13 16t19 4h24q13 0 13 -9zM181 691v-329q0 -6 -0.5 -8t-3 -4t-8.5 -2h-23q-12 0 -12 14v286l-59 -37q-5 -4 -9 -4q-3 0 -6 4l-13 18q-3 5 -3 7
q0 6 8 10l82 54q9 5 20 5h14q13 0 13 -14z" />
    <glyph glyph-name="threequarters" unicode="&#xbe;" horiz-adv-x="750" 
d="M689 196v-191q0 -5 -0.5 -7t-2.5 -3.5t-6 -1.5h-28q-7 0 -8.5 2t-1.5 10v71h-162q-8 0 -10 2.5t-2 10.5v9q0 12 5 24l96 216q4 13 16 13h21q14 0 14 -8q0 -4 -3 -10l-94 -214h119v75q0 15 10 15h26q7 0 9 -2.5t2 -10.5zM620 708q0 -7 -6 -16l-428 -704q-6 -10 -9.5 -13
t-13.5 -3h-33q-11 0 -11 11q0 5 3 9l429 705q7 12 13 16t19 4h24q13 0 13 -9zM266 449q0 -49 -34.5 -80t-83.5 -31q-48 0 -79 15q-12 6 -12 12q0 4 1 6l7 19q2 5 8 5q1 0 7 -2q31 -14 64 -14q32 0 51.5 18.5t19.5 49.5q0 32 -21 49.5t-56 17.5h-17q-14 0 -14 13v15
q0 12 13 12h14q68 0 68 59q0 51 -59 51q-27 0 -57 -16q-3 -2 -7 -2q-6 0 -9 6l-8 17q-1 2 -1 4q0 6 7 10q37 22 82 22q42 0 73 -24.5t31 -65.5q0 -51 -46 -78q26 -11 42 -35t16 -53z" />
    <glyph glyph-name="questiondown" unicode="&#xbf;" horiz-adv-x="407" 
d="M308 442q0 -23 -15 -36t-37 -13q-21 0 -37 13.5t-16 35.5t16.5 36t36.5 14t36 -14t16 -36zM362 -178q0 -8 -7 -11q-59 -30 -129 -30t-119.5 42.5t-49.5 110.5q0 75 58 139l73 81q18 19 26.5 31.5t16 37.5t7.5 58q0 8 0.5 11.5t2.5 5t7 1.5h27q5 0 7.5 -1.5t4 -4.5t2.5 -9
q3 -22 3 -46q0 -23 -12 -51t-30 -47l-72 -78q-57 -63 -57 -116q0 -61 35 -87.5t84 -26.5q45 0 94 22q6 2 8 2q8 0 11 -9l7 -18q2 -6 2 -7z" />
    <glyph glyph-name="Agrave" unicode="&#xc0;" horiz-adv-x="584" 
d="M517 0q-12 0 -15.5 2.5t-7.5 12.5l-75 209h-263l-78 -210q-4 -9 -7.5 -11.5t-13.5 -2.5h-43q-11 0 -5 17l255 660q3 10 13 10h36q8 0 12 -9l249 -662q6 -16 -10 -16h-47zM175 276h226l-110 310zM391 780q0 -3 -3 -9l-9 -14q-4 -7 -12 -7q-2 0 -8 2l-158 74q-9 4 -9 12
q0 5 3 11l17 27q6 9 13 9t12 -4l147 -90q7 -4 7 -11z" />
    <glyph glyph-name="Aacute" unicode="&#xc1;" horiz-adv-x="584" 
d="M517 0q-12 0 -15.5 2.5t-7.5 12.5l-75 209h-263l-78 -210q-4 -9 -7.5 -11.5t-13.5 -2.5h-43q-11 0 -5 17l255 660q3 10 13 10h36q8 0 12 -9l249 -662q6 -16 -10 -16h-47zM175 276h226l-110 310zM391 840q0 -8 -9 -12l-158 -74q-6 -2 -8 -2q-8 0 -12 7l-9 14q-3 6 -3 9
q0 7 7 11l147 90q5 4 12 4t13 -9l17 -27q3 -6 3 -11z" />
    <glyph glyph-name="Acircumflex" unicode="&#xc2;" horiz-adv-x="584" 
d="M517 0q-12 0 -15.5 2.5t-7.5 12.5l-75 209h-263l-78 -210q-4 -9 -7.5 -11.5t-13.5 -2.5h-43q-11 0 -5 17l255 660q3 10 13 10h36q8 0 12 -9l249 -662q6 -16 -10 -16h-47zM175 276h226l-110 310zM436 773q0 -5 -4 -9l-9 -10q-6 -6 -10 -6q-5 0 -10 4l-111 83l-111 -83
q-5 -4 -10 -4t-10 6l-8 10q-5 7 -5 11t6 10l118 107q8 6 14 6h12q6 0 14 -6l118 -107q6 -5 6 -12z" />
    <glyph glyph-name="Atilde" unicode="&#xc3;" horiz-adv-x="584" 
d="M517 0q-12 0 -15.5 2.5t-7.5 12.5l-75 209h-263l-78 -210q-4 -9 -7.5 -11.5t-13.5 -2.5h-43q-11 0 -5 17l255 660q3 10 13 10h36q8 0 12 -9l249 -662q6 -16 -10 -16h-47zM175 276h226l-110 310zM453 819q0 -8 -8 -14q-56 -43 -104 -43q-20 0 -53 17.5t-50 17.5
q-24 0 -63 -24q-11 -6 -16 -6q-7 0 -11 10l-8 18q-4 10 -4 11q0 7 14 16q52 32 90 32q22 0 59 -17.5t50 -17.5q21 0 62 27q9 5 15 5q9 0 14 -9l8 -11q5 -8 5 -12z" />
    <glyph glyph-name="Adieresis" unicode="&#xc4;" horiz-adv-x="584" 
d="M517 0q-12 0 -15.5 2.5t-7.5 12.5l-75 209h-263l-78 -210q-4 -9 -7.5 -11.5t-13.5 -2.5h-43q-11 0 -5 17l255 660q3 10 13 10h36q8 0 12 -9l249 -662q6 -16 -10 -16h-47zM175 276h226l-110 310zM425 814q0 -20 -14 -32t-32 -12t-33 12t-15 32q0 21 14.5 33t33.5 12
t32.5 -12.5t13.5 -32.5zM253 814q0 -20 -14 -32t-32 -12t-33 12t-15 32q0 21 14.5 33t33.5 12t32.5 -12.5t13.5 -32.5z" />
    <glyph glyph-name="Aring" unicode="&#xc5;" horiz-adv-x="584" 
d="M517 0q-12 0 -15.5 2.5t-7.5 12.5l-75 209h-263l-78 -210q-4 -9 -7.5 -11.5t-13.5 -2.5h-43q-11 0 -5 17l255 660q3 10 13 10h36q8 0 12 -9l249 -662q6 -16 -10 -16h-47zM175 276h226l-110 310zM372 830q0 -32 -23.5 -55.5t-56.5 -23.5q-32 0 -56.5 23.5t-24.5 55.5
t24.5 56t56.5 24q33 0 56.5 -24t23.5 -56zM324 830q0 14 -9 23t-23 9t-23.5 -9.5t-9.5 -22.5t9.5 -22.5t23.5 -9.5t23 9t9 23z" />
    <glyph glyph-name="AE" unicode="&#xc6;" horiz-adv-x="850" 
d="M807 41v-27q0 -14 -17 -14h-333q-11 0 -14.5 3.5t-3.5 14.5v207h-225l-138 -211q-4 -7 -5.5 -9t-5.5 -3.5t-10 -1.5h-41q-8 0 -8 8q0 3 3 9l431 656q10 14 27 14h324q14 0 14 -12v-4l-3 -25q-1 -13 -23 -13h-271v-242h239q17 0 17 -15v-24q0 -15 -16 -15h-240v-283h282
q10 0 13.5 -2.5t3.5 -10.5zM244 277h195v299z" />
    <glyph glyph-name="Ccedilla" unicode="&#xc7;" horiz-adv-x="579" 
d="M556 48q0 -7 -12 -13q-89 -46 -189 -44h-9l-2 -41h8q36 0 61.5 -16.5t25.5 -54.5q0 -33 -23 -55t-69 -22q-29 0 -61 12q-14 6 -14 12q0 3 1 5l4 12q3 8 8 8q1 0 9 -2q27 -10 53 -10q17 0 30.5 9t14.5 26v4q0 36 -53 36h-16q-25 0 -25 23q0 9 1 14l4 44
q-123 18 -187.5 115t-64.5 234q0 145 83 249.5t226 104.5q105 0 180 -46q11 -6 11 -13q0 -5 -3 -9l-13 -24q-4 -8 -10 -8q-5 0 -9 3q-68 42 -151 42q-104 0 -170 -80q-68 -83 -68 -214q0 -58 13.5 -110t40.5 -96.5t74 -71t109 -26.5q89 0 162 39q6 3 10 3q6 0 9 -8l9 -21
q2 -4 2 -10z" />
    <glyph glyph-name="Egrave" unicode="&#xc8;" horiz-adv-x="489" 
d="M446 41v-27q0 -14 -17 -14h-334q-11 0 -14.5 3.5t-3.5 14.5v652q0 10 3.5 13.5t13.5 3.5h335q9 0 12 -3.5t2 -12.5l-3 -25q-1 -13 -23 -13h-270v-242h238q17 0 17 -15v-24q0 -15 -16 -15h-239v-283h281q18 0 18 -13zM344 781q0 -3 -3 -9l-9 -14q-4 -7 -12 -7q-2 0 -8 2
l-158 74q-9 5 -9 12q0 5 3 11l17 27q6 9 13 9t12 -4l147 -90q7 -4 7 -11z" />
    <glyph glyph-name="Eacute" unicode="&#xc9;" horiz-adv-x="489" 
d="M446 41v-27q0 -14 -17 -14h-334q-11 0 -14.5 3.5t-3.5 14.5v652q0 10 3.5 13.5t13.5 3.5h335q9 0 12 -3.5t2 -12.5l-3 -25q-1 -13 -23 -13h-270v-242h238q17 0 17 -15v-24q0 -15 -16 -15h-239v-283h281q18 0 18 -13zM364 840q0 -8 -9 -12l-158 -74q-6 -2 -8 -2
q-8 0 -12 7l-9 14q-3 6 -3 9q0 7 7 11l147 90q5 4 12 4t13 -9l17 -27q3 -6 3 -11z" />
    <glyph glyph-name="Ecircumflex" unicode="&#xca;" horiz-adv-x="489" 
d="M446 41v-27q0 -14 -17 -14h-334q-11 0 -14.5 3.5t-3.5 14.5v652q0 10 3.5 13.5t13.5 3.5h335q9 0 12 -3.5t2 -12.5l-3 -25q-1 -13 -23 -13h-270v-242h238q17 0 17 -15v-24q0 -15 -16 -15h-239v-283h281q18 0 18 -13zM407 773q0 -5 -4 -9l-9 -10q-6 -6 -10 -6q-5 0 -10 4
l-111 83l-111 -83q-5 -4 -10 -4q-6 0 -10 6l-8 10q-5 7 -5 11t6 10l118 107q8 6 14 6h12q6 0 14 -6l118 -107q6 -5 6 -12z" />
    <glyph glyph-name="Edieresis" unicode="&#xcb;" horiz-adv-x="489" 
d="M446 41v-27q0 -14 -17 -14h-334q-11 0 -14.5 3.5t-3.5 14.5v652q0 10 3.5 13.5t13.5 3.5h335q9 0 12 -3.5t2 -12.5l-3 -25q-1 -13 -23 -13h-270v-242h238q17 0 17 -15v-24q0 -15 -16 -15h-239v-283h281q18 0 18 -13zM397 813q0 -20 -14 -32t-32 -12t-33 12t-15 32
q0 21 14.5 33t33.5 12t32.5 -12.5t13.5 -32.5zM225 813q0 -20 -14 -32t-32 -12t-33 12t-15 32q0 21 14.5 33t33.5 12t32.5 -12.5t13.5 -32.5z" />
    <glyph glyph-name="Igrave" unicode="&#xcc;" horiz-adv-x="349" 
d="M284 39v-25q0 -9 -2 -11.5t-9 -2.5h-198q-7 0 -9.5 2t-2.5 10v28q0 6 2 8t10 2h64v588h-67q-8 0 -10 2t-2 9v26q0 7 2 9.5t9 2.5h199q14 0 14 -11v-25q0 -9 -2 -11t-12 -2h-64v-588h64q14 0 14 -11zM272 778q0 -3 -3 -9l-9 -14q-4 -7 -12 -7q-2 0 -8 2l-158 74
q-9 4 -9 12q0 5 3 11l17 27q6 9 13 9t12 -4l147 -90q7 -4 7 -11z" />
    <glyph glyph-name="Iacute" unicode="&#xcd;" horiz-adv-x="349" 
d="M284 39v-25q0 -9 -2 -11.5t-9 -2.5h-198q-7 0 -9.5 2t-2.5 10v28q0 6 2 8t10 2h64v588h-67q-8 0 -10 2t-2 9v26q0 7 2 9.5t9 2.5h199q14 0 14 -11v-25q0 -9 -2 -11t-12 -2h-64v-588h64q14 0 14 -11zM281 840q0 -8 -9 -12l-158 -74q-6 -2 -8 -2q-8 0 -12 7l-9 14
q-3 6 -3 9q0 7 7 11l147 90q5 4 12 4t13 -9l17 -27q3 -6 3 -11z" />
    <glyph glyph-name="Icircumflex" unicode="&#xce;" horiz-adv-x="349" 
d="M284 39v-25q0 -9 -2 -11.5t-9 -2.5h-198q-7 0 -9.5 2t-2.5 10v28q0 6 2 8t10 2h64v588h-67q-8 0 -10 2t-2 9v26q0 7 2 9.5t9 2.5h199q14 0 14 -11v-25q0 -9 -2 -11t-12 -2h-64v-588h64q14 0 14 -11zM318 773q0 -5 -4 -9l-9 -10q-6 -6 -10 -6q-5 0 -10 4l-111 83l-111 -83
q-5 -4 -10 -4t-10 6l-8 10q-5 7 -5 11t6 10l118 107q8 6 14 6h12q6 0 14 -6l118 -107q6 -5 6 -12z" />
    <glyph glyph-name="Idieresis" unicode="&#xcf;" horiz-adv-x="349" 
d="M284 39v-25q0 -9 -2 -11.5t-9 -2.5h-198q-7 0 -9.5 2t-2.5 10v28q0 6 2 8t10 2h64v588h-67q-8 0 -10 2t-2 9v26q0 7 2 9.5t9 2.5h199q14 0 14 -11v-25q0 -9 -2 -11t-12 -2h-64v-588h64q14 0 14 -11zM306 810q0 -20 -14 -32t-32 -12t-33 12t-15 32q0 21 14.5 33t33.5 12
t32.5 -12.5t13.5 -32.5zM134 810q0 -20 -14 -32t-32 -12t-33 12t-15 32q0 21 14.5 33t33.5 12t32.5 -12.5t13.5 -32.5z" />
    <glyph glyph-name="Eth" unicode="&#xd0;" horiz-adv-x="655" 
d="M606 339q0 -174 -99 -267q-76 -72 -245 -72h-160q-14 0 -18.5 4.5t-4.5 16.5v284h-59q-12 0 -16 3t-4 12v26q0 9 3.5 12t13.5 3h62v299q0 14 6.5 20.5t21.5 6.5h112q104 0 156.5 -10t97.5 -39q63 -41 98 -119t35 -180zM531 340q0 77 -23 141t-66 100q-63 52 -188 52h-105
v-272h112q13 0 16.5 -3t3.5 -14v-20q0 -11 -3.5 -15t-13.5 -4h-115v-251h89q82 0 131 11.5t83 46.5q79 79 79 228z" />
    <glyph glyph-name="Ntilde" unicode="&#xd1;" horiz-adv-x="672" 
d="M595 670v-652q0 -18 -13 -18h-32q-13 0 -26 18l-382 542h-2v-542q0 -18 -16 -18h-31q-16 0 -16 18v651q0 18 16 18h25q14 0 22 -13l391 -556h2v551q0 18 15 18h31q16 0 16 -17zM498 822q0 -8 -8 -14q-56 -43 -104 -43q-20 0 -53 17.5t-50 17.5q-24 0 -63 -24
q-11 -6 -16 -6q-7 0 -11 10l-8 18q-4 10 -4 11q0 7 14 16q52 32 90 32q21 0 59 -17.5t50 -17.5q22 0 62 27q9 5 15 5q9 0 14 -9l8 -11q5 -8 5 -12z" />
    <glyph glyph-name="Ograve" unicode="&#xd2;" horiz-adv-x="662" 
d="M617 348q0 -166 -80.5 -261.5t-204.5 -95.5q-128 0 -201.5 93t-73.5 257q0 162 80 259.5t205 97.5q130 0 202.5 -95t72.5 -255zM542 345q0 138 -52.5 217t-149.5 79q-93 0 -150.5 -84t-57.5 -213q0 -137 54 -217t149 -80q92 0 149.5 82.5t57.5 215.5zM434 782q0 -3 -3 -9
l-9 -14q-4 -7 -12 -7q-2 0 -8 2l-158 74q-9 4 -9 12q0 5 3 11l17 27q6 9 13 9t12 -4l147 -90q7 -4 7 -11z" />
    <glyph glyph-name="Oacute" unicode="&#xd3;" horiz-adv-x="662" 
d="M617 348q0 -166 -80.5 -261.5t-204.5 -95.5q-128 0 -201.5 93t-73.5 257q0 162 80 259.5t205 97.5q130 0 202.5 -95t72.5 -255zM542 345q0 138 -52.5 217t-149.5 79q-93 0 -150.5 -84t-57.5 -213q0 -137 54 -217t149 -80q92 0 149.5 82.5t57.5 215.5zM469 840
q0 -8 -9 -12l-158 -74q-6 -2 -8 -2q-8 0 -12 7l-9 14q-3 6 -3 9q0 7 7 11l147 90q5 4 12 4t13 -9l17 -27q3 -6 3 -11z" />
    <glyph glyph-name="Ocircumflex" unicode="&#xd4;" horiz-adv-x="662" 
d="M617 348q0 -166 -80.5 -261.5t-204.5 -95.5q-128 0 -201.5 93t-73.5 257q0 162 80 259.5t205 97.5q130 0 202.5 -95t72.5 -255zM542 345q0 138 -52.5 217t-149.5 79q-93 0 -150.5 -84t-57.5 -213q0 -137 54 -217t149 -80q92 0 149.5 82.5t57.5 215.5zM482 776q0 -5 -4 -9
l-9 -10q-6 -6 -10 -6q-5 0 -10 4l-111 83l-111 -83q-5 -4 -10 -4t-10 6l-8 10q-5 7 -5 11t6 10l118 107q8 6 14 6h12q6 0 14 -6l118 -107q6 -4 6 -12z" />
    <glyph glyph-name="Otilde" unicode="&#xd5;" horiz-adv-x="662" 
d="M617 348q0 -166 -80.5 -261.5t-204.5 -95.5q-128 0 -201.5 93t-73.5 257q0 162 80 259.5t205 97.5q130 0 202.5 -95t72.5 -255zM542 345q0 138 -52.5 217t-149.5 79q-93 0 -150.5 -84t-57.5 -213q0 -137 54 -217t149 -80q92 0 149.5 82.5t57.5 215.5zM496 820
q0 -8 -8 -14q-56 -43 -104 -43q-20 0 -53 17.5t-50 17.5q-24 0 -63 -24q-11 -6 -16 -6q-7 0 -11 10l-8 18q-4 10 -4 11q0 7 14 16q52 32 90 32q21 0 59 -17.5t50 -17.5q21 0 62 27q9 5 15 5q9 0 14 -9l8 -11q5 -8 5 -12z" />
    <glyph glyph-name="Odieresis" unicode="&#xd6;" horiz-adv-x="662" 
d="M617 348q0 -166 -80.5 -261.5t-204.5 -95.5q-128 0 -201.5 93t-73.5 257q0 162 80 259.5t205 97.5q130 0 202.5 -95t72.5 -255zM542 345q0 138 -52.5 217t-149.5 79q-93 0 -150.5 -84t-57.5 -213q0 -137 54 -217t149 -80q92 0 149.5 82.5t57.5 215.5zM471 815
q0 -20 -14 -32t-32 -12t-33 12t-15 32q0 21 14.5 33t33.5 12t32.5 -12.5t13.5 -32.5zM299 815q0 -20 -14 -32t-32 -12t-33 12t-15 32q0 21 14.5 33t33.5 12t32.5 -12.5t13.5 -32.5z" />
    <glyph glyph-name="multiply" unicode="&#xd7;" horiz-adv-x="500" 
d="M411 136q0 -2 -6 -10l-18 -19q-6 -6 -11 -6q-4 0 -12 8l-113 113l-112 -112q-9 -9 -15 -9q-4 0 -10 6l-18 18q-6 6 -6 10q0 6 7 13l114 113l-112 112q-9 9 -9 15q0 4 7 11l14 15q7 8 14 8q5 0 12 -7l114 -114l111 111q10 10 14 10t12 -8l14 -14q5 -5 5 -12l-3 -13
l-114 -114l111 -111q10 -10 10 -14z" />
    <glyph glyph-name="Oslash" unicode="&#xd8;" horiz-adv-x="666" 
d="M613 348q0 -166 -80.5 -261.5t-204.5 -95.5q-88 0 -149 42l-36 -59q-9 -16 -17 -16q-2 0 -4.5 1.5t-3.5 1.5l-18 9q-11 6 -11 12q0 2 2 6l49 79q-87 93 -87 274q0 161 80 258.5t205 97.5q94 0 161 -53l41 66q11 18 17 18q2 0 6 -2l18 -11q12 -7 12 -12q0 -2 -2 -6
l-55 -90q77 -95 77 -259zM179 129l286 460q-52 55 -129 55q-93 0 -150.5 -85.5t-57.5 -214.5q0 -135 51 -215zM538 345q0 120 -42 199l-283 -456q48 -45 118 -45q92 0 149.5 84.5t57.5 217.5z" />
    <glyph glyph-name="Ugrave" unicode="&#xd9;" horiz-adv-x="681" 
d="M604 669v-372q0 -148 -62 -225q-65 -81 -199 -81q-160 0 -220 93q-46 71 -46 222v363q0 18 16 18h38q16 0 16 -18v-355q0 -112 21 -164q39 -100 174 -100q130 0 170 97q23 57 23 168v354q0 18 16 18h37q16 0 16 -18zM414 774q0 -3 -3 -9l-9 -14q-4 -7 -12 -7q-2 0 -8 2
l-158 74q-9 4 -9 12q0 5 3 11l17 27q6 9 13 9t12 -4l147 -90q7 -4 7 -11z" />
    <glyph glyph-name="Uacute" unicode="&#xda;" horiz-adv-x="681" 
d="M604 669v-372q0 -148 -62 -225q-65 -81 -199 -81q-160 0 -220 93q-46 71 -46 222v363q0 18 16 18h38q16 0 16 -18v-355q0 -112 21 -164q39 -100 174 -100q130 0 170 97q23 57 23 168v354q0 18 16 18h37q16 0 16 -18zM486 839q0 -7 -9 -12l-158 -74q-6 -2 -8 -2
q-8 0 -12 7l-9 14q-3 6 -3 9q0 7 7 11l147 90q5 4 12 4t13 -9l17 -27q3 -6 3 -11z" />
    <glyph glyph-name="Ucircumflex" unicode="&#xdb;" horiz-adv-x="681" 
d="M604 669v-372q0 -148 -62 -225q-65 -81 -199 -81q-160 0 -220 93q-46 71 -46 222v363q0 18 16 18h38q16 0 16 -18v-355q0 -112 21 -164q39 -100 174 -100q130 0 170 97q23 57 23 168v354q0 18 16 18h37q16 0 16 -18zM484 773q0 -5 -4 -9l-9 -10q-6 -6 -10 -6q-5 0 -10 4
l-111 83l-111 -83q-5 -4 -10 -4q-6 0 -10 6l-8 10q-5 7 -5 11t6 10l118 107q8 6 14 6h12q6 0 14 -6l118 -107q6 -5 6 -12z" />
    <glyph glyph-name="Udieresis" unicode="&#xdc;" horiz-adv-x="681" 
d="M604 669v-372q0 -148 -62 -225q-65 -81 -199 -81q-160 0 -220 93q-46 71 -46 222v363q0 18 16 18h38q16 0 16 -18v-355q0 -112 21 -164q39 -100 174 -100q130 0 170 97q23 57 23 168v354q0 18 16 18h37q16 0 16 -18zM473 813q0 -20 -14 -32t-32 -12t-33 12t-15 32
q0 21 14.5 33t33.5 12t32.5 -12.5t13.5 -32.5zM301 813q0 -20 -14 -32t-32 -12t-33 12t-15 32q0 21 14.5 33t33.5 12t32.5 -12.5t13.5 -32.5z" />
    <glyph glyph-name="Yacute" unicode="&#xdd;" horiz-adv-x="522" 
d="M505 680q0 -3 -5 -15l-200 -401v-249q0 -15 -13 -15h-43q-13 0 -13 16v247l-212 406q-3 6 -3 9q0 9 15 9h33q22 0 30 -16l176 -348h1l168 345q6 13 10.5 16t17.5 3h24q14 0 14 -7zM360 839q0 -7 -9 -12l-158 -74q-6 -2 -8 -2q-8 0 -12 7l-9 14q-3 6 -3 9q0 7 7 11l147 90
q5 4 12 4t13 -9l17 -27q3 -6 3 -11z" />
    <glyph glyph-name="Thorn" unicode="&#xde;" horiz-adv-x="516" 
d="M474 357q0 -103 -55 -165t-158 -62q-40 0 -78 16t-61 46v-176q0 -16 -19 -16h-29q-16 0 -16 18v658q0 6 2 9t4.5 4t9.5 2l25 4h5q15 0 15 -18v-160q25 30 67.5 48.5t86.5 18.5q93 0 147 -55t54 -172zM408 357q0 177 -145 177q-40 0 -80 -21t-61 -53v-198
q17 -35 55.5 -58.5t79.5 -23.5q151 0 151 177z" />
    <glyph glyph-name="germandbls" unicode="&#xdf;" horiz-adv-x="541" 
d="M500 202q0 -101 -64.5 -156t-153.5 -55h-7q-34 0 -42 1q-14 1 -18 4t-4 11v16q0 11 4 14t15 3h2q6 0 22 -0.5t22 -0.5q81 0 119 47t38 118q0 72 -51 110.5t-115 38.5h-36q-14 0 -17 2t-3 11v22q0 9 2.5 11.5t12.5 2.5h16q52 0 98.5 38t46.5 100q0 128 -132 128
q-57 0 -90.5 -40t-33.5 -112v-593q0 -18 -16 -18h-32q-16 0 -16 18v584q0 102 51.5 156t141.5 54q85 0 139.5 -44.5t54.5 -127.5q0 -53 -33 -99t-85 -59v-1q71 -8 117.5 -59.5t46.5 -124.5z" />
    <glyph glyph-name="agrave" unicode="&#xe0;" horiz-adv-x="519" 
d="M492 35v-25q0 -10 -12 -10h-38q-28 0 -42 20.5t-14 51.5v13q-15 -38 -60 -66t-94 -28q-96 0 -145.5 70t-49.5 172q0 119 60.5 189t150.5 70q38 0 75.5 -16t61.5 -47l1 37q0 16 18 16h30q15 0 15 -18v-351q0 -47 4 -55q5 -12 21 -12h7q11 0 11 -11zM385 166v192
q-19 39 -55.5 61.5t-77.5 22.5q-66 0 -107.5 -55.5t-41.5 -149.5q0 -91 38.5 -141.5t95.5 -50.5q52 0 92 35.5t56 85.5zM342 593q0 -3 -3 -9l-9 -14q-4 -7 -12 -7q-2 0 -8 2l-158 74q-9 5 -9 12q0 5 3 11l17 27q6 9 13 9t12 -4l147 -90q7 -4 7 -11z" />
    <glyph glyph-name="aacute" unicode="&#xe1;" horiz-adv-x="519" 
d="M492 35v-25q0 -10 -12 -10h-38q-28 0 -42 20.5t-14 51.5v13q-15 -38 -60 -66t-94 -28q-96 0 -145.5 70t-49.5 172q0 119 60.5 189t150.5 70q38 0 75.5 -16t61.5 -47l1 37q0 16 18 16h30q15 0 15 -18v-351q0 -47 4 -55q5 -12 21 -12h7q11 0 11 -11zM385 166v192
q-19 39 -55.5 61.5t-77.5 22.5q-66 0 -107.5 -55.5t-41.5 -149.5q0 -91 38.5 -141.5t95.5 -50.5q52 0 92 35.5t56 85.5zM355 651q0 -7 -9 -12l-158 -74q-6 -2 -8 -2q-8 0 -12 7l-9 14q-3 6 -3 9q0 7 7 11l147 90q5 4 12 4t13 -9l17 -27q3 -6 3 -11z" />
    <glyph glyph-name="acircumflex" unicode="&#xe2;" horiz-adv-x="519" 
d="M492 35v-25q0 -10 -12 -10h-38q-28 0 -42 20.5t-14 51.5v13q-15 -38 -60 -66t-94 -28q-96 0 -145.5 70t-49.5 172q0 119 60.5 189t150.5 70q38 0 75.5 -16t61.5 -47l1 37q0 16 18 16h30q15 0 15 -18v-351q0 -47 4 -55q5 -12 21 -12h7q11 0 11 -11zM385 166v192
q-19 39 -55.5 61.5t-77.5 22.5q-66 0 -107.5 -55.5t-41.5 -149.5q0 -91 38.5 -141.5t95.5 -50.5q52 0 92 35.5t56 85.5zM393 584q0 -5 -4 -9l-9 -10q-6 -6 -10 -6q-5 0 -10 4l-111 83l-111 -83q-5 -4 -10 -4q-6 0 -10 6l-8 10q-5 7 -5 11t6 10l118 107q8 6 14 6h12
q6 0 14 -6l118 -107q6 -4 6 -12z" />
    <glyph glyph-name="atilde" unicode="&#xe3;" horiz-adv-x="519" 
d="M492 35v-25q0 -10 -12 -10h-38q-28 0 -42 20.5t-14 51.5v13q-15 -38 -60 -66t-94 -28q-96 0 -145.5 70t-49.5 172q0 119 60.5 189t150.5 70q38 0 75.5 -16t61.5 -47l1 37q0 16 18 16h30q15 0 15 -18v-351q0 -47 4 -55q5 -12 21 -12h7q11 0 11 -11zM385 166v192
q-19 39 -55.5 61.5t-77.5 22.5q-66 0 -107.5 -55.5t-41.5 -149.5q0 -91 38.5 -141.5t95.5 -50.5q52 0 92 35.5t56 85.5zM418 639q0 -8 -8 -14q-56 -43 -104 -43q-20 0 -53 17.5t-50 17.5q-24 0 -63 -24q-10 -6 -16 -6q-7 0 -11 10l-8 18q-4 10 -4 11q0 7 14 16q52 32 90 32
q21 0 58.5 -17.5t50.5 -17.5q22 0 62 27q9 5 15 5q9 0 14 -9l8 -11q5 -8 5 -12z" />
    <glyph glyph-name="adieresis" unicode="&#xe4;" horiz-adv-x="519" 
d="M492 35v-25q0 -10 -12 -10h-38q-28 0 -42 20.5t-14 51.5v13q-15 -38 -60 -66t-94 -28q-96 0 -145.5 70t-49.5 172q0 119 60.5 189t150.5 70q38 0 75.5 -16t61.5 -47l1 37q0 16 18 16h30q15 0 15 -18v-351q0 -47 4 -55q5 -12 21 -12h7q11 0 11 -11zM385 166v192
q-19 39 -55.5 61.5t-77.5 22.5q-66 0 -107.5 -55.5t-41.5 -149.5q0 -91 38.5 -141.5t95.5 -50.5q52 0 92 35.5t56 85.5zM392 630q0 -20 -14 -32t-32 -12t-33 12t-15 32q0 21 14.5 33t33.5 12t32.5 -12.5t13.5 -32.5zM220 630q0 -20 -14 -32t-32 -12t-33 12t-15 32
q0 21 14.5 33t33.5 12t32.5 -12.5t13.5 -32.5z" />
    <glyph glyph-name="aring" unicode="&#xe5;" horiz-adv-x="519" 
d="M492 35v-25q0 -10 -12 -10h-38q-28 0 -42 20.5t-14 51.5v13q-15 -38 -60 -66t-94 -28q-96 0 -145.5 70t-49.5 172q0 119 60.5 189t150.5 70q38 0 75.5 -16t61.5 -47l1 37q0 16 18 16h30q15 0 15 -18v-351q0 -47 4 -55q5 -12 21 -12h7q11 0 11 -11zM385 166v192
q-19 39 -55.5 61.5t-77.5 22.5q-66 0 -107.5 -55.5t-41.5 -149.5q0 -91 38.5 -141.5t95.5 -50.5q52 0 92 35.5t56 85.5zM340 618q0 -32 -23.5 -55.5t-56.5 -23.5q-32 0 -56.5 23.5t-24.5 55.5t24.5 56t56.5 24q33 0 56.5 -24t23.5 -56zM292 618q0 14 -9 23t-23 9t-23.5 -9.5
t-9.5 -22.5t9.5 -22.5t23.5 -9.5t23 9t9 23z" />
    <glyph glyph-name="ae" unicode="&#xe6;" horiz-adv-x="758" 
d="M723 256q-1 -17 -28 -17h-317q0 -85 43 -139.5t125 -54.5q72 0 125 23q6 2 7 2q8 0 10 -9l5 -23q1 -3 1 -8q0 -7 -10 -11q-59 -28 -144 -28q-75 0 -126 34q-20 13 -32 26q0 1 -7 8t-9 11q-26 -34 -73.5 -57t-110.5 -23q-61 0 -104 36.5t-43 102.5q0 60 44 100
q69 64 217 64h29v34q0 60 -23.5 89.5t-78.5 29.5q-64 0 -134 -40q-5 -3 -8 -3q-4 0 -7 6l-9 20q-2 4 -2 6q0 6 8 11q78 46 157 46q72 0 112 -35q22 -20 33 -44q58 79 164 79q86 0 136 -58.5t50 -148.5v-29zM346 107q-24 56 -24 135v10h-26q-34 0 -65 -5.5t-61.5 -17.5
t-49 -37.5t-18.5 -60.5q0 -45 28 -68.5t66 -23.5q44 0 85 21t65 47zM659 304q0 60 -32 99.5t-92 39.5q-67 0 -107.5 -46t-47.5 -113h278q1 7 1 20z" />
    <glyph glyph-name="ccedilla" unicode="&#xe7;" horiz-adv-x="422" 
d="M409 30q0 -7 -10 -11q-57 -28 -128 -28l-2 -41h8q36 0 61.5 -16.5t25.5 -54.5q0 -33 -23 -55t-69 -22q-30 0 -61 12q-14 6 -14 12q0 3 1 5l4 12q3 8 8 8q1 0 9 -2q27 -10 53 -10q17 0 30.5 9t14.5 26v4q0 36 -53 36h-16q-25 0 -25 23q0 9 1 14l4 43q-94 12 -140.5 78.5
t-46.5 170.5q0 109 62.5 179t170.5 70q70 0 125 -30q9 -4 9 -11q0 -2 -2 -8l-6 -18q-4 -11 -10 -11q-1 0 -7 2q-58 27 -110 27q-75 0 -120.5 -54t-45.5 -144q0 -88 39.5 -147t123.5 -59q61 0 116 24q6 2 7 2q8 0 10 -9l5 -18q1 -3 1 -8z" />
    <glyph glyph-name="egrave" unicode="&#xe8;" horiz-adv-x="487" 
d="M452 266q0 -17 -5 -22t-23 -5h-317q0 -85 43 -139.5t125 -54.5q72 0 125 23q14 7 17 -7l5 -23q3 -14 -9 -19q-59 -28 -144 -28q-111 0 -169.5 68t-58.5 183q0 107 61.5 178.5t163.5 71.5q86 0 136 -58.5t50 -148.5v-19zM388 304q0 60 -32 99.5t-92 39.5q-67 0 -107.5 -46
t-47.5 -113h278q1 7 1 20zM343 592q0 -3 -3 -9l-9 -14q-4 -7 -12 -7q-2 0 -8 2l-158 74q-9 4 -9 12q0 5 3 11l17 27q6 9 13 9t12 -4l147 -90q7 -4 7 -11z" />
    <glyph glyph-name="eacute" unicode="&#xe9;" horiz-adv-x="487" 
d="M452 266q0 -17 -5 -22t-23 -5h-317q0 -85 43 -139.5t125 -54.5q72 0 125 23q14 7 17 -7l5 -23q3 -14 -9 -19q-59 -28 -144 -28q-111 0 -169.5 68t-58.5 183q0 107 61.5 178.5t163.5 71.5q86 0 136 -58.5t50 -148.5v-19zM388 304q0 60 -32 99.5t-92 39.5q-67 0 -107.5 -46
t-47.5 -113h278q1 7 1 20zM343 651q0 -7 -9 -12l-158 -74q-6 -2 -8 -2q-8 0 -12 7l-9 14q-3 6 -3 9q0 7 7 11l147 90q5 4 12 4t13 -9l17 -27q3 -6 3 -11z" />
    <glyph glyph-name="ecircumflex" unicode="&#xea;" horiz-adv-x="487" 
d="M452 266q0 -17 -5 -22t-23 -5h-317q0 -85 43 -139.5t125 -54.5q72 0 125 23q14 7 17 -7l5 -23q3 -14 -9 -19q-59 -28 -144 -28q-111 0 -169.5 68t-58.5 183q0 107 61.5 178.5t163.5 71.5q86 0 136 -58.5t50 -148.5v-19zM388 304q0 60 -32 99.5t-92 39.5q-67 0 -107.5 -46
t-47.5 -113h278q1 7 1 20zM403 581q0 -5 -4 -9l-9 -10q-6 -6 -10 -6q-5 0 -10 4l-111 83l-111 -83q-5 -4 -10 -4q-6 0 -10 6l-8 10q-5 7 -5 11t6 10l118 107q8 6 14 6h12q6 0 14 -6l118 -107q6 -5 6 -12z" />
    <glyph glyph-name="edieresis" unicode="&#xeb;" horiz-adv-x="487" 
d="M452 266q0 -17 -5 -22t-23 -5h-317q0 -85 43 -139.5t125 -54.5q72 0 125 23q14 7 17 -7l5 -23q3 -14 -9 -19q-59 -28 -144 -28q-111 0 -169.5 68t-58.5 183q0 107 61.5 178.5t163.5 71.5q86 0 136 -58.5t50 -148.5v-19zM388 304q0 60 -32 99.5t-92 39.5q-67 0 -107.5 -46
t-47.5 -113h278q1 7 1 20zM388 629q0 -20 -14 -32t-32 -12t-33 12t-15 32q0 21 14.5 33t33.5 12t32.5 -12.5t13.5 -32.5zM216 629q0 -20 -14 -32t-32 -12t-33 12t-15 32q0 21 14.5 33t33.5 12t32.5 -12.5t13.5 -32.5z" />
    <glyph glyph-name="igrave" unicode="&#xec;" horiz-adv-x="220" 
d="M141 464v-446q0 -18 -16 -18h-32q-16 0 -16 18v446q0 18 16 18h32q16 0 16 -18zM210 597q0 -3 -3 -9l-9 -14q-4 -7 -12 -7q-2 0 -8 2l-158 74q-9 5 -9 12q0 5 3 11l17 27q6 9 13 9t12 -4l147 -90q7 -4 7 -11z" />
    <glyph glyph-name="iacute" unicode="&#xed;" horiz-adv-x="220" 
d="M141 464v-446q0 -18 -16 -18h-32q-16 0 -16 18v446q0 18 16 18h32q16 0 16 -18zM210 651q0 -7 -9 -12l-158 -74q-6 -2 -8 -2q-8 0 -12 7l-9 14q-3 6 -3 9q0 7 7 11l147 90q5 4 12 4t13 -9l17 -27q3 -6 3 -11z" />
    <glyph glyph-name="icircumflex" unicode="&#xee;" horiz-adv-x="240" 
d="M151 464v-446q0 -18 -16 -18h-32q-16 0 -16 18v446q0 18 16 18h32q16 0 16 -18zM264 582q0 -5 -4 -9l-9 -10q-6 -6 -10 -6q-5 0 -10 4l-111 83l-111 -83q-5 -4 -10 -4t-10 6l-8 10q-5 7 -5 11t6 10l118 107q8 6 14 6h12q6 0 14 -6l118 -107q6 -4 6 -12z" />
    <glyph glyph-name="idieresis" unicode="&#xef;" horiz-adv-x="232" 
d="M147 464v-446q0 -18 -16 -18h-32q-16 0 -16 18v446q0 18 16 18h32q16 0 16 -18zM249 630q0 -20 -14 -32t-32 -12t-33 12t-15 32q0 21 14.5 33t33.5 12t32.5 -12.5t13.5 -32.5zM77 630q0 -20 -14 -32t-32 -12t-33 12t-15 32q0 21 14.5 33t33.5 12t32.5 -12.5t13.5 -32.5z
" />
    <glyph glyph-name="eth" unicode="&#xf0;" horiz-adv-x="521" 
d="M482 244q0 -108 -58.5 -180.5t-166.5 -72.5t-162 69.5t-54 181.5q0 109 59 179.5t163 70.5q42 0 78 -11q-17 48 -55.5 84.5t-82.5 57.5l-37 -77q-4 -7 -7 -7t-9 3l-18 9q-7 4 -7 8q0 3 3 8l38 73q-49 16 -87 22q-12 1 -12 11v4l3 17q1 9 4.5 11t11.5 2h8q46 -4 100 -18
l34 66q5 8 8 8q2 0 7 -3l18 -10q7 -4 7 -8t-2 -7l-32 -63q78 -36 136 -111.5t85 -158t27 -158.5zM415 240q0 85 -36.5 144t-115.5 59q-43 0 -74.5 -17.5t-48.5 -47.5t-25 -63.5t-8 -70.5q0 -86 35.5 -145.5t115.5 -59.5q42 0 73.5 17t49 46.5t26 64t8.5 73.5z" />
    <glyph glyph-name="ntilde" unicode="&#xf1;" horiz-adv-x="523" 
d="M456 312v-294q0 -18 -16 -18h-32q-16 0 -16 18v285q0 68 -23.5 103.5t-87.5 35.5q-36 0 -78.5 -18.5t-71.5 -45.5v-360q0 -18 -16 -18h-32q-16 0 -16 18v446q0 18 16 18h31q16 0 16 -18l1 -34q70 62 167 62q158 0 158 -180zM420 642q0 -8 -8 -14q-56 -43 -104 -43
q-20 0 -53 17.5t-50 17.5q-24 0 -63 -24q-11 -6 -16 -6q-7 0 -11 10l-8 18q-4 10 -4 11q0 7 14 16q52 32 90 32q21 0 59 -17.5t50 -17.5q22 0 62 27q9 5 15 5q9 0 14 -9l8 -11q5 -8 5 -12z" />
    <glyph glyph-name="ograve" unicode="&#xf2;" horiz-adv-x="522" 
d="M481 242q0 -109 -59.5 -180t-164.5 -71q-108 0 -162 69.5t-54 181.5q0 109 59 179.5t163 70.5q108 0 163 -68.5t55 -181.5zM415 240q0 85 -36.5 144t-115.5 59q-43 0 -74.5 -17.5t-48.5 -47.5t-25 -63.5t-8 -70.5q0 -86 35.5 -145.5t115.5 -59.5q42 0 73.5 17t49 46.5
t26 64t8.5 73.5zM360 593q0 -3 -3 -9l-9 -14q-4 -7 -12 -7q-2 0 -8 2l-158 74q-9 5 -9 12q0 5 3 11l17 27q6 9 13 9t12 -4l147 -90q7 -4 7 -11z" />
    <glyph glyph-name="oacute" unicode="&#xf3;" horiz-adv-x="522" 
d="M481 242q0 -109 -59.5 -180t-164.5 -71q-108 0 -162 69.5t-54 181.5q0 109 59 179.5t163 70.5q108 0 163 -68.5t55 -181.5zM415 240q0 85 -36.5 144t-115.5 59q-43 0 -74.5 -17.5t-48.5 -47.5t-25 -63.5t-8 -70.5q0 -86 35.5 -145.5t115.5 -59.5q42 0 73.5 17t49 46.5
t26 64t8.5 73.5zM360 651q0 -7 -9 -12l-158 -74q-6 -2 -8 -2q-8 0 -12 7l-9 14q-3 6 -3 9q0 7 7 11l147 90q5 4 12 4t13 -9l17 -27q3 -6 3 -11z" />
    <glyph glyph-name="ocircumflex" unicode="&#xf4;" horiz-adv-x="522" 
d="M481 242q0 -109 -59.5 -180t-164.5 -71q-108 0 -162 69.5t-54 181.5q0 109 59 179.5t163 70.5q108 0 163 -68.5t55 -181.5zM415 240q0 85 -36.5 144t-115.5 59q-43 0 -74.5 -17.5t-48.5 -47.5t-25 -63.5t-8 -70.5q0 -86 35.5 -145.5t115.5 -59.5q42 0 73.5 17t49 46.5
t26 64t8.5 73.5zM405 583q0 -5 -4 -9l-9 -10q-6 -6 -10 -6q-5 0 -10 4l-111 83l-111 -83q-5 -4 -10 -4q-6 0 -10 6l-8 10q-5 7 -5 11t6 10l118 107q8 6 14 6h12q6 0 14 -6l118 -107q6 -5 6 -12z" />
    <glyph glyph-name="otilde" unicode="&#xf5;" horiz-adv-x="522" 
d="M481 242q0 -109 -59.5 -180t-164.5 -71q-108 0 -162 69.5t-54 181.5q0 109 59 179.5t163 70.5q108 0 163 -68.5t55 -181.5zM415 240q0 85 -36.5 144t-115.5 59q-43 0 -74.5 -17.5t-48.5 -47.5t-25 -63.5t-8 -70.5q0 -86 35.5 -145.5t115.5 -59.5q42 0 73.5 17t49 46.5
t26 64t8.5 73.5zM419 637q0 -8 -8 -14q-56 -43 -104 -43q-20 0 -53 17.5t-50 17.5q-24 0 -63 -24q-11 -6 -16 -6q-7 0 -11 10l-8 18q-4 10 -4 11q0 7 14 16q52 32 90 32q22 0 59.5 -17.5t49.5 -17.5q21 0 62 27q9 5 15 5q9 0 14 -9l8 -11q5 -8 5 -12z" />
    <glyph glyph-name="odieresis" unicode="&#xf6;" horiz-adv-x="522" 
d="M481 242q0 -109 -59.5 -180t-164.5 -71q-108 0 -162 69.5t-54 181.5q0 109 59 179.5t163 70.5q108 0 163 -68.5t55 -181.5zM415 240q0 85 -36.5 144t-115.5 59q-43 0 -74.5 -17.5t-48.5 -47.5t-25 -63.5t-8 -70.5q0 -86 35.5 -145.5t115.5 -59.5q42 0 73.5 17t49 46.5
t26 64t8.5 73.5zM394 630q0 -20 -14 -32t-32 -12t-33 12t-15 32q0 21 14.5 33t33.5 12t32.5 -12.5t13.5 -32.5zM222 630q0 -20 -14 -32t-32 -12t-33 12t-15 32q0 21 14.5 33t33.5 12t32.5 -12.5t13.5 -32.5z" />
    <glyph glyph-name="divide" unicode="&#xf7;" horiz-adv-x="500" 
d="M299 438q0 -22 -15.5 -36t-35.5 -14t-36.5 14t-16.5 36q0 23 15.5 36.5t37.5 13.5q21 0 36 -14t15 -36zM451 272v-20q0 -11 -3.5 -15t-13.5 -4h-369q-12 0 -16 3t-4 12v26q0 9 3.5 12t13.5 3h369q13 0 16.5 -3t3.5 -14zM299 89q0 -22 -15.5 -35.5t-35.5 -13.5t-36.5 13.5
t-16.5 35.5q0 23 15.5 36.5t37.5 13.5q21 0 36 -14t15 -36z" />
    <glyph glyph-name="oslash" unicode="&#xf8;" horiz-adv-x="526" 
d="M483 243q0 -108 -59.5 -180t-164.5 -72q-56 0 -99 20l-12 -20q-9 -16 -17 -16q-2 0 -4.5 1.5t-3.5 1.5l-18 9q-11 5 -11 11q0 2 2 6l22 35q-75 68 -75 204q0 107 59.5 178t163.5 71q70 0 116 -28l17 26q12 18 18 18q2 0 6 -2l18 -10q12 -7 12 -12q0 -2 -2 -6l-29 -47
q61 -67 61 -188zM417 241q0 78 -31 133l-198 -318q32 -19 72 -19q80 0 118.5 59.5t38.5 144.5zM150 91l202 324q-35 30 -87 30q-43 0 -74.5 -18t-48.5 -48t-25 -63.5t-8 -70.5q0 -98 41 -154z" />
    <glyph glyph-name="ugrave" unicode="&#xf9;" horiz-adv-x="513" 
d="M446 464v-446q0 -18 -16 -18h-31q-16 0 -16 18l-1 35q-70 -62 -157 -62q-71 0 -113 40q-45 45 -45 142v291q0 18 16 18h32q16 0 16 -18v-282q0 -77 29 -110q26 -29 81 -29q34 0 74.5 20t66.5 46v355q0 18 16 18h32q16 0 16 -18zM356 593q0 -3 -3 -9l-9 -14q-4 -7 -12 -7
q-2 0 -8 2l-158 74q-9 5 -9 12q0 5 3 11l17 27q6 9 13 9t12 -4l147 -90q7 -4 7 -11z" />
    <glyph glyph-name="uacute" unicode="&#xfa;" horiz-adv-x="513" 
d="M446 464v-446q0 -18 -16 -18h-31q-16 0 -16 18l-1 35q-70 -62 -157 -62q-71 0 -113 40q-45 45 -45 142v291q0 18 16 18h32q16 0 16 -18v-282q0 -77 29 -110q26 -29 81 -29q34 0 74.5 20t66.5 46v355q0 18 16 18h32q16 0 16 -18zM356 651q0 -7 -9 -12l-158 -74
q-6 -2 -8 -2q-8 0 -12 7l-9 14q-3 6 -3 9q0 7 7 11l147 90q5 4 12 4t13 -9l17 -27q3 -6 3 -11z" />
    <glyph glyph-name="ucircumflex" unicode="&#xfb;" horiz-adv-x="513" 
d="M446 464v-446q0 -18 -16 -18h-31q-16 0 -16 18l-1 35q-70 -62 -157 -62q-71 0 -113 40q-45 45 -45 142v291q0 18 16 18h32q16 0 16 -18v-282q0 -77 29 -110q26 -29 81 -29q34 0 74.5 20t66.5 46v355q0 18 16 18h32q16 0 16 -18zM400 583q0 -5 -4 -9l-9 -10q-6 -6 -10 -6
q-5 0 -10 4l-111 83l-111 -83q-5 -4 -10 -4t-10 6l-8 10q-5 7 -5 11t6 10l118 107q8 6 14 6h12q6 0 14 -6l118 -107q6 -5 6 -12z" />
    <glyph glyph-name="udieresis" unicode="&#xfc;" horiz-adv-x="513" 
d="M446 464v-446q0 -18 -16 -18h-31q-16 0 -16 18l-1 35q-70 -62 -157 -62q-71 0 -113 40q-45 45 -45 142v291q0 18 16 18h32q16 0 16 -18v-282q0 -77 29 -110q26 -29 81 -29q34 0 74.5 20t66.5 46v355q0 18 16 18h32q16 0 16 -18zM389 629q0 -20 -14 -32t-32 -12t-33 12
t-15 32q0 21 14.5 33t33.5 12t32.5 -12.5t13.5 -32.5zM217 629q0 -20 -14 -32t-32 -12t-33 12t-15 32q0 21 14.5 33t33.5 12t32.5 -12.5t13.5 -32.5z" />
    <glyph glyph-name="yacute" unicode="&#xfd;" horiz-adv-x="465" 
d="M455 474q0 -2 -2 -8l-195 -526q-33 -89 -74.5 -124.5t-115.5 -35.5q-14 0 -40 4q-10 2 -10 11v3l5 32q1 11 11 11h3q30 -3 37 -3q78 0 109 77l31 76l-177 477q-5 14 8 14h47q12 0 16 -11l141 -400l139 400q4 11 16 11h39q12 0 12 -8zM332 651q0 -7 -9 -12l-158 -74
q-6 -2 -8 -2q-8 0 -12 7l-9 14q-3 6 -3 9q0 7 7 11l147 90q5 4 12 4t13 -9l17 -27q3 -6 3 -11z" />
    <glyph glyph-name="thorn" unicode="&#xfe;" horiz-adv-x="516" 
d="M476 244q0 -107 -57 -180t-159 -73q-40 0 -77.5 16t-60.5 46v-252q0 -16 -19 -16h-29q-16 0 -16 18v884q0 6 2 9t4.5 4t9.5 2l25 4h5q15 0 15 -18v-263q25 30 67.5 48.5t86.5 18.5q91 0 147 -64t56 -184zM410 244q0 98 -40 148t-107 50q-40 0 -80 -21t-61 -53v-245
q17 -35 55 -58.5t79 -23.5q73 0 113.5 55.5t40.5 147.5z" />
    <glyph glyph-name="ydieresis" unicode="&#xff;" horiz-adv-x="465" 
d="M455 474q0 -2 -2 -8l-195 -526q-33 -89 -74.5 -124.5t-115.5 -35.5q-14 0 -40 4q-10 2 -10 11v3l5 32q1 11 11 11h3q30 -3 37 -3q78 0 109 77l31 76l-177 477q-5 14 8 14h47q12 0 16 -11l141 -400l139 400q4 11 16 11h39q12 0 12 -8zM365 630q0 -20 -14 -32t-32 -12
t-33 12t-15 32q0 21 14.5 33t33.5 12t32.5 -12.5t13.5 -32.5zM193 630q0 -20 -14 -32t-32 -12t-33 12t-15 32q0 21 14.5 33t33.5 12t32.5 -12.5t13.5 -32.5z" />
    <glyph glyph-name="Amacron" unicode="&#x100;" horiz-adv-x="584" 
d="M517 0q-12 0 -15.5 2.5t-7.5 12.5l-75 209h-263l-78 -210q-4 -9 -7.5 -11.5t-13.5 -2.5h-43q-11 0 -5 17l255 660q3 10 13 10h36q8 0 12 -9l249 -662q6 -16 -10 -16h-47zM175 276h226l-110 310zM419 807v-17q0 -12 -5.5 -16.5t-23.5 -4.5h-200q-16 0 -21 4.5t-5 16.5v17
q0 11 5 15.5t21 4.5h200q18 0 23.5 -4t5.5 -16z" />
    <glyph glyph-name="amacron" unicode="&#x101;" horiz-adv-x="519" 
d="M492 35v-25q0 -10 -12 -10h-38q-28 0 -42 20.5t-14 51.5v13q-15 -38 -60 -66t-94 -28q-96 0 -145.5 70t-49.5 172q0 119 60.5 189t150.5 70q38 0 75.5 -16t61.5 -47l1 37q0 16 18 16h30q15 0 15 -18v-351q0 -47 4 -55q5 -12 21 -12h7q11 0 11 -11zM385 166v192
q-19 39 -55.5 61.5t-77.5 22.5q-66 0 -107.5 -55.5t-41.5 -149.5q0 -91 38.5 -141.5t95.5 -50.5q52 0 92 35.5t56 85.5zM387 624v-17q0 -12 -5.5 -16.5t-23.5 -4.5h-200q-16 0 -21 4.5t-5 16.5v17q0 11 5 15.5t21 4.5h200q18 0 23.5 -4t5.5 -16z" />
    <glyph glyph-name="Abreve" unicode="&#x102;" horiz-adv-x="584" 
d="M517 0q-12 0 -15.5 2.5t-7.5 12.5l-75 209h-263l-78 -210q-4 -9 -7.5 -11.5t-13.5 -2.5h-43q-11 0 -5 17l255 660q3 10 13 10h36q8 0 12 -9l249 -662q6 -16 -10 -16h-47zM175 276h226l-110 310zM419 851q0 -24 -16 -46.5t-39 -35.5q-31 -17 -70 -17q-43 0 -76 19
q-22 13 -37.5 35t-15.5 45q0 12 15 12h21q10 0 13.5 -2.5t8.5 -11.5q23 -46 69 -46q49 0 71 46q5 9 8.5 11.5t13.5 2.5h19q15 0 15 -12z" />
    <glyph glyph-name="abreve" unicode="&#x103;" horiz-adv-x="519" 
d="M492 35v-25q0 -10 -12 -10h-38q-28 0 -42 20.5t-14 51.5v13q-15 -38 -60 -66t-94 -28q-96 0 -145.5 70t-49.5 172q0 119 60.5 189t150.5 70q38 0 75.5 -16t61.5 -47l1 37q0 16 18 16h30q15 0 15 -18v-351q0 -47 4 -55q5 -12 21 -12h7q11 0 11 -11zM385 166v192
q-19 39 -55.5 61.5t-77.5 22.5q-66 0 -107.5 -55.5t-41.5 -149.5q0 -91 38.5 -141.5t95.5 -50.5q52 0 92 35.5t56 85.5zM386 662q0 -24 -16 -46.5t-39 -35.5q-31 -17 -70 -17q-43 0 -76 19q-22 13 -37.5 35t-15.5 45q0 12 15 12h21q10 0 13.5 -2.5t8.5 -11.5q23 -46 69 -46
q49 0 71 46q5 9 8.5 11.5t13.5 2.5h19q15 0 15 -12z" />
    <glyph glyph-name="Aogonek" unicode="&#x104;" horiz-adv-x="584" 
d="M599 -170q0 -11 -12 -15q-39 -15 -81 -15q-46 0 -70.5 23t-24.5 55q0 76 88 123l-80 223h-263l-78 -210q-4 -9 -7.5 -11.5t-13.5 -2.5h-43q-7 0 -7 7q0 6 2 10l255 660q3 10 13 10h36q8 0 12 -9l249 -662l2 -8q0 -7 -12 -9q-34 -4 -62 -32q-32 -33 -32 -78q0 -42 57 -42
q27 0 54 9h1l2 1q9 0 10 -7l4 -14q1 -2 1 -6zM175 276h226l-110 310z" />
    <glyph glyph-name="aogonek" unicode="&#x105;" horiz-adv-x="519" 
d="M519 -170q0 -11 -12 -15q-39 -15 -81 -15q-46 0 -70.5 23t-24.5 55q0 73 96 122v1q-18 3 -29.5 23t-11.5 48v13q-15 -38 -60 -66t-94 -28q-96 0 -145.5 70t-49.5 172q0 119 60.5 189t150.5 70q38 0 75.5 -16t61.5 -47l1 37q0 16 18 16h30q15 0 15 -18v-351q0 -47 4 -55
q5 -12 21 -12h7q11 0 11 -11v-25q0 -8 -12 -15q-1 0 -2 -0.5t-2 -1.5q-19 -12 -28 -19q-56 -46 -56 -85q0 -42 55 -42q27 0 54 9h1l2 1q9 0 10 -7l4 -14q1 -2 1 -6zM385 166v192q-19 39 -55.5 61.5t-77.5 22.5q-66 0 -107.5 -55.5t-41.5 -149.5q0 -91 38.5 -141.5
t95.5 -50.5q52 0 92 35.5t56 85.5z" />
    <glyph glyph-name="Cacute" unicode="&#x106;" horiz-adv-x="579" 
d="M545 79l9 -21q7 -15 -10 -23q-87 -44 -189 -44q-76 0 -135.5 28.5t-95.5 78t-54.5 112t-18.5 134.5q0 145 83 249.5t226 104.5q105 0 180 -46q15 -8 8 -22l-13 -24q-7 -13 -19 -5q-68 42 -151 42q-104 0 -170 -80q-68 -83 -68 -214q0 -58 13.5 -110t40.5 -96.5t74 -71
t109 -26.5q89 0 162 39q14 7 19 -5zM464 839q0 -7 -9 -12l-158 -74q-6 -2 -8 -2q-8 0 -12 7l-9 14q-3 6 -3 9q0 7 7 11l147 90q5 4 12 4t13 -9l17 -27q3 -6 3 -11z" />
    <glyph glyph-name="cacute" unicode="&#x107;" horiz-adv-x="422" 
d="M403 56l5 -18q4 -12 -9 -19q-60 -28 -129 -28q-114 0 -171.5 68.5t-57.5 183.5q0 109 62.5 179t170.5 70q70 0 125 -30q9 -4 9 -11q0 -2 -2 -8l-6 -18q-4 -11 -10 -11q-1 0 -7 2q-58 27 -110 27q-75 0 -120.5 -54t-45.5 -144q0 -88 39.5 -147t123.5 -59q62 0 116 24
q13 6 17 -7zM374 651q0 -7 -9 -12l-158 -74q-6 -2 -8 -2q-8 0 -12 7l-9 14q-3 6 -3 9q0 7 7 11l147 90q5 4 12 4t13 -9l17 -27q3 -6 3 -11z" />
    <glyph glyph-name="Ccircumflex" unicode="&#x108;" horiz-adv-x="579" 
d="M545 79l9 -21q7 -15 -10 -23q-87 -44 -189 -44q-76 0 -135.5 28.5t-95.5 78t-54.5 112t-18.5 134.5q0 145 83 249.5t226 104.5q105 0 180 -46q15 -8 8 -22l-13 -24q-7 -13 -19 -5q-68 42 -151 42q-104 0 -170 -80q-68 -83 -68 -214q0 -58 13.5 -110t40.5 -96.5t74 -71
t109 -26.5q89 0 162 39q14 7 19 -5zM504 776q0 -5 -4 -9l-9 -10q-6 -6 -10 -6q-5 0 -10 4l-111 83l-111 -83q-5 -4 -10 -4t-10 6l-8 10q-5 7 -5 11t6 10l118 107q8 6 14 6h12q6 0 14 -6l118 -107q6 -4 6 -12z" />
    <glyph glyph-name="ccircumflex" unicode="&#x109;" horiz-adv-x="422" 
d="M403 56l5 -18q4 -12 -9 -19q-60 -28 -129 -28q-114 0 -171.5 68.5t-57.5 183.5q0 109 62.5 179t170.5 70q70 0 125 -30q9 -4 9 -11q0 -2 -2 -8l-6 -18q-4 -11 -10 -11q-1 0 -7 2q-58 27 -110 27q-75 0 -120.5 -54t-45.5 -144q0 -88 39.5 -147t123.5 -59q62 0 116 24
q13 6 17 -7zM398 582q0 -5 -4 -9l-9 -10q-6 -6 -10 -6q-5 0 -10 4l-111 83l-111 -83q-5 -4 -10 -4t-10 6l-8 10q-5 7 -5 11t6 10l118 107q8 6 14 6h12q6 0 14 -6l118 -107q6 -4 6 -12z" />
    <glyph glyph-name="Cdotaccent" unicode="&#x10a;" horiz-adv-x="579" 
d="M545 79l9 -21q7 -15 -10 -23q-87 -44 -189 -44q-76 0 -135.5 28.5t-95.5 78t-54.5 112t-18.5 134.5q0 145 83 249.5t226 104.5q105 0 180 -46q15 -8 8 -22l-13 -24q-7 -13 -19 -5q-68 42 -151 42q-104 0 -170 -80q-68 -83 -68 -214q0 -58 13.5 -110t40.5 -96.5t74 -71
t109 -26.5q89 0 162 39q14 7 19 -5zM421 830q0 -27 -19.5 -44t-43.5 -17q-25 0 -45 16.5t-20 43.5q0 28 19.5 44.5t45.5 16.5q25 0 44 -16.5t19 -43.5z" />
    <glyph glyph-name="cdotaccent" unicode="&#x10b;" horiz-adv-x="422" 
d="M403 56l5 -18q4 -12 -9 -19q-60 -28 -129 -28q-114 0 -171.5 68.5t-57.5 183.5q0 109 62.5 179t170.5 70q70 0 125 -30q9 -4 9 -11q0 -2 -2 -8l-6 -18q-4 -11 -10 -11q-1 0 -7 2q-58 27 -110 27q-75 0 -120.5 -54t-45.5 -144q0 -88 39.5 -147t123.5 -59q62 0 116 24
q13 6 17 -7zM321 638q0 -27 -19.5 -44t-43.5 -17q-25 0 -45 16.5t-20 43.5q0 28 19.5 44.5t45.5 16.5q25 0 44 -16.5t19 -43.5z" />
    <glyph glyph-name="Ccaron" unicode="&#x10c;" horiz-adv-x="579" 
d="M545 79l9 -21q7 -15 -10 -23q-87 -44 -189 -44q-76 0 -135.5 28.5t-95.5 78t-54.5 112t-18.5 134.5q0 145 83 249.5t226 104.5q105 0 180 -46q15 -8 8 -22l-13 -24q-7 -13 -19 -5q-68 42 -151 42q-104 0 -170 -80q-68 -83 -68 -214q0 -58 13.5 -110t40.5 -96.5t74 -71
t109 -26.5q89 0 162 39q14 7 19 -5zM507 875q0 -5 -6 -10l-118 -107q-6 -6 -14 -6h-12q-8 0 -14 6l-118 107q-6 5 -6 11t4 10l9 10q6 6 11 6q3 0 9 -4l111 -83l111 83q5 4 10 4q6 0 10 -6l8 -10q5 -7 5 -11z" />
    <glyph glyph-name="ccaron" unicode="&#x10d;" horiz-adv-x="422" 
d="M403 56l5 -18q4 -12 -9 -19q-60 -28 -129 -28q-114 0 -171.5 68.5t-57.5 183.5q0 109 62.5 179t170.5 70q70 0 125 -30q9 -4 9 -11q0 -2 -2 -8l-6 -18q-4 -11 -10 -11q-1 0 -7 2q-58 27 -110 27q-75 0 -120.5 -54t-45.5 -144q0 -88 39.5 -147t123.5 -59q62 0 116 24
q13 6 17 -7zM397 678q0 -6 -6 -10l-118 -107q-6 -6 -14 -6h-12q-8 0 -14 6l-118 107q-6 4 -6 11q0 6 4 10l9 10q6 6 11 6q3 0 9 -4l111 -83l111 83q5 4 10 4q6 0 10 -6l8 -10q5 -7 5 -11z" />
    <glyph glyph-name="Dcaron" unicode="&#x10e;" horiz-adv-x="653" 
d="M604 339q0 -174 -99 -267q-76 -72 -245 -72h-160q-14 0 -18.5 4.5t-4.5 16.5v639q0 14 6.5 20.5t21.5 6.5h112q104 0 156.5 -10t97.5 -39q63 -41 98 -119t35 -180zM529 340q0 77 -23 141t-66 100q-63 52 -188 52h-105v-579h89q82 0 131 11.5t83 46.5q79 79 79 228z
M420 875q0 -5 -6 -10l-118 -107q-6 -6 -14 -6h-12q-8 0 -14 6l-118 107q-6 5 -6 11t4 10l9 10q6 6 11 6q3 0 9 -4l111 -83l111 83q5 4 10 4t10 -6l8 -10q5 -7 5 -11z" />
    <glyph glyph-name="dcaron" unicode="&#x10f;" horiz-adv-x="526" 
d="M459 18q0 -18 -12 -18h-29q-19 0 -19 18l-1 42q-26 -32 -67.5 -50.5t-86.5 -18.5q-69 0 -116 36t-67 90.5t-20 122.5q0 113 61 182.5t157 69.5q37 0 75.5 -16.5t60.5 -44.5v255q0 17 13 18l40 5q6 1 8.5 -3.5t2.5 -12.5v-675zM395 117v243q-17 35 -54 58.5t-77 23.5
q-72 0 -114.5 -53t-42.5 -147q0 -91 39.5 -146t107.5 -55q39 0 79.5 22t61.5 54zM587 663q0 -30 -16.5 -61t-40.5 -47q-5 -4 -9 -4q-5 0 -8 5l-4 4q-3 3 -3 7q0 2 4 6q25 25 25 50q0 10 -12 24.5t-12 25.5q0 16 10.5 26t26.5 10q17 0 28 -14t11 -32z" />
    <glyph glyph-name="Dcroat" unicode="&#x110;" horiz-adv-x="655" 
d="M606 339q0 -174 -99 -267q-76 -72 -245 -72h-160q-14 0 -18.5 4.5t-4.5 16.5v284h-59q-12 0 -16 3t-4 12v26q0 9 3.5 12t13.5 3h62v299q0 14 6.5 20.5t21.5 6.5h112q104 0 156.5 -10t97.5 -39q63 -41 98 -119t35 -180zM531 340q0 77 -23 141t-66 100q-63 52 -188 52h-105
v-272h112q13 0 16.5 -3t3.5 -14v-20q0 -11 -3.5 -15t-13.5 -4h-115v-251h89q82 0 131 11.5t83 46.5q79 79 79 228z" />
    <glyph glyph-name="dcroat" unicode="&#x111;" horiz-adv-x="526" 
d="M459 18q0 -18 -12 -18h-29q-19 0 -19 18l-1 42q-26 -32 -67.5 -50.5t-86.5 -18.5q-69 0 -116 36t-67 90.5t-20 122.5q0 113 61 182.5t157 69.5q37 0 75.5 -16.5t60.5 -44.5v147h-88q-15 0 -20.5 5.5t-5.5 18.5v7q0 12 5 17t21 5h88v55q0 17 13 18l40 5q6 1 8.5 -3.5
t2.5 -12.5v-63h37q18 0 23.5 -4.5t5.5 -17.5v-8q0 -13 -6 -18.5t-23 -5.5h-37v-558zM395 117v243q-17 35 -54 58.5t-77 23.5q-72 0 -114.5 -53t-42.5 -147q0 -91 39.5 -146t107.5 -55q39 0 79.5 22t61.5 54z" />
    <glyph glyph-name="Emacron" unicode="&#x112;" horiz-adv-x="489" 
d="M446 41v-27q0 -14 -17 -14h-334q-11 0 -14.5 3.5t-3.5 14.5v652q0 10 3.5 13.5t13.5 3.5h335q9 0 12 -3.5t2 -12.5l-3 -25q-1 -13 -23 -13h-270v-242h238q17 0 17 -15v-24q0 -15 -16 -15h-239v-283h281q18 0 18 -13zM393 807v-17q0 -12 -5.5 -16.5t-23.5 -4.5h-200
q-16 0 -21 4.5t-5 16.5v17q0 11 5 15.5t21 4.5h200q18 0 23.5 -4t5.5 -16z" />
    <glyph glyph-name="emacron" unicode="&#x113;" horiz-adv-x="487" 
d="M452 266q0 -17 -5 -22t-23 -5h-317q0 -85 43 -139.5t125 -54.5q72 0 125 23q14 7 17 -7l5 -23q3 -14 -9 -19q-59 -28 -144 -28q-111 0 -169.5 68t-58.5 183q0 107 61.5 178.5t163.5 71.5q86 0 136 -58.5t50 -148.5v-19zM388 304q0 60 -32 99.5t-92 39.5q-67 0 -107.5 -46
t-47.5 -113h278q1 7 1 20zM387 624v-17q0 -12 -5.5 -16.5t-23.5 -4.5h-200q-16 0 -21 4.5t-5 16.5v17q0 11 5 15.5t21 4.5h200q18 0 23.5 -4t5.5 -16z" />
    <glyph glyph-name="Ebreve" unicode="&#x114;" horiz-adv-x="489" 
d="M446 41v-27q0 -14 -17 -14h-334q-11 0 -14.5 3.5t-3.5 14.5v652q0 10 3.5 13.5t13.5 3.5h335q9 0 12 -3.5t2 -12.5l-3 -25q-1 -13 -23 -13h-270v-242h238q17 0 17 -15v-24q0 -15 -16 -15h-239v-283h281q18 0 18 -13zM381 851q0 -24 -16 -46.5t-39 -35.5q-31 -17 -70 -17
q-43 0 -76 19q-22 13 -37.5 35t-15.5 45q0 12 15 12h21q10 0 13.5 -2.5t8.5 -11.5q23 -46 69 -46q49 0 71 46q5 9 8.5 11.5t13.5 2.5h19q15 0 15 -12z" />
    <glyph glyph-name="ebreve" unicode="&#x115;" horiz-adv-x="487" 
d="M452 266q0 -17 -5 -22t-23 -5h-317q0 -85 43 -139.5t125 -54.5q72 0 125 23q14 7 17 -7l5 -23q3 -14 -9 -19q-59 -28 -144 -28q-111 0 -169.5 68t-58.5 183q0 107 61.5 178.5t163.5 71.5q86 0 136 -58.5t50 -148.5v-19zM388 304q0 60 -32 99.5t-92 39.5q-67 0 -107.5 -46
t-47.5 -113h278q1 7 1 20zM387 661q0 -24 -16 -46.5t-39 -35.5q-31 -17 -70 -17q-43 0 -76 19q-22 13 -37.5 35t-15.5 45q0 12 15 12h21q10 0 13.5 -2.5t8.5 -11.5q23 -46 69 -46q49 0 71 46q5 9 8.5 11.5t13.5 2.5h19q15 0 15 -12z" />
    <glyph glyph-name="Edotaccent" unicode="&#x116;" horiz-adv-x="489" 
d="M446 41v-27q0 -14 -17 -14h-334q-11 0 -14.5 3.5t-3.5 14.5v652q0 10 3.5 13.5t13.5 3.5h335q9 0 12 -3.5t2 -12.5l-3 -25q-1 -13 -23 -13h-270v-242h238q17 0 17 -15v-24q0 -15 -16 -15h-239v-283h281q18 0 18 -13zM317 829q0 -27 -19.5 -44t-43.5 -17q-25 0 -45 16.5
t-20 43.5q0 28 19.5 44.5t45.5 16.5q25 0 44 -16.5t19 -43.5z" />
    <glyph glyph-name="edotaccent" unicode="&#x117;" horiz-adv-x="487" 
d="M452 266q0 -17 -5 -22t-23 -5h-317q0 -85 43 -139.5t125 -54.5q72 0 125 23q14 7 17 -7l5 -23q3 -14 -9 -19q-59 -28 -144 -28q-111 0 -169.5 68t-58.5 183q0 107 61.5 178.5t163.5 71.5q86 0 136 -58.5t50 -148.5v-19zM388 304q0 60 -32 99.5t-92 39.5q-67 0 -107.5 -46
t-47.5 -113h278q1 7 1 20zM323 638q0 -27 -19.5 -44t-43.5 -17q-25 0 -45 16.5t-20 43.5q0 28 19.5 44.5t45.5 16.5q25 0 44 -16.5t19 -43.5z" />
    <glyph glyph-name="Eogonek" unicode="&#x118;" horiz-adv-x="489" 
d="M394 -170q0 -11 -12 -15q-39 -15 -81 -15q-46 0 -70.5 23t-24.5 55q0 73 96 122h-207q-11 0 -14.5 3.5t-3.5 14.5v652q0 10 3.5 13.5t13.5 3.5h335q9 0 12 -3.5t2 -12.5l-3 -25q-1 -13 -23 -13h-270v-242h238q17 0 17 -15v-24q0 -15 -16 -15h-239v-283h281q18 0 18 -13
v-27q0 -14 -17 -14h-73q-89 -67 -89 -111q0 -42 55 -42q27 0 54 9h1q1 1 2 1q9 0 10 -7l4 -14q1 -2 1 -6z" />
    <glyph glyph-name="eogonek" unicode="&#x119;" horiz-adv-x="487" 
d="M360 -170q0 -11 -12 -15q-39 -15 -81 -15q-46 0 -70.5 23t-24.5 55q0 66 80 113v2q-103 6 -157 72.5t-54 176.5q0 107 61.5 178.5t163.5 71.5q86 0 136 -58.5t50 -148.5v-19q0 -17 -5 -22t-23 -5h-317q0 -85 43 -139.5t125 -54.5q72 0 125 23q6 2 7 2q8 0 10 -9l5 -23
q1 -3 1 -8q0 -7 -10 -11q-19 -9 -44 -15q-70 -16 -105 -47q-33 -28 -33 -64q0 -46 57 -46q27 0 54 9h1q1 1 2 1q9 0 10 -7l4 -14q1 -2 1 -6zM388 304q0 60 -32 99.5t-92 39.5q-67 0 -107.5 -46t-47.5 -113h278q1 7 1 20z" />
    <glyph glyph-name="Ecaron" unicode="&#x11a;" horiz-adv-x="489" 
d="M446 41v-27q0 -14 -17 -14h-334q-11 0 -14.5 3.5t-3.5 14.5v652q0 10 3.5 13.5t13.5 3.5h335q9 0 12 -3.5t2 -12.5l-3 -25q-1 -13 -23 -13h-270v-242h238q17 0 17 -15v-24q0 -15 -16 -15h-239v-283h281q18 0 18 -13zM401 871q0 -5 -6 -10l-118 -107q-6 -6 -14 -6h-12
q-8 0 -14 6l-118 107q-6 5 -6 11t4 10l9 10q6 6 11 6q3 0 9 -4l111 -83l111 83q5 4 10 4t10 -6l8 -10q5 -7 5 -11z" />
    <glyph glyph-name="ecaron" unicode="&#x11b;" horiz-adv-x="487" 
d="M452 266q0 -17 -5 -22t-23 -5h-317q0 -85 43 -139.5t125 -54.5q72 0 125 23q14 7 17 -7l5 -23q3 -14 -9 -19q-59 -28 -144 -28q-111 0 -169.5 68t-58.5 183q0 107 61.5 178.5t163.5 71.5q86 0 136 -58.5t50 -148.5v-19zM388 304q0 60 -32 99.5t-92 39.5q-67 0 -107.5 -46
t-47.5 -113h278q1 7 1 20zM407 682q0 -6 -6 -10l-118 -107q-6 -6 -14 -6h-12q-8 0 -14 6l-118 107q-6 4 -6 11q0 6 4 10l9 10q6 6 11 6q3 0 9 -4l111 -83l111 83q5 4 10 4t10 -6l8 -10q5 -7 5 -11z" />
    <glyph glyph-name="Gcircumflex" unicode="&#x11c;" horiz-adv-x="642" 
d="M569 374v-300q0 -18 -3 -24t-17 -14q-34 -20 -84.5 -32.5t-94.5 -12.5q-161 0 -240 95.5t-79 257.5q0 155 88.5 254.5t244.5 99.5q81 0 155 -30q9 -4 10.5 -7.5t-1.5 -10.5l-8 -28q-5 -14 -19 -8q-68 27 -137 27q-126 0 -192 -85t-66 -211q0 -46 7.5 -88t25.5 -81.5
t45 -68.5t68 -46.5t92 -17.5q80 0 136 30v264h-115h-8t-4.5 2t-3 5t-0.5 9v25q0 8 3 10.5t12 2.5h169q10 0 13 -3t3 -14zM494 773q0 -5 -4 -9l-9 -10q-6 -6 -10 -6q-5 0 -10 4l-111 83l-111 -83q-5 -4 -10 -4t-10 6l-8 10q-5 7 -5 11t6 10l118 107q8 6 14 6h12q6 0 14 -6
l118 -107q6 -5 6 -12z" />
    <glyph glyph-name="gcircumflex" unicode="&#x11d;" horiz-adv-x="526" 
d="M460 22q0 -136 -66 -194q-56 -48 -152 -48q-67 0 -139 35q-13 7 -9 18l10 26q5 14 19 7q69 -32 119 -32q77 0 113 37q41 43 41 144v49q-25 -30 -67 -47t-83 -17q-102 0 -153 68.5t-51 174.5t57.5 177.5t159.5 71.5q89 0 137 -61l1 35q0 16 18 16h30q15 0 15 -18v-442z
M396 124v236q-17 35 -55 58.5t-79 23.5q-73 0 -113.5 -53.5t-40.5 -141.5q0 -51 12.5 -92.5t46 -72t85.5 -30.5q40 0 81.5 20.5t62.5 51.5zM409 581q0 -5 -4 -9l-9 -10q-6 -6 -10 -6q-5 0 -10 4l-111 83l-111 -83q-5 -4 -10 -4q-6 0 -10 6l-8 10q-5 7 -5 11t6 10l118 107
q8 6 14 6h12q6 0 14 -6l118 -107q6 -5 6 -12z" />
    <glyph glyph-name="Gbreve" unicode="&#x11e;" horiz-adv-x="642" 
d="M569 374v-300q0 -18 -3 -24t-17 -14q-34 -20 -84.5 -32.5t-94.5 -12.5q-161 0 -240 95.5t-79 257.5q0 155 88.5 254.5t244.5 99.5q81 0 155 -30q9 -4 10.5 -7.5t-1.5 -10.5l-8 -28q-5 -14 -19 -8q-68 27 -137 27q-126 0 -192 -85t-66 -211q0 -46 7.5 -88t25.5 -81.5
t45 -68.5t68 -46.5t92 -17.5q80 0 136 30v264h-115h-8t-4.5 2t-3 5t-0.5 9v25q0 8 3 10.5t12 2.5h169q10 0 13 -3t3 -14zM475 852q0 -24 -16 -46.5t-39 -35.5q-31 -17 -70 -17q-43 0 -76 19q-22 13 -37.5 35t-15.5 45q0 12 15 12h21q10 0 13.5 -2.5t8.5 -11.5q23 -46 69 -46
q49 0 71 46q5 9 8.5 11.5t13.5 2.5h19q15 0 15 -12z" />
    <glyph glyph-name="gbreve" unicode="&#x11f;" horiz-adv-x="526" 
d="M460 22q0 -136 -66 -194q-56 -48 -152 -48q-67 0 -139 35q-13 7 -9 18l10 26q5 14 19 7q69 -32 119 -32q77 0 113 37q41 43 41 144v49q-25 -30 -67 -47t-83 -17q-102 0 -153 68.5t-51 174.5t57.5 177.5t159.5 71.5q89 0 137 -61l1 35q0 16 18 16h30q15 0 15 -18v-442z
M396 124v236q-17 35 -55 58.5t-79 23.5q-73 0 -113.5 -53.5t-40.5 -141.5q0 -51 12.5 -92.5t46 -72t85.5 -30.5q40 0 81.5 20.5t62.5 51.5zM387 663q0 -24 -16 -46.5t-39 -35.5q-31 -17 -70 -17q-43 0 -76 19q-22 13 -37.5 35t-15.5 45q0 12 15 12h21q10 0 13.5 -2.5
t8.5 -11.5q23 -46 69 -46q49 0 71 46q5 9 8.5 11.5t13.5 2.5h19q15 0 15 -12z" />
    <glyph glyph-name="Gdotaccent" unicode="&#x120;" horiz-adv-x="642" 
d="M569 374v-300q0 -18 -3 -24t-17 -14q-34 -20 -84.5 -32.5t-94.5 -12.5q-161 0 -240 95.5t-79 257.5q0 155 88.5 254.5t244.5 99.5q81 0 155 -30q9 -4 10.5 -7.5t-1.5 -10.5l-8 -28q-5 -14 -19 -8q-68 27 -137 27q-126 0 -192 -85t-66 -211q0 -46 7.5 -88t25.5 -81.5
t45 -68.5t68 -46.5t92 -17.5q80 0 136 30v264h-115h-8t-4.5 2t-3 5t-0.5 9v25q0 8 3 10.5t12 2.5h169q10 0 13 -3t3 -14zM403 830q0 -27 -19.5 -44t-43.5 -17q-25 0 -45 16.5t-20 43.5q0 28 19.5 44.5t45.5 16.5q25 0 44 -16.5t19 -43.5z" />
    <glyph glyph-name="gdotaccent" unicode="&#x121;" horiz-adv-x="526" 
d="M460 22q0 -136 -66 -194q-56 -48 -152 -48q-67 0 -139 35q-13 7 -9 18l10 26q5 14 19 7q69 -32 119 -32q77 0 113 37q41 43 41 144v49q-25 -30 -67 -47t-83 -17q-102 0 -153 68.5t-51 174.5t57.5 177.5t159.5 71.5q89 0 137 -61l1 35q0 16 18 16h30q15 0 15 -18v-442z
M396 124v236q-17 35 -55 58.5t-79 23.5q-73 0 -113.5 -53.5t-40.5 -141.5q0 -51 12.5 -92.5t46 -72t85.5 -30.5q40 0 81.5 20.5t62.5 51.5zM327 638q0 -27 -19.5 -44t-43.5 -17q-25 0 -45 16.5t-20 43.5q0 28 19.5 44.5t45.5 16.5q25 0 44 -16.5t19 -43.5z" />
    <glyph glyph-name="Gcommaaccent" unicode="&#x122;" horiz-adv-x="642" 
d="M569 374v-300q0 -18 -3 -24t-17 -14q-34 -20 -84.5 -32.5t-94.5 -12.5q-161 0 -240 95.5t-79 257.5q0 155 88.5 254.5t244.5 99.5q81 0 155 -30q9 -4 10.5 -7.5t-1.5 -10.5l-8 -28q-5 -14 -19 -8q-68 27 -137 27q-126 0 -192 -85t-66 -211q0 -46 7.5 -88t25.5 -81.5
t45 -68.5t68 -46.5t92 -17.5q80 0 136 30v264h-115h-8t-4.5 2t-3 5t-0.5 9v25q0 8 3 10.5t12 2.5h169q10 0 13 -3t3 -14zM393 -86q0 -30 -16.5 -61t-40.5 -47q-5 -4 -9 -4q-5 0 -8 5l-4 4q-3 3 -3 7q0 2 4 6q25 25 25 50q0 10 -12 24.5t-12 25.5q0 16 10.5 26t26.5 10
q17 0 28 -14t11 -32z" />
    <glyph glyph-name="gcommaaccent" unicode="&#x123;" horiz-adv-x="526" 
d="M460 22q0 -136 -66 -194q-56 -48 -152 -48q-67 0 -139 35q-13 7 -9 18l10 26q5 14 19 7q69 -32 119 -32q77 0 113 37q41 43 41 144v49q-25 -30 -67 -47t-83 -17q-102 0 -153 68.5t-51 174.5t57.5 177.5t159.5 71.5q89 0 137 -61l1 35q0 16 18 16h30q15 0 15 -18v-442z
M396 124v236q-17 35 -55 58.5t-79 23.5q-73 0 -113.5 -53.5t-40.5 -141.5q0 -51 12.5 -92.5t46 -72t85.5 -30.5q40 0 81.5 20.5t62.5 51.5zM221 600q0 30 16.5 61t40.5 47q5 4 9 4q5 0 8 -5l4 -4q3 -3 3 -7q0 -2 -4 -6q-25 -25 -25 -50q0 -10 12 -24.5t12 -25.5
q0 -16 -10.5 -26t-26.5 -10q-17 0 -28 14t-11 32z" />
    <glyph glyph-name="Hcircumflex" unicode="&#x124;" horiz-adv-x="639" 
d="M562 669v-651q0 -18 -15 -18h-38q-16 0 -16 18v319h-346v-319q0 -18 -16 -18h-38q-16 0 -16 18v651q0 18 16 18h38q16 0 16 -18v-278h346v278q0 18 16 18h38q15 0 15 -18zM463 773q0 -5 -4 -9l-9 -10q-6 -6 -10 -6q-5 0 -10 4l-111 83l-111 -83q-5 -4 -10 -4q-6 0 -10 6
l-8 10q-5 7 -5 11t6 10l118 107q8 6 14 6h12q6 0 14 -6l118 -107q6 -5 6 -12z" />
    <glyph glyph-name="hcircumflex" unicode="&#x125;" horiz-adv-x="523" 
d="M456 312v-294q0 -18 -16 -18h-32q-16 0 -16 18v285q0 67 -23.5 103t-86.5 36q-37 0 -79.5 -18.5t-71.5 -45.5v-360q0 -18 -16 -18h-32q-16 0 -16 18v668q0 16 13 18q36 5 39 5q12 0 12 -16v-263q70 62 167 62q158 0 158 -180zM243 721q0 -5 -4 -9l-9 -10q-6 -6 -10 -6
q-5 0 -10 4l-111 83l-111 -83q-5 -4 -10 -4q-6 0 -10 6l-8 10q-5 7 -5 11t6 10l118 107q8 6 14 6h12q6 0 14 -6l118 -107q6 -5 6 -12z" />
    <glyph glyph-name="Hbar" unicode="&#x126;" horiz-adv-x="639" 
d="M562 669v-99h45q13 0 16.5 -3t3.5 -14v-20q0 -11 -3.5 -15t-13.5 -4h-48v-496q0 -18 -15 -18h-38q-16 0 -16 18v319h-346v-319q0 -18 -16 -18h-38q-16 0 -16 18v496h-40q-12 0 -16 3t-4 12v26q0 9 3.5 12t13.5 3h43v99q0 18 16 18h38q16 0 16 -18v-99h346v99q0 18 16 18
h38q15 0 15 -18zM147 391h346v123h-346v-123z" />
    <glyph glyph-name="hbar" unicode="&#x127;" horiz-adv-x="523" 
d="M456 312v-294q0 -18 -16 -18h-32q-16 0 -16 18v285q0 67 -23.5 103t-86.5 36q-37 0 -79.5 -18.5t-71.5 -45.5v-360q0 -18 -16 -18h-32q-16 0 -16 18v546h-37q-12 0 -16 3t-4 12v26q0 9 3.5 12t13.5 3h40v66q0 16 13 18q36 5 39 5q12 0 12 -16v-73h140q13 0 16.5 -3
t3.5 -14v-20q0 -11 -3.5 -15t-13.5 -4h-143v-134q70 62 167 62q158 0 158 -180z" />
    <glyph glyph-name="Itilde" unicode="&#x128;" horiz-adv-x="349" 
d="M284 39v-25q0 -9 -2 -11.5t-9 -2.5h-198q-7 0 -9.5 2t-2.5 10v28q0 6 2 8t10 2h64v588h-67q-8 0 -10 2t-2 9v26q0 7 2 9.5t9 2.5h199q14 0 14 -11v-25q0 -9 -2 -11t-12 -2h-64v-588h64q14 0 14 -11zM325 821q0 -8 -8 -14q-56 -43 -104 -43q-20 0 -53 17.5t-50 17.5
q-24 0 -63 -24q-10 -6 -16 -6q-7 0 -11 10l-8 18q-4 10 -4 11q0 7 14 16q52 32 90 32q22 0 59 -17.5t50 -17.5q21 0 62 27q9 5 15 5q9 0 14 -9l8 -11q5 -8 5 -12z" />
    <glyph glyph-name="itilde" unicode="&#x129;" horiz-adv-x="248" 
d="M155 464v-446q0 -18 -16 -18h-32q-16 0 -16 18v446q0 18 16 18h32q16 0 16 -18zM283 635q0 -8 -8 -14q-56 -43 -104 -43q-20 0 -53 17.5t-50 17.5q-24 0 -63 -24q-10 -6 -16 -6q-7 0 -11 10l-8 18q-4 10 -4 11q0 7 14 16q52 32 90 32q22 0 59 -17.5t50 -17.5q21 0 62 27
q9 5 15 5q9 0 14 -9l8 -11q5 -8 5 -12z" />
    <glyph glyph-name="Imacron" unicode="&#x12a;" horiz-adv-x="349" 
d="M284 39v-25q0 -9 -2 -11.5t-9 -2.5h-198q-7 0 -9.5 2t-2.5 10v28q0 6 2 8t10 2h64v588h-67q-8 0 -10 2t-2 9v26q0 7 2 9.5t9 2.5h199q14 0 14 -11v-25q0 -9 -2 -11t-12 -2h-64v-588h64q14 0 14 -11zM301 807v-17q0 -12 -5.5 -16.5t-23.5 -4.5h-200q-16 0 -21 4.5t-5 16.5
v17q0 11 5 15.5t21 4.5h200q18 0 23.5 -4t5.5 -16z" />
    <glyph glyph-name="imacron" unicode="&#x12b;" horiz-adv-x="230" 
d="M146 464v-446q0 -18 -16 -18h-32q-16 0 -16 18v446q0 18 16 18h32q16 0 16 -18zM243 624v-17q0 -12 -5.5 -16.5t-23.5 -4.5h-200q-16 0 -21 4.5t-5 16.5v17q0 11 5 15.5t21 4.5h200q18 0 23.5 -4t5.5 -16z" />
    <glyph glyph-name="Ibreve" unicode="&#x12c;" horiz-adv-x="349" 
d="M284 39v-25q0 -9 -2 -11.5t-9 -2.5h-198q-7 0 -9.5 2t-2.5 10v28q0 6 2 8t10 2h64v588h-67q-8 0 -10 2t-2 9v26q0 7 2 9.5t9 2.5h199q14 0 14 -11v-25q0 -9 -2 -11t-12 -2h-64v-588h64q14 0 14 -11zM301 850q0 -24 -16 -46.5t-39 -35.5q-31 -17 -70 -17q-43 0 -76 19
q-22 13 -37.5 35t-15.5 45q0 12 15 12h21q10 0 13.5 -2.5t8.5 -11.5q23 -46 69 -46q49 0 71 46q5 9 8.5 11.5t13.5 2.5h19q15 0 15 -12z" />
    <glyph glyph-name="ibreve" unicode="&#x12d;" horiz-adv-x="230" 
d="M146 464v-446q0 -18 -16 -18h-32q-16 0 -16 18v446q0 18 16 18h32q16 0 16 -18zM242 663q0 -24 -16 -46.5t-39 -35.5q-31 -17 -70 -17q-43 0 -76 19q-22 13 -37.5 35t-15.5 45q0 12 15 12h21q10 0 13.5 -2.5t8.5 -11.5q23 -46 69 -46q49 0 71 46q5 9 8.5 11.5t13.5 2.5
h19q15 0 15 -12z" />
    <glyph glyph-name="Iogonek" unicode="&#x12e;" horiz-adv-x="349" 
d="M244 -170q0 -11 -12 -15q-39 -15 -81 -15q-46 0 -70.5 23t-24.5 55q0 73 96 122h-77q-7 0 -9.5 2t-2.5 10v28q0 6 2 8t10 2h64v588h-67q-8 0 -10 2t-2 9v26q0 7 2 9.5t9 2.5h199q14 0 14 -11v-25q0 -9 -2 -11t-12 -2h-64v-588h64q14 0 14 -11v-25q0 -9 -2 -11.5t-9 -2.5
h-67q-89 -67 -89 -111q0 -42 55 -42q27 0 54 9h1q1 1 2 1q9 0 10 -7l4 -14q1 -2 1 -6z" />
    <glyph glyph-name="iogonek" unicode="&#x12f;" horiz-adv-x="220" 
d="M169 -166q0 -11 -12 -15q-39 -15 -81 -15q-47 0 -71 24t-24 60q0 41 26.5 67t69.5 47v462q0 18 16 18h32q16 0 16 -18v-446q0 -18 -10 -21q-22 -7 -41 -19q-48 -31 -48 -79t55 -48q27 0 54 9h1l2 1q9 0 10 -7l4 -14q1 -2 1 -6zM151 594q0 -17 -12 -28t-30 -11
q-17 0 -29 11t-12 28t12 28t29 11q18 0 30 -11t12 -28z" />
    <glyph glyph-name="Idotaccent" unicode="&#x130;" horiz-adv-x="349" 
d="M284 39v-25q0 -9 -2 -11.5t-9 -2.5h-198q-7 0 -9.5 2t-2.5 10v28q0 6 2 8t10 2h64v588h-67q-8 0 -10 2t-2 9v26q0 7 2 9.5t9 2.5h199q14 0 14 -11v-25q0 -9 -2 -11t-12 -2h-64v-588h64q14 0 14 -11zM238 830q0 -27 -19.5 -44t-43.5 -17q-25 0 -45 16.5t-20 43.5
q0 28 19.5 44.5t45.5 16.5q25 0 44 -16.5t19 -43.5z" />
    <glyph glyph-name="dotlessi" unicode="&#x131;" horiz-adv-x="220" 
d="M141 464v-446q0 -18 -16 -18h-32q-16 0 -16 18v446q0 18 16 18h32q16 0 16 -18z" />
    <glyph glyph-name="IJ" unicode="&#x132;" horiz-adv-x="712" 
d="M284 39v-25q0 -9 -2 -11.5t-9 -2.5h-198q-7 0 -9.5 2t-2.5 10v28q0 6 2 8t10 2h64v588h-67q-8 0 -10 2t-2 9v26q0 7 2 9.5t9 2.5h199q14 0 14 -11v-25q0 -9 -2 -11t-12 -2h-64v-588h64q14 0 14 -11zM633 670v-438q0 -78 -10 -126t-42 -77q-43 -38 -124 -38q-32 0 -55 7
q-10 3 -8 15l6 32q2 11 14 8q25 -5 48 -5q63 0 84 36q19 34 19 124v430h-111q-11 0 -14 2.5t-3 11.5v23q0 12 18 12h162q16 0 16 -17z" />
    <glyph glyph-name="ij" unicode="&#x133;" horiz-adv-x="466" 
d="M151 594q0 -17 -12 -28t-30 -11q-17 0 -29 11t-12 28t12 28t29 11q18 0 30 -11t12 -28zM141 464v-446q0 -18 -16 -18h-32q-16 0 -16 18v446q0 18 16 18h32q16 0 16 -18zM399 594q0 -17 -12 -28t-29 -11t-29 11t-12 28t12 28t29 11t29 -11t12 -28zM389 464v-438
q0 -141 -46 -195q-42 -51 -125 -51q-20 0 -49 6q-11 2 -9 15l4 25q1 9 11 7q25 -4 47 -4q46 0 72 32q31 38 31 154v449q0 18 16 18h33q15 0 15 -18z" />
    <glyph glyph-name="Jcircumflex" unicode="&#x134;" horiz-adv-x="363" 
d="M284 670v-438q0 -78 -10 -126t-42 -77q-43 -38 -124 -38q-32 0 -55 7q-10 3 -8 15l6 32q2 11 14 8q25 -5 48 -5q63 0 84 36q19 34 19 124v430h-111q-11 0 -14 2.5t-3 11.5v23q0 12 18 12h162q16 0 16 -17zM325 773q0 -5 -4 -9l-9 -10q-6 -6 -10 -6q-5 0 -10 4l-111 83
l-111 -83q-5 -4 -10 -4q-6 0 -10 6l-8 10q-5 7 -5 11t6 10l118 107q8 6 14 6h12q6 0 14 -6l118 -107q6 -5 6 -12z" />
    <glyph glyph-name="jcircumflex" unicode="&#x135;" horiz-adv-x="246" 
d="M169 464v-438q0 -141 -46 -195q-42 -51 -125 -51q-20 0 -49 6q-9 1 -9 11v4l4 25q1 7 8 7h3q24 -4 47 -4q46 0 72 32q31 38 31 154v449q0 18 16 18h33q15 0 15 -18zM273 573q0 -5 -4 -9l-9 -10q-6 -6 -10 -6q-5 0 -10 4l-111 83l-111 -83q-5 -4 -10 -4t-10 6l-8 10
q-5 7 -5 11t6 10l118 107q8 6 14 6h12q6 0 14 -6l118 -107q6 -5 6 -12z" />
    <glyph glyph-name="Kcommaaccent" unicode="&#x136;" horiz-adv-x="517" 
d="M450 0q-19 0 -32 15l-270 314h-1v-311q0 -18 -16 -18h-38q-16 0 -16 18v651q0 18 16 18h38q16 0 16 -18v-294h1l262 302q9 10 23 10h43q6 0 7.5 -5t-2.5 -9l-272 -315l293 -339q6 -7 6 -13t-9 -6h-49zM307 -86q0 -30 -16.5 -61t-40.5 -47q-5 -4 -9 -4q-5 0 -8 5l-4 4
q-3 3 -3 7q0 2 4 6q25 25 25 50q0 10 -12 24.5t-12 25.5q0 16 10.5 26t26.5 10q17 0 28 -14t11 -32z" />
    <glyph glyph-name="kcommaaccent" unicode="&#x137;" horiz-adv-x="415" 
d="M349 0q-18 0 -28 14l-161 233l-29 -30v-199q0 -18 -16 -18h-32q-16 0 -16 18v668q0 16 13 18q36 5 39 5q12 0 12 -16v-404h2l169 183q9 10 18 10h50q13 0 3 -12l-167 -180l189 -269q14 -21 -9 -21h-37zM257 -86q0 -30 -16.5 -61t-40.5 -47q-5 -4 -9 -4q-5 0 -8 5l-4 4
q-3 3 -3 7q0 2 4 6q25 25 25 50q0 10 -12 24.5t-12 25.5q0 16 10.5 26t26.5 10q17 0 28 -14t11 -32z" />
    <glyph glyph-name="Lacute" unicode="&#x139;" horiz-adv-x="428" 
d="M413 42v-29q0 -8 -2.5 -10.5t-10.5 -2.5h-307q-16 0 -16 18v651q0 18 16 18h38q16 0 16 -18v-615h250q10 0 13 -2.5t3 -9.5zM257 837q0 -7 -9 -12l-158 -74q-6 -2 -8 -2q-8 0 -12 7l-9 14q-3 6 -3 9q0 7 7 11l147 90q5 4 12 4t13 -9l17 -27q3 -6 3 -11z" />
    <glyph glyph-name="lacute" unicode="&#x13a;" horiz-adv-x="199" 
d="M131 693v-675q0 -18 -16 -18h-32q-16 0 -16 18v668q0 16 13 18q36 5 39 5q12 0 12 -16zM213 822q0 -8 -9 -12l-158 -74q-6 -2 -8 -2q-8 0 -12 7l-9 14q-3 6 -3 9q0 7 7 11l147 90q5 4 12 4t13 -9l17 -27q3 -6 3 -11z" />
    <glyph glyph-name="Lcommaaccent" unicode="&#x13b;" horiz-adv-x="428" 
d="M413 42v-29q0 -8 -2.5 -10.5t-10.5 -2.5h-307q-16 0 -16 18v651q0 18 16 18h38q16 0 16 -18v-615h250q10 0 13 -2.5t3 -9.5zM299 -86q0 -30 -16.5 -61t-40.5 -47q-5 -4 -9 -4q-5 0 -8 5l-4 4q-3 3 -3 7q0 2 4 6q25 25 25 50q0 10 -12 24.5t-12 25.5q0 16 10.5 26t26.5 10
q17 0 28 -14t11 -32z" />
    <glyph glyph-name="lcommaaccent" unicode="&#x13c;" horiz-adv-x="199" 
d="M131 693v-675q0 -18 -16 -18h-32q-16 0 -16 18v668q0 16 13 18q36 5 39 5q12 0 12 -16zM133 -86q0 -30 -16.5 -61t-40.5 -47q-5 -4 -9 -4q-5 0 -8 5l-4 4q-3 3 -3 7q0 2 4 6q25 25 25 50q0 10 -12 24.5t-12 25.5q0 16 10.5 26t26.5 10q17 0 28 -14t11 -32z" />
    <glyph glyph-name="Lcaron" unicode="&#x13d;" horiz-adv-x="428" 
d="M413 42v-29q0 -8 -2.5 -10.5t-10.5 -2.5h-307q-16 0 -16 18v651q0 18 16 18h38q16 0 16 -18v-615h250q10 0 13 -2.5t3 -9.5zM357 645q0 -30 -16.5 -61t-40.5 -47q-5 -4 -9 -4q-5 0 -8 5l-4 4q-3 3 -3 7q0 2 4 6q25 25 25 50q0 10 -12 24.5t-12 25.5q0 16 10.5 26t26.5 10
q17 0 28 -14t11 -32z" />
    <glyph glyph-name="lcaron" unicode="&#x13e;" horiz-adv-x="259" 
d="M131 693v-675q0 -18 -16 -18h-32q-16 0 -16 18v668q0 16 13 18q36 5 39 5q12 0 12 -16zM259 657q0 -30 -16.5 -61t-40.5 -47q-5 -4 -9 -4q-5 0 -8 5l-4 4q-3 3 -3 7q0 2 4 6q25 25 25 50q0 10 -12 24.5t-12 25.5q0 16 10.5 26t26.5 10q17 0 28 -14t11 -32z" />
    <glyph glyph-name="Ldot" unicode="&#x13f;" horiz-adv-x="428" 
d="M413 42v-29q0 -8 -2.5 -10.5t-10.5 -2.5h-307q-16 0 -16 18v651q0 18 16 18h38q16 0 16 -18v-615h250q10 0 13 -2.5t3 -9.5zM380 377q0 -27 -19.5 -44t-43.5 -17q-25 0 -45 16.5t-20 43.5q0 28 19.5 44.5t45.5 16.5q25 0 44 -16.5t19 -43.5z" />
    <glyph glyph-name="ldot" unicode="&#x140;" horiz-adv-x="302" 
d="M312 361q0 -27 -19.5 -44t-43.5 -17q-25 0 -45 16.5t-20 43.5q0 28 19.5 44.5t45.5 16.5q25 0 44 -16.5t19 -43.5zM131 693v-675q0 -18 -16 -18h-32q-16 0 -16 18v668q0 16 13 18q36 5 39 5q12 0 12 -16z" />
    <glyph glyph-name="Lslash" unicode="&#x141;" horiz-adv-x="428" 
d="M413 42v-29q0 -8 -2.5 -10.5t-10.5 -2.5h-307q-16 0 -16 18v253l-53 -52q-9 -9 -14.5 -7.5t-5.5 10.5v26q0 10 17 27l56 56v338q0 18 16 18h38q16 0 16 -18v-269l65 65q10 9 15 7t5 -13v-21q0 -13 -17 -30l-68 -67v-287h250q10 0 13 -2.5t3 -9.5z" />
    <glyph glyph-name="lslash" unicode="&#x142;" horiz-adv-x="228" 
d="M228 459v-21q0 -13 -17 -30l-70 -69v-321q0 -18 -16 -18h-32q-16 0 -16 18v257l-57 -56q-9 -9 -14.5 -7.5t-5.5 10.5v26q0 10 17 27l60 60v351q0 16 13 18l35 5h4q12 0 12 -16v-295l67 67q10 9 15 7t5 -13z" />
    <glyph glyph-name="Nacute" unicode="&#x143;" horiz-adv-x="672" 
d="M595 670v-652q0 -18 -13 -18h-32q-13 0 -26 18l-382 542h-2v-542q0 -18 -16 -18h-31q-16 0 -16 18v651q0 18 16 18h25q14 0 22 -13l391 -556h2v551q0 18 15 18h31q16 0 16 -17zM439 839q0 -7 -9 -12l-158 -74q-6 -2 -8 -2q-8 0 -12 7l-9 14q-3 6 -3 9q0 7 7 11l147 90
q5 4 12 4t13 -9l17 -27q3 -6 3 -11z" />
    <glyph glyph-name="nacute" unicode="&#x144;" horiz-adv-x="523" 
d="M456 312v-294q0 -18 -16 -18h-32q-16 0 -16 18v285q0 68 -23.5 103.5t-87.5 35.5q-36 0 -78.5 -18.5t-71.5 -45.5v-360q0 -18 -16 -18h-32q-16 0 -16 18v446q0 18 16 18h31q16 0 16 -18l1 -34q70 62 167 62q158 0 158 -180zM361 651q0 -7 -9 -12l-158 -74q-6 -2 -8 -2
q-8 0 -12 7l-9 14q-3 6 -3 9q0 7 7 11l147 90q5 4 12 4t13 -9l17 -27q3 -6 3 -11z" />
    <glyph glyph-name="Ncommaaccent" unicode="&#x145;" horiz-adv-x="672" 
d="M595 670v-652q0 -18 -13 -18h-32q-13 0 -26 18l-382 542h-2v-542q0 -18 -16 -18h-31q-16 0 -16 18v651q0 18 16 18h25q14 0 22 -13l391 -556h2v551q0 18 15 18h31q16 0 16 -17zM362 -86q0 -30 -16.5 -61t-40.5 -47q-5 -4 -9 -4q-6 0 -8 5l-4 4q-3 3 -3 7q0 2 4 6
q25 25 25 50q0 10 -12 24.5t-12 25.5q0 16 10.5 26t26.5 10q17 0 28 -14t11 -32z" />
    <glyph glyph-name="ncommaaccent" unicode="&#x146;" horiz-adv-x="523" 
d="M456 312v-294q0 -18 -16 -18h-32q-16 0 -16 18v285q0 68 -23.5 103.5t-87.5 35.5q-36 0 -78.5 -18.5t-71.5 -45.5v-360q0 -18 -16 -18h-32q-16 0 -16 18v446q0 18 16 18h31q16 0 16 -18l1 -34q70 62 167 62q158 0 158 -180zM292 -86q0 -30 -16.5 -61t-40.5 -47
q-5 -4 -9 -4q-6 0 -8 5l-4 4q-3 3 -3 7q0 2 4 6q25 25 25 50q0 10 -12 24.5t-12 25.5q0 16 10.5 26t26.5 10q17 0 28 -14t11 -32z" />
    <glyph glyph-name="Ncaron" unicode="&#x147;" horiz-adv-x="672" 
d="M595 670v-652q0 -18 -13 -18h-32q-13 0 -26 18l-382 542h-2v-542q0 -18 -16 -18h-31q-16 0 -16 18v651q0 18 16 18h25q14 0 22 -13l391 -556h2v551q0 18 15 18h31q16 0 16 -17zM480 874q0 -6 -6 -10l-118 -107q-6 -6 -14 -6h-12q-8 0 -14 6l-118 107q-6 4 -6 11q0 6 4 10
l9 10q6 6 11 6q3 0 9 -4l111 -83l111 83q5 4 10 4t10 -6l8 -10q5 -7 5 -11z" />
    <glyph glyph-name="ncaron" unicode="&#x148;" horiz-adv-x="523" 
d="M456 312v-294q0 -18 -16 -18h-32q-16 0 -16 18v285q0 68 -23.5 103.5t-87.5 35.5q-36 0 -78.5 -18.5t-71.5 -45.5v-360q0 -18 -16 -18h-32q-16 0 -16 18v446q0 18 16 18h31q16 0 16 -18l1 -34q70 62 167 62q158 0 158 -180zM405 679q0 -5 -6 -10l-118 -107q-6 -6 -14 -6
h-12q-8 0 -14 6l-118 107q-6 5 -6 11t4 10l9 10q6 6 11 6q3 0 9 -4l111 -83l111 83q5 4 10 4q6 0 10 -6l8 -10q5 -7 5 -11z" />
    <glyph glyph-name="Omacron" unicode="&#x14c;" horiz-adv-x="662" 
d="M617 348q0 -166 -80.5 -261.5t-204.5 -95.5q-128 0 -201.5 93t-73.5 257q0 162 80 259.5t205 97.5q130 0 202.5 -95t72.5 -255zM542 345q0 138 -52.5 217t-149.5 79q-93 0 -150.5 -84t-57.5 -213q0 -137 54 -217t149 -80q92 0 149.5 82.5t57.5 215.5zM460 807v-17
q0 -12 -5.5 -16.5t-23.5 -4.5h-200q-16 0 -21 4.5t-5 16.5v17q0 11 5 15.5t21 4.5h200q18 0 23.5 -4t5.5 -16z" />
    <glyph glyph-name="omacron" unicode="&#x14d;" horiz-adv-x="522" 
d="M481 242q0 -109 -59.5 -180t-164.5 -71q-108 0 -162 69.5t-54 181.5q0 109 59 179.5t163 70.5q108 0 163 -68.5t55 -181.5zM415 240q0 85 -36.5 144t-115.5 59q-43 0 -74.5 -17.5t-48.5 -47.5t-25 -63.5t-8 -70.5q0 -86 35.5 -145.5t115.5 -59.5q42 0 73.5 17t49 46.5
t26 64t8.5 73.5zM388 624v-17q0 -12 -5.5 -16.5t-23.5 -4.5h-200q-16 0 -21 4.5t-5 16.5v17q0 11 5 15.5t21 4.5h200q18 0 23.5 -4t5.5 -16z" />
    <glyph glyph-name="Obreve" unicode="&#x14e;" horiz-adv-x="662" 
d="M617 348q0 -166 -80.5 -261.5t-204.5 -95.5q-128 0 -201.5 93t-73.5 257q0 162 80 259.5t205 97.5q130 0 202.5 -95t72.5 -255zM542 345q0 138 -52.5 217t-149.5 79q-93 0 -150.5 -84t-57.5 -213q0 -137 54 -217t149 -80q92 0 149.5 82.5t57.5 215.5zM461 851
q0 -24 -16 -46.5t-39 -35.5q-31 -17 -70 -17q-43 0 -76 19q-22 13 -37.5 35t-15.5 45q0 12 15 12h21q10 0 13.5 -2.5t8.5 -11.5q23 -46 69 -46q49 0 71 46q5 9 8.5 11.5t13.5 2.5h19q15 0 15 -12z" />
    <glyph glyph-name="obreve" unicode="&#x14f;" horiz-adv-x="522" 
d="M481 242q0 -109 -59.5 -180t-164.5 -71q-108 0 -162 69.5t-54 181.5q0 109 59 179.5t163 70.5q108 0 163 -68.5t55 -181.5zM415 240q0 85 -36.5 144t-115.5 59q-43 0 -74.5 -17.5t-48.5 -47.5t-25 -63.5t-8 -70.5q0 -86 35.5 -145.5t115.5 -59.5q42 0 73.5 17t49 46.5
t26 64t8.5 73.5zM388 662q0 -24 -16 -46.5t-39 -35.5q-31 -17 -70 -17q-43 0 -76 19q-22 13 -37.5 35t-15.5 45q0 12 15 12h21q10 0 13.5 -2.5t8.5 -11.5q23 -46 69 -46q49 0 71 46q5 9 8.5 11.5t13.5 2.5h19q15 0 15 -12z" />
    <glyph glyph-name="Ohungarumlaut" unicode="&#x150;" horiz-adv-x="662" 
d="M617 348q0 -166 -80.5 -261.5t-204.5 -95.5q-128 0 -201.5 93t-73.5 257q0 162 80 259.5t205 97.5q130 0 202.5 -95t72.5 -255zM542 345q0 138 -52.5 217t-149.5 79q-93 0 -150.5 -84t-57.5 -213q0 -137 54 -217t149 -80q92 0 149.5 82.5t57.5 215.5zM573 839
q0 -7 -9 -12l-158 -74q-6 -2 -8 -2q-8 0 -12 7l-9 14q-3 6 -3 9q0 7 7 11l147 90q5 4 11 4q8 0 14 -9l17 -27q3 -6 3 -11zM348 839q0 -7 -9 -12l-158 -74q-6 -2 -9 -2q-7 0 -11 7l-9 14q-4 8 -4 9q0 6 8 11l147 90q5 4 11 4q7 0 13 -9l17 -27q4 -8 4 -11z" />
    <glyph glyph-name="ohungarumlaut" unicode="&#x151;" horiz-adv-x="522" 
d="M481 242q0 -109 -59.5 -180t-164.5 -71q-108 0 -162 69.5t-54 181.5q0 109 59 179.5t163 70.5q108 0 163 -68.5t55 -181.5zM415 240q0 85 -36.5 144t-115.5 59q-43 0 -74.5 -17.5t-48.5 -47.5t-25 -63.5t-8 -70.5q0 -86 35.5 -145.5t115.5 -59.5q42 0 73.5 17t49 46.5
t26 64t8.5 73.5zM513 650q0 -8 -9 -12l-158 -74q-6 -2 -8 -2q-8 0 -12 7l-9 14q-3 6 -3 9q0 7 7 11l147 90q5 4 11 4q8 0 14 -9l17 -27q3 -6 3 -11zM288 650q0 -8 -9 -12l-158 -74q-6 -2 -9 -2q-7 0 -11 7l-9 14q-4 8 -4 9q0 6 8 11l147 90q5 4 11 4q7 0 13 -9l17 -27
q4 -8 4 -11z" />
    <glyph glyph-name="OE" unicode="&#x152;" horiz-adv-x="914" 
d="M869 41v-27q0 -8 -3 -11t-13 -3h-334q-11 0 -14.5 3.5t-3.5 14.5v42q-72 -69 -181 -69q-128 0 -197.5 91.5t-69.5 258.5q0 163 79.5 260t205.5 97q111 0 163 -69v41q0 10 3.5 13.5t13.5 3.5h335q14 0 14 -12v-4l-3 -24q-1 -13 -23 -13h-271v-243h239q17 0 17 -15v-24
q0 -15 -16 -15h-240v-283h282q10 0 13.5 -2.5t3.5 -10.5zM501 127v430q-53 85 -165 85q-93 0 -150.5 -84t-57.5 -214q0 -135 52.5 -216t146.5 -81q49 0 96.5 21.5t77.5 58.5z" />
    <glyph glyph-name="oe" unicode="&#x153;" horiz-adv-x="860" 
d="M823 284q0 -20 -1 -29q-1 -17 -28 -17h-316q0 -87 38 -143q40 -59 128 -59q71 0 126 24q6 2 7 2q8 0 10 -9l5 -17q1 -3 1 -8q0 -7 -10 -11q-57 -27 -143 -27q-106 0 -163 60q-20 22 -36 53q-55 -113 -181 -113q-107 0 -162 70t-55 181q0 107 59.5 179t163.5 72
q132 0 179 -113q60 113 192 113q86 0 136 -59t50 -149zM417 239q0 83 -37 144.5t-115 61.5q-81 0 -118.5 -60t-37.5 -142q0 -85 36 -146t116 -61t118 59t38 144zM758 302q0 61 -32 102.5t-92 41.5q-67 0 -107 -47.5t-47 -115.5h277q1 7 1 19z" />
    <glyph glyph-name="Racute" unicode="&#x154;" horiz-adv-x="530" 
d="M408 16l-153 279h-108v-277q0 -18 -16 -18h-38q-16 0 -16 18v651q0 18 16 18h140q236 0 236 -195q0 -71 -42 -119.5t-105 -66.5l163 -288q11 -18 -6 -18h-45q-17 0 -26 16zM396 492q0 75 -44.5 108t-132.5 33h-72v-284h86q72 0 117.5 37.5t45.5 105.5zM366 840
q0 -8 -9 -12l-158 -74q-6 -2 -8 -2q-8 0 -12 7l-9 14q-3 6 -3 9q0 7 7 11l147 90q5 4 12 4t13 -9l17 -27q3 -6 3 -11z" />
    <glyph glyph-name="racute" unicode="&#x155;" horiz-adv-x="293" 
d="M243 492q14 0 29 -3q10 -1 8 -11l-5 -33q-2 -10 -10 -8q-20 4 -32 4q-27 0 -54.5 -18.5t-47.5 -48.5v-356q0 -18 -16 -18h-32q-16 0 -16 18v446q0 18 16 18h31q16 0 16 -18l1 -35q17 25 47 44t65 19zM246 651q0 -7 -9 -12l-158 -74q-6 -2 -8 -2q-8 0 -12 7l-9 14
q-3 6 -3 9q0 7 7 11l147 90q5 4 12 4t13 -9l17 -27q3 -6 3 -11z" />
    <glyph glyph-name="Rcommaaccent" unicode="&#x156;" horiz-adv-x="530" 
d="M408 16l-153 279h-108v-277q0 -18 -16 -18h-38q-16 0 -16 18v651q0 18 16 18h140q236 0 236 -195q0 -71 -42 -119.5t-105 -66.5l163 -288q11 -18 -6 -18h-45q-17 0 -26 16zM396 492q0 75 -44.5 108t-132.5 33h-72v-284h86q72 0 117.5 37.5t45.5 105.5zM303 -86
q0 -30 -16.5 -61t-40.5 -47q-5 -4 -9 -4q-5 0 -8 5l-4 4q-3 3 -3 7q0 2 4 6q25 25 25 50q0 10 -12 24.5t-12 25.5q0 16 10.5 26t26.5 10q17 0 28 -14t11 -32z" />
    <glyph glyph-name="rcommaaccent" unicode="&#x157;" horiz-adv-x="293" 
d="M243 492q14 0 29 -3q10 -1 8 -11l-5 -33q-2 -10 -10 -8q-20 4 -32 4q-27 0 -54.5 -18.5t-47.5 -48.5v-356q0 -18 -16 -18h-32q-16 0 -16 18v446q0 18 16 18h31q16 0 16 -18l1 -35q17 25 47 44t65 19zM142 -86q0 -30 -16.5 -61t-40.5 -47q-5 -4 -9 -4q-6 0 -8 5l-4 4
q-3 3 -3 7q0 2 4 6q25 25 25 50q0 10 -12 24.5t-12 25.5q0 16 10.5 26t26.5 10q17 0 28 -14t11 -32z" />
    <glyph glyph-name="Rcaron" unicode="&#x158;" horiz-adv-x="530" 
d="M408 16l-153 279h-108v-277q0 -18 -16 -18h-38q-16 0 -16 18v651q0 18 16 18h140q236 0 236 -195q0 -71 -42 -119.5t-105 -66.5l163 -288q11 -18 -6 -18h-45q-17 0 -26 16zM396 492q0 75 -44.5 108t-132.5 33h-72v-284h86q72 0 117.5 37.5t45.5 105.5zM398 875
q0 -5 -6 -10l-118 -107q-6 -6 -14 -6h-12q-8 0 -14 6l-118 107q-6 5 -6 11t4 10l9 10q6 6 11 6q3 0 9 -4l111 -83l111 83q5 4 10 4t10 -6l8 -10q5 -7 5 -11z" />
    <glyph glyph-name="rcaron" unicode="&#x159;" horiz-adv-x="293" 
d="M243 492q14 0 29 -3q10 -1 8 -11l-5 -33q-2 -10 -10 -8q-20 4 -32 4q-27 0 -54.5 -18.5t-47.5 -48.5v-356q0 -18 -16 -18h-32q-16 0 -16 18v446q0 18 16 18h31q16 0 16 -18l1 -35q17 25 47 44t65 19zM291 681q0 -5 -6 -10l-118 -107q-6 -6 -14 -6h-12q-8 0 -14 6
l-118 107q-6 5 -6 11t4 10l9 10q6 6 11 6q3 0 9 -4l111 -83l111 83q5 4 10 4q6 0 10 -6l8 -10q5 -7 5 -11z" />
    <glyph glyph-name="Sacute" unicode="&#x15a;" horiz-adv-x="486" 
d="M445 178q0 -90 -65 -138.5t-160 -48.5q-75 0 -155 26q-17 6 -12 21l10 33q5 13 21 7q77 -28 138 -28q64 0 109 31t45 93q0 43 -25 72.5t-72 56.5l-124 70q-106 60 -106 156q0 79 59.5 124t141.5 45t147 -27q17 -7 12 -22l-10 -28q-5 -13 -21 -7q-70 28 -124 28
q-58 0 -95 -28q-39 -29 -39 -73q0 -71 83 -118l104 -59q68 -38 103 -79.5t35 -106.5zM352 840q0 -8 -9 -12l-158 -74q-6 -2 -8 -2q-8 0 -12 7l-9 14q-3 6 -3 9q0 7 7 11l147 90q5 4 12 4t13 -9l17 -27q3 -6 3 -11z" />
    <glyph glyph-name="sacute" unicode="&#x15b;" horiz-adv-x="376" 
d="M196 492q63 0 121 -27q9 -5 7 -11l-10 -28q-3 -11 -15 -6q-50 24 -103 24q-43 0 -68.5 -20t-25.5 -52q0 -30 16.5 -47t53.5 -32l71 -30q103 -43 103 -126q0 -64 -48.5 -105t-128.5 -41q-67 0 -127 30q-12 6 -8 14l12 31q4 8 11 5q60 -30 115 -30q51 0 81 23.5t30 64.5
q0 32 -21.5 52.5t-62.5 37.5l-60 24q-103 41 -103 121q0 59 46 93.5t114 34.5zM287 651q0 -7 -9 -12l-158 -74q-6 -2 -8 -2q-8 0 -12 7l-9 14q-3 6 -3 9q0 7 7 11l147 90q5 4 12 4t13 -9l17 -27q3 -6 3 -11z" />
    <glyph glyph-name="Scircumflex" unicode="&#x15c;" horiz-adv-x="486" 
d="M445 178q0 -90 -65 -138.5t-160 -48.5q-75 0 -155 26q-17 6 -12 21l10 33q5 13 21 7q77 -28 138 -28q64 0 109 31t45 93q0 43 -25 72.5t-72 56.5l-124 70q-106 60 -106 156q0 79 59.5 124t141.5 45t147 -27q17 -7 12 -22l-10 -28q-5 -13 -21 -7q-70 28 -124 28
q-58 0 -95 -28q-39 -29 -39 -73q0 -71 83 -118l104 -59q68 -38 103 -79.5t35 -106.5zM387 773q0 -5 -4 -9l-9 -10q-6 -6 -10 -6q-5 0 -10 4l-111 83l-111 -83q-5 -4 -10 -4q-6 0 -10 6l-8 10q-5 7 -5 11t6 10l118 107q8 6 14 6h12q6 0 14 -6l118 -107q6 -5 6 -12z" />
    <glyph glyph-name="scircumflex" unicode="&#x15d;" horiz-adv-x="376" 
d="M196 492q63 0 121 -27q9 -5 7 -11l-10 -28q-3 -11 -15 -6q-50 24 -103 24q-43 0 -68.5 -20t-25.5 -52q0 -30 16.5 -47t53.5 -32l71 -30q103 -43 103 -126q0 -64 -48.5 -105t-128.5 -41q-67 0 -127 30q-12 6 -8 14l12 31q4 8 11 5q60 -30 115 -30q51 0 81 23.5t30 64.5
q0 32 -21.5 52.5t-62.5 37.5l-60 24q-103 41 -103 121q0 59 46 93.5t114 34.5zM332 583q0 -5 -4 -9l-9 -10q-6 -6 -10 -6q-5 0 -10 4l-111 83l-111 -83q-5 -4 -10 -4t-10 6l-8 10q-5 7 -5 11t6 10l118 107q8 6 14 6h12q6 0 14 -6l118 -107q6 -5 6 -12z" />
    <glyph glyph-name="Scedilla" unicode="&#x15e;" horiz-adv-x="486" 
d="M336 -121q0 -33 -23 -55t-69 -22q-30 0 -61 12q-14 6 -14 12q0 3 1 5l4 12q3 8 8 8q1 0 9 -2q27 -10 53 -10q17 0 30.5 9t14.5 26v4q0 36 -53 36h-16q-25 0 -25 23q0 9 1 14l4 41q-69 3 -135 25q-17 6 -12 21l10 33q5 13 21 7q77 -28 138 -28q64 0 109 31t45 93
q0 43 -25 72.5t-72 56.5l-124 70q-106 60 -106 156q0 79 59.5 124t141.5 45t147 -27q17 -7 12 -22l-10 -28q-5 -13 -21 -7q-70 28 -124 28q-58 0 -95 -28q-39 -29 -39 -73q0 -71 83 -118l104 -59q68 -38 103 -79.5t35 -106.5q0 -85 -57 -132.5t-145 -53.5l-2 -42h8
q36 0 61.5 -16.5t25.5 -54.5z" />
    <glyph glyph-name="scedilla" unicode="&#x15f;" horiz-adv-x="376" 
d="M271 -121q0 -33 -23 -55t-69 -22q-29 0 -61 12q-14 6 -14 12q0 3 1 5l4 12q3 8 8 8q1 0 9 -2q27 -10 53 -10q17 0 30.5 9t14.5 26v4q0 36 -53 36h-16q-25 0 -25 23q0 9 1 14l4 43q-53 7 -93 27q-12 6 -8 14l12 31q4 8 11 5q60 -30 115 -30q51 0 81 23.5t30 64.5
q0 32 -21.5 52.5t-62.5 37.5l-60 24q-103 41 -103 121q0 59 46 93.5t114 34.5q63 0 121 -27q9 -5 7 -11l-10 -28q-3 -11 -15 -6q-50 24 -103 24q-43 0 -68.5 -20t-25.5 -52q0 -30 16.5 -47t53.5 -32l71 -30q103 -43 103 -126q0 -62 -45.5 -102.5t-122.5 -43.5l-2 -41h8
q36 0 61.5 -16.5t25.5 -54.5z" />
    <glyph glyph-name="Scaron" unicode="&#x160;" horiz-adv-x="486" 
d="M445 178q0 -90 -65 -138.5t-160 -48.5q-75 0 -155 26q-17 6 -12 21l10 33q5 13 21 7q77 -28 138 -28q64 0 109 31t45 93q0 43 -25 72.5t-72 56.5l-124 70q-106 60 -106 156q0 79 59.5 124t141.5 45t147 -27q17 -7 12 -22l-10 -28q-5 -13 -21 -7q-70 28 -124 28
q-58 0 -95 -28q-39 -29 -39 -73q0 -71 83 -118l104 -59q68 -38 103 -79.5t35 -106.5zM387 874q0 -6 -6 -10l-118 -107q-6 -6 -14 -6h-12q-8 0 -14 6l-118 107q-6 4 -6 11q0 6 4 10l9 10q6 6 11 6q3 0 9 -4l111 -83l111 83q5 4 10 4q6 0 10 -6l8 -10q5 -7 5 -11z" />
    <glyph glyph-name="scaron" unicode="&#x161;" horiz-adv-x="376" 
d="M196 492q63 0 121 -27q9 -5 7 -11l-10 -28q-3 -11 -15 -6q-50 24 -103 24q-43 0 -68.5 -20t-25.5 -52q0 -30 16.5 -47t53.5 -32l71 -30q103 -43 103 -126q0 -64 -48.5 -105t-128.5 -41q-67 0 -127 30q-12 6 -8 14l12 31q4 8 11 5q60 -30 115 -30q51 0 81 23.5t30 64.5
q0 32 -21.5 52.5t-62.5 37.5l-60 24q-103 41 -103 121q0 59 46 93.5t114 34.5zM332 681q0 -5 -6 -10l-118 -107q-6 -6 -14 -6h-12q-8 0 -14 6l-118 107q-6 5 -6 11t4 10l9 10q6 6 11 6q3 0 9 -4l111 -83l111 83q5 4 10 4t10 -6l8 -10q5 -7 5 -11z" />
    <glyph glyph-name="Tcommaaccent" unicode="&#x162;" horiz-adv-x="531" 
d="M500 687q9 0 12 -2.5t2 -8.5l-5 -30q-2 -13 -21 -13h-193v-615q0 -18 -16 -18h-37q-16 0 -16 18v615h-196q-8 0 -10.5 2t-2.5 9v31q0 7 2 9.5t9 2.5h472zM294 -86q0 -30 -16.5 -61t-40.5 -47q-5 -4 -9 -4q-6 0 -8 5l-4 4q-3 3 -3 7q0 2 4 6q25 25 25 50q0 10 -12 24.5
t-12 25.5q0 16 10.5 26t26.5 10q17 0 28 -14t11 -32z" />
    <glyph glyph-name="tcommaaccent" unicode="&#x163;" horiz-adv-x="327" 
d="M292 52q13 5 15 -6l5 -25q2 -10 -10 -15q-41 -15 -82 -15q-70 0 -103 34q-19 20 -24.5 48t-5.5 77v285h-59q-11 0 -11 10v27q0 6 1.5 8t7.5 2h61v117q0 16 13 18l35 5h4q12 0 12 -16v-124h121q11 0 11 -11v-26q0 -10 -12 -10h-120v-295q0 -60 20 -80q19 -19 59 -19
q31 0 62 11zM236 -86q0 -30 -16.5 -61t-40.5 -47q-5 -4 -9 -4q-6 0 -8 5l-4 4q-3 3 -3 7q0 2 4 6q25 25 25 50q0 10 -12 24.5t-12 25.5q0 16 10.5 26t26.5 10q17 0 28 -14t11 -32z" />
    <glyph glyph-name="Tcaron" unicode="&#x164;" horiz-adv-x="531" 
d="M500 687q9 0 12 -2.5t2 -8.5l-5 -30q-2 -13 -21 -13h-193v-615q0 -18 -16 -18h-37q-16 0 -16 18v615h-196q-8 0 -10.5 2t-2.5 9v31q0 7 2 9.5t9 2.5h472zM404 873q0 -6 -6 -10l-118 -107q-6 -6 -14 -6h-12q-8 0 -14 6l-118 107q-6 4 -6 11q0 6 4 10l9 10q6 6 11 6
q3 0 9 -4l111 -83l111 83q5 4 10 4t10 -6l8 -10q5 -7 5 -11z" />
    <glyph glyph-name="tcaron" unicode="&#x165;" horiz-adv-x="327" 
d="M292 52q13 5 15 -6l5 -25q2 -10 -10 -15q-41 -15 -82 -15q-70 0 -103 34q-19 20 -24.5 48t-5.5 77v285h-59q-11 0 -11 10v27q0 6 1.5 8t7.5 2h61v117q0 16 13 18l35 5h4q12 0 12 -16v-124h121q11 0 11 -11v-26q0 -10 -12 -10h-120v-295q0 -60 20 -80q19 -19 59 -19
q31 0 62 11zM298 657q0 -30 -16.5 -61t-40.5 -47q-5 -4 -9 -4q-6 0 -8 5l-4 4q-3 3 -3 7q0 2 4 6q25 25 25 50q0 10 -12 24.5t-12 25.5q0 16 10.5 26t26.5 10q17 0 28 -14t11 -32z" />
    <glyph glyph-name="Tbar" unicode="&#x166;" horiz-adv-x="531" 
d="M500 687q9 0 12 -2.5t2 -8.5l-5 -30q-2 -13 -21 -13h-193v-274h89q13 0 16.5 -3t3.5 -14v-20q0 -11 -3.5 -15t-13.5 -4h-92v-285q0 -18 -16 -18h-37q-16 0 -16 18v285h-83q-12 0 -16 3t-4 12v26q0 9 3.5 12t13.5 3h86v274h-196q-8 0 -10.5 2t-2.5 9v31q0 7 2 9.5t9 2.5
h472z" />
    <glyph glyph-name="tbar" unicode="&#x167;" horiz-adv-x="327" 
d="M292 52q13 5 15 -6l5 -25q2 -10 -10 -15q-41 -15 -82 -15q-70 0 -103 34q-19 20 -24.5 48t-5.5 77v73h-51q-12 0 -16 3t-4 12v20q0 9 3.5 12t13.5 3h54v162h-59q-11 0 -11 10v27q0 6 1.5 8t7.5 2h61v117q0 16 13 18l35 5h4q12 0 12 -16v-124h121q11 0 11 -11v-26
q0 -10 -12 -10h-120v-162h103q13 0 16.5 -3t3.5 -14v-14q0 -11 -3.5 -15t-13.5 -4h-106v-83q0 -60 20 -80q19 -19 59 -19q31 0 62 11z" />
    <glyph glyph-name="Utilde" unicode="&#x168;" horiz-adv-x="681" 
d="M604 669v-372q0 -148 -62 -225q-65 -81 -199 -81q-160 0 -220 93q-46 71 -46 222v363q0 18 16 18h38q16 0 16 -18v-355q0 -112 21 -164q39 -100 174 -100q130 0 170 97q23 57 23 168v354q0 18 16 18h37q16 0 16 -18zM500 821q0 -8 -8 -14q-56 -43 -104 -43
q-20 0 -53 17.5t-50 17.5q-24 0 -63 -24q-10 -6 -16 -6q-7 0 -11 10l-8 18q-4 10 -4 11q0 7 14 16q52 32 90 32q21 0 59 -17.5t50 -17.5q22 0 62 27q9 5 15 5q9 0 14 -9l8 -11q5 -8 5 -12z" />
    <glyph glyph-name="utilde" unicode="&#x169;" horiz-adv-x="513" 
d="M446 464v-446q0 -18 -16 -18h-31q-16 0 -16 18l-1 35q-70 -62 -157 -62q-71 0 -113 40q-45 45 -45 142v291q0 18 16 18h32q16 0 16 -18v-282q0 -77 29 -110q26 -29 81 -29q34 0 74.5 20t66.5 46v355q0 18 16 18h32q16 0 16 -18zM415 637q0 -8 -8 -14q-56 -43 -104 -43
q-20 0 -53 17.5t-50 17.5q-24 0 -63 -24q-11 -6 -16 -6q-7 0 -11 10l-8 18q-4 10 -4 11q0 7 14 16q52 32 90 32q22 0 59 -17.5t50 -17.5q21 0 62 27q9 5 15 5q9 0 14 -9l8 -11q5 -8 5 -12z" />
    <glyph glyph-name="Umacron" unicode="&#x16a;" horiz-adv-x="681" 
d="M604 669v-372q0 -148 -62 -225q-65 -81 -199 -81q-160 0 -220 93q-46 71 -46 222v363q0 18 16 18h38q16 0 16 -18v-355q0 -112 21 -164q39 -100 174 -100q130 0 170 97q23 57 23 168v354q0 18 16 18h37q16 0 16 -18zM468 807v-17q0 -12 -5.5 -16.5t-23.5 -4.5h-200
q-16 0 -21 4.5t-5 16.5v17q0 11 5 15.5t21 4.5h200q18 0 23.5 -4t5.5 -16z" />
    <glyph glyph-name="umacron" unicode="&#x16b;" horiz-adv-x="513" 
d="M446 464v-446q0 -18 -16 -18h-31q-16 0 -16 18l-1 35q-70 -62 -157 -62q-71 0 -113 40q-45 45 -45 142v291q0 18 16 18h32q16 0 16 -18v-282q0 -77 29 -110q26 -29 81 -29q34 0 74.5 20t66.5 46v355q0 18 16 18h32q16 0 16 -18zM384 624v-17q0 -12 -5.5 -16.5t-23.5 -4.5
h-200q-16 0 -21 4.5t-5 16.5v17q0 11 5 15.5t21 4.5h200q18 0 23.5 -4t5.5 -16z" />
    <glyph glyph-name="Ubreve" unicode="&#x16c;" horiz-adv-x="681" 
d="M604 669v-372q0 -148 -62 -225q-65 -81 -199 -81q-160 0 -220 93q-46 71 -46 222v363q0 18 16 18h38q16 0 16 -18v-355q0 -112 21 -164q39 -100 174 -100q130 0 170 97q23 57 23 168v354q0 18 16 18h37q16 0 16 -18zM467 851q0 -24 -16 -46.5t-39 -35.5q-31 -17 -70 -17
q-43 0 -76 19q-22 13 -37.5 35t-15.5 45q0 12 15 12h21q10 0 13.5 -2.5t8.5 -11.5q23 -46 69 -46q49 0 71 46q5 9 8.5 11.5t13.5 2.5h19q15 0 15 -12z" />
    <glyph glyph-name="ubreve" unicode="&#x16d;" horiz-adv-x="513" 
d="M446 464v-446q0 -18 -16 -18h-31q-16 0 -16 18l-1 35q-70 -62 -157 -62q-71 0 -113 40q-45 45 -45 142v291q0 18 16 18h32q16 0 16 -18v-282q0 -77 29 -110q26 -29 81 -29q34 0 74.5 20t66.5 46v355q0 18 16 18h32q16 0 16 -18zM383 662q0 -24 -16 -46.5t-39 -35.5
q-31 -17 -70 -17q-43 0 -76 19q-22 13 -37.5 35t-15.5 45q0 12 15 12h21q10 0 13.5 -2.5t8.5 -11.5q23 -46 69 -46q49 0 71 46q5 9 8.5 11.5t13.5 2.5h19q15 0 15 -12z" />
    <glyph glyph-name="Uring" unicode="&#x16e;" horiz-adv-x="681" 
d="M604 669v-372q0 -148 -62 -225q-65 -81 -199 -81q-160 0 -220 93q-46 71 -46 222v363q0 18 16 18h38q16 0 16 -18v-355q0 -112 21 -164q39 -100 174 -100q130 0 170 97q23 57 23 168v354q0 18 16 18h37q16 0 16 -18zM420 830q0 -32 -23.5 -55.5t-56.5 -23.5
q-32 0 -56.5 23.5t-24.5 55.5t24.5 56t56.5 24q33 0 56.5 -24t23.5 -56zM372 830q0 14 -9 23t-23 9t-23.5 -9.5t-9.5 -22.5t9.5 -22.5t23.5 -9.5t23 9t9 23z" />
    <glyph glyph-name="uring" unicode="&#x16f;" horiz-adv-x="513" 
d="M446 464v-446q0 -18 -16 -18h-31q-16 0 -16 18l-1 35q-70 -62 -157 -62q-71 0 -113 40q-45 45 -45 142v291q0 18 16 18h32q16 0 16 -18v-282q0 -77 29 -110q26 -29 81 -29q34 0 74.5 20t66.5 46v355q0 18 16 18h32q16 0 16 -18zM337 618q0 -32 -23.5 -55.5t-56.5 -23.5
q-32 0 -56.5 23.5t-24.5 55.5t24.5 56t56.5 24q33 0 56.5 -24t23.5 -56zM289 618q0 14 -9.5 23t-22.5 9q-14 0 -23.5 -9.5t-9.5 -22.5t9.5 -22.5t23.5 -9.5q13 0 22.5 9t9.5 23z" />
    <glyph glyph-name="Uhungarumlaut" unicode="&#x170;" horiz-adv-x="681" 
d="M604 669v-372q0 -148 -62 -225q-65 -81 -199 -81q-160 0 -220 93q-46 71 -46 222v363q0 18 16 18h38q16 0 16 -18v-355q0 -112 21 -164q39 -100 174 -100q130 0 170 97q23 57 23 168v354q0 18 16 18h37q16 0 16 -18zM573 840q0 -8 -9 -12l-158 -74q-6 -2 -8 -2
q-8 0 -12 7l-9 14q-3 6 -3 9q0 7 7 11l147 90q5 4 11 4q8 0 14 -9l17 -27q3 -6 3 -11zM348 840q0 -8 -9 -12l-158 -74q-6 -2 -9 -2q-7 0 -11 7l-9 14q-4 8 -4 9q0 6 8 11l147 90q5 4 11 4q7 0 13 -9l17 -27q4 -8 4 -11z" />
    <glyph glyph-name="uhungarumlaut" unicode="&#x171;" horiz-adv-x="513" 
d="M446 464v-446q0 -18 -16 -18h-31q-16 0 -16 18l-1 35q-70 -62 -157 -62q-71 0 -113 40q-45 45 -45 142v291q0 18 16 18h32q16 0 16 -18v-282q0 -77 29 -110q26 -29 81 -29q34 0 74.5 20t66.5 46v355q0 18 16 18h32q16 0 16 -18zM503 650q0 -8 -9 -12l-158 -74
q-6 -2 -8 -2q-8 0 -12 7l-9 14q-3 6 -3 9q0 7 7 11l147 90q5 4 11 4q8 0 14 -9l17 -27q3 -6 3 -11zM278 650q0 -8 -9 -12l-158 -74q-6 -2 -9 -2q-7 0 -11 7l-9 14q-4 8 -4 9q0 6 8 11l147 90q5 4 11 4q7 0 13 -9l17 -27q4 -8 4 -11z" />
    <glyph glyph-name="Uogonek" unicode="&#x172;" horiz-adv-x="681" 
d="M433 -170q0 -11 -12 -15q-39 -15 -81 -15q-46 0 -70.5 23t-24.5 55q0 67 80 114q-146 4 -202 92q-46 71 -46 222v363q0 18 16 18h38q16 0 16 -18v-355q0 -112 21 -164q39 -100 174 -100q130 0 170 97q23 57 23 168v354q0 18 16 18h37q16 0 16 -18v-372q0 -148 -62 -225
q-55 -68 -156 -78q-43 -34 -61.5 -57.5t-18.5 -47.5q0 -42 55 -42q27 0 54 9h1l2 1q9 0 10 -7l4 -14q1 -2 1 -6z" />
    <glyph glyph-name="uogonek" unicode="&#x173;" horiz-adv-x="513" 
d="M382 53q-70 -62 -157 -62q-71 0 -113 40q-45 45 -45 142v291q0 18 16 18h32q16 0 16 -18v-282q0 -77 29 -110q26 -29 81 -29q34 0 74.5 20t66.5 46v355q0 18 16 18h32q16 0 16 -18v-446q0 -18 -10 -21q-22 -7 -41 -19q-48 -31 -48 -79t55 -48q27 0 54 9h1q1 1 2 1
q9 0 10 -7l4 -14q1 -2 1 -6q0 -11 -12 -15q-39 -15 -81 -15q-47 0 -71 24t-24 60q0 41 26.5 67t70.5 47z" />
    <glyph glyph-name="Wcircumflex" unicode="&#x174;" horiz-adv-x="863" 
d="M72 687q14 0 19.5 -3.5t8.5 -14.5l152 -566h1l139 565q3 12 8 15.5t18 3.5h30q16 0 21 -18l145 -566h1l156 565q4 12 8.5 15.5t17.5 3.5h31q21 0 15 -18l-194 -652q-5 -17 -22 -17h-36q-18 0 -22 19l-139 555h-1l-141 -557q-4 -17 -23 -17h-35q-10 0 -14 3.5t-8 15.5
l-188 646q-6 22 10 22h42zM575 773q0 -5 -4 -9l-9 -10q-6 -6 -10 -6q-5 0 -10 4l-111 83l-111 -83q-5 -4 -10 -4q-6 0 -10 6l-8 10q-5 7 -5 11t6 10l118 107q8 6 14 6h12q6 0 14 -6l118 -107q6 -5 6 -12z" />
    <glyph glyph-name="wcircumflex" unicode="&#x175;" horiz-adv-x="671" 
d="M642 482q16 0 11 -15l-135 -453q-4 -14 -20 -14h-41q-17 0 -20 14l-103 366l-102 -366q-4 -14 -20 -14h-40q-16 0 -21 14l-135 452q-5 16 13 16h35q18 0 21 -11l110 -395h2l111 394q4 12 16 12h32q10 0 12 -10l115 -396h2l106 392q4 14 21 14h30zM479 583q0 -5 -4 -9
l-9 -10q-6 -6 -10 -6q-5 0 -10 4l-111 83l-111 -83q-5 -4 -10 -4q-6 0 -10 6l-8 10q-5 7 -5 11t6 10l118 107q8 6 14 6h12q6 0 14 -6l118 -107q6 -5 6 -12z" />
    <glyph glyph-name="Ycircumflex" unicode="&#x176;" horiz-adv-x="522" 
d="M505 680q0 -3 -5 -15l-200 -401v-249q0 -15 -13 -15h-43q-13 0 -13 16v247l-212 406q-3 6 -3 9q0 9 15 9h33q22 0 30 -16l176 -348h1l168 345q6 13 10.5 16t17.5 3h24q14 0 14 -7zM405 773q0 -5 -4 -9l-9 -10q-6 -6 -10 -6q-5 0 -10 4l-111 83l-111 -83q-5 -4 -10 -4
q-6 0 -10 6l-8 10q-5 7 -5 11t6 10l118 107q8 6 14 6h12q6 0 14 -6l118 -107q6 -5 6 -12z" />
    <glyph glyph-name="ycircumflex" unicode="&#x177;" horiz-adv-x="465" 
d="M455 474q0 -2 -2 -8l-195 -526q-33 -89 -74.5 -124.5t-115.5 -35.5q-14 0 -40 4q-10 2 -10 11v3l5 32q1 11 11 11h3q30 -3 37 -3q78 0 109 77l31 76l-177 477q-5 14 8 14h47q12 0 16 -11l141 -400l139 400q4 11 16 11h39q12 0 12 -8zM376 583q0 -5 -4 -9l-9 -10
q-6 -6 -10 -6q-5 0 -10 4l-111 83l-111 -83q-5 -4 -10 -4t-10 6l-8 10q-5 7 -5 11t6 10l118 107q8 6 14 6h12q6 0 14 -6l118 -107q6 -5 6 -12z" />
    <glyph glyph-name="Ydieresis" unicode="&#x178;" horiz-adv-x="522" 
d="M505 680q0 -3 -5 -15l-200 -401v-249q0 -15 -13 -15h-43q-13 0 -13 16v247l-212 406q-3 6 -3 9q0 9 15 9h33q22 0 30 -16l176 -348h1l168 345q6 13 10.5 16t17.5 3h24q14 0 14 -7zM394 813q0 -20 -14 -32t-32 -12t-33 12t-15 32q0 21 14.5 33t33.5 12t32.5 -12.5
t13.5 -32.5zM222 813q0 -20 -14 -32t-32 -12t-33 12t-15 32q0 21 14.5 33t33.5 12t32.5 -12.5t13.5 -32.5z" />
    <glyph glyph-name="Zacute" unicode="&#x179;" horiz-adv-x="511" 
d="M488 43v-30q0 -8 -2.5 -10.5t-11.5 -2.5h-443q-12 0 -12 11v17q0 10 7 22l370 583h-321q-13 0 -16 2t-3 10v30q0 8 2 10t11 2h398q16 0 16 -12v-13q0 -13 -7 -25l-372 -583h369q15 0 15 -11zM355 840q0 -8 -9 -12l-158 -74q-6 -2 -8 -2q-8 0 -12 7l-9 14q-3 6 -3 9
q0 7 7 11l147 90q5 4 12 4t13 -9l17 -27q3 -6 3 -11z" />
    <glyph glyph-name="zacute" unicode="&#x17a;" horiz-adv-x="382" 
d="M363 35v-23q0 -12 -10 -12h-318q-14 0 -14 14v15q0 13 9 27l248 379h-225q-13 0 -13 12v23q0 12 13 12h284q15 0 15 -13v-16q0 -9 -8 -22l-254 -384h261q12 0 12 -12zM290 651q0 -7 -9 -12l-158 -74q-6 -2 -8 -2q-8 0 -12 7l-9 14q-3 6 -3 9q0 7 7 11l147 90q5 4 12 4
t13 -9l17 -27q3 -6 3 -11z" />
    <glyph glyph-name="Zdotaccent" unicode="&#x17b;" horiz-adv-x="511" 
d="M488 43v-30q0 -8 -2.5 -10.5t-11.5 -2.5h-443q-12 0 -12 11v17q0 10 7 22l370 583h-321q-13 0 -16 2t-3 10v30q0 8 2 10t11 2h398q16 0 16 -12v-13q0 -13 -7 -25l-372 -583h369q15 0 15 -11zM319 830q0 -27 -19.5 -44t-43.5 -17q-25 0 -45 16.5t-20 43.5q0 28 19.5 44.5
t45.5 16.5q25 0 44 -16.5t19 -43.5z" />
    <glyph glyph-name="zdotaccent" unicode="&#x17c;" horiz-adv-x="382" 
d="M363 35v-23q0 -12 -10 -12h-318q-14 0 -14 14v15q0 13 9 27l248 379h-225q-13 0 -13 12v23q0 12 13 12h284q15 0 15 -13v-16q0 -9 -8 -22l-254 -384h261q12 0 12 -12zM255 638q0 -27 -19.5 -44t-43.5 -17q-25 0 -45 16.5t-20 43.5q0 28 19.5 44.5t45.5 16.5
q25 0 44 -16.5t19 -43.5z" />
    <glyph glyph-name="Zcaron" unicode="&#x17d;" horiz-adv-x="511" 
d="M488 43v-30q0 -8 -2.5 -10.5t-11.5 -2.5h-443q-12 0 -12 11v17q0 10 7 22l370 583h-321q-13 0 -16 2t-3 10v30q0 8 2 10t11 2h398q16 0 16 -12v-13q0 -13 -7 -25l-372 -583h369q15 0 15 -11zM399 874q0 -6 -6 -10l-118 -107q-6 -6 -14 -6h-12q-8 0 -14 6l-118 107
q-6 4 -6 11q0 6 4 10l9 10q6 6 11 6q3 0 9 -4l111 -83l111 83q5 4 10 4q6 0 10 -6l8 -10q5 -7 5 -11z" />
    <glyph glyph-name="zcaron" unicode="&#x17e;" horiz-adv-x="382" 
d="M363 35v-23q0 -12 -10 -12h-318q-14 0 -14 14v15q0 13 9 27l248 379h-225q-13 0 -13 12v23q0 12 13 12h284q15 0 15 -13v-16q0 -9 -8 -22l-254 -384h261q12 0 12 -12zM335 681q0 -5 -6 -10l-118 -107q-6 -6 -14 -6h-12q-8 0 -14 6l-118 107q-6 5 -6 11t4 10l9 10
q6 6 11 6q3 0 9 -4l111 -83l111 83q5 4 10 4q6 0 10 -6l8 -10q5 -7 5 -11z" />
    <glyph glyph-name="florin" unicode="&#x192;" horiz-adv-x="540" 
d="M558 677q0 -4 -1 -6l-10 -26q-2 -5 -6 -5q-5 0 -9 2q-27 12 -62 12q-66 0 -96 -55q-15 -27 -28 -97l-24 -127h130q11 0 11 -6q0 -1 -0.5 -2t-0.5 -2l-6 -26q-2 -11 -13 -11h-130l-57 -294q-8 -45 -19 -80q-20 -67 -66.5 -104t-112.5 -37q-39 0 -76 15q-8 3 -8 10q0 4 1 6
l8 25q2 6 8 6q2 0 8 -2q29 -13 61 -13q66 0 97 56q15 27 28 97l61 315h-61q-8 0 -8 5l1 2v3l5 27q1 10 13 10h60l19 106q8 43 19 79q20 67 67 104.5t113 37.5q39 0 76 -15q8 -3 8 -10z" />
    <glyph glyph-name="Aringacute" unicode="&#x1fa;" horiz-adv-x="584" 
d="M517 0q-12 0 -15.5 2.5t-7.5 12.5l-75 209h-263l-78 -210q-4 -9 -7.5 -11.5t-13.5 -2.5h-43q-11 0 -5 17l255 660q3 10 13 10h36q8 0 12 -9l249 -662q6 -16 -10 -16h-47zM175 276h226l-110 310zM372 786q0 -32 -23.5 -55.5t-56.5 -23.5q-32 0 -56.5 23.5t-24.5 55.5
t24.5 56t56.5 24q33 0 56.5 -24t23.5 -56zM324 786q0 14 -9 23t-23 9t-23.5 -9.5t-9.5 -22.5t9.5 -22.5t23.5 -9.5t23 9t9 23zM391 951q0 -7 -9 -12l-158 -74q-6 -2 -8 -2q-8 0 -12 7l-9 14q-3 6 -3 9q0 7 7 11l147 90q5 4 12 4t13 -9l17 -27q3 -6 3 -11z" />
    <glyph glyph-name="aringacute" unicode="&#x1fb;" horiz-adv-x="519" 
d="M492 35v-25q0 -10 -12 -10h-38q-28 0 -42 20.5t-14 51.5v13q-15 -38 -60 -66t-94 -28q-96 0 -145.5 70t-49.5 172q0 119 60.5 189t150.5 70q38 0 75.5 -16t61.5 -47l1 37q0 16 18 16h30q15 0 15 -18v-351q0 -47 4 -55q5 -12 21 -12h7q11 0 11 -11zM385 166v192
q-19 39 -55.5 61.5t-77.5 22.5q-66 0 -107.5 -55.5t-41.5 -149.5q0 -91 38.5 -141.5t95.5 -50.5q52 0 92 35.5t56 85.5zM340 599q0 -32 -23.5 -55.5t-56.5 -23.5q-32 0 -56.5 23.5t-24.5 55.5t24.5 56t56.5 24q33 0 56.5 -24t23.5 -56zM292 599q0 13 -9 22.5t-23 9.5
t-23.5 -9.5t-9.5 -22.5t9.5 -22.5t23.5 -9.5t23 9.5t9 22.5zM359 772q0 -8 -9 -12l-158 -74q-6 -2 -8 -2q-8 0 -12 7l-9 14q-3 6 -3 9q0 7 7 11l147 90q5 4 12 4t13 -9l17 -27q3 -6 3 -11z" />
    <glyph glyph-name="AEacute" unicode="&#x1fc;" horiz-adv-x="850" 
d="M807 41v-27q0 -14 -17 -14h-333q-11 0 -14.5 3.5t-3.5 14.5v207h-225l-138 -211q-4 -7 -5.5 -9t-5.5 -3.5t-10 -1.5h-41q-8 0 -8 8q0 3 3 9l431 656q10 14 27 14h324q14 0 14 -12v-4l-3 -25q-1 -13 -23 -13h-271v-242h239q17 0 17 -15v-24q0 -15 -16 -15h-240v-283h282
q10 0 13.5 -2.5t3.5 -10.5zM244 277h195v299zM716 840q0 -8 -9 -12l-158 -74q-6 -2 -8 -2q-8 0 -12 7l-9 14q-3 6 -3 9q0 7 7 11l147 90q5 4 12 4t13 -9l17 -27q3 -6 3 -11z" />
    <glyph glyph-name="aeacute" unicode="&#x1fd;" horiz-adv-x="758" 
d="M723 256q-1 -17 -28 -17h-317q0 -85 43 -139.5t125 -54.5q72 0 125 23q6 2 7 2q8 0 10 -9l5 -23q1 -3 1 -8q0 -7 -10 -11q-59 -28 -144 -28q-75 0 -126 34q-20 13 -32 26q0 1 -7 8t-9 11q-26 -34 -73.5 -57t-110.5 -23q-61 0 -104 36.5t-43 102.5q0 60 44 100
q69 64 217 64h29v34q0 60 -23.5 89.5t-78.5 29.5q-64 0 -134 -40q-5 -3 -8 -3q-4 0 -7 6l-9 20q-2 4 -2 6q0 6 8 11q78 46 157 46q72 0 112 -35q22 -20 33 -44q58 79 164 79q86 0 136 -58.5t50 -148.5v-29zM346 107q-24 56 -24 135v10h-26q-34 0 -65 -5.5t-61.5 -17.5
t-49 -37.5t-18.5 -60.5q0 -45 28 -68.5t66 -23.5q44 0 85 21t65 47zM659 304q0 60 -32 99.5t-92 39.5q-67 0 -107.5 -46t-47.5 -113h278q1 7 1 20zM525 651q0 -7 -9 -12l-158 -74q-6 -2 -8 -2q-8 0 -12 7l-9 14q-3 6 -3 9q0 7 7 11l147 90q5 4 12 4t13 -9l17 -27q3 -6 3 -11
z" />
    <glyph glyph-name="Oslashacute" unicode="&#x1fe;" horiz-adv-x="666" 
d="M613 348q0 -166 -80.5 -261.5t-204.5 -95.5q-88 0 -149 42l-36 -59q-9 -16 -17 -16q-2 0 -4.5 1.5t-3.5 1.5l-18 9q-11 6 -11 12q0 2 2 6l49 79q-87 93 -87 274q0 161 80 258.5t205 97.5q94 0 161 -53l41 66q11 18 17 18q2 0 6 -2l18 -11q12 -7 12 -12q0 -2 -2 -6
l-55 -90q77 -95 77 -259zM179 129l286 460q-52 55 -129 55q-93 0 -150.5 -85.5t-57.5 -214.5q0 -135 51 -215zM538 345q0 120 -42 199l-283 -456q48 -45 118 -45q92 0 149.5 84.5t57.5 217.5zM449 838q0 -8 -9 -12l-158 -74q-6 -2 -8 -2q-8 0 -12 7l-9 14q-3 6 -3 9
q0 7 7 11l147 90q5 4 12 4t13 -9l17 -27q3 -6 3 -11z" />
    <glyph glyph-name="oslashacute" unicode="&#x1ff;" horiz-adv-x="526" 
d="M483 243q0 -108 -59.5 -180t-164.5 -72q-56 0 -99 20l-12 -20q-9 -16 -17 -16q-2 0 -4.5 1.5t-3.5 1.5l-18 9q-11 5 -11 11q0 2 2 6l22 35q-75 68 -75 204q0 107 59.5 178t163.5 71q70 0 116 -28l17 26q12 18 18 18q2 0 6 -2l18 -10q12 -7 12 -12q0 -2 -2 -6l-29 -47
q61 -67 61 -188zM417 241q0 78 -31 133l-198 -318q32 -19 72 -19q80 0 118.5 59.5t38.5 144.5zM150 91l202 324q-35 30 -87 30q-43 0 -74.5 -18t-48.5 -48t-25 -63.5t-8 -70.5q0 -98 41 -154zM380 651q0 -7 -9 -12l-158 -74q-6 -2 -8 -2q-8 0 -12 7l-9 14q-3 6 -3 9
q0 7 7 11l147 90q5 4 12 4t13 -9l17 -27q3 -6 3 -11z" />
    <glyph glyph-name="Scommaaccent" unicode="&#x218;" horiz-adv-x="486" 
d="M445 178q0 -90 -65 -138.5t-160 -48.5q-75 0 -155 26q-17 6 -12 21l10 33q5 13 21 7q77 -28 138 -28q64 0 109 31t45 93q0 43 -25 72.5t-72 56.5l-124 70q-106 60 -106 156q0 79 59.5 124t141.5 45t147 -27q17 -7 12 -22l-10 -28q-5 -13 -21 -7q-70 28 -124 28
q-58 0 -95 -28q-39 -29 -39 -73q0 -71 83 -118l104 -59q68 -38 103 -79.5t35 -106.5zM286 -86q0 -30 -16.5 -61t-40.5 -47q-5 -4 -9 -4q-6 0 -8 5l-4 4q-3 3 -3 7q0 2 4 6q25 25 25 50q0 10 -12 24.5t-12 25.5q0 16 10.5 26t26.5 10q17 0 28 -14t11 -32z" />
    <glyph glyph-name="scommaaccent" unicode="&#x219;" horiz-adv-x="376" 
d="M196 492q63 0 121 -27q9 -5 7 -11l-10 -28q-3 -11 -15 -6q-50 24 -103 24q-43 0 -68.5 -20t-25.5 -52q0 -30 16.5 -47t53.5 -32l71 -30q103 -43 103 -126q0 -64 -48.5 -105t-128.5 -41q-67 0 -127 30q-12 6 -8 14l12 31q4 8 11 5q60 -30 115 -30q51 0 81 23.5t30 64.5
q0 32 -21.5 52.5t-62.5 37.5l-60 24q-103 41 -103 121q0 59 46 93.5t114 34.5zM205 -86q0 -30 -16.5 -61t-40.5 -47q-5 -4 -9 -4q-5 0 -8 5l-4 4q-3 3 -3 7q0 2 4 6q25 25 25 50q0 10 -12 24.5t-12 25.5q0 16 10.5 26t26.5 10q17 0 28 -14t11 -32z" />
    <glyph glyph-name="uni021A" unicode="&#x21a;" horiz-adv-x="531" 
d="M500 687q9 0 12 -2.5t2 -8.5l-5 -30q-2 -13 -21 -13h-193v-615q0 -18 -16 -18h-37q-16 0 -16 18v615h-196q-8 0 -10.5 2t-2.5 9v31q0 7 2 9.5t9 2.5h472zM294 -86q0 -30 -16.5 -61t-40.5 -47q-5 -4 -9 -4q-6 0 -8 5l-4 4q-3 3 -3 7q0 2 4 6q25 25 25 50q0 10 -12 24.5
t-12 25.5q0 16 10.5 26t26.5 10q17 0 28 -14t11 -32z" />
    <glyph glyph-name="uni021B" unicode="&#x21b;" horiz-adv-x="327" 
d="M292 52q13 5 15 -6l5 -25q2 -10 -10 -15q-41 -15 -82 -15q-70 0 -103 34q-19 20 -24.5 48t-5.5 77v285h-59q-11 0 -11 10v27q0 6 1.5 8t7.5 2h61v117q0 16 13 18l35 5h4q12 0 12 -16v-124h121q11 0 11 -11v-26q0 -10 -12 -10h-120v-295q0 -60 20 -80q19 -19 59 -19
q31 0 62 11zM236 -86q0 -30 -16.5 -61t-40.5 -47q-5 -4 -9 -4q-6 0 -8 5l-4 4q-3 3 -3 7q0 2 4 6q25 25 25 50q0 10 -12 24.5t-12 25.5q0 16 10.5 26t26.5 10q17 0 28 -14t11 -32z" />
    <glyph glyph-name="circumflex" unicode="&#x2c6;" 
d="M300 573q0 -5 -4 -9l-9 -10q-6 -6 -10 -6q-5 0 -10 4l-111 83l-111 -83q-5 -4 -10 -4q-6 0 -10 6l-8 10q-5 7 -5 11t6 10l118 107q8 6 14 6h12q6 0 14 -6l118 -107q6 -5 6 -12z" />
    <glyph glyph-name="caron" unicode="&#x2c7;" 
d="M300 671q0 -5 -6 -10l-118 -107q-6 -6 -14 -6h-12q-8 0 -14 6l-118 107q-6 5 -6 11t4 10l9 10q6 6 11 6q3 0 9 -4l111 -83l111 83q5 4 10 4t10 -6l8 -10q5 -7 5 -11z" />
    <glyph glyph-name="breve" unicode="&#x2d8;" 
d="M282 686q0 -24 -16 -46.5t-39 -35.5q-31 -17 -70 -17q-43 0 -76 19q-22 13 -37.5 35t-15.5 45q0 12 15 12h21q10 0 13.5 -2.5t8.5 -11.5q23 -46 69 -46q49 0 71 46q5 9 8.5 11.5t13.5 2.5h19q15 0 15 -12z" />
    <glyph glyph-name="dotaccent" unicode="&#x2d9;" 
d="M216 638q0 -27 -19.5 -44t-43.5 -17q-25 0 -45 16.5t-20 43.5q0 28 19.5 44.5t45.5 16.5q25 0 44 -16.5t19 -43.5z" />
    <glyph glyph-name="ring" unicode="&#x2da;" 
d="M235 618q0 -32 -23.5 -55.5t-56.5 -23.5q-32 0 -56.5 23.5t-24.5 55.5t24.5 56t56.5 24q33 0 56.5 -24t23.5 -56zM187 618q0 14 -9.5 23t-22.5 9q-14 0 -23.5 -9.5t-9.5 -22.5t9.5 -22.5t23.5 -9.5q13 0 22.5 9t9.5 23z" />
    <glyph glyph-name="ogonek" unicode="&#x2db;" 
d="M257 -170q0 -11 -12 -15q-39 -15 -81 -15q-46 0 -70.5 23t-24.5 55q0 73 96 122h54q-89 -67 -89 -111q0 -42 55 -42q27 0 54 9h1l2 1q9 0 10 -7l4 -14q1 -2 1 -6z" />
    <glyph glyph-name="tilde" unicode="&#x2dc;" 
d="M315 663q0 -8 -8 -14q-56 -43 -104 -43q-20 0 -53 17.5t-50 17.5q-24 0 -63 -24q-11 -6 -16 -6q-7 0 -11 10l-8 18q-4 10 -4 11q0 7 14 16q52 32 90 32q22 0 59 -17.5t50 -17.5q21 0 62 27q9 5 15 5q9 0 14 -9l8 -11q5 -8 5 -12z" />
    <glyph glyph-name="hungarumlaut" unicode="&#x2dd;" 
d="M387 650q0 -8 -9 -12l-158 -74q-6 -2 -8 -2q-8 0 -12 7l-9 14q-3 6 -3 9q0 7 7 11l147 90q5 4 11 4q8 0 14 -9l17 -27q3 -6 3 -11zM162 650q0 -8 -9 -12l-158 -74q-6 -2 -9 -2q-7 0 -11 7l-9 14q-4 8 -4 9q0 6 8 11l147 90q5 4 11 4q7 0 13 -9l17 -27q4 -8 4 -11z" />
    <glyph glyph-name="pi" unicode="&#x3c0;" horiz-adv-x="589" 
d="M183 15q0 -15 -13 -15h-39q-12 0 -12 13v422h-76q-8 0 -10.5 2.5t-2.5 10.5v24q0 11 11 11h488q11 0 11 -9v-27q0 -12 -11 -12h-104v-312q0 -23 2 -36t11.5 -23.5t28.5 -10.5q24 0 50 17q12 7 16 -3l10 -23q5 -9 -4 -16q-35 -30 -86 -30q-56 0 -74 33.5t-18 102.5v301
h-178v-420z" />
    <glyph glyph-name="Wgrave" unicode="&#x1e80;" horiz-adv-x="863" 
d="M72 687q14 0 19.5 -3.5t8.5 -14.5l152 -566h1l139 565q3 12 8 15.5t18 3.5h30q16 0 21 -18l145 -566h1l156 565q4 12 8.5 15.5t17.5 3.5h31q21 0 15 -18l-194 -652q-5 -17 -22 -17h-36q-18 0 -22 19l-139 555h-1l-141 -557q-4 -17 -23 -17h-35q-10 0 -14 3.5t-8 15.5
l-188 646q-6 22 10 22h42zM493 782q0 -3 -3 -9l-9 -14q-4 -7 -12 -7q-2 0 -8 2l-158 74q-9 4 -9 12q0 5 3 11l17 27q6 9 13 9t12 -4l147 -90q7 -4 7 -11z" />
    <glyph glyph-name="wgrave" unicode="&#x1e81;" horiz-adv-x="671" 
d="M642 482q16 0 11 -15l-135 -453q-4 -14 -20 -14h-41q-17 0 -20 14l-103 366l-102 -366q-4 -14 -20 -14h-40q-16 0 -21 14l-135 452q-5 16 13 16h35q18 0 21 -11l110 -395h2l111 394q4 12 16 12h32q10 0 12 -10l115 -396h2l106 392q4 14 21 14h30zM389 593q0 -3 -3 -9
l-9 -14q-4 -7 -12 -7q-2 0 -8 2l-158 74q-9 5 -9 12q0 5 3 11l17 27q6 9 13 9t12 -4l147 -90q7 -4 7 -11z" />
    <glyph glyph-name="Wacute" unicode="&#x1e82;" horiz-adv-x="863" 
d="M72 687q14 0 19.5 -3.5t8.5 -14.5l152 -566h1l139 565q3 12 8 15.5t18 3.5h30q16 0 21 -18l145 -566h1l156 565q4 12 8.5 15.5t17.5 3.5h31q21 0 15 -18l-194 -652q-5 -17 -22 -17h-36q-18 0 -22 19l-139 555h-1l-141 -557q-4 -17 -23 -17h-35q-10 0 -14 3.5t-8 15.5
l-188 646q-6 22 10 22h42zM571 840q0 -8 -9 -12l-158 -74q-6 -2 -8 -2q-8 0 -12 7l-9 14q-3 6 -3 9q0 7 7 11l147 90q5 4 12 4t13 -9l17 -27q3 -6 3 -11z" />
    <glyph glyph-name="wacute" unicode="&#x1e83;" horiz-adv-x="671" 
d="M642 482q16 0 11 -15l-135 -453q-4 -14 -20 -14h-41q-17 0 -20 14l-103 366l-102 -366q-4 -14 -20 -14h-40q-16 0 -21 14l-135 452q-5 16 13 16h35q18 0 21 -11l110 -395h2l111 394q4 12 16 12h32q10 0 12 -10l115 -396h2l106 392q4 14 21 14h30zM486 651q0 -7 -9 -12
l-158 -74q-6 -2 -8 -2q-8 0 -12 7l-9 14q-3 6 -3 9q0 7 7 11l147 90q5 4 12 4t13 -9l17 -27q3 -6 3 -11z" />
    <glyph glyph-name="Wdieresis" unicode="&#x1e84;" horiz-adv-x="863" 
d="M72 687q14 0 19.5 -3.5t8.5 -14.5l152 -566h1l139 565q3 12 8 15.5t18 3.5h30q16 0 21 -18l145 -566h1l156 565q4 12 8.5 15.5t17.5 3.5h31q21 0 15 -18l-194 -652q-5 -17 -22 -17h-36q-18 0 -22 19l-139 555h-1l-141 -557q-4 -17 -23 -17h-35q-10 0 -14 3.5t-8 15.5
l-188 646q-6 22 10 22h42zM563 813q0 -20 -14 -32t-32 -12t-33 12t-15 32q0 21 14.5 33t33.5 12t32.5 -12.5t13.5 -32.5zM391 813q0 -20 -14 -32t-32 -12t-33 12t-15 32q0 21 14.5 33t33.5 12t32.5 -12.5t13.5 -32.5z" />
    <glyph glyph-name="wdieresis" unicode="&#x1e85;" horiz-adv-x="671" 
d="M642 482q16 0 11 -15l-135 -453q-4 -14 -20 -14h-41q-17 0 -20 14l-103 366l-102 -366q-4 -14 -20 -14h-40q-16 0 -21 14l-135 452q-5 16 13 16h35q18 0 21 -11l110 -395h2l111 394q4 12 16 12h32q10 0 12 -10l115 -396h2l106 392q4 14 21 14h30zM467 630q0 -20 -14 -32
t-32 -12t-33 12t-15 32q0 21 14.5 33t33.5 12t32.5 -12.5t13.5 -32.5zM295 630q0 -20 -14 -32t-32 -12t-33 12t-15 32q0 21 14.5 33t33.5 12t32.5 -12.5t13.5 -32.5z" />
    <glyph glyph-name="Ygrave" unicode="&#x1ef2;" horiz-adv-x="522" 
d="M505 680q0 -3 -5 -15l-200 -401v-249q0 -15 -13 -15h-43q-13 0 -13 16v247l-212 406q-3 6 -3 9q0 9 15 9h33q22 0 30 -16l176 -348h1l168 345q6 13 10.5 16t17.5 3h24q14 0 14 -7zM360 782q0 -3 -3 -9l-9 -14q-4 -7 -12 -7q-2 0 -8 2l-158 74q-9 4 -9 12q0 5 3 11l17 27
q6 9 13 9t12 -4l147 -90q7 -4 7 -11z" />
    <glyph glyph-name="ygrave" unicode="&#x1ef3;" horiz-adv-x="465" 
d="M455 474q0 -2 -2 -8l-195 -526q-33 -89 -74.5 -124.5t-115.5 -35.5q-14 0 -40 4q-10 2 -10 11v3l5 32q1 11 11 11h3q30 -3 37 -3q78 0 109 77l31 76l-177 477q-5 14 8 14h47q12 0 16 -11l141 -400l139 400q4 11 16 11h39q12 0 12 -8zM340 593q0 -3 -3 -9l-9 -14
q-4 -7 -12 -7q-2 0 -8 2l-158 74q-9 5 -9 12q0 5 3 11l17 27q6 9 13 9t12 -4l147 -90q7 -4 7 -11z" />
    <glyph glyph-name="endash" unicode="&#x2013;" horiz-adv-x="500" 
d="M500 272v-20q0 -11 -3.5 -15t-13.5 -4h-463q-12 0 -16 3t-4 12v26q0 9 3.5 12t13.5 3h463q13 0 16.5 -3t3.5 -14z" />
    <glyph glyph-name="emdash" unicode="&#x2014;" horiz-adv-x="1000" 
d="M1000 272v-20q0 -11 -3.5 -15t-13.5 -4h-963q-12 0 -16 3t-4 12v26q0 9 3.5 12t13.5 3h963q13 0 16.5 -3t3.5 -14z" />
    <glyph glyph-name="quoteleft" unicode="&#x2018;" 
d="M195 682q0 -3 -5 -8q-31 -31 -31 -62q0 -12 15 -31t15 -32q0 -19 -13 -32t-33 -13q-22 0 -35.5 17.5t-13.5 40.5q0 37 20.5 75.5t50.5 59.5q8 5 12 5q5 0 10 -6l5 -6q3 -3 3 -8z" />
    <glyph glyph-name="quoteright" unicode="&#x2019;" 
d="M212 644q0 -37 -20.5 -75.5t-50.5 -59.5q-8 -5 -12 -5q-5 0 -10 6l-5 6q-3 3 -3 8q0 3 5 8q31 31 31 62q0 12 -15 31t-15 32q0 19 13 32t33 13q22 0 35.5 -17.5t13.5 -40.5z" />
    <glyph glyph-name="quotesinglbase" unicode="&#x201a;" 
d="M212 8q0 -37 -20.5 -75.5t-50.5 -59.5q-8 -5 -12 -5q-5 0 -10 6l-5 6q-3 3 -3 8q0 3 5 8q31 31 31 62q0 12 -15 31t-15 32q0 19 13 32t33 13q22 0 35.5 -17.5t13.5 -40.5z" />
    <glyph glyph-name="quotedblleft" unicode="&#x201c;" horiz-adv-x="320" 
d="M290 682q0 -3 -5 -8q-31 -31 -31 -62q0 -12 15 -31t15 -32q0 -19 -13 -32t-33 -13q-22 0 -35.5 17.5t-13.5 40.5q0 37 20.5 75.5t50.5 59.5q8 5 12 5q6 0 10 -6l5 -6q3 -3 3 -8zM123 682q0 -3 -5 -8q-31 -31 -31 -62q0 -12 15 -31t15 -32q0 -19 -13 -32t-33 -13
q-22 0 -35.5 17.5t-13.5 40.5q0 37 20.5 75.5t50.5 59.5q8 5 12 5q5 0 10 -6l5 -6q3 -3 3 -8z" />
    <glyph glyph-name="quotedblright" unicode="&#x201d;" horiz-adv-x="320" 
d="M299 644q0 -37 -20.5 -75.5t-50.5 -59.5q-8 -5 -12 -5q-6 0 -10 6l-5 6q-3 3 -3 8q0 3 5 8q31 31 31 62q0 12 -15 31t-15 32q0 19 13 32t33 13q22 0 35.5 -17.5t13.5 -40.5zM132 644q0 -37 -20.5 -75.5t-50.5 -59.5q-8 -5 -12 -5q-5 0 -10 6l-5 6q-3 3 -3 8q0 3 5 8
q31 31 31 62q0 12 -15 31t-15 32q0 19 13 32t33 13q22 0 35.5 -17.5t13.5 -40.5z" />
    <glyph glyph-name="quotedblbase" unicode="&#x201e;" horiz-adv-x="320" 
d="M299 8q0 -37 -20.5 -75.5t-50.5 -59.5q-8 -5 -12 -5q-6 0 -10 6l-5 6q-3 3 -3 8q0 3 5 8q31 31 31 62q0 12 -15 31t-15 32q0 19 13 32t33 13q22 0 35.5 -17.5t13.5 -40.5zM132 8q0 -37 -20.5 -75.5t-50.5 -59.5q-8 -5 -12 -5q-5 0 -10 6l-5 6q-3 3 -3 8q0 3 5 8
q31 31 31 62q0 12 -15 31t-15 32q0 19 13 32t33 13q22 0 35.5 -17.5t13.5 -40.5z" />
    <glyph glyph-name="dagger" unicode="&#x2020;" horiz-adv-x="513" 
d="M452 426v-28q0 -13 -16 -13h-1l-148 2l-4 -369q0 -18 -16 -18h-22q-16 0 -16 18l-4 369l-146 -2h-1q-17 0 -17 13v28q0 16 15 16h1l148 -2l-2 229v1q0 17 13 17h37q16 0 16 -16l-2 -231l150 2h1q14 0 14 -16z" />
    <glyph glyph-name="daggerdbl" unicode="&#x2021;" horiz-adv-x="513" 
d="M452 479v-28q0 -12 -15 -12h-2l-148 2l-2 -135l132 2h1q15 0 15 -16v-28q0 -13 -17 -13h-1l-130 2l-2 -235q0 -18 -16 -18h-22q-16 0 -16 18l-2 235l-128 -2h-1q-17 0 -17 13v28q0 16 15 16h1l129 -2l-1 135l-146 -2h-2q-16 0 -16 12v28q0 16 15 16h1l148 -2l-2 176v1
q0 17 13 17h37q16 0 16 -15v-1l-2 -178l150 2h1q14 0 14 -16z" />
    <glyph glyph-name="bullet" unicode="&#x2022;" horiz-adv-x="510" 
d="M420 266q0 -65 -49 -111t-118 -46t-118.5 46t-49.5 111t49.5 111.5t118.5 46.5t118 -46.5t49 -111.5z" />
    <glyph glyph-name="ellipsis" unicode="&#x2026;" horiz-adv-x="1000" 
d="M867 37q0 -22 -15.5 -36t-35.5 -14t-37 14t-17 36q0 23 16 36t38 13q21 0 36 -13.5t15 -35.5zM550 37q0 -22 -15.5 -36t-35.5 -14t-36.5 14t-16.5 36q0 23 15.5 36t37.5 13q21 0 36 -13.5t15 -35.5zM234 37q0 -22 -16 -36t-36 -14t-36.5 14t-16.5 36q0 23 15.5 36
t37.5 13q21 0 36.5 -13.5t15.5 -35.5z" />
    <glyph glyph-name="perthousand" unicode="&#x2030;" horiz-adv-x="1000" 
d="M940 142q0 -64 -30 -107.5t-91 -43.5t-92 43t-31 107t32 109t93 45q62 0 90.5 -44t28.5 -109zM318 545q0 -64 -30 -107.5t-91 -43.5t-92 43t-31 107t32 109t93 45q62 0 90.5 -44t28.5 -109zM610 670q0 -6 -4 -11l-461 -662q-4 -7 -11 -7q-5 0 -14 6l-19 13q-6 5 -6 11
q0 7 4 12l460 660q4 7 11 7q6 0 15 -6l17 -10q8 -5 8 -13zM632 142q0 -64 -30 -107.5t-91 -43.5t-92 43t-31 107t32 109t93 45q62 0 90.5 -44t28.5 -109zM890 145q0 42 -17 78.5t-54 36.5q-40 0 -56 -38t-16 -84q0 -44 17 -79t56 -35q27 0 43.5 22.5t21.5 47t5 51.5z
M268 548q0 42 -17 78.5t-54 36.5q-40 0 -56 -38t-16 -84q0 -44 17 -79t56 -35q27 0 43.5 22.5t21.5 47t5 51.5zM582 145q0 42 -17 78.5t-54 36.5q-40 0 -56 -38t-16 -84q0 -44 17 -79t56 -35q27 0 43.5 22.5t21.5 47t5 51.5z" />
    <glyph glyph-name="guilsinglleft" unicode="&#x2039;" horiz-adv-x="291" 
d="M214 373q0 -2 -2 -6l-86 -139l85 -144q2 -4 2 -7q0 -6 -7 -10l-17 -10q-5 -3 -7 -3q-5 0 -11 9l-112 152q-4 5 -4 12q0 8 5 14l111 147q6 7 11 7q4 0 7 -2l20 -11q5 -2 5 -9z" />
    <glyph glyph-name="guilsinglright" unicode="&#x203a;" horiz-adv-x="291" 
d="M236 223q0 -7 -6 -14l-111 -147q-6 -7 -11 -7q-4 0 -7 2l-19 11q-5 3 -5 9q0 2 2 6l85 140l-84 143q-2 4 -2 7q0 6 7 10l16 10q4 3 7 3q5 0 11 -9l112 -152q5 -6 5 -12z" />
    <glyph glyph-name="fraction" unicode="&#x2044;" horiz-adv-x="153" 
d="M308 708q0 -7 -6 -16l-428 -704q-6 -10 -9.5 -13t-13.5 -3h-33q-11 0 -11 11q0 5 3 9l429 705q7 12 13 16t19 4h24q13 0 13 -9z" />
    <glyph glyph-name="fraction" unicode="&#x2215;" horiz-adv-x="153" 
d="M308 708q0 -7 -6 -16l-428 -704q-6 -10 -9.5 -13t-13.5 -3h-33q-11 0 -11 11q0 5 3 9l429 705q7 12 13 16t19 4h24q13 0 13 -9z" />
    <glyph glyph-name="Euro" unicode="&#x20ac;" horiz-adv-x="540" 
d="M565 49q0 -7 -11 -13q-88 -45 -190 -45q-120 0 -187 67t-87 182h-85q-10 0 -12.5 3t-2.5 13v21q0 10 4 13.5t13 3.5h76q-2 32 -2 48h-66q-10 0 -12.5 3t-2.5 13v21q0 10 4 13.5t13 3.5h67q8 85 39.5 151t95 108.5t150.5 42.5q102 0 177 -47q10 -6 10 -13q0 -1 -2 -9
l-9 -24q-3 -8 -10 -8q-5 0 -9 3q-69 43 -151 43q-101 0 -153.5 -70t-61.5 -177h277q15 0 15 -11v-2q-1 -2 -1 -3l-5 -24q-2 -10 -4.5 -12t-11.5 -2h-272q0 -16 2 -48h258q15 0 15 -11l-1 -2v-3l-5 -24q-2 -10 -4.5 -12t-11.5 -2h-244q38 -194 207 -194q89 0 162 39q6 3 10 3
q6 0 9 -8l8 -21q2 -4 2 -10z" />
    <glyph glyph-name="numero" unicode="&#x2116;" horiz-adv-x="973" 
d="M591 675v-661q0 -14 -14 -14h-34q-11 0 -22 15l-370 551h-1v-551q0 -15 -14 -15h-38q-14 0 -14 14v661q0 14 14 14h35q10 0 18 -11l371 -550h1v548q0 13 13 13h43q12 0 12 -14zM900 241q0 -65 -32 -108.5t-95 -43.5q-65 0 -97.5 43.5t-32.5 108.5q0 63 33 108t95 45
q63 0 96 -44.5t33 -108.5zM851 242q0 46 -19.5 80t-61.5 34q-41 0 -59.5 -34t-18.5 -80q0 -48 18.5 -82.5t62.5 -34.5q78 0 78 117zM896 30v-15q0 -15 -16 -15h-212q-16 0 -16 15v15q0 14 16 14h214q14 0 14 -14z" />
    <glyph glyph-name="trademark" unicode="&#x2122;" horiz-adv-x="568" 
d="M517 420q0 -8 -7 -8h-23q-8 0 -8 9l-4 196l-78 -200q-1 -5 -7 -5h-16q-4 0 -7 6l-85 199l-2 -198q0 -7 -8 -7h-21q-7 0 -7 8l4 259q0 8 7 8h23q8 0 10 -5l95 -221l89 220q3 6 8 6h24q7 0 7 -7l6 -259v-1zM239 680l-2 -17q-1 -7 -10 -7h-72v-235q0 -9 -8 -9h-21q-9 0 -9 9
v235h-73q-7 0 -7 6v18q0 7 6 7h189q7 0 7 -6v-1z" />
    <glyph glyph-name="Omega" unicode="&#x2126;" horiz-adv-x="676" 
d="M288 54q12 -4 12 -12v-29q0 -13 -12 -13h-227q-13 0 -13 13v29q0 12 13 12h113q-116 81 -116 289q0 162 79.5 255.5t205.5 93.5q130 0 203.5 -92.5t73.5 -251.5q0 -206 -127 -294h122q11 0 11 -12v-29q0 -13 -11 -13h-229q-11 0 -11 13v29q0 10 11 12q77 15 120.5 93.5
t43.5 197.5q0 139 -56 214t-154 75q-93 0 -153.5 -78t-60.5 -209q0 -123 41 -200t121 -93z" />
    <glyph glyph-name="partialdiff" unicode="&#x2202;" horiz-adv-x="535" 
d="M60 206q0 99 56.5 159t137.5 60q85 0 145 -67q-2 60 -12 110t-30 92t-54.5 65.5t-80.5 23.5q-52 0 -96 -24q-10 -6 -16 6l-12 31q-4 11 9 18q56 28 118 28q73 0 124 -37.5t75 -101t33.5 -125t9.5 -131.5q0 -323 -209 -323q-92 0 -145 58.5t-53 157.5zM125 205
q0 -65 34 -112t99 -47q144 0 144 250q-63 73 -140 73q-63 0 -100 -49t-37 -115z" />
    <glyph glyph-name="Delta" unicode="&#x2206;" horiz-adv-x="568" 
d="M505 0h-441q-13 0 -19 10l-13 21q-7 9 -1 22l222 646q3 9 12 9h31q11 0 15 -9l227 -647q4 -13 -2 -22l-13 -22q-6 -8 -18 -8zM276 623l-188 -568h376z" />
    <glyph glyph-name="product" unicode="&#x220f;" horiz-adv-x="624" 
d="M432 -150v782h-248v-782q0 -8 -2.5 -10.5t-9.5 -2.5h-47q-7 0 -9 2.5t-2 9.5v783h-72q-12 0 -12 13v33q0 11 12 11h540q14 0 12 -9l-3 -37q-1 -11 -19 -11h-70v-782q0 -13 -11 -13h-46q-8 0 -10.5 2t-2.5 11z" />
    <glyph glyph-name="summation" unicode="&#x2211;" horiz-adv-x="604" 
d="M558 -163h-517q-11 0 -11 11v26q0 12 8 20l327 376l-329 362q-6 6 -6 18v28q0 11 12 11h517q12 0 12 -9v-37q-1 -11 -19 -11h-427l292 -320q10 -10 10 -22v-17q0 -14 -10 -25l-308 -355h452q13 0 13 -11v-34q0 -11 -16 -11z" />
    <glyph glyph-name="minus" unicode="&#x2212;" horiz-adv-x="500" 
d="M395 272v-20q0 -11 -3.5 -15t-13.5 -4h-244q-12 0 -16 3t-4 12v26q0 9 3.5 12t13.5 3h244q13 0 16.5 -3t3.5 -14z" />
    <glyph glyph-name="radical" unicode="&#x221a;" horiz-adv-x="547" 
d="M10 441v30q0 12 13 12h100q12 0 16 -11l125 -387l203 611q4 12 18 12h32q13 0 9 -14l-237 -685q-3 -9 -13 -9h-30q-12 0 -15 9l-147 419h-61q-13 0 -13 13z" />
    <glyph glyph-name="infinity" unicode="&#x221e;" horiz-adv-x="831" 
d="M42 324q0 70 45.5 111.5t120.5 41.5q102 0 208 -113q47 52 94.5 81.5t106.5 29.5q75 0 121 -38.5t46 -110.5t-48 -110.5t-119 -38.5q-52 0 -98 25.5t-104 83.5q-103 -112 -210 -112q-70 0 -116.5 40t-46.5 110zM612 232h1q48 0 78.5 26.5t30.5 66.5q0 48 -31.5 71.5
t-79.5 23.5q-80 0 -161 -94q56 -54 89 -74t73 -20zM212 231h1q87 0 167 95q-46 47 -85 71.5t-88 24.5q-48 0 -75.5 -26t-27.5 -71q0 -44 30.5 -69t77.5 -25z" />
    <glyph glyph-name="integral" unicode="&#x222b;" horiz-adv-x="347" 
d="M179 494q6 -71 27 -207t26 -181q3 -26 3 -49q0 -185 -169 -185q-18 0 -46 5q-10 2 -10 14l4 28q1 10 14 8q26 -4 40 -4q102 0 102 133q0 14 -2 42q-5 47 -26.5 185t-26.5 203q-1 14 -1 40q0 91 38 142.5t129 51.5q23 0 46 -4q12 -3 10 -15l-4 -28q-2 -11 -14 -8
q-19 4 -40 4q-101 0 -101 -137q0 -26 1 -38z" />
    <glyph glyph-name="approxequal" unicode="&#x2248;" horiz-adv-x="496" 
d="M255 131l-32 28q-3 3 -11.5 9.5t-12 9.5t-10.5 8t-11.5 7t-10.5 3.5t-12 1.5q-40 0 -57 -75q-4 -14 -17 -6l-21 13q-8 6 -5 19q9 54 35 82.5t61 28.5q38 0 88 -42l33 -28q39 -33 70 -33q54 0 78 73q6 12 16 5l22 -15q8 -6 3 -20q-17 -51 -49.5 -77.5t-71.5 -26.5
q-46 0 -85 35zM258 341l-33 29q-39 33 -70 33q-54 0 -78 -73q-5 -12 -15 -5l-23 15q-8 6 -3 20q17 50 49.5 76.5t71.5 26.5q46 0 85 -35l32 -28q2 -1 8 -6.5t8 -7t7.5 -6t7.5 -5.5t7 -4.5t7.5 -4.5t7 -2.5t8 -2t7.5 -0.5q21 0 34.5 18t22.5 58q3 15 17 6l21 -13q8 -6 5 -20
q-11 -54 -36.5 -82.5t-59.5 -28.5q-39 0 -88 42z" />
    <glyph glyph-name="notequal" unicode="&#x2260;" horiz-adv-x="496" 
d="M109 82l38 69h-85q-12 0 -12 13v30q0 12 12 12h117l76 136h-193q-12 0 -12 13v29q0 13 12 13h225l50 88q8 14 20 6l12 -7q12 -8 5 -19l-38 -68h97q14 0 14 -13v-29q0 -13 -14 -13h-129l-76 -136h205q14 0 14 -12v-30q0 -13 -14 -13h-237l-52 -90q-6 -13 -19 -5l-13 7
q-11 7 -3 19z" />
    <glyph glyph-name="lessequal" unicode="&#x2264;" horiz-adv-x="496" 
d="M400 187q0 -1 -1.5 -3.5t-1.5 -3.5l-20 -31q-6 -9 -11 -9q-3 0 -10 5l-257 184q-8 6 -8 15v15q0 8 9 15l260 183q6 4 9 4q5 0 8 -6l18 -29q3 -4 3 -9t-6 -10l-219 -155l219 -154q8 -5 8 -11zM406 42v-29q0 -13 -13 -13h-298q-12 0 -12 13v29q0 13 12 13h298q13 0 13 -13z
" />
    <glyph glyph-name="greaterequal" unicode="&#x2265;" horiz-adv-x="496" 
d="M97 187q0 6 7 11l220 154l-219 155q-7 4 -7 10q0 5 3 9l18 29q4 6 8 6q2 0 10 -4l259 -183q9 -5 9 -15v-15q0 -10 -8 -15l-257 -184q-7 -5 -10 -5q-6 0 -10 9l-20 31q-3 4 -3 7zM91 13v29q0 13 13 13h298q12 0 12 -13v-29q0 -13 -12 -13h-298q-13 0 -13 13z" />
    <glyph glyph-name="lozenge" unicode="&#x25ca;" horiz-adv-x="478" 
d="M240 614l-140 -276l140 -274l139 277zM210 -8l-165 315q-7 19 -7 25v10q0 7 7 26l169 319q5 9 16 9h22q12 0 16 -9l165 -315q7 -16 7 -26v-9q0 -9 -7 -25l-169 -320q-5 -9 -16 -9h-21q-11 0 -17 9z" />
    <glyph glyph-name="commaaccent" unicode="&#xf6c3;" horiz-adv-x="297" 
d="M183 -86q0 -30 -16.5 -61t-40.5 -47q-5 -4 -9 -4q-5 0 -8 5l-4 4q-3 3 -3 7q0 2 4 6q25 25 25 50q0 10 -12 24.5t-12 25.5q0 16 10.5 26t26.5 10q17 0 28 -14t11 -32z" />
    <glyph glyph-name="apple" unicode="&#xf8ff;" horiz-adv-x="591" 
d="M491 202h-261v65h196v66h-196v195h261v-65h-196v-65h196v-196zM491 594h-326v-529h73v-65h-138v659h391v-65z" />
    <glyph glyph-name="published" horiz-adv-x="831" 
d="M775 346q0 -149 -104.5 -253.5t-254.5 -104.5t-255 104.5t-105 253.5t104.5 252.5t255.5 103.5t255 -103.5t104 -252.5zM724 345q0 128 -89.5 217.5t-218.5 89.5t-219 -89.5t-90 -217.5t90 -217.5t219 -89.5t218.5 89.5t89.5 217.5zM428 310h-53v-160q0 -15 -13 -15h-23
q-13 0 -13 15v387q0 15 13 15h83q145 0 145 -120q0 -59 -39.5 -90.5t-99.5 -31.5zM515 432q0 42 -25 60.5t-76 18.5h-39v-160h47q43 0 68 21t25 60z" />
    </font>
</defs>
</svg>
