<svg width="232" height="240" viewBox="0 0 232 240" fill="none" xmlns="http://www.w3.org/2000/svg">
<path opacity="0.2" d="M138.332 221.567C119.904 224.816 100.94 223.026 83.4449 216.385C65.9504 209.744 50.5754 198.499 38.9455 183.839C27.3157 169.179 19.8632 151.649 17.3759 133.103C14.8886 114.556 17.4591 95.6819 24.8154 78.4759C32.1718 61.2699 44.0407 46.3713 59.1673 35.3555C74.2939 24.3396 92.1161 17.6158 110.75 15.8949C129.383 14.174 148.135 17.52 165.023 25.5792C181.912 33.6383 196.308 46.1111 206.691 61.6788L172.942 84.1884C166.615 74.7023 157.843 67.102 147.552 62.1912C137.261 57.2803 125.834 55.2414 114.48 56.29C103.126 57.3387 92.266 61.4358 83.0486 68.1483C73.8312 74.8608 66.5989 83.9393 62.1163 94.4237C57.6337 104.908 56.0674 116.409 57.583 127.71C59.0986 139.012 63.6398 149.694 70.7265 158.627C77.8131 167.56 87.1818 174.412 97.8421 178.458C108.503 182.505 120.058 183.596 131.288 181.616L138.332 221.567Z" fill="#CC0103"/>
</svg>
