<svg width="174" height="175" viewBox="0 0 174 175" fill="none" xmlns="http://www.w3.org/2000/svg">
<path opacity="0.05" d="M122.318 30.2979C130.689 37.3216 137.198 46.3011 141.269 56.4412C145.34 66.5812 146.847 77.5688 145.658 88.4307C144.468 99.2925 140.618 109.693 134.449 118.712C128.28 127.73 119.981 135.088 110.289 140.134C100.597 145.179 89.8099 147.756 78.8838 147.637C67.9576 147.518 57.2295 144.706 47.6497 139.45C38.0698 134.195 29.934 126.658 23.9629 117.507C17.9917 108.356 14.3696 97.8733 13.4172 86.9881L42.5877 84.436C43.1204 90.5241 45.1463 96.3869 48.4859 101.505C51.8256 106.623 56.3759 110.839 61.7339 113.778C67.0919 116.718 73.0922 118.29 79.2032 118.357C85.3142 118.424 91.3473 116.982 96.7682 114.16C102.189 111.338 106.83 107.223 110.281 102.179C113.731 97.1351 115.885 91.3179 116.55 85.2429C117.215 79.1678 116.372 73.0225 114.095 67.3511C111.818 61.6798 108.178 56.6575 103.496 52.7292L122.318 30.2979Z" fill="#CC0103"/>
</svg>
