<svg width="259" height="264" viewBox="0 0 259 264" fill="none" xmlns="http://www.w3.org/2000/svg">
<path opacity="0.21" d="M97.7822 230.882C80.1981 224.482 64.6701 213.449 52.8399 198.951C41.0097 184.452 33.317 167.026 30.5752 148.515C27.8333 130.005 30.1442 111.097 37.2635 93.7916C44.3828 76.4861 56.0459 61.4259 71.0197 50.2032C85.9935 38.9805 103.721 32.0125 122.329 30.0358C140.937 28.059 159.734 31.1471 176.731 38.9734C193.728 46.7998 208.295 59.0736 218.891 74.4971C229.487 89.9207 235.719 107.921 236.927 126.594L196.445 129.214C195.709 117.835 191.911 106.867 185.455 97.4684C178.998 88.07 170.122 80.591 159.764 75.822C149.407 71.053 137.953 69.1713 126.615 70.3758C115.276 71.5804 104.473 75.8263 95.3492 82.6649C86.225 89.5034 79.1181 98.6803 74.7799 109.225C70.4418 119.77 69.0337 131.292 70.7044 142.571C72.3752 153.851 77.0627 164.469 84.2714 173.304C91.4801 182.139 100.942 188.861 111.657 192.761L97.7822 230.882Z" fill="#CC0103"/>
</svg>
