<svg width="32" height="32" viewBox="0 0 32 32" fill="none" xmlns="http://www.w3.org/2000/svg">
<path fill-rule="evenodd" clip-rule="evenodd" d="M15.5007 2C22.9554 2 29 8.0446 29 15.5007C29 22.9554 22.9554 29 15.4994 29C8.0446 29 2 22.9554 2 15.4994C2 8.0446 8.0446 2 15.5007 2ZM15.5007 24.3043C16.6655 24.318 17.8216 24.1003 18.9019 23.664C19.9821 23.2276 20.965 22.5811 21.7935 21.7622C22.6221 20.9432 23.2799 19.968 23.7289 18.8929C24.1778 17.8179 24.4089 16.6644 24.4089 15.4994C24.4088 14.3344 24.1774 13.1809 23.7283 12.106C23.2793 11.031 22.6213 10.0558 21.7927 9.23695C20.9639 8.41809 19.981 7.77183 18.9007 7.33562C17.8204 6.89941 16.6644 6.68192 15.4994 6.69576C13.1824 6.72312 10.9695 7.66275 9.34073 9.3109C7.71192 10.959 6.79848 13.1828 6.79848 15.5C6.79848 17.8172 7.71192 20.041 9.34073 21.6891C10.9695 23.3373 13.1824 24.277 15.4994 24.3043H15.5007ZM15.5007 19.8208C14.3548 19.8208 13.256 19.3657 12.4458 18.5555C11.6356 17.7453 11.1804 16.6464 11.1804 15.5007C11.1804 14.3548 11.6356 13.256 12.4458 12.4458C13.256 11.6356 14.3548 11.1804 15.5007 11.1804C16.6464 11.1804 17.7453 11.6356 18.5555 12.4458C19.3657 13.256 19.8208 14.3548 19.8208 15.5007C19.8208 16.6464 19.3657 17.7453 18.5555 18.5555C17.7453 19.3657 16.6464 19.8208 15.5007 19.8208Z" fill="#CC0103"/>
</svg>
