<svg width="40" height="40" viewBox="0 0 40 40" fill="none" xmlns="http://www.w3.org/2000/svg">
<path fill-rule="evenodd" clip-rule="evenodd" d="M20 1.66663C30.1233 1.66663 38.3316 9.87495 38.3316 20C38.3316 30.1233 30.1233 38.3316 19.9983 38.3316C9.87495 38.3316 1.66663 30.1233 1.66663 19.9983C1.66663 9.87495 9.87495 1.66663 20 1.66663ZM20 31.955C21.5819 31.9736 23.1517 31.678 24.6187 31.0854C26.0856 30.4929 27.4203 29.615 28.5454 28.5029C29.6706 27.3907 30.5639 26.0664 31.1736 24.6066C31.7832 23.1467 32.097 21.5803 32.097 19.9983C32.0969 18.4163 31.7827 16.8499 31.1729 15.3902C30.5632 13.9304 29.6696 12.6061 28.5443 11.4941C27.4189 10.3821 26.0842 9.50455 24.6172 8.9122C23.1502 8.31984 21.5803 8.0245 19.9983 8.04328C16.8519 8.08044 13.8469 9.35643 11.6351 11.5945C9.4232 13.8327 8.18278 16.8524 8.18278 19.9992C8.18278 23.1457 9.4232 26.1656 11.6351 28.4037C13.8469 30.6419 16.8519 31.9179 19.9983 31.955H20ZM20 25.8666C18.444 25.8666 16.9519 25.2486 15.8516 24.1483C14.7514 23.0482 14.1333 21.5559 14.1333 20C14.1333 18.444 14.7514 16.9519 15.8516 15.8516C16.9519 14.7514 18.444 14.1333 20 14.1333C21.5559 14.1333 23.0482 14.7514 24.1483 15.8516C25.2486 16.9519 25.8666 18.444 25.8666 20C25.8666 21.5559 25.2486 23.0482 24.1483 24.1483C23.0482 25.2486 21.5559 25.8666 20 25.8666Z" fill="white"/>
</svg>
