<svg width="184" height="208" viewBox="0 0 184 208" fill="none" xmlns="http://www.w3.org/2000/svg">
<path opacity="0.1" d="M0.304501 37.1042C12.3328 22.7695 28.0109 11.9513 45.6813 5.7934C63.352 -0.364497 82.358 -1.6333 100.69 2.1213C119.022 5.8758 135.999 14.5141 149.826 27.1228C163.653 39.7316 173.816 55.8422 179.24 73.751C184.665 91.661 185.149 110.703 180.642 128.865C176.136 147.026 166.805 163.633 153.637 176.929C140.469 190.224 123.954 199.715 105.836 204.396C87.719 209.078 68.673 208.778 50.7121 203.526L62.097 164.589C73.041 167.789 84.646 167.973 95.686 165.12C106.726 162.267 116.79 156.484 124.814 148.382C132.838 140.28 138.523 130.161 141.269 119.094C144.016 108.027 143.72 96.424 140.415 85.511C137.11 74.598 130.917 64.781 122.491 57.0981C114.066 49.415 103.721 44.1512 92.55 41.8634C81.38 39.5756 69.798 40.3487 59.031 44.101C48.2636 47.8533 38.7101 54.4454 31.3807 63.18L0.304501 37.1042Z" fill="#CC0103"/>
</svg>
