<svg xmlns="http://www.w3.org/2000/svg" viewBox="0 0 515.03 417.21"><defs><style>.cls-1{fill-rule:evenodd;}.cls-2{fill:#551900;}.cls-3{fill:none;}.cls-4{fill:#999;}.cls-5{fill:#b3b3b3;}</style></defs><title>Asset 1</title><g id="Layer_2" data-name="Layer 2"><g id="Layer_1-2" data-name="Layer 1"><path d="M49,188.32c-2.91-8.15-8.16-12.79-19.51-13.22-12.4-.43-21.41,10.28-21.56,21.55-.14,11.49,8.39,22.2,21.84,22.11,9.68,0,17.07-5.46,19.79-13.92l-.19,11.31c-4.68,3.21-12.21,5.77-20.6,5.68-16.89-.21-29-11.18-28.76-25.28s14.21-24.11,29.76-24.36c7.3-.13,16.5,3.21,18.74,4.55Zm50.94-15.91h12.54a7.14,7.14,0,0,0-1.86,1.39,3.26,3.26,0,0,0-1.05,2.21v41.37a3.39,3.39,0,0,0,.91,2.21,7.26,7.26,0,0,0,1.86,1.39H99.87a7.1,7.1,0,0,0,2-1.69,3.06,3.06,0,0,0,.86-1.91V195.69H73.12v21.68a3.39,3.39,0,0,0,.91,2.21A7.28,7.28,0,0,0,75.88,221H63.24a7.75,7.75,0,0,0,2.1-1.69,3.3,3.3,0,0,0,.81-1.91V176a3.56,3.56,0,0,0-.67-1.91,7,7,0,0,0-2.1-1.69H75.93a8,8,0,0,0-1.86,1.39,3.39,3.39,0,0,0-1,2.65v16.13h29.66v-16a4,4,0,0,0-.71-2.47,6.5,6.5,0,0,0-2-1.69m82.26,23.41c0,14-13.73,25.62-28.18,25.62-15.22,0-28.24-11-28.19-24.84s13.59-24.93,28.9-24.59c14.74.31,27.52,9.89,27.47,23.8m-48.17.91c.14,11,7.78,21.37,20.12,21.46,13.78.09,19.7-11.14,19.46-22.11-.19-10.54-7.15-20.55-18.74-21.07-13.31-.65-21,9.71-20.84,21.72m111-8.41c-2.91-8.15-8.16-12.79-19.51-13.22-12.4-.43-21.41,10.28-21.56,21.55-.14,11.49,8.39,22.2,21.84,22.11,9.68,0,17.08-5.46,19.79-13.92l-.19,11.31c-4.67,3.21-12.21,5.77-20.6,5.68-16.88-.21-29-11.18-28.76-25.28s14.21-24.11,29.76-24.36c7.29-.13,16.5,3.21,18.75,4.55Zm71.25,7.5c-.05,14-13.73,25.62-28.19,25.62-15.21,0-28.24-11-28.18-24.84s13.59-24.93,28.9-24.59c14.74.31,27.52,9.89,27.47,23.8m-48.17.91c.14,11,7.77,21.37,20.12,21.46,13.78.09,19.7-11.14,19.46-22.11-.19-10.54-7.16-20.55-18.75-21.07-13.31-.65-21,9.71-20.84,21.72M329.27,221a7.33,7.33,0,0,0,2-1.73,3.35,3.35,0,0,0,.67-1.91l0-41.41a3.35,3.35,0,0,0-.67-1.91,6.38,6.38,0,0,0-2-1.69h12.64a6.29,6.29,0,0,0-1.86,1.39,3.21,3.21,0,0,0-.91,2.21v41.28h17.31a7,7,0,0,0,4-1.21,6.62,6.62,0,0,0,2.72-2.65L362,221Zm46.35-.13a11.7,11.7,0,0,0,2.29-1.6,8.45,8.45,0,0,0,1.81-2.78l21.13-45.57,20.65,45.48a6.83,6.83,0,0,0,1.67,2.56,10.56,10.56,0,0,0,3.39,1.95l-15,0s2.1-.78,2.62-1.82c.57-1.21-.1-2.17-.62-3.38l-4.48-10H388.88l-5.05,11.05c-.38.91-.81,1.65-.43,2.56s2.34,1.61,2.43,1.61Zm23.18-37.59-8.54,19.29h17.41Zm53.9-7.72v41.75a3.43,3.43,0,0,0,1,2.26,7.35,7.35,0,0,0,1.91,1.43H442.35a6.42,6.42,0,0,0,2.15-1.6,3.4,3.4,0,0,0,.67-2V175.53l-12.11.3c-1.48,0-2.63,0-3.77.87a6.35,6.35,0,0,0-1.72,2.78l0-7h42.73v6.72a6.34,6.34,0,0,0-1.62-2.34,4.3,4.3,0,0,0-2.91-1Zm51,17a3.68,3.68,0,0,0,2-.7,2.93,2.93,0,0,0,1.38-1.6v7.54a2.39,2.39,0,0,0-1.19-1.56,3.29,3.29,0,0,0-2.05-.52H490.76v21.51h17a7.17,7.17,0,0,0,4.44-1.3,6.27,6.27,0,0,0,2.86-3.47L513.46,221h-33a11.11,11.11,0,0,0,2.34-1.52,3.27,3.27,0,0,0,1-2.47V177.57a4.33,4.33,0,0,0-1.15-3.13,11.81,11.81,0,0,0-2.86-2h31.57l0,6a5.3,5.3,0,0,0-2.15-2,5.8,5.8,0,0,0-3-.83h-15.4v17Z"/><path d="M53.87,288a11.06,11.06,0,0,0,2.19-1.54,8,8,0,0,0,1.73-2.66L78,240.14l19.77,43.55a6.63,6.63,0,0,0,1.6,2.45,10.25,10.25,0,0,0,3.25,1.87L88.3,288s2-.75,2.51-1.75c.55-1.16-.09-2.07-.59-3.24l-4.29-9.55H66.56L61.72,284c-.36.87-.78,1.58-.41,2.45S63.55,288,63.64,288Zm22.19-36-8.17,18.47H84.55Zm86.58,4.82c-2.79-7.81-7.81-12.25-18.68-12.66-11.87-.41-20.5,9.84-20.64,20.63-.14,11,8,21.26,20.92,21.18,9.27,0,16.35-5.23,19-13.33L163,283.44c-4.47,3.07-11.69,5.52-19.73,5.44-16.16-.21-27.76-10.71-27.54-24.2s13.61-23.08,28.5-23.33c7-.13,15.8,3.07,17.95,4.36ZM178.44,288a11,11,0,0,0,2.19-1.54,8.13,8.13,0,0,0,1.74-2.66l20.23-43.63,19.77,43.55a6.62,6.62,0,0,0,1.6,2.45,10.25,10.25,0,0,0,3.25,1.87l-14.34,0s2-.75,2.51-1.75c.55-1.16-.09-2.07-.6-3.24l-4.29-9.55H191.14L186.3,284c-.37.87-.77,1.58-.41,2.45s2.24,1.54,2.33,1.54Zm22.19-36-8.17,18.47h16.66ZM242.43,288a6.68,6.68,0,0,0,2.83-1.79,3.41,3.41,0,0,0,.64-1.82V245.25a3.17,3.17,0,0,0-.73-2,6.69,6.69,0,0,0-2.24-1.7h24.47c13.43,0,24,9,24.7,22,.77,13.7-12.65,24.53-29.36,24.53ZM253,244.63v39.1a28.29,28.29,0,0,0,9.18,1c12.55,0,22.51-4.15,22.74-20.88a19.25,19.25,0,0,0-19.18-19.22Zm76.5,16.23a3.55,3.55,0,0,0,2-.66,2.84,2.84,0,0,0,1.32-1.54v7.23a2.28,2.28,0,0,0-1.14-1.49,3.14,3.14,0,0,0-2-.5H317.1v20.59h16.26a6.86,6.86,0,0,0,4.24-1.24,6,6,0,0,0,2.74-3.32l-1.51,8.18h-31.6a10.52,10.52,0,0,0,2.24-1.46,3.11,3.11,0,0,0,1-2.36V246.49a4.14,4.14,0,0,0-1.1-3,11.43,11.43,0,0,0-2.74-2h30.23l0,5.73a5.07,5.07,0,0,0-2.06-1.87,5.55,5.55,0,0,0-2.83-.79H317.14v16.23Zm66.77-11.58-17.81,39.85L360,249.28v36a2.41,2.41,0,0,0,.73,1.53,3.44,3.44,0,0,0,1.6,1.25h-8a3.84,3.84,0,0,0,1.65-1.16,2.49,2.49,0,0,0,.73-1.5V244.34a2.73,2.73,0,0,0-.55-1.66,2.77,2.77,0,0,0-1.42-1.08h9.5L380.12,278l15.66-36.32h9.45a5.52,5.52,0,0,0-1.78,1.33,3.47,3.47,0,0,0-.55,2.12v39.81a2.76,2.76,0,0,0,.92,2,5.92,5.92,0,0,0,2,1.08h-12a3.89,3.89,0,0,0,2-1.21,2.9,2.9,0,0,0,.46-1.87Zm49.14,35a4,4,0,0,0,.64,2.45,7,7,0,0,0,2.69,1.41H434.79a6.93,6.93,0,0,0,2.51-1.5,3.12,3.12,0,0,0,1-2.16l0-20.22-12.69-18.31a10,10,0,0,0-2.15-2.37,17.28,17.28,0,0,0-3.42-2h14.79c-.09,0-2.15.71-2.51,1.7s.27,1.87.91,2.78l10.59,15.24,8.36-14.62c.68-1.2,1.6-2.74,1.51-3.32a2.52,2.52,0,0,0-2.05-1.74h10a6.66,6.66,0,0,0-3,1.7,8.44,8.44,0,0,0-1.87,2.41l-11.46,18.64Z"/><path d="M365.82,79.59c-9.92-9.06-38-9.74-70.39-3.1l-3.34-7.87c24.53-5,47.1-6.33,62.05-3.77-13.9-4.11-37.13-3.82-63.45.49L263,0,227.28,82.27c-42.79,16.16-66,36.57-52.73,48,14.78,12.67,69.13,9.38,121.4-7.36,4.87-1.56,8-2.58,12.46-4.25-.83.28-.11,0-1,.22C260.07,134,200.23,141.09,186.83,129.6c-9.77-8.37,7.86-24.31,36.5-38.21l-5.59,12.9a19.49,19.49,0,0,1-3.88,6.35,24.93,24.93,0,0,1-4.9,3.67l21.85.1c-.2,0-4.29-1.49-5.21-3.67s.1-3.77.92-5.85l7.91-18.54c7.71-3.28,16-6.37,24.52-9.11,6.2-2,12.44-3.76,18.62-5.32l3.06,7.67.14.33c-8.67,2.28-17.49,5-26.24,8.25q-6.64,2.44-12.74,5.05l2.29-.86A258.3,258.3,0,0,1,281.5,81.71l8.71,20.7c1.12,2.78,2.55,5,1.33,7.74-1.13,2.38-5.52,4.17-5.62,4.17l32.05.1c-.41-.1-5.1-2.08-7.25-4.46a15.76,15.76,0,0,1-3.57-5.85L296.58,79.18c22.61-2.95,41-1.32,48.41,5.41,12.66,11.56-7.13,33.13-55.09,49.63-33.2,11.42-79.58,16.61-99.5,13,20.46,6.44,74.59,1.81,114.67-12.93C352.58,116.85,379.79,92.34,365.82,79.59ZM242.43,77q-2.37.76-4.68,1.54l21.93-51.41,16.35,41A344.66,344.66,0,0,0,242.43,77Z"/><path class="cls-1" d="M334.6,298.9c-1.54.93-3.89.46-5.26-.39C328.42,292.39,336.64,293.3,334.6,298.9Z"/><path class="cls-1" d="M380.54,301.3c-1.46,7.38-.26,17.12,0,25.54.31,11.18,2,22.34,2.26,33,.64,0,.55-.72.67-1.24.82,3.57,1.67,9.52.18,13.3-5.5,1-8.68-4.42-11.56-7.78-7.35-8.57-15.3-18.06-20.59-27.72-.3,10.27,2.64,21.23,3.35,32,.18,2.75-.41,6.47,1.21,8.06-.85,1.64-.66,4.39-1.06,6.51-.65.18-.47,1.24-1.51,1-.11.44.29.41.62.44-.32.75-2,.07-1.53,1.63-.82-.91-1.1-1.12-2.92-.94-2.3-10.4-2.86-22.72-4.31-35-.46-3.87-1.34-7.8-1.5-11.66-.25-5.74,2.18-11.68.79-17.07-.83-3.22-3.56-5.15-2.84-9.81.68-.66.82-1.9,2-2a9.27,9.27,0,0,0,1.55,4.06c1.48-1.62,1.59-4.71,2.35-7.1,1.46,2.59.13,8.51.88,11.43.89,3.47,4.44,7.06,6.63,9.94,7.11,9.36,13.1,20.13,21.22,27.95a248.47,248.47,0,0,1-.5-41.39c.43-5.57,1-11,4.24-13.16Z"/><path class="cls-1" d="M332.43,306.85c-1.16,3.8-.55,9.86-.5,14.76.15,14.56,2.37,30,2.74,44a1,1,0,0,0,.67-1.24c.91,3.4,1.76,9.95,0,13.3-2.78.6-6.49-1.29-7.27-3.41s.16-9.68.25-13.5c.17-7.6-1.35-16.82-1.45-25.81a148.18,148.18,0,0,1,1.53-20.21c.42-3.28,1.71-6.37,3.64-7.9Z"/><path class="cls-1" d="M269.89,320.78c.68,1.06-.64,1.57-.72,2.51.39,19.53,2.07,37.44,3,56,1.09.37.18-1.41,1.1-1.23.09,4.13,2,10.15-.46,13.5-5.73.19-8.54-4.92-11.54-8.42-7.33-8.53-15-17.67-20.4-27.29.24,11.79,2.79,23.11,3.66,35.59.12,1.8-.47,3.59,1.11,4.47-1.84,1.53.25,7.27-2.78,7.5-.34.79.94.07.6.86-.69.39-1.54-.38-1.51,1-.78-.81-1.1-.87-2.72-.72-2.16-10.46-3.32-22.67-4.52-35-.38-3.88-1.15-7.82-1.3-11.66-.21-5.34,1.68-10.67,1-16-.47-3.53-6-9.11-1.25-12.92a10.23,10.23,0,0,0,1.76,4.07c1.34-1.77,1.53-4.77,2.35-7.1,1,3.71-.1,9.55,1.05,12.49,1.29,3.29,4.54,6.41,6.65,9.51,6.44,9.46,13.28,19.07,20.82,27.3-.7-9.68-1.89-27.35-.29-41.39.62-5.44.51-10.26,4-13.37C269.72,320.53,269.85,320.62,269.89,320.78Z"/><path class="cls-1" d="M283.18,321.23c2.5,20,4.29,39.35,7.73,58.53,1-.15.62-1.68.73-2.72a91.89,91.89,0,0,0,13.21-3.57c7.06-2.34,11.83-9.26,20.59-9.65-2.46,3.19-4.34,7-7.7,9.24a1.32,1.32,0,0,1-.7,1.87c0,.44.92.09,1,.46-.67,1.17-2.19,2.1-2,3.52-8.75,6.22-20.94,8.77-29.64,15-4.34-13.22-6.15-30.78-6.83-47.73C279.22,337.12,278,327.41,283.18,321.23Z"/><path class="cls-1" d="M428.44,344.84c-.19.16-.37.32-.55.49-.43.41-.84.84-1.25,1.28a15.7,15.7,0,0,1-3.45,2.62,22.24,22.24,0,0,1-4.36,1.91,40.09,40.09,0,0,1-10.27,1.77c-.59.91-1.31.94-2.35,1-.24-.75-1.39-1-1.87-.91-.56-7.64-2.3-14.8-3-22.69,6.14-3.84,16.14-3.56,20-9.88-8,.36-14.13,2.81-21,4.36-1.34-7.78-3.27-13.83-4.12-21.88,3.45-1,8.58-3.65,13.45-4.61,5.37-1.06,11.4-1.53,9.57-8.33-2.45-.11-2.8,1.94-4.53,2.8a9.92,9.92,0,0,1-3.19.53c-8,1.22-20.53,3-22.26,9.17-2.1,7.45,2.18,13.2,2.7,19.93.5,6.45-5.42,5.71-6.28,11,1.85,2.24,5.44.47,8,.27,2,10.85,3.2,20.74,5,33.31,2,1.92,4.67-.19,7.85-1.21,6.92-2.24,15.06-3.7,20.29-7.12.13-.66-.71-.58-.17-1.06,1.52.13,1.44-1.44,2.51-1.78.06-.1.13-.19.19-.28s.2-.34.3-.5a1.11,1.11,0,0,0-.41.31c-.62-.45,1.22-1.7,1.57-2a13.62,13.62,0,0,0,1.93-2.33c1-1.51,1.64-3.17,2.57-4.69.47-.76,1.63-1.8,1.2-2.79s-2.06-.93-3-.83A9.46,9.46,0,0,0,428.44,344.84Z"/><path class="cls-2" d="M142.12,335.18c-.11.38-.75.12-.79.59C141.75,335.87,142.58,335.59,142.12,335.18Zm54.55.45c-5.74-.89-10.87-2.88-16.31-3.88-5.63-1-10.91-.71-16.55-1.35-1.57-.18-3.17-.48-4.83-.53h-.32c-4.13,0-8.59,1.58-12,3-.94.41-2.36.62-3.25,1.84a2,2,0,0,0-1,.6.66.66,0,0,0,.86-.16l.41.38a8.63,8.63,0,0,1,1.16-.47l.05,0a.69.69,0,0,0,.2,0h.21l.07,0c.82-.41,3.92-1.06,5.84-2a2.47,2.47,0,0,0,.87.16c1,0,2.05-.29,2.38-.27h1.09c2.55.07,5.91.55,8.88.63.54,0,1.06,0,1.56,0,2.92-.1,5.77-.19,8.56-.11A43.88,43.88,0,0,1,184,334.7c3,.72,5.95,2.07,9.11,2.16a10.09,10.09,0,0,0,3.6-.54Z"/><path d="M142.12,335.18c-.11.38-.75.12-.79.59C141.75,335.87,142.58,335.59,142.12,335.18Zm54.55.45c-5.74-.89-10.87-2.88-16.31-3.88-5.63-1-10.91-.71-16.55-1.35-1.57-.18-3.17-.48-4.83-.53h-.32c-4.13,0-8.59,1.58-12,3-.94.41-2.36.62-3.25,1.84a2,2,0,0,0-1,.6.66.66,0,0,0,.86-.16l.41.38a8.63,8.63,0,0,1,1.16-.47l.05,0a.69.69,0,0,0,.2,0h.21l.07,0c.82-.41,3.92-1.06,5.84-2a2.47,2.47,0,0,0,.87.16c1,0,2.05-.29,2.38-.27h1.09c2.55.07,5.91.55,8.88.63.54,0,1.06,0,1.56,0,2.92-.1,5.77-.19,8.56-.11A43.88,43.88,0,0,1,184,334.7c3,.72,5.95,2.07,9.11,2.16a10.09,10.09,0,0,0,3.6-.54Z"/><path class="cls-3" d="M150.38,366.5l.62.49-.08-1-.39.35Z"/><path class="cls-3" d="M114.66,358.7c.57-.63,1.07-1.18,1.38-1.57,3.77-4.65,7.89-7,12.86-10.34,1.06-.72,2.16-1.42,3.3-2.08a20.78,20.78,0,0,1-1.53-6.19A105.93,105.93,0,0,0,114,351.21a4.41,4.41,0,0,0-.17,1.22c0,.43,0,.89,0,1.35A25.93,25.93,0,0,0,114.66,358.7Z"/><path class="cls-3" d="M117.25,360.39l-.11.09c-.5.4-1,.84-1.54,1.3a49,49,0,0,0,2.72,6.27l3.34-2.59a59,59,0,0,1,7.9-5.45c2.86-1.6,5.76-3.17,8.79-4.65a48.43,48.43,0,0,1-3.55-5.28c-3.83,1.85-7.44,4-10.94,5.79a13.09,13.09,0,0,1-3,1.56.45.45,0,0,1,0,.13s0,0,0,.07v.2l-.18.09a19.41,19.41,0,0,0-3.42,2.05.57.57,0,0,1,.05.22.43.43,0,0,1,0,.06Z"/><path class="cls-3" d="M180.65,381.49h0l.54-.42c.95-.69,1.86-2.28,3.16-2.73v0a1.29,1.29,0,0,1,0-.27v-.26l.25-.08.23-.09c.21-.34.42-.69.61-1.05l.14-.28c-2.05,2.13-4.22,4.07-6.17,6.25A6.63,6.63,0,0,1,180.65,381.49Z"/><path class="cls-3" d="M212.12,349.28l-.43.07,0-.44a3,3,0,0,1,.06-.35l-.08.17a4.24,4.24,0,0,1-.77,1.14,1,1,0,0,1,0,.14l0,.12,0,.11a.64.64,0,0,1-.25.34h0l0,.17-.11.14a1.16,1.16,0,0,1-.36.33s0,0-.14.2c-.21.38-.46.77-.78,1.33a16.55,16.55,0,0,0-.59,2.32,4,4,0,0,1-1,1.43l.05.08,0,.07a.35.35,0,0,1,0,.15.49.49,0,0,1,0,.12l-.22,0,.18.1h0v0l-.07.15-.22.5c-.16.38-.33.83-.35.93l-.11,0H207l.2.14h0l-.07.09a.33.33,0,0,1-.26.13.59.59,0,0,1-.2,0c-.48,1.2-.74,2.81-1.23,3.8a.42.42,0,0,1-.41.22h-.09c-.19.44-.41,1.34-.63,1.85-.1.16-.12.39-.47.47a.4.4,0,0,1-.31.25,3.35,3.35,0,0,1-.36.88.54.54,0,0,1,.08.15l.08.18-.12.16c-.45.56-.83.77-.76.84a.37.37,0,0,0,0,.14l-.49.26a.6.6,0,0,1-.16.11,4.74,4.74,0,0,1-.4,1.54,1.8,1.8,0,0,1-.92,1c-.06.3-.17.37-.14.37v0l-.53.46a.17.17,0,0,0-.11,0h0a1,1,0,0,1,0,.17,3.41,3.41,0,0,1-.32,1.11l0,.13-.18.15-.13.08c0,.05,0,.11,0,.18v.26l-.25.09a2.08,2.08,0,0,1-.7.17.62.62,0,0,1-.33.61c-.17.05-.44.49-.67,1s-.4.91-.94,1a1.86,1.86,0,0,1-.81,1.05c-.36.26-.59.52-.56.57a.17.17,0,0,0,0,.08l.15.29-.27.17a.55.55,0,0,1-.14.07h0a.58.58,0,0,1-.23.25l0,.06.05.26-.23.13a2.64,2.64,0,0,1-.93.46,4.19,4.19,0,0,1-2.09,2.32.68.68,0,0,1,0,.1,1.45,1.45,0,0,1-.6.94c-.2.18-.42.36-.57.53a1,1,0,0,1,.07.44s0,0,0,.07v.37l-.37,0h-.08c-.38,0-.36.07-.43.16s-.07.35-.21.63l-.11.22.19.27-.32.2-.16.09,0,0v0a2.13,2.13,0,0,1-.35.13.7.7,0,0,1,0,.15l.07.3-.29.12a3.36,3.36,0,0,1-.8.27c0,.06,0,.11,0,.17a1.53,1.53,0,0,1-1.4,1.54,4.46,4.46,0,0,1-.19.68c-.15.3-.22.68-.75.75l-.18,0c-.67,1.15-1.36,1.36-1.85,2.41l-.28-.06v0c-.05.08-.11.21-.16.3a.73.73,0,0,1-.11.19l0,0c5.8-4.56,11.47-10.53,16.87-15.66a1,1,0,0,1-.08-.32.46.46,0,0,1,.26-.39c2-1.47,4.14-4.35,5.9-6.8l0,0,0,0a28.23,28.23,0,0,0,3.48-3.79l0-.07c0-.07,0-.16,0-.26s0-.41.27-.67a.49.49,0,0,1,.31-.09h.11c2.2-3.11,4.78-7.2,4.87-11.11a8.13,8.13,0,0,0-1.76-5.37A.72.72,0,0,1,212.12,349.28Z"/><path class="cls-3" d="M182.06,393.35h0l-.16,0-.05,0a4.68,4.68,0,0,0-.5.73l.88-.68a.29.29,0,0,1-.14,0Z"/><path class="cls-3" d="M183,323.13a.81.81,0,0,1-.31,0c-.68-.06-1.32-.58-1.69-.65l-.87.55q1.6.25,3.2.54A1.75,1.75,0,0,1,183,323.13Z"/><path class="cls-3" d="M133.16,344.16A70.4,70.4,0,0,1,147.73,338c4.25-1.23,9.39-.87,13.68-1.7h.76c5.81.15,10.95.87,16.67,1.28,1.64.11,3.29.19,4.93.24a109.3,109.3,0,0,0,14.32-.53c1.35-.13,3.42-.13,3.67-.25a12.06,12.06,0,0,1,1.55-.24,1.64,1.64,0,0,0,.82-.3,1.88,1.88,0,0,1-.23-1,4.52,4.52,0,0,1,.64-2.06c-4.5-1-8.79-2.79-13.51-3.75-3.6-.74-7.32-1.92-10.73-2.11-3-.17-5.54-.3-8.33-.49-1.2-.08-2.32-.14-3.39-.16a50.76,50.76,0,0,0-10.73.81,62.84,62.84,0,0,0-16,4.72,111.29,111.29,0,0,0-9.94,5.31c0,.32,0,.66,0,1A20.57,20.57,0,0,0,133.16,344.16Z"/><path class="cls-3" d="M173.36,390c1.24-1.19,2.43-2.43,3.66-3.59a50.42,50.42,0,0,0,3.65-3.5l.25-.29c-4.16,3.48-9.28,7-13.49,10.81-1.94,2.39-4.63,3.73-6.94,5.17,1.63-.79,3.24-1.64,4.87-2.55A39.14,39.14,0,0,0,173.36,390Z"/><polygon class="cls-3" points="195.33 342.95 195.33 342.95 195.25 343.02 195.33 342.95"/><path class="cls-3" d="M170.79,356.18l.11.12.05.05a.64.64,0,0,0,0-.12h0Z"/><path class="cls-3" d="M155,362.36h0l0,0Z"/><path class="cls-3" d="M190,344.36l.17,0a1.24,1.24,0,0,1,1-.77c.48-.1.76-.13.93-.47l.1-.2c-4,.58-8.42,1.45-12.61,1.81a37.82,37.82,0,0,1-3.84,0l-.83,0a32.73,32.73,0,0,0-6.42.24h-.09c-1.58-.08-3.16-.14-4.72-.19a81.46,81.46,0,0,0-16.38,1,46.13,46.13,0,0,0-11.66,3.86,40.25,40.25,0,0,0,2.56,4c.33.44.65.87,1,1.3A92,92,0,0,1,158,348.18a57,57,0,0,1,15.46-1.82,9.14,9.14,0,0,1,3.79.83l-.11.82c-.54-1-2.85-1.15-4.87-1.2-7.27-.17-16.78,1.89-24.38,4.77-3,1.12-5.72,2.3-8.4,3.57a84,84,0,0,0,8.19,9l.8.74a3.34,3.34,0,0,1,1.73-.45l.32,0a1.63,1.63,0,0,1,1.38-1l.23,0c.15-.43.56-.58.61-.64l.24-.21.24.22a.41.41,0,0,0,.27.13c.18-.32.43-.06.82-.32a.56.56,0,0,1,0,.11l.38-.09a.49.49,0,0,1-.11-.4c.18.22.41.08.53-.22h0l.07-.17a.62.62,0,0,1,.59-.43h0v-.13l.29-.06.2,0,.23-.14a5.21,5.21,0,0,1,1-.41l-.77-.49,1.27,0h0c.5.06.87-.51,1.71-.55h.11a.82.82,0,0,1,.68-.55V359l.25-.1a4,4,0,0,1,1.51-.42.61.61,0,0,1,0-.09.38.38,0,0,1,0-.13l.07-.2.2,0c1.51-.26,2.34-.94,3.57-1.26a.42.42,0,0,1,.17-.23h0c.87-.5,2.21-.78,2.64-1.08l.16.23a1.23,1.23,0,0,1,.35-.61l.86-.68-.09.33c6.05-3.19,12.72-7.59,19.07-10.29l.55-.24,0,.17Z"/><path class="cls-3" d="M178.66,395.35a2.21,2.21,0,0,1-.16.31,1.22,1.22,0,0,1-.78.55s0,.06,0,.09,0,.23,0,.39c.39-.31.8-.64,1.24-.95l-.21-.36Z"/><path class="cls-3" d="M224.28,317.28h-.12a43.94,43.94,0,0,1-1.89,10c1.85-2.06,3.77-3.87,4.62-7C226.49,318.53,225.83,317.33,224.28,317.28Z"/><path class="cls-3" d="M152.16,380.4l1-.44h0a33.27,33.27,0,0,0,4.3-2.07l.92-.55c1-.63,2.11-1.27,3.15-2-.58-.33-1.15-.68-1.71-1-2.27-1.38-4.35-2.94-6.44-4.4-1.45-1-2.75-2-4-3h0a.75.75,0,0,1-.26,0,2.44,2.44,0,0,1-1.19.72l.14.63-.65-.35.05.21-.43,0c-.16,0-.37,0-.59,0h-.05a.69.69,0,0,1-.06.14.49.49,0,0,1-.43.26l-.21-.07a1.38,1.38,0,0,1-.52.46L145,369a.71.71,0,0,1-.41.19l-.14.07,0-.07-.14,0-.06,0a1.44,1.44,0,0,1-.94.35,1.09,1.09,0,0,1-.7-.27h0l.3-.33-.12-.08a.82.82,0,0,0,.05-.17l0,0c-.25-.05-.66-.21-.89.25.06.16.12.31.28.34.26.24-1.06-.22-.92.78a.52.52,0,0,0-.41-.15c.36-.25.51-.48.52-.76-.28-.61-.67-.09-1.21-.1.65.3,0,.29.29,1.06-.37.06-.45-.48-.28-.7-.34-.26-.38.64-.12.55-.47.48-1.87.28-1.51-.57a4.72,4.72,0,0,1,1.9-.89c-.4.09.93.15,1.07.27.25-.21.33-.63.52-.93.38.09.11.57.58.4a1.2,1.2,0,0,1,0-.29,1.69,1.69,0,0,1,0-.23l0-.31H143l0,0a.74.74,0,0,1,.49-.19l.53,0v-.06h.32c0-.05,0-.11,0-.17l0-.3.29-.08c.65-.15,1.23-.23,1.39-.51l.63-.89v.63l.23-.1.45-.11v.12l.31-.26-.22-.21a89.4,89.4,0,0,1-8.89-9.59c-2.71,1.31-5.36,2.7-8.06,4.21a59.47,59.47,0,0,0-7.58,5.1c-1.21.95-2.38,1.91-3.57,2.82l-.84.64c.54,1,1.1,2,1.69,2.95.78,1.25,1.56,2.44,2.37,3.6a1.22,1.22,0,0,1,.87-.22c-.07.14-.52.11-.71.45a100,100,0,0,0,6.8,8.54c.86,1,1.8,1.94,2.76,2.85,2.16-.34,4.3-.75,6.2-1.2A85.11,85.11,0,0,0,152.16,380.4Z"/><polygon class="cls-3" points="144.09 367.4 144.09 367.4 144.09 367.4 144.09 367.4"/><path class="cls-3" d="M209.85,337.78a4.75,4.75,0,0,1-2.08,1h0c-3,2-7.26,2.76-10.46,3.22a1.07,1.07,0,0,1-.89.59c-.32.09-.39,0-.51.37l-.55-.05,0,.12h-.18c-.72,1-2.09,1.3-3,2l-.86.67.13-.44a11.27,11.27,0,0,1-3.81,2.09l-.09.11-.23.21c-.18.14-.41.31-.67.47a15.75,15.75,0,0,1-1.41.84c-1.31.64-2.78,1.06-3.82,1.7a5,5,0,0,1-1.61.89,1.58,1.58,0,0,1-.5.54,6.51,6.51,0,0,1-1,.62,8.33,8.33,0,0,1-1.57.62c-.1.52-.48.58-.78.74s-.68.24-.79.29a28,28,0,0,0-3.64,2.21l-.18.12.37.37-1.12-.21h0c-.08,0-.19.05-.3.15l0,.13,0-.07-.14.14a.52.52,0,0,1-.39.18l-.11,0a1.52,1.52,0,0,1-.66.39c-.34.09-.67.1-1.15.19a15.18,15.18,0,0,1-6.07,2.77,2.91,2.91,0,0,1-1.91.82l-.19,0,.14.23-.29.19a1.85,1.85,0,0,1-1,.24l0,.06-.29.16a3.15,3.15,0,0,1-1.65.43h-.08V363a.87.87,0,0,1-.13.39l-.07.12-.12,0c-1.5.53-2.6,1.58-4,2-.09.25-.25.25-.34.35l-.28.18L151,367c.72.56,1.46,1.1,2.2,1.62,1,.71,2.06,1.41,3.06,2.12s2,1.47,3,2.11,2.1,1.33,3.18,1.92a19.76,19.76,0,0,0,3.57-3.2l.1-.12h.15l.42,0h.15a33.55,33.55,0,0,0,6-6.34,35.16,35.16,0,0,1,5.95-6.32c1.3-1.23,2.66-2.41,4-3.56,2-1.7,4-3.47,5.85-5.4l.05-.06.07,0a.63.63,0,0,1,.19,0v0l.15-.09a6.44,6.44,0,0,1,1.11-.54c.34-.13.45-.17.9-.78l.09-.12.15,0h.24a1.24,1.24,0,0,1,.74-.49l.1,0a.5.5,0,0,0,.07-.2l.07-.33.33.05,0-.2h.36l0-.55.31.21.3-.45,0,.25a3.59,3.59,0,0,1,.36-.18,1.85,1.85,0,0,0,.81-.56l.11.07a2.7,2.7,0,0,1,1.5-1.09l.25-.1.42-.19.07.46a.69.69,0,0,1-.1.53.58.58,0,0,1-.43.2,1.06,1.06,0,0,0,0,.21l.16,1-.75-.71h-.12l0,0a1.54,1.54,0,0,1-.45.4s0,.07,0,.11v.11l-.06.08a1.13,1.13,0,0,1-.29.31.7.7,0,0,0-.3.52l-.14.71-.45-.52a.68.68,0,0,1-.6.46.45.45,0,0,0,0,0l0,.28-.27.09a.72.72,0,0,1-.27,0l-.05.14h0a.57.57,0,0,1-.22.34l-.12.1h0v.22l-.43-.21a2.21,2.21,0,0,1-.15.22,1,1,0,0,0-.12.17l-.11.2h-.23l-.14,0a.42.42,0,0,1-.38.22.37.37,0,0,1-.18-.05h0l.38,1.18-.52-.43-1.14,0a1.23,1.23,0,0,0-.21.23,2.14,2.14,0,0,1-.35.37h0a.61.61,0,0,1-.17.44.48.48,0,0,1-.35.13l-.15,0a1.76,1.76,0,0,1-1,1.1,2.86,2.86,0,0,1-2,2.1.61.61,0,0,1,0,.25.77.77,0,0,1-.65.5c-.13.42-.64.72-1.07,1-.71.42-1.16.73-1.05,1.19l.1.44h-.39l0,0-.08.12h0l0,0a1.1,1.1,0,0,1-.26.21l-.36.31a.87.87,0,0,0-.39.63l0,.37-.37,0h-.14a.88.88,0,0,1-.25.24h0a.46.46,0,0,1,0,.15.55.55,0,0,1-.49.49v0a.73.73,0,0,1-.39.46c-.17.11-.24.15-.22.36l-.35.09a1.4,1.4,0,0,1-.27.26.48.48,0,0,1,0,.25c-.06.35-.43.47-.73.57l-.2.07a.28.28,0,0,0,.11-.21.38.38,0,0,0,0-.08l-.25.57h0a1.7,1.7,0,0,0-.22.28,1.58,1.58,0,0,1-.9.77,2.29,2.29,0,0,1-.67,1.22c-.44.52-.71.89-.59,1.28l.22.69-.68-.25h0a1.35,1.35,0,0,0-.2.29l-.15.23h0l-.05.35a2.55,2.55,0,0,1-.45,1.07,2,2,0,0,0-.32.64l-.11.43-.39-.19-.29.51a4.37,4.37,0,0,1-1,1.35l-.61.57v-.2a.85.85,0,0,1-.58.33,1,1,0,0,1-.4.32c-.12.06-.2.1-.28.54l0,.27-.28,0c-.36,0-.79.42-1.25.84l-.39.36h0l0,.22a1.3,1.3,0,0,1-.91,1s0,.07,0,.1l0,.28-.28,0-.16,0,.53.28.12,0,0,0,.13,0,.08.15a.43.43,0,0,1,0,.21.34.34,0,0,1,0,.05l.18.47-.62-.11a5,5,0,0,1-1.43-.58.6.6,0,0,0-.19.27l0,.18-.16.08-.37.16c-.51.22-1,.42-1.16,1.16l-.12.54-.44-.33-.12-.06-.07,0a3.43,3.43,0,0,1-1.21.82c-.24.51-.78,1.21-1.39,1.2h-.12a1.33,1.33,0,0,1-.91.54.89.89,0,0,0-.31.11s-.05.1.06.44l.2.64-.64-.19a.5.5,0,0,1-.27-.2,2.88,2.88,0,0,0-.1.27c-.17.47-.33.62-.93.73l0,.38a3.88,3.88,0,0,0-1.05.49l-.42.24,0,.45a1,1,0,0,0-.36.22,1.75,1.75,0,0,1-.6.36l0,.4a5.65,5.65,0,0,0-2.81,1.72l-.14.16-.21,0-.06,0,0,.15-.09.4-.38-.15a.85.85,0,0,0-.27-.06c-.11,0-.16,0-.3.21a.93.93,0,0,1-.6.4,1.28,1.28,0,0,1-.08.45l-.06.18-.19,0a.88.88,0,0,1-.25,0l.07.26-.32.11c-1.39.46-2.72,1-4.14,1.61s-3.14,1.3-4.8,1.83l.56.43a41.36,41.36,0,0,0,4.91,3.3c1,.52,2.16,1.07,3.13,1.72l.12.05,0,0,.13,0,.07.16a.44.44,0,0,1,0,.19.35.35,0,0,1,0,.08l.14.47-.59-.12a8.26,8.26,0,0,1-2-1c-.64-.33-1.3-.6-2-1a40.37,40.37,0,0,1-3.5-2.33c-.77-.55-1.51-1.12-2.24-1.71l-.07,0a90.24,90.24,0,0,1-16.51,2.8,18.6,18.6,0,0,1-2,0,48,48,0,0,1-5.17-.52c-1.26-.17-2.56-.35-3.85-.45a4.46,4.46,0,0,0-.35,3.56c.89,2,3.73,3,6.2,3.87,8.87,3,19.94,2.9,28.48.7,1.06-.27,2.09-.56,3.11-.87l-1.2.16-.47.07v-.11h-.1a5.07,5.07,0,0,0-1.1.13l-.45.19,0-.19-.27.21-.07,0h-.09c-2.83.32-6.25,1.2-9.24,1.12a10.8,10.8,0,0,1-1.72-.18c-.63-.15-1-.53-1.3-.5a.41.41,0,0,0-.22.05l-.5.26,0-.56c-.07-.35,0-.21-.22-.27s-.68.12-1.12.11a1.08,1.08,0,0,1-.5-.12l-.33-.18.19-.32h-.12c-.71-.06-1.19-.55-1.53-.58l-.92.34.54-.88,0-.05,0,0a2.07,2.07,0,0,0-.32-.2c-.24-.15-.67-.33-.72-.84a.73.73,0,0,1-.62-.54l-.42-.18.5-.24a.83.83,0,0,1,.57-.33l.44-.08v.44h0a.43.43,0,0,1,0,.09c.45.23.95.53,1.33.74.13.09,1.33.32,2.26.72a18.3,18.3,0,0,0,3.42.81,6.83,6.83,0,0,0,.89.08c1,0,2-.14,2.94-.12a5,5,0,0,1,.74.07.91.91,0,0,1,.28.09.6.6,0,0,1,.28-.14h0a43.37,43.37,0,0,0,8.21-.88l.11-.32.09.28a42.41,42.41,0,0,0,15.91-7,13.37,13.37,0,0,1-4.4,2H160a.54.54,0,0,1-.19,0,.39.39,0,0,1-.25-.37c.07-.34.18-.3.25-.37l.26-.14.71-.31c.51-.21,1.09-.44,1.21-.5,2.19-1.14,4.7-3.68,6.76-4.58a.77.77,0,0,1,.35-.59,20.64,20.64,0,0,0,6.73-6l0,0,0,0a87.15,87.15,0,0,0,6.68-6,46.09,46.09,0,0,0,5.07-5.36,82.69,82.69,0,0,0,5.59-8.65l-.06-.11.1,0c1.63-2.8,3.22-5.65,5-8.39.66-1,1.83-2.22,2.17-3.31l0-.11.09-.07c1.56-1.14,2.17-3.89,4.73-4.53l.31-.07.11.3a2.34,2.34,0,0,1,.13.88c0,.34-.06.64-.06.91,0,0,0,.08,0,.11l0,.48-.46-.11c-.45-.18-.4-.53-.43-.71s0-.26,0-.35h0c-.11,0-.27.13-.46.45s-.26.71-.84.8a25,25,0,0,1-2.64,3.47c-2.48,2.39-3.31,6.61-5.61,9.32a5.53,5.53,0,0,1-.39,1.1,1.77,1.77,0,0,1-.5.67,1.31,1.31,0,0,1,0,.28v.14l-.1.1c-1.89,2-3.94,7.69-7.19,9.82a4.69,4.69,0,0,0-.27.46c-.31.61-.57,1.24-.86,1.84l.24-.27a3.86,3.86,0,0,1,1.66-1.35,56.5,56.5,0,0,1,4.47-5.59c.51-1.8,1.78-2.81,2.65-3.85.32-.34.6-1.07,1.18-1.45l.22-.71.22.52.17,0a.85.85,0,0,1,.85-.42c-.19.45-.39.3-.66.41H197l.39.08-.12.38a1.79,1.79,0,0,1-.19.42.55.55,0,0,1-.47.29h0a1.69,1.69,0,0,1-.5.72,3,3,0,0,0-.81.79c-.57.77-1.43,2-2.3,3.18h0l0,0c-.79,1.09-1.59,2.2-2.23,3.06a13.06,13.06,0,0,1-2.5,2.91,6.79,6.79,0,0,1-2.51,2.74,4.73,4.73,0,0,1-.35.43h0l0,0c-.24.27-.56.62-.88,1a13.74,13.74,0,0,1-1.59,1.51.36.36,0,0,1-.17,0l-.09,0-.37.44a96.88,96.88,0,0,1-7.54,7.58,39.09,39.09,0,0,1-8.29,6.54,107.8,107.8,0,0,1-9.92,5,16.33,16.33,0,0,1-3.94,1.56,57.94,57.94,0,0,1-17.8,3.52c-6.4.25-13.1-.51-18.35-2.53a13.39,13.39,0,0,1-4.8-2.83,4.55,4.55,0,0,1-.27-5h-.09a30.15,30.15,0,0,1-8.12-2.22c-1-.37-1.93-.72-2.78-1l-.34-.1a4.93,4.93,0,0,1-.64-.21c-2.38-1-2.74-4.45-3.06-7.47l-.09-.89.68.58a4.51,4.51,0,0,1,.56.6c.35.42.65.79,1.17.8l.29,0,.09,0,.09,0a43.23,43.23,0,0,0,13.16,2,120.38,120.38,0,0,0,14.09-.56c1.5-.13,3.1-.32,4.7-.55-.6-.6-1.21-1.23-1.81-1.91a111.44,111.44,0,0,1-7.36-9.1.31.31,0,0,1-.32-.16c.17.82-1.13.88-1.46.65-.05.39.2.33.41.33a.79.79,0,0,1-.66.59c0-.18.16-.15.26-.2-.07-.33-.3-.43-.29-.88-.12,0-.12.08-.13.19-.53-.49.85-.11.65-.76.46.13,0,.4.28.7.12-.06.34-.82.12-.73,0-.51.38.4.26-.38a.59.59,0,0,0,.61.29,62.36,62.36,0,0,1-3.95-6.35c-.66.5-1.3,1-1.9,1.52a42.07,42.07,0,0,0-4.8,4.64,32.14,32.14,0,0,1-2.55,3c0,.08-.1.1-.12.17s-.1,0-.18,0a7.49,7.49,0,0,1,1.41-1.79c.5-.63.9-1.25,1.43-1.84a41,41,0,0,1,3.34-3.25c1-.93,2.11-1.82,3.21-2.7-.74-1.39-1.43-2.82-2.05-4.32-.25-.6-.5-1.21-.72-1.81-1.88,1.7-3.73,3.5-4.83,4.38l-.54.43v-.14c-2,1.89-4.2,3.5-6.53,5.78l0,0,0,0a1.14,1.14,0,0,1-.5.17l.11.27-.28.16c-2.48,1.4-4.79,4.58-7.3,6.78l-.54-.45a4.2,4.2,0,0,0,.59-1.28.1.1,0,0,1,0,0v-.14l.09-.1c4.86-5.11,10.42-10.87,16.28-15.38a25,25,0,0,1,2.56-3.35,25.11,25.11,0,0,1-1.2-6.74c0-.14,0-.29,0-.43h0a74,74,0,0,0-9.81,11.63.57.57,0,0,1,.1.22l0,.18-.12.15a.74.74,0,0,1-.56.29h-.12c-2.33,3.82-5.07,7.19-7.35,10.87-.46.74-.86,1.39-1.3,2.07-.85,1.33-1.65,3.29-2.41,4.1-.08,1.32-.65,1.93-.65,2.77,0,.06,0,.13,0,.2a2.83,2.83,0,0,1,.81-.46l.39-.11.06.39a5.21,5.21,0,0,0,1.57,2.92l.66.63H93s0,0-.18.15c1.85,3,4.68,5.09,7.42,7.17.61.48,1,1.24,1.48,1.49,1.2.71,2.61,1.11,3.93,1.88,3.25,1.91,5.9,4.36,9.29,5.24,4.55,1.19,8.44,3,13.19,3.73a28.16,28.16,0,0,0,3.38.28A73.66,73.66,0,0,0,145,407c9.86-2,20.52-7.64,28.56-13a10.37,10.37,0,0,0,1.16-1l-.16-.12.47-.26c2.05-1.13,3.62-3,5.76-4.27a1.35,1.35,0,0,1,.1-.52.8.8,0,0,1,.8-.43,3.29,3.29,0,0,1,2.08-1.8.23.23,0,0,1,0,0,1.63,1.63,0,0,1,.54-.94c.26-.28.57-.55.78-.76,2.13-2.16,3.25-2.9,5.12-4.86a50.46,50.46,0,0,1,3.94-3.88c2.07-2.23,4.74-6.14,6.78-8.62,0,0,0-.06,0-.08a1.55,1.55,0,0,1,.33-.82,1.18,1.18,0,0,1,.62-.47c2.62-4.93,5.29-10.25,7.73-15l-.05,0,.33-.74c.63-1.35,1.63-2,1.65-3.36a3.46,3.46,0,0,0,0-.53l0-.31.3-.08a.78.78,0,0,1,.22,0,.74.74,0,0,1,.55.35,5.18,5.18,0,0,0,.71-2.06,2,2,0,0,0,0-.47l0-.11,0-.1a81.57,81.57,0,0,1,3.72-8,8.33,8.33,0,0,1-5.17,1.61C211.3,336.71,210.57,337.28,209.85,337.78Z"/><path class="cls-3" d="M196.16,346h-.21A.37.37,0,0,0,196.16,346Z"/><path d="M231,320.19l0-.16-.14-.09,0,0c-.07-.1-.1-.36-.24-.63-.2-3.47-3.58-6.06-5.73-7a1.48,1.48,0,0,0-.59-.13c-1.7,0-3.17,2.22-3.58,2.9-.18.37-.67.72-.91,1.15-1.8,3.59-2.49,8.54-4.36,11.71a4.73,4.73,0,0,1-1.93.34,5.9,5.9,0,0,1-2.77-.81,1.42,1.42,0,0,0,.27-.36l.33-.66-.72.15c-.67.15-1.15.41-1.71.48l-.35,0,0,.35a3.4,3.4,0,0,1,0,.47,2.21,2.21,0,0,1,0,.35c-3.63-6.55-12.54-4.47-18.32-5.46a5,5,0,0,1-1-.25c-.32-.13-.44-.27-.44-.38l0-.34h-.34a17.25,17.25,0,0,1-1.7.3h0c-.55,0-2.26-.28-3.28-.33l0-.19-.11.18h0a2.82,2.82,0,0,0-.46,0c-.1,0-.22,0-.34.14h0a2.66,2.66,0,0,0-1.07-.38.82.82,0,0,0-.76.44l-.58,1.06a116.48,116.48,0,0,0-14.61-1.3c-1.13,0-2.27,0-3.42,0-8.37,0-16.12,2.47-23.62,5.29l-.05,0,0,0a51.26,51.26,0,0,1-5.92,3.64c-13.83,8.24-27.15,19.57-36,34.18-3.09,5.11-7,10.57-8.94,14.71a14.48,14.48,0,0,0-1.12,3.56,1.6,1.6,0,0,0,0,.22,1.13,1.13,0,0,0-.22.64,5.85,5.85,0,0,0,.2.9s0,0,0,.09l-.21.24.21.23a1.37,1.37,0,0,0,1,.54,2.13,2.13,0,0,0,.74-.16,10.93,10.93,0,0,0-.68,2.88l0,.17.12.12a7.59,7.59,0,0,1,.89,1.25,11.18,11.18,0,0,0,1.17,3c2.21,3.58,6,8.14,9.18,10.44.56.39,1,.95,1.62,1.48,1.35,1.13,2.94,1.69,4.24,2.6a44.16,44.16,0,0,0,10.68,5.77c3.7,1.29,7.56,2.92,11.56,3.34q2.15.23,4.26.28c9.27.25,18-1.89,27.31-5.41l.06,0,0,0a.67.67,0,0,0,.24-.49v0a2.42,2.42,0,0,0,1.4-.76,1.91,1.91,0,0,1,1.06-.59.47.47,0,0,1,.23.06l.38.19.1-.33h.12a2.77,2.77,0,0,1,.86.21h0a.72.72,0,0,0,.25.06.48.48,0,0,0,.45-.29l0-.08a.73.73,0,0,0,.35.11.59.59,0,0,0,.53-.32l.15,0a.46.46,0,0,0,.44-.33,1.84,1.84,0,0,0,.52.13.7.7,0,0,0,.38-.09l0,.59.69-1.06a.61.61,0,0,0,.36.15.55.55,0,0,0,.3-.08.7.7,0,0,0,.4-.39h.28l.11-.14c.28-.33.29-.26.58-.3a1.38,1.38,0,0,0,1-.6,1,1,0,0,0,.19.12l.56.26,0-.48.12,0,.29,0,.09-.28a.64.64,0,0,0,0-.13c.18,0,.29,0,.43,0l.9,0-.29-.26,0-.08a1.57,1.57,0,0,0,.42-.25.61.61,0,0,1,.32-.15.32.32,0,0,1,.16.05l.53.31v-.64a.94.94,0,0,0-.05-.36,9.06,9.06,0,0,0,1.06,0,2,2,0,0,0,1.22-.74.43.43,0,0,0,.24.08c.47-.07.51-.31.74-.48a1.2,1.2,0,0,1,.59-.37l0-.17a5.23,5.23,0,0,0,3.11-1.73.82.82,0,0,0,.26.05.8.8,0,0,0,.28,0l.06,0,0,0a217.79,217.79,0,0,0,26.87-24.82,48.12,48.12,0,0,0,10.31-16.51v-.07c.19-1.42.39-3.45.68-5.45v-.1c-.52-4.13-1.69-8.3-5.06-9.37a28.72,28.72,0,0,1,4.05-7.42.47.47,0,0,0,.31.12.53.53,0,0,0,.23,0l0,0,0,0a13.13,13.13,0,0,0,1.63-2c2.25-2.66,5.44-3.94,7.65-7.42a29.31,29.31,0,0,0,1.71-2.68c.33-.77.25-1.57.5-2.22a9.73,9.73,0,0,0,1.05-3.16A3.81,3.81,0,0,0,231,320.19Zm-50,2.33c.37.07,1,.59,1.69.65a.81.81,0,0,0,.31,0,1.75,1.75,0,0,0,.32.48q-1.6-.29-3.2-.54Zm-39.17,10a62.84,62.84,0,0,1,16-4.72,50.76,50.76,0,0,1,10.73-.81c1.07,0,2.19.09,3.39.16,2.8.19,5.34.32,8.33.49,3.4.19,7.13,1.37,10.73,2.11,4.72,1,9,2.75,13.51,3.75a4.52,4.52,0,0,0-.64,2.06,1.88,1.88,0,0,0,.23,1,1.64,1.64,0,0,1-.82.3,12.06,12.06,0,0,0-1.55.24c-.25.12-2.32.12-3.67.25a109.3,109.3,0,0,1-14.32.53c-1.64,0-3.29-.12-4.93-.24-5.73-.4-10.87-1.12-16.67-1.28h-.76c-4.29.83-9.43.47-13.68,1.7a70.4,70.4,0,0,0-14.57,6.13,20.57,20.57,0,0,1-1.25-5.38c0-.33,0-.67,0-1A111.29,111.29,0,0,1,141.8,332.48Zm53.53,10.47-.08.08.08-.08Zm-6,1.5c-6.35,2.69-13,7.1-19.07,10.29l.09-.33-.86.68a1.23,1.23,0,0,0-.35.61l-.16-.23c-.43.3-1.77.58-2.64,1.08h0a.42.42,0,0,0-.17.23c-1.23.32-2.06,1-3.57,1.26l-.2,0-.07.2a.38.38,0,0,0,0,.13.61.61,0,0,0,0,.09,4,4,0,0,0-1.51.42l-.25.1v.07a.82.82,0,0,0-.68.55h-.11c-.84,0-1.21.61-1.71.55h0l-1.27,0,.77.49a5.21,5.21,0,0,0-1,.41l-.23.14-.2,0-.29.06v.13h0a.62.62,0,0,0-.59.43l-.07.17h0c-.12.3-.35.44-.53.22a.49.49,0,0,0,.11.4l-.38.09a.56.56,0,0,0,0-.11c-.39.26-.64,0-.82.32a.41.41,0,0,1-.27-.13l-.24-.22-.24.21c0,.07-.46.21-.61.64l-.23,0a1.63,1.63,0,0,0-1.38,1l-.32,0a3.34,3.34,0,0,0-1.73.45l-.8-.74a84,84,0,0,1-8.19-9c2.68-1.26,5.44-2.44,8.4-3.57,7.6-2.88,17.11-4.93,24.38-4.77,2,0,4.33.18,4.87,1.2l.11-.82a9.14,9.14,0,0,0-3.79-.83A57,57,0,0,0,158,348.18a92,92,0,0,0-18.69,6.73c-.33-.43-.66-.86-1-1.3a40.25,40.25,0,0,1-2.56-4,46.13,46.13,0,0,1,11.66-3.86,81.46,81.46,0,0,1,16.38-1c1.56,0,3.13.11,4.72.19h.09a32.73,32.73,0,0,1,6.42-.24l.83,0a37.82,37.82,0,0,0,3.84,0c4.19-.36,8.63-1.23,12.61-1.81l-.1.2c-.17.34-.45.37-.93.47a1.24,1.24,0,0,0-1,.77l-.17,0-.22,0,0-.17Zm-18.34,11.91-.05-.05-.11-.12.12,0h0A.64.64,0,0,1,170.95,356.36Zm-16,6v0l0,0ZM151,367l-.62-.49.15-.12.39-.35Zm-33.78-7a19.41,19.41,0,0,1,3.42-2.05l.18-.09v-.2s0,0,0-.07a.45.45,0,0,0,0-.13,13.09,13.09,0,0,0,3-1.56c3.5-1.84,7.11-3.94,10.94-5.79a48.43,48.43,0,0,0,3.55,5.28c-3,1.48-5.93,3.05-8.79,4.65a59,59,0,0,0-7.9,5.45L118.32,368a49,49,0,0,1-2.72-6.27c.52-.46,1-.9,1.54-1.3l.11-.09,0-.14a.43.43,0,0,0,0-.06A.57.57,0,0,0,117.22,360ZM114,351.21a105.93,105.93,0,0,1,16.72-12.69,20.78,20.78,0,0,0,1.53,6.19c-1.14.67-2.24,1.36-3.3,2.08-5,3.39-9.08,5.69-12.86,10.34-.32.39-.81.93-1.38,1.57a25.93,25.93,0,0,1-.83-4.92c0-.45,0-.92,0-1.35A4.41,4.41,0,0,1,114,351.21Zm63.72,45.48c0-.16,0-.22,0-.39s0-.06,0-.09a1.22,1.22,0,0,0,.78-.55,2.21,2.21,0,0,0,.16-.31l0,0,.21.36C178.47,396,178.07,396.37,177.68,396.69Zm3.67-2.69a4.68,4.68,0,0,1,.5-.73l.05,0,.16,0h0a.29.29,0,0,0,.14,0Zm33.08-40c-.1,3.92-2.67,8-4.87,11.11h-.11a.49.49,0,0,0-.31.09c-.28.26-.22.47-.27.67s0,.19,0,.26l0,.07a28.23,28.23,0,0,1-3.48,3.79l0,0,0,0c-1.76,2.45-3.91,5.33-5.9,6.8a.46.46,0,0,0-.26.39,1,1,0,0,0,.08.32c-5.4,5.13-11.07,11.1-16.87,15.66l0,0a.73.73,0,0,0,.11-.19c0-.09.11-.22.16-.3v0l.28.06c.49-1.05,1.18-1.26,1.85-2.41l.18,0c.53-.07.6-.45.75-.75a4.46,4.46,0,0,0,.19-.68,1.53,1.53,0,0,0,1.4-1.54c0-.06,0-.12,0-.17a3.36,3.36,0,0,0,.8-.27l.29-.12-.07-.3a.7.7,0,0,0,0-.15,2.13,2.13,0,0,0,.35-.13v0l0,0,.16-.09.32-.2-.19-.27.11-.22c.14-.29.14-.52.21-.63s0-.15.43-.16h.08l.37,0v-.37s0,0,0-.07a1,1,0,0,0-.07-.44c.16-.17.37-.35.57-.53a1.45,1.45,0,0,0,.6-.94.68.68,0,0,0,0-.1,4.19,4.19,0,0,0,2.09-2.32,2.64,2.64,0,0,0,.93-.46l.23-.13-.05-.26,0-.06a.58.58,0,0,0,.23-.25h0a.55.55,0,0,0,.14-.07l.27-.17-.15-.29a.17.17,0,0,1,0-.08s.19-.3.56-.57a1.86,1.86,0,0,0,.81-1.05c.54-.12.71-.64.94-1s.49-.91.67-1a.62.62,0,0,0,.33-.61,2.08,2.08,0,0,0,.7-.17l.25-.09v-.26c0-.07,0-.13,0-.18l.13-.08.18-.15,0-.13a3.41,3.41,0,0,0,.32-1.11,1,1,0,0,0,0-.17h0a.17.17,0,0,1,.11,0l.53-.46v0s.08-.08.14-.37a1.8,1.8,0,0,0,.92-1,4.74,4.74,0,0,0,.4-1.54.6.6,0,0,0,.16-.11l.49-.26a.37.37,0,0,1,0-.14c-.07-.07.31-.28.76-.84l.12-.16-.08-.18a.54.54,0,0,0-.08-.15,3.35,3.35,0,0,0,.36-.88.4.4,0,0,0,.31-.25c.35-.08.37-.31.47-.47.22-.5.44-1.41.63-1.85H205a.42.42,0,0,0,.41-.22c.49-1,.75-2.6,1.23-3.8a.59.59,0,0,0,.2,0,.33.33,0,0,0,.26-.13l.07-.09h0l-.2-.14h.07l.11,0c0-.1.2-.55.35-.93l.22-.5.07-.15v0h0l-.18-.1.22,0a.49.49,0,0,0,0-.12.35.35,0,0,0,0-.15l0-.07-.05-.08a4,4,0,0,0,1-1.43,16.55,16.55,0,0,1,.59-2.32c.32-.56.58-.95.78-1.33.12-.21.12-.18.14-.2a1.16,1.16,0,0,0,.36-.33l.11-.14,0-.17h0a.64.64,0,0,0,.25-.34l0-.11,0-.12a1,1,0,0,0,0-.14,4.24,4.24,0,0,0,.77-1.14l.08-.17a3,3,0,0,0-.06.35l0,.44.43-.07a.72.72,0,0,0,.54-.62A8.13,8.13,0,0,1,214.42,354Zm-1.21-11.28,0,.1,0,.11a2,2,0,0,1,0,.47,5.18,5.18,0,0,1-.71,2.06.74.74,0,0,0-.55-.35.78.78,0,0,0-.22,0l-.3.08,0,.31a3.46,3.46,0,0,1,0,.53c0,1.36-1,2-1.65,3.36l-.33.74.05,0c-2.43,4.72-5.11,10-7.73,15a1.18,1.18,0,0,0-.62.47,1.55,1.55,0,0,0-.33.82s0,.05,0,.08c-2,2.47-4.71,6.38-6.78,8.62a50.46,50.46,0,0,0-3.94,3.88c-1.87,2-3,2.7-5.12,4.86-.21.21-.51.49-.78.76a1.63,1.63,0,0,0-.54.94.23.23,0,0,0,0,0,3.29,3.29,0,0,0-2.08,1.8.8.8,0,0,0-.8.43,1.35,1.35,0,0,0-.1.52c-2.14,1.29-3.71,3.15-5.76,4.27l-.47.26.16.12a10.37,10.37,0,0,1-1.16,1c-8,5.33-18.7,11-28.56,13a73.66,73.66,0,0,1-13.51,1.31,28.16,28.16,0,0,1-3.38-.28c-4.75-.71-8.64-2.54-13.19-3.73-3.39-.87-6-3.33-9.29-5.24-1.32-.77-2.73-1.16-3.93-1.88-.45-.25-.87-1-1.48-1.49-2.74-2.08-5.58-4.18-7.42-7.17.13-.12.15-.18.18-.15h.91l-.66-.63a5.21,5.21,0,0,1-1.57-2.92l-.06-.39-.39.11a2.83,2.83,0,0,0-.81.46c0-.07,0-.14,0-.2,0-.84.57-1.45.65-2.77.76-.81,1.56-2.77,2.41-4.1.43-.68.84-1.33,1.3-2.07,2.28-3.68,5-7.05,7.35-10.87h.12a.74.74,0,0,0,.56-.29l.12-.15,0-.18a.57.57,0,0,0-.1-.22,74,74,0,0,1,9.81-11.63h0c0,.15,0,.29,0,.43a25.11,25.11,0,0,0,1.2,6.74,25,25,0,0,0-2.56,3.35c-5.86,4.51-11.42,10.27-16.28,15.38l-.09.1v.14a.1.1,0,0,0,0,0,4.2,4.2,0,0,1-.59,1.28l.54.45c2.51-2.2,4.82-5.38,7.3-6.78l.28-.16-.11-.27a1.14,1.14,0,0,0,.5-.17l0,0,0,0c2.34-2.28,4.52-3.89,6.53-5.78v.14l.54-.43c1.11-.88,3-2.68,4.83-4.38.23.6.47,1.21.72,1.81.63,1.5,1.32,2.93,2.05,4.32-1.1.88-2.19,1.77-3.21,2.7a41,41,0,0,0-3.34,3.25c-.53.6-.93,1.22-1.43,1.84a7.49,7.49,0,0,0-1.41,1.79c.08,0,.07.05.18,0s.11-.09.13-.17a32.14,32.14,0,0,0,2.55-3,42.07,42.07,0,0,1,4.8-4.64c.6-.52,1.24-1,1.9-1.52a62.36,62.36,0,0,0,3.95,6.35A.59.59,0,0,1,121,375c.12.78-.27-.13-.26.38.22-.09,0,.67-.12.73-.26-.3.17-.57-.28-.7.19.66-1.18.27-.65.76,0-.11,0-.21.13-.19,0,.45.22.54.29.88-.1,0-.26,0-.26.2a.79.79,0,0,0,.66-.59c-.21,0-.46.06-.41-.33.33.23,1.63.17,1.46-.65a.31.31,0,0,0,.32.16,111.44,111.44,0,0,0,7.36,9.1c.6.68,1.2,1.31,1.81,1.91l1.22-.19c-1-.91-1.9-1.86-2.76-2.85a100,100,0,0,1-6.8-8.54c.19-.34.64-.31.71-.45a1.22,1.22,0,0,0-.87.22c-.81-1.16-1.6-2.35-2.37-3.6-.59-.94-1.15-1.93-1.69-2.95l.84-.64c1.19-.92,2.36-1.88,3.57-2.82a59.47,59.47,0,0,1,7.58-5.1c2.71-1.51,5.35-2.9,8.06-4.21a89.4,89.4,0,0,0,8.89,9.59l.22.21-.31.26v-.12l-.45.11-.23.1v-.63L146,366c-.16.28-.75.36-1.39.51l-.29.08,0,.3c0,.06,0,.12,0,.17H144v.06l-.53,0a.74.74,0,0,0-.49.19l0,0h-.32l0,.31a1.69,1.69,0,0,0,0,.23,1.2,1.2,0,0,0,0,.29c-.47.17-.2-.3-.58-.4-.18.3-.26.72-.52.93-.13-.13-1.46-.19-1.07-.27a4.72,4.72,0,0,0-1.9.89c-.35.85,1,1.05,1.51.57-.26.09-.22-.81.12-.55-.16.22-.09.75.28.7-.32-.77.36-.76-.29-1.06.54,0,.93-.52,1.21.1,0,.28-.16.5-.52.76a.52.52,0,0,1,.41.15c-.14-1,1.18-.55.92-.78-.15,0-.21-.19-.28-.34.23-.47.65-.31.89-.25l0,0a.82.82,0,0,1-.05.17l.12.08-.3.33h0a1.09,1.09,0,0,0,.7.27,1.44,1.44,0,0,0,.94-.35l.06,0,.14,0,0,.07.14-.07A.71.71,0,0,0,145,369l.16-.07a1.38,1.38,0,0,0,.52-.46l.21.07a.49.49,0,0,0,.43-.26.69.69,0,0,0,.06-.14h.05c.22,0,.43,0,.59,0l.43,0-.05-.21.65.35-.14-.63a2.44,2.44,0,0,0,1.19-.72.75.75,0,0,0,.26,0h0c1.27,1,2.58,2,4,3,2.09,1.46,4.17,3,6.44,4.4.56.34,1.13.69,1.71,1l.86-.59c-1.09-.6-2.14-1.27-3.18-1.92s-2-1.39-3-2.11-2-1.41-3.06-2.12c-.74-.52-1.48-1.06-2.2-1.62l.54-.94.28-.18c.1-.09.25-.09.34-.35,1.38-.44,2.48-1.49,4-2l.12,0,.07-.12a.87.87,0,0,0,.13-.39v-.09h.08a3.15,3.15,0,0,0,1.65-.43l.29-.16,0-.06a1.85,1.85,0,0,0,1-.24l.29-.19-.14-.23.19,0a2.91,2.91,0,0,0,1.91-.82,15.18,15.18,0,0,0,6.07-2.77c.48-.09.8-.1,1.15-.19a1.52,1.52,0,0,0,.66-.39l.11,0a.52.52,0,0,0,.39-.18l.14-.14,0,.07,0-.13c.11-.1.21-.16.3-.15h0l1.12.21-.37-.37.18-.12a28,28,0,0,1,3.64-2.21c.11,0,.47-.16.79-.29s.68-.22.78-.74a8.33,8.33,0,0,0,1.57-.62,6.51,6.51,0,0,0,1-.62,1.58,1.58,0,0,0,.5-.54,5,5,0,0,0,1.61-.89c1-.64,2.52-1.06,3.82-1.7a15.75,15.75,0,0,0,1.41-.84c.26-.17.49-.33.67-.47l.23-.21.09-.11a11.27,11.27,0,0,0,3.81-2.09l-.13.44.86-.67c.86-.71,2.24-1,3-2h.18l0-.12.55.05c.12-.33.18-.29.51-.37a1.07,1.07,0,0,0,.89-.59c3.2-.46,7.49-1.22,10.46-3.22h0a4.75,4.75,0,0,0,2.08-1c.72-.5,1.45-1.08,1.91-1.43a8.33,8.33,0,0,0,5.17-1.61A81.57,81.57,0,0,0,213.21,342.74ZM144.09,367.4h0Zm78.18-40.12a43.94,43.94,0,0,0,1.89-10h.12c1.55,0,2.21,1.24,2.6,3C226,323.41,224.12,325.22,222.27,327.28Z"/><path d="M141.68,395.56a40.37,40.37,0,0,0,3.5,2.33c.66.38,1.31.65,2,1a8.26,8.26,0,0,0,2,1l.59.12-.14-.47a.35.35,0,0,0,0-.08.44.44,0,0,0,0-.19l-.07-.16-.13,0,0,0-.12-.05c-1-.65-2.16-1.2-3.13-1.72a41.36,41.36,0,0,1-4.91-3.3l-.56-.43-1.12.33C140.17,394.44,140.91,395,141.68,395.56Z"/><path d="M167.31,378l.62.11-.18-.47a.34.34,0,0,0,0-.05.43.43,0,0,0,0-.21l-.08-.15-.13,0,0,0-.12,0-.53-.28a3.27,3.27,0,0,0-.92.58A5,5,0,0,0,167.31,378Z"/><path class="cls-4" d="M197.43,344.72l-.07-.46-.42.19-.25.1a2.7,2.7,0,0,0-1.5,1.09l-.11-.07a1.85,1.85,0,0,1-.81.56,3.59,3.59,0,0,0-.36.18l0-.25-.3.45-.31-.21,0,.55h-.36l0,.2-.33-.05-.07.33a.5.5,0,0,1-.07.2l-.1,0a1.24,1.24,0,0,0-.74.49h-.24l-.15,0-.09.12c-.45.61-.56.65-.9.78a6.44,6.44,0,0,0-1.11.54l-.15.09v0a.63.63,0,0,0-.19,0l-.07,0-.05.06c-1.84,1.93-3.88,3.7-5.85,5.4-1.32,1.15-2.69,2.33-4,3.56a35.16,35.16,0,0,0-5.95,6.32,33.55,33.55,0,0,1-6,6.34h-.15l-.42,0h-.15l-.1.12a19.76,19.76,0,0,1-3.57,3.2l-.86.59c-1,.69-2.1,1.33-3.15,2l-.92.55a33.27,33.27,0,0,1-4.3,2.07h0l-1,.44a85.11,85.11,0,0,1-13.69,4.92c-1.91.45-4,.86-6.2,1.2l-1.22.19c-1.6.23-3.19.42-4.7.55a120.38,120.38,0,0,1-14.09.56,43.23,43.23,0,0,1-13.16-2l-.09,0-.09,0-.29,0c-.52,0-.82-.38-1.17-.8a4.51,4.51,0,0,0-.56-.6l-.68-.58.09.89c.32,3,.67,6.44,3.06,7.47a4.93,4.93,0,0,0,.64.21l.34.1c.85.27,1.79.62,2.78,1a30.15,30.15,0,0,0,8.12,2.22h.09l.55,0c1.29.1,2.59.28,3.85.45a48,48,0,0,0,5.17.52,18.6,18.6,0,0,0,2,0,90.24,90.24,0,0,0,16.51-2.8l.07,0,1.12-.33c1.66-.53,3.25-1.19,4.8-1.83s2.76-1.14,4.14-1.61l.32-.11-.07-.26a.88.88,0,0,0,.25,0l.19,0,.06-.18a1.28,1.28,0,0,0,.08-.45.93.93,0,0,0,.6-.4c.14-.17.19-.21.3-.21a.85.85,0,0,1,.27.06l.38.15.09-.4,0-.15.06,0,.21,0,.14-.16a5.65,5.65,0,0,1,2.81-1.72l0-.4a1.75,1.75,0,0,0,.6-.36,1,1,0,0,1,.36-.22l0-.45.42-.24a3.88,3.88,0,0,1,1.05-.49l0-.38c.6-.12.76-.26.93-.73a2.88,2.88,0,0,1,.1-.27.5.5,0,0,0,.27.2l.64.19-.2-.64c-.11-.35-.06-.44-.06-.44a.89.89,0,0,1,.31-.11,1.33,1.33,0,0,0,.91-.54h.12c.61,0,1.15-.69,1.39-1.2a3.43,3.43,0,0,0,1.21-.82l.07,0,.12.06.44.33.12-.54c.16-.73.65-.94,1.16-1.16l.37-.16.16-.08,0-.18a.6.6,0,0,1,.19-.27,3.27,3.27,0,0,1,.92-.58l.16,0,.28,0,0-.28s0-.07,0-.1a1.3,1.3,0,0,0,.91-1l0-.22h0l.39-.36c.46-.42.9-.82,1.25-.84l.28,0,0-.27c.08-.44.17-.48.28-.54a1,1,0,0,0,.4-.32.85.85,0,0,0,.58-.33v.2L172,372a4.37,4.37,0,0,0,1-1.35l.29-.51.39.19.11-.43a2,2,0,0,1,.32-.64,2.55,2.55,0,0,0,.45-1.07l.05-.35h0l.15-.23a1.35,1.35,0,0,1,.2-.29h0l.68.25-.22-.69c-.12-.38.16-.75.59-1.28a2.29,2.29,0,0,0,.67-1.22,1.58,1.58,0,0,0,.9-.77,1.7,1.7,0,0,1,.22-.28h0l.25-.57a.38.38,0,0,1,0,.08.28.28,0,0,1-.11.21l.2-.07c.3-.09.67-.21.73-.57a.48.48,0,0,0,0-.25,1.4,1.4,0,0,0,.27-.26l.35-.09c0-.21.05-.25.22-.36a.73.73,0,0,0,.39-.46v0a.55.55,0,0,0,.49-.49.46.46,0,0,0,0-.15h0a.88.88,0,0,0,.25-.24h.14l.37,0,0-.37a.87.87,0,0,1,.39-.63l.36-.31a1.1,1.1,0,0,0,.26-.21l0,0h0l.08-.12,0,0h.39l-.1-.44c-.11-.45.35-.76,1.05-1.19.43-.26.94-.57,1.07-1a.77.77,0,0,0,.65-.5.61.61,0,0,0,0-.25,2.86,2.86,0,0,0,2-2.1,1.76,1.76,0,0,0,1-1.1l.15,0a.48.48,0,0,0,.35-.13.61.61,0,0,0,.17-.44h0a2.14,2.14,0,0,0,.35-.37,1.23,1.23,0,0,1,.21-.23l1.14,0,.52.43-.38-1.18h0a.37.37,0,0,0,.18.05.42.42,0,0,0,.38-.22l.14,0h.23l.11-.2a1,1,0,0,1,.12-.17,2.21,2.21,0,0,0,.15-.22l.43.21v-.22h0l.12-.1a.57.57,0,0,0,.22-.34h0l.05-.14a.72.72,0,0,0,.27,0l.27-.09,0-.28a.45.45,0,0,1,0,0,.68.68,0,0,0,.6-.46l.45.52.14-.71a.7.7,0,0,1,.3-.52,1.13,1.13,0,0,0,.29-.31l.06-.08v-.11s0-.08,0-.11a1.54,1.54,0,0,0,.45-.4l0,0h.12l.75.71-.16-1a1.06,1.06,0,0,1,0-.21.58.58,0,0,0,.43-.2A.69.69,0,0,0,197.43,344.72ZM195.95,346h.21A.37.37,0,0,1,195.95,346Z"/><path d="M204,352.38c.2,0,.49,0,.53-.22-.2,0,.26-.71.38-.93C204.22,351.2,204.28,352,204,352.38Z"/><path d="M203.57,353c0,.93-.29.52-.64,1.49.62.33.48-.71,1-1.16C203.76,353.28,203.86,352.83,203.57,353Z"/><path d="M135.41,371.3c0-.11,0-.21-.14-.17.27.8-.53.28-.38.93.3-.11.67-.4.93-.06,0-.12,0-.24,0-.36s.16,0,.13-.19C135.75,371.43,135.46,371.54,135.41,371.3Z"/><path d="M107.7,380.11c.27.07.63.35.66-.41A.63.63,0,0,0,107.7,380.11Z"/><path d="M207.18,340.63c0,.58-.89.18-1.06.61C206.58,341.28,207.57,341.06,207.18,340.63Z"/><path d="M203.59,342c-1,.52-2.5.47-2.65,1.63.31-.28.32-.3.39-.57.54.84,1.06-.87,1.08.28.08-1,.6-.34.92-1C202.74,342.14,204.18,342.18,203.59,342Z"/><path d="M201.78,357c0-.46.8-.86.38-1.29C202.28,356.39,201.34,356.6,201.78,357Z"/><path d="M201.14,358.34l0,0,0,.08Z"/><path d="M199.57,360.44a9.07,9.07,0,0,0,1.49-2.06C200.28,358.72,200.07,359.75,199.57,360.44Z"/><path d="M201.38,357.25c-.1.37-.5.71-.27,1l.41-.7C201.27,357.58,201.59,357.3,201.38,357.25Z"/><path d="M198.79,361.4c-.1.46-.46.6-.65.94C198.43,362.79,199.08,361.62,198.79,361.4Z"/><path d="M138.46,369.4l-.13.08A.21.21,0,0,0,138.46,369.4Z"/><path d="M138.59,369.28a.36.36,0,0,0-.13.12l.11-.08Z"/><path d="M140.58,368.41l-.12,0Z"/><path d="M138.05,369.31c-.27.2-1.37.28-1.06.62.73-.67.86.92,1.63.78C138.43,370.14,137.7,370.16,138.05,369.31Z"/><path d="M137.54,370.25c-.55,0-2.66-.08-2.53,1.08a.59.59,0,0,1-.54-.14c0,.35.18.35.27.51.4-.45.82-1,1.06-.79-.56.34.42.11.55.5-.22-.62.45-.14.39-.57-.16,0-.38.06-.41-.15.25,0,.29-.22.53-.22.24.35-.09.36.15.71.2,0,.5,0,.53-.22C136.69,370.67,138.18,370.88,137.54,370.25Z"/><path d="M134.75,371.71h0Z"/><path d="M134.2,370.85c0,.06-.08,1.21-.53.58,0-.24.23-.18.26-.37-.4,0-.44.69-.8.23,0,.36.19.34.28.52-.42,0-.4-.54-.94-.29a1.07,1.07,0,0,1-.25.92c-.19,0-.16-.38-.28-.52-.24.12-.55.13-.66.41.13-.09,0,1.08.28.52-.29,0,.18-.57.25-.74.17.53.05.61-.11,1.09a2.66,2.66,0,0,1,1.73-.48c-.13-.57.19-.58.38-.75.12.61.5.23.92-.24C134,371.89,134.82,370.74,134.2,370.85Z"/><path d="M131,372.16c-.27.14-1.36.17-.93.6,0-.11,0-.22.13-.19-.21.37,0,.23,0,.72.71.41,1.25-.84.4,0-.06-.28-.42-.12-.28-.7C130.78,372.77,131.3,371.75,131,372.16Z"/><path d="M128.34,372.89c-.25.26-.7.3-.79.77,0-.18-.24-.21-.27,0C127.52,374,128.53,373.09,128.34,372.89Z"/><path d="M127.43,374.21c.16,0,.38-.06.4.15-.08,0-.15.16,0,.18.46-.32.23-.41.52-.94A1.2,1.2,0,0,0,127.43,374.21Z"/><path d="M126.07,373.59c0,.3-.37.13-.4.39.15,0,.21.18.28.34-.13,0-.16.16-.26.2-.53,0,.09-.57-.28-.7a2,2,0,0,0-1,1.15c0-.18-.24-.21-.27,0,.18.17.5.14.68.31a1,1,0,0,0-.15-.53.69.69,0,0,1,.67.13c0-.31-.21-.45,0-.54s.18.48.54.32C125.88,374.38,126.44,373.83,126.07,373.59Z"/><path d="M126.76,374.44c.14-.49-.29-.47.25-.92-.51-.16-.37.47-.8.42-.16.75.68,1,.82.66C126.93,374.56,126.77,374.61,126.76,374.44Z"/><path d="M118.23,376.67c.06-.32.8-1,.25-.56C117.74,376.52,117.29,376.62,118.23,376.67Z"/><path d="M116.78,378c.41,0,.51-.62.8-.24,0-.36-.19-.35-.28-.52.25-.06.3.18.54.14,0,.23-.17.26-.12.55C120.31,377.34,116.73,376.19,116.78,378Z"/><path d="M115.7,377.75a1,1,0,0,0-.15-.53c-.44.16-.9.12-.92.61,0-.32-1.13-.47-.81-.12.16,0,.38-.05.41.16-.18,0-.12.32-.26.38-.61-.08-.6.16-.66.41-.32-.64-1.09.26-1.35-.62,0,.62-.4.33,0,.72-.57-.38-1.27-.14-.54,0-.17.2-.49.21-.66.41.09-.49-.27-.34-.28-.7.23-.36.42.21.53-.4-1.3,0-1.38.82-2,1-.19-.4.33-.7,0-.72,0,.31-.42-.13-.53.4.17.06.28.21.28.52-.16,0-.83.09-.4.21.21,0,.46-.05.41.33-.38-.35-.2.25-.12.55.41-.32.51-.19.8-.42-.09-.3-.41-.26-.55-.5.18-.07.25-.28.53-.22-.08.61.29.57.42.87.17-.54,1.29.08,1.47-.46-.25,0,.07-.3-.14-.35.1.28-.62.34-.54,0a4.37,4.37,0,0,0,.93-.43c.33,1.38,1.1.18,1.75.06s1.08.23,1.61.06a4.41,4.41,0,0,0,1.19-.8c-.09.3.64.25.54,0-.47,0,0-.33-.41-.51.2,0,.5,0,.53-.22C116.35,377.25,116.07,377.49,115.7,377.75Z"/><path d="M98.15,379c-.15.7-1.07.29-.92.79.42-.42.25,0,.4.15C97.54,379.39,98.61,379.4,98.15,379Z"/><path d="M103.39,379.34c-.21.69.64.77.29,1.06-.49-.15-.68-.74-.84-1.38,0,.56-.69-.42-.8.24.24.14.67,0,.81.3a7,7,0,0,1-.25.73c-.42.12-.31-.53-.81-.3,0,.22,0,.51-.12.55a.84.84,0,0,0-1.08-.1,1.46,1.46,0,0,1,.25-.56c.14.18.73,0,.93-.24-.64,0-.69.06-1.08-.46,0,.31.21.45,0,.54-.33-.46-1.44.23-1.75-.23.15-.05.21-.22.26-.38-.3,0-.86-.21-.67,0,.19,0,.16.39.28.52-.29-.37-.38.11-.8.05.59.56.68.42,1.75.42.06.64.34.93.41.15-.1.72,1.23.89.54.32l.67,0c0,.18,0,.36,0,.54,1.12,0,.65-1,1.48.08.18-.49.45-.52.93-.25,0-.25.21-.32.26-.55C103.61,380.38,103.9,379.28,103.39,379.34Z"/><path d="M99.5,379.26c-.08,0-.16,0-.13.19.54-.42,1,.26,1.2-.45-.62,0-.92-.14-1.2.08C99.44,379.09,99.52,379.1,99.5,379.26Z"/><path d="M104.61,380c-.21-.62-.57-.47-.56-1,0,.64-.45-.35-.4.21.53.24.8,1.34.84,1.74.18-.12,0-.7.25-.74a.55.55,0,0,0,.4-.21c.08.25-.51.48-.12.55-.05-.56.4.43.4-.21-.17,0-.18-.49,0-.54,0,.46.51.39.67.13,0,.49-.21.38,0,.72.49.08.52-.41.51-.94C105.75,379.64,105.27,379.49,104.61,380Z"/><path d="M106.76,379.82c.11,0,.16.14.14.35a.2.2,0,0,0-.13.37.5.5,0,0,1,.26-.38c0,.14,0,.35.14.35a1.53,1.53,0,0,0,.11-.91C107.09,379.65,106.79,379.57,106.76,379.82Z"/><path d="M129.81,372.6c-.24.23-.78.09-.93.42.38-.14.06,1-.26.56,0,.35.19.34.28.52-.08,0-.16,0-.13.19.31-.08.5-.32.93-.25-.13-.63,0-.44-.16-1.07C129.7,372.93,129.75,372.77,129.81,372.6Z"/><path d="M189.9,358.37s.07,0,.07.12,0,.18,0,.3a.34.34,0,0,0,.21.38c.55-1.4,1-2.79,1.36-4.06a9.79,9.79,0,0,0,.66-2.49,3,3,0,0,0-.21-1.21l-.69.09a6.79,6.79,0,0,1-.32,1.05c-.07,0-.08.07-.12.09l-.13.16,0,.07,0,.08c-.18.79-1.48,3.32-1.93,5.18l0,0a1.86,1.86,0,0,0-.08.39C189,358.56,189.45,358.35,189.9,358.37Zm0-1.64c0,.22-.32.51-.32.51S189.66,356.8,189.89,356.73Z"/><path d="M182.55,367.7c-.22,0-.37-.09-.37-.16s.09-.29.09-.44c0-.93-.2-.82-.68-1-.61.67-1.19,1.34-1.69,2-3.44,4.51-6.69,8.76-11,12-3,2.28-6.87,3.89-8.37,8l.57.38c3.88-3.49,8.18-5.94,12-9.18s6.66-7.17,10.28-10.72a7.11,7.11,0,0,1-.4-.93A1,1,0,0,1,182.55,367.7Z"/><path class="cls-3" d="M180.65,381.49h0l.54-.42c.95-.69,1.86-2.28,3.16-2.73v0a1.29,1.29,0,0,1,0-.27v-.26l.25-.08.23-.09c.21-.34.42-.69.61-1.05l.14-.28c-2.05,2.13-4.22,4.07-6.17,6.25A6.63,6.63,0,0,1,180.65,381.49Z"/><path class="cls-3" d="M160.5,398.56c1.63-.79,3.24-1.64,4.87-2.55a39.14,39.14,0,0,0,8-6.06c1.24-1.19,2.43-2.43,3.66-3.59a50.42,50.42,0,0,0,3.65-3.5l.25-.29c-4.16,3.48-9.28,7-13.49,10.81C165.5,395.78,162.81,397.12,160.5,398.56Z"/><path d="M205.71,348.74c0-.27.05-.57.06-.91a2.34,2.34,0,0,0-.13-.88l-.11-.3-.31.07c-2.56.64-3.17,3.39-4.73,4.53l-.09.07,0,.11c-.33,1.09-1.5,2.29-2.17,3.31-1.75,2.74-3.34,5.59-5,8.39l-.1,0,.06.11-.47.81a1,1,0,0,1,.24,0,.27.27,0,0,1,.22.08c-.08.14-.3.14-.45.13l-.12,0c-.77,1.31-1.55,2.6-2.37,3.87a1.74,1.74,0,0,1,.09.3.25.25,0,0,1-.07-.15l-.1,0c-.82,1.26-1.67,2.5-2.58,3.68a46.09,46.09,0,0,1-5.07,5.36,87.15,87.15,0,0,1-6.68,6l0,0,0,0a20.64,20.64,0,0,1-6.73,6,.77.77,0,0,0-.35.59c-2.06.9-4.57,3.44-6.76,4.58-.12.06-.7.29-1.21.5l-.71.31-.26.14c-.06.08-.18,0-.25.37a.39.39,0,0,0,.25.37.54.54,0,0,0,.19,0h.1a13.37,13.37,0,0,0,4.4-2,42.41,42.41,0,0,1-15.91,7l-.09-.28-.11.32a43.37,43.37,0,0,1-8.21.88h0a.6.6,0,0,0-.28.14.91.91,0,0,0-.28-.09,5,5,0,0,0-.74-.07c-1,0-1.95.14-2.94.12a6.83,6.83,0,0,1-.89-.08,18.3,18.3,0,0,1-3.42-.81c-.94-.39-2.13-.62-2.26-.72-.38-.21-.88-.51-1.33-.74a.43.43,0,0,0,0-.09h0v-.44l-.44.08a.83.83,0,0,0-.57.33l-.5.24.42.18a.73.73,0,0,0,.62.54c0,.52.48.7.72.84a2.07,2.07,0,0,1,.32.2l0,0,0,.05-.54.88.92-.34c.34,0,.82.52,1.53.58h.12l-.19.32.33.18a1.08,1.08,0,0,0,.5.12c.44,0,.87-.12,1.12-.11s.15-.08.22.27l0,.56.5-.26a.41.41,0,0,1,.22-.05c.26,0,.67.35,1.3.5a10.8,10.8,0,0,0,1.72.18c3,.08,6.41-.8,9.24-1.12h.09l.07,0,.27-.21,0,.19.45-.19a5.07,5.07,0,0,1,1.1-.13h.1v.11l.47-.07,1.2-.16c-1,.31-2,.6-3.11.88-8.54,2.2-19.61,2.27-28.48-.7-2.46-.82-5.31-1.91-6.2-3.87a4.46,4.46,0,0,1,.35-3.56l-.55,0a4.55,4.55,0,0,0,.27,5,13.39,13.39,0,0,0,4.8,2.83c5.25,2,11.95,2.78,18.35,2.53a57.94,57.94,0,0,0,17.8-3.52,16.33,16.33,0,0,0,3.94-1.56,107.8,107.8,0,0,0,9.92-5,39.09,39.09,0,0,0,8.29-6.54,96.88,96.88,0,0,0,7.54-7.58l.37-.44.09,0a.36.36,0,0,0,.17,0,13.74,13.74,0,0,0,1.59-1.51c.33-.34.64-.68.88-1l0,0h0a4.73,4.73,0,0,0,.35-.43,6.79,6.79,0,0,0,2.51-2.74,13.06,13.06,0,0,0,2.5-2.91c.63-.86,1.44-2,2.23-3.06l0,0h0c.88-1.22,1.73-2.4,2.3-3.18a3,3,0,0,1,.81-.79,1.69,1.69,0,0,0,.5-.72h0a.55.55,0,0,0,.47-.29,1.79,1.79,0,0,0,.19-.42l.12-.38-.39-.08H197c.27-.11.47,0,.66-.41a.85.85,0,0,0-.85.42l-.17,0-.22-.52-.22.71c-.58.38-.85,1.11-1.18,1.45-.87,1-2.15,2.05-2.65,3.85a56.5,56.5,0,0,0-4.47,5.59,3.86,3.86,0,0,0-1.66,1.35l-.24.27c.29-.6.55-1.23.86-1.84a4.69,4.69,0,0,1,.27-.46c3.25-2.13,5.3-7.82,7.19-9.82l.1-.1v-.14a1.31,1.31,0,0,0,0-.28,1.77,1.77,0,0,0,.5-.67,5.53,5.53,0,0,0,.39-1.1c2.3-2.7,3.14-6.93,5.61-9.32a25,25,0,0,0,2.64-3.47c.58-.09.64-.54.84-.8s.34-.47.46-.45h0c0,.09,0,.22,0,.35s0,.53.43.71l.46.11,0-.48S205.71,348.78,205.71,348.74Zm-25,34.13a50.42,50.42,0,0,1-3.65,3.5c-1.23,1.15-2.42,2.39-3.66,3.59a39.14,39.14,0,0,1-8,6.06c-1.63.91-3.24,1.75-4.87,2.55,2.31-1.44,5-2.78,6.94-5.17,4.2-3.77,9.33-7.33,13.49-10.81Zm4.72-6.29c-.19.36-.39.71-.61,1.05l-.23.09-.25.08v.26a1.29,1.29,0,0,0,0,.27v0c-1.3.45-2.21,2-3.16,2.73l-.54.42h0a6.63,6.63,0,0,0-1.27,1.06c1.94-2.19,4.12-4.13,6.17-6.25Z"/><path class="cls-5" d="M188.76,357.06s0-.08-.07-.08a.07.07,0,0,1-.08.07.54.54,0,0,0-.24.44C188.45,357.42,188.75,357.28,188.76,357.06Z"/><path class="cls-5" d="M193,364a1,1,0,0,0-.24,0,1.54,1.54,0,0,0-.36.11c.05,0,.15,0,.25.07l.12,0c.15,0,.37,0,.45-.13A.27.27,0,0,0,193,364Z"/><path class="cls-5" d="M191.31,362.52c0-.74.63-1,.64-1.24s-.66-.17-.88-.4-.27-.83-.47-1.28c.31-.29.84-.41,1-.85a.2.2,0,0,0-.21-.23c-.52,0-.32.73-1,.71a.74.74,0,0,1-.25,0,.34.34,0,0,1-.21-.38c0-.11,0-.22,0-.3s0-.11-.07-.12c-.45,0-.9.19-1.35.17a1.86,1.86,0,0,1,.08-.39.7.7,0,0,0,0-.12.56.56,0,0,0-.14-.3.89.89,0,0,1-.53.35c-.22,0-.36-.31-.51-.32-.3,0-.61.42-.77.57-.22-.09-.36-.24-.59-.25s-1.06.48-1.14.55-3.47,3.15-3.49,3.59.44.17.42.68-.62.5-.64,1.17a1.06,1.06,0,0,1,.34.83,1.25,1.25,0,0,1-.49,1,1.94,1.94,0,0,0,.47.2c.48.14.71,0,.68,1,0,.15-.09.29-.09.44s.14.15.37.16a1,1,0,0,0,.45-.06,7.11,7.11,0,0,0,.4.93c.27.53.63,1,.94,1s.32-.66.7-.65c.22,0,.36.32.58.32a3,3,0,0,1,.6-.13c.3,0,.43.39.42.69,0,.15-.09.29-.09.44s.07.15.22.16.23-.22.23-.29-.2-.53-.19-.83a.82.82,0,0,1,.09-.37c.08,0,.15.08.22.08.3,0,.53-.35.7-.65a1,1,0,0,0,.51.24l.93-1.08c.31,0,.72.45.92.59l.1,0a.25.25,0,0,0,.07.15,1.74,1.74,0,0,0-.09-.3c-.13-.36-.37-.91-.53-.91,0-.15,1.78-1.87,1.81-2.61,0-.22-.21-.23-.21-.38a.33.33,0,0,1,.23-.21v-.37a2.11,2.11,0,0,0,.69-.42,8.06,8.06,0,0,1-.81-.18A1,1,0,0,1,191.31,362.52Z"/><path class="cls-5" d="M189.89,356.73c-.23.07-.24.36-.32.51S189.88,357,189.89,356.73Z"/></g></g></svg>