<?xml version="1.0" encoding="UTF-8"?>
<svg xmlns="http://www.w3.org/2000/svg" xmlns:xlink="http://www.w3.org/1999/xlink" width="24pt" height="24pt" viewBox="0 0 24 24" version="1.1">
<g id="surface4180686">
<path style=" stroke:none;fill-rule:nonzero;fill:rgb(0%,64.313725%,53.72549%);fill-opacity:1;" d="M 12 0.960938 C 5.910156 0.960938 0.960938 5.910156 0.960938 12 C 0.960938 18.089844 5.910156 23.039062 12 23.039062 C 18.089844 23.039062 23.039062 18.089844 23.039062 12 C 23.039062 5.910156 18.089844 0.960938 12 0.960938 Z M 12 1.921875 C 17.574219 1.921875 22.078125 6.425781 22.078125 12 C 22.078125 17.574219 17.574219 22.078125 12 22.078125 C 6.425781 22.078125 1.921875 17.574219 1.921875 12 C 1.921875 6.425781 6.425781 1.921875 12 1.921875 Z M 12.140625 6.003906 C 10.347656 6.003906 9.160156 7.089844 8.902344 8.742188 C 8.886719 8.84375 8.9375 8.914062 9.039062 8.929688 L 10.125 9.121094 C 10.230469 9.136719 10.296875 9.085938 10.3125 8.984375 C 10.519531 7.933594 11.140625 7.347656 12.105469 7.347656 C 13.085938 7.347656 13.773438 7.96875 13.773438 8.949219 C 13.773438 9.535156 13.566406 9.929688 12.964844 10.757812 L 11.8125 12.339844 C 11.449219 12.839844 11.296875 13.199219 11.296875 13.890625 L 11.296875 14.59375 C 11.296875 14.699219 11.363281 14.765625 11.46875 14.765625 L 12.605469 14.765625 C 12.707031 14.765625 12.773438 14.695312 12.773438 14.59375 L 12.773438 14.042969 C 12.773438 13.457031 12.878906 13.21875 13.222656 12.753906 L 14.375 11.167969 C 14.960938 10.359375 15.253906 9.757812 15.253906 8.929688 C 15.253906 7.226562 13.996094 6.003906 12.140625 6.003906 Z M 11.382812 16.078125 C 11.277344 16.078125 11.210938 16.144531 11.210938 16.25 L 11.210938 17.730469 C 11.210938 17.832031 11.277344 17.902344 11.382812 17.902344 L 12.691406 17.902344 C 12.792969 17.902344 12.863281 17.832031 12.863281 17.730469 L 12.863281 16.25 C 12.863281 16.144531 12.792969 16.078125 12.691406 16.078125 Z M 11.382812 16.078125 "/>
</g>
</svg>
