<?xml version="1.0" encoding="UTF-8"?>
<svg xmlns="http://www.w3.org/2000/svg" xmlns:xlink="http://www.w3.org/1999/xlink" width="24pt" height="24pt" viewBox="0 0 24 24" version="1.1">
<g id="surface4164456">
<path style=" stroke:none;fill-rule:nonzero;fill:rgb(0%,64.313725%,53.72549%);fill-opacity:1;" d="M 17.789062 6.230469 C 17.398438 6.214844 17.035156 6.4375 16.875 6.796875 C 16.714844 7.152344 16.785156 7.566406 17.054688 7.851562 L 20.003906 11.039062 L 1.441406 11.039062 C 1.09375 11.035156 0.773438 11.214844 0.597656 11.515625 C 0.421875 11.8125 0.421875 12.1875 0.597656 12.484375 C 0.773438 12.785156 1.09375 12.964844 1.441406 12.960938 L 20.003906 12.960938 L 17.054688 16.148438 C 16.816406 16.398438 16.730469 16.757812 16.832031 17.089844 C 16.933594 17.421875 17.203125 17.671875 17.542969 17.75 C 17.882812 17.824219 18.234375 17.710938 18.464844 17.453125 L 23.507812 12 L 18.464844 6.546875 C 18.292969 6.355469 18.046875 6.238281 17.789062 6.230469 Z M 17.789062 6.230469 "/>
</g>
</svg>
