<?xml version="1.0" encoding="UTF-8"?>
<svg xmlns="http://www.w3.org/2000/svg" xmlns:xlink="http://www.w3.org/1999/xlink" width="24pt" height="24pt" viewBox="0 0 24 24" version="1.1">
<g id="surface4116471">
<path style=" stroke:none;fill-rule:nonzero;fill:rgb(100%,100%,100%);fill-opacity:1;" d="M 14.8125 1.125 C 11.585938 1.125 8.757812 2.832031 7.179688 5.382812 C 3.65625 6.601562 1.125 9.9375 1.125 13.875 C 1.125 16.070312 1.914062 18.148438 3.335938 19.78125 L 1.273438 21.917969 C 1.125 22.085938 1.070312 22.3125 1.164062 22.539062 C 1.257812 22.761719 1.460938 22.875 1.6875 22.875 L 10.125 22.875 C 13.125 22.875 15.789062 21.394531 17.4375 19.125 L 23.25 19.125 C 23.476562 19.125 23.679688 18.992188 23.773438 18.789062 C 23.867188 18.582031 23.8125 18.335938 23.664062 18.167969 L 21.617188 16.03125 C 23.023438 14.398438 23.8125 12.320312 23.8125 10.125 C 23.8125 5.15625 19.78125 1.125 14.8125 1.125 Z M 10.125 6 C 14.476562 6 18 9.523438 18 13.875 C 18 18.226562 14.476562 21.75 10.125 21.75 L 3 21.75 L 4.5 20.175781 C 4.707031 19.949219 4.707031 19.613281 4.5 19.386719 C 3.054688 17.90625 2.25 15.957031 2.25 13.875 C 2.25 9.523438 5.773438 6 10.125 6 Z M 10.125 8.625 C 7.21875 8.625 4.875 10.96875 4.875 13.875 C 4.875 16.78125 7.21875 19.125 10.125 19.125 C 13.03125 19.125 15.375 16.78125 15.375 13.875 C 15.375 10.96875 13.03125 8.625 10.125 8.625 Z M 7.3125 11.4375 L 10.125 11.4375 C 10.445312 11.4375 10.6875 11.679688 10.6875 12 C 10.6875 12.320312 10.445312 12.5625 10.125 12.5625 L 7.3125 12.5625 C 6.992188 12.5625 6.75 12.320312 6.75 12 C 6.75 11.679688 6.992188 11.4375 7.3125 11.4375 Z M 12.9375 11.4375 C 13.257812 11.4375 13.5 11.679688 13.5 12 C 13.5 12.320312 13.257812 12.5625 12.9375 12.5625 C 12.617188 12.5625 12.375 12.320312 12.375 12 C 12.375 11.679688 12.617188 11.4375 12.9375 11.4375 Z M 7.3125 13.3125 L 12.9375 13.3125 C 13.257812 13.3125 13.5 13.554688 13.5 13.875 C 13.5 14.195312 13.257812 14.4375 12.9375 14.4375 L 7.3125 14.4375 C 6.992188 14.4375 6.75 14.195312 6.75 13.875 C 6.75 13.554688 6.992188 13.3125 7.3125 13.3125 Z M 7.3125 15.1875 C 7.632812 15.1875 7.875 15.429688 7.875 15.75 C 7.875 16.070312 7.632812 16.3125 7.3125 16.3125 C 6.992188 16.3125 6.75 16.070312 6.75 15.75 C 6.75 15.429688 6.992188 15.1875 7.3125 15.1875 Z M 10.125 15.1875 L 12.9375 15.1875 C 13.257812 15.1875 13.5 15.429688 13.5 15.75 C 13.5 16.070312 13.257812 16.3125 12.9375 16.3125 L 10.125 16.3125 C 9.804688 16.3125 9.5625 16.070312 9.5625 15.75 C 9.5625 15.429688 9.804688 15.1875 10.125 15.1875 Z M 10.125 15.1875 "/>
</g>
</svg>
