<svg width="24" height="24" viewBox="0 0 24 24" fill="none" xmlns="http://www.w3.org/2000/svg">
<path d="M20.8 4H3.20001C2.31601 4 1.60001 4.716 1.60001 5.6V18.4C1.60001 19.284 2.31601 20 3.20001 20H20.8C21.684 20 22.4 19.284 22.4 18.4V5.6C22.4 4.716 21.684 4 20.8 4ZM6.47521 18.4C6.92721 15.94 9.48481 16.2688 10.4 15.3464V13.6384C10.1048 13.324 9.72081 12.7608 9.66801 12.2928C9.47921 12.2784 9.18241 12.1048 9.09521 11.4208C9.04801 11.0536 9.23521 10.8464 9.34801 10.7816C9.34801 10.7816 9.06641 10.1896 9.06641 9.6008C9.06641 7.852 10.1392 6.4008 12 6.4008C13.1336 6.4008 13.3336 7.2008 13.3336 7.2008C14.4256 7.2008 14.9336 8.3056 14.9336 9.6008C14.9336 10.2464 14.652 10.7816 14.652 10.7816C14.7648 10.8464 14.952 11.0536 14.9048 11.4208C14.8176 12.1048 14.5208 12.2784 14.332 12.2928C14.2792 12.7616 13.8952 13.3248 13.6 13.6384V15.3464C14.5144 16.268 17.0728 15.94 17.5248 18.4H6.47521Z" fill="white"/>
</svg>
