<svg width="136" height="28" viewBox="0 0 136 28" fill="none" xmlns="http://www.w3.org/2000/svg">
<path d="M20.419 12.371C20.04 12.7523 19.7498 13.2125 19.569 13.7187C19.3882 14.225 19.3213 14.7649 19.373 15.3L19.355 15.282C19.4082 15.9119 19.3232 16.5457 19.1061 17.1394C18.889 17.733 18.545 18.2721 18.0981 18.7191C17.6511 19.166 17.112 19.5101 16.5183 19.7271C15.9247 19.9442 15.2908 20.0292 14.661 19.976L14.679 19.994C13.9256 19.9239 13.1689 20.0878 12.512 20.4635C11.8552 20.8392 11.3302 21.4083 11.0087 22.0933C10.6872 22.7783 10.5847 23.5457 10.7153 24.2911C10.846 25.0364 11.2033 25.7233 11.7386 26.2581C12.2739 26.7929 12.9611 27.1496 13.7065 27.2795C14.452 27.4095 15.2193 27.3063 15.904 26.9842C16.5887 26.662 17.1573 26.1366 17.5324 25.4794C17.9075 24.8222 18.0708 24.0654 18 23.312L18.019 23.33C17.9658 22.7002 18.0507 22.0663 18.2678 21.4726C18.4849 20.879 18.829 20.3399 19.2759 19.8929C19.7229 19.446 20.262 19.1019 20.8556 18.8849C21.4493 18.6678 22.0831 18.5828 22.713 18.636L22.694 18.618C23.3094 18.6733 23.9289 18.5724 24.495 18.3246C25.061 18.0768 25.5554 17.6901 25.9322 17.2004C26.309 16.7107 26.5562 16.1337 26.6506 15.5231C26.7451 14.9124 26.6839 14.2878 26.4727 13.707C26.2615 13.1263 25.9071 12.6083 25.4424 12.201C24.9777 11.7937 24.4177 11.5103 23.8143 11.3771C23.2109 11.2439 22.5836 11.2651 21.9906 11.4388C21.3976 11.6126 20.8581 11.9332 20.422 12.371H20.419Z" fill="black"/>
<path d="M13.042 17.636L13.023 17.618C13.5583 17.6719 14.0989 17.6062 14.6058 17.4256C15.1126 17.245 15.573 16.9541 15.9536 16.5738C16.3341 16.1935 16.6255 15.7333 16.8064 15.2266C16.9874 14.7199 17.0535 14.1794 17 13.644L17.019 13.662C16.9658 13.0321 17.0508 12.3983 17.2678 11.8046C17.4849 11.211 17.829 10.6719 18.2759 10.2249C18.7229 9.77797 19.262 9.43395 19.8556 9.21685C20.4493 8.99976 21.0831 8.91483 21.713 8.968L21.694 8.95C22.4475 9.02076 23.2044 8.85736 23.8616 8.4821C24.5189 8.10684 25.0443 7.53797 25.3663 6.8531C25.6883 6.16824 25.7912 5.40071 25.661 4.6552C25.5308 3.90969 25.1738 3.22251 24.6386 2.68737C24.1035 2.15224 23.4163 1.7952 22.6708 1.66498C21.9253 1.53475 21.1578 1.63766 20.4729 1.95968C19.788 2.28169 19.2192 2.80714 18.8439 3.46435C18.4686 4.12155 18.3052 4.87852 18.376 5.632L18.358 5.613C18.4113 6.24289 18.3265 6.87683 18.1095 7.47055C17.8925 8.06427 17.5484 8.60346 17.1015 9.05045C16.6545 9.49745 16.1153 9.84148 15.5216 10.0585C14.9278 10.2755 14.2939 10.3603 13.664 10.307L13.682 10.326C13.1467 10.2721 12.606 10.3378 12.0992 10.5184C11.5924 10.6989 11.132 10.9899 10.7514 11.3702C10.3708 11.7505 10.0795 12.2107 9.89855 12.7174C9.71757 13.2241 9.65146 13.7646 9.705 14.3L9.687 14.282C9.73999 14.9118 9.65494 15.5456 9.43779 16.1392C9.22063 16.7327 8.87659 17.2718 8.42968 17.7187C7.98276 18.1656 7.44372 18.5096 6.85016 18.7268C6.2566 18.9439 5.62281 19.029 4.993 18.976L5.011 18.994C4.25752 18.9232 3.50055 19.0866 2.84334 19.4619C2.18614 19.8372 1.66069 20.406 1.33868 21.0909C1.01666 21.7758 0.913743 22.5433 1.04397 23.2888C1.1742 24.0343 1.53124 24.7215 2.06637 25.2566C2.60151 25.7918 3.28869 26.1488 4.0342 26.279C4.77971 26.4092 5.54724 26.3063 6.23211 25.9843C6.91697 25.6623 7.48584 25.1369 7.8611 24.4797C8.23636 23.8224 8.39976 23.0655 8.329 22.312L8.348 22.33C8.29483 21.7001 8.37976 21.0663 8.59685 20.4726C8.81394 19.879 9.15797 19.3399 9.60493 18.8929C10.0519 18.446 10.591 18.1019 11.1846 17.8849C11.7783 17.6678 12.4121 17.5828 13.042 17.636V17.636Z" fill="black"/>
<path d="M6.34 15.629C6.71902 15.2478 7.0092 14.7876 7.18984 14.2813C7.37048 13.775 7.43712 13.235 7.385 12.7L7.40399 12.718C7.35079 12.088 7.43575 11.4539 7.65296 10.8601C7.87017 10.2663 8.21439 9.7271 8.66157 9.28011C9.10875 8.83312 9.64812 8.48913 10.242 8.27218C10.8359 8.05522 11.47 7.97052 12.1 8.024L12.081 8.006C12.8342 8.07657 13.5909 7.91308 14.2478 7.53784C14.9047 7.16261 15.4298 6.59388 15.7517 5.90923C16.0735 5.22457 16.1763 4.45732 16.0461 3.71209C15.9159 2.96686 15.5589 2.27994 15.024 1.745C14.4891 1.21006 13.8021 0.853142 13.0569 0.722918C12.3117 0.592694 11.5444 0.695505 10.8598 1.01733C10.1751 1.33915 9.60639 1.86432 9.23115 2.52122C8.85592 3.17812 8.69243 3.93478 8.763 4.688L8.745 4.67C8.79816 5.29985 8.71324 5.93372 8.49614 6.52736C8.27905 7.121 7.93502 7.66011 7.48806 8.10707C7.04111 8.55403 6.50199 8.89806 5.90835 9.11515C5.31471 9.33224 4.68085 9.41717 4.051 9.364L4.069 9.382C3.45357 9.32681 2.83416 9.42786 2.26818 9.67578C1.7022 9.9237 1.20795 10.3105 0.831244 10.8003C0.454534 11.29 0.207547 11.867 0.113171 12.4776C0.018796 13.0883 0.0800851 13.7129 0.29136 14.2935C0.502634 14.8742 0.857059 15.3921 1.32179 15.7993C1.78652 16.2066 2.34652 16.4899 2.9499 16.6231C3.55327 16.7562 4.1805 16.7349 4.77347 16.5612C5.36643 16.3874 5.90593 16.0668 6.34199 15.629H6.34Z" fill="black"/>
<path d="M37.317 5.655H40.287V20.108H37.317V5.655Z" fill="black"/>
<path d="M41.969 15.159C41.9648 14.1204 42.269 13.1038 42.843 12.2382C43.4171 11.3726 44.2351 10.6968 45.1935 10.2964C46.1519 9.89609 47.2075 9.78919 48.2267 9.98927C49.2459 10.1893 50.1828 10.6874 50.9187 11.4204C51.6546 12.1533 52.1564 13.0882 52.3606 14.1066C52.5647 15.125 52.4621 16.1811 52.0656 17.1411C51.6691 18.101 50.9966 18.9218 50.1332 19.4992C49.2699 20.0767 48.2547 20.385 47.216 20.385C46.5265 20.3929 45.8424 20.2632 45.2037 20.0036C44.5649 19.744 43.9843 19.3597 43.4957 18.8731C43.0072 18.3866 42.6206 17.8075 42.3584 17.1698C42.0963 16.5321 41.9639 15.8485 41.969 15.159V15.159ZM49.493 15.159C49.4806 14.7113 49.3365 14.2772 49.0788 13.9109C48.821 13.5447 48.461 13.2625 48.0438 13.0998C47.6265 12.937 47.1705 12.9008 46.7329 12.9958C46.2952 13.0908 45.8952 13.3126 45.5829 13.6337C45.2706 13.9547 45.0599 14.3607 44.9771 14.8009C44.8943 15.241 44.9431 15.6958 45.1174 16.1084C45.2916 16.5209 45.5837 16.873 45.9569 17.1205C46.3302 17.368 46.7681 17.5 47.216 17.5C47.5227 17.5082 47.8278 17.4527 48.112 17.3371C48.3963 17.2215 48.6534 17.0483 48.8674 16.8284C49.0813 16.6084 49.2474 16.3465 49.355 16.0592C49.4627 15.7719 49.5097 15.4654 49.493 15.159V15.159Z" fill="black"/>
<path d="M64.3 10.209V19.609C64.3 22.935 61.706 24.341 59.073 24.341C58.1459 24.4104 57.2177 24.2231 56.39 23.7998C55.5624 23.3764 54.8673 22.7333 54.381 21.941L56.915 20.476C57.1194 20.889 57.4451 21.2297 57.8484 21.4526C58.2518 21.6755 58.7136 21.7698 59.172 21.723C59.465 21.7636 59.7634 21.7378 60.0451 21.6475C60.3267 21.5572 60.5845 21.4048 60.7993 21.2014C61.0141 20.998 61.1804 20.749 61.2859 20.4726C61.3915 20.1963 61.4335 19.8998 61.409 19.605V18.7C61.0612 19.1255 60.6185 19.4636 60.1165 19.6871C59.6144 19.9106 59.0669 20.0133 58.518 19.987C57.2118 19.9458 55.9729 19.398 55.0635 18.4594C54.1541 17.5209 53.6456 16.2654 53.6456 14.9585C53.6456 13.6517 54.1541 12.3961 55.0635 11.4576C55.9729 10.519 57.2118 9.9712 58.518 9.93001C59.0669 9.90366 59.6144 10.0064 60.1165 10.2299C60.6185 10.4534 61.0612 10.7915 61.409 11.217V10.207L64.3 10.209ZM61.41 14.96C61.43 14.4814 61.3062 14.0077 61.0547 13.6C60.8032 13.1922 60.4354 12.8691 59.9987 12.6722C59.562 12.4752 59.0763 12.4135 58.6043 12.4949C58.1322 12.5763 57.6952 12.7971 57.3497 13.129C57.0042 13.4608 56.7659 13.8884 56.6654 14.3568C56.565 14.8253 56.607 15.313 56.7861 15.7573C56.9653 16.2016 57.2732 16.5822 57.6705 16.85C58.0677 17.1178 58.5359 17.2606 59.015 17.26C59.3271 17.2818 59.6402 17.238 59.9343 17.1314C60.2284 17.0248 60.4969 16.8578 60.7225 16.6411C60.9481 16.4244 61.1259 16.1629 61.2443 15.8733C61.3627 15.5838 61.4191 15.2727 61.41 14.96V14.96Z" fill="black"/>
<path d="M65.982 15.159C65.9778 14.1204 66.282 13.1038 66.856 12.2382C67.4301 11.3726 68.2481 10.6968 69.2065 10.2964C70.1649 9.89609 71.2205 9.78919 72.2397 9.98927C73.2589 10.1893 74.1958 10.6874 74.9317 11.4204C75.6676 12.1533 76.1694 13.0882 76.3736 14.1066C76.5778 15.125 76.4751 16.1811 76.0786 17.1411C75.6821 18.101 75.0096 18.9218 74.1462 19.4992C73.2829 20.0767 72.2676 20.385 71.229 20.385C70.5395 20.3929 69.8554 20.2632 69.2167 20.0036C68.5779 19.744 67.9973 19.3597 67.5087 18.8731C67.0202 18.3866 66.6336 17.8075 66.3714 17.1698C66.1093 16.5321 65.9769 15.8485 65.982 15.159V15.159ZM73.506 15.159C73.4936 14.7113 73.3495 14.2772 73.0918 13.9109C72.834 13.5447 72.474 13.2625 72.0567 13.0998C71.6395 12.937 71.1835 12.9008 70.7458 12.9958C70.3082 13.0908 69.9082 13.3126 69.5959 13.6337C69.2836 13.9547 69.0729 14.3607 68.9901 14.8009C68.9073 15.241 68.9561 15.6958 69.1304 16.1084C69.3046 16.5209 69.5967 16.873 69.9699 17.1205C70.3432 17.368 70.7811 17.5 71.229 17.5C71.5357 17.5082 71.8408 17.4527 72.125 17.3371C72.4093 17.2215 72.6664 17.0483 72.8804 16.8284C73.0943 16.6084 73.2604 16.3465 73.368 16.0592C73.4757 15.7719 73.5227 15.4654 73.506 15.159Z" fill="black"/>
<path d="M77.861 7.556C77.861 7.20356 77.9655 6.85903 78.1613 6.56598C78.3571 6.27293 78.6354 6.04452 78.9611 5.90965C79.2867 5.77477 79.645 5.73948 79.9906 5.80824C80.3363 5.877 80.6538 6.04672 80.9031 6.29594C81.1523 6.54516 81.322 6.86268 81.3908 7.20835C81.4595 7.55403 81.4242 7.91233 81.2893 8.23795C81.1545 8.56356 80.9261 8.84187 80.633 9.03768C80.34 9.23349 79.9954 9.33801 79.643 9.33801C79.1718 9.33332 78.7213 9.14407 78.3881 8.81089C78.0549 8.47771 77.8657 8.02717 77.861 7.556V7.556ZM78.161 10.209H81.132V20.109H78.157L78.161 10.209Z" fill="black"/>
<path d="M93.956 15.159C93.9903 15.8133 93.895 16.4679 93.6754 17.0852C93.4559 17.7025 93.1164 18.2703 92.6767 18.756C92.2369 19.2416 91.7055 19.6356 91.113 19.9152C90.5204 20.1947 89.8785 20.3544 89.224 20.385C88.6736 20.415 88.1234 20.3222 87.6134 20.1133C87.1033 19.9043 86.6461 19.5845 86.275 19.177V24.068H83.305V10.209H86.275V11.139C86.6463 10.7318 87.1036 10.4122 87.6136 10.2035C88.1236 9.99472 88.6737 9.90199 89.224 9.932C89.8786 9.96247 90.5207 10.1221 91.1134 10.4017C91.706 10.6813 92.2376 11.0753 92.6774 11.5611C93.1172 12.0469 93.4565 12.6149 93.676 13.2324C93.8954 13.8498 93.9906 14.5046 93.956 15.159V15.159ZM90.986 15.159C90.9744 14.6957 90.8264 14.2461 90.5605 13.8664C90.2946 13.4868 89.9227 13.194 89.4912 13.0248C89.0598 12.8555 88.588 12.8172 88.1349 12.9148C87.6818 13.0123 87.2675 13.2413 86.944 13.5731C86.6204 13.905 86.4019 14.3248 86.3158 14.7803C86.2296 15.2357 86.2798 15.7063 86.4598 16.1334C86.6399 16.5605 86.9419 16.9249 87.3281 17.1812C87.7143 17.4374 88.1675 17.5741 88.631 17.574C88.9492 17.5882 89.2668 17.5349 89.5629 17.4177C89.8591 17.3006 90.1271 17.1221 90.3495 16.8941C90.5719 16.666 90.7435 16.3936 90.8532 16.0946C90.9629 15.7956 91.0082 15.4767 90.986 15.159V15.159Z" fill="black"/>
<path d="M103.121 17.138C103.121 19.415 101.142 20.385 99.004 20.385C98.1402 20.4633 97.2727 20.2806 96.5138 19.8606C95.7549 19.4405 95.1394 18.8025 94.747 18.029L97.32 16.564C97.4241 16.9216 97.6477 17.2326 97.9534 17.4452C98.2592 17.6577 98.6286 17.759 99 17.732C99.712 17.732 100.069 17.514 100.069 17.119C100.069 16.029 95.198 16.604 95.198 13.179C95.198 11.02 97.02 9.93201 99.079 9.93201C99.853 9.90751 100.619 10.0911 101.298 10.4636C101.977 10.8362 102.544 11.384 102.939 12.05L100.405 13.416C100.294 13.1567 100.109 12.9358 99.8731 12.7809C99.6373 12.626 99.3611 12.544 99.079 12.545C98.564 12.545 98.247 12.745 98.247 13.099C98.251 14.228 103.121 13.475 103.121 17.138Z" fill="black"/>
<path d="M113.97 10.209V20.109H111V19.178C110.657 19.5888 110.222 19.9125 109.73 20.1225C109.238 20.3325 108.704 20.4228 108.17 20.386C106.17 20.386 104.47 18.961 104.47 16.286V10.209H107.44V15.851C107.415 16.0868 107.442 16.3252 107.519 16.5495C107.595 16.7739 107.72 16.9789 107.884 17.1502C108.048 17.3215 108.247 17.455 108.468 17.5415C108.688 17.628 108.925 17.6654 109.162 17.651C110.251 17.651 111.003 17.018 111.003 15.612V10.212L113.97 10.209Z" fill="black"/>
<path d="M131 14.03V20.108H128.03V14.287C128.03 13.297 127.555 12.664 126.605 12.664C125.615 12.664 125.06 13.357 125.06 14.525V20.108H122.091V14.287C122.091 13.297 121.616 12.664 120.665 12.664C119.675 12.664 119.121 13.357 119.121 14.525V20.108H116.151V10.208H119.121V11.118C119.429 10.7143 119.833 10.3941 120.296 10.1868C120.76 9.97943 121.268 9.89149 121.774 9.931C122.282 9.90614 122.788 10.0134 123.243 10.2423C123.697 10.4711 124.084 10.8139 124.367 11.237C124.696 10.7943 125.132 10.4423 125.634 10.2139C126.136 9.98553 126.688 9.88819 127.238 9.931C129.511 9.932 131 11.555 131 14.03Z" fill="black"/>
<path d="M133.512 10.148C134.729 10.148 135.716 9.16124 135.716 7.944C135.716 6.72677 134.729 5.74001 133.512 5.74001C132.295 5.74001 131.308 6.72677 131.308 7.944C131.308 9.16124 132.295 10.148 133.512 10.148Z" fill="black"/>
</svg>
