<?xml version="1.0" standalone="no"?>
<!DOCTYPE svg PUBLIC "-//W3C//DTD SVG 1.1//EN" "http://www.w3.org/Graphics/SVG/1.1/DTD/svg11.dtd" >
<svg xmlns="http://www.w3.org/2000/svg" xmlns:xlink="http://www.w3.org/1999/xlink" version="1.1">
<metadata>
Created by FontForge 20170731 at Fri Sep 11 08:36:10 2020
 By Aleksey,,,
Copyright (c) 2011 by TypeTogether. All rights reserved.
</metadata>
<defs>
<font id="AbrilText-Regular" horiz-adv-x="1228" >
  <font-face 
    font-family="Abril Text"
    font-weight="400"
    font-stretch="normal"
    units-per-em="2048"
    panose-1="2 0 5 3 7 0 0 2 0 4"
    ascent="1597"
    descent="-451"
    x-height="1018"
    cap-height="1434"
    bbox="-328 -575 4063 2206"
    underline-thickness="92"
    underline-position="-300"
    unicode-range="U+0020-FB06"
  />
<missing-glyph horiz-adv-x="409" 
 />
    <glyph glyph-name="ij" unicode="ij" horiz-adv-x="1204" 
d="M166 1366q0 57 32 92t95 35q129 0 129 -125q0 -60 -33 -92.5t-94 -32.5q-68 0 -98.5 33.5t-30.5 89.5zM66 1014l348 12v-930l155 -14v-82h-503v82l153 14v824l-153 14v80zM700 -344q30 0 53 9t38.5 22t26 40t16 50.5t8.5 68t3.5 77t0.5 91.5v906l-154 14v80l348 12v-917
q0 -71 -7 -136t-30.5 -142t-61.5 -132.5t-105.5 -93t-157.5 -37.5q-103 0 -171.5 48.5t-68.5 139.5q0 59 34.5 98.5t96.5 39.5q46 0 78.5 -29t38.5 -82l-70 -41q-4 -86 84 -86zM782 1366q0 57 32 92t95 35q129 0 129 -125q0 -60 -33 -92.5t-94 -32.5q-68 0 -98.5 33.5
t-30.5 89.5z" />
    <glyph glyph-name="f_b" unicode="fb" horiz-adv-x="1912" 
d="M678 1018v-100h-270v-822l204 -14v-82h-555v82l156 14v822h-162v100h162v96q0 214 113.5 341.5t322.5 127.5q177 0 250 -119l178 72h23v-668q44 74 128.5 123t201.5 49q190 0 289.5 -132t99.5 -390q0 -262 -121.5 -401.5t-331.5 -139.5q-201 0 -324 113l-79 -110h-58
v1202l17 172h-11q-9 -53 -41 -80t-77 -27q-61 0 -89.5 35t-25.5 96l61 19q6 18 6 35q0 69 -112 69q-66 0 -111.5 -21.5t-69.5 -62t-34 -88t-10 -108.5v-203h270zM1364 913q-137 0 -211 -100q-53 -63 -53 -170v-303q0 -111 76 -185.5t184 -74.5q136 0 189 102.5t53 319.5
q0 210 -51.5 310.5t-186.5 100.5z" />
    <glyph glyph-name="f_j" unicode="fj" horiz-adv-x="1296" 
d="M764 -344q27 0 47.5 5.5t35.5 19.5t25.5 28t17.5 42.5t11 50t5.5 62.5t2 69.5t0.5 80.5v904h-501v-822l225 -14v-82h-576v82l156 14v822h-162v100h162v49q0 243 134 379.5t370 136.5q137 0 230 -69t93 -189q0 -67 -37 -105t-100 -38q-66 0 -103 44.5t-34 112.5l80 23
q6 24 6 43q0 96 -152 96q-292 0 -292 -340v-143h696v-909q0 -70 -7.5 -135.5t-31 -142.5t-61.5 -132.5t-105.5 -93t-157.5 -37.5q-103 0 -171 48.5t-68 139.5q0 59 34.5 98.5t96.5 39.5q46 0 78.5 -29t38.5 -82l-70 -41q-4 -86 84 -86z" />
    <glyph glyph-name="f_k" unicode="fk" horiz-adv-x="1863" 
d="M768 82l137 14v1086l17 172h-11q-9 -53 -41 -80t-77 -27q-61 0 -89.5 35t-25.5 96l61 19q6 18 6 35q0 69 -112 69q-66 0 -111.5 -21.5t-69.5 -62t-34 -88t-10 -108.5v-203h270v-100h-270v-822l204 -14v-82h-555v82l156 14v822h-162v100h162v96q0 214 113.5 341.5
t322.5 127.5q177 0 250 -119l178 72h23v-1440l133 -14v-82h-465v82zM1311 612l415 -518l111 -12v-82h-451v80l103 8v10l-367 455v20l367 347v12l-127 8v78h420v-82l-146 -14z" />
    <glyph glyph-name="f_t" unicode="ft" horiz-adv-x="1482" 
d="M909 219v699h-501v-822l245 -14v-82h-596v82l156 14v822h-162v100h162v96q0 216 100.5 342.5t294.5 126.5q115 0 183.5 -53.5t68.5 -143.5q0 -64 -33 -101.5t-92 -37.5q-61 0 -90.5 34.5t-26.5 94.5l60 21q6 21 6 39q0 65 -92 65q-47 0 -81.5 -16t-54 -41t-31 -64
t-14.5 -75t-3 -84v-203h501v223l148 41h47v-264h225v-100h-225v-666q0 -86 23.5 -122t82.5 -36t96 35.5t62 126.5l78 -20q-32 -134 -100.5 -196.5t-196.5 -62.5q-114 0 -177 59t-63 183z" />
    <glyph glyph-name="f_h" unicode="fh" horiz-adv-x="1947" 
d="M678 1018v-100h-270v-822l204 -14v-82h-555v82l156 14v822h-162v100h162v96q0 214 113.5 341.5t322.5 127.5q177 0 250 -119l178 72h23v-569l-8 -129h8q46 87 134.5 144.5t211.5 57.5q162 0 236.5 -83.5t74.5 -264.5v-596l135 -14v-82h-465v82l136 14v594
q0 110 -38.5 161.5t-150.5 51.5q-115 0 -193.5 -73.5t-78.5 -206.5v-527l139 -14v-82h-479v82l143 14v1086l17 172h-11q-9 -53 -41 -80t-77 -27q-61 0 -89.5 35t-25.5 96l61 19q18 54 -12 79t-94 25q-66 0 -111.5 -21.5t-69.5 -62t-34 -88t-10 -108.5v-203h270z" />
    <glyph glyph-name="ff" unicode="ff" horiz-adv-x="1366" 
d="M1341 1018v-100h-270v-822l246 -14v-82h-596v82l156 14v822h-469v-822l184 -14v-82h-535v82l156 14v822h-162v100h162v59q0 214 116.5 341.5t327.5 127.5q110 0 180 -50.5t81 -127.5q113 215 354 215q115 0 183.5 -53.5t68.5 -143.5q0 -64 -33 -101.5t-92 -37.5
q-61 0 -90.5 34.5t-26.5 94.5l59 21q7 25 7 39q0 65 -93 65q-47 0 -81.5 -16t-54 -41t-31 -64t-14.5 -75t-3 -84v-203h270zM877 1018l2 98q4 96 20 156q-28 -62 -100 -62q-53 0 -78.5 34.5t-22.5 94.5l60 21q8 21 8 43q0 61 -113 61q-245 0 -245 -280v-166h469z" />
    <glyph glyph-name="fi" unicode="fi" horiz-adv-x="1312" 
d="M408 1018h696v-922l156 -14v-82h-504v82l153 14v822h-501v-822l225 -14v-82h-576v82l156 14v822h-162v100h162v49q0 243 134 379.5t370 136.5q89 0 162.5 -27t120.5 -85t47 -138q0 -67 -40 -109t-102 -42q-70 0 -106.5 40.5t-32.5 116.5l84 25q10 30 10 47q0 90 -160 90
q-292 0 -292 -340v-143z" />
    <glyph glyph-name="fl" unicode="fl" horiz-adv-x="1302" 
d="M678 1018v-100h-270v-822l204 -14v-82h-555v82l156 14v822h-162v100h162v96q0 214 113.5 341.5t322.5 127.5q177 0 250 -119l178 72h23v-1440l155 -14v-82h-495v82l145 14v1075l17 183h-11q-9 -53 -41 -80t-77 -27q-61 0 -89.5 35t-25.5 96l61 19q6 18 6 35q0 69 -112 69
q-66 0 -111.5 -21.5t-69.5 -62t-34 -88t-10 -108.5v-203h270z" />
    <glyph glyph-name="ffi" unicode="ffi" horiz-adv-x="1972" 
d="M1067 1018h696v-922l156 -14v-82h-504v82l154 14v822h-502v-822l225 -14v-82h-575v82l155 14v822h-464v-822l184 -14v-82h-535v82l156 14v822h-162v100h162v49q0 215 117 347t327 132q113 0 188.5 -59t80.5 -148q60 114 176 179t274 65q137 0 230.5 -69t93.5 -189
q0 -67 -37 -105t-100 -38q-66 0 -103.5 44.5t-34.5 112.5l80 23q19 71 -18 105t-127 34q-293 0 -293 -340v-143zM408 1184v-166h464v61q0 89 21 174q-34 -43 -90 -43q-55 0 -81.5 34.5t-23.5 94.5l60 21q8 21 8 43q0 61 -113 61q-245 0 -245 -280z" />
    <glyph glyph-name="ffl" unicode="ffl" horiz-adv-x="1964" 
d="M1339 1018v-100h-270v-822l205 -14v-82h-555v82l155 14v822h-466v-822l184 -14v-82h-535v82l156 14v822h-162v100h162v49q0 215 117 347t327 132q109 0 180 -50.5t87 -127.5q52 98 151 156.5t236 58.5q177 0 250 -119l178 72h22v-1440l156 -14v-82h-496v82l146 14v1075
q0 73 16 183h-10q-9 -53 -41.5 -80t-77.5 -27q-61 0 -89.5 35t-25.5 96l62 19q6 18 6 35q0 69 -113 69q-66 0 -111.5 -21.5t-69.5 -62t-34 -88t-10 -108.5v-203h270zM408 1184v-166h466v80q0 77 19 151q-31 -39 -90 -39q-55 0 -81.5 34.5t-23.5 94.5l60 21q8 21 8 43
q0 61 -113 61q-245 0 -245 -280z" />
    <glyph glyph-name="f_f_j" unicode="ffj" horiz-adv-x="1953" 
d="M1421 -344q30 0 53 9t38.5 22t26 40t16 50.5t8.5 68t3.5 77t0.5 91.5v904h-502v-822l225 -14v-82h-575v82l155 14v822h-462v-822l184 -14v-82h-535v82l156 14v822h-162v100h162v59q0 214 116.5 341.5t327.5 127.5q112 0 189 -60t80 -143q59 114 174 177t274 63
q137 0 230.5 -69t93.5 -189q0 -67 -37 -105t-100 -38q-66 0 -103.5 44.5t-34.5 112.5l80 23q19 71 -18 105t-127 34q-293 0 -293 -340v-143h696v-909q0 -71 -7 -136t-30.5 -142t-61.5 -132.5t-105.5 -93t-157.5 -37.5q-103 0 -171.5 48.5t-68.5 139.5q0 59 34.5 98.5
t96.5 39.5q46 0 78.5 -29t38.5 -82l-70 -41q-4 -86 84 -86zM408 1184v-166h462v59q0 103 25 174q-29 -41 -88 -41q-58 0 -85 34t-24 95l60 21q8 21 8 43q0 61 -113 61q-245 0 -245 -280z" />
    <glyph glyph-name="f_f_k" unicode="ffk" horiz-adv-x="2527" 
d="M1432 82l137 14v1086q0 66 16 172h-10q-9 -53 -41.5 -80t-77.5 -27q-61 0 -89.5 35t-25.5 96l62 19q6 18 6 35q0 69 -113 69q-66 0 -111.5 -21.5t-69.5 -62t-34 -88t-10 -108.5v-203h270v-100h-270v-822l205 -14v-82h-555v82l156 14v822h-469v-822l184 -14v-82h-535v82
l156 14v822h-162v100h162v49q0 215 117 347t327 132q103 0 174.5 -50t92.5 -130q124 217 389 217q177 0 250 -119l178 72h22v-1440l133 -14v-82h-464v82zM1974 612l416 -518l111 -12v-82h-451v80l102 8v10l-366 455v20l366 347v12l-127 8v78h420v-82l-145 -14zM408 1184
v-166h469v55q0 112 20 182q-33 -45 -94 -45q-55 0 -81.5 34.5t-23.5 94.5l60 21q8 21 8 43q0 61 -113 61q-245 0 -245 -280z" />
    <glyph glyph-name="f_f_b" unicode="ffb" horiz-adv-x="2574" 
d="M1339 1018v-100h-270v-822l205 -14v-82h-555v82l155 14v822h-466v-822l184 -14v-82h-535v82l156 14v822h-162v100h162v49q0 215 117 347t327 132q101 0 177 -53t90 -125q53 100 151.5 157.5t235.5 57.5q177 0 250 -119l178 72h22v-668q44 74 128.5 123t201.5 49
q190 0 289.5 -132t99.5 -390q0 -262 -121 -401.5t-331 -139.5q-201 0 -324 113l-80 -110h-57v1202q0 66 16 172h-10q-9 -53 -41.5 -80t-77.5 -27q-61 0 -89.5 35t-25.5 96l62 19q6 18 6 35q0 69 -113 69q-66 0 -111.5 -21.5t-69.5 -62t-34 -88t-10 -108.5v-203h270z
M2025 913q-136 0 -210 -100q-54 -64 -54 -170v-303q0 -111 76 -185.5t184 -74.5q136 0 189 102.5t53 319.5q0 210 -51.5 310.5t-186.5 100.5zM408 1184v-166h466v49q0 94 23 188q-31 -45 -94 -45q-55 0 -81.5 34.5t-23.5 94.5l60 21q8 21 8 43q0 61 -113 61
q-245 0 -245 -280z" />
    <glyph glyph-name="f_f_h" unicode="ffh" horiz-adv-x="2609" 
d="M1339 1018v-100h-270v-822l205 -14v-82h-555v82l155 14v822h-466v-822l184 -14v-82h-535v82l156 14v822h-162v100h162v49q0 215 117 347t327 132q103 0 177 -52t88 -128q52 99 151 158t238 59q177 0 250 -119l178 72h22v-569l-8 -129h8q46 87 134.5 144.5t211.5 57.5
q162 0 237 -84t75 -264v-596l135 -14v-82h-465v82l135 14v594q0 111 -38.5 162t-149.5 51q-116 0 -194.5 -73.5t-78.5 -206.5v-527l140 -14v-82h-480v82l144 14v1086q0 66 16 172h-10q-9 -53 -41.5 -80t-77.5 -27q-61 0 -89.5 35t-25.5 96l62 19q6 18 6 35q0 69 -113 69
q-66 0 -111.5 -21.5t-69.5 -62t-34 -88t-10 -108.5v-203h270zM874 1018v72q0 85 23 170q-30 -50 -96 -50q-55 0 -81.5 34.5t-23.5 94.5l60 21q8 21 8 43q0 61 -111 61q-245 0 -245 -280v-166h466z" />
    <glyph glyph-name="f_f_t" unicode="fft" horiz-adv-x="2146" 
d="M1573 219v699h-502v-822l246 -14v-82h-596v82l156 14v822h-469v-822l184 -14v-82h-535v82l156 14v822h-162v100h162v49q0 215 117 347t327 132q99 0 173 -50t92 -120q103 207 350 207q115 0 183.5 -53.5t68.5 -143.5q0 -64 -33 -101.5t-92 -37.5q-61 0 -90.5 34.5
t-26.5 94.5l59 21q7 25 7 39q0 65 -93 65q-47 0 -81.5 -16t-54 -41t-31 -64t-14.5 -75t-3 -84v-203h502v223l147 41h47v-264h226v-100h-226v-666q0 -86 24 -122t83 -36t96 35.5t62 126.5l77 -20q-32 -134 -100.5 -196.5t-196.5 -62.5q-114 0 -176.5 59t-62.5 183zM408 1184
v-166h469v76q0 76 24 168q-16 -26 -43.5 -39t-54.5 -13q-55 0 -81.5 34.5t-23.5 94.5l60 21q8 21 8 43q0 61 -113 61q-245 0 -245 -280z" />
    <glyph glyph-name="f_iacute" unicode="f&#xed;" horiz-adv-x="1312" 
d="M408 1018h696v-922l156 -14v-82h-504v82l153 14v822h-501v-822l206 -14v-82h-557v82l156 14v822h-162v100h162v96q0 212 103.5 340.5t285.5 128.5q113 0 177.5 -53t64.5 -144q0 -63 -34.5 -100t-94.5 -37q-61 0 -90.5 35t-26.5 96l68 21q8 21 8 41q0 59 -88 59
q-178 0 -178 -280v-203zM881 1188l213 338h82q38 0 61 -18.5t23 -51.5q0 -29 -14.5 -49.5t-45.5 -44.5l-272 -211z" />
    <glyph glyph-name="t_t" unicode="tt" horiz-adv-x="1472" 
d="M899 219v699h-502v-666q0 -86 24 -122t83 -36t96 35.5t62 126.5l77 -20q-32 -134 -100.5 -196.5t-196.5 -62.5q-114 0 -176.5 59t-62.5 183v699h-154v100h154v264l147 41h47v-305h502v264l148 41h47v-305h225v-100h-225v-666q0 -86 23.5 -122t82.5 -36t96 35.5t62 126.5
l78 -20q-32 -134 -100.5 -196.5t-196.5 -62.5q-114 0 -177 59t-63 183z" />
    <glyph glyph-name=".notdef" horiz-adv-x="409" 
 />
    <glyph glyph-name=".null" horiz-adv-x="0" 
 />
    <glyph glyph-name="nonmarkingreturn" horiz-adv-x="682" 
 />
    <glyph glyph-name="space" unicode=" " horiz-adv-x="409" 
 />
    <glyph glyph-name="exclam" unicode="!" horiz-adv-x="784" 
d="M344 365v174q0 175 -16 336.5t-32.5 269.5t-16.5 155q0 62 32.5 98t91.5 36q57 0 86 -35t29 -96q0 -56 -19.5 -164t-39 -266t-19.5 -336v-172h-96zM262 109q0 56 34 92.5t95 36.5q60 0 95.5 -32t35.5 -95q0 -60 -33.5 -95.5t-95.5 -35.5q-68 0 -99.5 37.5t-31.5 91.5z
" />
    <glyph glyph-name="quotedbl" unicode="&#x22;" horiz-adv-x="765" 
d="M199 1092l-49 434q60 49 112 49q35 0 53.5 -20.5t18.5 -51.5q0 -36 -8 -88l-58 -323h-69zM502 1092l-49 434q60 49 112 49q35 0 53.5 -20.5t18.5 -51.5q0 -36 -8 -88l-58 -323h-69z" />
    <glyph glyph-name="numbersign" unicode="#" horiz-adv-x="1226" 
d="M373 0h-92l45 285h-246l18 86h240l57 362h-241l16 88h238l41 266h94l-43 -266h313l39 266h94l-41 -266h248l-14 -88h-244l-57 -362h243l-14 -86h-242l-45 -285h-92l45 285h-313zM803 733h-316l-57 -362h315z" />
    <glyph glyph-name="dollar" unicode="$" horiz-adv-x="1075" 
d="M393 -154l25 160q-37 6 -89.5 19.5t-72.5 13.5q-7 0 -12 -2t-8.5 -3.5t-7.5 -7.5t-5 -8.5t-5.5 -12.5t-6.5 -13h-51l-19 385h72q41 -124 86 -188t133 -87l57 381q-166 38 -244.5 107t-78.5 205q0 139 99 233t282 94q27 0 41 -2l24 160l82 -10l-24 -160q24 -5 53 -14
t48 -14t32 -5q18 0 27.5 7t19.5 24h45l12 -313h-65q-33 102 -77.5 153.5t-109.5 69.5l-51 -344q46 -11 78 -20.5t72.5 -25t68.5 -32t57 -41t46 -54t28 -69t11 -86.5q0 -155 -110.5 -252.5t-307.5 -97.5q-31 0 -45 2l-25 -162zM516 90h27q125 0 193.5 50.5t68.5 140.5
q0 80 -50 115.5t-184 68.5zM330 862q0 -72 44 -106.5t148 -63.5l51 338h-30q-95 0 -154 -45.5t-59 -122.5z" />
    <glyph glyph-name="percent" unicode="%" horiz-adv-x="1515" 
d="M825 260q0 138 85.5 219.5t213.5 81.5q124 0 205.5 -70.5t81.5 -214.5q0 -145 -86.5 -222t-208.5 -77q-137 0 -214 76.5t-77 206.5zM971 262q0 -94 39 -143t110 -49q146 0 146 200q0 100 -38 148.5t-106 48.5q-151 0 -151 -205zM104 821q0 138 85.5 219.5t213.5 81.5
q79 0 141.5 -27t104 -93t41.5 -164q0 -145 -86.5 -222t-208.5 -77q-137 0 -214 76t-77 206zM248 823q0 -94 39.5 -143t111.5 -49q146 0 146 203q0 194 -144 194q-153 0 -153 -205zM356 0l680 1100h123l-678 -1100h-125z" />
    <glyph glyph-name="ampersand" unicode="&#x26;" horiz-adv-x="1560" 
d="M971 1190q0 -35 -6 -65.5t-20.5 -57.5t-30 -49t-43.5 -44.5t-52.5 -40t-65 -39.5t-72.5 -38.5t-83 -40.5q126 -192 414 -506q99 165 121 420l-168 14v80h417v-80l-141 -16q-48 -308 -162 -483q117 -109 205 -109q23 0 41 7.5t36.5 27.5t30 63t15.5 107l80 -8
q-5 -355 -244 -355q-78 0 -135.5 22.5t-122.5 74.5l-31 24q-146 -121 -362 -121q-90 0 -174.5 23.5t-156.5 69t-115.5 122.5t-43.5 175q0 78 21 144t61.5 117t87.5 90t109 75q-80 153 -80 272q0 169 110.5 269t274.5 100q134 0 209.5 -68t75.5 -176zM655 100q129 0 224 66
q-258 248 -453 549q-121 -102 -121 -266q0 -161 101 -255t249 -94zM485 1130q0 -117 74 -249q146 74 203 144t57 161q0 73 -41.5 107t-101.5 34q-81 0 -136 -52t-55 -145z" />
    <glyph glyph-name="quotesingle" unicode="'" horiz-adv-x="462" 
d="M199 1092l-49 434q60 49 112 49q35 0 53.5 -20.5t18.5 -51.5q0 -36 -8 -88l-58 -323h-69z" />
    <glyph glyph-name="parenleft" unicode="(" horiz-adv-x="616" 
d="M133 643q0 155 35 305.5t93.5 270.5t119.5 210.5t127 159.5l61 -41q-252 -431 -252 -878q0 -469 240 -928l-57 -43q-64 68 -124.5 159.5t-117 211.5t-91 270t-34.5 303z" />
    <glyph glyph-name="parenright" unicode=")" horiz-adv-x="616" 
d="M477 645q0 -155 -35 -305.5t-93.5 -270.5t-119.5 -210.5t-127 -159.5l-61 41q252 431 252 878q0 469 -240 928l58 43q64 -67 124.5 -159t117 -212t90.5 -270t34 -303z" />
    <glyph glyph-name="asterisk" unicode="*" horiz-adv-x="999" 
d="M831 1305l-296 -88l210 -68q31 -10 47 -17t30 -23t14 -38q0 -54 -91 -96l-217 188l45 -276q-52 -41 -96 -41q-31 0 -47 16.5t-16 44.5q0 32 12 74l55 184l-225 -190q-92 40 -92 96q0 57 72 76l235 70l-303 86q-2 12 -2 40q0 40 15.5 68.5t49.5 28.5q38 0 95 -47l155 -125
l-51 293q52 41 96 41q31 0 46.5 -17.5t15.5 -44.5q0 -39 -8 -76l-50 -198l140 125q52 49 102 49q64 0 64 -92q0 -8 -5 -43z" />
    <glyph glyph-name="plus" unicode="+" 
d="M1079 565h-405v-428h-133v428h-391v119h391v401h133v-401h405v-119z" />
    <glyph glyph-name="comma" unicode="," horiz-adv-x="534" 
d="M188 -317l-43 47q102 97 135 153t33 103q0 65 -41 71l-63 -61q-40 14 -70 50t-30 89q0 62 41.5 99.5t101.5 37.5q87 0 131.5 -59t44.5 -150q0 -103 -55.5 -189.5t-184.5 -190.5z" />
    <glyph glyph-name="hyphen" unicode="-" horiz-adv-x="690" 
d="M102 512v162h486v-162h-486z" />
    <glyph glyph-name="period" unicode="." horiz-adv-x="555" 
d="M129 127q0 64 38.5 105.5t108.5 41.5q68 0 109 -36.5t41 -108.5q0 -68 -38.5 -108.5t-108.5 -40.5q-78 0 -114 42.5t-36 104.5z" />
    <glyph glyph-name="slash" unicode="/" horiz-adv-x="780" 
d="M27 -199l604 1827h123l-602 -1827h-125z" />
    <glyph glyph-name="zero" unicode="0" horiz-adv-x="1210" 
d="M68 537q0 121 30.5 220t82.5 166t123 112.5t149 66t163 20.5q82 0 156 -18t142.5 -61t118.5 -106.5t80 -161.5t30 -220q0 -121 -30.5 -219.5t-82.5 -164t-122 -110.5t-146.5 -64.5t-159.5 -19.5q-254 0 -394 147.5t-140 412.5zM293 549q0 -239 80.5 -358t232.5 -119
q161 0 236.5 118.5t75.5 366.5q0 467 -310 467q-150 0 -232.5 -116.5t-82.5 -358.5z" />
    <glyph glyph-name="one" unicode="1" horiz-adv-x="813" 
d="M332 975l-258 -19l-11 91l410 53h62v-1002l208 -16v-82h-647v80l236 18v877z" />
    <glyph glyph-name="two" unicode="2" horiz-adv-x="1103" 
d="M449 1022q-96 0 -153.5 -34.5t-57.5 -92.5q0 -29 14 -57h67q17 -56 17 -101q0 -48 -34.5 -76t-88.5 -28q-61 0 -96 41t-35 112q0 106 60 184t154.5 115t207.5 37q108 0 188 -28t124.5 -77t65.5 -107.5t21 -127.5q0 -80 -27.5 -153.5t-89.5 -150.5t-169.5 -155
t-260.5 -155v-8h291q75 0 123.5 12t79 41t46 67.5t28.5 102.5h71l-14 -383h-868v96q145 83 251.5 166.5t165.5 150t93.5 136t44.5 118t10 101.5q0 254 -229 254z" />
    <glyph glyph-name="three" unicode="3" horiz-adv-x="1013" 
d="M926 104q0 -90 -32 -164t-84 -123t-121.5 -82.5t-142.5 -48t-149 -14.5q-374 0 -374 250q0 66 38 108t99 42t93 -31t32 -88q0 -37 -11 -74h-67q-8 -16 -8 -35q0 -71 176 -71q167 0 248.5 90t81.5 252q0 66 -15.5 116t-47 84.5t-68.5 57.5t-91 45q-94 -23 -198 -33l-13 94
q178 16 273.5 88.5t95.5 225.5q0 115 -59.5 172t-169.5 57q-94 0 -144.5 -34.5t-31.5 -88.5h61q14 -47 14 -82q0 -46 -32 -74t-80 -28q-56 0 -89.5 35t-33.5 96q0 86 55 150t140.5 95t187.5 31q178 0 286.5 -80.5t108.5 -224.5q0 -125 -73.5 -205t-229.5 -139
q375 -50 375 -369z" />
    <glyph glyph-name="four" unicode="4" horiz-adv-x="1169" 
d="M854 92v-397h-201v397h-606v109l631 899h178v-899h158l12 139h84v-379h-84l-12 131h-160zM164 201h489v667h-10z" />
    <glyph glyph-name="five" unicode="5" horiz-adv-x="1042" 
d="M479 463q-78 0 -143 -28.5t-139 -82.5l-54 27l72 696l33 25h508q34 0 51.5 21t30.5 69l69 -10q-24 -170 -51.5 -216t-116.5 -46h-426l-59 -439q132 90 289 90q108 0 187.5 -31t125 -86.5t67 -123.5t21.5 -150q0 -242 -141.5 -374t-390.5 -132q-56 0 -106 6.5t-99.5 24
t-85.5 45t-58 72t-22 102.5q0 66 38 108t99 42t93 -31t32 -88q0 -40 -10 -74h-68q-23 -49 22 -80.5t154 -31.5q320 0 320 387q0 144 -59.5 226.5t-182.5 82.5z" />
    <glyph glyph-name="six" unicode="6" horiz-adv-x="1107" 
d="M330 551q-17 -72 -17 -143q0 -148 62 -240t190 -92q133 0 190.5 88t57.5 256q0 156 -56 230.5t-169 74.5q-82 0 -160 -50.5t-98 -123.5zM664 1280q-81 0 -143.5 -33t-111 -104t-75 -193t-29.5 -291q43 69 138.5 120.5t205.5 51.5q78 0 143 -21t118.5 -66t83.5 -125
t30 -189q0 -203 -124 -328t-341 -125q-226 0 -342.5 142t-116.5 461q0 383 151.5 588.5t401.5 205.5q147 0 230.5 -62.5t83.5 -166.5q0 -68 -34 -102.5t-85 -34.5t-83 27t-32 81q0 13 8 53l58 11q4 16 4 26q0 74 -139 74z" />
    <glyph glyph-name="seven" unicode="7" horiz-adv-x="956" 
d="M266 -109q0 115 88.5 282t430.5 719q5 8 8.5 14t7.5 12h-406q-51 0 -83 -2.5t-59 -12t-41.5 -21t-27.5 -38t-20 -55t-17 -78.5h-73l14 389h864v-66q-148 -275 -243 -473t-138.5 -322.5t-57 -194.5t-13.5 -138q0 -85 32 -150l-61 -63q-205 8 -205 198z" />
    <glyph glyph-name="eight" unicode="8" horiz-adv-x="1116" 
d="M473 702q-163 13 -252.5 96.5t-89.5 215.5q0 160 116 259t312 99q200 0 315 -89.5t115 -248.5q0 -136 -90.5 -225.5t-249.5 -106.5v-6q189 -13 287 -102t98 -242q0 -180 -126.5 -277.5t-348.5 -97.5q-226 0 -351.5 94t-125.5 271q0 154 104 247t287 107v6zM559 635
q-126 0 -194 -69.5t-68 -209.5q0 -136 68 -209t194 -73q260 0 260 284q0 277 -260 277zM334 1018q0 -128 60.5 -190t164.5 -62q223 0 223 256q0 126 -57 189t-166 63q-108 0 -166.5 -67t-58.5 -189z" />
    <glyph glyph-name="nine" unicode="9" horiz-adv-x="1118" 
d="M520 338q160 0 244 119q41 57 41 213q0 181 -61 269.5t-191 88.5q-250 0 -250 -356q0 -334 217 -334zM475 -328q-162 0 -243.5 71t-81.5 181q0 73 37 113.5t98 40.5q49 0 82.5 -27t33.5 -86q0 -37 -10 -71h-63q-15 -27 -15 -52q0 -75 160 -75q165 0 253.5 161.5
t88.5 474.5q-50 -79 -137 -122t-189 -43q-175 0 -286 107.5t-111 320.5q0 207 124.5 331.5t342.5 124.5q222 0 339.5 -168t117.5 -514q0 -201 -38 -349.5t-110 -239.5t-169.5 -135t-223.5 -44z" />
    <glyph glyph-name="colon" unicode=":" horiz-adv-x="555" 
d="M135 127q0 64 39 105.5t109 41.5q68 0 108.5 -36.5t40.5 -108.5q0 -68 -38.5 -108.5t-108.5 -40.5q-78 0 -114 42.5t-36 104.5zM135 805q0 64 39 105.5t109 41.5q68 0 108.5 -36.5t40.5 -108.5q0 -68 -38.5 -109t-108.5 -41q-78 0 -114 43t-36 105z" />
    <glyph glyph-name="semicolon" unicode=";" horiz-adv-x="534" 
d="M195 -317l-43 47q101 97 134 152.5t33 103.5q0 65 -40 71l-64 -61q-40 14 -70 50t-30 89q0 62 41.5 99.5t101.5 37.5q87 0 131.5 -59t44.5 -150q0 -103 -55 -189.5t-184 -190.5zM135 805q0 64 39 105.5t109 41.5q68 0 108.5 -36.5t40.5 -108.5q0 -68 -38.5 -109
t-108.5 -41q-78 0 -114 43t-36 105z" />
    <glyph glyph-name="less" unicode="&#x3c;" 
d="M1077 82l-925 397v158l925 391v-133l-794 -334l794 -338v-141z" />
    <glyph glyph-name="equal" unicode="=" 
d="M1079 678h-929v119h929v-119zM1079 338h-929v119h929v-119z" />
    <glyph glyph-name="greater" unicode="&#x3e;" 
d="M1077 479l-925 -397v141l794 338l-794 334v133l925 -391v-158z" />
    <glyph glyph-name="question" unicode="?" horiz-adv-x="1071" 
d="M512 1434q181 0 285 -90.5t104 -229.5q0 -151 -133 -276l-262 -248v-236h-92v377q0 35 22 57l174 177q57 57 76 98t19 92q0 91 -66.5 139.5t-167.5 48.5q-195 0 -195 -90q0 -17 5 -30h57q16 -43 16 -80q0 -53 -32.5 -84t-79.5 -31q-61 0 -92 37t-31 98q0 121 110.5 196
t282.5 75zM330 109q0 56 34 92.5t95 36.5q60 0 95.5 -32t35.5 -95q0 -60 -33.5 -95.5t-95.5 -35.5q-68 0 -99.5 37.5t-31.5 91.5z" />
    <glyph glyph-name="at" unicode="@" horiz-adv-x="1738" 
d="M881 809q118 0 204 -76l35 62h121l-65 -373q-25 -154 -25 -217q0 -74 28 -105.5t89 -31.5q100 0 176 112.5t76 304.5q0 288 -154.5 446.5t-464.5 158.5q-146 0 -269.5 -49.5t-213.5 -141.5t-140.5 -231.5t-50.5 -311.5q0 -140 38 -251.5t102.5 -184.5t153.5 -121.5
t185 -69t203 -20.5q272 0 459 158l51 -60q-91 -85 -230.5 -133.5t-281.5 -48.5q-129 0 -244 26.5t-214.5 84t-171.5 141t-113 204t-41 267.5q0 237 94 422.5t275 293t423 107.5q153 0 281.5 -44.5t222 -128t145.5 -211t52 -287.5q0 -126 -30.5 -226.5t-83 -162t-119.5 -93.5
t-142 -32q-104 0 -162.5 41.5t-74.5 109.5q-40 -64 -105 -105.5t-145 -41.5q-58 0 -104 17t-75 45.5t-48 69t-27 84.5t-8 95q0 129 34 230t91 160t124 88.5t140 29.5zM1012 299l55 352q-72 72 -172 72q-63 0 -110.5 -36t-75 -96t-41 -130.5t-13.5 -147.5q0 -225 146 -225
q74 0 136.5 64.5t74.5 146.5z" />
    <glyph glyph-name="A" unicode="A" horiz-adv-x="1390" 
d="M991 96l-117 346h-481l-125 -346l166 -16v-80h-428v80l144 16l512 1350h75l494 -1350l153 -16v-80h-565v80zM643 1108l-211 -555h410l-193 555h-6z" />
    <glyph glyph-name="B" unicode="B" horiz-adv-x="1282" 
d="M78 1434h469q133 0 232 -17t175 -55.5t115 -106t39 -163.5q0 -276 -309 -330v-4q178 -25 279.5 -116.5t101.5 -235.5q0 -96 -32 -167.5t-87 -116.5t-138.5 -73t-175.5 -38.5t-210 -10.5h-459v82l174 14v1243l-174 13v82zM467 690v-596h96q208 0 293.5 75t85.5 232
q0 150 -86.5 219.5t-280.5 69.5h-108zM467 1339v-551h53q197 0 282 75t85 216q0 136 -81.5 198t-273.5 62h-65z" />
    <glyph glyph-name="C" unicode="C" horiz-adv-x="1333" 
d="M758 1356q-434 0 -434 -635q0 -305 112.5 -474t329.5 -169q164 0 258 83t139 275h72l-14 -436h-68q-18 34 -29 41q-10 6 -24 6q-12 0 -63.5 -17.5t-130 -35t-156.5 -17.5q-152 0 -272 43t-208 131.5t-135 232t-47 335.5q0 178 51.5 319.5t142.5 232t212 138t264 47.5
q70 0 141.5 -15t120.5 -30.5t65 -15.5q21 0 31.5 9.5t22.5 33.5h63l15 -428h-72q-43 191 -134 268.5t-253 77.5z" />
    <glyph glyph-name="D" unicode="D" horiz-adv-x="1474" 
d="M1376 741q0 -169 -43 -298.5t-117.5 -212.5t-184.5 -135.5t-233 -73.5t-274 -21h-448v82l176 14v1243l-176 13v82h506q153 0 274.5 -23t220 -74.5t164 -131.5t100.5 -196.5t35 -267.5zM467 92h90q579 0 582 637q0 120 -16 212t-50.5 160t-84 113.5t-121 73t-155 39.5
t-192.5 12h-53v-1247z" />
    <glyph glyph-name="E" unicode="E" horiz-adv-x="1267" 
d="M90 1434h1008l16 -385h-76q-16 77 -37 127t-48.5 84t-72 51.5t-97.5 24.5t-134 7h-182v-563h106q121 0 169.5 52t72.5 192h64v-606h-68q-13 86 -27.5 132.5t-44 77.5t-71.5 40.5t-115 9.5h-86v-584h180q119 0 195.5 17t128 61.5t78.5 111t45 175.5h75l-16 -459h-1063v80
l162 16v1241l-162 17v80z" />
    <glyph glyph-name="F" unicode="F" horiz-adv-x="1193" 
d="M90 1434h1008l18 -394h-76q-16 77 -37 128t-49.5 86.5t-72 54t-98 26.5t-134.5 8h-182v-577h106q121 0 169.5 52t72.5 192h64v-607h-68q-13 86 -27.5 132.5t-44 78t-71.5 41t-115 9.5h-86v-568l264 -16v-80h-641v80l162 14v1243l-162 17v80z" />
    <glyph glyph-name="G" unicode="G" horiz-adv-x="1447" 
d="M758 1356q-434 0 -434 -641q0 -306 112 -471.5t330 -165.5q80 0 154 40t110 105v283l-188 16v80h538v-80l-135 -14v-514h-65q-9 18 -15.5 27.5t-22 18.5t-36.5 9q-25 0 -78 -18t-127 -36t-151 -18q-152 0 -272 43t-208 130.5t-135 229t-47 329.5q0 181 53 325t146 235
t214.5 139t262.5 48q72 0 139 -15t114 -29.5t70 -14.5q21 0 31.5 9t22.5 32h61l15 -428h-74q-47 185 -133 265.5t-252 80.5z" />
    <glyph glyph-name="H" unicode="H" horiz-adv-x="1570" 
d="M467 1339v-551h637v549l-162 15v82h539v-80l-162 -15v-1243l162 -16v-80h-539v80l162 16v582h-637v-582l162 -16v-80h-539v80l162 16v1241l-162 15v82h539v-80z" />
    <glyph glyph-name="I" unicode="I" horiz-adv-x="718" 
d="M252 94v1243l-162 15v82h539v-80l-162 -15v-1243l162 -14v-82h-539v80z" />
    <glyph glyph-name="J" unicode="J" horiz-adv-x="946" 
d="M336 1434h563v-80l-154 -13v-892q0 -222 -98 -347t-289 -125q-147 0 -224 65.5t-77 174.5q0 81 42 123.5t100 42.5q55 0 87.5 -29t32.5 -88q0 -38 -14 -84h-69q-5 -20 -5 -26q0 -36 34 -57t100 -21q94 0 129.5 54.5t35.5 176.5v1030l-194 15v80z" />
    <glyph glyph-name="K" unicode="K" horiz-adv-x="1370" 
d="M98 1434h523v-80l-154 -15v-573l82 20l455 553l-154 15v80h430v-80l-139 -15l-426 -514l516 -731l123 -14v-80h-529v80l146 14l-412 586l-92 -25v-559l154 -14v-82h-523v82l154 14v1243l-154 15v80z" />
    <glyph glyph-name="L" unicode="L" horiz-adv-x="1212" 
d="M90 1434h594v-80l-217 -19v-1241h127q82 0 139.5 5.5t108 20.5t83.5 40t60.5 66.5t44.5 97.5t29 135h74l-19 -459h-1024v80l162 16v1239l-162 17v82z" />
    <glyph glyph-name="M" unicode="M" horiz-adv-x="1843" 
d="M1294 1434h451v-80l-154 -13v-1245l154 -14v-82h-516v82l153 14v1241h-8l-438 -1337h-102l-461 1335h-8v-1239l141 -14v-82h-387v82l133 14v1245l-133 13v80h446l365 -1090h8z" />
    <glyph glyph-name="N" unicode="N" horiz-adv-x="1478" 
d="M1268 1337v-1351h-103l-792 1337h-8v-1229l153 -12v-82h-399v82l133 12v1243l-133 15v82h430l598 -1028h8v931l-133 15v82h379v-82z" />
    <glyph glyph-name="O" unicode="O" horiz-adv-x="1472" 
d="M1145 723q0 113 -9.5 202t-36.5 172.5t-70.5 138t-115.5 87.5t-168 33q-102 0 -177.5 -33t-121.5 -88t-73.5 -140t-37 -174.5t-9.5 -205.5q0 -88 7 -162.5t24 -149t48 -131t75.5 -101t110 -68t148.5 -23.5q96 0 168.5 33t117 89t72 140t38 175t10.5 206zM88 713
q0 336 184.5 539.5t479.5 203.5q292 0 462 -192.5t170 -532.5q0 -353 -169 -553.5t-480 -200.5q-312 0 -479.5 191t-167.5 545z" />
    <glyph glyph-name="P" unicode="P" horiz-adv-x="1271" 
d="M78 1434h520q107 0 193 -11.5t163 -40t128.5 -73t81.5 -114.5t30 -161q0 -105 -34 -184t-91 -128t-142 -80t-176.5 -42.5t-205.5 -11.5h-78v-492l256 -14v-82h-645v82l174 14v1243l-174 15v80zM467 1339v-657h104q201 0 293 84t92 258q0 172 -87.5 243.5t-284.5 71.5
h-117z" />
    <glyph glyph-name="Q" unicode="Q" horiz-adv-x="1472" 
d="M88 713q0 336 184.5 539.5t479.5 203.5q292 0 462 -192.5t170 -532.5q0 -322 -141 -514t-407 -221v-12q74 -14 110 -54.5t62 -117.5q31 -92 53.5 -125t68.5 -33q40 0 59 29t28 102l79 -4q-7 -110 -57.5 -172t-169.5 -62q-63 0 -108 17t-74 54t-46.5 77t-33.5 102
q-17 64 -38 85.5t-52 21.5q-41 0 -133 -76l-52 61q74 70 138 91v8q-288 22 -435 204.5t-147 520.5zM1145 723q0 116 -9.5 205t-36.5 172.5t-70.5 137.5t-115 86t-168.5 32q-102 0 -177.5 -33t-121.5 -87.5t-73.5 -139.5t-37 -174.5t-9.5 -206.5q0 -90 7 -165t24 -149.5
t48 -130.5t75.5 -100t110 -67t148.5 -23q97 0 169 32.5t116.5 88t72 139.5t38 175.5t10.5 207.5z" />
    <glyph glyph-name="R" unicode="R" horiz-adv-x="1359" 
d="M616 688h-149v-590l215 -16v-82h-604v82l174 16v1239l-174 17v80h485q85 0 151.5 -5t134.5 -18t117 -37.5t88 -61t59 -91.5t20 -127q0 -89 -28.5 -154t-84.5 -104.5t-127.5 -60t-167.5 -27.5v-7q199 -22 278.5 -98.5t79.5 -253.5v-182q0 -60 14 -85.5t64 -25.5
q49 0 68.5 40t36.5 145l84 -15q-16 -119 -38 -168q-55 -118 -218 -118q-129 0 -180.5 59t-51.5 188v262q0 105 -53.5 152t-192.5 47zM467 1337v-555h43q201 0 293 75t92 230q0 139 -87 194.5t-286 55.5h-55z" />
    <glyph glyph-name="S" unicode="S" horiz-adv-x="1169" 
d="M586 76q161 0 249.5 72.5t88.5 201.5q0 57 -19.5 99.5t-41 68.5t-85.5 52t-103 37.5t-144 38.5q-1 0 -1.5 0.5t-1.5 0.5q-80 20 -133.5 39t-105.5 50t-82 70t-48 97t-18 135q0 80 26.5 153t78 133t137 96t192.5 36q70 0 130.5 -15t100.5 -30.5t58 -15.5q21 0 31.5 9.5
t22.5 33.5h61l14 -418h-75q-46 187 -128.5 263.5t-218.5 76.5q-126 0 -202 -61t-76 -162q0 -48 16.5 -86t42.5 -64.5t70 -49t86 -36.5t104 -31q50 -13 75.5 -20t71.5 -22t71.5 -27t63 -33t59 -41.5t47 -51t38.5 -64.5t22 -78t9 -95q0 -204 -125 -332.5t-352 -128.5
q-83 0 -152 15t-113 30t-67 15q-6 0 -10.5 -1.5t-8.5 -3t-7.5 -6t-5.5 -7t-5.5 -9.5t-5 -10.5t-5 -13t-5.5 -13.5h-64l-20 473h78q20 -76 39 -127.5t49.5 -101t69 -78t95.5 -46t132 -17.5z" />
    <glyph glyph-name="T" unicode="T" horiz-adv-x="1302" 
d="M1225 1434l20 -412h-80q-12 64 -26 110t-29.5 81t-39 57t-48 36.5t-63.5 21t-76.5 9t-96.5 2.5h-26v-1243l194 -14v-82h-604v82l195 14v1243h-29q-59 0 -96.5 -2.5t-76.5 -9t-63.5 -21t-48 -36.5t-39 -57t-29.5 -81t-26 -110h-80l21 412h1147z" />
    <glyph glyph-name="U" unicode="U" horiz-adv-x="1472" 
d="M784 84q179 0 260.5 90.5t81.5 282.5v880l-153 15v82h416v-82l-148 -15v-874q0 -118 -25.5 -204.5t-82.5 -151.5t-154 -97.5t-234 -32.5q-124 0 -215.5 24t-160 77.5t-103.5 145t-35 220.5v895l-153 13v82h522v-82l-154 -13v-872q0 -87 15.5 -153t52.5 -120t105 -82
t165 -28z" />
    <glyph glyph-name="V" unicode="V" horiz-adv-x="1361" 
d="M745 303l369 1032l-182 17v82h424v-82l-131 -17l-494 -1355h-82l-506 1355l-137 17v82h574v-82l-201 -17l360 -1032h6z" />
    <glyph glyph-name="W" unicode="W" horiz-adv-x="2068" 
d="M713 311l293 746l-107 278l-137 19v80h565v-80l-201 -19l369 -997h8l322 997l-187 19v80h424v-80l-123 -19l-442 -1355h-80l-356 940l-373 -940h-80l-465 1355l-137 19v80h574v-80l-201 -19l326 -1024h8z" />
    <glyph glyph-name="X" unicode="X" horiz-adv-x="1349" 
d="M1323 0h-582v82l197 14l-324 522l-301 -522l166 -14v-82h-424v82l138 14l356 623l-385 616l-137 15v84h581v-84l-200 -15l303 -506l288 506l-155 15v84h420v-84l-136 -15l-358 -594l414 -645l139 -14v-82z" />
    <glyph glyph-name="Y" unicode="Y" horiz-adv-x="1259" 
d="M696 774l305 561l-172 15v84h424v-84l-135 -15l-379 -671v-568l174 -14v-82h-563v82l174 14v568l-381 671l-137 15v84h574v-84l-195 -15l303 -561h8z" />
    <glyph glyph-name="Z" unicode="Z" horiz-adv-x="1269" 
d="M1120 1434v-101l-758 -1235h338q98 0 166.5 21.5t113.5 69t71 111t45 159.5h75l-24 -459h-1038v90l763 1243h-274q-56 0 -92.5 -2t-77 -9t-66.5 -20t-53.5 -35.5t-45.5 -55.5t-34.5 -80t-29.5 -109h-74l20 412h975z" />
    <glyph glyph-name="bracketleft" unicode="[" horiz-adv-x="620" 
d="M573 -225v-92h-385v1927h385v-92h-112q-75 0 -97 -18.5t-22 -88.5v-1528q0 -27 1.5 -44t7 -30t12 -19t22 -10t30.5 -4.5t44 -0.5h114z" />
    <glyph glyph-name="backslash" unicode="\" horiz-adv-x="782" 
d="M152 1628l604 -1827h-127l-602 1827h125z" />
    <glyph glyph-name="bracketright" unicode="]" horiz-adv-x="620" 
d="M41 -317v92h115q78 0 97 16t19 92v1528q0 70 -21.5 88.5t-96.5 18.5h-113v92h385v-1927h-385z" />
    <glyph glyph-name="asciicircum" unicode="^" horiz-adv-x="1146" 
d="M1024 614l-104 -45l-361 650l-334 -652l-102 47l387 746h100z" />
    <glyph glyph-name="underscore" unicode="_" horiz-adv-x="1036" 
d="M1030 -217h-1024v76h1024v-76z" />
    <glyph glyph-name="grave" unicode="`" horiz-adv-x="1024" 
d="M526 1548l136 -385l-48 -24l-223 272q-39 45 -39 82q0 43 32.5 62.5t72.5 9.5z" />
    <glyph glyph-name="a" unicode="a" horiz-adv-x="1042" 
d="M524 537h142v139q0 142 -44.5 210t-160.5 68q-172 0 -172 -86q0 -6 4 -26h67q13 -54 13 -74q0 -51 -32.5 -80t-84.5 -29q-56 0 -87.5 33t-31.5 94q0 112 101 183t254 71q195 0 281.5 -87.5t86.5 -299.5v-467q0 -66 13.5 -90t50.5 -24q30 0 67 12l19 -70q-66 -34 -150 -34
q-82 0 -127 34t-57 111q-47 -70 -126.5 -109t-174.5 -39q-129 0 -208 63.5t-79 199.5q0 297 436 297zM449 90q84 0 150.5 51.5t66.5 139.5v170h-115q-133 0 -190.5 -51.5t-57.5 -147.5q0 -80 33.5 -121t112.5 -41z" />
    <glyph glyph-name="b" unicode="b" horiz-adv-x="1200" 
d="M651 913q-137 0 -211 -100q-53 -63 -53 -170v-303q0 -111 76 -185.5t184 -74.5q136 0 189 102.5t53 319.5q0 210 -51.5 310.5t-186.5 100.5zM387 1536v-668q44 74 128.5 123t201.5 49q190 0 289.5 -132t99.5 -390q0 -262 -121.5 -401.5t-331.5 -139.5q-200 0 -323 113
l-80 -110h-57v1452l-134 14v78z" />
    <glyph glyph-name="c" unicode="c" horiz-adv-x="1003" 
d="M590 944q-145 0 -219 -109t-74 -315q0 -207 67.5 -314.5t221.5 -107.5q180 0 256 183l90 -31q-10 -32 -26.5 -64.5t-48.5 -71.5t-72.5 -68t-103 -49t-136.5 -20q-222 0 -341.5 134t-119.5 368q0 270 137 415.5t363 145.5q154 0 252 -76.5t98 -199.5q0 -85 -42 -126.5
t-106 -41.5q-56 0 -93.5 32.5t-37.5 86.5q0 49 21 90h69q7 28 7 45q0 94 -162 94z" />
    <glyph glyph-name="d" unicode="d" horiz-adv-x="1191" 
d="M1001 1536v-1440l144 -14v-82h-320l-16 154q-111 -177 -326 -177q-196 0 -297.5 137t-101.5 375q0 259 117.5 405t320.5 146q181 0 285 -112v502l-164 16v78zM543 102q108 0 186 75.5t78 184.5v340q0 100 -64 164q-73 70 -180 70q-75 0 -127.5 -29.5t-82 -87.5t-42 -133
t-12.5 -176q0 -67 5.5 -121t21 -109.5t42 -93t71 -61t104.5 -23.5z" />
    <glyph glyph-name="e" unicode="e" horiz-adv-x="1030" 
d="M84 496q0 253 133 398.5t340 145.5q189 0 292 -111t103 -333q0 -28 -4 -86h-651q0 -199 66.5 -304.5t218.5 -105.5q103 0 165 42.5t101 133.5l90 -30q-41 -125 -141.5 -197t-253.5 -72q-227 0 -343 139.5t-116 379.5zM297 618h457v46q0 282 -203 282q-114 0 -179 -92.5
t-75 -235.5z" />
    <glyph glyph-name="f" unicode="f" horiz-adv-x="702" 
d="M678 1018v-100h-270v-822l245 -14v-82h-596v82l156 14v822h-162v100h162v96q0 216 100.5 342.5t294.5 126.5q115 0 183.5 -53.5t68.5 -143.5q0 -64 -33 -101.5t-92 -37.5q-61 0 -90.5 34.5t-26.5 94.5l60 21q6 21 6 39q0 65 -92 65q-47 0 -81.5 -16t-54 -41t-31 -64
t-14.5 -75t-3 -84v-203h270z" />
    <glyph glyph-name="g" unicode="g" horiz-adv-x="1028" 
d="M717 983q38 43 88 72.5t100 29.5q36 0 64 -14v-115l-193 -28q105 -105 105 -250q0 -170 -109 -269.5t-274 -99.5q-50 0 -117 13q-52 -47 -74 -73.5t-22 -47.5q0 -27 18.5 -35t65.5 -8h192q78 0 134.5 -5.5t111.5 -22t89.5 -45.5t55.5 -77.5t21 -116.5q0 -79 -26.5 -137
t-86 -101t-160.5 -64t-245 -21q-114 0 -195.5 15.5t-129.5 45.5t-69.5 69t-21.5 91q0 78 38 125.5t103 85.5q-71 33 -71 113q0 19 4 36.5t15.5 36t19.5 30.5t30.5 33t32 30t40 34.5t40.5 34.5q-95 33 -146 115.5t-51 191.5q0 77 25.5 146t74.5 122.5t127.5 85t176.5 31.5
q136 0 219 -57zM530 -33h-280q-51 -69 -51 -139q0 -39 12 -65.5t43.5 -48t93.5 -32t156 -10.5q159 0 239 39t80 133q0 33 -13 55.5t-34.5 36t-61 20.5t-80 9t-104.5 2zM293 678q0 -146 53 -209t150 -63q190 0 190 276q0 144 -50 206t-142 62q-88 0 -144.5 -65.5
t-56.5 -206.5z" />
    <glyph glyph-name="h" unicode="h" horiz-adv-x="1243" 
d="M57 1524l338 12v-569l-8 -129h8q46 87 134.5 144.5t211.5 57.5q162 0 237 -84t75 -264v-596l135 -14v-82h-465v82l135 14v594q0 111 -38.5 162t-149.5 51q-116 0 -194.5 -73.5t-78.5 -206.5v-527l140 -14v-82h-480v82l146 14v1334l-146 14v80z" />
    <glyph glyph-name="i" unicode="i" horiz-adv-x="622" 
d="M166 1366q0 57 32 92t95 35q129 0 129 -125q0 -60 -33 -92.5t-94 -32.5q-68 0 -98.5 33.5t-30.5 89.5zM66 1014l348 12v-930l155 -14v-82h-503v82l153 14v824l-153 14v80z" />
    <glyph glyph-name="j" unicode="j" horiz-adv-x="563" 
d="M59 -344q30 0 53 9t38.5 22t26 40t16 50.5t8.5 68t3.5 77t0.5 91.5v906l-154 14v80l348 12v-917q0 -71 -7 -136t-30.5 -142t-61.5 -132.5t-105.5 -93t-157.5 -37.5q-103 0 -171.5 48.5t-68.5 139.5q0 59 34.5 98.5t96.5 39.5q46 0 78.5 -29t38.5 -82l-70 -41
q-4 -86 84 -86zM141 1366q0 57 32 92t95 35q129 0 129 -125q0 -60 -33 -92.5t-94 -32.5q-68 0 -98.5 33.5t-30.5 89.5z" />
    <glyph glyph-name="k" unicode="k" horiz-adv-x="1161" 
d="M66 1524l331 12v-1440l133 -14v-82h-464v82l137 14v1334l-137 14v80zM608 612l416 -518l111 -12v-82h-451v80l102 8v10l-366 455v20l366 347v12l-127 8v78h420v-82l-145 -14z" />
    <glyph glyph-name="l" unicode="l" horiz-adv-x="600" 
d="M57 1524l340 12v-1440l156 -14v-82h-496v82l146 14v1334l-146 14v80z" />
    <glyph glyph-name="m" unicode="m" horiz-adv-x="1837" 
d="M70 1014l295 12l10 -192h8q117 206 348 206q118 0 186 -50t91 -154q119 204 338 204q161 0 231 -83t70 -265v-596l135 -14v-82h-465v82l135 14v594q0 56 -6 91t-23.5 65t-54 43.5t-94.5 13.5q-105 0 -178.5 -72.5t-73.5 -209.5v-525l135 -14v-82h-465v82l135 14v594
q0 56 -6 91t-23.5 65t-54 43.5t-94.5 13.5q-104 0 -178 -71t-74 -193v-543l140 -14v-82h-467v82l133 14v824l-133 14v80z" />
    <glyph glyph-name="n" unicode="n" horiz-adv-x="1251" 
d="M78 1014l293 14l14 -194h6q50 87 140.5 146.5t218.5 59.5q162 0 236.5 -83.5t74.5 -264.5v-596l135 -14v-82h-465v82l135 14v594q0 111 -38.5 162t-149.5 51q-114 0 -193 -70t-79 -190v-547l139 -14v-82h-467v82l133 14v824l-133 14v80z" />
    <glyph glyph-name="o" unicode="o" horiz-adv-x="1107" 
d="M811 504q0 72 -6 131.5t-23.5 118.5t-46 99t-75.5 64.5t-109 24.5q-75 0 -127 -33.5t-78.5 -96t-37.5 -133t-11 -161.5q0 -74 6.5 -134.5t24 -119.5t46 -99t75 -64.5t108.5 -24.5q74 0 125.5 34t78.5 96t38.5 134t11.5 164zM84 504q0 241 129.5 388.5t347.5 147.5
q153 0 258.5 -68t155 -185t49.5 -275q0 -242 -127 -388.5t-348 -146.5q-224 0 -344.5 143.5t-120.5 383.5z" />
    <glyph glyph-name="p" unicode="p" horiz-adv-x="1208" 
d="M68 1014l292 12l9 -180h10q47 85 137.5 139.5t208.5 54.5q190 0 289.5 -132t99.5 -390q0 -259 -119.5 -400t-312.5 -141q-184 0 -287 86v-372l250 -19v-82h-577v82l133 15v1233l-133 14v80zM659 913q-129 0 -210 -100q-54 -68 -54 -170v-311q0 -114 69.5 -183t186.5 -69
q132 0 189 104.5t57 317.5q0 210 -51.5 310.5t-186.5 100.5z" />
    <glyph glyph-name="q" unicode="q" horiz-adv-x="1187" 
d="M633 -328l176 15v456q-104 -166 -322 -166q-197 0 -300 137t-103 375q0 261 120.5 406t336.5 145q92 0 174 -35t127 -87l96 100h63v-1331l156 -15v-82h-524v82zM549 102q109 0 183.5 75t74.5 185v340q0 100 -64 164q-73 70 -182 70q-145 0 -203.5 -108.5t-58.5 -317.5
q0 -71 5.5 -126t21.5 -110t43 -91t72.5 -58.5t107.5 -22.5z" />
    <glyph glyph-name="r" unicode="r" horiz-adv-x="921" 
d="M397 96l221 -14v-82h-548v82l133 14v824l-133 14v80l295 12l14 -178h8q50 90 119.5 141t175.5 51q89 0 149 -50.5t60 -139.5q0 -81 -38 -120.5t-105 -39.5q-62 0 -97.5 37t-34.5 102l66 27q4 16 4 25q0 49 -68 49q-80 0 -150.5 -84.5t-70.5 -175.5v-574z" />
    <glyph glyph-name="s" unicode="s" horiz-adv-x="915" 
d="M100 -23v367h80q6 -88 53 -150t112.5 -89t141.5 -27q98 0 151.5 45.5t53.5 132.5q0 34 -8.5 60.5t-28.5 45t-39 31t-53.5 23t-57 15.5t-65.5 13q-135 27 -189 55q-128 69 -130 230q0 132 96.5 221.5t237.5 89.5q117 0 196 -47q21 -12 37 -12q32 0 35 59h68v-319h-80
q-58 225 -258 225q-80 0 -133.5 -42.5t-53.5 -108.5q0 -28 8 -50.5t28 -39t37 -27t53 -20.5t56.5 -15t65.5 -14q41 -8 67.5 -14.5t64.5 -19t62.5 -27t52 -38t43 -52.5t26 -70t10.5 -91q0 -148 -89.5 -244t-254.5 -96q-143 0 -269 76q-16 8 -24 8q-13 0 -21 -17.5t-12 -66.5
h-70z" />
    <glyph glyph-name="t" unicode="t" horiz-adv-x="776" 
d="M203 219v699h-154v100h154v264l147 41h47v-305h226v-100h-226v-666q0 -86 24 -122t83 -36t96 35.5t62 126.5l77 -20q-32 -134 -100.5 -196.5t-196.5 -62.5q-114 0 -176.5 59t-62.5 183z" />
    <glyph glyph-name="u" unicode="u" horiz-adv-x="1234" 
d="M387 1026v-702q0 -109 39 -159t147 -50q115 0 191 71.5t76 204.5v529l-140 14v80l334 12v-930l133 -14v-82h-297l-10 174h-8q-48 -85 -135 -141t-209 -56q-163 0 -239 84.5t-76 264.5v594l-136 14v80z" />
    <glyph glyph-name="v" unicode="v" horiz-adv-x="1032" 
d="M6 936v82h451v-82l-142 -8l238 -729h8l238 729l-142 8v82h365v-82l-102 -8l-328 -928h-160l-334 928z" />
    <glyph glyph-name="w" unicode="w" horiz-adv-x="1585" 
d="M6 936v82h449v-82l-142 -8l228 -731h8l207 561l-58 172l-82 6v82h385v-82l-106 -8l258 -731h8l195 731l-142 8v82h365v-82l-102 -8l-277 -928h-160l-223 600h-10l-229 -600h-160l-320 928z" />
    <glyph glyph-name="x" unicode="x" horiz-adv-x="1095" 
d="M1079 82v-82h-510v82l150 14v13l-221 309l-226 -309v-13l131 -14v-82h-374v82l102 14l301 406l-305 422l-111 12v82h478v-82l-140 -12v-13l201 -284l227 284v13l-108 12v82h356v-82l-102 -12l-307 -373l331 -455z" />
    <glyph glyph-name="y" unicode="y" horiz-adv-x="1032" 
d="M10 936v82h453v-82l-141 -8l237 -699h8l236 699l-141 8v82h364v-82l-102 -8l-392 -1086q-21 -59 -38 -97t-41 -75t-51.5 -57t-67 -32.5t-90.5 -12.5q-100 0 -168 50.5t-68 143.5q0 60 36 102t99 42q52 0 84 -34t33 -101l-78 -43q-6 -37 16 -53.5t66 -16.5q61 0 91.5 48
t88.5 216l19 58l-361 948z" />
    <glyph glyph-name="z" unicode="z" horiz-adv-x="1021" 
d="M911 1018v-90l-587 -838h247q66 0 110.5 15t76.5 53.5t52.5 86.5t45.5 132h74l-21 -377h-815v84l588 844h-229q-65 0 -99.5 -6t-68.5 -33t-58 -76.5t-55 -140.5h-74l21 346h792z" />
    <glyph glyph-name="braceleft" unicode="{" horiz-adv-x="686" 
d="M109 700q38 1 68 9t60.5 28.5t47 64t16.5 107.5q0 80 -29.5 228.5t-29.5 212.5q0 115 60 179t179 64q63 0 135 -26l-20 -82q-50 16 -88 16q-46 0 -73 -27.5t-27 -107.5q0 -40 27.5 -202t27.5 -236q0 -41 -7 -76t-18 -59.5t-30 -45t-35.5 -33.5t-42.5 -24.5t-44 -18
t-46 -14.5q40 -13 66 -23.5t59 -32.5t52 -48.5t32.5 -70t13.5 -99.5q0 -73 -27.5 -253.5t-27.5 -215.5q0 -81 31.5 -111t86.5 -30q50 0 88 18l25 -84q-65 -29 -141 -29q-125 0 -190.5 66t-65.5 182q0 60 29.5 228.5t29.5 244.5q0 205 -192 209v92z" />
    <glyph glyph-name="bar" unicode="|" horiz-adv-x="665" 
d="M272 -260v1888h121v-1888h-121z" />
    <glyph glyph-name="braceright" unicode="}" horiz-adv-x="686" 
d="M571 700v-92q-192 -4 -192 -209q0 -76 29.5 -244.5t29.5 -228.5q0 -116 -65.5 -182t-190.5 -66q-76 0 -141 29l25 84q38 -18 88 -18q55 0 86.5 30t31.5 111q0 35 -27.5 215.5t-27.5 253.5q0 56 13.5 99.5t32.5 70t52 48.5t59 32.5t66 23.5q-28 8 -46 14.5t-44 18
t-42.5 24.5t-35.5 33.5t-30 45t-18 59.5t-7 76q0 74 27.5 236t27.5 202q0 80 -27 107.5t-73 27.5q-38 0 -88 -16l-21 82q72 26 136 26q119 0 179 -64t60 -179q0 -64 -29.5 -212.5t-29.5 -228.5q0 -64 16.5 -107.5t47 -64t60.5 -28.5t68 -9z" />
    <glyph glyph-name="asciitilde" unicode="~" horiz-adv-x="1021" 
d="M739 608q-102 0 -278 45q-136 35 -209 35q-34 0 -60.5 -19.5t-56.5 -74.5l-53 20q28 88 82 144.5t137 56.5q82 0 238 -39q148 -37 231 -37q42 0 63 18t48 72l59 -18q-71 -203 -201 -203z" />
    <glyph glyph-name="uni00A0" unicode="&#xa0;" horiz-adv-x="409" 
 />
    <glyph glyph-name="exclamdown" unicode="&#xa1;" horiz-adv-x="784" 
d="M350 436v174h96v-172q0 -178 19.5 -336t39 -266t19.5 -164q0 -61 -28.5 -96t-85.5 -35q-59 0 -92 35.5t-33 97.5q0 47 16.5 155.5t32.5 270t16 336.5zM268 866q0 54 31.5 91.5t99.5 37.5q62 0 95.5 -35.5t33.5 -95.5q0 -63 -35.5 -95t-95.5 -32q-61 0 -95 36.5t-34 92.5z
" />
    <glyph glyph-name="cent" unicode="&#xa2;" horiz-adv-x="985" 
d="M307 -121l53 238q-128 42 -195 150.5t-67 267.5q0 223 127.5 350t339.5 127l49 209l82 -17l-47 -200q114 -22 182 -91.5t68 -164.5q0 -72 -36.5 -110t-94.5 -38q-50 0 -81.5 26.5t-31.5 69.5t17 78h63q6 18 6 37q0 40 -28.5 66.5t-81.5 37.5l-160 -696q38 -14 96 -14
q100 0 159.5 51.5t92.5 146.5l80 -20q-15 -54 -39.5 -100t-66.5 -92t-109.5 -72.5t-153.5 -26.5q-45 0 -88 6l-53 -237zM309 559q0 -212 86 -295l150 656q-121 -9 -178.5 -105t-57.5 -256z" />
    <glyph glyph-name="sterling" unicode="&#xa3;" horiz-adv-x="1132" 
d="M74 610v99h172q-41 125 -41 243q0 194 127 307t336 113q177 0 266.5 -70.5t89.5 -195.5q0 -78 -37 -117t-98 -39q-57 0 -93 31t-36 88q0 33 8 66h84q6 21 6 41q0 100 -164 100q-142 0 -198 -76t-56 -231v-260h422v-99h-422v-123q0 -166 -65 -264q85 49 157 49
q56 0 114 -21.5t97 -47t81 -47t71 -21.5q48 0 71.5 40t30.5 142l74 -4q-15 -336 -221 -336q-37 0 -74.5 8.5t-61.5 17.5t-79 32l-297 127q-58 -180 -166 -180q-40 0 -63 23.5t-23 55.5q0 56 55.5 104t141.5 54q41 84 41 184q0 84 -43 207h-207z" />
    <glyph glyph-name="currency" unicode="&#xa4;" horiz-adv-x="1085" 
d="M203 573q0 108 51 185l-160 182l64 64l184 -154q83 57 199 57q117 0 186 -51l193 139l51 -55l-156 -176q49 -73 49 -184t-57 -199l160 -195l-58 -55l-192 158q-73 -51 -182 -51q-121 0 -191 49l-188 -154l-56 55l154 185q-51 75 -51 200zM334 573q0 -51 9 -90.5t30.5 -73
t63 -51.5t100.5 -18q99 0 148.5 65.5t49.5 167.5q0 108 -48.5 172t-154.5 64q-103 0 -150.5 -66t-47.5 -170z" />
    <glyph glyph-name="yen" unicode="&#xa5;" horiz-adv-x="1218" 
d="M162 582v92h246l-203 330l-137 14v82h522v-82l-144 -14l211 -359h9l233 359l-131 14v82h383v-82l-135 -14l-217 -330h241v-92h-301l-30 -47v-138h331v-92h-331v-209l174 -14v-82h-564v82l175 14v209h-332v92h332v138l-29 47h-303z" />
    <glyph glyph-name="brokenbar" unicode="&#xa6;" horiz-adv-x="665" 
d="M272 844v784h121v-784h-121zM272 -260v895h121v-895h-121z" />
    <glyph glyph-name="section" unicode="&#xa7;" horiz-adv-x="1220" 
d="M676 1368q-147 0 -219 -63t-72 -168q0 -48 23 -83.5t62 -57.5t89.5 -39t106 -32t111 -32.5t106 -43.5t89.5 -61.5t62 -91t23 -127.5q0 -87 -43.5 -160.5t-122.5 -123.5q86 -86 86 -224q0 -92 -36 -167t-97 -122t-139 -72.5t-164 -25.5q-67 0 -127.5 12t-114.5 38
t-85.5 74t-31.5 112q0 57 34.5 97t94.5 40q56 0 89.5 -30t33.5 -85q0 -27 -4 -43l-68 -16q-4 -24 -4 -33q0 -43 41.5 -60.5t141.5 -17.5q137 0 205.5 62t68.5 170q0 56 -29 96.5t-76 63t-107.5 43t-123.5 35t-123.5 40t-107.5 57.5t-76 88.5t-29 131.5q0 91 47.5 165.5
t128.5 123.5q-96 86 -96 231q0 170 132 278.5t317 108.5q63 0 120.5 -12t110 -37.5t84 -73.5t31.5 -112q0 -58 -33.5 -98t-93.5 -40q-57 0 -91 30.5t-34 84.5q0 27 4 43l68 16q4 24 4 33q0 43 -38 60.5t-128 17.5zM293 625q0 -51 33.5 -86.5t92.5 -58t122 -39.5t141 -42.5
t131 -56.5q94 58 94 168q0 56 -32.5 94.5t-91 61t-120.5 38t-140 38t-130 49.5q-100 -63 -100 -166z" />
    <glyph glyph-name="dieresis" unicode="&#xa8;" horiz-adv-x="1024" 
d="M201 1346q0 45 29 76.5t81 31.5q50 0 81.5 -27t31.5 -81q0 -51 -29 -82t-82 -31q-58 0 -85 33t-27 80zM600 1346q0 45 29.5 76.5t81.5 31.5q50 0 81 -27t31 -81q0 -51 -28.5 -82t-81.5 -31q-59 0 -86 32.5t-27 80.5z" />
    <glyph glyph-name="copyright" unicode="&#xa9;" horiz-adv-x="1599" 
d="M1477 655q0 -200 -85.5 -354.5t-239.5 -239t-353 -84.5q-164 0 -294 49.5t-213 138t-126 206t-43 256.5q0 155 53 283.5t145.5 214t216.5 132t265 46.5q312 0 493 -176t181 -472zM1376 643q0 274 -158.5 429t-414.5 155q-252 0 -414 -162.5t-162 -435.5
q0 -264 154.5 -420t421.5 -156q264 0 418.5 160.5t154.5 429.5zM827 985q-231 0 -231 -334q0 -160 59 -249t176 -89q80 0 127 45t72 148h47l-8 -244h-41q-1 3 -4 8.5t-5 8.5t-5 7t-6.5 5.5t-8.5 1.5q-7 0 -32.5 -10.5t-66.5 -21.5t-87 -11q-166 0 -270.5 100.5t-104.5 300.5
q0 186 112.5 294t270.5 108q54 0 111 -20.5t61 -20.5q5 0 8.5 1.5t6.5 5.5t5 6.5t5 8.5l4 8h39l6 -243h-47q-23 103 -68 144.5t-125 41.5z" />
    <glyph glyph-name="ordfeminine" unicode="&#xaa;" horiz-adv-x="802" 
d="M387 963h102v96q0 94 -30 138t-111 44q-110 0 -110 -53q0 -13 2 -19h51q8 -36 8 -53q0 -37 -25 -59.5t-67 -22.5q-45 0 -70.5 26.5t-25.5 69.5q0 78 74 127.5t194 49.5q145 0 212.5 -59.5t67.5 -203.5v-305q0 -43 8.5 -59t32.5 -16q26 0 50 8l16 -58q-58 -30 -127 -30
q-63 0 -96.5 24t-42.5 76q-31 -45 -86.5 -72.5t-128.5 -27.5q-94 0 -151.5 42.5t-57.5 135.5q0 109 80.5 155t230.5 46zM352 668q56 0 96.5 32t40.5 93v106h-73q-87 0 -123.5 -31.5t-36.5 -93.5q0 -53 22.5 -79.5t73.5 -26.5z" />
    <glyph glyph-name="guillemotleft" unicode="&#xab;" horiz-adv-x="1007" 
d="M109 528l360 297l55 -59l-245 -293l243 -317l-55 -60l-326 283q-55 47 -55 82q0 26 23 67zM469 528l360 297l56 -59l-246 -293l244 -317l-56 -60l-325 283q-56 47 -56 82q0 26 23 67z" />
    <glyph glyph-name="logicalnot" unicode="&#xac;" 
d="M952 332v233h-802v119h929v-352h-127z" />
    <glyph glyph-name="uni00AD" unicode="&#xad;" horiz-adv-x="690" 
d="M109 512v162h485v-162h-485z" />
    <glyph glyph-name="registered" unicode="&#xae;" horiz-adv-x="940" 
d="M858 983q0 -171 -108.5 -278t-280.5 -107q-186 0 -286.5 103t-100.5 268q0 175 111.5 281t277.5 106q178 0 282.5 -101.5t104.5 -271.5zM774 977q0 146 -84 228.5t-219 82.5q-138 0 -220.5 -85t-82.5 -232q0 -141 79 -222t224 -81q140 0 221.5 83.5t81.5 225.5zM451 975
h-27v-144l57 -6v-32h-182v32l45 6v314l-45 8v33h147q40 0 67.5 -3.5t53 -12.5t38.5 -28t13 -48q0 -48 -31.5 -70t-90.5 -27v-2q59 -5 82.5 -26t23.5 -70v-39q0 -17 4.5 -24t20.5 -7q14 0 18.5 10t9.5 40l31 -5q-3 -22 -6 -33t-10.5 -26t-23.5 -22t-40 -7q-82 0 -82 68v68
q0 28 -16 40.5t-57 12.5zM424 1145v-131q62 0 87.5 15.5t25.5 51.5q0 40 -21 52t-82 12h-10z" />
    <glyph glyph-name="macron" unicode="&#xaf;" horiz-adv-x="1024" 
d="M233 1266v143h558v-143h-558z" />
    <glyph glyph-name="degree" unicode="&#xb0;" horiz-adv-x="673" 
d="M164 1284q0 -81 45 -130.5t131 -49.5q78 0 125 50.5t47 129.5q0 83 -47.5 131.5t-130.5 48.5q-78 0 -124 -49.5t-46 -130.5zM82 1284q0 104 69 175t191 71q120 0 185 -66t65 -176q0 -109 -68 -180.5t-188 -71.5q-124 0 -189 68.5t-65 179.5z" />
    <glyph glyph-name="plusminus" unicode="&#xb1;" 
d="M1079 565h-405v-356h-133v356h-391v119h391v358h133v-358h405v-119zM1079 0h-929v119h929v-119z" />
    <glyph glyph-name="twosuperior" unicode="&#xb2;" horiz-adv-x="665" 
d="M279 1612q-54 0 -85.5 -18.5t-31.5 -49.5q0 -13 6 -28h45q10 -30 10 -56q0 -34 -23.5 -54t-64.5 -20q-44 0 -68 27t-24 70q0 88 78 141t201 53q142 0 208 -57t66 -145q0 -68 -30 -125t-105 -133.5t-236 -212.5l-67 -58v-2h223q91 0 125.5 27t48.5 96h61l-8 -248h-571v84
l180 197q112 120 154.5 200t42.5 162q0 150 -135 150z" />
    <glyph glyph-name="threesuperior" unicode="&#xb3;" horiz-adv-x="681" 
d="M270 872q187 0 187 183q0 77 -36.5 119.5t-98.5 68.5q-51 -13 -121 -18l-11 65q109 8 167.5 52t58.5 137q0 66 -34 99.5t-97 33.5q-49 0 -76 -15.5t-27 -42.5q0 -10 2 -16h43q11 -29 11 -49q0 -32 -23.5 -52t-62.5 -20q-42 0 -65.5 24.5t-23.5 63.5q0 76 74 124t189 48
q122 0 192 -50.5t70 -135.5q0 -144 -205 -207v-2q123 -15 186.5 -71t63.5 -148q0 -120 -100 -188t-252 -68q-122 0 -187 45.5t-65 122.5q0 44 27 73t73 29q41 0 63.5 -21t22.5 -55q0 -19 -8 -55h-47q-6 -12 -6 -24q0 -50 116 -50z" />
    <glyph glyph-name="acute" unicode="&#xb4;" horiz-adv-x="1024" 
d="M350 1169l139 373l76 23q36 8 67.5 -10.5t31.5 -59.5q0 -35 -41 -86l-228 -266z" />
    <glyph glyph-name="mu" unicode="&#xb5;" horiz-adv-x="1175" 
d="M358 1026v-702q0 -108 36.5 -158.5t133.5 -50.5q111 0 187 71.5t76 204.5v617l194 18v-840q0 -66 13.5 -90t50.5 -24q29 0 67 12l19 -70q-66 -34 -150 -34q-90 0 -139 49t-43 145q-23 -41 -45.5 -71t-55 -61t-75 -48t-92.5 -17q-161 0 -220 158q15 -149 62 -487
q7 -48 -30.5 -71t-90.5 -13l-92 18v1426z" />
    <glyph glyph-name="paragraph" unicode="&#xb6;" horiz-adv-x="1300" 
d="M1049 1329v-1622h-117v1624h-141v-1624h-117v821h-25q-109 0 -200 24t-165.5 75.5t-116.5 141.5t-42 212q0 114 41 201.5t115.5 142t173.5 82t221 27.5h506v-91z" />
    <glyph glyph-name="periodcentered" unicode="&#xb7;" horiz-adv-x="555" 
d="M129 612q0 64 39 106t108 42q68 0 109 -37t41 -109q0 -68 -38.5 -108.5t-108.5 -40.5q-78 0 -114 42.5t-36 104.5z" />
    <glyph glyph-name="cedilla" unicode="&#xb8;" horiz-adv-x="1024" 
d="M479 27h82l-82 -133q21 6 51 6q86 0 132.5 -44.5t46.5 -119.5q0 -78 -60 -132.5t-174 -54.5q-82 0 -130 35t-48 84q0 34 18.5 53t46.5 19q57 0 70 -55l-35 -33q0 -43 74 -43q100 0 100 115q0 108 -100 108q-48 0 -78 -10l-12 43z" />
    <glyph glyph-name="onesuperior" unicode="&#xb9;" horiz-adv-x="540" 
d="M209 1567l-160 -11l-8 72l264 37h68v-764l137 -8v-74h-451v72l150 10v666z" />
    <glyph glyph-name="ordmasculine" unicode="&#xba;" horiz-adv-x="841" 
d="M590 942q0 67 -7 115.5t-25 90.5t-52.5 63.5t-85.5 21.5q-50 0 -84.5 -20.5t-52 -61t-24.5 -87.5t-7 -112q0 -68 7.5 -118t25.5 -92t53 -63.5t86 -21.5q93 0 129.5 74.5t36.5 210.5zM70 942q0 165 95.5 265t260.5 100q172 0 259 -97t87 -262q0 -167 -93 -265.5
t-261 -98.5q-172 0 -260 96.5t-88 261.5z" />
    <glyph glyph-name="guillemotright" unicode="&#xbb;" horiz-adv-x="1009" 
d="M551 393l-361 -297l-55 60l246 295l-244 315l56 59l325 -282q30 -25 42.5 -44t12.5 -42q0 -31 -22 -64zM911 393l-360 -297l-55 60l245 295l-243 315l55 59l326 -282q30 -25 42.5 -44t12.5 -42q0 -29 -23 -64z" />
    <glyph glyph-name="onequarter" unicode="&#xbc;" horiz-adv-x="1843" 
d="M287 1346l-160 -11l-8 72l264 37h68v-764l137 -8v-74h-451v72l150 10v666zM383 -23l889 1479h123l-887 -1479h-125zM1192 0v72l129 10v143h-367v94l381 527h146v-527h94l8 84h72v-247h-72l-8 69h-96v-143l96 -10v-72h-383zM1038 319h283v379h-6z" />
    <glyph glyph-name="onehalf" unicode="&#xbd;" horiz-adv-x="1843" 
d="M307 1346l-160 -11l-8 72l264 37h68v-764l137 -8v-74h-450v72l149 10v666zM403 -23l889 1479h123l-887 -1479h-125zM1350 793q-54 0 -85.5 -18.5t-31.5 -49.5q0 -14 6 -29h45q10 -30 10 -55q0 -34 -23.5 -54t-64.5 -20q-44 0 -68 27t-24 70q0 88 78 141t201 53
q142 0 208 -57.5t66 -145.5q0 -68 -30 -125t-105 -133.5t-236 -212.5l-67 -57v-2h223q91 0 125.5 27t48.5 96h62l-9 -248h-571v84l180 197q112 120 154.5 200t42.5 162q0 150 -135 150z" />
    <glyph glyph-name="threequarters" unicode="&#xbe;" horiz-adv-x="1843" 
d="M322 651q186 0 186 183q0 77 -36.5 119.5t-98.5 68.5q-51 -13 -121 -18l-10 65q109 8 167 51.5t58 136.5q0 66 -34 100t-97 34q-49 0 -76 -15.5t-27 -42.5q0 -7 3 -16h43q10 -27 10 -49q0 -32 -23.5 -52t-62.5 -20q-42 0 -65 24.5t-23 63.5q0 76 73.5 124t188.5 48
q122 0 192 -50.5t70 -135.5q0 -144 -205 -207v-2q123 -15 186.5 -71t63.5 -148q0 -120 -100 -188t-252 -68q-122 0 -187 45.5t-65 122.5q0 44 27 73t73 29q41 0 63.5 -21t22.5 -55q0 -19 -8 -55h-47q-6 -12 -6 -25q0 -49 117 -49zM414 -23l889 1479h122l-886 -1479h-125z
M1241 0v72l129 10v143h-366v94l380 527h146v-527h94l8 84h72v-247h-72l-8 69h-96v-143l96 -10v-72h-383zM1087 319h283v379h-6z" />
    <glyph glyph-name="questiondown" unicode="&#xbf;" horiz-adv-x="1071" 
d="M553 -459q-181 0 -285 90.5t-104 229.5q0 151 133 276l262 248v236h92v-377q0 -36 -22 -58l-174 -176q-57 -57 -76 -98t-19 -92q0 -91 66.5 -140t167.5 -49q194 0 194 90q0 21 -4 31h-57q-16 43 -16 80q0 53 32.5 84t79.5 31q61 0 92 -37t31 -98q0 -121 -110.5 -196
t-282.5 -75zM735 866q0 -56 -34 -92.5t-95 -36.5q-60 0 -95.5 32t-35.5 95q0 60 33.5 95.5t95.5 35.5q68 0 99.5 -37.5t31.5 -91.5z" />
    <glyph glyph-name="Agrave" unicode="&#xc0;" horiz-adv-x="1390" 
d="M991 96l-117 346h-481l-125 -346l166 -16v-80h-428v80l144 16l512 1350h75l494 -1350l153 -16v-80h-565v80zM643 1108l-211 -555h410l-193 555h-6zM608 1858l285 -302l-37 -49l-311 158q-43 22 -61.5 40t-18.5 50q0 60 70 80z" />
    <glyph glyph-name="Aacute" unicode="&#xc1;" horiz-adv-x="1390" 
d="M991 96l-117 346h-481l-125 -346l166 -16v-80h-428v80l144 16l512 1350h75l494 -1350l153 -16v-80h-565v80zM643 1108l-211 -555h410l-193 555h-6zM512 1554l285 301l73 -22q70 -20 70 -80q0 -32 -20.5 -52t-59.5 -38l-309 -154z" />
    <glyph glyph-name="Acircumflex" unicode="&#xc2;" horiz-adv-x="1390" 
d="M991 96l-117 346h-481l-125 -346l166 -16v-80h-428v80l144 16l512 1350h75l494 -1350l153 -16v-80h-565v80zM643 1108l-211 -555h410l-193 555h-6zM385 1563l270 270q32 16 62 16q18 0 33 -7.5t24.5 -16t32.5 -33.5l211 -227l-43 -54l-268 175l-283 -177z" />
    <glyph glyph-name="Atilde" unicode="&#xc3;" horiz-adv-x="1390" 
d="M991 96l-117 346h-481l-125 -346l166 -16v-80h-428v80l144 16l512 1350h75l494 -1350l153 -16v-80h-565v80zM643 1108l-211 -555h410l-193 555h-6zM836 1544q-75 0 -183 47q-82 33 -121 33q-29 0 -52.5 -19t-45.5 -71l-59 18q29 99 79.5 149t135.5 50q16 0 30 -1t28.5 -4
t23.5 -5t24.5 -8t21.5 -8.5t24 -10.5t24 -10q79 -31 121 -31q36 0 57.5 18t42.5 70l57 -16q-55 -201 -208 -201z" />
    <glyph glyph-name="Adieresis" unicode="&#xc4;" horiz-adv-x="1390" 
d="M991 96l-117 346h-481l-125 -346l166 -16v-80h-428v80l144 16l512 1350h75l494 -1350l153 -16v-80h-565v80zM643 1108l-211 -555h410l-193 555h-6zM393 1669q0 45 29.5 77t81.5 32q50 0 81 -27.5t31 -81.5q0 -51 -28.5 -82t-81.5 -31q-58 0 -85.5 33t-27.5 80zM793 1669
q0 45 29 77t81 32q50 0 81.5 -27.5t31.5 -81.5q0 -51 -29 -82t-82 -31q-59 0 -85.5 32.5t-26.5 80.5z" />
    <glyph glyph-name="Aring" unicode="&#xc5;" horiz-adv-x="1390" 
d="M991 96l-117 346h-481l-125 -346l166 -16v-80h-428v80l144 16l512 1350h75l494 -1350l153 -16v-80h-565v80zM643 1108l-211 -555h410l-193 555h-6zM602 1692q0 -48 24 -79.5t79 -31.5q96 0 96 111q0 47 -24.5 78.5t-76.5 31.5q-50 0 -74 -32t-24 -78zM496 1692
q0 83 55 138.5t156 55.5q97 0 149.5 -51.5t52.5 -138.5q0 -90 -54.5 -145.5t-152.5 -55.5q-104 0 -155 52.5t-51 144.5z" />
    <glyph glyph-name="AE" unicode="&#xc6;" horiz-adv-x="2021" 
d="M1851 1434l17 -385h-76q-16 77 -37 127t-48.5 84t-72 51.5t-97.5 24.5t-134 7h-182v-604h106q121 0 169.5 52t72.5 192h63v-606h-67q-13 86 -27.5 132.5t-44 77.5t-71.5 40.5t-115 9.5h-86v-543h180q119 0 195 17t127.5 61.5t78.5 111t45 175.5h76l-16 -459h-1063v80
l162 16v535h-451l-272 -535l166 -16v-80h-443v80l144 16l649 1241l-156 17v80h1208zM928 1339l-314 -598h392v598h-78z" />
    <glyph glyph-name="Ccedilla" unicode="&#xc7;" horiz-adv-x="1333" 
d="M758 1356q-434 0 -434 -635q0 -305 112.5 -474t329.5 -169q164 0 258 83t139 275h72l-14 -436h-68q-12 26 -22.5 36.5t-30.5 10.5q-13 0 -63 -17t-126.5 -34.5t-152.5 -18.5l-51 -83q21 6 51 6q86 0 132 -44.5t46 -119.5q0 -78 -60 -132.5t-174 -54.5q-82 0 -130 35
t-48 84q0 34 19 53t47 19q56 0 69 -55l-34 -33q0 -43 73 -43q101 0 101 115q0 108 -101 108q-47 0 -77 -10l-13 43l70 117q-137 10 -243.5 57.5t-185 135.5t-120 225.5t-41.5 318.5q0 178 51.5 319.5t142.5 232t212 138t264 47.5q70 0 141.5 -15t120.5 -30.5t65 -15.5
q21 0 31.5 9.5t22.5 33.5h63l15 -428h-72q-43 191 -134 268.5t-253 77.5z" />
    <glyph glyph-name="Egrave" unicode="&#xc8;" horiz-adv-x="1267" 
d="M90 1434h1008l16 -385h-76q-16 77 -37 127t-48.5 84t-72 51.5t-97.5 24.5t-134 7h-182v-563h106q121 0 169.5 52t72.5 192h64v-606h-68q-13 86 -27.5 132.5t-44 77.5t-71.5 40.5t-115 9.5h-86v-584h180q119 0 195.5 17t128 61.5t78.5 111t45 175.5h75l-16 -459h-1063v80
l162 16v1241l-162 17v80zM537 1858l284 -302l-37 -49l-311 158q-43 22 -61.5 40t-18.5 50q0 60 70 80z" />
    <glyph glyph-name="Eacute" unicode="&#xc9;" horiz-adv-x="1267" 
d="M90 1434h1008l16 -385h-76q-16 77 -37 127t-48.5 84t-72 51.5t-97.5 24.5t-134 7h-182v-563h106q121 0 169.5 52t72.5 192h64v-606h-68q-13 86 -27.5 132.5t-44 77.5t-71.5 40.5t-115 9.5h-86v-584h180q119 0 195.5 17t128 61.5t78.5 111t45 175.5h75l-16 -459h-1063v80
l162 16v1241l-162 17v80zM440 1554l285 301l74 -22q69 -19 69 -80q0 -32 -20.5 -52t-59.5 -38l-309 -154z" />
    <glyph glyph-name="Ecircumflex" unicode="&#xca;" horiz-adv-x="1267" 
d="M90 1434h1008l16 -385h-76q-16 77 -37 127t-48.5 84t-72 51.5t-97.5 24.5t-134 7h-182v-563h106q121 0 169.5 52t72.5 192h64v-606h-68q-13 86 -27.5 132.5t-44 77.5t-71.5 40.5t-115 9.5h-86v-584h180q119 0 195.5 17t128 61.5t78.5 111t45 175.5h75l-16 -459h-1063v80
l162 16v1241l-162 17v80zM313 1563l271 270q32 16 61 16q18 0 33 -7.5t24.5 -16t32.5 -33.5l211 -227l-43 -54l-268 175l-283 -177z" />
    <glyph glyph-name="Edieresis" unicode="&#xcb;" horiz-adv-x="1267" 
d="M90 1434h1008l16 -385h-76q-16 77 -37 127t-48.5 84t-72 51.5t-97.5 24.5t-134 7h-182v-563h106q121 0 169.5 52t72.5 192h64v-606h-68q-13 86 -27.5 132.5t-44 77.5t-71.5 40.5t-115 9.5h-86v-584h180q119 0 195.5 17t128 61.5t78.5 111t45 175.5h75l-16 -459h-1063v80
l162 16v1241l-162 17v80zM322 1669q0 45 29 77t81 32q50 0 81.5 -27.5t31.5 -81.5q0 -51 -29 -82t-82 -31q-58 0 -85 33t-27 80zM721 1669q0 45 29 77t81 32q50 0 81.5 -27.5t31.5 -81.5q0 -51 -28.5 -82t-81.5 -31q-59 0 -86 32.5t-27 80.5z" />
    <glyph glyph-name="Igrave" unicode="&#xcc;" horiz-adv-x="718" 
d="M252 94v1243l-162 15v82h539v-80l-162 -15v-1243l162 -14v-82h-539v80zM262 1858l285 -302l-37 -49l-311 158q-43 22 -61.5 40t-18.5 50q0 61 69 80z" />
    <glyph glyph-name="Iacute" unicode="&#xcd;" horiz-adv-x="718" 
d="M252 94v1243l-162 15v82h539v-80l-162 -15v-1243l162 -14v-82h-539v80zM166 1554l285 301l73 -22q70 -20 70 -80q0 -32 -20.5 -52t-59.5 -38l-309 -154z" />
    <glyph glyph-name="Icircumflex" unicode="&#xce;" horiz-adv-x="718" 
d="M252 94v1243l-162 15v82h539v-80l-162 -15v-1243l162 -14v-82h-539v80zM39 1563l270 270q32 16 62 16q18 0 33 -7.5t24.5 -16t32.5 -33.5l211 -227l-43 -54l-269 175l-282 -177z" />
    <glyph glyph-name="Idieresis" unicode="&#xcf;" horiz-adv-x="718" 
d="M252 94v1243l-162 15v82h539v-80l-162 -15v-1243l162 -14v-82h-539v80zM47 1669q0 45 29.5 77t81.5 32q50 0 81 -27.5t31 -81.5q0 -51 -28.5 -82t-81.5 -31q-58 0 -85.5 33t-27.5 80zM446 1669q0 45 29.5 77t81.5 32q50 0 81.5 -27.5t31.5 -81.5q0 -51 -29 -82t-82 -31
q-59 0 -86 32.5t-27 80.5z" />
    <glyph glyph-name="Eth" unicode="&#xd0;" horiz-adv-x="1474" 
d="M66 686v98h186v555l-176 13v82h506q153 0 274.5 -23t220 -74.5t164 -131.5t100.5 -196.5t35 -267.5q0 -169 -43 -298.5t-117.5 -212.5t-184.5 -135.5t-233 -73.5t-274 -21h-448v82l176 14v590h-186zM467 92h90q582 0 582 637q0 179 -36.5 298t-116.5 187.5t-191 96.5
t-275 28h-53v-555h377v-98h-377v-594z" />
    <glyph glyph-name="Ntilde" unicode="&#xd1;" horiz-adv-x="1478" 
d="M1268 1337v-1351h-103l-792 1337h-8v-1229l153 -12v-82h-399v82l133 12v1243l-133 15v82h430l598 -1028h8v931l-133 15v82h379v-82zM911 1544q-74 0 -182 47q-83 33 -121 33q-29 0 -52.5 -19t-45.5 -71l-59 18q29 99 79.5 149t135.5 50q16 0 30 -1t28.5 -4t23.5 -5
t24.5 -8t21.5 -8.5t24 -10.5t24 -10q79 -31 121 -31q36 0 57.5 18t42.5 70l57 -16q-55 -201 -209 -201z" />
    <glyph glyph-name="Ograve" unicode="&#xd2;" horiz-adv-x="1472" 
d="M1145 723q0 113 -9.5 202t-36.5 172.5t-70.5 138t-115.5 87.5t-168 33q-102 0 -177.5 -33t-121.5 -88t-73.5 -140t-37 -174.5t-9.5 -205.5q0 -88 7 -162.5t24 -149t48 -131t75.5 -101t110 -68t148.5 -23.5q96 0 168.5 33t117 89t72 140t38 175t10.5 206zM88 713
q0 336 184.5 539.5t479.5 203.5q292 0 462 -192.5t170 -532.5q0 -353 -169 -553.5t-480 -200.5q-312 0 -479.5 191t-167.5 545zM657 1858l285 -302l-37 -49l-311 158q-43 22 -61.5 40t-18.5 50q0 60 70 80z" />
    <glyph glyph-name="Oacute" unicode="&#xd3;" horiz-adv-x="1472" 
d="M1145 723q0 113 -9.5 202t-36.5 172.5t-70.5 138t-115.5 87.5t-168 33q-102 0 -177.5 -33t-121.5 -88t-73.5 -140t-37 -174.5t-9.5 -205.5q0 -88 7 -162.5t24 -149t48 -131t75.5 -101t110 -68t148.5 -23.5q96 0 168.5 33t117 89t72 140t38 175t10.5 206zM88 713
q0 336 184.5 539.5t479.5 203.5q292 0 462 -192.5t170 -532.5q0 -353 -169 -553.5t-480 -200.5q-312 0 -479.5 191t-167.5 545zM561 1554l285 301l74 -22q69 -19 69 -80q0 -32 -20.5 -52t-59.5 -38l-309 -154z" />
    <glyph glyph-name="Ocircumflex" unicode="&#xd4;" horiz-adv-x="1472" 
d="M1145 723q0 113 -9.5 202t-36.5 172.5t-70.5 138t-115.5 87.5t-168 33q-102 0 -177.5 -33t-121.5 -88t-73.5 -140t-37 -174.5t-9.5 -205.5q0 -88 7 -162.5t24 -149t48 -131t75.5 -101t110 -68t148.5 -23.5q96 0 168.5 33t117 89t72 140t38 175t10.5 206zM88 713
q0 336 184.5 539.5t479.5 203.5q292 0 462 -192.5t170 -532.5q0 -353 -169 -553.5t-480 -200.5q-312 0 -479.5 191t-167.5 545zM434 1563l271 270q32 16 61 16q18 0 33 -7.5t24.5 -16t32.5 -33.5l211 -227l-43 -54l-268 175l-283 -177z" />
    <glyph glyph-name="Otilde" unicode="&#xd5;" horiz-adv-x="1472" 
d="M1145 723q0 113 -9.5 202t-36.5 172.5t-70.5 138t-115.5 87.5t-168 33q-102 0 -177.5 -33t-121.5 -88t-73.5 -140t-37 -174.5t-9.5 -205.5q0 -88 7 -162.5t24 -149t48 -131t75.5 -101t110 -68t148.5 -23.5q96 0 168.5 33t117 89t72 140t38 175t10.5 206zM88 713
q0 336 184.5 539.5t479.5 203.5q292 0 462 -192.5t170 -532.5q0 -353 -169 -553.5t-480 -200.5q-312 0 -479.5 191t-167.5 545zM885 1544q-75 0 -183 47q-83 33 -120 33q-30 0 -53.5 -19t-45.5 -71l-59 18q29 99 79.5 149t135.5 50q16 0 30 -1t28.5 -4t23.5 -5t24.5 -8
t21.5 -8.5t24 -10.5t24 -10q79 -31 121 -31q36 0 57.5 18t42.5 70l58 -16q-55 -201 -209 -201z" />
    <glyph glyph-name="Odieresis" unicode="&#xd6;" horiz-adv-x="1472" 
d="M1145 723q0 113 -9.5 202t-36.5 172.5t-70.5 138t-115.5 87.5t-168 33q-102 0 -177.5 -33t-121.5 -88t-73.5 -140t-37 -174.5t-9.5 -205.5q0 -88 7 -162.5t24 -149t48 -131t75.5 -101t110 -68t148.5 -23.5q96 0 168.5 33t117 89t72 140t38 175t10.5 206zM88 713
q0 336 184.5 539.5t479.5 203.5q292 0 462 -192.5t170 -532.5q0 -353 -169 -553.5t-480 -200.5q-312 0 -479.5 191t-167.5 545zM442 1669q0 45 29.5 77t81.5 32q50 0 81.5 -27.5t31.5 -81.5q0 -51 -29 -82t-82 -31q-58 0 -85.5 33t-27.5 80zM842 1669q0 45 29 77t81 32
q50 0 81.5 -27.5t31.5 -81.5q0 -51 -29 -82t-82 -31q-59 0 -85.5 32.5t-26.5 80.5z" />
    <glyph glyph-name="multiply" unicode="&#xd7;" 
d="M893 168l-277 283l-286 -289q-14 13 -28 27t-31 31.5t-27 27.5l291 289l-281 278l92 84l275 -276l276 280l88 -88l-283 -278l279 -281q-16 -15 -43.5 -44t-44.5 -44z" />
    <glyph glyph-name="Oslash" unicode="&#xd8;" horiz-adv-x="1472" 
d="M88 713q0 336 184.5 539.5t479.5 203.5q152 0 274 -55l92 176l96 -47l-96 -180q128 -90 197 -248t69 -371q0 -353 -169 -553.5t-480 -200.5q-173 0 -305 60l-94 -178l-94 49l96 184q-250 181 -250 621zM1145 723q0 336 -101 485l-550 -1048q93 -80 245 -80q96 0 168.5 33
t117 89t72 140t38 175t10.5 206zM326 715q0 -318 94 -469l549 1046q-89 64 -224 64q-102 0 -177.5 -33t-121.5 -88t-73.5 -140t-37 -174.5t-9.5 -205.5z" />
    <glyph glyph-name="Ugrave" unicode="&#xd9;" horiz-adv-x="1472" 
d="M784 84q179 0 260.5 90.5t81.5 282.5v880l-153 15v82h416v-82l-148 -15v-874q0 -118 -25.5 -204.5t-82.5 -151.5t-154 -97.5t-234 -32.5q-124 0 -215.5 24t-160 77.5t-103.5 145t-35 220.5v895l-153 13v82h522v-82l-154 -13v-872q0 -87 15.5 -153t52.5 -120t105 -82
t165 -28zM684 1858l285 -302l-37 -49l-311 158q-43 22 -61.5 40t-18.5 50q0 61 69 80z" />
    <glyph glyph-name="Uacute" unicode="&#xda;" horiz-adv-x="1472" 
d="M784 84q-97 0 -165 28t-105 82t-52.5 120t-15.5 153v872l154 13v82h-522v-82l153 -13v-895q0 -129 35 -220.5t103.5 -145t160 -77.5t215.5 -24q137 0 234 32.5t154 97.5t82.5 151.5t25.5 204.5v874l148 15v82h-416v-82l153 -15v-880q0 -192 -81.5 -282.5t-260.5 -90.5z
M588 1554l284 301l74 -22q70 -20 70 -80q0 -32 -20.5 -52t-59.5 -38l-309 -154z" />
    <glyph glyph-name="Ucircumflex" unicode="&#xdb;" horiz-adv-x="1472" 
d="M784 84q-97 0 -165 28t-105 82t-52.5 120t-15.5 153v872l154 13v82h-522v-82l153 -13v-895q0 -129 35 -220.5t103.5 -145t160 -77.5t215.5 -24q137 0 234 32.5t154 97.5t82.5 151.5t25.5 204.5v874l148 15v82h-416v-82l153 -15v-880q0 -192 -81.5 -282.5t-260.5 -90.5z
M461 1563l270 270q32 16 62 16q18 0 33 -7.5t24.5 -16t32.5 -33.5l211 -227l-43 -54l-269 175l-282 -177z" />
    <glyph glyph-name="Udieresis" unicode="&#xdc;" horiz-adv-x="1472" 
d="M784 84q179 0 260.5 90.5t81.5 282.5v880l-153 15v82h416v-82l-148 -15v-874q0 -118 -25.5 -204.5t-82.5 -151.5t-154 -97.5t-234 -32.5q-124 0 -215.5 24t-160 77.5t-103.5 145t-35 220.5v895l-153 13v82h522v-82l-154 -13v-872q0 -87 15.5 -153t52.5 -120t105 -82
t165 -28zM459 1669q0 45 29 77t81 32q50 0 81.5 -27.5t31.5 -81.5q0 -51 -29 -82t-82 -31q-58 0 -85 33t-27 80zM858 1669q0 45 29.5 77t81.5 32q50 0 81 -27.5t31 -81.5q0 -51 -28.5 -82t-81.5 -31q-59 0 -86 32.5t-27 80.5z" />
    <glyph glyph-name="Yacute" unicode="&#xdd;" horiz-adv-x="1259" 
d="M696 774l305 561l-172 15v84h424v-84l-135 -15l-379 -671v-568l174 -14v-82h-563v82l174 14v568l-381 671l-137 15v84h574v-84l-195 -15l303 -561h8zM500 1554l284 301l74 -22q70 -20 70 -80q0 -32 -20.5 -52t-59.5 -38l-309 -154z" />
    <glyph glyph-name="Thorn" unicode="&#xde;" horiz-adv-x="1271" 
d="M467 1167h131q107 0 193 -11.5t163 -39.5t128.5 -73t81.5 -114.5t30 -160.5q0 -105 -34 -184t-91 -128t-142 -80t-176.5 -42.5t-205.5 -11.5h-78v-226l256 -14v-82h-645v82l174 14v1243l-174 15v80h645v-82l-256 -15v-170zM467 1073v-657h104q201 0 293 84t92 258
q0 172 -87.5 243.5t-284.5 71.5h-117z" />
    <glyph glyph-name="germandbls" unicode="&#xdf;" horiz-adv-x="1333" 
d="M567 -12v356h80q9 -132 84.5 -199t190.5 -67q88 0 142 44t54 132q0 54 -26 95.5t-68 69t-92 51.5t-100.5 51t-92.5 60t-68 85.5t-26 121.5q0 58 19.5 112t49 92.5t63.5 79.5t63.5 75t49 78.5t19.5 89.5q0 170 -239 170q-70 0 -120 -18.5t-77 -45.5t-42 -70t-19 -79
t-4 -86v-1186h-351v82l156 14v1018q0 107 26 191t80.5 147.5t145.5 97t215 33.5q81 0 144.5 -16t102 -41t63.5 -60t34.5 -70t9.5 -73q0 -61 -22.5 -114.5t-55 -93t-64.5 -77t-54.5 -82.5t-22.5 -94q0 -46 25 -82t65.5 -61.5t89.5 -50.5t97.5 -56t89 -70t65.5 -100t25 -139
q0 -142 -92.5 -234t-239.5 -92q-58 0 -105.5 12t-72.5 25t-68 39q-16 8 -24 8q-25 0 -33 -73h-70z" />
    <glyph glyph-name="agrave" unicode="&#xe0;" horiz-adv-x="1042" 
d="M524 537h142v139q0 142 -44.5 210t-160.5 68q-172 0 -172 -86q0 -6 4 -26h67q13 -54 13 -74q0 -51 -32.5 -80t-84.5 -29q-56 0 -87.5 33t-31.5 94q0 112 101 183t254 71q195 0 281.5 -87.5t86.5 -299.5v-467q0 -66 13.5 -90t50.5 -24q30 0 67 12l19 -70q-66 -34 -150 -34
q-82 0 -127 34t-57 111q-47 -70 -126.5 -109t-174.5 -39q-129 0 -208 63.5t-79 199.5q0 297 436 297zM449 90q84 0 150.5 51.5t66.5 139.5v170h-115q-133 0 -190.5 -51.5t-57.5 -147.5q0 -80 33.5 -121t112.5 -41zM483 1548l135 -385l-47 -24l-223 272q-39 45 -39 82
q0 43 32.5 62.5t72.5 9.5z" />
    <glyph glyph-name="aacute" unicode="&#xe1;" horiz-adv-x="1042" 
d="M524 537h142v139q0 142 -44.5 210t-160.5 68q-172 0 -172 -86q0 -6 4 -26h67q13 -54 13 -74q0 -51 -32.5 -80t-84.5 -29q-56 0 -87.5 33t-31.5 94q0 112 101 183t254 71q195 0 281.5 -87.5t86.5 -299.5v-467q0 -66 13.5 -90t50.5 -24q30 0 67 12l19 -70q-66 -34 -150 -34
q-82 0 -127 34t-57 111q-47 -70 -126.5 -109t-174.5 -39q-129 0 -208 63.5t-79 199.5q0 297 436 297zM449 90q84 0 150.5 51.5t66.5 139.5v170h-115q-133 0 -190.5 -51.5t-57.5 -147.5q0 -80 33.5 -121t112.5 -41zM375 1169l139 373l76 23q36 8 67 -10.5t31 -59.5
q0 -35 -41 -86l-227 -266z" />
    <glyph glyph-name="acircumflex" unicode="&#xe2;" horiz-adv-x="1042" 
d="M524 537h142v139q0 142 -44.5 210t-160.5 68q-172 0 -172 -86q0 -6 4 -26h67q13 -54 13 -74q0 -51 -32.5 -80t-84.5 -29q-56 0 -87.5 33t-31.5 94q0 112 101 183t254 71q195 0 281.5 -87.5t86.5 -299.5v-467q0 -66 13.5 -90t50.5 -24q30 0 67 12l19 -70q-66 -34 -150 -34
q-82 0 -127 34t-57 111q-47 -70 -126.5 -109t-174.5 -39q-129 0 -208 63.5t-79 199.5q0 297 436 297zM449 90q84 0 150.5 51.5t66.5 139.5v170h-115q-133 0 -190.5 -51.5t-57.5 -147.5q0 -80 33.5 -121t112.5 -41zM225 1186l217 342q31 22 78 22q28 0 48.5 -12.5t39.5 -46.5
l168 -305l-49 -37l-227 221l-226 -223z" />
    <glyph glyph-name="atilde" unicode="&#xe3;" horiz-adv-x="1042" 
d="M524 537h142v139q0 142 -44.5 210t-160.5 68q-172 0 -172 -86q0 -6 4 -26h67q13 -54 13 -74q0 -51 -32.5 -80t-84.5 -29q-56 0 -87.5 33t-31.5 94q0 112 101 183t254 71q195 0 281.5 -87.5t86.5 -299.5v-467q0 -66 13.5 -90t50.5 -24q30 0 67 12l19 -70q-66 -34 -150 -34
q-82 0 -127 34t-57 111q-47 -70 -126.5 -109t-174.5 -39q-129 0 -208 63.5t-79 199.5q0 297 436 297zM449 90q84 0 150.5 51.5t66.5 139.5v170h-115q-133 0 -190.5 -51.5t-57.5 -147.5q0 -80 33.5 -121t112.5 -41zM633 1233q-74 0 -182 47q-82 33 -121 33q-30 0 -53.5 -19
t-45.5 -71l-59 18q29 99 79.5 149t135.5 50q16 0 30 -1t28.5 -4t23.5 -5t24.5 -8t21.5 -8.5t24 -10.5t24 -10q79 -31 121 -31q36 0 57.5 18t42.5 70l58 -16q-55 -201 -209 -201z" />
    <glyph glyph-name="adieresis" unicode="&#xe4;" horiz-adv-x="1042" 
d="M524 537h142v139q0 142 -44.5 210t-160.5 68q-172 0 -172 -86q0 -6 4 -26h67q13 -54 13 -74q0 -51 -32.5 -80t-84.5 -29q-56 0 -87.5 33t-31.5 94q0 112 101 183t254 71q195 0 281.5 -87.5t86.5 -299.5v-467q0 -66 13.5 -90t50.5 -24q30 0 67 12l19 -70q-66 -34 -150 -34
q-82 0 -127 34t-57 111q-47 -70 -126.5 -109t-174.5 -39q-129 0 -208 63.5t-79 199.5q0 297 436 297zM449 90q84 0 150.5 51.5t66.5 139.5v170h-115q-133 0 -190.5 -51.5t-57.5 -147.5q0 -80 33.5 -121t112.5 -41zM188 1346q0 45 29.5 76.5t81.5 31.5q50 0 81.5 -27
t31.5 -81q0 -51 -29 -82t-82 -31q-58 0 -85.5 33t-27.5 80zM588 1346q0 45 29 76.5t81 31.5q50 0 81.5 -27t31.5 -81q0 -51 -29 -82t-82 -31q-59 0 -85.5 32.5t-26.5 80.5z" />
    <glyph glyph-name="aring" unicode="&#xe5;" horiz-adv-x="1042" 
d="M524 537h142v139q0 142 -44.5 210t-160.5 68q-172 0 -172 -86q0 -6 4 -26h67q13 -54 13 -74q0 -51 -32.5 -80t-84.5 -29q-56 0 -87.5 33t-31.5 94q0 112 101 183t254 71q195 0 281.5 -87.5t86.5 -299.5v-467q0 -66 13.5 -90t50.5 -24q30 0 67 12l19 -70q-66 -34 -150 -34
q-82 0 -127 34t-57 111q-47 -70 -126.5 -109t-174.5 -39q-129 0 -208 63.5t-79 199.5q0 297 436 297zM449 90q84 0 150.5 51.5t66.5 139.5v170h-115q-133 0 -190.5 -51.5t-57.5 -147.5q0 -80 33.5 -121t112.5 -41zM399 1354q0 -48 24 -79.5t79 -31.5q96 0 96 111
q0 48 -24 79t-76 31q-50 0 -74.5 -32t-24.5 -78zM293 1354q0 83 55 138.5t156 55.5q98 0 150.5 -51.5t52.5 -138.5q0 -90 -54.5 -145.5t-152.5 -55.5q-104 0 -155.5 53t-51.5 144z" />
    <glyph glyph-name="ae" unicode="&#xe6;" horiz-adv-x="1609" 
d="M524 563h142v86q0 161 -44 233t-161 72q-182 0 -182 -86q0 -6 4 -26h67q12 -50 12 -74q0 -51 -32 -80t-84 -29q-56 0 -87.5 33t-31.5 94q0 112 106 183t271 71q117 0 188 -33t115 -116q127 149 330 149q89 0 158 -24.5t113.5 -65.5t73.5 -100.5t40.5 -124t11.5 -141.5
q0 -54 -6 -113h-651q3 -85 18.5 -149.5t47 -116t86.5 -78.5t132 -27q103 0 165 42.5t101 133.5l91 -30q-41 -125 -142 -197t-254 -72q-246 0 -362 166q-130 -166 -350 -166q-67 0 -123.5 15.5t-101.5 48t-71 87t-26 126.5q0 309 436 309zM877 584h454q2 31 2 86
q0 143 -48.5 209.5t-154.5 66.5q-119 0 -184.5 -95t-68.5 -267zM469 90q77 0 140 35.5t106 97.5q-44 106 -47 248h-117q-133 0 -190.5 -51.5t-57.5 -147.5q0 -85 43 -133.5t123 -48.5z" />
    <glyph glyph-name="ccedilla" unicode="&#xe7;" horiz-adv-x="1003" 
d="M590 944q-145 0 -219 -109t-74 -315q0 -207 67.5 -314.5t221.5 -107.5q180 0 256 183l90 -31q-10 -31 -25.5 -61.5t-45 -68t-66.5 -66t-93.5 -49.5t-123.5 -25l-52 -86q21 6 52 6q86 0 132 -44.5t46 -119.5q0 -78 -60 -132.5t-174 -54.5q-82 0 -130 35t-48 84q0 34 19 53
t47 19q56 0 69 -55l-35 -33q0 -43 74 -43q100 0 100 115q0 108 -100 108q-48 0 -78 -10l-12 43l70 115q-200 13 -307 145.5t-107 353.5q0 270 137 415.5t363 145.5q154 0 252 -76.5t98 -199.5q0 -85 -42 -126.5t-106 -41.5q-56 0 -93.5 32.5t-37.5 86.5q0 49 21 90h69
q7 28 7 45q0 94 -162 94z" />
    <glyph glyph-name="egrave" unicode="&#xe8;" horiz-adv-x="1030" 
d="M84 496q0 253 133 398.5t340 145.5q189 0 292 -111t103 -333q0 -28 -4 -86h-651q0 -199 66.5 -304.5t218.5 -105.5q103 0 165 42.5t101 133.5l90 -30q-41 -125 -141.5 -197t-253.5 -72q-227 0 -343 139.5t-116 379.5zM297 618h457v46q0 282 -203 282q-114 0 -179 -92.5
t-75 -235.5zM535 1548l135 -385l-47 -24l-224 272q-39 45 -39 82q0 43 32.5 62.5t72.5 9.5z" />
    <glyph glyph-name="eacute" unicode="&#xe9;" horiz-adv-x="1030" 
d="M84 496q0 -240 116 -379.5t343 -139.5q153 0 253.5 72t141.5 197l-90 30q-39 -91 -101 -133.5t-165 -42.5q-152 0 -218.5 105.5t-66.5 304.5h651q4 58 4 86q0 222 -103 333t-292 111q-207 0 -340 -145.5t-133 -398.5zM754 618h-457q10 143 75 235.5t179 92.5
q203 0 203 -282v-46zM426 1169l139 373l76 23q36 8 67 -10.5t31 -59.5q0 -35 -41 -86l-227 -266z" />
    <glyph glyph-name="ecircumflex" unicode="&#xea;" horiz-adv-x="1030" 
d="M84 496q0 -240 116 -379.5t343 -139.5q153 0 253.5 72t141.5 197l-90 30q-39 -91 -101 -133.5t-165 -42.5q-152 0 -218.5 105.5t-66.5 304.5h651q4 58 4 86q0 222 -103 333t-292 111q-207 0 -340 -145.5t-133 -398.5zM754 618h-457q10 143 75 235.5t179 92.5
q203 0 203 -282v-46zM276 1186l218 342q31 22 77 22q28 0 48.5 -12.5t39.5 -46.5l168 -305l-49 -37l-227 221l-225 -223z" />
    <glyph glyph-name="edieresis" unicode="&#xeb;" horiz-adv-x="1030" 
d="M84 496q0 253 133 398.5t340 145.5q189 0 292 -111t103 -333q0 -28 -4 -86h-651q0 -199 66.5 -304.5t218.5 -105.5q103 0 165 42.5t101 133.5l90 -30q-41 -125 -141.5 -197t-253.5 -72q-227 0 -343 139.5t-116 379.5zM297 618h457v46q0 282 -203 282q-114 0 -179 -92.5
t-75 -235.5zM240 1346q0 45 29 76.5t81 31.5q50 0 81.5 -27t31.5 -81q0 -51 -29 -82t-82 -31q-58 0 -85 33t-27 80zM639 1346q0 45 29.5 76.5t81.5 31.5q50 0 81 -27t31 -81q0 -51 -28.5 -82t-81.5 -31q-59 0 -86 32.5t-27 80.5z" />
    <glyph glyph-name="igrave" unicode="&#xec;" horiz-adv-x="622" 
d="M66 1014l348 12v-930l155 -14v-82h-503v82l153 14v824l-153 14v80zM250 1548l135 -385l-47 -24l-223 272q-39 45 -39 82q0 43 32 62.5t72 9.5z" />
    <glyph glyph-name="iacute" unicode="&#xed;" horiz-adv-x="622" 
d="M66 1014l348 12v-930l155 -14v-82h-503v82l153 14v824l-153 14v80zM141 1169l140 373l75 23q36 8 67.5 -10.5t31.5 -59.5q0 -35 -41 -86l-228 -266z" />
    <glyph glyph-name="icircumflex" unicode="&#xee;" horiz-adv-x="622" 
d="M66 1014l348 12v-930l155 -14v-82h-503v82l153 14v824l-153 14v80zM-8 1186l217 342q31 22 78 22q28 0 48.5 -12.5t39.5 -46.5l168 -305l-49 -37l-228 221l-225 -223z" />
    <glyph glyph-name="idieresis" unicode="&#xef;" horiz-adv-x="622" 
d="M66 1014l348 12v-930l155 -14v-82h-503v82l153 14v824l-153 14v80zM-45 1346q0 45 29.5 76.5t81.5 31.5q50 0 81 -27t31 -81q0 -51 -28.5 -82t-81.5 -31q-58 0 -85.5 33t-27.5 80zM354 1346q0 45 29.5 76.5t81.5 31.5q50 0 81.5 -27t31.5 -81q0 -51 -29 -82t-82 -31
q-59 0 -86 32.5t-27 80.5z" />
    <glyph glyph-name="eth" unicode="&#xf0;" horiz-adv-x="1107" 
d="M461 1157l-43 90l168 127q-135 101 -336 121l14 84q270 -15 436 -117l199 154l43 -90l-160 -123q244 -213 244 -690q0 -355 -122 -545.5t-365 -190.5q-212 0 -332.5 136t-120.5 381q0 107 23.5 195t64 147t95.5 99.5t116.5 58.5t128.5 18q99 0 178 -45t131 -127
q-17 299 -166 467zM547 897q-119 0 -183.5 -99.5t-64.5 -297.5q0 -424 258 -424q130 0 193 112t63 318q0 194 -45 264q-81 127 -221 127z" />
    <glyph glyph-name="ntilde" unicode="&#xf1;" horiz-adv-x="1251" 
d="M78 1014l293 14l14 -194h6q50 87 140.5 146.5t218.5 59.5q162 0 236.5 -83.5t74.5 -264.5v-596l135 -14v-82h-465v82l135 14v594q0 111 -38.5 162t-149.5 51q-114 0 -193 -70t-79 -190v-547l139 -14v-82h-467v82l133 14v824l-133 14v80zM772 1233q-74 0 -182 47
q-82 33 -121 33q-29 0 -52.5 -19t-45.5 -71l-60 18q29 99 79.5 149t135.5 50q16 0 30 -1t28.5 -4t23.5 -5t24.5 -8t21.5 -8.5t24 -10.5t24 -10q79 -31 121 -31q36 0 58 18.5t43 69.5l57 -16q-55 -201 -209 -201z" />
    <glyph glyph-name="ograve" unicode="&#xf2;" horiz-adv-x="1107" 
d="M811 504q0 72 -6 131.5t-23.5 118.5t-46 99t-75.5 64.5t-109 24.5q-75 0 -127 -33.5t-78.5 -96t-37.5 -133t-11 -161.5q0 -74 6.5 -134.5t24 -119.5t46 -99t75 -64.5t108.5 -24.5q74 0 125.5 34t78.5 96t38.5 134t11.5 164zM84 504q0 241 129.5 388.5t347.5 147.5
q153 0 258.5 -68t155 -185t49.5 -275q0 -242 -127 -388.5t-348 -146.5q-224 0 -344.5 143.5t-120.5 383.5zM541 1548l135 -385l-47 -24l-223 272q-39 45 -39 82q0 43 32 62.5t72 9.5z" />
    <glyph glyph-name="oacute" unicode="&#xf3;" horiz-adv-x="1107" 
d="M811 504q0 72 -6 131.5t-23.5 118.5t-46 99t-75.5 64.5t-109 24.5q-75 0 -127 -33.5t-78.5 -96t-37.5 -133t-11 -161.5q0 -74 6.5 -134.5t24 -119.5t46 -99t75 -64.5t108.5 -24.5q74 0 125.5 34t78.5 96t38.5 134t11.5 164zM84 504q0 241 129.5 388.5t347.5 147.5
q153 0 258.5 -68t155 -185t49.5 -275q0 -242 -127 -388.5t-348 -146.5q-224 0 -344.5 143.5t-120.5 383.5zM432 1169l139 373l76 23q36 8 67 -10.5t31 -59.5q0 -36 -40 -86l-228 -266z" />
    <glyph glyph-name="ocircumflex" unicode="&#xf4;" horiz-adv-x="1107" 
d="M811 504q0 72 -6 131.5t-23.5 118.5t-46 99t-75.5 64.5t-109 24.5q-75 0 -127 -33.5t-78.5 -96t-37.5 -133t-11 -161.5q0 -74 6.5 -134.5t24 -119.5t46 -99t75 -64.5t108.5 -24.5q74 0 125.5 34t78.5 96t38.5 134t11.5 164zM84 504q0 241 129.5 388.5t347.5 147.5
q153 0 258.5 -68t155 -185t49.5 -275q0 -242 -127 -388.5t-348 -146.5q-224 0 -344.5 143.5t-120.5 383.5zM283 1186l217 342q31 22 78 22q28 0 48.5 -12.5t39.5 -46.5l168 -305l-50 -37l-227 221l-225 -223z" />
    <glyph glyph-name="otilde" unicode="&#xf5;" horiz-adv-x="1107" 
d="M811 504q0 72 -6 131.5t-23.5 118.5t-46 99t-75.5 64.5t-109 24.5q-75 0 -127 -33.5t-78.5 -96t-37.5 -133t-11 -161.5q0 -74 6.5 -134.5t24 -119.5t46 -99t75 -64.5t108.5 -24.5q74 0 125.5 34t78.5 96t38.5 134t11.5 164zM84 504q0 241 129.5 388.5t347.5 147.5
q153 0 258.5 -68t155 -185t49.5 -275q0 -242 -127 -388.5t-348 -146.5q-224 0 -344.5 143.5t-120.5 383.5zM690 1233q-74 0 -182 47q-82 33 -121 33q-29 0 -52.5 -19t-45.5 -71l-60 18q29 99 79.5 149t135.5 50q16 0 30 -1t29 -4.5t23.5 -5t25 -8t21.5 -8t24.5 -10
t23.5 -10.5q79 -31 120 -31q36 0 58 18.5t43 69.5l57 -16q-55 -201 -209 -201z" />
    <glyph glyph-name="odieresis" unicode="&#xf6;" horiz-adv-x="1107" 
d="M811 504q0 72 -6 131.5t-23.5 118.5t-46 99t-75.5 64.5t-109 24.5q-75 0 -127 -33.5t-78.5 -96t-37.5 -133t-11 -161.5q0 -74 6.5 -134.5t24 -119.5t46 -99t75 -64.5t108.5 -24.5q74 0 125.5 34t78.5 96t38.5 134t11.5 164zM84 504q0 241 129.5 388.5t347.5 147.5
q153 0 258.5 -68t155 -185t49.5 -275q0 -242 -127 -388.5t-348 -146.5q-224 0 -344.5 143.5t-120.5 383.5zM246 1346q0 45 29 76.5t81 31.5q50 0 81.5 -27t31.5 -81q0 -51 -29 -82t-82 -31q-58 0 -85 33t-27 80zM645 1346q0 45 29.5 76.5t81.5 31.5q50 0 81 -27t31 -81
q0 -51 -28.5 -82t-81.5 -31q-59 0 -86 32.5t-27 80.5z" />
    <glyph glyph-name="divide" unicode="&#xf7;" 
d="M467 311q0 64 39 106t108 42q68 0 109 -37t41 -109q0 -68 -39 -108.5t-109 -40.5q-78 0 -113.5 42.5t-35.5 104.5zM467 940q0 64 38.5 105.5t108.5 41.5q68 0 109 -36.5t41 -108.5q0 -68 -39 -108.5t-109 -40.5q-78 0 -113.5 42.5t-35.5 104.5zM1079 565h-929v119h929
v-119z" />
    <glyph glyph-name="oslash" unicode="&#xf8;" horiz-adv-x="1107" 
d="M84 504q0 241 129.5 388.5t347.5 147.5q102 0 187 -32l65 133l92 -43l-67 -137q92 -66 139 -182t47 -267q0 -242 -127 -388.5t-348 -146.5q-88 0 -174 27l-72 -145l-90 43l72 147q-99 65 -150 182.5t-51 272.5zM297 518q0 -219 57 -323l340 700q-56 47 -143 47
q-75 0 -127 -33.5t-78.5 -96t-37.5 -133t-11 -161.5zM811 504q0 192 -49 301l-336 -692q52 -37 131 -37q74 0 125.5 34t78.5 96t38.5 134t11.5 164z" />
    <glyph glyph-name="ugrave" unicode="&#xf9;" horiz-adv-x="1234" 
d="M387 1026v-702q0 -109 39 -159t147 -50q115 0 191 71.5t76 204.5v529l-140 14v80l334 12v-930l133 -14v-82h-297l-10 174h-8q-48 -85 -135 -141t-209 -56q-163 0 -239 84.5t-76 264.5v594l-136 14v80zM551 1548l135 -385l-47 -24l-223 272q-39 45 -39 82q0 43 32 62.5
t72 9.5z" />
    <glyph glyph-name="uacute" unicode="&#xfa;" horiz-adv-x="1234" 
d="M387 1026v-702q0 -109 39 -159t147 -50q115 0 191 71.5t76 204.5v529l-140 14v80l334 12v-930l133 -14v-82h-297l-10 174h-8q-48 -85 -135 -141t-209 -56q-163 0 -239 84.5t-76 264.5v594l-136 14v80zM481 1169l140 373l75 23q36 8 67.5 -10.5t31.5 -59.5q0 -35 -41 -86
l-228 -266z" />
    <glyph glyph-name="ucircumflex" unicode="&#xfb;" horiz-adv-x="1234" 
d="M387 1026v-702q0 -109 39 -159t147 -50q115 0 191 71.5t76 204.5v529l-140 14v80l334 12v-930l133 -14v-82h-297l-10 174h-8q-48 -85 -135 -141t-209 -56q-163 0 -239 84.5t-76 264.5v594l-136 14v80zM319 1186l218 342q31 22 77 22q28 0 48.5 -12.5t39.5 -46.5l168 -305
l-49 -37l-227 221l-225 -223z" />
    <glyph glyph-name="udieresis" unicode="&#xfc;" horiz-adv-x="1234" 
d="M387 1026v-702q0 -109 39 -159t147 -50q115 0 191 71.5t76 204.5v529l-140 14v80l334 12v-930l133 -14v-82h-297l-10 174h-8q-48 -85 -135 -141t-209 -56q-163 0 -239 84.5t-76 264.5v594l-136 14v80zM272 1346q0 45 29.5 76.5t81.5 31.5q50 0 81.5 -27t31.5 -81
q0 -51 -29 -82t-82 -31q-58 0 -85.5 33t-27.5 80zM672 1346q0 45 29 76.5t81 31.5q50 0 81.5 -27t31.5 -81q0 -51 -29 -82t-82 -31q-59 0 -85.5 32.5t-26.5 80.5z" />
    <glyph glyph-name="yacute" unicode="&#xfd;" horiz-adv-x="1032" 
d="M10 936v82h453v-82l-141 -8l237 -699h8l236 699l-141 8v82h364v-82l-102 -8l-392 -1086q-21 -59 -38 -97t-41 -75t-51.5 -57t-67 -32.5t-90.5 -12.5q-100 0 -168 50.5t-68 143.5q0 60 36 102t99 42q52 0 84 -34t33 -101l-78 -43q-6 -37 16 -53.5t66 -16.5q61 0 91.5 48
t88.5 216l19 58l-361 948zM426 1169l139 373l76 23q36 8 67 -10.5t31 -59.5q0 -35 -41 -86l-227 -266z" />
    <glyph glyph-name="thorn" unicode="&#xfe;" horiz-adv-x="1189" 
d="M182 1432l-133 14v78l328 12v-668q44 74 128.5 123t201.5 49q190 0 289.5 -132t99.5 -390q0 -259 -119.5 -400t-312.5 -141q-184 0 -287 86v-372l250 -19v-82h-578v82l133 15v1745zM641 913q-130 0 -211 -100q-53 -67 -53 -170v-311q0 -114 69.5 -183t186.5 -69
q132 0 189 104.5t57 317.5q0 210 -51.5 310.5t-186.5 100.5z" />
    <glyph glyph-name="ydieresis" unicode="&#xff;" horiz-adv-x="1032" 
d="M10 936v82h453v-82l-141 -8l237 -699h8l236 699l-141 8v82h364v-82l-102 -8l-392 -1086q-21 -59 -38 -97t-41 -75t-51.5 -57t-67 -32.5t-90.5 -12.5q-100 0 -168 50.5t-68 143.5q0 60 36 102t99 42q52 0 84 -34t33 -101l-78 -43q-6 -37 16 -53.5t66 -16.5q61 0 91.5 48
t88.5 216l19 58l-361 948zM227 1346q0 45 29.5 76.5t81.5 31.5q50 0 81.5 -27t31.5 -81q0 -51 -29 -82t-82 -31q-58 0 -85.5 33t-27.5 80zM627 1346q0 45 29 76.5t81 31.5q50 0 81.5 -27t31.5 -81q0 -51 -29 -82t-82 -31q-59 0 -85.5 32.5t-26.5 80.5z" />
    <glyph glyph-name="Amacron" unicode="&#x100;" horiz-adv-x="1390" 
d="M991 96l-117 346h-481l-125 -346l166 -16v-80h-428v80l144 16l512 1350h75l494 -1350l153 -16v-80h-565v80zM643 1108l-211 -555h410l-193 555h-6zM426 1591v144h557v-144h-557z" />
    <glyph glyph-name="amacron" unicode="&#x101;" horiz-adv-x="1042" 
d="M524 537h142v139q0 142 -44.5 210t-160.5 68q-172 0 -172 -86q0 -6 4 -26h67q13 -54 13 -74q0 -51 -32.5 -80t-84.5 -29q-56 0 -87.5 33t-31.5 94q0 112 101 183t254 71q195 0 281.5 -87.5t86.5 -299.5v-467q0 -66 13.5 -90t50.5 -24q30 0 67 12l19 -70q-66 -34 -150 -34
q-82 0 -127 34t-57 111q-47 -70 -126.5 -109t-174.5 -39q-129 0 -208 63.5t-79 199.5q0 297 436 297zM449 90q84 0 150.5 51.5t66.5 139.5v170h-115q-133 0 -190.5 -51.5t-57.5 -147.5q0 -80 33.5 -121t112.5 -41zM221 1266v143h557v-143h-557z" />
    <glyph glyph-name="Abreve" unicode="&#x102;" horiz-adv-x="1390" 
d="M991 96l-117 346h-481l-125 -346l166 -16v-80h-428v80l144 16l512 1350h75l494 -1350l153 -16v-80h-565v80zM643 1108l-211 -555h410l-193 555h-6zM410 1810l82 17q30 -85 73.5 -123.5t143.5 -38.5q99 0 143 38t72 120l77 -13q-6 -49 -24.5 -94.5t-52.5 -89t-92.5 -70
t-133.5 -26.5q-60 0 -108 18t-79 45.5t-53 66t-32.5 75t-15.5 75.5z" />
    <glyph glyph-name="abreve" unicode="&#x103;" horiz-adv-x="1042" 
d="M524 537h142v139q0 142 -44.5 210t-160.5 68q-172 0 -172 -86q0 -6 4 -26h67q13 -54 13 -74q0 -51 -32.5 -80t-84.5 -29q-56 0 -87.5 33t-31.5 94q0 112 101 183t254 71q195 0 281.5 -87.5t86.5 -299.5v-467q0 -66 13.5 -90t50.5 -24q30 0 67 12l19 -70q-66 -34 -150 -34
q-82 0 -127 34t-57 111q-47 -70 -126.5 -109t-174.5 -39q-129 0 -208 63.5t-79 199.5q0 297 436 297zM449 90q84 0 150.5 51.5t66.5 139.5v170h-115q-133 0 -190.5 -51.5t-57.5 -147.5q0 -80 33.5 -121t112.5 -41zM207 1509l82 17q29 -109 74 -153t145 -44q99 0 146 48
t71 147l78 -13q-4 -58 -23 -112.5t-53.5 -103t-94 -78t-134.5 -29.5q-74 0 -130 27t-88.5 74.5t-49.5 101t-23 118.5z" />
    <glyph glyph-name="Aogonek" unicode="&#x104;" horiz-adv-x="1390" 
d="M991 96l-117 346h-481l-125 -346l166 -16v-80h-428v80l144 16l512 1344h75l494 -1344l153 -16v-80h-219q-77 -63 -121.5 -125.5t-44.5 -136.5q0 -86 78 -86q37 0 59.5 14.5t45.5 44.5l53 -39q-21 -35 -41.5 -58.5t-66 -45t-105.5 -21.5q-91 0 -139.5 42.5t-48.5 117.5
q0 142 229 293h-244v80zM643 1102l-211 -549h410l-193 549h-6z" />
    <glyph glyph-name="aogonek" unicode="&#x105;" horiz-adv-x="1042" 
d="M524 537h142v139q0 142 -44.5 210t-160.5 68q-172 0 -172 -86q0 -6 4 -26h67q13 -54 13 -74q0 -51 -32.5 -80t-84.5 -29q-56 0 -87.5 33t-31.5 94q0 112 101 183t254 71q195 0 281.5 -87.5t86.5 -299.5v-467q0 -66 13.5 -90t50.5 -24q30 0 67 12l19 -70q-13 -7 -39.5 -20
t-42.5 -21q-67 -36 -110.5 -97.5t-43.5 -127.5q0 -96 78 -96q36 0 58 14.5t46 44.5l54 -39q-21 -35 -41.5 -58.5t-66 -45t-105.5 -21.5q-91 0 -140 42.5t-49 117.5q0 132 205 277q-120 15 -137 141q-47 -70 -126.5 -109t-174.5 -39q-129 0 -208 63.5t-79 199.5
q0 297 436 297zM449 90q84 0 150.5 51.5t66.5 139.5v170h-115q-133 0 -190.5 -51.5t-57.5 -147.5q0 -80 33.5 -121t112.5 -41z" />
    <glyph glyph-name="Cacute" unicode="&#x106;" horiz-adv-x="1333" 
d="M758 1356q-434 0 -434 -635q0 -305 112.5 -474t329.5 -169q164 0 258 83t139 275h72l-14 -436h-68q-18 34 -29 41q-10 6 -24 6q-12 0 -63.5 -17.5t-130 -35t-156.5 -17.5q-152 0 -272 43t-208 131.5t-135 232t-47 335.5q0 178 51.5 319.5t142.5 232t212 138t264 47.5
q70 0 141.5 -15t120.5 -30.5t65 -15.5q21 0 31.5 9.5t22.5 33.5h63l15 -428h-72q-43 191 -134 268.5t-253 77.5zM557 1554l285 301l73 -22q70 -20 70 -80q0 -32 -20.5 -52t-59.5 -38l-309 -154z" />
    <glyph glyph-name="cacute" unicode="&#x107;" horiz-adv-x="1003" 
d="M590 944q-145 0 -219 -109t-74 -315q0 -207 67.5 -314.5t221.5 -107.5q180 0 256 183l90 -31q-10 -32 -26.5 -64.5t-48.5 -71.5t-72.5 -68t-103 -49t-136.5 -20q-222 0 -341.5 134t-119.5 368q0 270 137 415.5t363 145.5q154 0 252 -76.5t98 -199.5q0 -85 -42 -126.5
t-106 -41.5q-56 0 -93.5 32.5t-37.5 86.5q0 49 21 90h69q7 28 7 45q0 94 -162 94zM438 1169l140 373l75 23q36 8 67.5 -10.5t31.5 -59.5q0 -35 -41 -86l-228 -266z" />
    <glyph glyph-name="Ccircumflex" unicode="&#x108;" horiz-adv-x="1333" 
d="M758 1356q-434 0 -434 -635q0 -305 112.5 -474t329.5 -169q164 0 258 83t139 275h72l-14 -436h-68q-18 34 -29 41q-10 6 -24 6q-12 0 -63.5 -17.5t-130 -35t-156.5 -17.5q-152 0 -272 43t-208 131.5t-135 232t-47 335.5q0 178 51.5 319.5t142.5 232t212 138t264 47.5
q70 0 141.5 -15t120.5 -30.5t65 -15.5q21 0 31.5 9.5t22.5 33.5h63l15 -428h-72q-43 191 -134 268.5t-253 77.5zM430 1563l270 270q32 16 62 16q18 0 33 -7.5t24.5 -16t32.5 -33.5l211 -227l-43 -54l-268 175l-283 -177z" />
    <glyph glyph-name="ccircumflex" unicode="&#x109;" horiz-adv-x="1003" 
d="M590 944q-145 0 -219 -109t-74 -315q0 -207 67.5 -314.5t221.5 -107.5q180 0 256 183l90 -31q-10 -32 -26.5 -64.5t-48.5 -71.5t-72.5 -68t-103 -49t-136.5 -20q-222 0 -341.5 134t-119.5 368q0 270 137 415.5t363 145.5q154 0 252 -76.5t98 -199.5q0 -85 -42 -126.5
t-106 -41.5q-56 0 -93.5 32.5t-37.5 86.5q0 49 21 90h69q7 28 7 45q0 94 -162 94zM274 1186l218 342q31 22 77 22q28 0 48.5 -12.5t39.5 -46.5l168 -305l-49 -37l-227 221l-225 -223z" />
    <glyph glyph-name="Cdotaccent" unicode="&#x10a;" horiz-adv-x="1333" 
d="M758 1356q-434 0 -434 -635q0 -305 112.5 -474t329.5 -169q164 0 258 83t139 275h72l-14 -436h-68q-18 34 -29 41q-10 6 -24 6q-12 0 -63.5 -17.5t-130 -35t-156.5 -17.5q-152 0 -272 43t-208 131.5t-135 232t-47 335.5q0 178 51.5 319.5t142.5 232t212 138t264 47.5
q70 0 141.5 -15t120.5 -30.5t65 -15.5q21 0 31.5 9.5t22.5 33.5h63l15 -428h-72q-43 191 -134 268.5t-253 77.5zM618 1677q0 57 32 92t95 35q129 0 129 -125q0 -60 -32.5 -92.5t-93.5 -32.5q-68 0 -99 33.5t-31 89.5z" />
    <glyph glyph-name="cdotaccent" unicode="&#x10b;" horiz-adv-x="1003" 
d="M590 944q-145 0 -219 -109t-74 -315q0 -207 67.5 -314.5t221.5 -107.5q180 0 256 183l90 -31q-10 -32 -26.5 -64.5t-48.5 -71.5t-72.5 -68t-103 -49t-136.5 -20q-222 0 -341.5 134t-119.5 368q0 270 137 415.5t363 145.5q154 0 252 -76.5t98 -199.5q0 -85 -42 -126.5
t-106 -41.5q-56 0 -93.5 32.5t-37.5 86.5q0 49 21 90h69q7 28 7 45q0 94 -162 94zM424 1366q0 57 32 92t95 35q129 0 129 -125q0 -60 -33 -92.5t-94 -32.5q-68 0 -98.5 33.5t-30.5 89.5z" />
    <glyph glyph-name="Ccaron" unicode="&#x10c;" horiz-adv-x="1333" 
d="M758 1356q-434 0 -434 -635q0 -305 112.5 -474t329.5 -169q164 0 258 83t139 275h72l-14 -436h-68q-18 34 -29 41q-10 6 -24 6q-12 0 -63.5 -17.5t-130 -35t-156.5 -17.5q-152 0 -272 43t-208 131.5t-135 232t-47 335.5q0 178 51.5 319.5t142.5 232t212 138t264 47.5
q70 0 141.5 -15t120.5 -30.5t65 -15.5q21 0 31.5 9.5t22.5 33.5h63l15 -428h-72q-43 191 -134 268.5t-253 77.5zM1075 1804l-270 -270q-32 -16 -62 -16q-18 0 -33 7.5t-24.5 16t-32.5 33.5l-211 227l43 58l275 -179l276 177z" />
    <glyph glyph-name="ccaron" unicode="&#x10d;" horiz-adv-x="1003" 
d="M590 944q-145 0 -219 -109t-74 -315q0 -207 67.5 -314.5t221.5 -107.5q180 0 256 183l90 -31q-10 -32 -26.5 -64.5t-48.5 -71.5t-72.5 -68t-103 -49t-136.5 -20q-222 0 -341.5 134t-119.5 368q0 270 137 415.5t363 145.5q154 0 252 -76.5t98 -199.5q0 -85 -42 -126.5
t-106 -41.5q-56 0 -93.5 32.5t-37.5 86.5q0 49 21 90h69q7 28 7 45q0 94 -162 94zM487 1186l-208 332l49 38l231 -221l232 221l43 -32l-181 -301q-21 -35 -41 -47.5t-47 -12.5q-46 0 -78 23z" />
    <glyph glyph-name="Dcaron" unicode="&#x10e;" horiz-adv-x="1474" 
d="M1376 741q0 -169 -43 -298.5t-117.5 -212.5t-184.5 -135.5t-233 -73.5t-274 -21h-448v82l176 14v1243l-176 13v82h506q153 0 274.5 -23t220 -74.5t164 -131.5t100.5 -196.5t35 -267.5zM467 92h90q579 0 582 637q0 120 -16 212t-50.5 160t-84 113.5t-121 73t-155 39.5
t-192.5 12h-53v-1247zM967 1804l-271 -270q-32 -16 -61 -16q-18 0 -33 7.5t-24.5 16t-32.5 33.5l-211 227l43 58l274 -179l277 177z" />
    <glyph glyph-name="dcaron" unicode="&#x10f;" horiz-adv-x="1341" 
d="M1016 1536v-1440l143 -14v-82h-319l-17 154q-111 -177 -325 -177q-196 0 -298 137t-102 375q0 259 118 405t321 146q180 0 284 -112v502l-164 16v78zM557 102q108 0 186 75.5t78 184.5v340q0 101 -63 164q-73 70 -180 70q-75 0 -127.5 -29.5t-82 -87.5t-42.5 -133
t-13 -176q0 -67 5.5 -121t21 -109.5t42 -93t71 -61t104.5 -23.5zM1159 1071l-47 51q102 94 102 178q0 79 -96 146l43 53q37 43 80 43q54 0 82.5 -42t28.5 -101q0 -82 -50.5 -168.5t-142.5 -159.5z" />
    <glyph glyph-name="Dcroat" unicode="&#x110;" horiz-adv-x="1474" 
d="M66 686v98h186v555l-176 13v82h506q153 0 274.5 -23t220 -74.5t164 -131.5t100.5 -196.5t35 -267.5q0 -169 -43 -298.5t-117.5 -212.5t-184.5 -135.5t-233 -73.5t-274 -21h-448v82l176 14v590h-186zM467 92h90q582 0 582 637q0 179 -36.5 298t-116.5 187.5t-191 96.5
t-275 28h-53v-555h377v-98h-377v-594z" />
    <glyph glyph-name="dcroat" unicode="&#x111;" horiz-adv-x="1206" 
d="M1016 1536v-262h149v-100h-149v-1078l143 -14v-82h-319l-17 154q-111 -177 -325 -177q-195 0 -297.5 131t-102.5 349q0 253 117.5 392.5t321.5 139.5q180 0 284 -112v297h-381v100h381v156l-164 16v78zM557 102q108 0 186 75.5t78 184.5v289q0 101 -63 164
q-73 70 -180 70q-146 0 -205.5 -103.5t-59.5 -306.5q0 -60 5.5 -108.5t21 -99.5t42 -86t71 -57t104.5 -22z" />
    <glyph glyph-name="Emacron" unicode="&#x112;" horiz-adv-x="1267" 
d="M90 1434h1008l16 -385h-76q-16 77 -37 127t-48.5 84t-72 51.5t-97.5 24.5t-134 7h-182v-563h106q121 0 169.5 52t72.5 192h64v-606h-68q-13 86 -27.5 132.5t-44 77.5t-71.5 40.5t-115 9.5h-86v-584h180q119 0 195.5 17t128 61.5t78.5 111t45 175.5h75l-16 -459h-1063v80
l162 16v1241l-162 17v80zM354 1591v144h557v-144h-557z" />
    <glyph glyph-name="emacron" unicode="&#x113;" horiz-adv-x="1030" 
d="M84 496q0 -240 116 -379.5t343 -139.5q153 0 253.5 72t141.5 197l-90 30q-39 -91 -101 -133.5t-165 -42.5q-152 0 -218.5 105.5t-66.5 304.5h651q4 58 4 86q0 222 -103 333t-292 111q-207 0 -340 -145.5t-133 -398.5zM754 618h-457q10 143 75 235.5t179 92.5
q203 0 203 -282v-46zM272 1266v143h557v-143h-557z" />
    <glyph glyph-name="Ebreve" unicode="&#x114;" horiz-adv-x="1267" 
d="M90 1434h1008l16 -385h-76q-16 77 -37 127t-48.5 84t-72 51.5t-97.5 24.5t-134 7h-182v-563h106q121 0 169.5 52t72.5 192h64v-606h-68q-13 86 -27.5 132.5t-44 77.5t-71.5 40.5t-115 9.5h-86v-584h180q119 0 195.5 17t128 61.5t78.5 111t45 175.5h75l-16 -459h-1063v80
l162 16v1241l-162 17v80zM338 1810l82 17q30 -85 73.5 -123.5t143.5 -38.5q99 0 143 38t72 120l78 -13q-6 -49 -24.5 -94.5t-52.5 -89t-92.5 -70t-133.5 -26.5q-74 0 -130 26t-87.5 69.5t-48.5 89t-23 95.5z" />
    <glyph glyph-name="ebreve" unicode="&#x115;" horiz-adv-x="1030" 
d="M84 496q0 253 133 398.5t340 145.5q189 0 292 -111t103 -333q0 -28 -4 -86h-651q0 -199 66.5 -304.5t218.5 -105.5q103 0 165 42.5t101 133.5l90 -30q-41 -125 -141.5 -197t-253.5 -72q-227 0 -343 139.5t-116 379.5zM297 618h457v46q0 282 -203 282q-114 0 -179 -92.5
t-75 -235.5zM258 1509l82 17q29 -109 74 -153t145 -44q99 0 146 48t71 147l78 -13q-4 -58 -23 -112.5t-53.5 -103t-94 -78t-134.5 -29.5q-74 0 -130 27t-88.5 74.5t-49.5 101t-23 118.5z" />
    <glyph glyph-name="Edotaccent" unicode="&#x116;" horiz-adv-x="1267" 
d="M90 1434h1008l16 -385h-76q-16 77 -37 127t-48.5 84t-72 51.5t-97.5 24.5t-134 7h-182v-563h106q121 0 169.5 52t72.5 192h64v-606h-68q-13 86 -27.5 132.5t-44 77.5t-71.5 40.5t-115 9.5h-86v-584h180q119 0 195.5 17t128 61.5t78.5 111t45 175.5h75l-16 -459h-1063v80
l162 16v1241l-162 17v80zM502 1677q0 57 32 92t95 35q129 0 129 -125q0 -60 -33 -92.5t-94 -32.5q-68 0 -98.5 33.5t-30.5 89.5z" />
    <glyph glyph-name="edotaccent" unicode="&#x117;" horiz-adv-x="1030" 
d="M84 496q0 253 133 398.5t340 145.5q189 0 292 -111t103 -333q0 -28 -4 -86h-651q0 -199 66.5 -304.5t218.5 -105.5q103 0 165 42.5t101 133.5l90 -30q-41 -125 -141.5 -197t-253.5 -72q-227 0 -343 139.5t-116 379.5zM297 618h457v46q0 282 -203 282q-114 0 -179 -92.5
t-75 -235.5zM424 1366q0 57 32 92t95 35q129 0 129 -125q0 -60 -33 -92.5t-94 -32.5q-68 0 -98.5 33.5t-30.5 89.5z" />
    <glyph glyph-name="Eogonek" unicode="&#x118;" horiz-adv-x="1267" 
d="M90 1434h1008l16 -385h-76q-16 77 -37 127t-48.5 84t-72 51.5t-97.5 24.5t-134 7h-182v-563h106q121 0 169.5 52t72.5 192h64v-606h-68q-13 86 -27.5 132.5t-44 77.5t-71.5 40.5t-115 9.5h-86v-584h180q119 0 195.5 17t128 61.5t78.5 111t45 175.5h75l-16 -459
q-118 -25 -189 -99t-71 -153q0 -96 78 -96q36 0 58 14.5t46 44.5l53 -39q-21 -35 -41.5 -58.5t-66 -45t-105.5 -21.5q-91 0 -139.5 42.5t-48.5 117.5q0 161 244 293h-881v80l162 16v1241l-162 17v80z" />
    <glyph glyph-name="eogonek" unicode="&#x119;" horiz-adv-x="1030" 
d="M84 496q0 253 133 398.5t340 145.5q189 0 292 -111t103 -333q0 -28 -4 -86h-651q0 -199 66.5 -304.5t218.5 -105.5q103 0 165 42.5t101 133.5l90 -30q-49 -140 -203 -240q-184 -123 -184 -268q0 -86 78 -86q36 0 58 14.5t46 44.5l53 -39q-21 -35 -41.5 -58.5t-66 -45
t-105.5 -21.5q-91 0 -139.5 42.5t-48.5 117.5q0 133 199 273q-6 0 -20 -1.5t-21 -1.5q-227 0 -343 139.5t-116 379.5zM297 618h457v46q0 282 -203 282q-114 0 -179 -92.5t-75 -235.5z" />
    <glyph glyph-name="Ecaron" unicode="&#x11a;" horiz-adv-x="1267" 
d="M90 1434h1008l16 -385h-76q-16 77 -37 127t-48.5 84t-72 51.5t-97.5 24.5t-134 7h-182v-563h106q121 0 169.5 52t72.5 192h64v-606h-68q-13 86 -27.5 132.5t-44 77.5t-71.5 40.5t-115 9.5h-86v-584h180q119 0 195.5 17t128 61.5t78.5 111t45 175.5h75l-16 -459h-1063v80
l162 16v1241l-162 17v80zM958 1804l-270 -270q-32 -16 -61 -16q-18 0 -33 7.5t-24.5 16t-32.5 33.5l-211 227l43 58l274 -179l277 177z" />
    <glyph glyph-name="ecaron" unicode="&#x11b;" horiz-adv-x="1030" 
d="M84 496q0 253 133 398.5t340 145.5q189 0 292 -111t103 -333q0 -28 -4 -86h-651q0 -199 66.5 -304.5t218.5 -105.5q103 0 165 42.5t101 133.5l90 -30q-41 -125 -141.5 -197t-253.5 -72q-227 0 -343 139.5t-116 379.5zM297 618h457v46q0 282 -203 282q-114 0 -179 -92.5
t-75 -235.5zM475 1186l-209 332l49 38l232 -221l231 221l43 -32l-180 -301q-21 -35 -41 -47.5t-47 -12.5q-46 0 -78 23z" />
    <glyph glyph-name="Gcircumflex" unicode="&#x11c;" horiz-adv-x="1447" 
d="M758 1356q-434 0 -434 -641q0 -306 112 -471.5t330 -165.5q80 0 154 40t110 105v283l-188 16v80h538v-80l-135 -14v-514h-65q-9 18 -15.5 27.5t-22 18.5t-36.5 9q-25 0 -78 -18t-127 -36t-151 -18q-152 0 -272 43t-208 130.5t-135 229t-47 329.5q0 181 53 325t146 235
t214.5 139t262.5 48q72 0 139 -15t114 -29.5t70 -14.5q21 0 31.5 9t22.5 32h61l15 -428h-74q-47 185 -133 265.5t-252 80.5zM438 1563l271 270q32 16 61 16q18 0 33 -7.5t24.5 -16t32.5 -33.5l211 -227l-43 -54l-268 175l-283 -177z" />
    <glyph glyph-name="gcircumflex" unicode="&#x11d;" horiz-adv-x="1028" 
d="M717 983q38 43 88 72.5t100 29.5q36 0 64 -14v-115l-193 -28q105 -105 105 -250q0 -170 -109 -269.5t-274 -99.5q-50 0 -117 13q-52 -47 -74 -73.5t-22 -47.5q0 -27 18.5 -35t65.5 -8h192q78 0 134.5 -5.5t111.5 -22t89.5 -45.5t55.5 -77.5t21 -116.5q0 -79 -26.5 -137
t-86 -101t-160.5 -64t-245 -21q-114 0 -195.5 15.5t-129.5 45.5t-69.5 69t-21.5 91q0 78 38 125.5t103 85.5q-71 33 -71 113q0 19 4 36.5t15.5 36t19.5 30.5t30.5 33t32 30t40 34.5t40.5 34.5q-95 33 -146 115.5t-51 191.5q0 77 25.5 146t74.5 122.5t127.5 85t176.5 31.5
q136 0 219 -57zM530 -33h-280q-51 -69 -51 -139q0 -39 12 -65.5t43.5 -48t93.5 -32t156 -10.5q159 0 239 39t80 133q0 33 -13 55.5t-34.5 36t-61 20.5t-80 9t-104.5 2zM293 678q0 -146 53 -209t150 -63q190 0 190 276q0 144 -50 206t-142 62q-88 0 -144.5 -65.5
t-56.5 -206.5zM233 1186l218 342q31 22 77 22q28 0 48.5 -12.5t39.5 -46.5l168 -305l-49 -37l-227 221l-225 -223z" />
    <glyph glyph-name="Gbreve" unicode="&#x11e;" horiz-adv-x="1447" 
d="M758 1356q-434 0 -434 -641q0 -306 112 -471.5t330 -165.5q80 0 154 40t110 105v283l-188 16v80h538v-80l-135 -14v-514h-65q-9 18 -15.5 27.5t-22 18.5t-36.5 9q-25 0 -78 -18t-127 -36t-151 -18q-152 0 -272 43t-208 130.5t-135 229t-47 329.5q0 181 53 325t146 235
t214.5 139t262.5 48q72 0 139 -15t114 -29.5t70 -14.5q21 0 31.5 9t22.5 32h61l15 -428h-74q-47 185 -133 265.5t-252 80.5zM463 1810l82 17q30 -85 73.5 -123.5t143.5 -38.5q99 0 143 38t72 120l78 -13q-6 -49 -24.5 -94.5t-52.5 -89t-92.5 -70t-133.5 -26.5q-74 0 -130 26
t-87.5 69.5t-48.5 89t-23 95.5z" />
    <glyph glyph-name="gbreve" unicode="&#x11f;" horiz-adv-x="1028" 
d="M717 983q38 43 88 72.5t100 29.5q36 0 64 -14v-115l-193 -28q105 -105 105 -250q0 -170 -109 -269.5t-274 -99.5q-50 0 -117 13q-52 -47 -74 -73.5t-22 -47.5q0 -27 18.5 -35t65.5 -8h192q78 0 134.5 -5.5t111.5 -22t89.5 -45.5t55.5 -77.5t21 -116.5q0 -79 -26.5 -137
t-86 -101t-160.5 -64t-245 -21q-114 0 -195.5 15.5t-129.5 45.5t-69.5 69t-21.5 91q0 78 38 125.5t103 85.5q-71 33 -71 113q0 19 4 36.5t15.5 36t19.5 30.5t30.5 33t32 30t40 34.5t40.5 34.5q-95 33 -146 115.5t-51 191.5q0 77 25.5 146t74.5 122.5t127.5 85t176.5 31.5
q136 0 219 -57zM530 -33h-280q-51 -69 -51 -139q0 -39 12 -65.5t43.5 -48t93.5 -32t156 -10.5q159 0 239 39t80 133q0 33 -13 55.5t-34.5 36t-61 20.5t-80 9t-104.5 2zM293 678q0 -146 53 -209t150 -63q190 0 190 276q0 144 -50 206t-142 62q-88 0 -144.5 -65.5
t-56.5 -206.5zM213 1509l82 17q29 -109 74 -153t145 -44q99 0 146 48t71 147l78 -13q-4 -58 -23 -112.5t-53.5 -103t-94 -78t-134.5 -29.5q-74 0 -130 27t-88.5 74.5t-49.5 101t-23 118.5z" />
    <glyph glyph-name="Gdotaccent" unicode="&#x120;" horiz-adv-x="1447" 
d="M758 1356q-434 0 -434 -641q0 -306 112 -471.5t330 -165.5q80 0 154 40t110 105v283l-188 16v80h538v-80l-135 -14v-514h-65q-9 18 -15.5 27.5t-22 18.5t-36.5 9q-25 0 -78 -18t-127 -36t-151 -18q-152 0 -272 43t-208 130.5t-135 229t-47 329.5q0 181 53 325t146 235
t214.5 139t262.5 48q72 0 139 -15t114 -29.5t70 -14.5q21 0 31.5 9t22.5 32h61l15 -428h-74q-47 185 -133 265.5t-252 80.5zM627 1677q0 57 32 92t95 35q129 0 129 -125q0 -60 -33 -92.5t-94 -32.5q-68 0 -98.5 33.5t-30.5 89.5z" />
    <glyph glyph-name="gdotaccent" unicode="&#x121;" horiz-adv-x="1028" 
d="M717 983q38 43 88 72.5t100 29.5q36 0 64 -14v-115l-193 -28q105 -105 105 -250q0 -170 -109 -269.5t-274 -99.5q-50 0 -117 13q-52 -47 -74 -73.5t-22 -47.5q0 -27 18.5 -35t65.5 -8h192q78 0 134.5 -5.5t111.5 -22t89.5 -45.5t55.5 -77.5t21 -116.5q0 -79 -26.5 -137
t-86 -101t-160.5 -64t-245 -21q-114 0 -195.5 15.5t-129.5 45.5t-69.5 69t-21.5 91q0 78 38 125.5t103 85.5q-71 33 -71 113q0 19 4 36.5t15.5 36t19.5 30.5t30.5 33t32 30t40 34.5t40.5 34.5q-95 33 -146 115.5t-51 191.5q0 77 25.5 146t74.5 122.5t127.5 85t176.5 31.5
q136 0 219 -57zM530 -33h-280q-51 -69 -51 -139q0 -39 12 -65.5t43.5 -48t93.5 -32t156 -10.5q159 0 239 39t80 133q0 33 -13 55.5t-34.5 36t-61 20.5t-80 9t-104.5 2zM293 678q0 -146 53 -209t150 -63q190 0 190 276q0 144 -50 206t-142 62q-88 0 -144.5 -65.5
t-56.5 -206.5zM379 1366q0 57 32 92t95 35q129 0 129 -125q0 -60 -33 -92.5t-94 -32.5q-68 0 -98.5 33.5t-30.5 89.5z" />
    <glyph glyph-name="Gcommaaccent" unicode="&#x122;" horiz-adv-x="1447" 
d="M758 1356q-434 0 -434 -641q0 -306 112 -471.5t330 -165.5q80 0 154 40t110 105v283l-188 16v80h538v-80l-135 -14v-514h-65q-9 18 -15.5 27.5t-22 18.5t-36.5 9q-25 0 -78 -18t-127 -36t-151 -18q-152 0 -272 43t-208 130.5t-135 229t-47 329.5q0 181 53 325t146 235
t214.5 139t262.5 48q72 0 139 -15t114 -29.5t70 -14.5q21 0 31.5 9t22.5 32h61l15 -428h-74q-47 185 -133 265.5t-252 80.5zM690 -573l-49 47q69 68 90 106t21 72q0 41 -39 47l-45 -47q-68 27 -68 102q0 46 34 77.5t87 31.5q67 0 101 -46t34 -112q0 -77 -38 -142t-128 -136z
" />
    <glyph glyph-name="gcommaaccent" unicode="&#x123;" horiz-adv-x="1028" 
d="M717 983q38 43 88 72.5t100 29.5q36 0 64 -14v-115l-193 -28q105 -105 105 -250q0 -170 -109 -269.5t-274 -99.5q-50 0 -117 13q-52 -47 -74 -73.5t-22 -47.5q0 -27 18.5 -35t65.5 -8h192q78 0 134.5 -5.5t111.5 -22t89.5 -45.5t55.5 -77.5t21 -116.5q0 -79 -26.5 -137
t-86 -101t-160.5 -64t-245 -21q-114 0 -195.5 15.5t-129.5 45.5t-69.5 69t-21.5 91q0 78 38 125.5t103 85.5q-71 33 -71 113q0 19 4 36.5t15.5 36t19.5 30.5t30.5 33t32 30t40 34.5t40.5 34.5q-95 33 -146 115.5t-51 191.5q0 77 25.5 146t74.5 122.5t127.5 85t176.5 31.5
q136 0 219 -57zM530 -33h-280q-51 -69 -51 -139q0 -39 12 -65.5t43.5 -48t93.5 -32t156 -10.5q159 0 239 39t80 133q0 33 -13 55.5t-34.5 36t-61 20.5t-80 9t-104.5 2zM293 678q0 -146 53 -209t150 -63q190 0 190 276q0 144 -50 206t-142 62q-88 0 -144.5 -65.5
t-56.5 -206.5zM432 1548l49 51q92 -70 129 -135.5t37 -146.5q0 -65 -37 -110.5t-106 -45.5q-51 0 -86 30.5t-35 76.5q0 37 23 63.5t53 34.5l47 -47q41 7 41 47q0 24 -5 43t-32 55.5t-78 83.5z" />
    <glyph glyph-name="Hcircumflex" unicode="&#x124;" horiz-adv-x="1570" 
d="M467 1339v-551h637v549l-162 15v82h539v-80l-162 -15v-1243l162 -16v-80h-539v80l162 16v582h-637v-582l162 -16v-80h-539v80l162 16v1241l-162 15v82h539v-80zM465 1563l270 270q32 16 62 16q18 0 33 -7.5t24.5 -16t32.5 -33.5l211 -227l-43 -54l-269 175l-282 -177z
" />
    <glyph glyph-name="hcircumflex" unicode="&#x125;" horiz-adv-x="1243" 
d="M57 1524l338 12v-569l-8 -129h8q46 87 134.5 144.5t211.5 57.5q162 0 237 -84t75 -264v-596l135 -14v-82h-465v82l135 14v594q0 111 -38.5 162t-149.5 51q-116 0 -194.5 -73.5t-78.5 -206.5v-527l140 -14v-82h-480v82l146 14v1334l-146 14v80zM-70 1651l271 270
q32 16 61 16q18 0 33 -7.5t24.5 -16t32.5 -33.5l211 -227l-43 -54l-268 175l-283 -177z" />
    <glyph glyph-name="Hbar" unicode="&#x126;" horiz-adv-x="1570" 
d="M467 1339v-225h637v223l-162 15v82h539v-80l-162 -15v-225h172v-98h-172v-920l162 -16v-80h-539v80l162 16v582h-637v-582l162 -16v-80h-539v80l162 16v920h-172v98h172v223l-162 15v82h539v-80zM467 788h637v228h-637v-228z" />
    <glyph glyph-name="hbar" unicode="&#x127;" horiz-adv-x="1243" 
d="M57 1524l338 12v-262h383v-100h-383v-259l-8 -129h8q46 87 134.5 145t211.5 58q162 0 237 -84t75 -264v-545l135 -14v-82h-465v82l135 14v543q0 111 -38.5 162t-149.5 51q-115 0 -194 -74t-79 -207v-475l140 -14v-82h-480v82l146 14v1078h-156v100h156v156l-146 14v80z
" />
    <glyph glyph-name="Itilde" unicode="&#x128;" horiz-adv-x="718" 
d="M252 94v1243l-162 15v82h539v-80l-162 -15v-1243l162 -14v-82h-539v80zM489 1544q-74 0 -182 47q-83 33 -121 33q-29 0 -52.5 -19t-45.5 -71l-59 18q29 99 79.5 149t135.5 50q16 0 30 -1t28.5 -4t23.5 -5t24.5 -8t21.5 -8.5t24 -10.5t24 -10q79 -31 121 -31q36 0 57.5 18
t42.5 70l57 -16q-55 -201 -209 -201z" />
    <glyph glyph-name="itilde" unicode="&#x129;" horiz-adv-x="622" 
d="M66 1014l348 12v-930l155 -14v-82h-503v82l153 14v824l-153 14v80zM379 1233q-51 0 -136.5 40t-125.5 40q-30 0 -53.5 -19t-45.5 -71l-59 18q59 199 195 199q53 0 134.5 -39t121.5 -39q36 0 57.5 18t42.5 70l57 -16q-55 -201 -188 -201z" />
    <glyph glyph-name="Imacron" unicode="&#x12a;" horiz-adv-x="718" 
d="M252 94v1243l-162 15v82h539v-80l-162 -15v-1243l162 -14v-82h-539v80zM80 1591v144h557v-144h-557z" />
    <glyph glyph-name="imacron" unicode="&#x12b;" horiz-adv-x="622" 
d="M66 1014l348 12v-930l155 -14v-82h-503v82l153 14v824l-153 14v80zM-12 1266v143h557v-143h-557z" />
    <glyph glyph-name="Ibreve" unicode="&#x12c;" horiz-adv-x="718" 
d="M252 94v1243l-162 15v82h539v-80l-162 -15v-1243l162 -14v-82h-539v80zM63 1810l82 17q30 -85 73.5 -123.5t143.5 -38.5q99 0 143.5 38t72.5 120l77 -13q-6 -49 -24.5 -94.5t-52.5 -89t-92.5 -70t-133.5 -26.5q-74 0 -130 26t-87.5 69.5t-48.5 89t-23 95.5z" />
    <glyph glyph-name="ibreve" unicode="&#x12d;" horiz-adv-x="622" 
d="M66 1014l348 12v-930l155 -14v-82h-503v82l153 14v824l-153 14v80zM-27 1509l82 17q29 -109 74 -153t145 -44q99 0 146.5 48.5t71.5 146.5l77 -13q-4 -58 -23 -112.5t-53.5 -103t-94 -78t-134.5 -29.5q-74 0 -130 27t-88.5 74.5t-49.5 101t-23 118.5z" />
    <glyph glyph-name="Iogonek" unicode="&#x12e;" horiz-adv-x="718" 
d="M252 94v1243l-162 15v82h539v-80l-162 -15v-1243l162 -14v-82h-137q-77 -63 -121.5 -125.5t-44.5 -136.5q0 -86 77 -86q37 0 59.5 14.5t45.5 44.5l53 -39q-21 -35 -41.5 -58.5t-66 -45t-105.5 -21.5q-91 0 -139.5 42.5t-48.5 117.5q0 142 229 293h-299v80z" />
    <glyph glyph-name="iogonek" unicode="&#x12f;" horiz-adv-x="622" 
d="M66 1014l348 12v-930l155 -14v-82h-127q-77 -63 -121.5 -125.5t-44.5 -136.5q0 -86 78 -86q37 0 59.5 14.5t45.5 44.5l53 -39q-21 -35 -41.5 -58.5t-66 -45t-105.5 -21.5q-91 0 -139.5 42.5t-48.5 117.5q0 142 229 293h-274v82l153 14v824l-153 14v80zM166 1366
q0 57 32 92t95 35q129 0 129 -125q0 -60 -33 -92.5t-94 -32.5q-68 0 -98.5 33.5t-30.5 89.5z" />
    <glyph glyph-name="Idotaccent" unicode="&#x130;" horiz-adv-x="718" 
d="M252 94v1243l-162 15v82h539v-80l-162 -15v-1243l162 -14v-82h-539v80zM227 1677q0 57 32 92t95 35q129 0 129 -125q0 -60 -33 -92.5t-94 -32.5q-68 0 -98.5 33.5t-30.5 89.5z" />
    <glyph glyph-name="dotlessi" unicode="&#x131;" horiz-adv-x="622" 
d="M66 1014l348 12v-930l155 -14v-82h-503v82l153 14v824l-153 14v80z" />
    <glyph glyph-name="IJ" unicode="&#x132;" horiz-adv-x="1665" 
d="M252 94v1243l-162 15v82h539v-80l-162 -15v-1243l162 -14v-82h-539v80zM1055 1434h563v-80l-154 -13v-892q0 -222 -98 -347t-289 -125q-147 0 -224 65.5t-77 174.5q0 81 42 123.5t100 42.5q55 0 87.5 -29t32.5 -88q0 -38 -14 -84h-70q-4 -16 -4 -26q0 -36 33.5 -57
t99.5 -21q94 0 130 55t36 176v1030l-194 15v80z" />
    <glyph glyph-name="Jcircumflex" unicode="&#x134;" horiz-adv-x="946" 
d="M336 1434h563v-80l-154 -13v-892q0 -222 -98 -347t-289 -125q-147 0 -224 65.5t-77 174.5q0 81 42 123.5t100 42.5q55 0 87.5 -29t32.5 -88q0 -38 -14 -84h-69q-5 -20 -5 -26q0 -36 34 -57t100 -21q94 0 129.5 54.5t35.5 176.5v1030l-194 15v80zM299 1563l270 270
q32 16 62 16q18 0 33 -7.5t24.5 -16t32.5 -33.5l211 -227l-43 -54l-268 175l-283 -177z" />
    <glyph glyph-name="jcircumflex" unicode="&#x135;" horiz-adv-x="563" 
d="M59 -365q30 0 53 9t38.5 22t26 40.5t16 51t8.5 68t3.5 77t0.5 91.5v926l-154 14v80l348 12v-938q0 -71 -7 -136t-30.5 -142t-61.5 -132.5t-105.5 -93t-157.5 -37.5q-103 0 -171.5 49t-68.5 140q0 58 34.5 97.5t96.5 39.5q46 0 78.5 -29t38.5 -82l-70 -41q-4 -86 84 -86z
M-39 1186l217 342q31 22 78 22q28 0 48.5 -12.5t39.5 -46.5l168 -305l-49 -37l-227 221l-226 -223z" />
    <glyph glyph-name="Kcommaaccent" unicode="&#x136;" horiz-adv-x="1370" 
d="M98 1434h523v-80l-154 -15v-573l82 20l455 553l-154 15v80h430v-80l-139 -15l-426 -514l516 -731l123 -14v-80h-529v80l146 14l-412 586l-92 -25v-559l154 -14v-82h-523v82l154 14v1243l-154 15v80zM651 -573l-49 47q69 68 90 106t21 72q0 41 -39 47l-45 -47
q-68 27 -68 102q0 46 34 77.5t87 31.5q67 0 101 -46t34 -112q0 -77 -38 -142t-128 -136z" />
    <glyph glyph-name="kcommaaccent" unicode="&#x137;" horiz-adv-x="1161" 
d="M66 1524l331 12v-1440l133 -14v-82h-464v82l137 14v1334l-137 14v80zM608 612l416 -518l111 -12v-82h-451v80l102 8v10l-366 455v20l366 347v12l-127 8v78h420v-82l-145 -14zM539 -573l-50 47q69 68 90 106t21 72q0 41 -39 47l-45 -47q-67 26 -67 102q0 47 33.5 78
t86.5 31q67 0 101.5 -46t34.5 -112q0 -77 -38 -142t-128 -136z" />
    <glyph glyph-name="kgreenlandic" unicode="&#x138;" horiz-adv-x="1161" 
d="M66 1016l331 12v-932l133 -14v-82h-464v82l137 14v826l-137 14v80zM608 612l416 -518l111 -12v-82h-451v80l102 8v10l-366 455v20l366 347v12l-127 8v78h420v-82l-145 -14z" />
    <glyph glyph-name="Lacute" unicode="&#x139;" horiz-adv-x="1212" 
d="M90 1434h594v-80l-217 -19v-1241h127q82 0 139.5 5.5t108 20.5t83.5 40t60.5 66.5t44.5 97.5t29 135h74l-19 -459h-1024v80l162 16v1239l-162 17v82zM180 1554l285 301l74 -22q69 -19 69 -80q0 -32 -20.5 -52t-59.5 -38l-309 -154z" />
    <glyph glyph-name="lacute" unicode="&#x13a;" horiz-adv-x="600" 
d="M57 1524l340 12v-1440l156 -14v-82h-496v82l146 14v1334l-146 14v80zM55 1659l285 301l74 -23q69 -19 69 -79q0 -32 -21 -52.5t-59 -38.5l-309 -153z" />
    <glyph glyph-name="Lcommaaccent" unicode="&#x13b;" horiz-adv-x="1212" 
d="M90 1434h594v-80l-217 -19v-1241h127q82 0 139.5 5.5t108 20.5t83.5 40t60.5 66.5t44.5 97.5t29 135h74l-19 -459h-1024v80l162 16v1239l-162 17v82zM602 -573l-49 47q69 68 90 106t21 72q0 41 -39 47l-45 -47q-68 27 -68 102q0 46 34 77.5t87 31.5q67 0 101 -46t34 -112
q0 -77 -38 -142t-128 -136z" />
    <glyph glyph-name="lcommaaccent" unicode="&#x13c;" horiz-adv-x="600" 
d="M57 1524l340 12v-1440l156 -14v-82h-496v82l146 14v1334l-146 14v80zM266 -573l-49 47q69 68 90 106t21 72q0 41 -39 47l-45 -47q-68 27 -68 102q0 46 34 77.5t87 31.5q67 0 101 -46t34 -112q0 -77 -38 -142t-128 -136z" />
    <glyph glyph-name="Lcaron" unicode="&#x13d;" horiz-adv-x="1212" 
d="M90 1434h594v-80l-217 -19v-1241h127q82 0 139.5 5.5t108 20.5t83.5 40t60.5 66.5t44.5 97.5t29 135h74l-19 -459h-1024v80l162 16v1239l-162 17v82zM834 981l-48 51q103 95 103 178q0 79 -96 146l43 53q37 43 79 43q54 0 82.5 -42t28.5 -101q0 -82 -50 -168.5
t-142 -159.5z" />
    <glyph glyph-name="lcaron" unicode="&#x13e;" horiz-adv-x="706" 
d="M57 1524l340 12v-1440l156 -14v-82h-496v82l146 14v1334l-146 14v80zM524 1071l-47 51q103 95 103 178q0 79 -97 146l43 53q37 43 80 43q54 0 82.5 -42t28.5 -101q0 -82 -50.5 -168.5t-142.5 -159.5z" />
    <glyph glyph-name="Ldot" unicode="&#x13f;" horiz-adv-x="1212" 
d="M90 1434h594v-80l-217 -19v-1241h127q82 0 139.5 5.5t108 20.5t83.5 40t60.5 66.5t44.5 97.5t29 135h74l-19 -459h-1024v80l162 16v1239l-162 17v82zM797 778q0 -56 30.5 -89.5t98.5 -33.5q61 0 94 32.5t33 92.5q0 125 -129 125q-63 0 -95 -35t-32 -92z" />
    <glyph glyph-name="ldot" unicode="&#x140;" horiz-adv-x="696" 
d="M57 1524l340 12v-1440l156 -14v-82h-496v82l146 14v1334l-146 14v80zM516 821q0 -56 30.5 -89.5t98.5 -33.5q61 0 94 32.5t33 92.5q0 125 -129 125q-63 0 -95 -35t-32 -92z" />
    <glyph glyph-name="Lslash" unicode="&#x141;" horiz-adv-x="1212" 
d="M90 1434h594v-80l-217 -19v-514l338 191l24 -105l-362 -202v-611h127q82 0 139.5 5.5t108 20.5t83.5 40t60.5 66.5t44.5 97.5t29 135h74l-19 -459h-1024v80l162 16v510l-166 -96l-25 102l191 109v614l-162 17v82z" />
    <glyph glyph-name="lslash" unicode="&#x142;" horiz-adv-x="600" 
d="M57 1524l340 12v-604l162 104l19 -106l-181 -119v-715l156 -14v-82h-496v82l146 14v615l-156 -101l-22 105l178 116v599l-146 14v80z" />
    <glyph glyph-name="Nacute" unicode="&#x143;" horiz-adv-x="1478" 
d="M1268 1337v-1351h-103l-792 1337h-8v-1229l153 -12v-82h-399v82l133 12v1243l-133 15v82h430l598 -1028h8v931l-133 15v82h379v-82zM612 1554l285 301l74 -22q69 -19 69 -80q0 -32 -20.5 -52t-58.5 -38l-310 -154z" />
    <glyph glyph-name="nacute" unicode="&#x144;" horiz-adv-x="1251" 
d="M78 1014l293 14l14 -194h6q50 87 140.5 146.5t218.5 59.5q162 0 236.5 -83.5t74.5 -264.5v-596l135 -14v-82h-465v82l135 14v594q0 111 -38.5 162t-149.5 51q-114 0 -193 -70t-79 -190v-547l139 -14v-82h-467v82l133 14v824l-133 14v80zM551 1169l139 373l76 23
q36 8 67 -10.5t31 -59.5q0 -35 -41 -86l-227 -266z" />
    <glyph glyph-name="Ncommaaccent" unicode="&#x145;" horiz-adv-x="1478" 
d="M1268 1337v-1351h-103l-792 1337h-8v-1229l153 -12v-82h-399v82l133 12v1243l-133 15v82h430l598 -1028h8v931l-133 15v82h379v-82zM721 -573l-49 47q69 68 89.5 106t20.5 72q0 41 -39 47l-45 -47q-67 26 -67 102q0 46 34 77.5t87 31.5q67 0 101 -46t34 -112
q0 -77 -38 -142t-128 -136z" />
    <glyph glyph-name="ncommaaccent" unicode="&#x146;" horiz-adv-x="1251" 
d="M78 1014l293 14l14 -194h6q50 87 140.5 146.5t218.5 59.5q162 0 236.5 -83.5t74.5 -264.5v-596l135 -14v-82h-465v82l135 14v594q0 111 -38.5 162t-149.5 51q-114 0 -193 -70t-79 -190v-547l139 -14v-82h-467v82l133 14v824l-133 14v80zM592 -573l-49 47q69 68 89.5 106
t20.5 72q0 41 -39 47l-45 -47q-67 26 -67 102q0 46 34 77.5t87 31.5q67 0 101 -46t34 -112q0 -77 -38 -142t-128 -136z" />
    <glyph glyph-name="Ncaron" unicode="&#x147;" horiz-adv-x="1478" 
d="M1268 1337v-1351h-103l-792 1337h-8v-1229l153 -12v-82h-399v82l133 12v1243l-133 15v82h430l598 -1028h8v931l-133 15v82h379v-82zM1100 1804l-271 -270q-32 -16 -61 -16q-18 0 -33 7.5t-24.5 16t-32.5 33.5l-211 227l43 58l274 -179l277 177z" />
    <glyph glyph-name="ncaron" unicode="&#x148;" horiz-adv-x="1251" 
d="M78 1014l293 14l14 -194h6q50 87 140.5 146.5t218.5 59.5q162 0 236.5 -83.5t74.5 -264.5v-596l135 -14v-82h-465v82l135 14v594q0 111 -38.5 162t-149.5 51q-114 0 -193 -70t-79 -190v-547l139 -14v-82h-467v82l133 14v824l-133 14v80zM592 1186l-209 332l49 38
l232 -221l231 221l43 -32l-180 -301q-21 -35 -41 -47.5t-47 -12.5q-46 0 -78 23z" />
    <glyph glyph-name="napostrophe" unicode="&#x149;" horiz-adv-x="1251" 
d="M78 1014l293 14l14 -194h6q50 87 140.5 146.5t218.5 59.5q162 0 236.5 -83.5t74.5 -264.5v-596l135 -14v-82h-465v82l135 14v594q0 111 -38.5 162t-149.5 51q-114 0 -193 -70t-79 -190v-547l139 -14v-82h-467v82l133 14v824l-133 14v80zM-55 979l-49 47q69 68 89.5 106
t20.5 72q0 41 -39 47l-45 -47q-67 26 -67 103q0 46 33.5 77t86.5 31q67 0 101.5 -46t34.5 -112q0 -77 -38 -142t-128 -136z" />
    <glyph glyph-name="Eng" unicode="&#x14a;" horiz-adv-x="1478" 
d="M1268 1337v-1317q0 -221 -87.5 -346t-256.5 -125q-147 0 -224 65.5t-77 174.5q0 81 41.5 123.5t99.5 42.5q55 0 88 -29t33 -88q0 -34 -15 -84h-69q-4 -12 -4 -26q0 -36 33.5 -57t99.5 -21q94 0 130 55t36 176v221l-723 1221h-8v-1229l153 -12v-82h-399v82l133 12v1243
l-133 15v82h430l598 -1028h8v931l-133 15v82h379v-82z" />
    <glyph glyph-name="eng" unicode="&#x14b;" horiz-adv-x="1239" 
d="M721 -365q27 0 47.5 5.5t35.5 19.5t25.5 28.5t17.5 42.5t11 49.5t5.5 63t2 70t0.5 80.5v696q0 111 -38.5 162t-149.5 51q-114 0 -193 -70t-79 -190v-547l139 -14v-82h-467v82l133 14v824l-133 14v80l293 14l14 -194h6q50 87 140.5 146.5t218.5 59.5q162 0 236.5 -83.5
t74.5 -264.5v-604q0 -70 -7.5 -135.5t-31 -142.5t-61.5 -132.5t-105.5 -93t-157.5 -37.5q-103 0 -171 49t-68 140q0 58 34.5 97.5t96.5 39.5q46 0 78.5 -29t38.5 -82l-70 -41q-4 -86 84 -86z" />
    <glyph glyph-name="Omacron" unicode="&#x14c;" horiz-adv-x="1472" 
d="M1145 723q0 113 -9.5 202t-36.5 172.5t-70.5 138t-115.5 87.5t-168 33q-102 0 -177.5 -33t-121.5 -88t-73.5 -140t-37 -174.5t-9.5 -205.5q0 -88 7 -162.5t24 -149t48 -131t75.5 -101t110 -68t148.5 -23.5q96 0 168.5 33t117 89t72 140t38 175t10.5 206zM88 713
q0 336 184.5 539.5t479.5 203.5q292 0 462 -192.5t170 -532.5q0 -353 -169 -553.5t-480 -200.5q-312 0 -479.5 191t-167.5 545zM475 1591v144h557v-144h-557z" />
    <glyph glyph-name="omacron" unicode="&#x14d;" horiz-adv-x="1107" 
d="M811 504q0 72 -6 131.5t-23.5 118.5t-46 99t-75.5 64.5t-109 24.5q-75 0 -127 -33.5t-78.5 -96t-37.5 -133t-11 -161.5q0 -74 6.5 -134.5t24 -119.5t46 -99t75 -64.5t108.5 -24.5q74 0 125.5 34t78.5 96t38.5 134t11.5 164zM84 504q0 241 129.5 388.5t347.5 147.5
q153 0 258.5 -68t155 -185t49.5 -275q0 -242 -127 -388.5t-348 -146.5q-224 0 -344.5 143.5t-120.5 383.5zM279 1266v143h557v-143h-557z" />
    <glyph glyph-name="Obreve" unicode="&#x14e;" horiz-adv-x="1472" 
d="M1145 723q0 113 -9.5 202t-36.5 172.5t-70.5 138t-115.5 87.5t-168 33q-102 0 -177.5 -33t-121.5 -88t-73.5 -140t-37 -174.5t-9.5 -205.5q0 -88 7 -162.5t24 -149t48 -131t75.5 -101t110 -68t148.5 -23.5q96 0 168.5 33t117 89t72 140t38 175t10.5 206zM88 713
q0 336 184.5 539.5t479.5 203.5q292 0 462 -192.5t170 -532.5q0 -353 -169 -553.5t-480 -200.5q-312 0 -479.5 191t-167.5 545zM459 1810l82 17q30 -85 73.5 -123.5t143.5 -38.5q99 0 143 38t72 120l78 -13q-6 -49 -24.5 -94.5t-52.5 -89t-92.5 -70t-133.5 -26.5
q-74 0 -130 26t-87.5 69.5t-48.5 89t-23 95.5z" />
    <glyph glyph-name="obreve" unicode="&#x14f;" horiz-adv-x="1107" 
d="M811 504q0 72 -6 131.5t-23.5 118.5t-46 99t-75.5 64.5t-109 24.5q-75 0 -127 -33.5t-78.5 -96t-37.5 -133t-11 -161.5q0 -74 6.5 -134.5t24 -119.5t46 -99t75 -64.5t108.5 -24.5q74 0 125.5 34t78.5 96t38.5 134t11.5 164zM84 504q0 241 129.5 388.5t347.5 147.5
q153 0 258.5 -68t155 -185t49.5 -275q0 -242 -127 -388.5t-348 -146.5q-224 0 -344.5 143.5t-120.5 383.5zM264 1509l82 17q29 -109 74 -153t145 -44q99 0 146 48t71 147l78 -13q-4 -58 -23 -112.5t-53.5 -103t-94 -78t-134.5 -29.5q-74 0 -130 27t-88.5 74.5t-49.5 101
t-23 118.5z" />
    <glyph glyph-name="Ohungarumlaut" unicode="&#x150;" horiz-adv-x="1472" 
d="M1145 723q0 113 -9.5 202t-36.5 172.5t-70.5 138t-115.5 87.5t-168 33q-102 0 -177.5 -33t-121.5 -88t-73.5 -140t-37 -174.5t-9.5 -205.5q0 -88 7 -162.5t24 -149t48 -131t75.5 -101t110 -68t148.5 -23.5q96 0 168.5 33t117 89t72 140t38 175t10.5 206zM88 713
q0 336 184.5 539.5t479.5 203.5q292 0 462 -192.5t170 -532.5q0 -353 -169 -553.5t-480 -200.5q-312 0 -479.5 191t-167.5 545zM825 1552l236 336l80 -6q36 -3 58 -21t22 -49q0 -28 -15.5 -49t-50.5 -45l-287 -205zM518 1546l211 350h80q39 0 62.5 -18t23.5 -55
q0 -48 -57 -88l-273 -226z" />
    <glyph glyph-name="ohungarumlaut" unicode="&#x151;" horiz-adv-x="1107" 
d="M811 504q0 72 -6 131.5t-23.5 118.5t-46 99t-75.5 64.5t-109 24.5q-75 0 -127 -33.5t-78.5 -96t-37.5 -133t-11 -161.5q0 -74 6.5 -134.5t24 -119.5t46 -99t75 -64.5t108.5 -24.5q74 0 125.5 34t78.5 96t38.5 134t11.5 164zM84 504q0 241 129.5 388.5t347.5 147.5
q153 0 258.5 -68t155 -185t49.5 -275q0 -242 -127 -388.5t-348 -146.5q-224 0 -344.5 143.5t-120.5 383.5zM639 1171l141 388l80 16q41 8 69.5 -10t28.5 -60q0 -40 -40 -86l-226 -276zM336 1171l141 383l80 17q41 8 69.5 -10t28.5 -60q0 -38 -41 -86l-225 -272z" />
    <glyph glyph-name="OE" unicode="&#x152;" horiz-adv-x="2152" 
d="M88 713q0 336 184.5 539.5t479.5 203.5q131 0 237.5 -51t171.5 -143v172h821l17 -385h-76q-16 77 -37 127t-48.5 84t-72 51.5t-97.5 24.5t-134 7h-182v-563h106q121 0 169.5 52t72.5 192h63v-606h-67q-13 86 -27.5 132.5t-44 77.5t-71.5 40.5t-115 9.5h-86v-584h180
q119 0 195 17t127.5 61.5t78.5 111t45 175.5h76l-16 -459h-877v184q-70 -91 -182.5 -149t-251.5 -58q-306 0 -472.5 191.5t-166.5 544.5zM1145 723q0 113 -9.5 202t-36.5 172.5t-70.5 138t-115.5 87.5t-168 33q-102 0 -177.5 -33t-121.5 -88t-73.5 -140t-37 -174.5
t-9.5 -205.5q0 -88 7 -162.5t24 -149t48 -131t75.5 -101t110 -68t148.5 -23.5q96 0 168.5 33t117 89t72 140t38 175t10.5 206z" />
    <glyph glyph-name="oe" unicode="&#x153;" horiz-adv-x="1744" 
d="M84 504q0 241 129.5 388.5t347.5 147.5q256 0 357 -190q117 190 354 190q189 0 292 -111t103 -333q0 -26 -4 -84h-651q0 -98 15 -171.5t47.5 -128.5t88 -83.5t133.5 -28.5q104 0 166 42.5t101 133.5l90 -30q-41 -125 -142 -197t-254 -72q-251 0 -356 183
q-111 -183 -352 -183q-224 0 -344.5 143.5t-120.5 383.5zM811 504q0 72 -6 131.5t-23.5 118.5t-46 99t-75.5 64.5t-109 24.5q-75 0 -127 -33.5t-78.5 -96t-37.5 -133t-11 -161.5q0 -74 6.5 -134.5t24 -119.5t46 -99t75 -64.5t108.5 -24.5q74 0 125.5 34t78.5 96t38.5 134
t11.5 164zM1012 625h452v39q0 142 -47.5 212t-150.5 70q-115 0 -179.5 -89.5t-74.5 -231.5z" />
    <glyph glyph-name="Racute" unicode="&#x154;" horiz-adv-x="1359" 
d="M616 688h-149v-590l215 -16v-82h-604v82l174 16v1239l-174 17v80h485q85 0 151.5 -5t134.5 -18t117 -37.5t88 -61t59 -91.5t20 -127q0 -89 -28.5 -154t-84.5 -104.5t-127.5 -60t-167.5 -27.5v-7q199 -22 278.5 -98.5t79.5 -253.5v-182q0 -60 14 -85.5t64 -25.5
q49 0 68.5 40t36.5 145l84 -15q-16 -119 -38 -168q-55 -118 -218 -118q-129 0 -180.5 59t-51.5 188v262q0 105 -53.5 152t-192.5 47zM467 1337v-555h43q201 0 293 75t92 230q0 139 -87 194.5t-286 55.5h-55zM395 1554l285 301l74 -22q69 -19 69 -80q0 -32 -20.5 -52
t-59.5 -38l-309 -154z" />
    <glyph glyph-name="racute" unicode="&#x155;" horiz-adv-x="921" 
d="M397 96l221 -14v-82h-548v82l133 14v824l-133 14v80l295 12l14 -178h8q50 90 119.5 141t175.5 51q89 0 149 -50.5t60 -139.5q0 -81 -38 -120.5t-105 -39.5q-62 0 -97.5 37t-34.5 102l66 27q4 16 4 25q0 49 -68 49q-80 0 -150.5 -84.5t-70.5 -175.5v-574zM381 1169
l139 373l76 23q36 8 67 -10.5t31 -59.5q0 -35 -41 -86l-227 -266z" />
    <glyph glyph-name="Rcommaaccent" unicode="&#x156;" horiz-adv-x="1359" 
d="M616 688h-149v-590l215 -16v-82h-604v82l174 16v1239l-174 17v80h485q85 0 151.5 -5t134.5 -18t117 -37.5t88 -61t59 -91.5t20 -127q0 -89 -28.5 -154t-84.5 -104.5t-127.5 -60t-167.5 -27.5v-7q199 -22 278.5 -98.5t79.5 -253.5v-182q0 -60 14 -85.5t64 -25.5
q49 0 68.5 40t36.5 145l84 -15q-16 -119 -38 -168q-55 -118 -218 -118q-129 0 -180.5 59t-51.5 188v262q0 105 -53.5 152t-192.5 47zM467 1337v-555h43q201 0 293 75t92 230q0 139 -87 194.5t-286 55.5h-55zM645 -573l-49 47q69 68 90 106t21 72q0 41 -39 47l-45 -47
q-68 27 -68 102q0 46 34 77.5t87 31.5q67 0 101 -46t34 -112q0 -77 -38 -142t-128 -136z" />
    <glyph glyph-name="rcommaaccent" unicode="&#x157;" horiz-adv-x="921" 
d="M397 96l221 -14v-82h-548v82l133 14v824l-133 14v80l295 12l14 -178h8q50 90 119.5 141t175.5 51q89 0 149 -50.5t60 -139.5q0 -81 -38 -120.5t-105 -39.5q-62 0 -97.5 37t-34.5 102l66 27q4 16 4 25q0 49 -68 49q-80 0 -150.5 -84.5t-70.5 -175.5v-574zM270 -573l-49 47
q69 68 90 106t21 72q0 41 -39 47l-45 -47q-68 27 -68 102q0 46 34 77.5t87 31.5q67 0 101 -46t34 -112q0 -77 -38 -142t-128 -136z" />
    <glyph glyph-name="Rcaron" unicode="&#x158;" horiz-adv-x="1359" 
d="M616 688h-149v-590l215 -16v-82h-604v82l174 16v1239l-174 17v80h485q85 0 151.5 -5t134.5 -18t117 -37.5t88 -61t59 -91.5t20 -127q0 -89 -28.5 -154t-84.5 -104.5t-127.5 -60t-167.5 -27.5v-7q199 -22 278.5 -98.5t79.5 -253.5v-182q0 -60 14 -85.5t64 -25.5
q49 0 68.5 40t36.5 145l84 -15q-16 -119 -38 -168q-55 -118 -218 -118q-129 0 -180.5 59t-51.5 188v262q0 105 -53.5 152t-192.5 47zM467 1337v-555h43q201 0 293 75t92 230q0 139 -87 194.5t-286 55.5h-55zM913 1804l-270 -270q-32 -16 -61 -16q-18 0 -33 7.5t-24.5 16
t-32.5 33.5l-211 227l43 58l274 -179l276 177z" />
    <glyph glyph-name="rcaron" unicode="&#x159;" horiz-adv-x="921" 
d="M397 96l221 -14v-82h-548v82l133 14v824l-133 14v80l295 12l14 -178h8q50 90 119.5 141t175.5 51q89 0 149 -50.5t60 -139.5q0 -81 -38 -120.5t-105 -39.5q-62 0 -97.5 37t-34.5 102l66 27q4 16 4 25q0 49 -68 49q-80 0 -150.5 -84.5t-70.5 -175.5v-574zM408 1186
l-209 332l49 38l231 -221l232 221l43 -32l-181 -301q-21 -35 -41 -47.5t-47 -12.5q-45 0 -77 23z" />
    <glyph glyph-name="Sacute" unicode="&#x15a;" horiz-adv-x="1169" 
d="M586 76q161 0 249.5 72.5t88.5 201.5q0 57 -19.5 99.5t-41 68.5t-85.5 52t-103 37.5t-144 38.5q-1 0 -1.5 0.5t-1.5 0.5q-80 20 -133.5 39t-105.5 50t-82 70t-48 97t-18 135q0 80 26.5 153t78 133t137 96t192.5 36q70 0 130.5 -15t100.5 -30.5t58 -15.5q21 0 31.5 9.5
t22.5 33.5h61l14 -418h-75q-46 187 -128.5 263.5t-218.5 76.5q-126 0 -202 -61t-76 -162q0 -48 16.5 -86t42.5 -64.5t70 -49t86 -36.5t104 -31q50 -13 75.5 -20t71.5 -22t71.5 -27t63 -33t59 -41.5t47 -51t38.5 -64.5t22 -78t9 -95q0 -204 -125 -332.5t-352 -128.5
q-83 0 -152 15t-113 30t-67 15q-6 0 -10.5 -1.5t-8.5 -3t-7.5 -6t-5.5 -7t-5.5 -9.5t-5 -10.5t-5 -13t-5.5 -13.5h-64l-20 473h78q20 -76 39 -127.5t49.5 -101t69 -78t95.5 -46t132 -17.5zM428 1554l285 301l73 -22q70 -20 70 -80q0 -32 -20.5 -52t-59.5 -38l-309 -154z" />
    <glyph glyph-name="sacute" unicode="&#x15b;" horiz-adv-x="915" 
d="M100 -23v367h80q6 -88 53 -150t112.5 -89t141.5 -27q98 0 151.5 45.5t53.5 132.5q0 34 -8.5 60.5t-28.5 45t-39 31t-53.5 23t-57 15.5t-65.5 13q-135 27 -189 55q-128 69 -130 230q0 132 96.5 221.5t237.5 89.5q117 0 196 -47q21 -12 37 -12q32 0 35 59h68v-319h-80
q-58 225 -258 225q-80 0 -133.5 -42.5t-53.5 -108.5q0 -28 8 -50.5t28 -39t37 -27t53 -20.5t56.5 -15t65.5 -14q41 -8 67.5 -14.5t64.5 -19t62.5 -27t52 -38t43 -52.5t26 -70t10.5 -91q0 -148 -89.5 -244t-254.5 -96q-143 0 -269 76q-16 8 -24 8q-13 0 -21 -17.5t-12 -66.5
h-70zM379 1169l139 373l76 23q36 8 67 -10.5t31 -59.5q0 -35 -41 -86l-227 -266z" />
    <glyph glyph-name="Scircumflex" unicode="&#x15c;" horiz-adv-x="1169" 
d="M586 76q161 0 249.5 72.5t88.5 201.5q0 57 -19.5 99.5t-41 68.5t-85.5 52t-103 37.5t-144 38.5q-1 0 -1.5 0.5t-1.5 0.5q-80 20 -133.5 39t-105.5 50t-82 70t-48 97t-18 135q0 80 26.5 153t78 133t137 96t192.5 36q70 0 130.5 -15t100.5 -30.5t58 -15.5q21 0 31.5 9.5
t22.5 33.5h61l14 -418h-75q-46 187 -128.5 263.5t-218.5 76.5q-126 0 -202 -61t-76 -162q0 -48 16.5 -86t42.5 -64.5t70 -49t86 -36.5t104 -31q50 -13 75.5 -20t71.5 -22t71.5 -27t63 -33t59 -41.5t47 -51t38.5 -64.5t22 -78t9 -95q0 -204 -125 -332.5t-352 -128.5
q-83 0 -152 15t-113 30t-67 15q-6 0 -10.5 -1.5t-8.5 -3t-7.5 -6t-5.5 -7t-5.5 -9.5t-5 -10.5t-5 -13t-5.5 -13.5h-64l-20 473h78q20 -76 39 -127.5t49.5 -101t69 -78t95.5 -46t132 -17.5zM279 1563l270 270q32 16 61 16q18 0 33 -7.5t24.5 -16t32.5 -33.5l211 -227l-43 -54
l-268 175l-283 -177z" />
    <glyph glyph-name="scircumflex" unicode="&#x15d;" horiz-adv-x="915" 
d="M100 -23v367h80q6 -88 53 -150t112.5 -89t141.5 -27q98 0 151.5 45.5t53.5 132.5q0 34 -8.5 60.5t-28.5 45t-39 31t-53.5 23t-57 15.5t-65.5 13q-135 27 -189 55q-128 69 -130 230q0 132 96.5 221.5t237.5 89.5q117 0 196 -47q21 -12 37 -12q32 0 35 59h68v-319h-80
q-58 225 -258 225q-80 0 -133.5 -42.5t-53.5 -108.5q0 -28 8 -50.5t28 -39t37 -27t53 -20.5t56.5 -15t65.5 -14q41 -8 67.5 -14.5t64.5 -19t62.5 -27t52 -38t43 -52.5t26 -70t10.5 -91q0 -148 -89.5 -244t-254.5 -96q-143 0 -269 76q-16 8 -24 8q-13 0 -21 -17.5t-12 -66.5
h-70zM209 1186l217 342q31 22 78 22q28 0 48.5 -12.5t39.5 -46.5l168 -305l-49 -37l-228 221l-225 -223z" />
    <glyph glyph-name="Scedilla" unicode="&#x15e;" horiz-adv-x="1169" 
d="M586 76q161 0 249.5 72.5t88.5 201.5q0 57 -19.5 99.5t-41 68.5t-85.5 52t-103 37.5t-144 38.5q-1 0 -1.5 0.5t-1.5 0.5q-80 20 -133.5 39t-105.5 50t-82 70t-48 97t-18 135q0 80 26.5 153t78 133t137 96t192.5 36q70 0 130.5 -15t100.5 -30.5t58 -15.5q21 0 31.5 9.5
t22.5 33.5h61l14 -418h-75q-46 187 -128.5 263.5t-218.5 76.5q-126 0 -202 -61t-76 -162q0 -48 16.5 -86t42.5 -64.5t70 -49t86 -36.5t104 -31q50 -13 75.5 -20t71.5 -22t71.5 -27t63 -33t59 -41.5t47 -51t38.5 -64.5t22 -78t9 -95q0 -199 -119.5 -327t-337.5 -134l-51 -83
q21 6 51 6q86 0 132.5 -44.5t46.5 -119.5q0 -78 -60 -132.5t-174 -54.5q-82 0 -130 35t-48 84q0 34 18.5 53t46.5 19q57 0 70 -55l-35 -33q0 -43 74 -43q100 0 100 115q0 108 -100 108q-48 0 -78 -10l-12 43l69 115q-85 6 -168.5 31.5t-103.5 25.5q-6 0 -10.5 -1.5t-8.5 -3
t-7.5 -6t-5.5 -7t-5.5 -9.5t-5 -10.5t-5 -13t-5.5 -13.5h-64l-20 473h78q20 -76 39 -127.5t49.5 -101t69 -78t95.5 -46t132 -17.5z" />
    <glyph glyph-name="scedilla" unicode="&#x15f;" horiz-adv-x="915" 
d="M100 -23v367h80q6 -88 53 -150t112.5 -89t141.5 -27q98 0 151.5 45.5t53.5 132.5q0 34 -8.5 60.5t-28.5 45t-39 31t-53.5 23t-57 15.5t-65.5 13q-135 27 -189 55q-128 69 -130 230q0 132 96.5 221.5t237.5 89.5q117 0 196 -47q21 -12 37 -12q32 0 35 59h68v-319h-80
q-58 225 -258 225q-80 0 -133.5 -42.5t-53.5 -108.5q0 -33 13 -58.5t31.5 -41t52 -28t60.5 -19t71 -15.5q13 -3 20 -4q41 -8 67.5 -14.5t64.5 -19t62.5 -27t52 -38t43 -52.5t26 -70t10.5 -91q0 -96 -37.5 -171.5t-116 -121.5t-188.5 -47l-52 -83q21 6 52 6q86 0 132 -44.5
t46 -119.5q0 -78 -60 -132.5t-174 -54.5q-82 0 -130 35t-48 84q0 34 19 53t47 19q56 0 69 -55l-34 -33q0 -43 73 -43q101 0 101 115q0 108 -101 108q-48 0 -78 -10l-12 43l72 119q-107 13 -193 69q-16 8 -24 8q-13 0 -21 -17.5t-12 -66.5h-70z" />
    <glyph glyph-name="Scaron" unicode="&#x160;" horiz-adv-x="1169" 
d="M586 76q161 0 249.5 72.5t88.5 201.5q0 57 -19.5 99.5t-41 68.5t-85.5 52t-103 37.5t-144 38.5q-1 0 -1.5 0.5t-1.5 0.5q-80 20 -133.5 39t-105.5 50t-82 70t-48 97t-18 135q0 80 26.5 153t78 133t137 96t192.5 36q70 0 130.5 -15t100.5 -30.5t58 -15.5q21 0 31.5 9.5
t22.5 33.5h61l14 -418h-75q-46 187 -128.5 263.5t-218.5 76.5q-126 0 -202 -61t-76 -162q0 -48 16.5 -86t42.5 -64.5t70 -49t86 -36.5t104 -31q50 -13 75.5 -20t71.5 -22t71.5 -27t63 -33t59 -41.5t47 -51t38.5 -64.5t22 -78t9 -95q0 -204 -125 -332.5t-352 -128.5
q-83 0 -152 15t-113 30t-67 15q-6 0 -10.5 -1.5t-8.5 -3t-7.5 -6t-5.5 -7t-5.5 -9.5t-5 -10.5t-5 -13t-5.5 -13.5h-64l-20 473h78q20 -76 39 -127.5t49.5 -101t69 -78t95.5 -46t132 -17.5zM913 1804l-270 -270q-32 -16 -61 -16q-18 0 -33 7.5t-24.5 16t-32.5 33.5l-211 227
l43 58l274 -179l276 177z" />
    <glyph glyph-name="scaron" unicode="&#x161;" horiz-adv-x="915" 
d="M100 -23v367h80q6 -88 53 -150t112.5 -89t141.5 -27q98 0 151.5 45.5t53.5 132.5q0 34 -8.5 60.5t-28.5 45t-39 31t-53.5 23t-57 15.5t-65.5 13q-135 27 -189 55q-128 69 -130 230q0 132 96.5 221.5t237.5 89.5q117 0 196 -47q21 -12 37 -12q32 0 35 59h68v-319h-80
q-58 225 -258 225q-80 0 -133.5 -42.5t-53.5 -108.5q0 -28 8 -50.5t28 -39t37 -27t53 -20.5t56.5 -15t65.5 -14q41 -8 67.5 -14.5t64.5 -19t62.5 -27t52 -38t43 -52.5t26 -70t10.5 -91q0 -148 -89.5 -244t-254.5 -96q-143 0 -269 76q-16 8 -24 8q-13 0 -21 -17.5t-12 -66.5
h-70zM383 1186l-209 332l49 38l232 -221l231 221l43 -32l-180 -301q-21 -35 -41 -47.5t-47 -12.5q-46 0 -78 23z" />
    <glyph glyph-name="uni0162" unicode="&#x162;" horiz-adv-x="1302" 
d="M1225 1434l20 -412h-80q-12 64 -26 110t-29.5 81t-39 57t-48 36.5t-63.5 21t-76.5 9t-96.5 2.5h-26v-1243l194 -14v-82h-262l-65 -106q21 6 51 6q86 0 132 -44.5t46 -119.5q0 -79 -59.5 -133t-173.5 -54q-82 0 -130.5 35t-48.5 84q0 34 19 53t47 19q57 0 70 -55l-35 -33
q0 -43 73 -43q101 0 101 115q0 108 -101 108q-47 0 -77 -10l-13 43l82 135h-260v82l195 14v1243h-29q-59 0 -96.5 -2.5t-76.5 -9t-63.5 -21t-48 -36.5t-39 -57t-29.5 -81t-26 -110h-80l21 412h1147z" />
    <glyph glyph-name="uni0163" unicode="&#x163;" horiz-adv-x="776" 
d="M203 219v699h-154v100h154v264l147 41h47v-305h226v-100h-226v-666q0 -86 24 -122t83 -36t96 35.5t62 126.5l77 -20q-30 -126 -91 -187.5t-173 -68.5l-51 -86q21 6 51 6q86 0 132 -44.5t46 -119.5q0 -79 -59.5 -133t-173.5 -54q-82 0 -130 35t-48 84q0 34 18.5 53
t46.5 19q57 0 70 -55l-35 -33q0 -43 74 -43q100 0 100 115q0 108 -100 108q-48 0 -78 -10l-12 43l69 115q-192 22 -192 239z" />
    <glyph glyph-name="Tcaron" unicode="&#x164;" horiz-adv-x="1302" 
d="M1225 1434l20 -412h-80q-12 64 -26 110t-29.5 81t-39 57t-48 36.5t-63.5 21t-76.5 9t-96.5 2.5h-26v-1243l194 -14v-82h-604v82l195 14v1243h-29q-59 0 -96.5 -2.5t-76.5 -9t-63.5 -21t-48 -36.5t-39 -57t-29.5 -81t-26 -110h-80l21 412h1147zM977 1804l-270 -270
q-32 -16 -62 -16q-18 0 -33 7.5t-24.5 16t-32.5 33.5l-211 227l43 58l275 -179l276 177z" />
    <glyph glyph-name="tcaron" unicode="&#x165;" horiz-adv-x="776" 
d="M203 219v699h-154v100h154v264l147 41h47v-305h226v-100h-226v-666q0 -86 24 -122t83 -36t96 35.5t62 126.5l77 -20q-32 -134 -100.5 -196.5t-196.5 -62.5q-114 0 -176.5 59t-62.5 183zM535 1114l-48 51q103 95 103 178q0 79 -96 146l43 53q37 43 79 43q54 0 82.5 -42
t28.5 -101q0 -82 -50 -168.5t-142 -159.5z" />
    <glyph glyph-name="Tbar" unicode="&#x166;" horiz-adv-x="1302" 
d="M1225 1434l20 -412h-80q-12 64 -26 110t-29.5 81t-39 57t-48 36.5t-63.5 21t-76.5 9t-96.5 2.5h-26v-559h317v-98h-317v-586l194 -14v-82h-604v82l195 14v586h-320v98h320v559h-29q-59 0 -96.5 -2.5t-76.5 -9t-63.5 -21t-48 -36.5t-39 -57t-29.5 -81t-26 -110h-80l21 412
h1147z" />
    <glyph glyph-name="tbar" unicode="&#x167;" horiz-adv-x="776" 
d="M47 600v90h156v228h-154v100h154v264l147 41h47v-305h226v-100h-226v-228h228v-90h-228v-348q0 -86 24 -122t83 -36t96 35.5t62 126.5l77 -20q-32 -134 -100.5 -196.5t-196.5 -62.5q-114 0 -176.5 59t-62.5 183v381h-156z" />
    <glyph glyph-name="Utilde" unicode="&#x168;" horiz-adv-x="1472" 
d="M784 84q-97 0 -165 28t-105 82t-52.5 120t-15.5 153v872l154 13v82h-522v-82l153 -13v-895q0 -129 35 -220.5t103.5 -145t160 -77.5t215.5 -24q137 0 234 32.5t154 97.5t82.5 151.5t25.5 204.5v874l148 15v82h-416v-82l153 -15v-880q0 -192 -81.5 -282.5t-260.5 -90.5z
M911 1544q-74 0 -182 47q-83 33 -121 33q-29 0 -52.5 -19t-45.5 -71l-59 18q29 99 79.5 149t135.5 50q16 0 30 -1t28.5 -4t23.5 -5t24.5 -8t21.5 -8.5t24 -10.5t24 -10q79 -31 121 -31q36 0 57.5 18t42.5 70l57 -16q-55 -201 -209 -201z" />
    <glyph glyph-name="utilde" unicode="&#x169;" horiz-adv-x="1234" 
d="M387 1026v-702q0 -109 39 -159t147 -50q115 0 191 71.5t76 204.5v529l-140 14v80l334 12v-930l133 -14v-82h-297l-10 174h-8q-48 -85 -135 -141t-209 -56q-163 0 -239 84.5t-76 264.5v594l-136 14v80zM723 1233q-74 0 -182 47q-82 33 -121 33q-29 0 -52.5 -19t-45.5 -71
l-60 18q29 99 79.5 149t135.5 50q16 0 30 -1t28.5 -4t23.5 -5t24.5 -8t21.5 -8.5t24 -10.5t24 -10q79 -31 121 -31q36 0 57.5 18t42.5 70l58 -16q-55 -201 -209 -201z" />
    <glyph glyph-name="Umacron" unicode="&#x16a;" horiz-adv-x="1472" 
d="M784 84q-97 0 -165 28t-105 82t-52.5 120t-15.5 153v872l154 13v82h-522v-82l153 -13v-895q0 -129 35 -220.5t103.5 -145t160 -77.5t215.5 -24q137 0 234 32.5t154 97.5t82.5 151.5t25.5 204.5v874l148 15v82h-416v-82l153 -15v-880q0 -192 -81.5 -282.5t-260.5 -90.5z
M502 1591v144h557v-144h-557z" />
    <glyph glyph-name="umacron" unicode="&#x16b;" horiz-adv-x="1234" 
d="M387 1026v-702q0 -109 39 -159t147 -50q115 0 191 71.5t76 204.5v529l-140 14v80l334 12v-930l133 -14v-82h-297l-10 174h-8q-48 -85 -135 -141t-209 -56q-163 0 -239 84.5t-76 264.5v594l-136 14v80zM311 1266v143h557v-143h-557z" />
    <glyph glyph-name="Ubreve" unicode="&#x16c;" horiz-adv-x="1472" 
d="M784 84q179 0 260.5 90.5t81.5 282.5v880l-153 15v82h416v-82l-148 -15v-874q0 -118 -25.5 -204.5t-82.5 -151.5t-154 -97.5t-234 -32.5q-124 0 -215.5 24t-160 77.5t-103.5 145t-35 220.5v895l-153 13v82h522v-82l-154 -13v-872q0 -87 15.5 -153t52.5 -120t105 -82
t165 -28zM485 1810l82 17q30 -85 73.5 -123.5t143.5 -38.5q99 0 143 38t72 120l78 -13q-6 -49 -24.5 -94.5t-52.5 -89t-92.5 -70t-133.5 -26.5q-74 0 -130 26t-87.5 69.5t-48.5 89t-23 95.5z" />
    <glyph glyph-name="ubreve" unicode="&#x16d;" horiz-adv-x="1234" 
d="M387 1026v-702q0 -109 39 -159t147 -50q115 0 191 71.5t76 204.5v529l-140 14v80l334 12v-930l133 -14v-82h-297l-10 174h-8q-48 -85 -135 -141t-209 -56q-163 0 -239 84.5t-76 264.5v594l-136 14v80zM297 1509l82 17q29 -109 74 -153t145 -44q99 0 146 48t71 147l78 -13
q-4 -58 -23 -112.5t-53.5 -103t-94 -78t-134.5 -29.5q-74 0 -130 27t-88.5 74.5t-49.5 101t-23 118.5z" />
    <glyph glyph-name="Uring" unicode="&#x16e;" horiz-adv-x="1472" 
d="M784 84q-97 0 -165 28t-105 82t-52.5 120t-15.5 153v872l154 13v82h-522v-82l153 -13v-895q0 -129 35 -220.5t103.5 -145t160 -77.5t215.5 -24q137 0 234 32.5t154 97.5t82.5 151.5t25.5 204.5v874l148 15v82h-416v-82l153 -15v-880q0 -192 -81.5 -282.5t-260.5 -90.5z
M670 1716q0 -53 26.5 -88t85.5 -35q56 0 81.5 34t25.5 89q0 51 -27.5 86t-83.5 35q-54 0 -81 -35.5t-27 -85.5zM561 1716q0 87 58 146t165 59q103 0 159 -54.5t56 -146.5q0 -96 -57.5 -154.5t-161.5 -58.5q-110 0 -164.5 55.5t-54.5 153.5z" />
    <glyph glyph-name="uring" unicode="&#x16f;" horiz-adv-x="1234" 
d="M387 1026v-702q0 -109 39 -159t147 -50q115 0 191 71.5t76 204.5v529l-140 14v80l334 12v-930l133 -14v-82h-297l-10 174h-8q-48 -85 -135 -141t-209 -56q-163 0 -239 84.5t-76 264.5v594l-136 14v80zM489 1343q0 -52 26.5 -87t86.5 -35q56 0 81.5 33.5t25.5 88.5
q0 51 -27.5 86t-83.5 35q-54 0 -81.5 -35.5t-27.5 -85.5zM381 1343q0 87 58 146t165 59q103 0 159 -54t56 -146q0 -96 -57.5 -154.5t-161.5 -58.5q-110 0 -164.5 55.5t-54.5 152.5z" />
    <glyph glyph-name="Uhungarumlaut" unicode="&#x170;" horiz-adv-x="1472" 
d="M784 84q-97 0 -165 28t-105 82t-52.5 120t-15.5 153v872l154 13v82h-522v-82l153 -13v-895q0 -129 35 -220.5t103.5 -145t160 -77.5t215.5 -24q137 0 234 32.5t154 97.5t82.5 151.5t25.5 204.5v874l148 15v82h-416v-82l153 -15v-880q0 -192 -81.5 -282.5t-260.5 -90.5z
M831 1552l236 336l80 -6q36 -3 58 -21t22 -49q0 -28 -15.5 -49t-50.5 -45l-287 -205zM524 1546l211 350h80q39 0 62.5 -18t23.5 -55q0 -48 -57 -88l-273 -226z" />
    <glyph glyph-name="uhungarumlaut" unicode="&#x171;" horiz-adv-x="1234" 
d="M387 1026v-702q0 -109 39 -159t147 -50q115 0 191 71.5t76 204.5v529l-140 14v80l334 12v-930l133 -14v-82h-297l-10 174h-8q-48 -85 -135 -141t-209 -56q-163 0 -239 84.5t-76 264.5v594l-136 14v80zM653 1171l142 388l79 16q41 8 70 -10t29 -60q0 -38 -41 -86
l-225 -276zM350 1171l142 383l79 17q41 8 70 -10t29 -60q0 -38 -41 -86l-226 -272z" />
    <glyph glyph-name="Uogonek" unicode="&#x172;" horiz-adv-x="1472" 
d="M784 84q179 0 260.5 90.5t81.5 282.5v880l-153 15v82h416v-82l-148 -15v-874q0 -164 -56.5 -265.5t-183.5 -187.5q-81 -55 -136.5 -125t-55.5 -147q0 -86 78 -86q36 0 58 14.5t46 44.5l53 -39q-21 -35 -41.5 -58.5t-66 -45t-105.5 -21.5q-91 0 -139.5 42.5t-48.5 117.5
q0 77 56.5 144.5t146.5 132.5q-54 -7 -101 -7q-124 0 -215.5 24t-160 77.5t-103.5 145t-35 220.5v895l-153 13v82h522v-82l-154 -13v-872q0 -87 15.5 -153t52.5 -120t105 -82t165 -28z" />
    <glyph glyph-name="uogonek" unicode="&#x173;" horiz-adv-x="1234" 
d="M387 1026v-702q0 -109 39 -159t147 -50q115 0 191 71.5t76 204.5v529l-140 14v80l334 12v-930l133 -14v-82h-75q-77 -63 -121.5 -125.5t-44.5 -136.5q0 -86 78 -86q36 0 58 14.5t46 44.5l53 -39q-21 -35 -41.5 -58.5t-66 -45t-105.5 -21.5q-91 0 -139.5 42.5t-48.5 117.5
q0 142 229 293h-119l-10 174h-8q-48 -85 -135 -141t-209 -56q-163 0 -239 84.5t-76 264.5v594l-136 14v80z" />
    <glyph glyph-name="Wcircumflex" unicode="&#x174;" horiz-adv-x="2068" 
d="M713 311l293 746l-107 278l-137 19v80h565v-80l-201 -19l369 -997h8l322 997l-187 19v80h424v-80l-123 -19l-442 -1355h-80l-356 940l-373 -940h-80l-465 1355l-137 19v80h574v-80l-201 -19l326 -1024h8zM723 1563l270 270q32 16 62 16q18 0 33 -7.5t24.5 -16t32.5 -33.5
l211 -227l-43 -54l-269 175l-282 -177z" />
    <glyph glyph-name="wcircumflex" unicode="&#x175;" horiz-adv-x="1585" 
d="M6 1018v-82l92 -8l320 -928h160l229 600h10l223 -600h160l277 928l102 8v82h-365v-82l142 -8l-195 -731h-8l-258 731l106 8v82h-385v-82l82 -6l58 -172l-207 -561h-8l-228 731l142 8v82h-449zM528 1186l217 342q31 22 78 22q28 0 48.5 -12.5t39.5 -46.5l168 -305l-49 -37
l-227 221l-225 -223z" />
    <glyph glyph-name="Ycircumflex" unicode="&#x176;" horiz-adv-x="1259" 
d="M696 774l305 561l-172 15v84h424v-84l-135 -15l-379 -671v-568l174 -14v-82h-563v82l174 14v568l-381 671l-137 15v84h574v-84l-195 -15l303 -561h8zM356 1563l271 270q32 16 61 16q18 0 33 -7.5t24.5 -16t32.5 -33.5l211 -227l-43 -54l-268 175l-283 -177z" />
    <glyph glyph-name="ycircumflex" unicode="&#x177;" horiz-adv-x="1032" 
d="M10 936v82h453v-82l-141 -8l237 -699h8l236 699l-141 8v82h364v-82l-102 -8l-392 -1086q-21 -59 -38 -97t-41 -75t-51.5 -57t-67 -32.5t-90.5 -12.5q-100 0 -168 50.5t-68 143.5q0 60 36 102t99 42q52 0 84 -34t33 -101l-78 -43q-6 -37 16 -53.5t66 -16.5q61 0 91.5 48
t88.5 216l19 58l-361 948zM260 1186l217 342q31 22 78 22q28 0 48.5 -12.5t39.5 -46.5l168 -305l-49 -37l-227 221l-226 -223z" />
    <glyph glyph-name="Ydieresis" unicode="&#x178;" horiz-adv-x="1259" 
d="M696 774l305 561l-172 15v84h424v-84l-135 -15l-379 -671v-568l174 -14v-82h-563v82l174 14v568l-381 671l-137 15v84h574v-84l-195 -15l303 -561h8zM356 1669q0 45 29.5 77t81.5 32q50 0 81.5 -27.5t31.5 -81.5q0 -51 -29 -82t-82 -31q-58 0 -85.5 33t-27.5 80z
M756 1669q0 45 29 77t81 32q50 0 81.5 -27.5t31.5 -81.5q0 -51 -29 -82t-82 -31q-59 0 -85.5 32.5t-26.5 80.5z" />
    <glyph glyph-name="Zacute" unicode="&#x179;" horiz-adv-x="1269" 
d="M1120 1434v-101l-758 -1235h338q98 0 166.5 21.5t113.5 69t71 111t45 159.5h75l-24 -459h-1038v90l763 1243h-274q-56 0 -92.5 -2t-77 -9t-66.5 -20t-53.5 -35.5t-45.5 -55.5t-34.5 -80t-29.5 -109h-74l20 412h975zM434 1554l285 301l74 -22q69 -19 69 -80
q0 -32 -20.5 -52t-59.5 -38l-309 -154z" />
    <glyph glyph-name="zacute" unicode="&#x17a;" horiz-adv-x="1021" 
d="M911 1018v-90l-587 -838h247q66 0 110.5 15t76.5 53.5t52.5 86.5t45.5 132h74l-21 -377h-815v84l588 844h-229q-65 0 -99.5 -6t-68.5 -33t-58 -76.5t-55 -140.5h-74l21 346h792zM387 1169l139 373l76 23q36 8 67 -10.5t31 -59.5q0 -35 -41 -86l-227 -266z" />
    <glyph glyph-name="Zdotaccent" unicode="&#x17b;" horiz-adv-x="1269" 
d="M1120 1434v-101l-758 -1235h338q98 0 166.5 21.5t113.5 69t71 111t45 159.5h75l-24 -459h-1038v90l763 1243h-274q-56 0 -92.5 -2t-77 -9t-66.5 -20t-53.5 -35.5t-45.5 -55.5t-34.5 -80t-29.5 -109h-74l20 412h975zM496 1677q0 57 32 92t95 35q129 0 129 -125
q0 -60 -33 -92.5t-94 -32.5q-68 0 -98.5 33.5t-30.5 89.5z" />
    <glyph glyph-name="zdotaccent" unicode="&#x17c;" horiz-adv-x="1021" 
d="M911 1018v-90l-587 -838h247q66 0 110.5 15t76.5 53.5t52.5 86.5t45.5 132h74l-21 -377h-815v84l588 844h-229q-65 0 -99.5 -6t-68.5 -33t-58 -76.5t-55 -140.5h-74l21 346h792zM385 1366q0 57 32 92t95 35q129 0 129 -125q0 -60 -33 -92.5t-94 -32.5q-68 0 -98.5 33.5
t-30.5 89.5z" />
    <glyph glyph-name="Zcaron" unicode="&#x17d;" horiz-adv-x="1269" 
d="M1120 1434v-101l-758 -1235h338q98 0 166.5 21.5t113.5 69t71 111t45 159.5h75l-24 -459h-1038v90l763 1243h-274q-56 0 -92.5 -2t-77 -9t-66.5 -20t-53.5 -35.5t-45.5 -55.5t-34.5 -80t-29.5 -109h-74l20 412h975zM952 1804l-270 -270q-32 -16 -61 -16q-26 0 -42.5 11.5
t-48.5 45.5l-211 227l43 58l275 -179l276 177z" />
    <glyph glyph-name="zcaron" unicode="&#x17e;" horiz-adv-x="1021" 
d="M911 1018v-90l-587 -838h247q66 0 110.5 15t76.5 53.5t52.5 86.5t45.5 132h74l-21 -377h-815v84l588 844h-229q-65 0 -99.5 -6t-68.5 -33t-58 -76.5t-55 -140.5h-74l21 346h792zM436 1186l-209 332l49 38l232 -221l231 221l43 -32l-180 -301q-21 -35 -41 -47.5t-47 -12.5
q-46 0 -78 23z" />
    <glyph glyph-name="longs" unicode="&#x17f;" horiz-adv-x="702" 
d="M408 1221v-1125l245 -14v-82h-596v82l156 14v1018q0 216 100.5 342.5t294.5 126.5q115 0 183.5 -53.5t68.5 -143.5q0 -64 -33 -101.5t-92 -37.5q-61 0 -90.5 34.5t-26.5 94.5l60 21q6 21 6 39q0 65 -92 65q-47 0 -81.5 -16t-54 -41t-31 -64t-14.5 -75t-3 -84z" />
    <glyph glyph-name="florin" unicode="&#x192;" horiz-adv-x="1030" 
d="M854 809l-18 -100h-271l-123 -672q-85 -469 -444 -469q-110 0 -172 53.5t-62 136.5q0 66 39 112t107 46q51 0 79.5 -29t28.5 -77q0 -22 -6 -46l-73 -8q-15 -27 -15 -49q0 -57 92 -57q26 0 48 5.5t38.5 12t31.5 22.5t24.5 26.5t19 34.5t14.5 36t11.5 43t9 42.5t8.5 46.5
q1 3 1.5 5.5t0.5 5.5l142 779h-156l18 100h156l31 180q38 218 153.5 343.5t302.5 125.5q108 0 171 -50.5t63 -137.5q0 -66 -37 -109t-106 -43q-51 0 -80 30t-29 77q0 23 6 47l66 6q12 27 12 47q0 51 -88 51q-45 0 -79.5 -16.5t-55.5 -40.5t-37.5 -64.5t-25 -74.5t-17.5 -84
l-49 -287h270z" />
    <glyph glyph-name="Aringacute" unicode="&#x1fa;" horiz-adv-x="1390" 
d="M498 1647q0 83 55 138.5t156 55.5q97 0 149.5 -51.5t52.5 -138.5q0 -79 -44 -133t-122 -66l486 -1356l153 -16v-80h-565v80l172 16l-117 346h-481l-125 -346l166 -16v-80h-428v80l144 16l509 1356q-161 23 -161 195zM647 1128l-215 -575h410l-189 575h-6zM512 1905
l285 301l73 -23q70 -20 70 -80q0 -32 -20.5 -52t-59.5 -38l-309 -153zM604 1647q0 -48 24 -79.5t79 -31.5q96 0 96 111q0 47 -24.5 78.5t-76.5 31.5q-50 0 -74 -32t-24 -78z" />
    <glyph glyph-name="aringacute" unicode="&#x1fb;" horiz-adv-x="1042" 
d="M524 537h142v139q0 142 -44.5 210t-160.5 68q-172 0 -172 -86q0 -6 4 -26h67q13 -54 13 -74q0 -51 -32.5 -80t-84.5 -29q-56 0 -87.5 33t-31.5 94q0 112 101 183t254 71q195 0 281.5 -87.5t86.5 -299.5v-467q0 -66 13.5 -90t50.5 -24q30 0 67 12l19 -70q-66 -34 -150 -34
q-82 0 -127 34t-57 111q-47 -70 -126.5 -109t-174.5 -39q-129 0 -208 63.5t-79 199.5q0 297 436 297zM449 90q84 0 150.5 51.5t66.5 139.5v170h-115q-133 0 -190.5 -51.5t-57.5 -147.5q0 -80 33.5 -121t112.5 -41zM399 1354q0 -48 24 -79.5t79 -31.5q96 0 96 111
q0 48 -24 79t-76 31q-50 0 -74.5 -32t-24.5 -78zM293 1354q0 83 55 138.5t156 55.5q98 0 150.5 -51.5t52.5 -138.5q0 -90 -54.5 -145.5t-152.5 -55.5q-104 0 -155.5 53t-51.5 144zM297 1624l285 301l73 -22q70 -20 70 -80q0 -32 -20.5 -52t-59.5 -38l-309 -154z" />
    <glyph glyph-name="AEacute" unicode="&#x1fc;" horiz-adv-x="2021" 
d="M1851 1434l17 -385h-76q-16 77 -37 127t-48.5 84t-72 51.5t-97.5 24.5t-134 7h-182v-604h106q121 0 169.5 52t72.5 192h63v-606h-67q-13 86 -27.5 132.5t-44 77.5t-71.5 40.5t-115 9.5h-86v-543h180q119 0 195 17t127.5 61.5t78.5 111t45 175.5h76l-16 -459h-1063v80
l162 16v535h-451l-272 -535l166 -16v-80h-443v80l144 16l649 1241l-156 17v80h1208zM928 1339l-314 -598h392v598h-78zM1092 1554l284 301l74 -22q70 -20 70 -80q0 -32 -20.5 -52t-59.5 -38l-310 -154z" />
    <glyph glyph-name="aeacute" unicode="&#x1fd;" horiz-adv-x="1609" 
d="M666 563h-142q-436 0 -436 -309q0 -72 26 -126.5t71 -87t101.5 -48t123.5 -15.5q220 0 350 166q116 -166 362 -166q153 0 254 72t142 197l-91 30q-39 -91 -101 -133.5t-165 -42.5q-77 0 -132 27t-86.5 78.5t-47 116t-18.5 149.5h651q6 59 6 113q0 77 -11.5 141.5
t-40.5 124t-73.5 100.5t-113.5 65.5t-158 24.5q-203 0 -330 -149q-44 83 -115 116t-188 33q-165 0 -271 -71t-106 -183q0 -61 31.5 -94t87.5 -33q52 0 84 29t32 80q0 24 -12 74h-67q-4 20 -4 26q0 86 182 86q117 0 161 -72t44 -233v-86zM1331 584h-454q3 172 68.5 267
t184.5 95q106 0 154.5 -66.5t48.5 -209.5q0 -55 -2 -86zM469 90q-80 0 -123 48.5t-43 133.5q0 96 57.5 147.5t190.5 51.5h117q3 -142 47 -248q-43 -62 -106 -97.5t-140 -35.5zM743 1169l140 373l75 23q36 8 67.5 -10.5t31.5 -59.5q0 -35 -41 -86l-228 -266z" />
    <glyph glyph-name="Oslashacute" unicode="&#x1fe;" horiz-adv-x="1472" 
d="M88 713q0 336 184.5 539.5t479.5 203.5q152 0 274 -55l92 176l96 -47l-96 -180q128 -90 197 -248t69 -371q0 -353 -169 -553.5t-480 -200.5q-173 0 -305 60l-94 -178l-94 49l96 184q-250 181 -250 621zM1145 723q0 336 -101 485l-550 -1048q93 -80 245 -80q96 0 168.5 33
t117 89t72 140t38 175t10.5 206zM326 715q0 -318 94 -469l549 1046q-89 64 -224 64q-102 0 -177.5 -33t-121.5 -88t-73.5 -140t-37 -174.5t-9.5 -205.5zM625 1554l284 301l74 -22q70 -20 70 -80q0 -32 -20.5 -52t-59.5 -38l-309 -154z" />
    <glyph glyph-name="oslashacute" unicode="&#x1ff;" horiz-adv-x="1107" 
d="M84 504q0 241 129.5 388.5t347.5 147.5q102 0 187 -32l65 133l92 -43l-67 -137q92 -66 139 -182t47 -267q0 -242 -127 -388.5t-348 -146.5q-88 0 -174 27l-72 -145l-90 43l72 147q-99 65 -150 182.5t-51 272.5zM297 518q0 -219 57 -323l340 700q-56 47 -143 47
q-75 0 -127 -33.5t-78.5 -96t-37.5 -133t-11 -161.5zM811 504q0 192 -49 301l-336 -692q52 -37 131 -37q74 0 125.5 34t78.5 96t38.5 134t11.5 164zM449 1169l139 373l76 23q36 8 67 -10.5t31 -59.5q0 -35 -41 -86l-227 -266z" />
    <glyph glyph-name="Scommaaccent" unicode="&#x218;" horiz-adv-x="1169" 
d="M586 76q161 0 249.5 72.5t88.5 201.5q0 57 -19.5 99.5t-41 68.5t-85.5 52t-103 37.5t-144 38.5q-1 0 -1.5 0.5t-1.5 0.5q-80 20 -133.5 39t-105.5 50t-82 70t-48 97t-18 135q0 80 26.5 153t78 133t137 96t192.5 36q70 0 130.5 -15t100.5 -30.5t58 -15.5q21 0 31.5 9.5
t22.5 33.5h61l14 -418h-75q-46 187 -128.5 263.5t-218.5 76.5q-126 0 -202 -61t-76 -162q0 -48 16.5 -86t42.5 -64.5t70 -49t86 -36.5t104 -31q50 -13 75.5 -20t71.5 -22t71.5 -27t63 -33t59 -41.5t47 -51t38.5 -64.5t22 -78t9 -95q0 -204 -125 -332.5t-352 -128.5
q-83 0 -152 15t-113 30t-67 15q-6 0 -10.5 -1.5t-8.5 -3t-7.5 -6t-5.5 -7t-5.5 -9.5t-5 -10.5t-5 -13t-5.5 -13.5h-64l-20 473h78q20 -76 39 -127.5t49.5 -101t69 -78t95.5 -46t132 -17.5zM555 -573l-49 47q69 68 89.5 106t20.5 72q0 41 -38 47l-46 -47q-67 26 -67 102
q0 46 34 77.5t87 31.5q67 0 101 -46t34 -112q0 -77 -38 -142t-128 -136z" />
    <glyph glyph-name="scommaaccent" unicode="&#x219;" horiz-adv-x="915" 
d="M100 -23v367h80q6 -88 53 -150t112.5 -89t141.5 -27q98 0 151.5 45.5t53.5 132.5q0 34 -8.5 60.5t-28.5 45t-39 31t-53.5 23t-57 15.5t-65.5 13q-135 27 -189 55q-128 69 -130 230q0 132 96.5 221.5t237.5 89.5q117 0 196 -47q21 -12 37 -12q32 0 35 59h68v-319h-80
q-58 225 -258 225q-80 0 -133.5 -42.5t-53.5 -108.5q0 -28 8 -50.5t28 -39t37 -27t53 -20.5t56.5 -15t65.5 -14q41 -8 67.5 -14.5t64.5 -19t62.5 -27t52 -38t43 -52.5t26 -70t10.5 -91q0 -148 -89.5 -244t-254.5 -96q-143 0 -269 76q-16 8 -24 8q-13 0 -21 -17.5t-12 -66.5
h-70zM432 -575l-49 47q69 68 90 106t21 72q0 41 -39 47l-45 -47q-68 27 -68 102q0 46 34 77.5t87 31.5q67 0 101 -46t34 -112q0 -77 -38 -142t-128 -136z" />
    <glyph glyph-name="uni021A" unicode="&#x21a;" horiz-adv-x="1302" 
d="M1225 1434l20 -412h-80q-12 64 -26 110t-29.5 81t-39 57t-48 36.5t-63.5 21t-76.5 9t-96.5 2.5h-26v-1243l194 -14v-82h-604v82l195 14v1243h-29q-59 0 -96.5 -2.5t-76.5 -9t-63.5 -21t-48 -36.5t-39 -57t-29.5 -81t-26 -110h-80l21 412h1147zM616 -573l-49 47
q69 68 90 106t21 72q0 41 -39 47l-45 -47q-68 27 -68 102q0 46 34 77.5t87 31.5q67 0 101 -46t34 -112q0 -77 -38 -142t-128 -136z" />
    <glyph glyph-name="uni021B" unicode="&#x21b;" horiz-adv-x="776" 
d="M203 219v699h-154v100h154v264l147 41h47v-305h226v-100h-226v-666q0 -86 24 -122t83 -36t96 35.5t62 126.5l77 -20q-32 -134 -100.5 -196.5t-196.5 -62.5q-114 0 -176.5 59t-62.5 183zM412 -573l-50 47q69 68 90 106t21 72q0 41 -39 47l-45 -47q-67 26 -67 102
q0 47 33.5 78t86.5 31q67 0 101.5 -46t34.5 -112q0 -77 -38 -142t-128 -136z" />
    <glyph glyph-name="dotlessj" unicode="&#x237;" horiz-adv-x="563" 
d="M59 -365q30 0 53 9t38.5 22t26 40.5t16 51t8.5 68t3.5 77t0.5 91.5v926l-154 14v80l348 12v-938q0 -71 -7 -136t-30.5 -142t-61.5 -132.5t-105.5 -93t-157.5 -37.5q-103 0 -171.5 49t-68.5 140q0 58 34.5 97.5t96.5 39.5q46 0 78.5 -29t38.5 -82l-70 -41q-4 -86 84 -86z
" />
    <glyph glyph-name="apostrophe" unicode="&#x2bc;" horiz-adv-x="432" 
d="M180 1014l-49 47q69 68 90 106t21 72q0 41 -39 47l-45 -47q-68 27 -68 102q0 46 34 77.5t87 31.5q67 0 101 -46t34 -112q0 -77 -38 -142t-128 -136z" />
    <glyph glyph-name="circumflex" unicode="&#x2c6;" horiz-adv-x="1024" 
d="M236 1186l217 342q31 22 77 22q28 0 48.5 -12.5t39.5 -46.5l168 -305l-49 -37l-227 221l-225 -223z" />
    <glyph glyph-name="caron" unicode="&#x2c7;" horiz-adv-x="1024" 
d="M438 1186l-209 332l50 38l231 -221l231 221l43 -32l-180 -301q-21 -35 -41 -47.5t-47 -12.5q-46 0 -78 23z" />
    <glyph glyph-name="uni02C9" unicode="&#x2c9;" horiz-adv-x="1024" 
d="M233 1266v143h558v-143h-558z" />
    <glyph glyph-name="breve" unicode="&#x2d8;" horiz-adv-x="1024" 
d="M215 1509l82 17q29 -109 74 -153t145 -44q99 0 146 48t71 147l78 -13q-4 -58 -23 -112.5t-53.5 -103t-94 -78t-134.5 -29.5q-74 0 -130 27t-88.5 74.5t-49.5 101t-23 118.5z" />
    <glyph glyph-name="dotaccent" unicode="&#x2d9;" horiz-adv-x="1024" 
d="M381 1366q0 57 32 92t95 35q129 0 129 -125q0 -60 -33 -92.5t-94 -32.5q-68 0 -98.5 33.5t-30.5 89.5z" />
    <glyph glyph-name="ring" unicode="&#x2da;" horiz-adv-x="1024" 
d="M412 1354q0 -48 23.5 -79.5t78.5 -31.5q96 0 96 111q0 48 -24 79t-76 31q-50 0 -74 -32t-24 -78zM305 1354q0 83 55 138.5t156 55.5q98 0 150.5 -51.5t52.5 -138.5q0 -90 -54.5 -145.5t-152.5 -55.5q-104 0 -155.5 53t-51.5 144z" />
    <glyph glyph-name="ogonek" unicode="&#x2db;" horiz-adv-x="1024" 
d="M563 25l66 -2l14 -13q-83 -66 -131.5 -130.5t-48.5 -141.5q0 -86 78 -86q36 0 58 14.5t46 44.5l53 -39q-21 -35 -41.5 -58.5t-66 -45t-105.5 -21.5q-91 0 -139.5 42.5t-48.5 117.5q0 40 19.5 81.5t44 71.5t67 65.5t68 54t67.5 45.5z" />
    <glyph glyph-name="tilde" unicode="&#x2dc;" horiz-adv-x="1024" 
d="M635 1233q-74 0 -182 47q-82 33 -121 33q-30 0 -53.5 -19t-45.5 -71l-59 18q29 99 79.5 149t135.5 50q16 0 30 -1t28.5 -4t23.5 -5t24.5 -8t21.5 -8.5t24 -10.5t24 -10q79 -31 121 -31q36 0 57.5 18t42.5 70l58 -16q-55 -201 -209 -201z" />
    <glyph glyph-name="hungarumlaut" unicode="&#x2dd;" horiz-adv-x="1024" 
d="M512 1171l141 388l80 16q41 8 69.5 -10t28.5 -60q0 -40 -40 -86l-226 -276zM209 1171l141 383l80 17q41 8 69.5 -10t28.5 -60q0 -38 -41 -86l-225 -272z" />
    <glyph glyph-name="uni0394" unicode="&#x394;" horiz-adv-x="1224" 
d="M1204 0h-1184l568 1466h76zM569 1128l-370 -981h714l-338 981h-6z" />
    <glyph glyph-name="uni03A9" unicode="&#x3a9;" horiz-adv-x="1744" 
d="M977 0v133q65 66 115 130.5t97 147t73 177.5t26 196q0 94 -9.5 172t-36 154.5t-70 128.5t-115.5 84.5t-168 32.5t-170 -32t-120.5 -86t-76.5 -131t-41.5 -159.5t-11.5 -179.5q0 -88 15 -166.5t36.5 -136t61.5 -120.5t73.5 -105.5t87.5 -104.5v-135h-626l-25 459h76
q14 -75 34 -124.5t49 -85t73 -54.5t100.5 -27t138.5 -8h62q-196 114 -295 259t-99 343q0 199 84 357t235.5 247.5t344.5 89.5q190 0 334.5 -82.5t221.5 -229.5t77 -337q0 -97 -33 -191t-80.5 -163.5t-109 -132t-111 -99.5t-92.5 -61h80q82 0 138.5 8t100.5 27t73 54.5t49 85
t34 124.5h76l-25 -459h-651z" />
    <glyph glyph-name="uni03BC" unicode="&#x3bc;" horiz-adv-x="1175" 
d="M358 1026v-702q0 -108 36.5 -158.5t133.5 -50.5q111 0 187 71.5t76 204.5v617l194 18v-840q0 -66 13.5 -90t50.5 -24q29 0 67 12l19 -70q-66 -34 -150 -34q-90 0 -139 49t-43 145q-23 -41 -45.5 -71t-55 -61t-75 -48t-92.5 -17q-161 0 -220 158q15 -149 62 -487
q7 -48 -30.5 -71t-90.5 -13l-92 18v1426z" />
    <glyph glyph-name="pi" unicode="&#x3c0;" horiz-adv-x="1222" 
d="M915 825h-59q-27 -234 -27 -389q0 -282 127 -282q83 0 117 122l74 -16q-44 -283 -244 -283q-107 0 -150.5 70.5t-43.5 192.5q0 57 6 124t13 119t23.5 161t26.5 185l-350 23q-4 -511 -37 -696q-19 -97 -59.5 -138t-89.5 -41q-45 0 -74 24.5t-29 74.5q0 23 8.5 41.5
t34 56.5t43.5 70q61 109 90 248t41 364q-17 0 -38 1t-25 1q-45 0 -70.5 -18t-52.5 -72l-59 18q35 129 86 195t135 66q52 0 320 -15.5t321 -15.5q36 0 57.5 18t42.5 70l57 -17q-34 -133 -86.5 -197.5t-128.5 -64.5z" />
    <glyph glyph-name="Wgrave" unicode="&#x1e80;" horiz-adv-x="2068" 
d="M713 311l293 746l-107 278l-137 19v80h565v-80l-201 -19l369 -997h8l322 997l-187 19v80h424v-80l-123 -19l-442 -1355h-80l-356 940l-373 -940h-80l-465 1355l-137 19v80h574v-80l-201 -19l326 -1024h8zM946 1858l285 -302l-37 -49l-311 158q-43 22 -61.5 40t-18.5 50
q0 61 69 80z" />
    <glyph glyph-name="wgrave" unicode="&#x1e81;" horiz-adv-x="1585" 
d="M6 936v82h449v-82l-142 -8l228 -731h8l207 561l-58 172l-82 6v82h385v-82l-106 -8l258 -731h8l195 731l-142 8v82h365v-82l-102 -8l-277 -928h-160l-223 600h-10l-229 -600h-160l-320 928zM795 1548l135 -385l-47 -24l-224 272q-38 44 -38 82q0 43 32 62.5t72 9.5z" />
    <glyph glyph-name="Wacute" unicode="&#x1e82;" horiz-adv-x="2068" 
d="M713 311l293 746l-107 278l-137 19v80h565v-80l-201 -19l369 -997h8l322 997l-187 19v80h424v-80l-123 -19l-442 -1355h-80l-356 940l-373 -940h-80l-465 1355l-137 19v80h574v-80l-201 -19l326 -1024h8zM850 1554l285 301l73 -22q70 -20 70 -80q0 -32 -20.5 -52
t-59.5 -38l-309 -154z" />
    <glyph glyph-name="wacute" unicode="&#x1e83;" horiz-adv-x="1585" 
d="M6 1018v-82l92 -8l320 -928h160l229 600h10l223 -600h160l277 928l102 8v82h-365v-82l142 -8l-195 -731h-8l-258 731l106 8v82h-385v-82l82 -6l58 -172l-207 -561h-8l-228 731l142 8v82h-449zM686 1169l139 373l76 23q36 8 67 -10.5t31 -59.5q0 -35 -41 -86l-227 -266z
" />
    <glyph glyph-name="Wdieresis" unicode="&#x1e84;" horiz-adv-x="2068" 
d="M713 311l293 746l-107 278l-137 19v80h565v-80l-201 -19l369 -997h8l322 997l-187 19v80h424v-80l-123 -19l-442 -1355h-80l-356 940l-373 -940h-80l-465 1355l-137 19v80h574v-80l-201 -19l326 -1024h8zM731 1669q0 45 29.5 77t81.5 32q50 0 81 -27.5t31 -81.5
q0 -51 -28.5 -82t-81.5 -31q-58 0 -85.5 33t-27.5 80zM1130 1669q0 45 29.5 77t81.5 32q50 0 81.5 -27.5t31.5 -81.5q0 -51 -29 -82t-82 -31q-59 0 -86 32.5t-27 80.5z" />
    <glyph glyph-name="wdieresis" unicode="&#x1e85;" horiz-adv-x="1585" 
d="M6 936v82h449v-82l-142 -8l228 -731h8l207 561l-58 172l-82 6v82h385v-82l-106 -8l258 -731h8l195 731l-142 8v82h365v-82l-102 -8l-277 -928h-160l-223 600h-10l-229 -600h-160l-320 928zM500 1346q0 45 29 76.5t81 31.5q50 0 81.5 -27t31.5 -81q0 -51 -29 -82t-82 -31
q-58 0 -85 33t-27 80zM899 1346q0 45 29.5 76.5t81.5 31.5q50 0 81 -27t31 -81q0 -51 -28.5 -82t-81.5 -31q-59 0 -86 32.5t-27 80.5z" />
    <glyph glyph-name="Ygrave" unicode="&#x1ef2;" horiz-adv-x="1259" 
d="M696 774l305 561l-172 15v84h424v-84l-135 -15l-379 -671v-568l174 -14v-82h-563v82l174 14v568l-381 671l-137 15v84h574v-84l-195 -15l303 -561h8zM547 1858l284 -302l-36 -49l-312 158q-43 22 -61.5 40t-18.5 50q0 60 70 80z" />
    <glyph glyph-name="ygrave" unicode="&#x1ef3;" horiz-adv-x="1032" 
d="M10 936v82h453v-82l-141 -8l237 -699h8l236 699l-141 8v82h364v-82l-102 -8l-392 -1086q-21 -59 -38 -97t-41 -75t-51.5 -57t-67 -32.5t-90.5 -12.5q-100 0 -168 50.5t-68 143.5q0 60 36 102t99 42q52 0 84 -34t33 -101l-78 -43q-6 -37 16 -53.5t66 -16.5q61 0 91.5 48
t88.5 216l19 58l-361 948zM494 1548l135 -385l-47 -24l-224 272q-39 45 -39 82q0 43 32.5 62.5t72.5 9.5z" />
    <glyph glyph-name="thinspace" unicode="&#x2009;" horiz-adv-x="102" 
 />
    <glyph glyph-name="endash" unicode="&#x2013;" horiz-adv-x="1024" 
d="M41 492v120h942v-120h-942z" />
    <glyph glyph-name="emdash" unicode="&#x2014;" horiz-adv-x="2048" 
d="M41 492v120h1966v-120h-1966z" />
    <glyph glyph-name="quoteleft" unicode="&#x2018;" horiz-adv-x="487" 
d="M354 1534l39 -53q-157 -102 -157 -219q0 -47 28 -60l64 58q73 -45 73 -125q0 -46 -35 -81.5t-96 -35.5q-72 0 -110.5 48.5t-38.5 121.5q0 105 65.5 193t167.5 153z" />
    <glyph glyph-name="quoteright" unicode="&#x2019;" horiz-adv-x="487" 
d="M139 938l-39 53q158 103 158 219q0 46 -29 60l-63 -58q-74 46 -74 125q0 46 35 81.5t96 35.5q72 0 111 -48.5t39 -121.5q0 -105 -66 -193t-168 -153z" />
    <glyph glyph-name="quotesinglbase" unicode="&#x201a;" horiz-adv-x="516" 
d="M156 -289l-39 53q157 102 157 220q0 46 -28 59l-64 -57q-73 45 -73 125q0 46 35 81t96 35q72 0 110.5 -48.5t38.5 -121.5q0 -105 -65.5 -193t-167.5 -153z" />
    <glyph glyph-name="quotedblleft" unicode="&#x201c;" horiz-adv-x="831" 
d="M360 1534l39 -53q-157 -102 -157 -219q0 -47 28 -60l64 58q74 -46 74 -125q0 -46 -35.5 -81.5t-96.5 -35.5q-72 0 -110.5 48.5t-38.5 121.5q0 105 65.5 193t167.5 153zM705 1534l38 -53q-157 -102 -157 -219q0 -47 28 -60l64 58q74 -46 74 -125q0 -46 -35 -81.5
t-96 -35.5q-72 0 -111 48.5t-39 121.5q0 105 66 193t168 153z" />
    <glyph glyph-name="quotedblright" unicode="&#x201d;" horiz-adv-x="825" 
d="M139 938l-39 53q158 103 158 219q0 46 -29 60l-63 -58q-74 46 -74 125q0 46 35 81.5t96 35.5q72 0 111 -48.5t39 -121.5q0 -105 -66 -193t-168 -153zM477 938l-39 53q158 103 158 219q0 46 -29 60l-63 -58q-74 46 -74 125q0 46 35 81.5t96 35.5q72 0 111 -48.5t39 -121.5
q0 -105 -66 -193t-168 -153z" />
    <glyph glyph-name="quotedblbase" unicode="&#x201e;" horiz-adv-x="854" 
d="M156 -289l-39 53q157 102 157 220q0 46 -28 59l-64 -57q-73 45 -73 125q0 46 35 81t96 35q72 0 110.5 -48.5t38.5 -121.5q0 -105 -65.5 -193t-167.5 -153zM494 -289l-39 53q157 102 157 220q0 46 -28 59l-64 -57q-74 46 -74 125q0 46 35.5 81t96.5 35q72 0 110.5 -48.5
t38.5 -121.5q0 -105 -65.5 -193t-167.5 -153z" />
    <glyph glyph-name="dagger" unicode="&#x2020;" horiz-adv-x="1026" 
d="M649 727v-12q-29 -56 -44.5 -95.5t-29.5 -123t-16 -199.5l-10 -543h-72l-8 541q-2 115 -17.5 201.5t-29 121.5t-43.5 97v12q36 44 67.5 122t42.5 142q-54 -3 -147.5 -35t-134.5 -32q-46 0 -75.5 23.5t-29.5 70.5q0 44 31 66t78 22q42 0 131.5 -37t149.5 -39
q-3 66 -42.5 157t-39.5 138q0 56 29.5 92.5t86.5 36.5q103 0 103 -129q0 -36 -13.5 -73.5t-29.5 -65t-30.5 -70t-16.5 -86.5q56 4 145.5 40t136.5 36q43 0 73 -22t30 -66q0 -47 -29.5 -70.5t-75.5 -23.5q-40 0 -133 32t-147 35q8 -59 41 -140t69 -124z" />
    <glyph glyph-name="daggerdbl" unicode="&#x2021;" horiz-adv-x="1026" 
d="M649 788v-12q-63 -75 -106 -174q47 -100 104 -168v-12q-30 -38 -48 -63.5t-36.5 -64.5t-25.5 -77q54 3 147.5 35.5t134.5 32.5q46 0 75.5 -24t29.5 -71q0 -44 -31 -66t-78 -22q-42 0 -131 37t-149 39q3 -66 42 -157t39 -138q0 -56 -29.5 -92.5t-86.5 -36.5
q-103 0 -103 129q0 36 13.5 73.5t29.5 65t30.5 70t16.5 86.5q-56 -4 -145.5 -40t-136.5 -36q-43 0 -73 22t-30 66q0 47 29.5 71t75.5 24q40 0 133 -32.5t147 -35.5q-11 84 -110 203v12q79 90 106 172q-25 72 -104 172v12q92 99 110 203q-54 -3 -147.5 -35t-134.5 -32
q-46 0 -75.5 23.5t-29.5 70.5q0 44 31 66t78 22q42 0 131.5 -37t149.5 -39q-3 66 -42.5 157t-39.5 138q0 56 29.5 92.5t86.5 36.5q103 0 103 -129q0 -36 -13.5 -73.5t-29.5 -65t-30.5 -70t-16.5 -86.5q56 4 145.5 40t136.5 36q43 0 73 -22t30 -66q0 -47 -29.5 -70.5
t-75.5 -23.5q-40 0 -133 32t-147 35q11 -84 110 -203z" />
    <glyph glyph-name="bullet" unicode="&#x2022;" horiz-adv-x="702" 
d="M129 592q0 96 58 158.5t163 62.5q102 0 162.5 -54.5t60.5 -164.5q0 -101 -57.5 -162t-163.5 -61q-116 0 -169.5 64t-53.5 157z" />
    <glyph glyph-name="ellipsis" unicode="&#x2026;" horiz-adv-x="1640" 
d="M1214 127q0 64 39 105.5t109 41.5q68 0 108.5 -36.5t40.5 -108.5q0 -68 -38.5 -108.5t-108.5 -40.5q-78 0 -114 42.5t-36 104.5zM672 127q0 64 38.5 105.5t108.5 41.5q68 0 109 -36.5t41 -108.5q0 -68 -39 -108.5t-109 -40.5q-78 0 -113.5 42.5t-35.5 104.5zM129 127
q0 64 38.5 105.5t108.5 41.5q68 0 109 -36.5t41 -108.5q0 -68 -38.5 -108.5t-108.5 -40.5q-78 0 -114 42.5t-36 104.5z" />
    <glyph glyph-name="perthousand" unicode="&#x2030;" horiz-adv-x="2154" 
d="M1477 260q0 138 85.5 219.5t213.5 81.5q123 0 204.5 -70.5t81.5 -214.5q0 -145 -86.5 -222t-208.5 -77q-137 0 -213.5 76.5t-76.5 206.5zM1624 262q0 -94 38.5 -143t109.5 -49q143 0 143 202q0 195 -141 195q-150 0 -150 -205zM823 260q0 138 85.5 219.5t213.5 81.5
q124 0 205.5 -70.5t81.5 -214.5q0 -145 -86.5 -222t-208.5 -77q-137 0 -214 76.5t-77 206.5zM971 262q0 -94 38 -143t109 -49q144 0 144 202q0 195 -142 195q-149 0 -149 -205zM102 821q0 138 85.5 219.5t213.5 81.5q79 0 141.5 -27t104 -93t41.5 -164q0 -145 -86.5 -222
t-208.5 -77q-137 0 -214 76t-77 206zM250 823q0 -94 38 -143t109 -49q144 0 144 203q0 194 -142 194q-149 0 -149 -205zM354 0l680 1100h123l-678 -1100h-125z" />
    <glyph glyph-name="guilsinglleft" unicode="&#x2039;" horiz-adv-x="647" 
d="M102 528l361 297l55 -59l-246 -293l244 -317l-55 -60l-326 283q-55 47 -55 82q0 27 22 67z" />
    <glyph glyph-name="guilsinglright" unicode="&#x203a;" horiz-adv-x="649" 
d="M545 393l-361 -297l-55 60l246 295l-244 315l55 59l326 -282q30 -25 42.5 -44t12.5 -42q0 -31 -22 -64z" />
    <glyph glyph-name="fraction" unicode="&#x2044;" horiz-adv-x="409" 
d="M-305 -23l889 1479h123l-887 -1479h-125z" />
    <glyph glyph-name="zerosuperior" unicode="&#x2070;" horiz-adv-x="776" 
d="M47 1237q0 223 95.5 331.5t246.5 108.5q153 0 246.5 -105t93.5 -329q0 -115 -27 -201t-74.5 -136.5t-107 -74.5t-131.5 -24q-168 0 -255 117t-87 313zM223 1241q0 -199 37.5 -281.5t128.5 -82.5q93 0 128.5 81t35.5 283q0 195 -39 281t-125 86t-126 -86.5t-40 -280.5z
" />
    <glyph glyph-name="foursuperior" unicode="&#x2074;" horiz-adv-x="747" 
d="M270 819v72l129 10v143h-366v95l381 526h145v-526h94l9 84h71v-248h-71l-9 69h-96v-143l96 -10v-72h-383zM117 1139h282v379h-6z" />
    <glyph glyph-name="fivesuperior" unicode="&#x2075;" horiz-adv-x="684" 
d="M311 1266q-79 0 -170 -54l-37 15l15 428l22 16q305 -33 355 -33q24 0 35.5 12t19.5 42l49 -6q-17 -115 -39.5 -157t-66.5 -42q-28 0 -95 18l-204 62l-19 -271q88 47 184 47q139 0 205 -70.5t66 -176.5q0 -135 -97 -212t-253 -77q-120 0 -183 45.5t-63 122.5q0 45 26 73.5
t74 28.5q41 0 63.5 -21.5t22.5 -56.5q0 -8 -10 -53h-45q-8 -11 -8 -24q0 -24 32 -39t86 -15q179 0 179 219q0 91 -34.5 135t-109.5 44z" />
    <glyph glyph-name="sixsuperior" unicode="&#x2076;" horiz-adv-x="694" 
d="M358 874q76 0 108 54t32 159q0 101 -30 149t-95 48q-45 0 -86 -25t-54 -61q-14 -41 -14 -113q0 -104 32 -157.5t107 -53.5zM422 1616q-97 0 -150 -83.5t-59 -268.5q28 41 81.5 68.5t119.5 27.5q108 0 176.5 -66.5t68.5 -195.5q0 -133 -82.5 -212t-222.5 -79
q-143 0 -222 93.5t-79 289.5q0 235 99 361t264 126q99 0 155 -39.5t56 -109.5q0 -41 -23.5 -65.5t-60.5 -24.5q-40 0 -63 19.5t-23 55.5q0 7 3 21.5t3 17.5l41 4q4 12 4 19q0 41 -86 41z" />
    <glyph glyph-name="sevensuperior" unicode="&#x2077;" horiz-adv-x="612" 
d="M158 944q0 62 51 146t252 364l55 78h-256q-48 0 -72.5 -3.5t-42 -19t-24.5 -36t-17 -64.5h-59l12 256h564v-63q-121 -212 -187.5 -354t-82 -202.5t-15.5 -113.5q0 -49 20 -88l-43 -37q-76 0 -115.5 40.5t-39.5 96.5z" />
    <glyph glyph-name="eightsuperior" unicode="&#x2078;" horiz-adv-x="708" 
d="M287 1264q-104 9 -162.5 61t-58.5 133q0 99 78 159t210 60q135 0 213 -55t78 -154q0 -83 -59 -138.5t-160 -65.5v-4q122 -7 185 -65t63 -153q0 -111 -86.5 -173t-233.5 -62q-150 0 -234.5 59.5t-84.5 167.5q0 96 66 156.5t186 69.5v4zM354 1225q-147 0 -147 -181
q0 -80 37 -126t110 -46t110.5 45t37.5 130q0 178 -148 178zM229 1454q0 -77 33 -115.5t92 -38.5q125 0 125 156q0 154 -125 154q-63 0 -94 -41.5t-31 -114.5z" />
    <glyph glyph-name="ninesuperior" unicode="&#x2079;" horiz-adv-x="690" 
d="M317 1200q84 0 134 66q26 42 26 116q0 116 -33 173t-108 57t-107 -53t-32 -152q0 -207 120 -207zM283 807q-104 0 -159.5 41.5t-55.5 112.5q0 45 25 72.5t67 27.5q38 0 61 -20t23 -58q0 -22 -6 -43h-43q-9 -18 -9 -29q0 -43 93 -43q198 0 204 355q-29 -43 -81.5 -70
t-118.5 -27q-108 0 -178 68.5t-70 200.5q0 129 83.5 205.5t221.5 76.5q142 0 221.5 -98.5t79.5 -294.5q0 -238 -95 -357.5t-263 -119.5z" />
    <glyph glyph-name="plussuperior" unicode="&#x207a;" horiz-adv-x="724" 
d="M655 1196h-247v-244h-101v244h-237v86h237v229h101v-229h247v-86z" />
    <glyph glyph-name="minussuperior" unicode="&#x207b;" horiz-adv-x="724" 
d="M655 1196h-585v86h585v-86z" />
    <glyph glyph-name="equalsuperior" unicode="&#x207c;" horiz-adv-x="724" 
d="M655 1305h-585v86h585v-86zM655 1085h-585v86h585v-86z" />
    <glyph glyph-name="parenleftsuperior" unicode="&#x207d;" horiz-adv-x="407" 
d="M70 1217q0 301 264 561l43 -27q-154 -257 -154 -518q0 -279 148 -547l-41 -31q-49 48 -91.5 102.5t-82.5 125t-63 157t-23 177.5z" />
    <glyph glyph-name="parenrightsuperior" unicode="&#x207e;" horiz-adv-x="407" 
d="M336 1219q0 -302 -264 -562l-43 27q153 250 153 518q0 281 -147 547l41 29q260 -251 260 -559z" />
    <glyph glyph-name="zeroinferior" unicode="&#x2080;" horiz-adv-x="776" 
d="M47 141q0 223 95.5 332t246.5 109q73 0 133 -24t107 -74t73.5 -136t26.5 -201t-27 -201t-74.5 -136.5t-107 -74.5t-131.5 -24q-168 0 -255 117t-87 313zM223 145q0 -199 37.5 -281.5t128.5 -82.5q93 0 128.5 81t35.5 283q0 195 -39 281t-125 86t-126 -86.5t-40 -280.5z
" />
    <glyph glyph-name="oneinferior" unicode="&#x2081;" horiz-adv-x="540" 
d="M209 471l-160 -10l-8 71l264 37h68v-764l137 -8v-73h-451v71l150 10v666z" />
    <glyph glyph-name="twoinferior" unicode="&#x2082;" horiz-adv-x="665" 
d="M279 516q-54 0 -85.5 -18t-31.5 -49q0 -14 6 -29h45q10 -30 10 -55q0 -34 -23.5 -54t-64.5 -20q-44 0 -68 26.5t-24 69.5q0 88 78 141.5t201 53.5q142 0 208 -57.5t66 -145.5q0 -68 -30 -125t-105 -133.5t-236 -212.5l-67 -58v-2h223q91 0 125.5 27t48.5 96h61l-8 -247
h-571v83l180 197q112 119 154.5 200t42.5 163q0 149 -135 149z" />
    <glyph glyph-name="threeinferior" unicode="&#x2083;" horiz-adv-x="681" 
d="M270 -223q187 0 187 182q0 77 -36.5 119.5t-98.5 68.5q-51 -13 -121 -18l-11 66q109 8 167.5 51.5t58.5 136.5q0 66 -34 99.5t-97 33.5q-49 0 -76 -15t-27 -42q0 -11 2 -17h43q11 -29 11 -49q0 -32 -23 -51.5t-63 -19.5q-42 0 -65.5 24.5t-23.5 63.5q0 76 74 124t189 48
q122 0 192 -51t70 -136q0 -144 -205 -207v-2q123 -15 186.5 -71t63.5 -148q0 -120 -100 -188t-252 -68q-122 0 -187 45.5t-65 122.5q0 44 27 73.5t73 29.5q41 0 63.5 -21t22.5 -55q0 -20 -8 -56h-47q-6 -12 -6 -24q0 -49 116 -49z" />
    <glyph glyph-name="fourinferior" unicode="&#x2084;" horiz-adv-x="747" 
d="M270 -276v71l129 10v144h-366v94l381 526h145v-526h94l9 84h71v-248h-71l-9 70h-96v-144l96 -10v-71h-383zM117 43h282v379h-6z" />
    <glyph glyph-name="fiveinferior" unicode="&#x2085;" horiz-adv-x="684" 
d="M311 170q-80 0 -170 -53l-37 14l15 428l22 16q296 -32 355 -32q24 0 35.5 11.5t19.5 41.5l49 -6q-17 -115 -39.5 -157t-66.5 -42q-25 0 -95 19l-204 61l-19 -270q88 47 184 47q139 0 205 -71t66 -177q0 -135 -97 -212t-253 -77q-120 0 -183 45.5t-63 122.5q0 45 26 74
t74 29q41 0 63.5 -21.5t22.5 -56.5q0 -9 -10 -54h-45q-8 -11 -8 -24q0 -24 31.5 -38.5t86.5 -14.5q179 0 179 219q0 91 -34.5 134.5t-109.5 43.5z" />
    <glyph glyph-name="sixinferior" unicode="&#x2086;" horiz-adv-x="694" 
d="M358 -221q76 0 108 54t32 159q0 101 -30 148.5t-95 47.5q-45 0 -86 -25t-54 -61q-14 -41 -14 -112q0 -104 32 -157.5t107 -53.5zM422 520q-97 0 -150 -83.5t-59 -268.5q28 41 81.5 68.5t119.5 27.5q108 0 176.5 -66.5t68.5 -195.5q0 -133 -82.5 -212t-222.5 -79
q-143 0 -222 93.5t-79 289.5q0 235 99 361.5t264 126.5q98 0 154.5 -40t56.5 -110q0 -41 -23.5 -65.5t-60.5 -24.5q-40 0 -63 20t-23 56q0 7 3 21.5t3 17.5l41 4q4 12 4 18q0 41 -86 41z" />
    <glyph glyph-name="seveninferior" unicode="&#x2087;" horiz-adv-x="612" 
d="M158 -152q0 62 51 146t252 364l55 78h-256q-48 0 -72.5 -3.5t-42 -19t-24.5 -36t-17 -64.5h-59l12 256h564v-63q-121 -212 -187.5 -354t-82 -202.5t-15.5 -113.5q0 -49 20 -88l-43 -37q-76 0 -115.5 40.5t-39.5 96.5z" />
    <glyph glyph-name="eightinferior" unicode="&#x2088;" horiz-adv-x="708" 
d="M287 168q-104 9 -162.5 61t-58.5 133q0 99 78 159.5t210 60.5q135 0 213 -55t78 -154q0 -83 -59 -139t-160 -66v-4q122 -7 185 -64.5t63 -152.5q0 -111 -86.5 -173.5t-233.5 -62.5q-150 0 -234.5 60t-84.5 168q0 96 66 156t186 69v4zM354 129q-147 0 -147 -180
q0 -80 37 -126t110 -46q148 0 148 174q0 178 -148 178zM229 358q0 -77 33 -115t92 -38q125 0 125 155q0 154 -125 154q-63 0 -94 -41.5t-31 -114.5z" />
    <glyph glyph-name="nineinferior" unicode="&#x2089;" horiz-adv-x="690" 
d="M317 104q84 0 134 66q26 42 26 117q0 116 -33 172.5t-108 56.5t-107 -53t-32 -152q0 -207 120 -207zM283 -289q-104 0 -159.5 41.5t-55.5 112.5q0 45 25 72.5t67 27.5q38 0 61 -20t23 -58q0 -22 -6 -43h-43q-9 -18 -9 -28q0 -43 93 -43q198 0 204 354
q-29 -43 -81.5 -69.5t-118.5 -26.5q-108 0 -178 68.5t-70 199.5q0 129 83.5 206t221.5 77q142 0 221.5 -99t79.5 -295q0 -238 -95 -357.5t-263 -119.5z" />
    <glyph glyph-name="parenleftinferior" unicode="&#x208d;" horiz-adv-x="407" 
d="M70 121q0 301 264 561l43 -27q-154 -257 -154 -518q0 -279 148 -547l-41 -30q-50 48 -92 102t-82 124.5t-63 157t-23 177.5z" />
    <glyph glyph-name="parenrightinferior" unicode="&#x208e;" horiz-adv-x="407" 
d="M336 123q0 -301 -264 -561l-43 26q153 250 153 518q0 281 -147 547l41 29q260 -251 260 -559z" />
    <glyph glyph-name="Euro" unicode="&#x20ac;" horiz-adv-x="1167" 
d="M66 373v88h145q-2 23 -2 74q0 25 4 75h-123v88h133q41 199 172.5 311.5t309.5 112.5q60 0 108.5 -11t79.5 -22.5t47 -11.5q14 0 22.5 6.5t20.5 22.5h47l14 -315h-61q-33 127 -96.5 181t-173.5 54q-113 0 -181 -84t-90 -244h404v-88h-410q-2 -23 -2 -67q0 -55 2 -82h365
v-88h-355q24 -144 92 -223.5t181 -79.5q117 0 181 54.5t99 186.5h60l-12 -317h-54q-7 11 -11.5 16t-13 9t-20.5 4q-14 0 -95.5 -23t-164.5 -23q-174 0 -299 104.5t-164 291.5h-159z" />
    <glyph glyph-name="afii61352" unicode="&#x2116;" horiz-adv-x="1931" 
d="M1090 1010v-1020h-99l-659 987h-8v-889l129 -10v-78h-344v78l110 10v922l-110 10v78h368l502 -760h8v672l-113 10v78h328v-78zM1212 657q0 138 85.5 219.5t213.5 81.5q79 0 141.5 -27t104 -93t41.5 -164q0 -145 -86.5 -222t-208.5 -77q-137 0 -214 76t-77 206zM1360 659
q0 -94 38 -143t109 -49q144 0 144 203q0 192 -142 192q-149 0 -149 -203zM1260 174v115h491v-115h-491z" />
    <glyph glyph-name="trademark" unicode="&#x2122;" horiz-adv-x="1912" 
d="M776 1327l10 -233h-53q-9 47 -20 76.5t-24 49t-36 28t-47.5 11.5t-66.5 3h-15v-623l105 -10v-60h-348v60l106 10v623h-14q-53 0 -81 -4.5t-53 -22t-38 -50.5t-23 -91h-55l12 233h641zM1505 1327h275v-59l-82 -8v-623l82 -12v-56h-301v56l80 12v612h-5l-215 -680h-96
l-237 682h-5v-614l74 -12v-56h-223v56l70 12v623l-70 8v59h276l193 -573h4z" />
    <glyph glyph-name="Omega" unicode="&#x2126;" horiz-adv-x="1744" 
d="M977 0v133q65 66 115 130.5t97 147t73 177.5t26 196q0 94 -9.5 172t-36 154.5t-70 128.5t-115.5 84.5t-168 32.5t-170 -32t-120.5 -86t-76.5 -131t-41.5 -159.5t-11.5 -179.5q0 -88 15 -166.5t36.5 -136t61.5 -120.5t73.5 -105.5t87.5 -104.5v-135h-626l-25 459h76
q14 -75 34 -124.5t49 -85t73 -54.5t100.5 -27t138.5 -8h62q-196 114 -295 259t-99 343q0 199 84 357t235.5 247.5t344.5 89.5q190 0 334.5 -82.5t221.5 -229.5t77 -337q0 -97 -33 -191t-80.5 -163.5t-109 -132t-111 -99.5t-92.5 -61h80q82 0 138.5 8t100.5 27t73 54.5t49 85
t34 124.5h76l-25 -459h-651z" />
    <glyph glyph-name="onethird" unicode="&#x2153;" horiz-adv-x="1843" 
d="M268 1346l-159 -11l-9 72l265 37h67v-764l137 -8v-74h-450v72l149 10v666zM389 -23l889 1479h123l-887 -1479h-125zM1372 53q187 0 187 183q0 77 -36.5 119.5t-99.5 68.5q-52 -13 -120 -18l-11 65q109 8 167.5 51.5t58.5 136.5q0 66 -34.5 100t-97.5 34
q-49 0 -75.5 -15.5t-26.5 -42.5q0 -10 2 -16h43q10 -27 10 -49q0 -32 -23.5 -52t-62.5 -20q-42 0 -65 24.5t-23 63.5q0 76 73.5 124t188.5 48q122 0 192.5 -50.5t70.5 -135.5q0 -144 -205 -207v-2q123 -15 186.5 -71t63.5 -148q0 -120 -100 -188t-253 -68q-122 0 -187 45.5
t-65 122.5q0 44 27.5 73t73.5 29q41 0 63.5 -21t22.5 -55q0 -19 -8 -55h-47q-7 -14 -7 -25q0 -49 117 -49z" />
    <glyph glyph-name="twothirds" unicode="&#x2154;" horiz-adv-x="1843" 
d="M344 1391q-54 0 -85.5 -18.5t-31.5 -49.5q0 -14 6 -29h46q10 -30 10 -55q0 -34 -23.5 -54t-64.5 -20q-44 0 -68 27t-24 70q0 88 77.5 141t200.5 53q142 0 208.5 -57.5t66.5 -145.5q0 -68 -30 -125t-105 -133.5t-236 -212.5l-68 -57v-2h223q91 0 126 27t49 96h61l-8 -248
h-572v84l181 197q112 119 154 199.5t42 162.5q0 150 -135 150zM432 -23l889 1479h123l-887 -1479h-125zM1358 53q186 0 186 183q0 77 -36.5 119.5t-98.5 68.5q-51 -13 -121 -18l-10 65q109 8 167 51.5t58 136.5q0 66 -34 100t-97 34q-49 0 -75.5 -15.5t-26.5 -42.5
q0 -10 2 -16h43q10 -27 10 -49q0 -32 -23.5 -52t-62.5 -20q-42 0 -65 24.5t-23 63.5q0 76 73.5 124t188.5 48q122 0 192 -50.5t70 -135.5q0 -144 -205 -207v-2q123 -15 186.5 -71t63.5 -148q0 -120 -100 -188t-252 -68q-122 0 -187 45.5t-65 122.5q0 44 27.5 73t73.5 29
q41 0 63.5 -21t22.5 -55q0 -14 -9 -55h-47q-6 -12 -6 -25q0 -49 117 -49z" />
    <glyph glyph-name="oneeighth" unicode="&#x215b;" horiz-adv-x="1843" 
d="M311 1346l-159 -11l-9 72l265 37h67v-764l137 -8v-74h-450v72l149 10v666zM367 -23l888 1479h123l-886 -1479h-125zM1300 444q-104 9 -162.5 61.5t-58.5 133.5q0 99 78 159t211 60q135 0 213 -55t78 -154q0 -83 -59 -139t-160 -66v-4q122 -7 185 -64.5t63 -152.5
q0 -111 -86.5 -173t-233.5 -62q-150 0 -234.5 59.5t-84.5 167.5q0 96 65.5 156t185.5 69v4zM1368 406q-147 0 -147 -181q0 -80 37 -126t110 -46q148 0 148 174q0 179 -148 179zM1243 635q0 -77 33 -115.5t92 -38.5q125 0 125 156q0 154 -125 154q-63 0 -94 -41.5t-31 -114.5
z" />
    <glyph glyph-name="threeeighths" unicode="&#x215c;" horiz-adv-x="1843" 
d="M338 651q186 0 186 183q0 77 -36.5 119.5t-98.5 68.5q-51 -13 -121 -18l-10 65q109 8 167 51.5t58 136.5q0 66 -34 100t-97 34q-49 0 -75.5 -15.5t-26.5 -42.5q0 -10 2 -16h43q10 -27 10 -49q0 -32 -23.5 -52t-62.5 -20q-42 0 -65 24.5t-23 63.5q0 76 73.5 124t188.5 48
q122 0 192 -50.5t70 -135.5q0 -144 -204 -207v-2q123 -15 186 -71t63 -148q0 -120 -100 -188t-252 -68q-122 0 -187 45.5t-65 122.5q0 44 27.5 73t73.5 29q41 0 63.5 -21t22.5 -55q0 -14 -9 -55h-47q-6 -12 -6 -25q0 -49 117 -49zM399 -23l889 1479h123l-887 -1479h-125z
M1335 444q-104 9 -162.5 61.5t-58.5 133.5q0 99 78 159t211 60q135 0 213 -55t78 -154q0 -83 -59 -139t-160 -66v-4q122 -7 184.5 -64.5t62.5 -152.5q0 -111 -86 -173t-233 -62q-150 0 -235 59.5t-85 167.5q0 96 66 156t186 69v4zM1403 406q-72 0 -110 -46t-38 -135
q0 -80 37.5 -126t110.5 -46q147 0 147 174q0 179 -147 179zM1278 635q0 -77 33 -115.5t92 -38.5q125 0 125 156q0 154 -125 154q-63 0 -94 -41.5t-31 -114.5z" />
    <glyph glyph-name="fiveeighths" unicode="&#x215d;" horiz-adv-x="1843" 
d="M362 1044q-79 0 -169 -53l-37 15l14 428l23 16q305 -33 354 -33q24 0 35.5 11.5t19.5 41.5l49 -6q-17 -115 -39.5 -156.5t-66.5 -41.5q-27 0 -94 18l-205 62l-19 -271q88 47 185 47q139 0 204.5 -71t65.5 -177q0 -135 -97 -211.5t-253 -76.5q-120 0 -183 45.5t-63 122.5
q0 45 26 73.5t74 28.5q41 0 63.5 -21.5t22.5 -56.5q0 -8 -10 -53h-45q-8 -11 -8 -25q0 -24 32 -38.5t87 -14.5q91 0 134.5 54.5t43.5 164.5q0 91 -34.5 134.5t-109.5 43.5zM379 -23l889 1479h123l-887 -1479h-125zM1323 444q-104 9 -162.5 61.5t-58.5 133.5q0 99 78 159
t211 60q135 0 212.5 -55t77.5 -154q0 -83 -59 -139t-160 -66v-4q122 -7 185 -64.5t63 -152.5q0 -111 -86 -173t-233 -62q-150 0 -235 59.5t-85 167.5q0 96 66 156t186 69v4zM1391 406q-72 0 -110 -46t-38 -135q0 -80 37.5 -126t110.5 -46q147 0 147 174q0 179 -147 179z
M1266 635q0 -77 33 -115.5t92 -38.5q125 0 125 156q0 154 -125 154q-63 0 -94 -41.5t-31 -114.5z" />
    <glyph glyph-name="seveneighths" unicode="&#x215e;" horiz-adv-x="1843" 
d="M252 723q0 62 51 146t252 364l55 78h-256q-48 0 -72.5 -3.5t-41.5 -19t-24 -35.5t-17 -65h-60l13 256h563v-64q-122 -213 -188 -354.5t-81.5 -201.5t-15.5 -113q0 -47 21 -88l-43 -37q-77 0 -116.5 40.5t-39.5 96.5zM299 -23l889 1479h123l-887 -1479h-125zM1294 444
q-104 9 -162.5 61.5t-58.5 133.5q0 99 78 159t211 60q135 0 213 -55t78 -154q0 -83 -59 -139t-160 -66v-4q122 -7 184.5 -64.5t62.5 -152.5q0 -111 -86 -173t-233 -62q-150 0 -235 59.5t-85 167.5q0 96 66 156t186 69v4zM1362 406q-72 0 -110 -46t-38 -135q0 -80 37.5 -126
t110.5 -46q147 0 147 174q0 179 -147 179zM1237 635q0 -77 33 -115.5t92 -38.5q125 0 125 156q0 154 -125 154q-63 0 -94 -41.5t-31 -114.5z" />
    <glyph glyph-name="partialdiff" unicode="&#x2202;" horiz-adv-x="1107" 
d="M567 723q-62 0 -112 -26.5t-81 -68.5t-52 -97.5t-29 -109.5t-8 -108q0 -121 41 -179t139 -58q63 0 116 28.5t87 72t58 98t34 104.5t10 92q0 117 -51.5 184.5t-151.5 67.5zM580 1280q-173 0 -154 -100l61 -15q2 -70 -30.5 -109.5t-98.5 -39.5q-47 0 -79.5 31t-32.5 88
q0 56 25 99.5t63.5 69t88.5 42t94.5 22.5t88.5 6q197 0 308.5 -143t111.5 -428q0 -80 -8 -158.5t-27 -161.5t-48.5 -155.5t-75 -138t-103.5 -112t-137.5 -73.5t-173.5 -27q-184 0 -277.5 97t-93.5 268q0 210 126 349.5t327 139.5q196 0 276 -172q25 162 25 256
q0 187 -67.5 276t-188.5 89z" />
    <glyph glyph-name="Delta" unicode="&#x2206;" horiz-adv-x="1224" 
d="M1204 0h-1184l568 1466h76zM569 1128l-370 -981h714l-338 981h-6z" />
    <glyph glyph-name="product" unicode="&#x220f;" horiz-adv-x="1570" 
d="M90 1434h1391v-80l-162 -15v-1552l162 -16v-80h-539v80l162 16v1536h-637v-1536l162 -16v-80h-539v80l162 16v1550l-162 15v82z" />
    <glyph glyph-name="summation" unicode="&#x2211;" horiz-adv-x="1198" 
d="M1108 -309h-1096l-20 37l526 800l-538 877l20 29h1032l17 -385h-76q-16 77 -37 127t-48.5 84t-72 51.5t-97.5 24.5t-134 7h-310l443 -729l-494 -741h379q119 0 195.5 17t128 61.5t78.5 111t45 175.5h75z" />
    <glyph glyph-name="minus" unicode="&#x2212;" horiz-adv-x="1085" 
d="M1008 565h-930v119h930v-119z" />
    <glyph glyph-name="uni2215" unicode="&#x2215;" horiz-adv-x="409" 
d="M-305 -23l889 1479h123l-887 -1479h-125z" />
    <glyph glyph-name="uni2219" unicode="&#x2219;" horiz-adv-x="555" 
d="M129 612q0 64 39 106t108 42q68 0 109 -37t41 -109q0 -68 -38.5 -108.5t-108.5 -40.5q-78 0 -114 42.5t-36 104.5z" />
    <glyph glyph-name="radical" unicode="&#x221a;" horiz-adv-x="1120" 
d="M1092 1524l-344 -1524h-144l-356 752l-146 -68l-32 82l329 162l312 -703l288 1315z" />
    <glyph glyph-name="infinity" unicode="&#x221e;" horiz-adv-x="1318" 
d="M1217 494q0 -113 -78.5 -182.5t-184.5 -69.5q-80 0 -146.5 33t-162.5 126q-162 -159 -303 -159q-112 0 -176 67t-64 176q0 66 24.5 119t64 85t86 48.5t94.5 16.5q72 0 139 -34t166 -128q74 68 154 108.5t147 40.5q112 0 176 -62t64 -185zM1094 496q0 65 -36 103t-95 38
q-94 0 -220 -119q74 -81 121 -112t105 -31t91.5 34.5t33.5 86.5zM362 350q49 0 97 29t114 94q-81 76 -132 112t-93 36q-54 0 -87.5 -35.5t-33.5 -89.5q0 -67 36 -106.5t99 -39.5z" />
    <glyph glyph-name="integral" unicode="&#x222b;" horiz-adv-x="874" 
d="M549 647q51 -353 51 -557q0 -164 -39 -264q-43 -110 -133.5 -184t-212.5 -74q-108 0 -170.5 50.5t-62.5 137.5q0 66 37 109t106 43q51 0 79.5 -30t28.5 -77q0 -23 -6 -47l-65 -6q-12 -27 -12 -47q0 -51 83 -51t140 73t57 199q0 62 -8 142t-17 141.5t-25 162t-24 158.5
q-41 284 -41 471q0 155 43 256q46 111 133 181.5t214 70.5q108 0 170.5 -50.5t62.5 -137.5q0 -66 -37 -109t-106 -43q-51 0 -80 30t-29 77q0 23 6 47l66 6q12 27 12 47q0 51 -86 51q-203 -3 -203 -233q0 -71 68 -543z" />
    <glyph glyph-name="approxequal" unicode="&#x2248;" horiz-adv-x="980" 
d="M729 608q-102 0 -278 45q-136 35 -209 35q-34 0 -60.5 -19.5t-56.5 -74.5l-53 20q28 88 82 144.5t137 56.5q81 0 237 -39q148 -37 232 -37q41 0 62 18t48 72l60 -18q-71 -203 -201 -203zM729 240q-102 0 -278 45q-132 34 -209 34q-34 0 -60.5 -19.5t-56.5 -74.5l-53 21
q28 88 82 144t137 56q85 0 237 -38q148 -37 232 -37q41 0 62 18t48 72l60 -19q-70 -202 -201 -202z" />
    <glyph glyph-name="notequal" unicode="&#x2260;" 
d="M1079 338h-594l-209 -248l-81 72l147 176h-192v119h292l170 200h-462v119h561l176 207l84 -72l-115 -135h223v-119h-323l-170 -200h493v-119z" />
    <glyph glyph-name="lessequal" unicode="&#x2264;" 
d="M1079 0h-929v119h929v-119zM1077 123l-925 397v158l925 391v-133l-794 -334l794 -338v-141z" />
    <glyph glyph-name="greaterequal" unicode="&#x2265;" 
d="M1079 0h-929v119h929v-119zM1077 520l-925 -397v141l794 338l-794 334v133l925 -391v-158z" />
    <glyph glyph-name="triangle" unicode="&#x25b3;" horiz-adv-x="870" 
d="M205 416v614l491 -303z" />
    <glyph glyph-name="lozenge" unicode="&#x25ca;" horiz-adv-x="972" 
d="M901 635l-414 -660l-415 660l415 659zM743 633l-260 430l-256 -426l267 -436z" />
    <glyph glyph-name="circle" unicode="&#x25cb;" horiz-adv-x="1249" 
d="M205 602q0 173 123.5 296.5t296.5 123.5t296 -123.5t123 -296.5t-123 -296.5t-296 -123.5t-296.5 123.5t-123.5 296.5z" />
    <glyph glyph-name="thorn.smcp" unicode="&#xf628;" horiz-adv-x="1085" 
d="M426 999v-108h100q88 0 156.5 -7.5t132 -27.5t105 -53t66 -86.5t24.5 -126.5q0 -82 -27.5 -144.5t-74 -101.5t-115 -64t-143.5 -34.5t-167 -9.5h-57v-144l201 -12v-80h-535v80l135 12v907l-135 11v80h475v-80zM510 801h-84v-475h74q152 0 222.5 63t70.5 189
q0 129 -65 176t-218 47z" />
    <glyph glyph-name="ampersand.smcp" unicode="&#xf62c;" horiz-adv-x="1261" 
d="M811 905q0 -43 -15.5 -78t-37.5 -60t-67 -52.5t-83 -45t-106 -46.5q130 -170 325 -369q77 130 97 289l-127 12v74h342v-74l-117 -12q-31 -216 -125 -350q95 -76 160 -76q42 0 67.5 31.5t30.5 119.5l78 -6q-1 -83 -21 -141t-53.5 -86t-67.5 -39.5t-73 -11.5q-66 0 -120 21
t-118 67q-129 -95 -325 -95q-74 0 -141 18.5t-120.5 54.5t-85.5 95t-32 134q0 114 58 190t169 135q-61 109 -61 201q0 133 92.5 210t232.5 77q115 0 179.5 -53t64.5 -134zM532 76q101 0 177 51q-207 181 -363 408q-86 -73 -86 -193q0 -125 72.5 -195.5t199.5 -70.5zM412 862
q0 -86 55 -182q113 53 160 104t47 117q0 57 -32.5 82t-80.5 25q-64 0 -106.5 -39t-42.5 -107z" />
    <glyph glyph-name="germandbls.smcp" unicode="&#xf637;" horiz-adv-x="1935" 
d="M500 68q123 0 191.5 53t68.5 143q0 40 -15 69.5t-32 47.5t-67.5 36t-81.5 26.5t-114 27.5q-5 1 -8 2q-165 38 -242 105.5t-77 205.5q0 63 22.5 120.5t65 104.5t113 75t157.5 28q58 0 108 -12t82 -24.5t46 -12.5q18 0 26.5 8t18.5 29h61l13 -322h-78q-38 132 -103 189
t-174 57q-96 0 -155.5 -45t-59.5 -119q0 -34 13.5 -61t33 -45t56.5 -34t68 -25.5t83 -22.5q42 -10 64 -16t60 -17.5t59 -21t52 -25.5t48 -32t37.5 -39.5t31 -50t18 -60.5t7.5 -74q0 -157 -103.5 -258t-285.5 -101q-68 0 -123.5 12.5t-91 25t-53.5 12.5q-12 0 -20 -7.5
t-11.5 -16t-11.5 -30.5h-68l-16 363h80q19 -68 40 -113t55.5 -82.5t86.5 -55t125 -17.5zM1446 68q123 0 191.5 53t68.5 143q0 89 -70 132q-51 31 -206 68q-10 2 -41 9q-165 38 -242.5 105.5t-77.5 205.5q0 63 22.5 120.5t65 104.5t113 75t157.5 28q58 0 108 -12t82 -24.5
t46 -12.5q18 0 26.5 8t18.5 29h61l13 -322h-78q-38 132 -103 189t-174 57q-96 0 -155.5 -45t-59.5 -119q0 -34 13.5 -61t33 -45t56.5 -34t68 -25.5t83 -22.5q42 -10 64 -16t60 -17.5t59 -21t52 -25.5t48 -32t37.5 -39.5t31 -50t18 -60.5t7.5 -74q0 -157 -103.5 -258
t-285.5 -101q-68 0 -123.5 12.5t-91 25t-53.5 12.5q-12 0 -20 -7.5t-11.5 -16t-11.5 -30.5h-68l-16 363h80q19 -68 40 -113t55.5 -82.5t86.5 -55t125 -17.5z" />
    <glyph glyph-name="cent.smcp" unicode="&#xf63a;" horiz-adv-x="985" 
d="M309 -80l45 199q-125 44 -190.5 151.5t-65.5 264.5q0 222 127 349.5t336 127.5l43 180l88 -18l-39 -170q112 -22 179 -91.5t67 -164.5q0 -72 -36.5 -110t-94.5 -38q-50 0 -81.5 26.5t-31.5 69.5t17 78h63q6 21 6 39q0 80 -108 102l-162 -696q38 -14 96 -14
q100 0 159.5 51.5t92.5 146.5l80 -20q-15 -54 -39.5 -100t-66.5 -92t-109.5 -72.5t-153.5 -26.5q-45 0 -88 6l-45 -198zM309 559q0 -206 80 -289l152 650q-119 -10 -175.5 -106t-56.5 -255z" />
    <glyph glyph-name="exclam.smcp" unicode="&#xf63e;" horiz-adv-x="634" 
d="M274 281v137q0 136 -15 258t-29.5 203.5t-14.5 119.5q0 51 29.5 82t83.5 31q50 0 76 -31t26 -80q0 -45 -18 -126.5t-36 -201t-18 -257.5v-135h-84zM207 88q0 45 28 75t80 30q50 0 80.5 -26.5t30.5 -76.5q0 -49 -28 -77.5t-81 -28.5q-57 0 -83.5 30t-26.5 74z" />
    <glyph glyph-name="question.smcp" unicode="&#xf63f;" horiz-adv-x="874" 
d="M420 1112q158 0 245 -67.5t87 -180.5q0 -131 -111 -233l-223 -199v-162h-82v289q0 27 18 45l138 127q81 75 81 166q0 139 -190 139q-150 0 -150 -69q0 -3 5 -23h49q12 -34 12 -61q0 -44 -28.5 -70.5t-71.5 -26.5q-53 0 -80 31t-27 80q0 94 91.5 154.5t236.5 60.5zM266 88
q0 45 29 75t80 30t80.5 -26t29.5 -77q0 -49 -27.5 -77.5t-80.5 -28.5q-57 0 -84 30.5t-27 73.5z" />
    <glyph glyph-name="ordfeminine.smcp" unicode="&#xf640;" horiz-adv-x="802" 
d="M387 881h102v96q0 94 -30 138t-111 44q-110 0 -110 -53q0 -13 2 -19h51q8 -36 8 -53q0 -37 -25 -59.5t-67 -22.5q-45 0 -70.5 26.5t-25.5 70.5q0 78 74 127t194 49q146 0 213 -59t67 -203v-306q0 -43 8.5 -59t32.5 -16q26 0 50 8l16 -58q-58 -30 -127 -30q-63 0 -96.5 24
t-42.5 76q-31 -45 -86.5 -72.5t-128.5 -27.5q-94 0 -151.5 42.5t-57.5 135.5q0 109 80.5 155t230.5 46zM352 586q56 0 96.5 32t40.5 93v106h-73q-87 0 -123.5 -31.5t-36.5 -93.5q0 -53 22.5 -79.5t73.5 -26.5z" />
    <glyph glyph-name="ordmasculine.smcp" unicode="&#xf641;" horiz-adv-x="841" 
d="M590 860q0 67 -7 115.5t-25 90.5t-52.5 63.5t-85.5 21.5q-50 0 -84.5 -20.5t-52 -61t-24.5 -87.5t-7 -112q0 -68 7.5 -118t25.5 -92t53 -63.5t86 -21.5q93 0 129.5 74.5t36.5 210.5zM70 860q0 165 95.5 265t260.5 100q172 0 259 -97t87 -262q0 -167 -93 -265.5
t-261 -98.5q-172 0 -260 96.5t-88 261.5z" />
    <glyph glyph-name="questiondown.smcp" unicode="&#xf642;" horiz-adv-x="874" 
d="M424 -23q-158 0 -245 67.5t-87 180.5q0 132 111 234l223 198v162h82v-289q0 -26 -19 -45l-137 -127q-82 -76 -82 -165q0 -140 191 -140q149 0 149 70q0 6 -4 22h-49q-12 34 -12 62q0 44 28 70t72 26q53 0 80 -30.5t27 -79.5q0 -94 -91.5 -155t-236.5 -61zM578 1001
q0 -45 -29 -74.5t-80 -29.5t-81 25.5t-30 76.5q0 49 28 78t81 29q57 0 84 -30.5t27 -74.5z" />
    <glyph glyph-name="exclamdown.smcp" unicode="&#xf643;" horiz-adv-x="634" 
d="M362 809v-137q0 -136 15 -258t30 -204t15 -120q0 -51 -29.5 -82t-83.5 -31q-50 0 -76 31t-26 80q0 45 18 127t36 201.5t18 257.5v135h83zM430 1001q0 -45 -28 -74.5t-80 -29.5q-50 0 -80.5 26t-30.5 76q0 49 27.5 78t80.5 29q57 0 84 -30.5t27 -74.5z" />
    <glyph glyph-name="percent.smcp" unicode="&#xf69e;" horiz-adv-x="1515" 
d="M825 260q0 138 85.5 219.5t213.5 81.5q124 0 205.5 -70.5t81.5 -214.5q0 -145 -86.5 -222t-208.5 -77q-137 0 -214 76.5t-77 206.5zM971 262q0 -94 39 -143t110 -49q146 0 146 200q0 100 -38 148.5t-106 48.5q-151 0 -151 -205zM104 821q0 138 85.5 219.5t213.5 81.5
q79 0 141.5 -27t104 -93t41.5 -164q0 -145 -86.5 -222t-208.5 -77q-137 0 -214 76t-77 206zM248 823q0 -94 39.5 -143t111.5 -49q146 0 146 203q0 194 -144 194q-153 0 -153 -205zM356 0l680 1100h123l-678 -1100h-125z" />
    <glyph glyph-name="perthousand.smcp" unicode="&#xf69f;" horiz-adv-x="2154" 
d="M1477 260q0 138 85.5 219.5t213.5 81.5q123 0 204.5 -70.5t81.5 -214.5q0 -145 -86.5 -222t-208.5 -77q-137 0 -213.5 76.5t-76.5 206.5zM1624 262q0 -94 38.5 -143t109.5 -49q143 0 143 202q0 195 -141 195q-150 0 -150 -205zM823 260q0 138 85.5 219.5t213.5 81.5
q124 0 205.5 -70.5t81.5 -214.5q0 -145 -86.5 -222t-208.5 -77q-137 0 -214 76.5t-77 206.5zM971 262q0 -94 38 -143t109 -49q144 0 144 202q0 195 -142 195q-149 0 -149 -205zM102 821q0 138 85.5 219.5t213.5 81.5q79 0 141.5 -27t104 -93t41.5 -164q0 -145 -86.5 -222
t-208.5 -77q-137 0 -214 76t-77 206zM250 823q0 -94 38 -143t109 -49q144 0 144 203q0 194 -142 194q-149 0 -149 -205zM354 0l680 1100h123l-678 -1100h-125z" />
    <glyph glyph-name="slash.smcp" unicode="&#xf6a0;" horiz-adv-x="638" 
d="M23 -152l489 1389h104l-487 -1389h-106z" />
    <glyph glyph-name="backslash.smcp" unicode="&#xf6a1;" horiz-adv-x="641" 
d="M129 1237l489 -1389h-108l-487 1389h106z" />
    <glyph glyph-name="at.smcp" unicode="&#xf6a2;" horiz-adv-x="1409" 
d="M709 825q99 0 163 -57l29 47h109l-54 -301q-20 -113 -20 -166q0 -56 22 -80t72 -24q77 0 139 93.5t62 240.5q0 219 -124.5 338.5t-375.5 119.5q-159 0 -281.5 -64t-194 -191.5t-71.5 -301.5q0 -106 29.5 -191t80.5 -141t122 -93.5t150 -53.5t169 -16q224 0 373 125
l43 -54q-74 -65 -187 -102t-229 -37q-137 0 -251 34t-200.5 101t-135 175t-48.5 247q0 181 76 323.5t223 226t342 83.5q255 0 411.5 -137t156.5 -381q0 -190 -88 -298t-215 -108q-161 0 -195 113q-32 -47 -83.5 -79t-117.5 -32q-78 0 -128.5 34.5t-69.5 86t-19 119.5
q0 97 27.5 176t73.5 126.5t101 73t114 25.5zM813 420l45 282q-59 52 -133 52q-49 0 -86 -31t-57.5 -81.5t-30.5 -105t-10 -110.5q0 -162 112 -162q58 0 103.5 46t56.5 110z" />
    <glyph glyph-name="parenleft.smcp" unicode="&#xf6a3;" horiz-adv-x="512" 
d="M98 512q0 118 29 229.5t79 202.5t102.5 159.5t113.5 129.5l51 -33q-201 -330 -201 -668q0 -359 193 -704l-49 -37q-58 58 -110 127.5t-101 160.5t-78 203.5t-29 229.5z" />
    <glyph glyph-name="parenright.smcp" unicode="&#xf6a4;" horiz-adv-x="512" 
d="M410 514q0 -118 -29 -229.5t-79 -202.5t-101.5 -159.5t-112.5 -129.5l-53 33q201 324 201 668q0 359 -191 704l49 35q58 -56 110 -126t100.5 -161t77 -203.5t28.5 -228.5z" />
    <glyph glyph-name="braceleft.smcp" unicode="&#xf6a5;" horiz-adv-x="575" 
d="M82 559q32 1 55.5 6.5t48.5 20.5t38.5 47.5t13.5 81.5q0 60 -24 171.5t-24 160.5q0 87 54 137.5t159 50.5q46 0 117 -21l-18 -69q-40 12 -72 12q-37 0 -58.5 -21t-21.5 -81q0 -31 21.5 -150.5t21.5 -175.5q0 -44 -11.5 -77.5t-26.5 -53.5t-42.5 -36t-47 -23t-52.5 -17
q41 -13 66.5 -24.5t55 -34t44 -59.5t14.5 -89q0 -56 -21.5 -190.5t-21.5 -159.5q0 -61 25.5 -84.5t70.5 -23.5q38 0 70 14l23 -70q-51 -22 -129 -22q-107 0 -163.5 51t-56.5 141q0 45 24 171.5t24 185.5q0 47 -13.5 79.5t-38 47.5t-49 20.5t-55.5 5.5v78z" />
    <glyph glyph-name="braceright.smcp" unicode="&#xf6a6;" horiz-adv-x="575" 
d="M489 559v-78q-157 0 -157 -153q0 -59 24.5 -185.5t24.5 -171.5q0 -89 -57 -140.5t-164 -51.5q-76 0 -127 22l20 70q35 -14 72 -14q96 0 96 108q0 25 -22.5 159.5t-22.5 190.5q0 42 11 75t27 53t43 36.5t47.5 24.5t53.5 18q-34 10 -53 17t-47.5 23t-43.5 36t-26.5 53.5
t-11.5 77.5q0 56 22.5 175.5t22.5 150.5q0 60 -22.5 81t-59.5 21q-31 0 -71 -12l-17 69q71 21 115 21q105 0 160 -50.5t55 -137.5q0 -49 -24.5 -160.5t-24.5 -171.5q0 -49 13.5 -81.5t39 -47.5t49 -20.5t55.5 -6.5z" />
    <glyph glyph-name="bracketleft.smcp" unicode="&#xf6a7;" horiz-adv-x="512" 
d="M479 -141v-76h-336v1464h336v-78h-90q-62 0 -79 -13t-17 -66v-1149q0 -57 15.5 -69.5t78.5 -12.5h92z" />
    <glyph glyph-name="bracketright.smcp" unicode="&#xf6a8;" horiz-adv-x="512" 
d="M29 -217v76h92q64 0 80 12.5t16 69.5v1149q0 52 -17.5 65.5t-78.5 13.5h-92v78h336v-1464h-336z" />
    <glyph glyph-name="asterisk.smcp" unicode="&#xf6a9;" horiz-adv-x="999" 
d="M831 1100l-296 -88l210 -68q31 -10 47 -17t30 -23t14 -38q0 -54 -91 -96l-217 188l45 -276q-52 -41 -96 -41q-31 0 -47 16.5t-16 44.5q0 32 12 74l55 185l-225 -191q-92 40 -92 96q0 57 72 76l235 70l-303 86q-2 12 -2 41q0 40 15.5 68t49.5 28q38 0 95 -47l155 -125
l-51 293q52 41 96 41q31 0 46.5 -17.5t15.5 -44.5q0 -38 -8 -75l-50 -199l140 125q52 49 102 49q64 0 64 -92q0 -8 -5 -43z" />
    <glyph glyph-name="quoteleft.smcp" unicode="&#xf6aa;" horiz-adv-x="487" 
d="M354 1411l39 -53q-157 -102 -157 -219q0 -47 28 -60l64 58q73 -45 73 -125q0 -46 -35 -81.5t-96 -35.5q-72 0 -110.5 48.5t-38.5 121.5q0 105 65.5 193t167.5 153z" />
    <glyph glyph-name="quoteright.smcp" unicode="&#xf6ab;" horiz-adv-x="487" 
d="M139 815l-39 53q158 103 158 219q0 46 -29 60l-63 -57q-74 46 -74 124q0 46 35 81.5t96 35.5q72 0 111 -48.5t39 -121.5q0 -105 -66 -193t-168 -153z" />
    <glyph glyph-name="quotedblleft.smcp" unicode="&#xf6ac;" horiz-adv-x="831" 
d="M360 1411l39 -53q-157 -102 -157 -219q0 -47 28 -60l64 58q74 -46 74 -125q0 -46 -35.5 -81.5t-96.5 -35.5q-72 0 -110.5 48.5t-38.5 121.5q0 105 65.5 193t167.5 153zM705 1411l38 -53q-157 -102 -157 -219q0 -47 28 -60l64 58q74 -46 74 -125q0 -46 -35 -81.5
t-96 -35.5q-72 0 -111 48.5t-39 121.5q0 105 66 193t168 153z" />
    <glyph glyph-name="quotedblright.smcp" unicode="&#xf6ad;" horiz-adv-x="825" 
d="M139 815l-39 53q158 103 158 219q0 46 -29 60l-63 -57q-74 46 -74 124q0 46 35 81.5t96 35.5q72 0 111 -48.5t39 -121.5q0 -105 -66 -193t-168 -153zM477 815l-39 53q158 103 158 219q0 46 -29 60l-63 -57q-74 46 -74 124q0 46 35 81.5t96 35.5q72 0 111 -48.5t39 -121.5
q0 -105 -66 -193t-168 -153z" />
    <glyph glyph-name="one.alt" unicode="&#xf801;" horiz-adv-x="1638" 
d="M184 614q0 132 45.5 249.5t127.5 204t203.5 137t264.5 50.5q159 0 282.5 -49.5t200 -137.5t115.5 -202.5t39 -249.5q0 -134 -42.5 -250t-121.5 -203.5t-202 -137.5t-275 -50q-156 0 -279 50t-200 137.5t-117.5 202t-40.5 249.5zM584 877l174 12v-555l-160 -12v-76h473v76
l-153 12v661h-64l-279 -37z" />
    <glyph glyph-name="two.alt" unicode="&#xf802;" horiz-adv-x="1638" 
d="M184 616q0 132 45.5 249t127.5 203.5t203.5 136.5t264.5 50q159 0 282.5 -49.5t200 -137t115.5 -201.5t39 -249q0 -134 -42.5 -250t-121.5 -203.5t-202 -137.5t-275 -50q-156 0 -279 50t-200 137.5t-117.5 202t-40.5 249.5zM766 928q85 0 119.5 -40.5t34.5 -117.5
q0 -44 -15 -85.5t-53.5 -95t-117.5 -115.5t-195 -130v-96h610l10 280h-69q-11 -57 -28 -87.5t-55.5 -47t-105.5 -16.5h-196v6q210 106 299.5 198.5t89.5 198.5q0 48 -14 87t-45.5 73t-90 53t-139.5 19q-124 0 -214.5 -59.5t-90.5 -166.5q0 -49 25 -78.5t73 -29.5
q42 0 67 19.5t25 52.5q0 32 -12 67h-45q-8 16 -8 33q0 37 43 57.5t98 20.5z" />
    <glyph glyph-name="three.alt" unicode="&#xf803;" horiz-adv-x="1638" 
d="M184 616q0 132 45.5 249t127.5 203.5t203.5 136.5t264.5 50q159 0 282.5 -49.5t200 -137t115.5 -201.5t39 -249q0 -134 -42.5 -250t-121.5 -203.5t-202 -137.5t-275 -50q-156 0 -279 50t-200 137.5t-117.5 202t-40.5 249.5zM1135 457q0 92 -62 138t-192 58
q108 25 155 72.5t47 116.5q0 83 -65 126.5t-187 43.5q-115 0 -196.5 -49.5t-81.5 -139.5q0 -94 96 -94q37 0 61.5 20t24.5 62q0 19 -8 55h-47q-2 4 -2 15q0 23 29 37t81 14q127 0 127 -111q0 -76 -53 -113t-166 -46l9 -70q87 10 131 18q57 -21 87.5 -53.5t30.5 -101.5
q0 -74 -48.5 -112t-135.5 -38q-127 0 -127 47q0 12 6 21h53q9 24 9 45q0 42 -26.5 68t-68.5 26q-51 0 -79.5 -29t-28.5 -80q0 -86 77.5 -130t202.5 -44q61 0 119.5 12.5t111 38t84.5 71.5t32 106z" />
    <glyph glyph-name="four.alt" unicode="&#xf804;" horiz-adv-x="1638" 
d="M184 616q0 132 45.5 249t127.5 203.5t203.5 136.5t264.5 50q159 0 282.5 -49.5t200 -137t115.5 -201.5t39 -249q0 -134 -42.5 -250t-121.5 -203.5t-202 -137.5t-275 -50q-156 0 -279 50t-200 137.5t-117.5 202t-40.5 249.5zM993 248v166h127v114h-127v467h-149l-400 -467
v-114h392v-166h157zM836 528h-285l278 318h7v-318z" />
    <glyph glyph-name="five.alt" unicode="&#xf805;" horiz-adv-x="1638" 
d="M184 616q0 132 45.5 249t127.5 203.5t203.5 136.5t264.5 50q159 0 282.5 -49.5t200 -137t115.5 -201.5t39 -249q0 -134 -42.5 -250t-121.5 -203.5t-202 -137.5t-275 -50q-156 0 -279 50t-200 137.5t-117.5 202t-40.5 249.5zM817 655q133 0 133 -159q0 -99 -55.5 -145
t-146.5 -46q-95 0 -95 41q0 12 6 27h52q8 27 8 49q0 42 -24.5 65t-69.5 23q-47 0 -78 -29.5t-31 -77.5t22 -83t60 -54t82.5 -28t95.5 -9q162 0 261.5 72t99.5 201q0 46 -12.5 85t-40.5 74.5t-82 55.5t-130 20q-107 0 -198 -53l28 174h285q58 0 79.5 38t41.5 140l-53 8
q-10 -26 -22 -37.5t-36 -11.5h-344l-22 -12l-41 -373l47 -18q109 63 180 63z" />
    <glyph glyph-name="six.alt" unicode="&#xf806;" horiz-adv-x="1638" 
d="M184 616q0 132 45.5 249t127.5 203.5t203.5 136.5t264.5 50q159 0 282.5 -49.5t200 -137t115.5 -201.5t39 -249q0 -134 -42.5 -250t-121.5 -203.5t-202 -137.5t-275 -50q-156 0 -279 50t-200 137.5t-117.5 202t-40.5 249.5zM670 461q0 79 42 128.5t119 49.5
q130 0 130 -162q0 -83 -36.5 -127.5t-107.5 -44.5q-70 0 -108.5 43t-38.5 113zM889 936q50 0 74 -13.5t16 -45.5l-45 -7q0 -3 -3 -17.5t-3 -21.5q0 -39 24.5 -59t63.5 -20q40 0 66 25.5t26 74.5q0 75 -65 118.5t-166 43.5q-167 0 -271 -116.5t-104 -330.5
q0 -169 81.5 -253.5t229.5 -84.5q146 0 229.5 70t83.5 184q0 118 -70.5 176t-174.5 58q-68 0 -127.5 -28.5t-89.5 -67.5q3 169 65 242t160 73z" />
    <glyph glyph-name="seven.alt" unicode="&#xf807;" horiz-adv-x="1638" 
d="M184 616q0 132 45.5 249t127.5 203.5t203.5 136.5t264.5 50q159 0 282.5 -49.5t200 -137t115.5 -201.5t39 -249q0 -134 -42.5 -250t-121.5 -203.5t-202 -137.5t-275 -50q-156 0 -279 50t-200 137.5t-117.5 202t-40.5 249.5zM666 350q0 -48 43 -82.5t112 -34.5l51 46
q-20 36 -20 81q0 47 15.5 96t76.5 163.5t184 316.5v57h-569l-8 -252h65q15 75 39.5 94t112.5 19h248q-44 -55 -92 -114t-75.5 -93t-58 -72.5t-46 -58.5t-32.5 -44t-23.5 -36.5t-13 -29t-8 -28.5t-1.5 -28z" />
    <glyph glyph-name="eight.alt" unicode="&#xf808;" horiz-adv-x="1638" 
d="M184 616q0 132 45.5 249t127.5 203.5t203.5 136.5t264.5 50q159 0 282.5 -49.5t200 -137t115.5 -201.5t39 -249q0 -134 -42.5 -250t-121.5 -203.5t-202 -137.5t-275 -50q-156 0 -279 50t-200 137.5t-117.5 202t-40.5 249.5zM762 635v-6q-125 -8 -194.5 -60t-69.5 -139
q0 -102 84.5 -153.5t236.5 -51.5q146 0 232 55t86 156q0 85 -65 134.5t-193 58.5v6q104 9 166.5 59t62.5 125q0 91 -75.5 141t-213.5 50q-132 0 -210.5 -54.5t-78.5 -148.5q0 -78 60 -123t172 -49zM819 586q-157 0 -157 -148q0 -147 157 -147q78 0 116 35t38 112
q0 148 -154 148zM686 811q0 -137 133 -137q67 0 98 33t31 106q0 67 -31 98t-98 31q-133 0 -133 -131z" />
    <glyph glyph-name="nine.alt" unicode="&#xf809;" horiz-adv-x="1638" 
d="M184 616q0 132 45.5 249t127.5 203.5t203.5 136.5t264.5 50q159 0 282.5 -49.5t200 -137t115.5 -201.5t39 -249q0 -134 -42.5 -250t-121.5 -203.5t-202 -137.5t-275 -50q-156 0 -279 50t-200 137.5t-117.5 202t-40.5 249.5zM971 772q0 -78 -42 -124t-120 -46
q-129 0 -129 156q0 178 143 178q69 0 108.5 -46.5t39.5 -117.5zM772 303q-113 0 -113 47q0 4 3 19h49q6 42 6 45q0 35 -24.5 54t-63.5 19q-41 0 -67.5 -25.5t-26.5 -74.5q0 -75 67.5 -117.5t181.5 -42.5q355 0 355 420q0 365 -312 365q-147 0 -230 -73t-83 -198
q0 -109 68 -163t178 -54q73 0 129 28.5t88 68.5v-17q0 -301 -205 -301z" />
    <glyph glyph-name="zero.tosf" unicode="&#xf81e;" 
d="M76 537q0 121 30.5 220t83 166t123.5 112.5t149 66t163 20.5q82 0 155.5 -18t142.5 -61t118.5 -106.5t79.5 -161.5t30 -220q0 -121 -30.5 -219.5t-82.5 -164t-122 -110.5t-146.5 -64.5t-159.5 -19.5q-254 0 -394 147.5t-140 412.5zM301 549q0 -239 80.5 -358t232.5 -119
q161 0 236.5 118.5t75.5 366.5q0 467 -310 467q-150 0 -232.5 -116.5t-82.5 -358.5z" />
    <glyph glyph-name="one.tosf" unicode="&#xf81f;" 
d="M543 975l-258 -19l-11 91l410 53h61v-1002l209 -16v-82h-647v80l236 18v877z" />
    <glyph glyph-name="two.tosf" unicode="&#xf820;" 
d="M524 1022q-96 0 -153.5 -34.5t-57.5 -92.5q0 -27 15 -57h67q17 -56 17 -101q0 -48 -34.5 -76t-88.5 -28q-61 0 -96 41t-35 112q0 106 60 184t154.5 115t207.5 37q108 0 188 -28t124.5 -77t65.5 -107.5t21 -127.5q0 -80 -27.5 -153.5t-89.5 -150.5t-169.5 -155
t-260.5 -155v-8h291q75 0 123.5 12t78.5 41t45.5 67.5t28.5 102.5h72l-14 -383h-869v96q145 83 252 166.5t165.5 150t93.5 136t45 118t10 101.5q0 254 -230 254z" />
    <glyph glyph-name="three.tosf" unicode="&#xf821;" 
d="M1065 104q0 -90 -31.5 -164t-84 -123t-121.5 -82.5t-142 -48t-149 -14.5q-77 0 -139.5 11.5t-118 38.5t-86.5 77.5t-31 122.5q0 66 38 108t99 42t93 -31t32 -88q0 -40 -10 -74h-68q-8 -16 -8 -35q0 -71 176 -71q167 0 248.5 90t81.5 252q0 66 -15.5 116t-47 84.5
t-68 57.5t-90.5 45q-94 -23 -199 -33l-12 94q178 16 273 88.5t95 225.5q0 115 -59.5 172t-169.5 57q-94 0 -144.5 -34.5t-31.5 -88.5h61q15 -51 15 -82q0 -46 -32.5 -74t-80.5 -28q-56 0 -89.5 35t-33.5 96q0 86 55 150t140.5 95t187.5 31q178 0 286.5 -80.5t108.5 -224.5
q0 -125 -73.5 -205t-229.5 -139q375 -50 375 -369z" />
    <glyph glyph-name="four.tosf" unicode="&#xf822;" 
d="M889 92v-397h-201v397h-606v109l631 899h178v-899h158l12 139h84v-379h-84l-12 131h-160zM199 201h489v667h-10z" />
    <glyph glyph-name="five.tosf" unicode="&#xf823;" 
d="M600 463q-78 0 -143.5 -28.5t-139.5 -82.5l-53 27l72 696l33 25h508q34 0 51 21t30 69l70 -10q-24 -170 -51.5 -216t-116.5 -46h-426l-59 -439q132 90 289 90q108 0 187.5 -31t125 -86.5t67 -123.5t21.5 -150q0 -242 -142 -374t-391 -132q-71 0 -132 11.5t-117 38
t-88.5 78t-32.5 122.5q0 66 38 108t99 42t93 -31t32 -88q0 -40 -10 -74h-68q-23 -49 22 -80.5t154 -31.5q320 0 320 387q0 144 -59.5 226.5t-182.5 82.5z" />
    <glyph glyph-name="six.tosf" unicode="&#xf824;" 
d="M395 551q-16 -67 -16 -143q0 -148 62 -240t190 -92q133 0 190.5 88t57.5 256q0 156 -56.5 230.5t-169.5 74.5q-82 0 -160 -50.5t-98 -123.5zM729 1280q-81 0 -143.5 -33t-110.5 -104t-74.5 -193t-29.5 -291q43 69 138.5 120.5t205.5 51.5q78 0 143 -21t118.5 -66
t83.5 -125t30 -189q0 -203 -124 -328t-341 -125q-226 0 -342.5 142t-116.5 461q0 383 151.5 588.5t401.5 205.5q147 0 230 -62.5t83 -166.5q0 -68 -34 -102.5t-85 -34.5t-82.5 27t-31.5 81q0 13 8 53l57 11q4 16 4 26q0 74 -139 74z" />
    <glyph glyph-name="seven.tosf" unicode="&#xf825;" 
d="M418 -109q0 116 91.5 288t438.5 733q3 4 4 6h-405q-51 0 -83 -2.5t-59 -12t-41.5 -21t-27.5 -38t-20 -55t-17 -78.5h-74l15 389h864v-66q-148 -275 -243.5 -473t-138.5 -322.5t-57 -194.5t-14 -138q0 -83 33 -150l-61 -63q-205 8 -205 198z" />
    <glyph glyph-name="eight.tosf" unicode="&#xf826;" 
d="M528 702q-163 13 -252.5 96.5t-89.5 215.5q0 160 116 259t312 99q200 0 315 -89.5t115 -248.5q0 -136 -90 -225.5t-249 -106.5v-6q189 -13 287 -102t98 -242q0 -180 -127 -277.5t-349 -97.5q-226 0 -351.5 94t-125.5 271q0 154 104 247t287 107v6zM614 635
q-126 0 -194 -69.5t-68 -209.5q0 -136 68 -209t194 -73q260 0 260 284q0 277 -260 277zM389 1018q0 -128 60.5 -190t164.5 -62q224 0 224 256q0 126 -57.5 189t-166.5 63q-108 0 -166.5 -67t-58.5 -189z" />
    <glyph glyph-name="nine.tosf" unicode="&#xf827;" 
d="M580 338q159 0 243 119q41 57 41 213q0 181 -61 269.5t-191 88.5q-250 0 -250 -356q0 -334 218 -334zM535 -328q-162 0 -244 71t-82 181q0 73 37 113.5t98 40.5q49 0 83 -27t34 -86q0 -37 -10 -71h-64q-14 -25 -14 -52q0 -75 159 -75q165 0 253.5 161.5t88.5 474.5
q-50 -79 -136.5 -122t-188.5 -43q-175 0 -286 107.5t-111 320.5q0 207 124 331.5t342 124.5q222 0 339.5 -168t117.5 -514q0 -395 -141.5 -581.5t-398.5 -186.5z" />
    <glyph glyph-name="s_t" unicode="&#xfb06;" horiz-adv-x="1718" 
d="M100 -23v367h80q6 -88 53 -150t112.5 -89t141.5 -27q98 0 151.5 45.5t53.5 132.5q0 34 -8.5 60.5t-28.5 45t-39 31t-53.5 23t-57 15.5t-65.5 13q-135 27 -189 55q-128 69 -130 230q0 133 97.5 222t244.5 89q67 0 114.5 -15t116.5 -48l8 12q-86 60 -118.5 125.5
t-32.5 142.5q0 138 104.5 227t278.5 89q71 0 128 -10.5t110 -37.5t89 -71t57 -114.5t21 -163.5v-158h226v-100h-226v-666q0 -86 24 -122t83 -36t96 35.5t62 126.5l77 -20q-32 -134 -100.5 -196.5t-196.5 -62.5q-114 0 -176.5 59t-62.5 183v699h-154v100h154v176
q0 128 -57 205.5t-187 77.5q-68 0 -117 -19t-75 -51.5t-38 -70t-12 -81.5q0 -67 35 -124t97 -91v-319h-80q-58 225 -258 225q-80 0 -133.5 -42.5t-53.5 -108.5q0 -24 8 -44.5t17.5 -34.5t32 -27t37 -20t48 -16t49.5 -12.5t56 -11.5q41 -8 67.5 -14.5t64.5 -19t62.5 -27
t52 -38t43 -52.5t26 -70t10.5 -91q0 -148 -89.5 -244t-254.5 -96q-143 0 -269 76q-16 8 -24 8q-13 0 -21 -17.5t-12 -66.5h-70z" />
    <glyph glyph-name="g.calt" horiz-adv-x="987" 
d="M717 983q38 43 88 72.5t100 29.5q36 0 64 -14v-115l-193 -28q105 -105 105 -250q0 -170 -109 -269.5t-274 -99.5q-50 0 -117 13q-52 -47 -74 -73.5t-22 -47.5q0 -27 18.5 -35t65.5 -8h151q71 0 125.5 -5.5t111 -22.5t93 -45t59.5 -77.5t23 -116.5q0 -80 -24 -137.5
t-78.5 -100.5t-147.5 -64t-227 -21q-114 0 -195.5 15.5t-129.5 45.5t-69.5 69t-21.5 91q0 78 38 125.5t103 85.5q-71 33 -71 113q0 19 4 36.5t15.5 36t19.5 30.5t30.5 33t32 30t40 34.5t40.5 34.5q-95 33 -146 115.5t-51 191.5q0 77 25.5 146t74.5 122.5t127.5 85
t176.5 31.5q136 0 219 -57zM514 -33h-264q-51 -69 -51 -139q0 -52 20.5 -84t84.5 -52t179 -20q155 0 227 38.5t72 133.5q0 33 -13 55.5t-34 35.5t-57.5 20.5t-72.5 9.5t-91 2zM293 678q0 -146 53 -209t150 -63q190 0 190 276q0 144 -50 206t-142 62q-88 0 -144.5 -65.5
t-56.5 -206.5z" />
    </font>
</defs>
</svg>
