<?xml version="1.0" standalone="no"?>
<!DOCTYPE svg PUBLIC "-//W3C//DTD SVG 1.1//EN" "http://www.w3.org/Graphics/SVG/1.1/DTD/svg11.dtd" >
<svg xmlns="http://www.w3.org/2000/svg" xmlns:xlink="http://www.w3.org/1999/xlink" version="1.1">
<metadata>
Created by FontForge 20170731 at Wed Sep  9 13:31:50 2020
 By Aleksey,,,
Copyright (c) 2011 by TypeTogether. All rights reserved.
</metadata>
<defs>
<font id="AbrilText-Bold" horiz-adv-x="1228" >
  <font-face 
    font-family="Abril Text"
    font-weight="700"
    font-stretch="normal"
    units-per-em="2048"
    panose-1="2 0 8 3 7 0 0 2 0 4"
    ascent="1597"
    descent="-451"
    x-height="1026"
    cap-height="1434"
    bbox="-383 -588 4063 2243"
    underline-thickness="92"
    underline-position="-300"
    unicode-range="U+0020-FB06"
  />
<missing-glyph horiz-adv-x="409" 
 />
    <glyph glyph-name="ij" unicode="ij" horiz-adv-x="1368" 
d="M137 1339q0 79 48 130t147 51q90 0 139 -45t49 -134q0 -82 -47.5 -131t-144.5 -49q-103 0 -147 52t-44 126zM49 1014l467 16v-874l156 -15v-141h-627v141l154 15v706l-150 15v137zM760 -326q79 0 105 70t26 223v895l-152 15v137l469 16v-831q0 -108 -13.5 -199
t-46 -172.5t-83 -137.5t-128.5 -89t-179 -33q-148 0 -227.5 61t-79.5 150q0 77 46 123.5t119 46.5q71 0 109.5 -36t38.5 -99q0 -11 -4 -39l-72 -15q-8 -19 -8 -34q0 -52 80 -52zM825 1339q0 79 48 130t147 51q90 0 139 -45t49 -134q0 -82 -47.5 -131t-144.5 -49
q-103 0 -147 52t-44 126z" />
    <glyph glyph-name="ff" unicode="ff" horiz-adv-x="1509" 
d="M1470 1026v-156h-284v-714l248 -19v-137h-695v137l129 19v714h-364v-714l147 -19v-137h-604v137l139 19v714h-133v156h133v47q0 223 124.5 355.5t353.5 132.5q111 0 184.5 -47t101.5 -121q122 190 383 190q77 0 137 -20.5t95 -55t53 -75t18 -84.5q0 -86 -43 -131.5
t-116 -45.5t-111.5 39.5t-38.5 100.5q0 24 10 51l72 8q8 19 8 41q0 62 -80 62q-45 0 -75.5 -17t-46.5 -49t-22.5 -70.5t-6.5 -89.5v-221h284zM874 1026l29 156l-12 6q-30 -37 -84 -37q-68 0 -101.5 34t-33.5 91q0 36 10 63l74 9q8 21 8 43q0 59 -88 59q-172 0 -172 -225
v-199h370z" />
    <glyph glyph-name="fi" unicode="fi" horiz-adv-x="1372" 
d="M504 1026h692v-870l156 -15v-141h-598v139l125 17v714h-375v-714l160 -17v-139h-617v137l139 19v714h-133v156h133v27q0 251 148.5 390.5t415.5 139.5q190 0 294.5 -75.5t104.5 -192.5q0 -87 -48.5 -133.5t-127.5 -46.5q-80 0 -124 44t-44 107q0 28 8 64l86 8q6 21 6 39
q0 24 -11.5 39.5t-33.5 23t-44 10.5t-52 3q-260 0 -260 -293v-154z" />
    <glyph glyph-name="fl" unicode="fl" horiz-adv-x="1386" 
d="M748 1026v-156h-244v-714l153 -19v-137h-610v137l139 19v714h-133v156h133v41q0 243 123.5 379.5t356.5 136.5q200 0 284 -145l170 98h88v-1380l142 -15v-141h-584v139l125 17v897l37 202l-10 2q-12 -40 -44.5 -60.5t-76.5 -20.5q-66 0 -99.5 33.5t-33.5 86.5q0 36 12 68
l74 6q6 21 6 39q0 64 -86 64q-91 0 -128.5 -59.5t-37.5 -166.5v-221h244z" />
    <glyph glyph-name="ffi" unicode="ffi" horiz-adv-x="2072" 
d="M1204 1026h692v-870l156 -15v-141h-598v139l125 17v714h-375v-714l160 -17v-139h-616v137l139 19v714h-383v-714l147 -19v-137h-604v137l139 19v714h-133v156h133v47q0 223 124.5 355.5t353.5 132.5q111 0 189.5 -54t111.5 -135q151 211 485 211q190 0 294.5 -75.5
t104.5 -192.5q0 -87 -48.5 -133.5t-127.5 -46.5q-80 0 -124 44t-44 107q0 28 8 64l86 8q7 24 7 39q0 31 -22.5 49t-50.5 22.5t-69 4.5q-260 0 -260 -293v-154zM893 1026l27 166l-11 2q-30 -45 -98 -45t-103.5 35t-35.5 92q0 36 10 63l74 9q8 21 8 43q0 59 -88 59
q-172 0 -172 -225v-199h389z" />
    <glyph glyph-name="ffl" unicode="ffl" horiz-adv-x="2091" 
d="M1452 1026v-156h-244v-714l154 -19v-137h-610v137l139 19v714h-387v-714l147 -19v-137h-604v137l139 19v714h-133v156h133v47q0 223 124.5 355.5t353.5 132.5q107 0 187 -50.5t118 -134.5q134 207 401 207q201 0 285 -145l170 98h88v-1380l141 -15v-141h-584v139l125 17
v897l37 202l-10 2q-12 -40 -44.5 -60.5t-76.5 -20.5q-66 0 -99.5 33.5t-33.5 86.5q0 36 12 68l74 6q6 21 6 39q0 64 -86 64q-91 0 -128.5 -59.5t-37.5 -166.5v-221h244zM895 1026l29 158l-13 6q-17 -20 -47 -30.5t-53 -10.5q-68 0 -103.5 35t-35.5 92q0 36 10 63l74 9
q8 21 8 43q0 59 -88 59q-172 0 -172 -225v-199h391z" />
    <glyph glyph-name="f_k" unicode="fk" horiz-adv-x="2002" 
d="M760 141l131 15v897l37 202l-10 2q-12 -40 -44.5 -60.5t-76.5 -20.5q-66 0 -99.5 35.5t-33.5 95.5q0 25 12 57l74 6q6 21 6 39q0 64 -86 64q-91 0 -128.5 -59.5t-37.5 -166.5v-221h244v-156h-244v-714l153 -19v-137h-610v137l139 19v714h-133v156h133v41
q0 243 123.5 379.5t356.5 136.5q200 0 284 -145l170 98h88v-1380l103 -15v-141h-551v141zM1501 635l377 -479l98 -13v-143h-553v141l90 11v10l-292 373v38l352 297v13l-127 8v135h475v-139l-145 -15z" />
    <glyph glyph-name="f_b" unicode="fb" horiz-adv-x="1990" 
d="M748 1026v-156h-244v-714l153 -19v-137h-610v137l139 19v714h-133v156h133v41q0 243 123.5 379.5t356.5 136.5q200 0 284 -145l170 98h90v-647l7 -4q95 164 303 164q198 0 301.5 -133.5t103.5 -387.5q0 -260 -116.5 -405.5t-327.5 -145.5q-203 0 -303 134h-11l-88 -111
h-180v1053l29 202l-10 2q-12 -40 -44.5 -60.5t-76.5 -20.5q-66 0 -99.5 35.5t-33.5 95.5q0 25 12 57l74 6q6 21 6 39q0 64 -86 64q-91 0 -128.5 -59.5t-37.5 -166.5v-221h244zM1407 881q-99 0 -148 -69t-49 -187v-269q0 -113 53 -172t142 -59q56 0 92 22.5t56 74t27 119
t7 173.5q0 77 -4 130.5t-15 101t-31 75.5t-52 44t-78 16z" />
    <glyph glyph-name="f_h" unicode="fh" horiz-adv-x="2019" 
d="M758 143l133 15v895l37 202l-10 2q-12 -40 -44.5 -60.5t-76.5 -20.5q-66 0 -99.5 35.5t-33.5 95.5q0 25 12 57l74 6q6 21 6 39q0 64 -86 64q-91 0 -128.5 -59.5t-37.5 -166.5v-221h244v-156h-244v-714l153 -19v-137h-610v137l139 19v714h-133v156h133v41
q0 243 123.5 379.5t356.5 136.5q200 0 284 -145l170 98h88v-543l-8 -129h12q31 56 68.5 94t102 64.5t149.5 26.5q156 0 236.5 -79.5t80.5 -254.5v-557l129 -15v-143h-542v143l96 15v516q0 47 -4 76.5t-17 56t-39.5 39t-68.5 12.5q-88 0 -141.5 -57.5t-53.5 -179.5v-463
l105 -15v-143h-555v143z" />
    <glyph glyph-name="f_t" unicode="ft" horiz-adv-x="1576" 
d="M868 289v581h-364v-714l250 -19v-137h-707v137l139 19v714h-133v156h133v41q0 245 116.5 380.5t348.5 135.5q77 0 137 -20.5t95 -55t53 -75t18 -84.5q0 -48 -14 -80l129 55h117v-297h274v-156h-274v-587q0 -71 22.5 -104.5t75.5 -33.5q55 0 88.5 49.5t65.5 167.5l118 -30
q-30 -176 -117 -265.5t-249 -89.5q-159 0 -240.5 74t-81.5 238zM504 1247v-221h364v160q-35 -15 -73 -15q-73 0 -111.5 39.5t-38.5 100.5q0 24 10 51l74 8q6 21 6 41q0 62 -80 62q-45 0 -75.5 -17t-46.5 -49t-22.5 -70.5t-6.5 -89.5z" />
    <glyph glyph-name="f_j" unicode="fj" horiz-adv-x="1355" 
d="M748 -326q79 0 105 70t26 223v903h-375v-714l160 -17v-139h-617v137l139 19v714h-133v156h133v27q0 251 148.5 390.5t415.5 139.5q190 0 294.5 -75.5t104.5 -192.5q0 -87 -48.5 -133.5t-127.5 -46.5q-80 0 -124 44t-44 107q0 28 8 64l86 8q6 21 6 39q0 24 -11.5 39.5
t-33.5 23t-44 10.5t-52 3q-260 0 -260 -293v-154h692v-827q0 -108 -13.5 -199t-46.5 -172.5t-83.5 -137.5t-128.5 -89t-179 -33q-148 0 -227.5 61t-79.5 150q0 77 46.5 123.5t119.5 46.5q71 0 109.5 -36t38.5 -99q0 -11 -4 -39l-72 -15q-8 -16 -8 -34q0 -52 80 -52z" />
    <glyph glyph-name="f_f_j" unicode="ffj" horiz-adv-x="2050" 
d="M1442 -326q79 0 105 70t26 223v903h-375v-714l160 -17v-139h-617v137l140 19v714h-377v-714l147 -19v-137h-604v137l139 19v714h-133v156h133v47q0 223 124.5 355.5t353.5 132.5q110 0 186 -44t111 -122q94 110 202 149t281 39q190 0 294.5 -75.5t104.5 -192.5
q0 -87 -48.5 -133.5t-127.5 -46.5q-80 0 -124 44t-44 107q0 28 8 64l86 8q6 21 6 39q0 24 -11.5 39.5t-33.5 23t-44 10.5t-52 3q-260 0 -260 -293v-154h692v-827q0 -108 -13.5 -199t-46 -172.5t-83 -137.5t-128.5 -89t-179 -33q-148 0 -227.5 61t-79.5 150q0 77 46 123.5
t119 46.5q71 0 109.5 -36t38.5 -99q0 -11 -4 -39l-72 -15q-8 -16 -8 -34q0 -52 80 -52zM504 1225v-199h383l26 156l-10 6q-37 -39 -96 -39q-65 0 -99 35t-34 92q0 36 10 63l74 13q8 21 8 43q0 55 -90 55q-172 0 -172 -225z" />
    <glyph glyph-name="f_f_k" unicode="ffk" horiz-adv-x="2697" 
d="M1454 141l131 15v897l37 202l-10 2q-12 -40 -44.5 -60.5t-76.5 -20.5q-66 0 -99.5 35.5t-33.5 95.5q0 25 12 57l74 6q6 21 6 39q0 64 -86 64q-91 0 -128.5 -59.5t-37.5 -166.5v-221h244v-156h-244v-714l154 -19v-137h-611v137l140 19v714h-377v-714l147 -19v-137h-604
v137l139 19v714h-133v156h133v47q0 223 124.5 355.5t353.5 132.5q110 0 190.5 -50t114.5 -139q128 211 391 211q201 0 285 -145l170 98h88v-1380l102 -15v-141h-551v141zM2195 635l377 -479l99 -13v-143h-553v141l90 11v10l-293 373v38l352 297v13l-127 8v135h475v-139
l-145 -15zM885 1026l35 156l-13 8q-17 -20 -45.5 -30.5t-50.5 -10.5q-68 0 -103.5 35t-35.5 92q0 36 10 63l74 9q8 21 8 43q0 59 -88 59q-172 0 -172 -225v-199h381z" />
    <glyph glyph-name="f_f_b" unicode="ffb" horiz-adv-x="2684" 
d="M1442 1026v-156h-244v-714l154 -19v-137h-611v137l140 19v714h-377v-714l147 -19v-137h-604v137l139 19v714h-133v156h133v47q0 223 124.5 355.5t353.5 132.5q112 0 192 -53.5t111 -143.5q54 98 153 158.5t240 60.5q201 0 285 -145l170 98h90v-647l6 -4q95 164 303 164
q198 0 301.5 -133.5t103.5 -387.5q0 -260 -116.5 -405.5t-327.5 -145.5q-203 0 -303 134h-10l-88 -111h-181v1053l29 202l-10 2q-12 -40 -44.5 -60.5t-76.5 -20.5q-66 0 -99.5 35.5t-33.5 95.5q0 25 12 57l74 6q6 21 6 39q0 64 -86 64q-91 0 -128.5 -59.5t-37.5 -166.5v-221
h244zM2101 881q-99 0 -147.5 -69t-48.5 -187v-269q0 -114 52.5 -172.5t141.5 -58.5q56 0 92 22.5t56 74t27 119t7 173.5q0 77 -4 130.5t-15 101t-31 75.5t-52 44t-78 16zM887 1026l28 160l-10 6q-14 -20 -42.5 -31.5t-51.5 -11.5q-68 0 -103.5 35t-35.5 92q0 36 10 63l74 9
q8 21 8 43q0 59 -88 59q-172 0 -172 -225v-199h383z" />
    <glyph glyph-name="f_f_h" unicode="ffh" horiz-adv-x="2713" 
d="M1452 143l133 15v895l37 202l-10 2q-12 -40 -44.5 -60.5t-76.5 -20.5q-66 0 -99.5 35.5t-33.5 95.5q0 25 12 57l74 6q6 21 6 39q0 64 -86 64q-91 0 -128.5 -59.5t-37.5 -166.5v-221h244v-156h-244v-714l154 -19v-137h-611v137l140 19v714h-377v-714l147 -19v-137h-604
v137l139 19v714h-133v156h133v47q0 223 124.5 355.5t353.5 132.5q116 0 198 -53t113 -148q53 97 149 160t236 63q201 0 285 -145l170 98h88v-543l-9 -129h13q32 56 68.5 94t101 64.5t149.5 26.5q156 0 237 -79.5t81 -254.5v-557l129 -15v-143h-543v143l96 15v516
q0 47 -4 76.5t-17 56t-39.5 39t-68.5 12.5q-88 0 -141 -57.5t-53 -179.5v-463l104 -15v-143h-555v143zM885 1026l28 156l-10 8q-14 -19 -41.5 -30t-50.5 -11q-68 0 -103.5 35t-35.5 92q0 36 10 63l74 9q8 21 8 43q0 59 -88 59q-172 0 -172 -225v-199h381z" />
    <glyph glyph-name="f_f_t" unicode="fft" horiz-adv-x="2279" 
d="M1571 289v581h-373v-714l248 -19v-137h-694v137l129 19v714h-377v-714l147 -19v-137h-604v137l139 19v714h-133v156h133v47q0 223 124.5 355.5t353.5 132.5q112 0 191.5 -47.5t107.5 -120.5q122 190 383 190q77 0 137 -20.5t95 -55t53 -75t18 -84.5t-15 -82l138 57h116
v-297h275v-156h-275v-587q0 -71 23 -104.5t76 -33.5q55 0 88 49.5t65 167.5l119 -30q-30 -175 -117.5 -265t-249.5 -90q-159 0 -240 74t-81 238zM887 1026l28 156l-12 6q-14 -17 -43 -27t-53 -10q-68 0 -101.5 34t-33.5 91q0 36 10 63l74 9q8 21 8 43q0 59 -88 59
q-172 0 -172 -225v-199h383zM1571 1026v164q-40 -19 -82 -19q-73 0 -111.5 39.5t-38.5 100.5q0 22 11 51l71 8q9 21 9 41q0 62 -80 62q-59 0 -94 -31.5t-46.5 -78.5t-11.5 -116v-221h373z" />
    <glyph glyph-name="f_iacute" unicode="f&#xed;" horiz-adv-x="1394" 
d="M1219 1026v-870l155 -15v-141h-606v141l133 15v714h-395v-714l168 -19v-137h-625v137l139 19v714h-133v156h133v41q0 245 114.5 380.5t338.5 135.5q77 0 135 -20.5t91 -55t49 -74.5t16 -85q0 -85 -43.5 -131t-116.5 -46t-111 39.5t-38 100.5q0 24 10 51l74 8q6 21 6 41
q0 62 -74 62q-42 0 -69 -16.5t-40.5 -49.5t-18.5 -70t-5 -90v-221h713zM983 1163l135 369l99 27q49 14 86.5 -7t37.5 -69q0 -49 -49 -101l-239 -260z" />
    <glyph glyph-name="t_t" unicode="tt" horiz-adv-x="1574" 
d="M1188 -23q-150 0 -231.5 65t-90.5 208q-79 -273 -368 -273q-159 0 -240.5 74t-81.5 238v581h-153v156h153v256l201 41h117v-297h372v256l201 41h117v-297h274v-156h-274v-587q0 -71 22.5 -104.5t75.5 -33.5q55 0 88.5 49.5t65.5 167.5l118 -30q-30 -176 -117 -265.5
t-249 -89.5zM592 145q58 0 101 50.5t73 160.5l100 -26v540h-372v-587q0 -71 22.5 -104.5t75.5 -33.5z" />
    <glyph glyph-name=".notdef" horiz-adv-x="409" 
 />
    <glyph glyph-name=".null" horiz-adv-x="0" 
 />
    <glyph glyph-name="nonmarkingreturn" horiz-adv-x="682" 
 />
    <glyph glyph-name="space" unicode=" " horiz-adv-x="368" 
 />
    <glyph glyph-name="exclam" unicode="!" horiz-adv-x="784" 
d="M328 379v119q0 148 -15 281t-32.5 210t-32.5 154.5t-15 126.5q0 76 46 127t131 51q81 0 122 -50t41 -122q0 -57 -18 -137.5t-40 -156.5t-40 -207.5t-18 -278.5v-117h-129zM240 129q0 65 39 107.5t110 42.5q69 0 111.5 -37.5t42.5 -110.5q0 -71 -39.5 -112.5t-112.5 -41.5
q-79 0 -115 43.5t-36 108.5z" />
    <glyph glyph-name="quotedbl" unicode="&#x22;" horiz-adv-x="757" 
d="M188 1077l-49 449q60 49 119 49q40 0 66 -22.5t26 -65.5q0 -28 -10 -96l-59 -314h-93zM492 1077l-50 449q60 49 119 49q40 0 66 -22.5t26 -65.5q0 -28 -10 -96l-59 -314h-92z" />
    <glyph glyph-name="numbersign" unicode="#" horiz-adv-x="1226" 
d="M373 0h-109l45 285h-246l21 100h240l57 334h-246l19 102h239l39 266h111l-41 -266h311l39 266h109l-41 -266h247l-18 -102h-244l-51 -334h244l-17 -100h-239l-47 -285h-107l47 285h-315zM801 719h-312l-57 -334h316z" />
    <glyph glyph-name="dollar" unicode="$" horiz-adv-x="1075" 
d="M377 -158l22 168q-19 6 -42.5 16t-39 15.5t-26.5 5.5q-17 0 -25.5 -11.5t-21.5 -49.5h-123l-19 381h138q26 -92 67.5 -146t112.5 -76l41 295q-6 0 -10 2q-176 39 -264.5 121.5t-88.5 218.5q0 147 108 249t296 102q17 0 57 -5l23 152l98 -10l-25 -166q17 -5 36.5 -13.5
t31.5 -13t20 -4.5q18 0 28 10.5t20 34.5h108l12 -334h-133q-26 76 -58.5 121t-82.5 66l-39 -273q70 -17 119.5 -33.5t102 -45t84.5 -63.5t52.5 -88.5t20.5 -121.5q0 -161 -113 -261.5t-299 -100.5q-27 0 -67 4l-23 -156zM541 129q204 0 204 141q0 63 -40.5 92.5t-145.5 55.5
l-41 -289h23zM344 862q0 -57 38 -87t120 -52l39 268q-10 2 -29 2q-75 0 -121.5 -34t-46.5 -97z" />
    <glyph glyph-name="percent" unicode="%" horiz-adv-x="1560" 
d="M852 264q0 140 90.5 222.5t235.5 82.5q141 0 227 -71t86 -217q0 -147 -91.5 -225.5t-230.5 -78.5q-154 0 -235.5 77t-81.5 210zM1059 266q0 -192 115 -192q63 0 86.5 50t23.5 152t-26 148.5t-82 46.5q-60 0 -88.5 -49t-28.5 -156zM82 825q0 140 90.5 222.5t235.5 82.5
q141 0 227 -71t86 -217q0 -147 -91.5 -225t-230.5 -78q-155 0 -236 77t-81 209zM289 827q0 -97 27.5 -144.5t86.5 -47.5q61 0 86 51t25 152q0 102 -26 148t-82 46q-60 0 -88.5 -49t-28.5 -156zM373 0l680 1100h137l-678 -1100h-139z" />
    <glyph glyph-name="ampersand" unicode="&#x26;" horiz-adv-x="1748" 
d="M1120 1190q0 -46 -11.5 -84.5t-37 -71t-54.5 -59t-78 -54t-92 -48.5t-110 -50q124 -187 406 -469q86 143 112 334l-165 14v136h432v-136l-150 -16q-47 -247 -149 -403q110 -93 188 -93q57 0 83 39t32 150l110 -10q-5 -392 -284 -392q-158 0 -324 109q-170 -109 -405 -109
q-96 0 -184.5 23.5t-162.5 69t-118.5 122.5t-44.5 175q0 142 73.5 234.5t227.5 170.5q-80 157 -80 279q0 181 127.5 285t326.5 104q164 0 248 -70.5t84 -179.5zM750 125q97 0 178 35q-235 197 -447 499q-63 -81 -63 -208q0 -158 89.5 -242t242.5 -84zM627 1139
q0 -115 65 -242q118 60 170.5 130.5t52.5 158.5q0 74 -36 107.5t-91 33.5q-72 0 -116.5 -49.5t-44.5 -138.5z" />
    <glyph glyph-name="quotesingle" unicode="'" horiz-adv-x="452" 
d="M188 1077l-49 449q60 49 117 49q40 0 66 -22.5t26 -65.5q0 -45 -10 -96l-59 -314h-91z" />
    <glyph glyph-name="parenleft" unicode="(" horiz-adv-x="708" 
d="M102 643q0 125 26.5 241.5t67.5 209t105.5 187t126 164.5t143.5 152l76 -49q-118 -210 -177.5 -430.5t-59.5 -480.5q0 -448 227 -895l-72 -53q-74 72 -134.5 141.5t-124 164t-106.5 190t-70.5 215t-27.5 243.5z" />
    <glyph glyph-name="parenright" unicode=")" horiz-adv-x="710" 
d="M608 645q0 -125 -26.5 -242t-68 -209t-106.5 -186.5t-126 -164t-144 -152.5l-76 49q240 426 240 893q0 462 -229 913l71 53q74 -72 134.5 -141.5t124.5 -164t107.5 -190t71 -215t27.5 -243.5z" />
    <glyph glyph-name="asterisk" unicode="*" horiz-adv-x="1054" 
d="M911 1266l-333 -76l235 -70q24 -7 38 -12t32 -15.5t26.5 -26.5t8.5 -38q0 -81 -123 -133l-238 231l66 -321q-63 -49 -123 -49q-39 0 -63.5 20t-24.5 55q0 42 16 91l68 206l-234 -233q-49 19 -87 53t-38 80q0 40 28 59.5t81 34.5l225 68l-328 74q-6 30 -6 65q0 45 22.5 83
t65.5 38q20 0 38 -8.5t29.5 -18t39.5 -34.5l164 -148l-64 324q63 49 121 49q40 0 64 -21t24 -55q0 -40 -20 -104l-62 -195l160 150q61 61 112 61q44 0 66.5 -34t22.5 -87q0 -33 -9 -63z" />
    <glyph glyph-name="plus" unicode="+" 
d="M1079 565h-405v-428h-133v428h-391v119h391v401h133v-401h405v-119z" />
    <glyph glyph-name="comma" unicode="," horiz-adv-x="589" 
d="M209 -340l-68 78q114 96 153.5 156t39.5 110q0 65 -45 78l-80 -80q-46 15 -81.5 57.5t-35.5 100.5q0 82 55 127t132 45q101 0 155.5 -67.5t54.5 -168.5q0 -118 -65.5 -220t-214.5 -216z" />
    <glyph glyph-name="hyphen" unicode="-" horiz-adv-x="690" 
d="M102 496v178h486v-178h-486z" />
    <glyph glyph-name="period" unicode="." horiz-adv-x="598" 
d="M109 162q0 80 49.5 131t138.5 51t140.5 -44.5t51.5 -133.5q0 -85 -49 -135.5t-139 -50.5q-101 0 -146.5 53t-45.5 129z" />
    <glyph glyph-name="slash" unicode="/" horiz-adv-x="825" 
d="M29 -199l604 1827h151l-602 -1827h-153z" />
    <glyph glyph-name="zero" unicode="0" horiz-adv-x="1300" 
d="M72 541q0 151 47 267t129.5 185.5t187 104.5t226.5 35q94 0 175.5 -19t154.5 -62.5t125 -108.5t82 -163t30 -221q0 -121 -31 -219.5t-84.5 -165.5t-128 -112t-159 -65t-179.5 -20q-282 0 -428.5 148t-146.5 416zM420 553q0 -225 53.5 -332.5t181.5 -107.5
q130 0 178 106.5t48 341.5q0 222 -53.5 327t-174.5 105q-122 0 -177.5 -108.5t-55.5 -331.5z" />
    <glyph glyph-name="one" unicode="1" horiz-adv-x="931" 
d="M346 911l-248 -20l-16 149l428 70h162v-936l209 -16v-158h-770v156l235 18v737z" />
    <glyph glyph-name="two" unicode="2" horiz-adv-x="1140" 
d="M440 1010q-71 0 -110 -29t-39 -76q0 -15 8 -43h78q14 -54 14 -90q0 -63 -41.5 -101t-120.5 -38t-121 48t-42 122q0 143 127 236.5t342 93.5q97 0 173.5 -18t126.5 -49t83 -75t47 -92.5t14 -105.5q0 -70 -29 -133t-76.5 -114.5t-126.5 -104.5t-160 -95.5t-196 -95.5v-8
h264q74 0 123.5 12.5t79.5 41.5t45.5 64t28.5 91h125l-15 -451h-936v186q129 76 223.5 145.5t152 127t91.5 115.5t46 106t12 102q0 228 -191 228z" />
    <glyph glyph-name="three" unicode="3" horiz-adv-x="1081" 
d="M1030 104q0 -90 -33.5 -163.5t-89.5 -122.5t-132.5 -82.5t-160.5 -48.5t-174 -15q-205 0 -308 74.5t-103 208.5q0 77 46.5 131.5t131.5 54.5q76 0 114.5 -39.5t38.5 -105.5q0 -28 -12 -82h-80q-10 -23 -10 -43q0 -82 156 -82q138 0 205 80t67 223q0 209 -172 307
q-96 -23 -186 -32l-21 120q170 15 243 80t73 217q0 112 -49 169t-138 57q-82 0 -116 -35.5t-21 -91.5h78q12 -58 12 -84q0 -63 -40.5 -101.5t-117.5 -38.5q-78 0 -119.5 46.5t-41.5 117.5q0 133 123.5 221.5t332.5 88.5t320.5 -87t111.5 -235q0 -238 -319 -334v-6
q189 -19 290 -112t101 -255z" />
    <glyph glyph-name="four" unicode="4" horiz-adv-x="1232" 
d="M975 43v-348h-318v348h-585v225l604 842h301v-842h188v-225h-190zM231 268h426v574h-10z" />
    <glyph glyph-name="five" unicode="5" horiz-adv-x="1058" 
d="M449 428q-66 0 -123.5 -25t-124.5 -75l-86 32l69 719l43 31h553q43 0 62.5 19t31.5 71l89 -10q-12 -93 -23.5 -148.5t-29 -101.5t-44.5 -67.5t-65 -32.5t-96 -11h-400l-51 -337q134 92 317 92q209 0 313.5 -112.5t104.5 -293.5q0 -159 -77.5 -274.5t-210.5 -172.5
t-308 -57q-193 0 -292 75.5t-99 205.5q0 77 47 131.5t131 54.5q77 0 115.5 -39.5t38.5 -105.5q0 -39 -12 -82h-80q-11 -26 -11 -43q0 -80 152 -80q137 0 198.5 87t61.5 263q0 144 -47 215.5t-147 71.5z" />
    <glyph glyph-name="six" unicode="6" horiz-adv-x="1159" 
d="M588 109q104 0 148 77t44 228q0 133 -38.5 197.5t-131.5 64.5q-60 0 -110 -30.5t-74 -78.5q-33 -73 -33 -159q0 -62 9.5 -113t30.5 -94.5t60.5 -67.5t94.5 -24zM696 1251q-146 0 -228.5 -146t-86.5 -437q39 64 125 112.5t199 48.5q60 0 113 -11.5t103.5 -39.5t86 -71.5
t57.5 -113t22 -157.5q0 -219 -138.5 -339t-366.5 -120q-114 0 -203 33t-157 103t-104 188.5t-36 280.5q0 381 163.5 586.5t438.5 205.5q170 0 268.5 -72.5t98.5 -205.5q0 -75 -43 -123.5t-117 -48.5q-75 0 -115.5 40t-40.5 109q0 17 13 76l71 2q6 18 6 33q0 67 -129 67z" />
    <glyph glyph-name="seven" unicode="7" horiz-adv-x="1048" 
d="M262 -90q0 42 12 82.5t31.5 79.5t71.5 114t103 145t158 217t206 288h-406q-51 0 -83 -2.5t-59 -12t-41.5 -21t-27.5 -38t-20 -55t-17 -78.5h-118l22 481h932v-143q-202 -375 -302.5 -584.5t-128.5 -301.5t-28 -173q0 -83 33 -150l-70 -65q-138 0 -203 61t-65 156z" />
    <glyph glyph-name="eight" unicode="8" horiz-adv-x="1191" 
d="M473 702q-165 9 -259.5 95t-94.5 219q0 161 127.5 259.5t353.5 98.5q230 0 357.5 -89t127.5 -249q0 -136 -96 -227.5t-258 -106.5v-6q196 -15 297.5 -104t101.5 -238q0 -183 -145.5 -280t-384.5 -97q-247 0 -387.5 92t-140.5 267q0 156 107 252t294 108v6zM600 633
q-96 0 -143 -72.5t-47 -202.5q0 -258 190 -258q101 0 147 63t46 195q0 275 -193 275zM444 1008q0 -238 156 -238q84 0 120 59t36 183t-35 180.5t-121 56.5q-84 0 -120 -61t-36 -180z" />
    <glyph glyph-name="nine" unicode="9" horiz-adv-x="1159" 
d="M553 379q118 0 180 100q39 66 39 207q0 153 -43.5 234t-150.5 81q-104 0 -148.5 -82t-44.5 -241q0 -149 39 -224t129 -75zM481 -330q-174 0 -269 73.5t-95 195.5q0 83 46 135.5t124 52.5q72 0 110.5 -39t38.5 -106q0 -39 -12 -80h-76q-10 -20 -10 -45q0 -64 135 -64
q147 0 229.5 151.5t83.5 444.5q-42 -68 -124 -115t-185 -47q-80 0 -149.5 25t-126 74.5t-89 133.5t-32.5 193q0 118 38.5 210.5t107 151t160 88.5t200.5 30q232 0 365.5 -164.5t133.5 -487.5q0 -408 -161.5 -609.5t-442.5 -201.5z" />
    <glyph glyph-name="colon" unicode=":" horiz-adv-x="598" 
d="M109 162q0 80 49.5 131t138.5 51t140.5 -44.5t51.5 -133.5q0 -85 -49 -135.5t-139 -50.5q-101 0 -146.5 53t-45.5 129zM109 840q0 80 49.5 131t138.5 51t140.5 -44.5t51.5 -133.5q0 -85 -49 -136t-139 -51q-101 0 -146.5 53t-45.5 130z" />
    <glyph glyph-name="semicolon" unicode=";" horiz-adv-x="581" 
d="M211 -340l-68 78q115 96 155 156t40 110q0 65 -45 78l-80 -80q-46 15 -81.5 57.5t-35.5 100.5q0 82 54 127t131 45q101 0 157 -67.5t56 -168.5q0 -118 -66 -220t-217 -216zM100 840q0 80 50 131t139 51t140.5 -44.5t51.5 -133.5q0 -85 -49 -136t-139 -51
q-101 0 -147 53.5t-46 129.5z" />
    <glyph glyph-name="less" unicode="&#x3c;" 
d="M1077 82l-925 397v158l925 391v-133l-794 -334l794 -338v-141z" />
    <glyph glyph-name="equal" unicode="=" 
d="M1079 678h-929v119h929v-119zM1079 338h-929v119h929v-119z" />
    <glyph glyph-name="greater" unicode="&#x3e;" 
d="M1077 479l-925 -397v141l794 338l-794 334v133l925 -391v-158z" />
    <glyph glyph-name="question" unicode="?" horiz-adv-x="1101" 
d="M539 1448q223 0 334.5 -94t111.5 -240q0 -88 -29 -158.5t-100 -136.5l-313 -295v-162h-127v386q0 35 22 57l156 156q60 60 81 100.5t21 93.5q0 87 -59.5 131.5t-159.5 44.5q-158 0 -158 -96q0 -6 5 -31h75q15 -51 15 -82q0 -65 -41 -104t-117 -39q-80 0 -121 46.5
t-41 117.5q0 130 120 217.5t325 87.5zM324 129q0 65 39 107.5t110 42.5q69 0 111.5 -37.5t42.5 -110.5q0 -71 -39.5 -112.5t-112.5 -41.5q-79 0 -115 43.5t-36 108.5z" />
    <glyph glyph-name="at" unicode="@" horiz-adv-x="1738" 
d="M856 819q119 0 195 -76l34 62h175l-66 -383q-27 -152 -27 -219q0 -71 26 -103t85 -32q41 0 82.5 27t78 77t59 132t22.5 181q0 288 -154.5 446.5t-464.5 158.5q-146 0 -269.5 -49.5t-213.5 -141.5t-140.5 -231.5t-50.5 -311.5q0 -140 38 -251.5t102.5 -184.5t153.5 -121.5
t185 -69t203 -20.5q272 0 459 158l51 -60q-91 -85 -230.5 -133.5t-281.5 -48.5q-129 0 -244 26.5t-214.5 84t-171.5 141t-113 204t-41 267.5q0 237 94 422.5t275 293t423 107.5q153 0 281.5 -44.5t222 -128t145.5 -211t52 -287.5q0 -126 -30.5 -226.5t-83 -162t-119.5 -93.5
t-142 -32q-195 0 -246 141q-97 -137 -252 -137q-143 0 -210.5 86.5t-67.5 230.5q0 128 33.5 228.5t90 161t124.5 91.5t143 31zM975 299l55 350q-59 53 -135 53q-56 0 -97 -40t-62 -104.5t-30.5 -129t-9.5 -129.5q0 -94 26.5 -142t92.5 -48q67 0 107 52.5t53 137.5z" />
    <glyph glyph-name="A" unicode="A" horiz-adv-x="1480" 
d="M954 172l-80 231h-444l-80 -231l146 -16v-156h-486v156l131 16l480 1264h241l469 -1264l139 -16v-156h-667v156zM659 1057l-180 -494h350l-163 494h-7z" />
    <glyph glyph-name="B" unicode="B" horiz-adv-x="1306" 
d="M59 1434h547q106 0 188.5 -10.5t152.5 -34.5t115.5 -63t71 -98t25.5 -136q0 -276 -309 -330v-4q180 -25 280.5 -114t100.5 -238q0 -96 -32 -167.5t-87 -116.5t-138.5 -73t-175.5 -38.5t-210 -10.5h-529v156l150 14v1094l-150 12v158zM547 662v-496h47q146 0 215.5 55
t69.5 195q0 128 -67 187t-202 59h-63zM547 1268v-451h31q129 0 188 58t59 178q0 117 -57 166t-184 49h-37z" />
    <glyph glyph-name="C" unicode="C" horiz-adv-x="1400" 
d="M799 1296q-350 0 -350 -575q0 -294 88 -437t264 -143q149 0 227.5 84.5t124.5 259.5h154l-15 -483h-137q-12 38 -22 54t-29 16q-13 0 -58.5 -23.5t-124 -47.5t-171.5 -24q-117 0 -217 26.5t-184 84.5t-143 144t-91.5 209.5t-32.5 277.5q0 176 55 318.5t149.5 232.5
t215.5 138t258 48q86 0 157.5 -20.5t113 -41t56.5 -20.5q20 0 33 16t25 48h129l14 -475h-153q-20 83 -46.5 142t-66 103t-95 66t-128.5 22z" />
    <glyph glyph-name="D" unicode="D" horiz-adv-x="1509" 
d="M1427 741q0 -741 -878 -741h-490v158l150 14v1092l-150 12v158h547q192 0 339 -37t257 -117.5t167.5 -216t57.5 -322.5zM547 168h49q249 0 360 134t111 427q0 132 -22.5 227t-61.5 154t-102.5 94t-134.5 47.5t-168 12.5h-31v-1096z" />
    <glyph glyph-name="E" unicode="E" horiz-adv-x="1327" 
d="M63 1434h1117l16 -455h-147q-20 95 -47.5 151t-76.5 87t-110 41t-164 10h-114v-467h51q103 0 147 47t68 176h119v-606h-123q-12 78 -27 124t-42 72.5t-61.5 34.5t-93.5 8h-38v-487h110q120 0 195.5 15.5t127.5 58.5t79 108t45 174h145l-16 -526h-1160v154l136 16v1092
l-136 16v156z" />
    <glyph glyph-name="F" unicode="F" horiz-adv-x="1265" 
d="M63 1434h1119l18 -469h-151q-20 95 -47 153t-73 92t-104.5 46t-152.5 12h-135v-488h51q100 0 147.5 51.5t67.5 178.5h119v-607h-123q-13 79 -27 123.5t-40.5 70t-59.5 33t-92 7.5h-43v-465l208 -16v-156h-682v156l136 14v1092l-136 16v156z" />
    <glyph glyph-name="G" unicode="G" horiz-adv-x="1513" 
d="M801 1296q-359 0 -359 -577q0 -129 16.5 -228t53.5 -179t103.5 -122.5t160.5 -42.5q77 0 143 39t101 101v221l-176 16v156h629v-156l-130 -14v-514h-161q-13 37 -29 57.5t-45 20.5q-21 0 -58 -15t-76 -33.5t-106 -33.5t-141 -15q-151 0 -268.5 43t-203.5 130.5
t-131.5 228.5t-45.5 330q0 181 53.5 325t148 235.5t220 139t272.5 47.5q82 0 150.5 -19.5t112.5 -39t67 -19.5q21 0 33 14t24 46h141l15 -475h-154q-46 181 -129 257t-231 76z" />
    <glyph glyph-name="H" unicode="H" horiz-adv-x="1572" 
d="M537 1264v-449h499v447l-133 14v158h606v-156l-135 -14v-1092l135 -16v-156h-606v156l133 16v465h-499v-465l135 -16v-156h-609v156l136 16v1090l-136 14v158h609v-156z" />
    <glyph glyph-name="I" unicode="I" horiz-adv-x="735" 
d="M199 170v1092l-136 14v158h609v-156l-135 -14v-1092l135 -16v-156h-609v156z" />
    <glyph glyph-name="J" unicode="J" horiz-adv-x="1069" 
d="M385 1434h641v-156l-131 -12v-803q0 -244 -128.5 -365t-350.5 -121q-182 0 -278.5 74t-96.5 195q0 93 50 142.5t124 49.5q73 0 114.5 -38t41.5 -107q0 -34 -17 -90h-63q-6 -15 -6 -31q0 -31 30.5 -50.5t83.5 -19.5q91 0 124.5 52t33.5 178v932l-172 14v156z" />
    <glyph glyph-name="K" unicode="K" horiz-adv-x="1454" 
d="M74 1434h590v-156l-127 -14v-488l81 21l424 467l-122 14v156h430v-156l-113 -14l-375 -414l453 -682l108 -14v-154h-622v154l129 14l-316 487l-77 -20v-465l127 -14v-156h-590v156l125 14v1094l-125 14v156z" />
    <glyph glyph-name="L" unicode="L" horiz-adv-x="1257" 
d="M63 1434h650v-156l-176 -18v-1090h92q100 0 166 15t119 56.5t85 115.5t50 190h147l-18 -547h-1115v156l136 16v1088l-136 16v158z" />
    <glyph glyph-name="M" unicode="M" horiz-adv-x="1847" 
d="M1249 1434h525v-156l-125 -12v-1094l125 -14v-158h-584v158l153 14v995h-8l-366 -1167h-213l-367 1165h-8v-993l141 -14v-158h-442v158l119 14v1094l-119 12v156h563l299 -979h8z" />
    <glyph glyph-name="N" unicode="N" horiz-adv-x="1505" 
d="M1325 1262v-1262h-272l-660 1133h-8v-965l141 -12v-156h-448v156l121 12v1094l-121 14v158h540l512 -920h9v748l-127 14v158h432v-158z" />
    <glyph glyph-name="O" unicode="O" horiz-adv-x="1505" 
d="M1061 723q0 114 -7 197t-26 160t-52.5 125t-88 76t-129.5 28q-78 0 -135 -28t-91.5 -76.5t-55 -126t-27.5 -162.5t-7 -201q0 -89 5 -159t17 -139.5t35 -119.5t57 -89.5t84.5 -59t115.5 -19.5q63 0 111.5 18.5t81.5 56t55.5 87t34.5 119.5t17 143.5t5 169.5zM78 713
q0 341 184 542t506 201q319 0 489 -190t170 -535q0 -358 -168.5 -556t-506.5 -198t-506 188.5t-168 547.5z" />
    <glyph glyph-name="P" unicode="P" horiz-adv-x="1304" 
d="M59 1434h582q110 0 198.5 -11.5t166 -40t129 -74.5t81 -116.5t29.5 -163.5q0 -128 -50 -220t-141.5 -144t-204 -75.5t-253.5 -23.5h-51v-395l215 -14v-156h-701v156l148 14v1094l-148 14v156zM545 1264v-535h49q147 0 219 67t72 210q0 149 -66 203.5t-213 54.5h-61z" />
    <glyph glyph-name="Q" unicode="Q" horiz-adv-x="1503" 
d="M78 713q0 341 184 542t506 201q319 0 489 -190t170 -535q0 -328 -143 -517t-432 -218v-12q52 -6 92 -24t68.5 -50t43.5 -55.5t36 -65.5q26 -59 48.5 -85t59.5 -26q40 0 58.5 28.5t27.5 111.5l107 -6q-6 -147 -75.5 -224t-213.5 -77q-57 0 -105 14.5t-79 35t-59 55t-44 62
t-35 68.5q-24 52 -47.5 75t-56.5 23q-47 0 -133 -65l-66 82q46 43 104 76.5t103 42.5v10q-309 19 -458.5 200t-149.5 523zM1061 723q0 114 -7 197.5t-26 160.5t-52.5 124.5t-88 75.5t-129.5 28q-78 0 -135 -28t-91.5 -76.5t-55 -126t-27.5 -162.5t-7 -201q0 -90 5 -160.5
t17 -140t35 -119.5t57 -89.5t84.5 -59t115.5 -19.5q63 0 111.5 18.5t81.5 56t55.5 87t34.5 119.5t17 144.5t5 170.5z" />
    <glyph glyph-name="R" unicode="R" horiz-adv-x="1460" 
d="M639 659h-94v-485l147 -16v-158h-633v158l148 16v1088l-148 16v156h527q73 0 133.5 -3.5t126 -13t116.5 -25.5t98 -43t78 -62.5t49.5 -86t18.5 -113.5q0 -170 -99 -247.5t-294 -91.5v-7q199 -22 278.5 -98.5t79.5 -253.5v-135q0 -59 13 -85t57 -26q47 0 64.5 41.5
t31.5 147.5l105 -15q-4 -81 -20 -139.5t-51 -106t-96.5 -71t-150.5 -23.5q-137 0 -215 71.5t-78 223.5v189q0 102 -44.5 150t-147.5 48zM545 1262v-459h28q147 0 213 59.5t66 184.5q0 120 -62.5 167.5t-203.5 47.5h-41z" />
    <glyph glyph-name="S" unicode="S" horiz-adv-x="1204" 
d="M629 143q130 0 202 52.5t72 150.5q0 44 -18 76t-41 53t-82 42t-103.5 32.5t-142.5 34.5q-218 51 -318 150.5t-100 281.5q0 91 31.5 170t90 139.5t150.5 95.5t205 35q59 0 113 -12t84.5 -26t57.5 -26t40 -12q20 0 31.5 12.5t26.5 45.5h121l14 -432h-158
q-43 151 -117.5 221.5t-205.5 70.5q-99 0 -162.5 -44t-63.5 -132q0 -38 15.5 -68t38 -50t64.5 -38t77.5 -28t95.5 -25q49 -12 81.5 -21t76 -22.5t72 -26t64.5 -30t59 -36.5t48.5 -44t41.5 -54t29.5 -64t19.5 -77.5t6 -91.5q0 -206 -137 -337.5t-355 -131.5q-67 0 -125.5 13
t-90.5 29t-62 29t-47 13q-22 0 -34 -16.5t-28 -62.5h-137l-20 487h159q43 -163 124 -244.5t237 -81.5z" />
    <glyph glyph-name="T" unicode="T" horiz-adv-x="1390" 
d="M1317 1434l20 -488h-149q-20 108 -40.5 168.5t-58.5 95.5t-84.5 44.5t-130.5 9.5h-10v-1092l199 -16v-156h-731v156l194 16v1092h-8q-83 0 -132.5 -12t-87 -48.5t-58.5 -96t-39 -161.5h-148l21 488h1243z" />
    <glyph glyph-name="U" unicode="U" horiz-adv-x="1460" 
d="M799 174q152 0 218 78.5t66 239.5v770l-129 14v158h451v-158l-121 -14v-795q0 -236 -128.5 -363t-399.5 -127q-106 0 -190 13.5t-158 48t-123 89.5t-77 141.5t-28 201.5v793l-127 12v158h600v-158l-135 -12v-750q0 -65 6 -112t23.5 -92.5t48 -73.5t81.5 -45t122 -17z" />
    <glyph glyph-name="V" unicode="V" horiz-adv-x="1445" 
d="M813 387l299 875l-149 16v156h481v-156l-123 -16l-465 -1262h-246l-481 1262l-127 16v156h670v-156l-160 -16l295 -875h6z" />
    <glyph glyph-name="W" unicode="W" horiz-adv-x="2060" 
d="M737 432l226 629l-82 199l-117 18v156h622v-156l-149 -18l301 -816h8l238 816l-150 18v156h424v-156l-114 -18l-373 -1260h-215l-309 827h-9l-295 -827h-217l-413 1260l-111 18v156h612v-156l-143 -18l258 -828h8z" />
    <glyph glyph-name="X" unicode="X" horiz-adv-x="1368" 
d="M1360 0h-649v158l139 14l-244 399l-248 -399l134 -14v-158h-453v158l125 14l336 535l-369 553l-123 14v160h676v-160l-154 -14l230 -373l246 373l-125 14v160h434v-160l-117 -14l-342 -498l385 -590l119 -14v-158z" />
    <glyph glyph-name="Y" unicode="Y" horiz-adv-x="1318" 
d="M758 807l246 453l-144 14v160h457v-160l-121 -14l-358 -635v-453l174 -14v-158h-686v158l174 14v453l-375 635l-123 14v160h657v-160l-153 -14l246 -453h6z" />
    <glyph glyph-name="Z" unicode="Z" horiz-adv-x="1306" 
d="M1202 1434v-177l-733 -1083h223q98 0 166 21.5t113 69t71 111t45 159.5h146l-25 -535h-1128v166l733 1091h-184q-56 0 -92.5 -2t-77 -9t-67 -20t-53.5 -35.5t-45.5 -55.5t-35 -80t-29.5 -109h-141l21 488h1093z" />
    <glyph glyph-name="bracketleft" unicode="[" horiz-adv-x="712" 
d="M672 -199v-118h-508v1927h508v-119h-113q-75 0 -97 -18.5t-22 -88.5v-1474q0 -76 19.5 -92.5t97.5 -16.5h115z" />
    <glyph glyph-name="backslash" unicode="\" horiz-adv-x="837" 
d="M205 1628l604 -1827h-156l-602 1827h154z" />
    <glyph glyph-name="bracketright" unicode="]" horiz-adv-x="712" 
d="M41 -317v118h115q78 0 97 16.5t19 92.5v1474q0 70 -21.5 88.5t-96.5 18.5h-113v119h508v-1927h-508z" />
    <glyph glyph-name="asciicircum" unicode="^" horiz-adv-x="1146" 
d="M1024 614l-104 -45l-361 650l-334 -652l-102 47l387 746h100z" />
    <glyph glyph-name="underscore" unicode="_" horiz-adv-x="1024" 
d="M1024 -217h-1024v76h1024v-76z" />
    <glyph glyph-name="grave" unicode="`" horiz-adv-x="1024" 
d="M569 1536l119 -377l-74 -37l-229 273q-43 50 -43 92q0 53 44 74t89 6z" />
    <glyph glyph-name="a" unicode="a" horiz-adv-x="1118" 
d="M496 535h145v147q0 127 -39.5 188.5t-142.5 61.5q-117 0 -117 -68q0 -8 4 -28h78q12 -54 12 -80q0 -64 -40 -103t-117 -39q-79 0 -119.5 45t-40.5 117q0 124 108.5 198.5t302.5 74.5q215 0 321.5 -87.5t106.5 -299.5v-422q0 -61 9 -85t39 -24q26 0 67 16l29 -104
q-36 -25 -99.5 -45.5t-132.5 -20.5q-94 0 -142.5 38.5t-68.5 115.5q-84 -154 -288 -154q-134 0 -217.5 65t-83.5 204q0 160 106 224.5t320 64.5zM508 131q58 0 95.5 41t37.5 129v127h-80q-93 0 -129.5 -37.5t-36.5 -120.5q0 -72 26.5 -105.5t86.5 -33.5z" />
    <glyph glyph-name="b" unicode="b" horiz-adv-x="1257" 
d="M674 881q-99 0 -148 -69t-49 -187v-269q0 -113 53 -172t142 -59q56 0 92 22.5t56 74t27 119t7 173.5q0 77 -4 130.5t-15 101t-31 75.5t-52 44t-78 16zM786 1049q198 0 302 -133.5t104 -387.5q0 -260 -116.5 -405.5t-327.5 -145.5q-204 0 -304 134h-10l-88 -111h-180v1368
l-129 18v136l446 14v-526l-8 -121l10 -2q94 162 301 162z" />
    <glyph glyph-name="c" unicode="c" horiz-adv-x="1038" 
d="M629 922q-124 0 -181 -107.5t-57 -294.5q0 -190 49.5 -282.5t175.5 -92.5q37 0 68.5 12t53 29.5t41.5 46t31.5 51.5t25.5 56l147 -51q-13 -50 -39.5 -98.5t-74.5 -99.5t-128.5 -82.5t-181.5 -31.5q-243 0 -373.5 135.5t-130.5 374.5q0 260 144 411t395 151
q189 0 286 -88.5t97 -219.5q0 -81 -45.5 -132.5t-126.5 -51.5q-73 0 -112.5 45t-39.5 109q0 45 15 88h77q7 24 7 39q0 84 -123 84z" />
    <glyph glyph-name="d" unicode="d" horiz-adv-x="1263" 
d="M520 1049q168 0 252 -113l4 2v432l-145 16v136l463 14v-1378l129 -15v-143h-410l-20 137h-7q-39 -68 -114 -114t-189 -46q-201 0 -308 135.5t-107 383.5q0 260 117 406.5t335 146.5zM586 135q94 0 145 72t51 186v285q0 103 -52.5 163t-139.5 60q-108 0 -147.5 -93
t-39.5 -298q0 -72 3.5 -123t15 -101.5t31 -81.5t53 -50t80.5 -19z" />
    <glyph glyph-name="e" unicode="e" horiz-adv-x="1077" 
d="M55 496q0 258 142 405.5t366 147.5q205 0 324 -113.5t119 -339.5q0 -38 -5 -111h-614q1 -61 7 -108.5t21.5 -92t40.5 -73.5t65.5 -46.5t94.5 -17.5q89 0 142 46.5t94 138.5l145 -51q-46 -146 -157.5 -225t-274.5 -79q-244 0 -377 141t-133 378zM389 621h295v36
q0 145 -28 207t-105 62q-155 0 -162 -305z" />
    <glyph glyph-name="f" unicode="f" horiz-adv-x="827" 
d="M788 1026v-156h-284v-714l250 -19v-137h-707v137l139 19v714h-133v156h133v41q0 245 116.5 380.5t348.5 135.5q77 0 137 -20.5t95 -55t53 -75t18 -84.5q0 -86 -43 -131.5t-116 -45.5t-111.5 39.5t-38.5 100.5q0 24 10 51l74 8q6 21 6 41q0 62 -80 62q-45 0 -75.5 -17
t-46.5 -49t-22.5 -70.5t-6.5 -89.5v-221h284z" />
    <glyph glyph-name="g" unicode="g" horiz-adv-x="1085" 
d="M63 670q0 173 119.5 276t317.5 103q156 0 237 -58q33 82 91.5 123t121.5 41q37 0 74 -16v-191l-188 -18q116 -90 116 -252q0 -177 -119 -272t-317 -95q-78 0 -156 21q-28 -28 -39.5 -45t-11.5 -37q0 -25 20.5 -34t69.5 -9h267q91 0 159.5 -13t125 -44.5t86.5 -90
t30 -143.5q0 -82 -31 -144.5t-97.5 -109t-177.5 -70.5t-265 -24q-171 0 -273 24.5t-143 69.5t-41 117q0 96 106 174q-94 47 -94 143q0 71 40.5 124t160.5 147q-87 35 -138 113.5t-51 189.5zM655 -84h-395q-33 -53 -33 -96q0 -63 64.5 -87t230.5 -24q163 0 238.5 26t75.5 93
q0 54 -42 71t-139 17zM375 692q0 -132 30 -187.5t107 -55.5q72 0 101.5 56.5t29.5 190.5q0 127 -28.5 181.5t-100.5 54.5q-139 0 -139 -240z" />
    <glyph glyph-name="h" unicode="h" horiz-adv-x="1312" 
d="M51 1522l451 14v-543l-8 -129h12q32 56 68.5 94t101 64.5t149.5 26.5q156 0 237 -79.5t81 -254.5v-557l129 -15v-143h-543v143l96 15v516q0 47 -4 76.5t-17 56t-39.5 39t-68.5 12.5q-88 0 -141 -57.5t-53 -179.5v-463l104 -15v-143h-555v143l133 15v1208l-133 14v142z
" />
    <glyph glyph-name="i" unicode="i" horiz-adv-x="692" 
d="M137 1339q0 79 48 130t147 51q90 0 139 -45t49 -134q0 -82 -47.5 -131t-144.5 -49q-103 0 -147 52t-44 126zM49 1014l467 16v-874l156 -15v-141h-627v141l154 15v706l-150 15v137z" />
    <glyph glyph-name="j" unicode="j" horiz-adv-x="671" 
d="M63 -326q79 0 105.5 70t26.5 223v895l-152 15v137l469 16v-831q0 -108 -13.5 -199t-46.5 -172.5t-83.5 -137.5t-128.5 -89t-179 -33q-148 0 -227.5 61t-79.5 150q0 77 46.5 123.5t119.5 46.5q71 0 109.5 -36t38.5 -99q0 -4 -5 -39l-71 -15q-8 -19 -8 -34q0 -52 79 -52z
M129 1339q0 79 48 130t147 51q90 0 139 -45t49 -134q0 -82 -48 -131t-145 -49q-54 0 -92.5 15.5t-59 42.5t-29.5 56.5t-9 63.5z" />
    <glyph glyph-name="k" unicode="k" horiz-adv-x="1296" 
d="M55 1522l447 14v-1380l102 -15v-141h-551v141l131 15v1212l-129 14v140zM795 635l376 -479l99 -13v-143h-553v141l90 11v10l-293 373v38l352 297v13l-127 8v135h475v-139l-145 -15z" />
    <glyph glyph-name="l" unicode="l" horiz-adv-x="684" 
d="M51 1520l455 16v-1380l141 -15v-141h-596v141l137 15v1212l-137 14v138z" />
    <glyph glyph-name="m" unicode="m" horiz-adv-x="1878" 
d="M55 1020l398 12l14 -192h12q98 209 328 209q235 0 285 -195q111 195 313 195q155 0 229 -78.5t74 -255.5v-557l129 -15v-143h-534v143l88 15v516q0 37 -2 62t-8.5 50t-19 39.5t-33.5 23.5t-52 9q-71 0 -120.5 -53.5t-49.5 -167.5v-479l98 -15v-143h-506v143l90 15v516
q0 47 -3.5 76.5t-15 56t-35 39t-60.5 12.5q-74 0 -123 -57t-49 -174v-469l98 -15v-143h-545v143l129 15v706l-129 15v141z" />
    <glyph glyph-name="n" unicode="n" horiz-adv-x="1314" 
d="M59 1020l396 14l14 -194h12q21 44 47 77.5t66.5 65t99.5 49t133 17.5q157 0 237.5 -79.5t80.5 -254.5v-557l129 -15v-143h-543v143l96 15v516q0 95 -24.5 139.5t-102.5 44.5q-89 0 -142.5 -56.5t-53.5 -174.5v-469l104 -15v-143h-549v143l127 15v706l-127 15v141z" />
    <glyph glyph-name="o" unicode="o" horiz-adv-x="1159" 
d="M768 508q0 87 -4 147t-16 114.5t-33 86t-55 50t-82 18.5q-57 0 -94 -26t-57 -81t-28 -124t-8 -171q0 -87 4.5 -149t17 -115.5t34.5 -85.5t55.5 -50t81.5 -18q55 0 91.5 26t56.5 80.5t28 124.5t8 173zM55 508q0 246 139 393.5t394 147.5q134 0 234.5 -39t161.5 -111.5
t90.5 -168t29.5 -214.5q0 -247 -136 -393t-393 -146q-261 0 -390.5 143.5t-129.5 387.5z" />
    <glyph glyph-name="p" unicode="p" horiz-adv-x="1267" 
d="M47 1020l408 14l10 -160l12 -2q39 78 121.5 127.5t198.5 49.5q198 0 301.5 -133.5t103.5 -387.5q0 -259 -116 -405t-322 -146q-175 0 -266 105l-6 -2v-334l194 -16v-140h-633v144l123 14v1118l-129 19v135zM684 885q-97 0 -147 -69t-50 -189v-273q0 -108 51.5 -168.5
t141.5 -60.5q108 0 146 90t38 299q0 77 -4 130.5t-15 102t-31 77t-52 45t-78 16.5z" />
    <glyph glyph-name="q" unicode="q" horiz-adv-x="1251" 
d="M627 -268l155 14v379l-6 2q-91 -150 -291 -150q-201 0 -309 136t-108 383q0 260 117.5 406.5t340.5 146.5q87 0 167 -36.5t130 -101.5l95 115h176v-1280l147 -14v-142h-614v142zM588 135q94 0 144 71.5t50 186.5v285q0 105 -52.5 164t-139.5 59q-109 0 -148 -92.5
t-39 -298.5q0 -73 3.5 -124.5t15 -102t31.5 -81t54 -49t81 -18.5z" />
    <glyph glyph-name="r" unicode="r" horiz-adv-x="1050" 
d="M502 158l233 -15v-143h-684v143l133 15v706l-133 15v139l418 14l14 -176h9q44 87 112.5 140t181.5 53q109 0 176.5 -61.5t67.5 -184.5q0 -100 -55 -157.5t-144 -57.5q-92 0 -133 50t-39 136l82 25q4 20 4 26q0 49 -59 49q-83 0 -133.5 -85.5t-50.5 -204.5v-426z" />
    <glyph glyph-name="s" unicode="s" horiz-adv-x="956" 
d="M74 -10v342h127q25 -98 103.5 -155.5t195.5 -57.5q170 0 170 112q0 27 -11.5 47t-27 32t-47 22.5t-54.5 15t-67 12.5q-148 27 -213 56q-160 72 -169 257q-1 12 -1 25q0 157 108 254t273 97q99 0 192 -50q21 -12 43 -12q19 0 25.5 9.5t15.5 39.5h109v-317h-125
q-41 101 -100.5 147.5t-155.5 46.5q-66 0 -111 -26.5t-45 -79.5q0 -20 6 -36t23 -28.5t28.5 -19.5t43.5 -15.5t45.5 -11.5t54.5 -12q153 -29 221 -62q172 -81 172 -286q0 -168 -102.5 -263.5t-274.5 -95.5q-59 0 -112 12t-77.5 22.5t-62.5 29.5q-23 10 -38 10
q-17 0 -25.5 -12.5t-17.5 -48.5h-119z" />
    <glyph glyph-name="t" unicode="t" horiz-adv-x="884" 
d="M176 289v581h-153v156h153v256l201 41h117v-297h274v-156h-274v-587q0 -71 22.5 -104.5t75.5 -33.5q55 0 88 49.5t65 167.5l119 -30q-30 -176 -117 -265.5t-249 -89.5q-159 0 -240.5 74t-81.5 238z" />
    <glyph glyph-name="u" unicode="u" horiz-adv-x="1302" 
d="M487 1032v-680q0 -94 25.5 -139t103.5 -45q84 0 135.5 56.5t51.5 178.5v465l-113 15v133l430 18v-876l127 -15v-143h-397l-12 184h-13q-22 -45 -46 -78t-62 -64.5t-94.5 -48t-128.5 -16.5q-159 0 -241.5 79.5t-82.5 254.5v557l-115 15v131z" />
    <glyph glyph-name="v" unicode="v" horiz-adv-x="1112" 
d="M8 885v141h553v-141l-125 -8l203 -572h8l191 572l-121 8v141h389v-141l-102 -8l-310 -877h-248l-346 877z" />
    <glyph glyph-name="w" unicode="w" horiz-adv-x="1675" 
d="M8 885v141h514v-141l-96 -8l182 -578h8l162 436l-43 142l-88 8v141h488v-141l-101 -8l197 -580h8l158 580l-123 8v141h391v-141l-102 -8l-269 -877h-250l-188 520h-10l-193 -520h-233l-320 877z" />
    <glyph glyph-name="x" unicode="x" horiz-adv-x="1177" 
d="M1165 141v-141h-592v141l107 15v12l-172 217l-174 -217v-12l102 -15v-141h-409v141l96 15l287 338l-318 383l-96 12v137h582v-137l-107 -12v-13l154 -198l176 198v13l-86 12v137h391v-137l-102 -12l-283 -310l336 -411z" />
    <glyph glyph-name="y" unicode="y" horiz-adv-x="1105" 
d="M10 885v141h565v-141l-126 -8l182 -568h8l195 568l-125 8v141h393v-141l-103 -8l-366 -1008q-29 -80 -55 -130.5t-64 -92t-90.5 -60t-124.5 -18.5q-51 0 -97 12.5t-84 37t-60.5 67t-22.5 98.5q0 73 45.5 122.5t124.5 49.5q70 0 109 -42.5t38 -127.5l-92 -43
q-3 -28 15 -44.5t53 -16.5q51 0 81 41t68 149l58 164h-129l-304 842z" />
    <glyph glyph-name="z" unicode="z" horiz-adv-x="1021" 
d="M952 1026v-119l-520 -788h133q55 0 96.5 11.5t70 30t51.5 54t38.5 72t34.5 94.5h111l-25 -381h-874v113l526 794h-119q-48 0 -76 -2t-57.5 -10.5t-47 -23t-37.5 -42.5t-35.5 -65.5t-35.5 -95.5h-118l20 358h864z" />
    <glyph glyph-name="braceleft" unicode="{" horiz-adv-x="823" 
d="M102 715q33 1 55 3.5t50.5 14t45.5 31t29.5 56.5t12.5 89q0 80 -29.5 221t-29.5 205q0 116 88.5 187t248.5 71q91 0 168 -28l-26 -107q-53 17 -88 17q-46 0 -73.5 -28t-27.5 -108q0 -40 27 -188.5t27 -222.5q0 -48 -8.5 -86.5t-26.5 -65.5t-36.5 -46t-48 -33.5t-50.5 -22
t-54 -17.5q40 -13 66 -23.5t59 -32.5t52.5 -48.5t33 -70t13.5 -99.5q0 -73 -27 -240t-27 -202q0 -81 32 -111.5t87 -30.5q48 0 88 19l29 -109q-70 -31 -207 -31q-151 0 -235 73t-84 190q0 60 29.5 221t29.5 237q0 51 -12 87.5t-30 56.5t-46 32t-51 15t-54 4v121z" />
    <glyph glyph-name="bar" unicode="|" horiz-adv-x="665" 
d="M258 -260v1888h150v-1888h-150z" />
    <glyph glyph-name="braceright" unicode="}" horiz-adv-x="823" 
d="M721 715v-121q-31 -1 -54 -4t-51 -15t-46 -32t-30 -56.5t-12 -87.5q0 -76 30 -237t30 -221q0 -117 -84.5 -190t-235.5 -73q-137 0 -207 31l29 109q40 -19 88 -19q55 0 87 30.5t32 111.5q0 35 -26.5 202t-26.5 240q0 56 13.5 99.5t32.5 70t52 48.5t59 32.5t66 23.5
q-28 8 -46 14.5t-44 18t-42.5 24.5t-35.5 33.5t-30 45t-18 59.5t-7 76q0 74 26.5 222.5t26.5 188.5q0 80 -27 108t-73 28q-35 0 -88 -17l-27 107q77 28 168 28q160 0 249 -71t89 -187q0 -64 -30 -205t-30 -221q0 -52 12.5 -89t29.5 -56.5t45.5 -31t50.5 -14t55 -3.5z" />
    <glyph glyph-name="asciitilde" unicode="~" horiz-adv-x="1048" 
d="M774 541q-75 0 -278 45q-19 4 -65.5 15t-79 16.5t-62.5 5.5q-36 0 -62 -20t-57 -77l-68 25q37 131 92.5 197.5t141.5 66.5q73 0 237 -37q12 -3 45.5 -11t49.5 -11t43 -8t49.5 -7t44.5 -2q41 0 62 18t48 72l72 -18q-63 -270 -213 -270z" />
    <glyph glyph-name="uni00A0" unicode="&#xa0;" horiz-adv-x="368" 
 />
    <glyph glyph-name="exclamdown" unicode="&#xa1;" horiz-adv-x="784" 
d="M334 530v119h129v-117q0 -147 18.5 -278.5t40 -208t40 -157.5t18.5 -138q0 -71 -41.5 -121.5t-122.5 -50.5q-85 0 -130.5 51.5t-45.5 126.5q0 50 14.5 127.5t32.5 155t32.5 210.5t14.5 281zM246 897q0 63 36.5 107.5t114.5 44.5q73 0 112.5 -41.5t39.5 -112.5
q0 -74 -42.5 -112t-111.5 -38q-70 0 -109.5 43.5t-39.5 108.5z" />
    <glyph glyph-name="cent" unicode="&#xa2;" horiz-adv-x="995" 
d="M614 903q-213 0 -213 -342q0 -157 43.5 -237t151.5 -80q79 0 125.5 48.5t79.5 133.5l145 -45q-10 -40 -27 -78.5t-49 -80t-73.5 -72t-105 -50.5t-138.5 -20q-34 0 -92 4l-47 -221l-101 22l47 221q-138 44 -209 154.5t-71 276.5q0 224 127.5 357.5t357.5 139.5l43 197
l101 -21l-41 -182q133 -22 203.5 -102.5t70.5 -182.5q0 -72 -40.5 -118.5t-115.5 -46.5q-70 0 -105.5 39.5t-35.5 95.5q0 39 12 80h72q4 24 4 32q0 78 -119 78z" />
    <glyph glyph-name="sterling" unicode="&#xa3;" horiz-adv-x="1157" 
d="M20 578v104h166q-25 50 -38 78.5t-25 78.5t-12 103q0 189 147 310.5t383 121.5q194 0 297.5 -84.5t103.5 -224.5q0 -76 -42 -125t-117 -49q-77 0 -117.5 40t-40.5 107q0 24 12 78h80q6 24 6 43q0 94 -139 94q-120 0 -165.5 -77.5t-45.5 -229.5v-264h375v-104h-375v-80
q0 -83 -33 -144t-106 -125l4 -8q13 8 41 25.5t40.5 25t36 21t37 19.5t32 13t33.5 10t30 3q45 0 95.5 -19.5t87 -43t77.5 -43t70 -19.5q49 0 72 35t30 135l106 -4q-1 -97 -25 -175.5t-63.5 -127t-89 -74t-104.5 -25.5q-64 0 -112 12t-116 42l-292 131q-23 -94 -76.5 -139.5
t-114.5 -45.5q-50 0 -83.5 27.5t-33.5 71.5q0 71 61.5 119t160.5 41q32 65 32 170q0 76 -34 172h-216z" />
    <glyph glyph-name="currency" unicode="&#xa4;" horiz-adv-x="1085" 
d="M195 571q0 99 41 172l-154 179l94 92l176 -148q78 47 189 47q110 0 176 -43l188 138l78 -86l-149 -172q40 -70 40 -172q0 -108 -49 -187l156 -188l-88 -86l-186 153q-70 -43 -172 -43q-108 0 -179 41l-182 -149l-86 86l148 178q-41 70 -41 188zM369 571q0 -90 37 -143
t131 -53q82 0 122.5 55t40.5 141q0 91 -40.5 145t-127.5 54q-85 0 -124 -56t-39 -143z" />
    <glyph glyph-name="yen" unicode="&#xa5;" horiz-adv-x="1218" 
d="M129 561v98h199l-183 279l-110 14v158h577v-158l-116 -14l188 -315h8l199 315l-115 14v158h383v-158l-108 -14l-179 -279h203v-98h-266l-37 -57v-92h303v-101h-303v-141l174 -14v-156h-686v156l174 14v141h-305v101h305v88l-41 61h-264z" />
    <glyph glyph-name="brokenbar" unicode="&#xa6;" horiz-adv-x="665" 
d="M258 844v784h150v-784h-150zM258 -260v895h150v-895h-150z" />
    <glyph glyph-name="section" unicode="&#xa7;" horiz-adv-x="1247" 
d="M698 1337q-130 0 -198 -49.5t-68 -140.5q0 -27 9.5 -50t21.5 -40t39.5 -33.5t46.5 -26.5t61.5 -24t65 -20.5t74.5 -20.5q60 -16 103.5 -32t92.5 -45t80 -64t51.5 -88.5t20.5 -120.5q0 -97 -45.5 -175.5t-128.5 -130.5q100 -96 100 -243q0 -123 -65 -216t-171 -139.5
t-235 -46.5q-190 0 -288.5 73.5t-98.5 176.5q0 77 40.5 121.5t106.5 44.5q65 0 101.5 -35.5t36.5 -91.5q0 -20 -11 -57l-69 -4q-4 -12 -4 -31q0 -42 42.5 -60t133.5 -18q122 0 187 49t65 142q0 36 -16 65.5t-37 48t-63.5 37t-71.5 28t-85 25.5q-158 45 -223 80
q-156 82 -169 245q-1 16 -1 32q0 199 182 307q-104 94 -104 256q0 174 137.5 282.5t343.5 108.5q178 0 274.5 -76t96.5 -178q0 -77 -39 -119.5t-105 -42.5q-65 0 -101 35.5t-36 91.5q0 20 8 56l70 6q2 8 2 24q0 84 -160 84zM346 598q0 -37 16.5 -65.5t50 -48.5t67.5 -33
t87 -27q174 -45 244 -76q70 54 70 141q0 32 -12.5 58t-31.5 44t-51.5 33.5t-61.5 25t-73 20.5q-11 3 -44.5 11.5t-50 13t-43.5 12.5t-49.5 16.5t-43.5 17.5q-74 -54 -74 -143z" />
    <glyph glyph-name="dieresis" unicode="&#xa8;" horiz-adv-x="1024" 
d="M160 1339q0 58 37.5 99t103.5 41t105.5 -35.5t39.5 -104.5q0 -65 -37 -105t-104 -40q-76 0 -110.5 42t-34.5 103zM584 1339q0 58 37.5 99t103.5 41t105.5 -35.5t39.5 -104.5q0 -65 -37 -105t-104 -40q-76 0 -110.5 42t-34.5 103z" />
    <glyph glyph-name="copyright" unicode="&#xa9;" horiz-adv-x="1599" 
d="M1477 655q0 -200 -85.5 -354.5t-239.5 -239t-353 -84.5q-164 0 -294 49.5t-213 138t-126 206t-43 256.5q0 155 53 283.5t145.5 214t216.5 132t265 46.5q312 0 493 -176t181 -472zM1376 643q0 274 -158.5 429t-414.5 155q-252 0 -414 -162.5t-162 -435.5
q0 -264 154.5 -420t421.5 -156q264 0 418.5 160.5t154.5 429.5zM848 954q-91 0 -135.5 -74t-44.5 -231q0 -152 44 -229.5t142 -77.5q68 0 109.5 40.5t66.5 133.5h74l-8 -256h-68q-1 1 -2 4q-12 34 -23 38l-6 1q-7 0 -31 -13.5t-68.5 -27.5t-102.5 -14q-157 0 -257 100.5
t-100 300.5q0 94 31.5 172t83.5 127t117.5 76t136.5 27q51 0 91.5 -14t62.5 -28t30 -14q11 0 17 9t14 36h65l7 -258h-74q-22 89 -64 130.5t-108 41.5z" />
    <glyph glyph-name="ordfeminine" unicode="&#xaa;" horiz-adv-x="862" 
d="M365 956h106v107q0 81 -27 121.5t-98 40.5q-31 0 -52.5 -11t-21.5 -34q0 -11 2 -15h60q8 -40 8 -55q0 -47 -31 -76.5t-92 -29.5t-92 35t-31 85q0 87 81 138t233 51q161 0 243 -58.5t82 -203.5v-273q0 -38 7 -52.5t30 -14.5q20 0 41 8l25 -82q-28 -19 -81.5 -37
t-109.5 -18q-73 0 -112.5 28.5t-47.5 77.5q-19 -39 -67.5 -71.5t-136.5 -32.5q-98 0 -160 44t-62 136q0 110 75.5 151t228.5 41zM393 694q38 0 58 24t20 85v80h-47q-56 0 -76 -21.5t-20 -73.5q0 -94 65 -94z" />
    <glyph glyph-name="guillemotleft" unicode="&#xab;" horiz-adv-x="1046" 
d="M102 557l353 283l73 -76l-219 -291l215 -319l-75 -70l-314 264q-67 54 -67 115q0 38 34 94zM498 557l354 283l72 -76l-217 -291l215 -319l-76 -70l-316 264q-65 52 -65 115q0 40 33 94z" />
    <glyph glyph-name="logicalnot" unicode="&#xac;" 
d="M952 332v233h-802v119h929v-352h-127z" />
    <glyph glyph-name="uni00AD" unicode="&#xad;" horiz-adv-x="690" 
d="M109 496v178h485v-178h-485z" />
    <glyph glyph-name="registered" unicode="&#xae;" horiz-adv-x="940" 
d="M858 983q0 -171 -108.5 -278t-280.5 -107q-186 0 -286.5 103t-100.5 268q0 175 111.5 281t277.5 106q178 0 282.5 -101.5t104.5 -271.5zM774 977q0 146 -84 228.5t-219 82.5q-138 0 -220.5 -85t-82.5 -232q0 -141 79 -222t224 -81q140 0 221.5 83.5t81.5 225.5zM451 967
h-27v-129l51 -7v-38h-190v38l45 7v301l-45 8v39h161q40 0 67.5 -3.5t53 -12.5t38.5 -28t13 -48q0 -89 -122 -99v-2q59 -5 82.5 -25t23.5 -69v-27q0 -17 4.5 -24.5t20.5 -7.5q14 0 18.5 9.5t9.5 39.5l35 -4q-5 -47 -23.5 -73t-66.5 -26q-90 0 -90 68v61q0 28 -12.5 40
t-46.5 12zM424 1139v-127q55 0 76.5 16t21.5 51q0 37 -18 48.5t-70 11.5h-10z" />
    <glyph glyph-name="macron" unicode="&#xaf;" horiz-adv-x="1024" 
d="M233 1223v180h558v-180h-558z" />
    <glyph glyph-name="degree" unicode="&#xb0;" horiz-adv-x="673" 
d="M164 1284q0 -81 45 -130.5t131 -49.5q78 0 125 50.5t47 129.5q0 83 -47.5 131.5t-130.5 48.5q-78 0 -124 -49.5t-46 -130.5zM82 1284q0 104 69 175t191 71q120 0 185 -66t65 -176q0 -109 -68 -180.5t-188 -71.5q-124 0 -189 68.5t-65 179.5z" />
    <glyph glyph-name="plusminus" unicode="&#xb1;" 
d="M1079 565h-405v-356h-133v356h-391v119h391v358h133v-358h405v-119zM1079 0h-929v119h929v-119z" />
    <glyph glyph-name="twosuperior" unicode="&#xb2;" horiz-adv-x="724" 
d="M272 1593q-43 0 -60 -18t-5 -47h45q8 -32 8 -51q0 -48 -27.5 -76.5t-87.5 -28.5q-57 0 -83.5 34t-26.5 79q0 81 78 136.5t235 55.5q158 0 237 -64t79 -161q0 -36 -10 -69t-24 -59t-44 -55.5t-54.5 -50t-72 -51t-80 -50t-94.5 -54.5l-101 -57v-7h224q87 0 123 29t51 90h98
l-8 -299h-637v156l164 155q106 101 149 170t43 156q0 137 -119 137z" />
    <glyph glyph-name="threesuperior" unicode="&#xb3;" horiz-adv-x="733" 
d="M281 889q75 0 114 45.5t39 122.5q0 107 -88 170q-60 -15 -115 -19l-16 82q103 14 142.5 51.5t39.5 124.5q0 64 -29.5 96.5t-80.5 32.5q-48 0 -63.5 -21t-4.5 -54h51q9 -36 9 -50q0 -46 -29 -73t-88 -27q-57 0 -86 33t-29 80q0 80 82 137t236 57q147 0 218.5 -51.5
t71.5 -140.5q0 -70 -56.5 -123.5t-152.5 -75.5v-4q120 -6 187 -58.5t67 -150.5q0 -71 -33.5 -124t-91.5 -83t-127 -44.5t-149 -14.5q-146 0 -209 49.5t-63 128.5q0 50 33 88.5t94 38.5q56 0 82 -27.5t26 -72.5q0 -19 -8 -47h-53q-14 -31 2.5 -53.5t77.5 -22.5z" />
    <glyph glyph-name="acute" unicode="&#xb4;" horiz-adv-x="1024" 
d="M336 1167l135 369l98 27q49 14 87 -7t38 -69q0 -49 -49 -101l-239 -260z" />
    <glyph glyph-name="mu" unicode="&#xb5;" horiz-adv-x="1251" 
d="M457 1026v-676q0 -109 31.5 -148.5t107.5 -39.5q79 0 132.5 60t53.5 169v617l303 18v-795q0 -57 10 -76.5t42 -19.5q23 0 67 12l29 -104q-32 -25 -87.5 -45.5t-121.5 -20.5q-99 0 -154.5 57t-54.5 175h-6q-14 -41 -24 -66t-31 -60.5t-44 -55.5t-59.5 -35t-81.5 -15
q-82 0 -130.5 47t-69.5 142l-11 -2q15 -102 43 -265.5t35 -222.5q7 -53 -18.5 -85t-67.5 -37.5t-92 2.5l-104 22v1430z" />
    <glyph glyph-name="paragraph" unicode="&#xb6;" horiz-adv-x="1300" 
d="M1090 1262v-1555h-158v1557h-141v-1557h-158v766h-25q-108 0 -200 28t-166 84t-116 149.5t-42 215.5q0 124 41 218.5t115.5 151.5t173.5 85.5t221 28.5h588v-158z" />
    <glyph glyph-name="periodcentered" unicode="&#xb7;" horiz-adv-x="595" 
d="M119 598q0 80 49.5 132t138.5 52t141 -44.5t52 -133.5q0 -85 -49.5 -135.5t-139.5 -50.5q-101 0 -146.5 52t-45.5 128z" />
    <glyph glyph-name="cedilla" unicode="&#xb8;" horiz-adv-x="1024" 
d="M469 27h106l-81 -133q21 6 67 6q89 0 139 -44.5t50 -119.5q0 -80 -66 -138.5t-195 -58.5q-98 0 -151 39t-53 90q0 35 20.5 58.5t52.5 23.5q58 0 80 -59l-41 -39q0 -45 72 -45q92 0 92 110q0 51 -25.5 79t-70.5 28q-52 0 -76 -8l-18 51z" />
    <glyph glyph-name="onesuperior" unicode="&#xb9;" horiz-adv-x="641" 
d="M219 1505l-151 -12l-13 123l279 49h145v-707l131 -10v-129h-540v127l149 12v547z" />
    <glyph glyph-name="ordmasculine" unicode="&#xba;" horiz-adv-x="884" 
d="M557 944q0 157 -22 216t-93 59q-69 0 -92.5 -59.5t-23.5 -205.5q0 -156 23.5 -215t94.5 -59q65 0 89 59.5t24 204.5zM47 944q0 168 102.5 268.5t296.5 100.5q201 0 295.5 -97.5t94.5 -265.5q0 -169 -101 -267.5t-297 -98.5q-200 0 -295.5 96.5t-95.5 263.5z" />
    <glyph glyph-name="guillemotright" unicode="&#xbb;" horiz-adv-x="1044" 
d="M553 367l-352 -283l-74 74l219 293l-215 317l76 72l313 -265q68 -57 68 -116q0 -42 -35 -92zM950 367l-354 -283l-74 74l219 293l-215 317l76 72l316 -265q65 -55 65 -116q0 -38 -33 -92z" />
    <glyph glyph-name="onequarter" unicode="&#xbc;" horiz-adv-x="1843" 
d="M244 1284l-152 -12l-12 123l278 49h146v-707l131 -10v-129h-541v127l150 12v547zM373 -23l889 1479h137l-887 -1479h-139zM1147 0v127l137 12v103h-348v141l358 463h236v-463h123v-141h-125v-105l102 -10v-127h-483zM1053 383h231v287h-6z" />
    <glyph glyph-name="onehalf" unicode="&#xbd;" horiz-adv-x="1843" 
d="M260 1284l-151 -12l-13 123l279 49h145v-707l131 -10v-129h-540v127l149 12v547zM393 -23l889 1479h137l-887 -1479h-139zM1323 774q-43 0 -60.5 -18.5t-5.5 -46.5h46q8 -32 8 -52q0 -104 -115 -104q-58 0 -84.5 34t-26.5 79q0 81 78.5 136.5t235.5 55.5q158 0 236.5 -64
t78.5 -161q0 -36 -10 -69t-24 -59t-44 -55.5t-54.5 -50t-72 -51t-80 -50t-94.5 -54.5l-100 -58v-6h223q87 0 123 29t51 90h99l-9 -299h-637v156l164 155q106 101 149.5 170t43.5 156q0 137 -119 137z" />
    <glyph glyph-name="threequarters" unicode="&#xbe;" horiz-adv-x="1843" 
d="M307 668q75 0 114.5 46t39.5 122q0 107 -88 170q-60 -15 -115 -19l-16 82q103 14 142.5 51.5t39.5 124.5q0 64 -30 96.5t-81 32.5q-48 0 -63 -21t-4 -55h51q8 -32 8 -49q0 -46 -29 -73t-88 -27q-57 0 -85.5 33t-28.5 80q0 80 81.5 137t235.5 57q147 0 219 -51.5
t72 -140.5q0 -70 -56.5 -123.5t-152.5 -75.5v-4q120 -6 187 -58.5t67 -150.5q0 -71 -33.5 -124t-91.5 -83t-127 -44.5t-149 -14.5q-146 0 -209.5 49.5t-63.5 128.5q0 50 33 88.5t94 38.5q57 0 83 -27.5t26 -72.5q0 -20 -8 -48h-54q-14 -31 2 -53t78 -22zM406 -23l888 1479
h138l-887 -1479h-139zM1194 0v127l137 12v103h-348v141l358 463h236v-463h123v-141h-125v-105l102 -10v-127h-483zM1100 383h231v287h-6z" />
    <glyph glyph-name="questiondown" unicode="&#xbf;" horiz-adv-x="1101" 
d="M565 -422q-223 0 -335.5 95t-112.5 241q0 172 131 295l313 295v162h125v-385q0 -36 -22 -58l-154 -155q-59 -59 -80.5 -101t-21.5 -94q0 -89 58.5 -132.5t158.5 -43.5q157 0 157 92q0 9 -4 33h-73q-15 54 -15 84q0 64 41 103.5t117 39.5q80 0 121 -47t41 -117
q0 -131 -120.5 -219t-324.5 -88zM780 897q0 -65 -39.5 -108.5t-111.5 -43.5q-69 0 -110.5 38t-41.5 112q0 71 39 112.5t111 41.5q80 0 116.5 -44t36.5 -108z" />
    <glyph glyph-name="Agrave" unicode="&#xc0;" horiz-adv-x="1480" 
d="M954 172l-80 231h-444l-80 -231l146 -16v-156h-486v156l131 16l480 1264h241l469 -1264l139 -16v-156h-667v156zM659 1057l-180 -494h350l-163 494h-7zM707 1884l260 -315l-52 -62l-315 160q-46 23 -66 46t-20 59t28.5 60t73.5 34z" />
    <glyph glyph-name="Aacute" unicode="&#xc1;" horiz-adv-x="1480" 
d="M954 172l-80 231h-444l-80 -231l146 -16v-156h-486v156l131 16l480 1264h241l469 -1264l139 -16v-156h-667v156zM659 1057l-180 -494h350l-163 494h-7zM530 1573l273 309l96 -22q49 -12 67.5 -32t18.5 -56t-22 -60.5t-66 -46.5l-317 -154z" />
    <glyph glyph-name="Acircumflex" unicode="&#xc2;" horiz-adv-x="1480" 
d="M954 172l-80 231h-444l-80 -231l146 -16v-156h-486v156l131 16l480 1264h241l469 -1264l139 -16v-156h-667v156zM659 1057l-180 -494h350l-163 494h-7zM399 1571l244 278q16 9 50 20t63 11q41 0 67 -17t60 -59l190 -231l-59 -72l-275 160l-278 -160z" />
    <glyph glyph-name="Atilde" unicode="&#xc3;" horiz-adv-x="1480" 
d="M954 172l-80 231h-444l-80 -231l146 -16v-156h-486v156l131 16l480 1264h241l469 -1264l139 -16v-156h-667v156zM659 1057l-180 -494h350l-163 494h-7zM885 1548q-75 0 -183 47q-83 33 -120 33q-30 0 -53.5 -19t-45.5 -71l-69 23q34 132 85.5 190.5t139.5 58.5
q16 0 30 -1t28.5 -4t23.5 -5t24.5 -8t21.5 -8.5t24 -10.5t24 -10q77 -30 121 -30q36 0 57.5 18t42.5 70l68 -21q-52 -252 -219 -252z" />
    <glyph glyph-name="Adieresis" unicode="&#xc4;" horiz-adv-x="1480" 
d="M954 172l-80 231h-444l-80 -231l146 -16v-156h-486v156l131 16l480 1264h241l469 -1264l139 -16v-156h-667v156zM659 1057l-180 -494h350l-163 494h-7zM385 1702q0 57 37.5 98t103.5 41t106 -35t40 -104q0 -65 -37.5 -105.5t-104.5 -40.5q-76 0 -110.5 42t-34.5 104z
M809 1702q0 57 37.5 98t103.5 41t106 -35t40 -104q0 -65 -37.5 -105.5t-104.5 -40.5q-76 0 -110.5 42t-34.5 104z" />
    <glyph glyph-name="Aring" unicode="&#xc5;" horiz-adv-x="1480" 
d="M954 172l-80 231h-444l-80 -231l146 -16v-156h-486v156l131 16l480 1264h241l469 -1264l139 -16v-156h-667v156zM659 1057l-180 -494h350l-163 494h-7zM651 1700q0 -44 23 -74.5t74 -30.5q47 0 68.5 29.5t21.5 75.5q0 44 -23.5 73t-71.5 29q-46 0 -69 -29.5t-23 -72.5z
M520 1700q0 88 60.5 147.5t169.5 59.5q105 0 162 -55t57 -148q0 -96 -60 -155.5t-164 -59.5q-112 0 -168.5 57t-56.5 154z" />
    <glyph glyph-name="AE" unicode="&#xc6;" horiz-adv-x="2150" 
d="M2003 1434l16 -455h-147q-16 76 -38 126t-50.5 83.5t-74.5 50t-99 23t-135 6.5h-115v-482h51q103 0 147 48t68 176h119v-607h-123q-16 104 -40.5 154.5t-64.5 68t-118 17.5h-39v-473h110q120 0 195.5 15.5t127.5 58.5t79 108t45 174h145l-16 -526h-1159v154l135 16v455
h-408l-258 -453l172 -16v-156h-520v156l135 16l639 1090l-145 16v156h1366zM983 1268l-281 -484h320v484h-39z" />
    <glyph glyph-name="Ccedilla" unicode="&#xc7;" horiz-adv-x="1400" 
d="M799 1296q-350 0 -350 -575q0 -294 88 -437t264 -143q149 0 227.5 84.5t124.5 259.5h154l-15 -483h-137q-12 38 -22 54t-29 16q-12 0 -40.5 -13t-60.5 -28.5t-88.5 -31t-117.5 -19.5l-52 -86q21 6 68 6q89 0 138.5 -44.5t49.5 -119.5q0 -80 -65.5 -138.5t-194.5 -58.5
q-98 0 -151 39t-53 90q0 35 20.5 58.5t52.5 23.5q58 0 80 -59l-41 -39q0 -45 72 -45q92 0 92 110q0 51 -25.5 79t-70.5 28q-52 0 -76 -8l-18 51l69 113q-136 8 -246 55t-192 134.5t-127 227.5t-45 322q0 176 55 318.5t149.5 232.5t215.5 138t258 48q86 0 157.5 -20.5
t113 -41t56.5 -20.5q20 0 31.5 15t26.5 49h129l14 -475h-153q-20 83 -46.5 142t-66 103t-95 66t-128.5 22z" />
    <glyph glyph-name="Egrave" unicode="&#xc8;" horiz-adv-x="1327" 
d="M63 1434h1117l16 -455h-147q-20 95 -47.5 151t-76.5 87t-110 41t-164 10h-114v-467h51q103 0 147 47t68 176h119v-606h-123q-12 78 -27 124t-42 72.5t-61.5 34.5t-93.5 8h-38v-487h110q120 0 195.5 15.5t127.5 58.5t79 108t45 174h145l-16 -526h-1160v154l136 16v1092
l-136 16v156zM586 1884l260 -315l-51 -62l-316 160q-46 23 -66 46t-20 59t29 60t74 34z" />
    <glyph glyph-name="Eacute" unicode="&#xc9;" horiz-adv-x="1327" 
d="M63 1434h1117l16 -455h-147q-20 95 -47.5 151t-76.5 87t-110 41t-164 10h-114v-467h51q103 0 147 47t68 176h119v-606h-123q-12 78 -27 124t-42 72.5t-61.5 34.5t-93.5 8h-38v-487h110q120 0 195.5 15.5t127.5 58.5t79 108t45 174h145l-16 -526h-1160v154l136 16v1092
l-136 16v156zM424 1573l272 309l97 -22q49 -12 67.5 -32t18.5 -56t-22 -60.5t-66 -46.5l-318 -154z" />
    <glyph glyph-name="Ecircumflex" unicode="&#xca;" horiz-adv-x="1327" 
d="M63 1434h1117l16 -455h-147q-20 95 -47.5 151t-76.5 87t-110 41t-164 10h-114v-467h51q103 0 147 47t68 176h119v-606h-123q-12 78 -27 124t-42 72.5t-61.5 34.5t-93.5 8h-38v-487h110q120 0 195.5 15.5t127.5 58.5t79 108t45 174h145l-16 -526h-1160v154l136 16v1092
l-136 16v156zM311 1571l244 278q16 9 50 20t63 11q41 0 67 -17t60 -59l190 -231l-59 -72l-275 160l-278 -160z" />
    <glyph glyph-name="Edieresis" unicode="&#xcb;" horiz-adv-x="1327" 
d="M63 1434h1117l16 -455h-147q-20 95 -47.5 151t-76.5 87t-110 41t-164 10h-114v-467h51q103 0 147 47t68 176h119v-606h-123q-12 78 -27 124t-42 72.5t-61.5 34.5t-93.5 8h-38v-487h110q120 0 195.5 15.5t127.5 58.5t79 108t45 174h145l-16 -526h-1160v154l136 16v1092
l-136 16v156zM297 1702q0 57 37.5 98t103.5 41t106 -35t40 -104q0 -65 -37.5 -105.5t-104.5 -40.5q-76 0 -110.5 42t-34.5 104zM721 1702q0 57 37.5 98t103.5 41t106 -35t40 -104q0 -65 -37.5 -105.5t-104.5 -40.5q-76 0 -110.5 42t-34.5 104z" />
    <glyph glyph-name="Igrave" unicode="&#xcc;" horiz-adv-x="735" 
d="M199 170v1092l-136 14v158h609v-156l-135 -14v-1092l135 -16v-156h-609v156zM313 1884l260 -315l-51 -62l-315 160q-46 23 -66 46t-20 59t28.5 60t73.5 34z" />
    <glyph glyph-name="Iacute" unicode="&#xcd;" horiz-adv-x="735" 
d="M199 170v1092l-136 14v158h609v-156l-135 -14v-1092l135 -16v-156h-609v156zM147 1573l273 309l96 -22q49 -12 67.5 -32t18.5 -56t-22 -60.5t-66 -46.5l-317 -154z" />
    <glyph glyph-name="Icircumflex" unicode="&#xce;" horiz-adv-x="735" 
d="M199 170v1092l-136 14v158h609v-156l-135 -14v-1092l135 -16v-156h-609v156zM27 1571l243 278q16 9 50 20t63 11q41 0 67 -17t60 -59l190 -231l-59 -72l-274 160l-279 -160z" />
    <glyph glyph-name="Idieresis" unicode="&#xcf;" horiz-adv-x="735" 
d="M199 170v1092l-136 14v158h609v-156l-135 -14v-1092l135 -16v-156h-609v156zM12 1702q0 57 38 98t104 41t105.5 -35t39.5 -104q0 -65 -37 -105.5t-104 -40.5q-76 0 -111 42.5t-35 103.5zM436 1702q0 57 38 98t104 41t105.5 -35t39.5 -104q0 -65 -37 -105.5t-104 -40.5
q-76 0 -111 42.5t-35 103.5z" />
    <glyph glyph-name="Eth" unicode="&#xd0;" horiz-adv-x="1525" 
d="M47 664v145h178v455l-149 12v158h547q192 0 339 -37t257 -117.5t167.5 -216t57.5 -322.5q0 -741 -879 -741h-489v158l149 14v492h-178zM563 168h49q249 0 360 134t111 427q0 132 -22.5 227t-61.5 154t-102.5 94t-134.5 47.5t-168 12.5h-31v-455h330v-145h-330v-496z" />
    <glyph glyph-name="Ntilde" unicode="&#xd1;" horiz-adv-x="1505" 
d="M1325 1262v-1262h-272l-660 1133h-8v-965l141 -12v-156h-448v156l121 12v1094l-121 14v158h540l512 -920h9v748l-127 14v158h432v-158zM887 1548q-74 0 -182 47q-83 33 -121 33q-30 0 -53.5 -19t-45.5 -71l-69 23q34 132 85.5 190.5t139.5 58.5q16 0 30 -1t28.5 -4
t23.5 -5t24.5 -8t21.5 -8.5t24 -10.5t24 -10q77 -30 121 -30q36 0 57.5 18t42.5 70l68 -21q-52 -252 -219 -252z" />
    <glyph glyph-name="Ograve" unicode="&#xd2;" horiz-adv-x="1505" 
d="M1061 723q0 114 -7 197t-26 160t-52.5 125t-88 76t-129.5 28q-78 0 -135 -28t-91.5 -76.5t-55 -126t-27.5 -162.5t-7 -201q0 -89 5 -159t17 -139.5t35 -119.5t57 -89.5t84.5 -59t115.5 -19.5q63 0 111.5 18.5t81.5 56t55.5 87t34.5 119.5t17 143.5t5 169.5zM78 713
q0 341 184 542t506 201q319 0 489 -190t170 -535q0 -358 -168.5 -556t-506.5 -198t-506 188.5t-168 547.5zM717 1884l260 -315l-51 -62l-316 160q-46 23 -66 46t-20 59t29 60t74 34z" />
    <glyph glyph-name="Oacute" unicode="&#xd3;" horiz-adv-x="1505" 
d="M1061 723q0 114 -7 197t-26 160t-52.5 125t-88 76t-129.5 28q-78 0 -135 -28t-91.5 -76.5t-55 -126t-27.5 -162.5t-7 -201q0 -89 5 -159t17 -139.5t35 -119.5t57 -89.5t84.5 -59t115.5 -19.5q63 0 111.5 18.5t81.5 56t55.5 87t34.5 119.5t17 143.5t5 169.5zM78 713
q0 341 184 542t506 201q319 0 489 -190t170 -535q0 -358 -168.5 -556t-506.5 -198t-506 188.5t-168 547.5zM555 1573l272 309l97 -22q49 -12 67.5 -32t18.5 -56t-22 -60.5t-66 -46.5l-318 -154z" />
    <glyph glyph-name="Ocircumflex" unicode="&#xd4;" horiz-adv-x="1505" 
d="M1061 723q0 114 -7 197t-26 160t-52.5 125t-88 76t-129.5 28q-78 0 -135 -28t-91.5 -76.5t-55 -126t-27.5 -162.5t-7 -201q0 -89 5 -159t17 -139.5t35 -119.5t57 -89.5t84.5 -59t115.5 -19.5q63 0 111.5 18.5t81.5 56t55.5 87t34.5 119.5t17 143.5t5 169.5zM78 713
q0 341 184 542t506 201q319 0 489 -190t170 -535q0 -358 -168.5 -556t-506.5 -198t-506 188.5t-168 547.5zM428 1571l244 278q16 9 49.5 20t62.5 11q41 0 67 -17t60 -59l191 -231l-60 -72l-274 160l-279 -160z" />
    <glyph glyph-name="Otilde" unicode="&#xd5;" horiz-adv-x="1505" 
d="M1061 723q0 114 -7 197t-26 160t-52.5 125t-88 76t-129.5 28q-78 0 -135 -28t-91.5 -76.5t-55 -126t-27.5 -162.5t-7 -201q0 -89 5 -159t17 -139.5t35 -119.5t57 -89.5t84.5 -59t115.5 -19.5q63 0 111.5 18.5t81.5 56t55.5 87t34.5 119.5t17 143.5t5 169.5zM78 713
q0 341 184 542t506 201q319 0 489 -190t170 -535q0 -358 -168.5 -556t-506.5 -198t-506 188.5t-168 547.5zM909 1548q-74 0 -182 47q-83 33 -121 33q-29 0 -52.5 -19t-45.5 -71l-70 23q34 131 86 190t140 59q16 0 30 -1t28.5 -4t23.5 -5t24.5 -8t21.5 -8.5t24 -10.5t24 -10
q77 -30 121 -30q36 0 57.5 18t42.5 70l67 -21q-52 -252 -219 -252z" />
    <glyph glyph-name="Odieresis" unicode="&#xd6;" horiz-adv-x="1505" 
d="M1061 723q0 114 -7 197t-26 160t-52.5 125t-88 76t-129.5 28q-78 0 -135 -28t-91.5 -76.5t-55 -126t-27.5 -162.5t-7 -201q0 -89 5 -159t17 -139.5t35 -119.5t57 -89.5t84.5 -59t115.5 -19.5q63 0 111.5 18.5t81.5 56t55.5 87t34.5 119.5t17 143.5t5 169.5zM78 713
q0 341 184 542t506 201q319 0 489 -190t170 -535q0 -358 -168.5 -556t-506.5 -198t-506 188.5t-168 547.5zM414 1702q0 57 37.5 98t103.5 41t105.5 -35t39.5 -104q0 -65 -37 -105.5t-104 -40.5q-76 0 -110.5 42t-34.5 104zM838 1702q0 57 37.5 98t103.5 41t105.5 -35
t39.5 -104q0 -65 -37 -105.5t-104 -40.5q-76 0 -110.5 42t-34.5 104z" />
    <glyph glyph-name="multiply" unicode="&#xd7;" 
d="M893 168l-277 283l-286 -289q-14 13 -28 27t-31 31.5t-27 27.5l291 289l-281 278l92 84l275 -276l276 280l88 -88l-283 -278l279 -281q-16 -15 -43.5 -44t-44.5 -44z" />
    <glyph glyph-name="Oslash" unicode="&#xd8;" horiz-adv-x="1505" 
d="M78 713q0 341 184 542t506 201q139 0 254 -39l88 166l129 -65l-86 -164q135 -88 204.5 -246.5t69.5 -376.5q0 -358 -168.5 -556t-506.5 -198q-162 0 -297 50l-95 -181l-127 68l95 178q-250 180 -250 621zM1061 723q0 251 -41 381l-469 -893q76 -82 205 -82
q63 0 111.5 18.5t81.5 56t55.5 87t34.5 119.5t17 143.5t5 169.5zM442 715q0 -225 31 -342l461 876q-66 60 -176 60q-78 0 -135 -28t-91.5 -76.5t-55 -126t-27.5 -162.5t-7 -201z" />
    <glyph glyph-name="Ugrave" unicode="&#xd9;" horiz-adv-x="1460" 
d="M799 174q152 0 218 78.5t66 239.5v770l-129 14v158h451v-158l-121 -14v-795q0 -236 -128.5 -363t-399.5 -127q-106 0 -190 13.5t-158 48t-123 89.5t-77 141.5t-28 201.5v793l-127 12v158h600v-158l-135 -12v-750q0 -65 6 -112t23.5 -92.5t48 -73.5t81.5 -45t122 -17z
M698 1884l260 -315l-51 -62l-315 160q-46 23 -66 46t-20 59t28.5 60t73.5 34z" />
    <glyph glyph-name="Uacute" unicode="&#xda;" horiz-adv-x="1460" 
d="M799 174q-71 0 -122 17t-81.5 45t-48 73.5t-23.5 92.5t-6 112v750l135 12v158h-600v-158l127 -12v-793q0 -115 28 -201.5t77 -141.5t123 -89.5t158 -48t190 -13.5q271 0 399.5 127t128.5 363v795l121 14v158h-451v-158l129 -14v-770q0 -161 -66 -239.5t-218 -78.5z
M561 1573l273 309l96 -22q49 -12 67.5 -32t18.5 -56t-22 -60.5t-66 -46.5l-318 -154z" />
    <glyph glyph-name="Ucircumflex" unicode="&#xdb;" horiz-adv-x="1460" 
d="M799 174q-71 0 -122 17t-81.5 45t-48 73.5t-23.5 92.5t-6 112v750l135 12v158h-600v-158l127 -12v-793q0 -115 28 -201.5t77 -141.5t123 -89.5t158 -48t190 -13.5q271 0 399.5 127t128.5 363v795l121 14v158h-451v-158l129 -14v-770q0 -161 -66 -239.5t-218 -78.5z
M438 1571l244 278q16 9 50 20t63 11q41 0 67 -17t60 -59l190 -231l-59 -72l-275 160l-278 -160z" />
    <glyph glyph-name="Udieresis" unicode="&#xdc;" horiz-adv-x="1460" 
d="M799 174q152 0 218 78.5t66 239.5v770l-129 14v158h451v-158l-121 -14v-795q0 -236 -128.5 -363t-399.5 -127q-106 0 -190 13.5t-158 48t-123 89.5t-77 141.5t-28 201.5v793l-127 12v158h600v-158l-135 -12v-750q0 -65 6 -112t23.5 -92.5t48 -73.5t81.5 -45t122 -17z
M426 1702q0 57 37.5 98t103.5 41t106 -35t40 -104q0 -65 -37.5 -105.5t-104.5 -40.5q-76 0 -110.5 42t-34.5 104zM850 1702q0 57 37.5 98t103.5 41t106 -35t40 -104q0 -65 -37.5 -105.5t-104.5 -40.5q-76 0 -110.5 42t-34.5 104z" />
    <glyph glyph-name="Yacute" unicode="&#xdd;" horiz-adv-x="1318" 
d="M758 807l246 453l-144 14v160h457v-160l-121 -14l-358 -635v-453l174 -14v-158h-686v158l174 14v453l-375 635l-123 14v160h657v-160l-153 -14l246 -453h6zM498 1573l272 309l96 -22q49 -12 67.5 -32t18.5 -56t-22 -60.5t-66 -46.5l-317 -154z" />
    <glyph glyph-name="Thorn" unicode="&#xde;" horiz-adv-x="1304" 
d="M545 1264v-86h96q110 0 198.5 -11.5t166 -40t129 -74.5t81 -116.5t29.5 -163.5q0 -128 -50 -220t-141.5 -144t-204 -75.5t-253.5 -23.5h-51v-139l215 -14v-156h-701v156l148 14v1094l-148 14v156h701v-156zM545 1008v-535h49q147 0 219 67t72 210q0 149 -66 203.5
t-213 54.5h-61z" />
    <glyph glyph-name="germandbls" unicode="&#xdf;" horiz-adv-x="1470" 
d="M631 -6v356h117q20 -99 95 -168t187 -69q77 0 123.5 35.5t46.5 103.5q0 37 -22.5 66t-59 46t-83 35.5t-95.5 34.5t-95.5 43t-83 60.5t-59 89t-22.5 125.5q0 74 30.5 141.5t74 117t86.5 95.5t73.5 96.5t30.5 100.5q0 74 -49 112.5t-160 38.5q-70 0 -120 -18t-77 -45.5
t-42 -72.5t-19 -85t-4 -98v-1135h-473v137l155 21v921q0 504 562 504q89 0 159.5 -16t114.5 -41.5t73 -60t40.5 -69.5t11.5 -73q0 -61 -22.5 -115.5t-54.5 -94t-64.5 -75t-55 -73t-22.5 -74.5q0 -38 28 -67t72 -50t98 -42t108 -51t98 -68.5t72 -101.5t28 -144
q0 -170 -107.5 -280t-261.5 -110q-62 0 -112 12t-76 25t-70 39q-2 1 -8 5t-10.5 6t-8.5 2q-25 0 -33 -72h-114z" />
    <glyph glyph-name="agrave" unicode="&#xe0;" horiz-adv-x="1118" 
d="M496 535h145v147q0 127 -39.5 188.5t-142.5 61.5q-117 0 -117 -68q0 -8 4 -28h78q12 -54 12 -80q0 -64 -40 -103t-117 -39q-79 0 -119.5 45t-40.5 117q0 124 108.5 198.5t302.5 74.5q215 0 321.5 -87.5t106.5 -299.5v-422q0 -61 9 -85t39 -24q26 0 67 16l29 -104
q-36 -25 -99.5 -45.5t-132.5 -20.5q-94 0 -142.5 38.5t-68.5 115.5q-84 -154 -288 -154q-134 0 -217.5 65t-83.5 204q0 160 106 224.5t320 64.5zM508 131q58 0 95.5 41t37.5 129v127h-80q-93 0 -129.5 -37.5t-36.5 -120.5q0 -72 26.5 -105.5t86.5 -33.5zM561 1536l119 -377
l-74 -37l-229 273q-43 50 -43 92q0 53 44 74t89 6z" />
    <glyph glyph-name="aacute" unicode="&#xe1;" horiz-adv-x="1118" 
d="M496 535h145v147q0 127 -39.5 188.5t-142.5 61.5q-117 0 -117 -68q0 -8 4 -28h78q12 -54 12 -80q0 -64 -40 -103t-117 -39q-79 0 -119.5 45t-40.5 117q0 124 108.5 198.5t302.5 74.5q215 0 321.5 -87.5t106.5 -299.5v-422q0 -61 9 -85t39 -24q26 0 67 16l29 -104
q-36 -25 -99.5 -45.5t-132.5 -20.5q-94 0 -142.5 38.5t-68.5 115.5q-84 -154 -288 -154q-134 0 -217.5 65t-83.5 204q0 160 106 224.5t320 64.5zM508 131q58 0 95.5 41t37.5 129v127h-80q-93 0 -129.5 -37.5t-36.5 -120.5q0 -72 26.5 -105.5t86.5 -33.5zM395 1167l135 369
l99 27q49 14 87 -7t38 -69q0 -49 -49 -101l-240 -260z" />
    <glyph glyph-name="acircumflex" unicode="&#xe2;" horiz-adv-x="1118" 
d="M496 535h145v147q0 127 -39.5 188.5t-142.5 61.5q-117 0 -117 -68q0 -8 4 -28h78q12 -54 12 -80q0 -64 -40 -103t-117 -39q-79 0 -119.5 45t-40.5 117q0 124 108.5 198.5t302.5 74.5q215 0 321.5 -87.5t106.5 -299.5v-422q0 -61 9 -85t39 -24q26 0 67 16l29 -104
q-36 -25 -99.5 -45.5t-132.5 -20.5q-94 0 -142.5 38.5t-68.5 115.5q-84 -154 -288 -154q-134 0 -217.5 65t-83.5 204q0 160 106 224.5t320 64.5zM508 131q58 0 95.5 41t37.5 129v127h-80q-93 0 -129.5 -37.5t-36.5 -120.5q0 -72 26.5 -105.5t86.5 -33.5zM252 1180l199 329
q13 10 49.5 21.5t66.5 11.5q44 0 70 -17t51 -61l156 -280l-68 -56l-227 177l-232 -181z" />
    <glyph glyph-name="atilde" unicode="&#xe3;" horiz-adv-x="1118" 
d="M496 535h145v147q0 127 -39.5 188.5t-142.5 61.5q-117 0 -117 -68q0 -8 4 -28h78q12 -54 12 -80q0 -64 -40 -103t-117 -39q-79 0 -119.5 45t-40.5 117q0 124 108.5 198.5t302.5 74.5q215 0 321.5 -87.5t106.5 -299.5v-422q0 -61 9 -85t39 -24q26 0 67 16l29 -104
q-36 -25 -99.5 -45.5t-132.5 -20.5q-94 0 -142.5 38.5t-68.5 115.5q-84 -154 -288 -154q-134 0 -217.5 65t-83.5 204q0 160 106 224.5t320 64.5zM508 131q58 0 95.5 41t37.5 129v127h-80q-93 0 -129.5 -37.5t-36.5 -120.5q0 -72 26.5 -105.5t86.5 -33.5zM684 1190
q-74 0 -182 47q-83 33 -121 33q-29 0 -52.5 -19t-45.5 -71l-70 22q35 132 86.5 191t138.5 59q16 0 30 -1t28.5 -4t23.5 -5t24.5 -8t21.5 -8.5t24 -10.5t24 -10q79 -31 121 -31q36 0 58 18.5t43 69.5l67 -20q-52 -252 -219 -252z" />
    <glyph glyph-name="adieresis" unicode="&#xe4;" horiz-adv-x="1118" 
d="M496 535h145v147q0 127 -39.5 188.5t-142.5 61.5q-117 0 -117 -68q0 -8 4 -28h78q12 -54 12 -80q0 -64 -40 -103t-117 -39q-79 0 -119.5 45t-40.5 117q0 124 108.5 198.5t302.5 74.5q215 0 321.5 -87.5t106.5 -299.5v-422q0 -61 9 -85t39 -24q26 0 67 16l29 -104
q-36 -25 -99.5 -45.5t-132.5 -20.5q-94 0 -142.5 38.5t-68.5 115.5q-84 -154 -288 -154q-134 0 -217.5 65t-83.5 204q0 160 106 224.5t320 64.5zM508 131q58 0 95.5 41t37.5 129v127h-80q-93 0 -129.5 -37.5t-36.5 -120.5q0 -72 26.5 -105.5t86.5 -33.5zM193 1339
q0 58 37.5 99t103.5 41t105.5 -35.5t39.5 -104.5q0 -65 -37 -105t-104 -40q-76 0 -110.5 42t-34.5 103zM616 1339q0 57 38 98.5t104 41.5t105.5 -35.5t39.5 -104.5q0 -65 -37 -105t-104 -40q-76 0 -111 42t-35 103z" />
    <glyph glyph-name="aring" unicode="&#xe5;" horiz-adv-x="1118" 
d="M496 535h145v147q0 127 -39.5 188.5t-142.5 61.5q-117 0 -117 -68q0 -8 4 -28h78q12 -54 12 -80q0 -64 -40 -103t-117 -39q-79 0 -119.5 45t-40.5 117q0 124 108.5 198.5t302.5 74.5q215 0 321.5 -87.5t106.5 -299.5v-422q0 -61 9 -85t39 -24q26 0 67 16l29 -104
q-36 -25 -99.5 -45.5t-132.5 -20.5q-94 0 -142.5 38.5t-68.5 115.5q-84 -154 -288 -154q-134 0 -217.5 65t-83.5 204q0 160 106 224.5t320 64.5zM508 131q58 0 95.5 41t37.5 129v127h-80q-93 0 -129.5 -37.5t-36.5 -120.5q0 -72 26.5 -105.5t86.5 -33.5zM455 1356
q0 -44 22.5 -74.5t73.5 -30.5q47 0 68.5 29.5t21.5 75.5q0 44 -23 73t-71 29q-46 0 -69 -29.5t-23 -72.5zM324 1356q0 88 60 147.5t169 59.5q105 0 162 -55t57 -148q0 -96 -59.5 -155.5t-163.5 -59.5q-112 0 -168.5 57t-56.5 154z" />
    <glyph glyph-name="ae" unicode="&#xe6;" horiz-adv-x="1654" 
d="M391 -23q-66 0 -121.5 15.5t-101.5 47.5t-72 88t-26 132q0 158 107.5 229.5t316.5 71.5h145v111q0 135 -38.5 197.5t-141.5 62.5q-121 0 -121 -68q0 -8 4 -28h78q12 -54 12 -80q0 -64 -40.5 -103t-119.5 -39q-78 0 -118.5 45t-40.5 117q0 123 108 198t293 75
q118 0 193.5 -34t123.5 -104q67 71 149.5 104.5t195.5 33.5q194 0 300.5 -127t106.5 -357q0 -54 -4 -116h-614q2 -73 12.5 -123.5t35 -93.5t69.5 -64t112 -21q89 0 142 46.5t94 138.5l145 -51q-46 -145 -158.5 -224.5t-275.5 -79.5q-268 0 -396 166q-128 -166 -354 -166z
M1128 926q-88 0 -124.5 -88.5t-38.5 -264.5h297v86q0 145 -28.5 206t-105.5 61zM512 129q48 0 95.5 31t76.5 78q-40 94 -43 215h-82q-166 0 -166 -168q0 -156 119 -156z" />
    <glyph glyph-name="ccedilla" unicode="&#xe7;" horiz-adv-x="1038" 
d="M629 922q-124 0 -181 -107.5t-57 -294.5q0 -190 49.5 -282.5t175.5 -92.5q37 0 68.5 12t53 29.5t41.5 46t31.5 51.5t25.5 56l147 -51q-8 -31 -21.5 -62t-35 -66.5t-53.5 -66t-72.5 -56.5t-96.5 -42t-120 -19l-52 -83q21 6 68 6q89 0 138.5 -44.5t49.5 -119.5
q0 -80 -65.5 -138.5t-194.5 -58.5q-98 0 -151 39t-53 90q0 35 20.5 58.5t52.5 23.5q58 0 80 -59l-41 -39q0 -45 72 -45q92 0 92 110q0 51 -25.5 79t-70.5 28q-52 0 -76 -8l-18 51l69 115q-205 22 -314.5 154t-109.5 351q0 260 144 411t395 151q189 0 286 -88.5t97 -219.5
q0 -81 -45.5 -132.5t-126.5 -51.5q-73 0 -112.5 45t-39.5 109q0 45 15 88h77q7 24 7 39q0 84 -123 84z" />
    <glyph glyph-name="egrave" unicode="&#xe8;" horiz-adv-x="1077" 
d="M55 496q0 258 142 405.5t366 147.5q205 0 324 -113.5t119 -339.5q0 -38 -5 -111h-614q1 -61 7 -108.5t21.5 -92t40.5 -73.5t65.5 -46.5t94.5 -17.5q89 0 142 46.5t94 138.5l145 -51q-46 -146 -157.5 -225t-274.5 -79q-244 0 -377 141t-133 378zM389 621h295v36
q0 145 -28 207t-105 62q-155 0 -162 -305zM571 1536l119 -377l-74 -37l-229 273q-43 50 -43 92q0 53 44 74t89 6z" />
    <glyph glyph-name="eacute" unicode="&#xe9;" horiz-adv-x="1077" 
d="M55 496q0 -237 133 -378t377 -141q163 0 274.5 79t157.5 225l-145 51q-41 -92 -94 -138.5t-142 -46.5q-54 0 -94.5 17.5t-65.5 46.5t-40.5 73.5t-21.5 92t-7 108.5h614q5 72 5 111q0 226 -119 339.5t-324 113.5q-224 0 -366 -147.5t-142 -405.5zM684 621h-295
q7 305 162 305q77 0 105 -62t28 -207v-36zM406 1167l135 369l98 27q49 14 87 -7t38 -69q0 -49 -49 -101l-240 -260z" />
    <glyph glyph-name="ecircumflex" unicode="&#xea;" horiz-adv-x="1077" 
d="M55 496q0 -237 133 -378t377 -141q163 0 274.5 79t157.5 225l-145 51q-41 -92 -94 -138.5t-142 -46.5q-54 0 -94.5 17.5t-65.5 46.5t-40.5 73.5t-21.5 92t-7 108.5h614q5 72 5 111q0 226 -119 339.5t-324 113.5q-224 0 -366 -147.5t-142 -405.5zM684 621h-295
q7 305 162 305q77 0 105 -62t28 -207v-36zM262 1180l199 329q13 10 50 21.5t67 11.5q43 0 69 -17t51 -61l156 -280l-68 -56l-227 177l-231 -181z" />
    <glyph glyph-name="edieresis" unicode="&#xeb;" horiz-adv-x="1077" 
d="M55 496q0 258 142 405.5t366 147.5q205 0 324 -113.5t119 -339.5q0 -38 -5 -111h-614q1 -61 7 -108.5t21.5 -92t40.5 -73.5t65.5 -46.5t94.5 -17.5q89 0 142 46.5t94 138.5l145 -51q-46 -146 -157.5 -225t-274.5 -79q-244 0 -377 141t-133 378zM389 621h295v36
q0 145 -28 207t-105 62q-155 0 -162 -305zM203 1339q0 58 37.5 99t103.5 41t105.5 -35.5t39.5 -104.5q0 -65 -37 -105t-104 -40q-76 0 -110.5 42t-34.5 103zM627 1339q0 58 37.5 99t103.5 41t105.5 -35.5t39.5 -104.5q0 -65 -37 -105t-104 -40q-76 0 -110.5 42t-34.5 103z
" />
    <glyph glyph-name="igrave" unicode="&#xec;" horiz-adv-x="692" 
d="M49 1014l467 16v-874l156 -15v-141h-627v141l154 15v706l-150 15v137zM324 1536l118 -377l-73 -37l-230 273q-43 50 -43 92q0 53 44 74t89 6z" />
    <glyph glyph-name="iacute" unicode="&#xed;" horiz-adv-x="692" 
d="M49 1014l467 16v-874l156 -15v-141h-627v141l154 15v706l-150 15v137zM158 1167l135 369l98 27q49 14 87 -7t38 -69q0 -49 -49 -101l-240 -260z" />
    <glyph glyph-name="icircumflex" unicode="&#xee;" horiz-adv-x="692" 
d="M49 1014l467 16v-874l156 -15v-141h-627v141l154 15v706l-150 15v137zM6 1180l199 329q13 10 50 21.5t67 11.5q43 0 69 -17t51 -61l156 -280l-68 -56l-227 177l-231 -181z" />
    <glyph glyph-name="idieresis" unicode="&#xef;" horiz-adv-x="692" 
d="M49 1014l467 16v-874l156 -15v-141h-627v141l154 15v706l-150 15v137zM-49 1339q0 58 37.5 99t103.5 41t106 -35.5t40 -104.5q0 -65 -37.5 -105t-104.5 -40q-76 0 -110.5 42t-34.5 103zM375 1339q0 58 37.5 99t103.5 41t106 -35.5t40 -104.5q0 -65 -37.5 -105t-104.5 -40
q-76 0 -110.5 42t-34.5 103z" />
    <glyph glyph-name="eth" unicode="&#xf0;" horiz-adv-x="1175" 
d="M461 1137l-58 112l152 117q-108 70 -297 104l25 121q283 -28 428 -112l211 163l53 -118l-152 -117q143 -121 215 -295t72 -426q0 -360 -142.5 -534.5t-402.5 -174.5q-246 0 -378 144.5t-132 384.5q0 236 131 377t338 141q225 0 316 -168l12 4q-22 122 -75.5 238
t-123.5 186zM776 506q0 156 -26 237q-48 154 -168 154q-55 0 -93.5 -26.5t-59.5 -79t-29.5 -117.5t-8.5 -154q0 -83 3.5 -140.5t15.5 -113.5t33 -89t56.5 -53t86.5 -20q48 0 83.5 22.5t55.5 58.5t32 91t15.5 108t3.5 122z" />
    <glyph glyph-name="ntilde" unicode="&#xf1;" horiz-adv-x="1314" 
d="M59 1020l396 14l14 -194h12q21 44 47 77.5t66.5 65t99.5 49t133 17.5q157 0 237.5 -79.5t80.5 -254.5v-557l129 -15v-143h-543v143l96 15v516q0 95 -24.5 139.5t-102.5 44.5q-89 0 -142.5 -56.5t-53.5 -174.5v-469l104 -15v-143h-549v143l127 15v706l-127 15v141z
M788 1192q-74 0 -182 47q-82 33 -121 33q-29 0 -52.5 -19t-45.5 -71l-70 22q34 132 86 191t140 59q16 0 30 -1t28.5 -4t23.5 -5t24.5 -8t21.5 -8.5t24 -10.5t24 -10q79 -31 121 -31q36 0 57.5 18t42.5 70l68 -20q-52 -252 -220 -252z" />
    <glyph glyph-name="ograve" unicode="&#xf2;" horiz-adv-x="1159" 
d="M768 508q0 87 -4 147t-16 114.5t-33 86t-55 50t-82 18.5q-57 0 -94 -26t-57 -81t-28 -124t-8 -171q0 -87 4.5 -149t17 -115.5t34.5 -85.5t55.5 -50t81.5 -18q55 0 91.5 26t56.5 80.5t28 124.5t8 173zM55 508q0 246 139 393.5t394 147.5q134 0 234.5 -39t161.5 -111.5
t90.5 -168t29.5 -214.5q0 -247 -136 -393t-393 -146q-261 0 -390.5 143.5t-129.5 387.5zM594 1536l119 -377l-74 -37l-229 273q-43 50 -43 92q0 53 44 74t89 6z" />
    <glyph glyph-name="oacute" unicode="&#xf3;" horiz-adv-x="1159" 
d="M768 508q0 87 -4 147t-16 114.5t-33 86t-55 50t-82 18.5q-57 0 -94 -26t-57 -81t-28 -124t-8 -171q0 -87 4.5 -149t17 -115.5t34.5 -85.5t55.5 -50t81.5 -18q55 0 91.5 26t56.5 80.5t28 124.5t8 173zM55 508q0 246 139 393.5t394 147.5q134 0 234.5 -39t161.5 -111.5
t90.5 -168t29.5 -214.5q0 -247 -136 -393t-393 -146q-261 0 -390.5 143.5t-129.5 387.5zM463 1167l135 369l98 27q49 14 87 -7t38 -69q0 -49 -49 -101l-240 -260z" />
    <glyph glyph-name="ocircumflex" unicode="&#xf4;" horiz-adv-x="1159" 
d="M768 508q0 87 -4 147t-16 114.5t-33 86t-55 50t-82 18.5q-57 0 -94 -26t-57 -81t-28 -124t-8 -171q0 -87 4.5 -149t17 -115.5t34.5 -85.5t55.5 -50t81.5 -18q55 0 91.5 26t56.5 80.5t28 124.5t8 173zM55 508q0 246 139 393.5t394 147.5q134 0 234.5 -39t161.5 -111.5
t90.5 -168t29.5 -214.5q0 -247 -136 -393t-393 -146q-261 0 -390.5 143.5t-129.5 387.5zM285 1180l198 329q13 10 50 21.5t67 11.5q44 0 70 -17t51 -61l156 -280l-68 -56l-227 177l-232 -181z" />
    <glyph glyph-name="otilde" unicode="&#xf5;" horiz-adv-x="1159" 
d="M768 508q0 87 -4 147t-16 114.5t-33 86t-55 50t-82 18.5q-57 0 -94 -26t-57 -81t-28 -124t-8 -171q0 -87 4.5 -149t17 -115.5t34.5 -85.5t55.5 -50t81.5 -18q55 0 91.5 26t56.5 80.5t28 124.5t8 173zM55 508q0 246 139 393.5t394 147.5q134 0 234.5 -39t161.5 -111.5
t90.5 -168t29.5 -214.5q0 -247 -136 -393t-393 -146q-261 0 -390.5 143.5t-129.5 387.5zM717 1190q-74 0 -182 47q-83 33 -121 33q-30 0 -53.5 -19t-45.5 -71l-69 22q35 132 86.5 191t138.5 59q16 0 30 -1t28.5 -4t23.5 -5t24.5 -8t21.5 -8.5t24 -10.5t24 -10
q79 -31 121 -31q36 0 57.5 18t42.5 70l68 -20q-52 -252 -219 -252z" />
    <glyph glyph-name="odieresis" unicode="&#xf6;" horiz-adv-x="1159" 
d="M768 508q0 87 -4 147t-16 114.5t-33 86t-55 50t-82 18.5q-57 0 -94 -26t-57 -81t-28 -124t-8 -171q0 -87 4.5 -149t17 -115.5t34.5 -85.5t55.5 -50t81.5 -18q55 0 91.5 26t56.5 80.5t28 124.5t8 173zM55 508q0 246 139 393.5t394 147.5q134 0 234.5 -39t161.5 -111.5
t90.5 -168t29.5 -214.5q0 -247 -136 -393t-393 -146q-261 0 -390.5 143.5t-129.5 387.5zM225 1339q0 57 38 98.5t104 41.5t105.5 -35.5t39.5 -104.5q0 -65 -37 -105t-104 -40q-76 0 -111 42t-35 103zM649 1339q0 57 38 98.5t104 41.5t105.5 -35.5t39.5 -104.5
q0 -65 -37 -105t-104 -40q-76 0 -111 42t-35 103z" />
    <glyph glyph-name="divide" unicode="&#xf7;" 
d="M455 301q0 66 40.5 109t114.5 43t117 -37.5t43 -112.5q0 -69 -41 -111t-115 -42q-84 0 -121.5 43.5t-37.5 107.5zM455 944q0 66 40.5 109t114.5 43t117 -37t43 -111q0 -70 -41 -112.5t-115 -42.5q-84 0 -121.5 43.5t-37.5 107.5zM1079 565h-929v119h929v-119z" />
    <glyph glyph-name="oslash" unicode="&#xf8;" horiz-adv-x="1159" 
d="M55 508q0 246 139 393.5t394 147.5q88 0 166 -19l57 117l115 -53l-54 -109q232 -123 232 -469q0 -247 -136 -393t-393 -146q-95 0 -182 23l-69 -145l-113 53l68 139q-224 128 -224 461zM768 508q0 146 -14 231l-289 -592q43 -43 119 -43q55 0 91.5 26t56.5 80.5t28 124.5
t8 173zM391 522q0 -146 12 -217l283 584q-41 35 -108 35q-57 0 -94 -26t-57 -81t-28 -124t-8 -171z" />
    <glyph glyph-name="ugrave" unicode="&#xf9;" horiz-adv-x="1302" 
d="M487 1032v-680q0 -94 25.5 -139t103.5 -45q84 0 135.5 56.5t51.5 178.5v465l-113 15v133l430 18v-876l127 -15v-143h-397l-12 184h-13q-22 -45 -46 -78t-62 -64.5t-94.5 -48t-128.5 -16.5q-159 0 -241.5 79.5t-82.5 254.5v557l-115 15v131zM610 1536l119 -377l-74 -37
l-229 273q-43 50 -43 92q0 53 44 74t89 6z" />
    <glyph glyph-name="uacute" unicode="&#xfa;" horiz-adv-x="1302" 
d="M487 1032v-680q0 -94 25.5 -139t103.5 -45q84 0 135.5 56.5t51.5 178.5v465l-113 15v133l430 18v-876l127 -15v-143h-397l-12 184h-13q-22 -45 -46 -78t-62 -64.5t-94.5 -48t-128.5 -16.5q-159 0 -241.5 79.5t-82.5 254.5v557l-115 15v131zM524 1167l135 369l99 27
q49 14 87 -7t38 -69q0 -49 -49 -101l-240 -260z" />
    <glyph glyph-name="ucircumflex" unicode="&#xfb;" horiz-adv-x="1302" 
d="M487 1032v-680q0 -94 25.5 -139t103.5 -45q84 0 135.5 56.5t51.5 178.5v465l-113 15v133l430 18v-876l127 -15v-143h-397l-12 184h-13q-22 -45 -46 -78t-62 -64.5t-94.5 -48t-128.5 -16.5q-159 0 -241.5 79.5t-82.5 254.5v557l-115 15v131zM313 1180l199 329
q13 10 50 21.5t67 11.5q44 0 70 -17t51 -61l155 -280l-67 -56l-228 177l-231 -181z" />
    <glyph glyph-name="udieresis" unicode="&#xfc;" horiz-adv-x="1302" 
d="M487 1032v-680q0 -94 25.5 -139t103.5 -45q84 0 135.5 56.5t51.5 178.5v465l-113 15v133l430 18v-876l127 -15v-143h-397l-12 184h-13q-22 -45 -46 -78t-62 -64.5t-94.5 -48t-128.5 -16.5q-159 0 -241.5 79.5t-82.5 254.5v557l-115 15v131zM254 1339q0 58 37.5 99
t103.5 41t106 -35.5t40 -104.5q0 -65 -37.5 -105t-104.5 -40q-76 0 -110.5 42t-34.5 103zM678 1339q0 58 37.5 99t103.5 41t106 -35.5t40 -104.5q0 -65 -37.5 -105t-104.5 -40q-76 0 -110.5 42t-34.5 103z" />
    <glyph glyph-name="yacute" unicode="&#xfd;" horiz-adv-x="1105" 
d="M10 885v141h565v-141l-126 -8l182 -568h8l195 568l-125 8v141h393v-141l-103 -8l-366 -1008q-29 -80 -55 -130.5t-64 -92t-90.5 -60t-124.5 -18.5q-51 0 -97 12.5t-84 37t-60.5 67t-22.5 98.5q0 73 45.5 122.5t124.5 49.5q70 0 109 -42.5t38 -127.5l-92 -43
q-3 -28 15 -44.5t53 -16.5q51 0 81 41t68 149l58 164h-129l-304 842zM492 1167l135 369l98 27q49 14 87 -7t38 -69q0 -49 -49 -101l-240 -260z" />
    <glyph glyph-name="thorn" unicode="&#xfe;" horiz-adv-x="1257" 
d="M674 881q-99 0 -148 -69t-49 -187v-269q0 -113 53 -172t142 -59q56 0 92 22.5t56 74t27 119t7 173.5q0 77 -4 130.5t-15 101t-31 75.5t-52 44t-78 16zM166 -252v1620l-129 18v136l440 14v-647l6 -4q95 164 303 164q198 0 302 -133.5t104 -387.5q0 -259 -116 -405
t-322 -146q-176 0 -267 105l-6 -2v-334l195 -16v-140h-633v144z" />
    <glyph glyph-name="ydieresis" unicode="&#xff;" horiz-adv-x="1105" 
d="M10 885v141h565v-141l-126 -8l182 -568h8l195 568l-125 8v141h393v-141l-103 -8l-366 -1008q-29 -80 -55 -130.5t-64 -92t-90.5 -60t-124.5 -18.5q-51 0 -97 12.5t-84 37t-60.5 67t-22.5 98.5q0 73 45.5 122.5t124.5 49.5q70 0 109 -42.5t38 -127.5l-92 -43
q-3 -28 15 -44.5t53 -16.5q51 0 81 41t68 149l58 164h-129l-304 842zM238 1339q0 58 37.5 99t103.5 41t105.5 -35.5t39.5 -104.5q0 -65 -37 -105t-104 -40q-76 0 -110.5 42t-34.5 103zM662 1339q0 58 37.5 99t103.5 41t105.5 -35.5t39.5 -104.5q0 -65 -37 -105t-104 -40
q-76 0 -110.5 42t-34.5 103z" />
    <glyph glyph-name="Amacron" unicode="&#x100;" horiz-adv-x="1480" 
d="M954 172l-80 231h-444l-80 -231l146 -16v-156h-486v156l131 16l480 1264h241l469 -1264l139 -16v-156h-667v156zM659 1057l-180 -494h350l-163 494h-7zM461 1591v181h557v-181h-557z" />
    <glyph glyph-name="amacron" unicode="&#x101;" horiz-adv-x="1118" 
d="M496 535h145v147q0 127 -39.5 188.5t-142.5 61.5q-117 0 -117 -68q0 -8 4 -28h78q12 -54 12 -80q0 -64 -40 -103t-117 -39q-79 0 -119.5 45t-40.5 117q0 124 108.5 198.5t302.5 74.5q215 0 321.5 -87.5t106.5 -299.5v-422q0 -61 9 -85t39 -24q26 0 67 16l29 -104
q-36 -25 -99.5 -45.5t-132.5 -20.5q-94 0 -142.5 38.5t-68.5 115.5q-84 -154 -288 -154q-134 0 -217.5 65t-83.5 204q0 160 106 224.5t320 64.5zM508 131q58 0 95.5 41t37.5 129v127h-80q-93 0 -129.5 -37.5t-36.5 -120.5q0 -72 26.5 -105.5t86.5 -33.5zM268 1223v180h557
v-180h-557z" />
    <glyph glyph-name="Abreve" unicode="&#x102;" horiz-adv-x="1480" 
d="M954 172l-80 231h-444l-80 -231l146 -16v-156h-486v156l131 16l480 1264h241l469 -1264l139 -16v-156h-667v156zM659 1057l-180 -494h350l-163 494h-7zM436 1829l92 20q27 -72 73.5 -102.5t141.5 -30.5q96 0 143.5 29.5t69.5 99.5l88 -14q-6 -61 -26 -112.5t-56 -95
t-94.5 -68.5t-134.5 -25q-75 0 -131.5 25t-90.5 68.5t-52 94.5t-23 111z" />
    <glyph glyph-name="abreve" unicode="&#x103;" horiz-adv-x="1118" 
d="M496 535h145v147q0 127 -39.5 188.5t-142.5 61.5q-117 0 -117 -68q0 -8 4 -28h78q12 -54 12 -80q0 -64 -40 -103t-117 -39q-79 0 -119.5 45t-40.5 117q0 124 108.5 198.5t302.5 74.5q215 0 321.5 -87.5t106.5 -299.5v-422q0 -61 9 -85t39 -24q26 0 67 16l29 -104
q-36 -25 -99.5 -45.5t-132.5 -20.5q-94 0 -142.5 38.5t-68.5 115.5q-84 -154 -288 -154q-134 0 -217.5 65t-83.5 204q0 160 106 224.5t320 64.5zM508 131q58 0 95.5 41t37.5 129v127h-80q-93 0 -129.5 -37.5t-36.5 -120.5q0 -72 26.5 -105.5t86.5 -33.5zM244 1475l92 20
q29 -81 75 -115t140 -34q93 0 142 34.5t71 110.5l88 -14q-6 -64 -25.5 -118.5t-55.5 -100.5t-95 -72.5t-135 -26.5q-75 0 -131.5 26.5t-90.5 73t-52 100t-23 116.5z" />
    <glyph glyph-name="Aogonek" unicode="&#x104;" horiz-adv-x="1480" 
d="M954 172l-80 231h-444l-80 -231l146 -16v-156h-486v156l131 16l482 1264h241l467 -1264l139 -16v-156h-241q-158 -146 -158 -262q0 -84 76 -84q24 0 45 12.5t32.5 25.5t30.5 38l80 -49q-84 -168 -266 -168q-102 0 -159.5 49t-57.5 137q0 86 62 159t165 142h-276v156z
M662 1057l-183 -494h350l-161 494h-6z" />
    <glyph glyph-name="aogonek" unicode="&#x105;" horiz-adv-x="1118" 
d="M496 535h145v147q0 127 -39.5 188.5t-142.5 61.5q-117 0 -117 -68q0 -8 4 -28h78q12 -54 12 -80q0 -64 -40 -103t-117 -39q-79 0 -119.5 45t-40.5 117q0 124 108.5 198.5t302.5 74.5q215 0 321.5 -87.5t106.5 -299.5v-422q0 -61 9 -85t39 -24q26 0 67 16l29 -104
q-12 -8 -56.5 -31.5t-74.5 -42.5q-73 -44 -114.5 -104t-41.5 -127q0 -84 76 -84q24 0 45 12.5t32.5 25.5t30.5 38l80 -49q-84 -168 -266 -168q-102 0 -159.5 49t-57.5 137q0 86 55.5 153.5t163.5 127.5q-126 20 -156 151q-84 -154 -288 -154q-134 0 -217.5 65t-83.5 204
q0 160 106 224.5t320 64.5zM508 131q58 0 95.5 41t37.5 129v127h-80q-93 0 -129.5 -37.5t-36.5 -120.5q0 -72 26.5 -105.5t86.5 -33.5z" />
    <glyph glyph-name="Cacute" unicode="&#x106;" horiz-adv-x="1400" 
d="M799 1296q-350 0 -350 -575q0 -294 88 -437t264 -143q149 0 227.5 84.5t124.5 259.5h154l-15 -483h-137q-12 38 -22 54t-29 16q-13 0 -58.5 -23.5t-124 -47.5t-171.5 -24q-117 0 -217 26.5t-184 84.5t-143 144t-91.5 209.5t-32.5 277.5q0 176 55 318.5t149.5 232.5
t215.5 138t258 48q86 0 157.5 -20.5t113 -41t56.5 -20.5q20 0 33 16t25 48h129l14 -475h-153q-20 83 -46.5 142t-66 103t-95 66t-128.5 22zM526 1573l273 309l96 -22q49 -12 67.5 -32t18.5 -56t-22 -60.5t-66 -46.5l-318 -154z" />
    <glyph glyph-name="cacute" unicode="&#x107;" horiz-adv-x="1038" 
d="M629 922q-124 0 -181 -107.5t-57 -294.5q0 -190 49.5 -282.5t175.5 -92.5q37 0 68.5 12t53 29.5t41.5 46t31.5 51.5t25.5 56l147 -51q-13 -50 -39.5 -98.5t-74.5 -99.5t-128.5 -82.5t-181.5 -31.5q-243 0 -373.5 135.5t-130.5 374.5q0 260 144 411t395 151
q189 0 286 -88.5t97 -219.5q0 -81 -45.5 -132.5t-126.5 -51.5q-73 0 -112.5 45t-39.5 109q0 45 15 88h77q7 24 7 39q0 84 -123 84zM428 1167l135 369l99 27q49 14 86.5 -7t37.5 -69q0 -49 -49 -101l-239 -260z" />
    <glyph glyph-name="Ccircumflex" unicode="&#x108;" horiz-adv-x="1400" 
d="M799 1296q-350 0 -350 -575q0 -294 88 -437t264 -143q149 0 227.5 84.5t124.5 259.5h154l-15 -483h-137q-12 38 -22 54t-29 16q-13 0 -58.5 -23.5t-124 -47.5t-171.5 -24q-117 0 -217 26.5t-184 84.5t-143 144t-91.5 209.5t-32.5 277.5q0 176 55 318.5t149.5 232.5
t215.5 138t258 48q86 0 157.5 -20.5t113 -41t56.5 -20.5q20 0 33 16t25 48h129l14 -475h-153q-20 83 -46.5 142t-66 103t-95 66t-128.5 22zM414 1571l243 278q16 9 50 20t63 11q41 0 67 -17t60 -59l190 -231l-59 -72l-274 160l-279 -160z" />
    <glyph glyph-name="ccircumflex" unicode="&#x109;" horiz-adv-x="1038" 
d="M629 922q-124 0 -181 -107.5t-57 -294.5q0 -190 49.5 -282.5t175.5 -92.5q37 0 68.5 12t53 29.5t41.5 46t31.5 51.5t25.5 56l147 -51q-13 -50 -39.5 -98.5t-74.5 -99.5t-128.5 -82.5t-181.5 -31.5q-243 0 -373.5 135.5t-130.5 374.5q0 260 144 411t395 151
q189 0 286 -88.5t97 -219.5q0 -81 -45.5 -132.5t-126.5 -51.5q-73 0 -112.5 45t-39.5 109q0 45 15 88h77q7 24 7 39q0 84 -123 84zM262 1180l199 329q13 10 50 21.5t67 11.5q43 0 69 -17t51 -61l156 -280l-68 -56l-227 177l-231 -181z" />
    <glyph glyph-name="Cdotaccent" unicode="&#x10a;" horiz-adv-x="1400" 
d="M799 1296q-350 0 -350 -575q0 -294 88 -437t264 -143q149 0 227.5 84.5t124.5 259.5h154l-15 -483h-137q-12 38 -22 54t-29 16q-13 0 -58.5 -23.5t-124 -47.5t-171.5 -24q-117 0 -217 26.5t-184 84.5t-143 144t-91.5 209.5t-32.5 277.5q0 176 55 318.5t149.5 232.5
t215.5 138t258 48q86 0 157.5 -20.5t113 -41t56.5 -20.5q20 0 33 16t25 48h129l14 -475h-153q-20 83 -46.5 142t-66 103t-95 66t-128.5 22zM575 1706q0 74 44.5 121t136.5 47q85 0 131.5 -41.5t46.5 -124.5q0 -79 -44 -124.5t-136 -45.5q-51 0 -87.5 14.5t-55.5 40
t-27.5 53.5t-8.5 60z" />
    <glyph glyph-name="cdotaccent" unicode="&#x10b;" horiz-adv-x="1038" 
d="M629 922q-124 0 -181 -107.5t-57 -294.5q0 -190 49.5 -282.5t175.5 -92.5q37 0 68.5 12t53 29.5t41.5 46t31.5 51.5t25.5 56l147 -51q-13 -50 -39.5 -98.5t-74.5 -99.5t-128.5 -82.5t-181.5 -31.5q-243 0 -373.5 135.5t-130.5 374.5q0 260 144 411t395 151
q189 0 286 -88.5t97 -219.5q0 -81 -45.5 -132.5t-126.5 -51.5q-73 0 -112.5 45t-39.5 109q0 45 15 88h77q7 24 7 39q0 84 -123 84zM389 1327q0 74 44 121t136 47q85 0 132 -41.5t47 -124.5q0 -79 -44.5 -124.5t-136.5 -45.5q-51 0 -87 14.5t-55 40t-27.5 53t-8.5 60.5z" />
    <glyph glyph-name="Ccaron" unicode="&#x10c;" horiz-adv-x="1400" 
d="M799 1296q-350 0 -350 -575q0 -294 88 -437t264 -143q149 0 227.5 84.5t124.5 259.5h154l-15 -483h-137q-12 38 -22 54t-29 16q-13 0 -58.5 -23.5t-124 -47.5t-171.5 -24q-117 0 -217 26.5t-184 84.5t-143 144t-91.5 209.5t-32.5 277.5q0 176 55 318.5t149.5 232.5
t215.5 138t258 48q86 0 157.5 -20.5t113 -41t56.5 -20.5q20 0 33 16t25 48h129l14 -475h-153q-20 83 -46.5 142t-66 103t-95 66t-128.5 22zM1092 1827l-244 -279q-53 -30 -105 -30q-44 0 -73.5 17.5t-61.5 57.5l-190 232l69 76l269 -164l274 159z" />
    <glyph glyph-name="ccaron" unicode="&#x10d;" horiz-adv-x="1038" 
d="M629 922q-124 0 -181 -107.5t-57 -294.5q0 -190 49.5 -282.5t175.5 -92.5q37 0 68.5 12t53 29.5t41.5 46t31.5 51.5t25.5 56l147 -51q-13 -50 -39.5 -98.5t-74.5 -99.5t-128.5 -82.5t-181.5 -31.5q-243 0 -373.5 135.5t-130.5 374.5q0 260 144 411t395 151
q189 0 286 -88.5t97 -219.5q0 -81 -45.5 -132.5t-126.5 -51.5q-73 0 -112.5 45t-39.5 109q0 45 15 88h77q7 24 7 39q0 84 -123 84zM463 1174l-201 331l66 56l233 -179l230 174l65 -53l-160 -280q-45 -78 -129 -78q-30 0 -60.5 9.5t-43.5 19.5z" />
    <glyph glyph-name="Dcaron" unicode="&#x10e;" horiz-adv-x="1509" 
d="M1427 741q0 -741 -878 -741h-490v158l150 14v1092l-150 12v158h547q192 0 339 -37t257 -117.5t167.5 -216t57.5 -322.5zM547 168h49q249 0 360 134t111 427q0 132 -22.5 227t-61.5 154t-102.5 94t-134.5 47.5t-168 12.5h-31v-1096zM995 1827l-243 -279q-52 -30 -105 -30
q-44 0 -73.5 17.5t-61.5 57.5l-190 232l69 76l268 -164l275 159z" />
    <glyph glyph-name="dcaron" unicode="&#x10f;" horiz-adv-x="1458" 
d="M520 1049q168 0 252 -113l4 2v432l-145 16v136l463 14v-1378l129 -15v-143h-410l-20 137h-7q-39 -68 -114 -114t-189 -46q-201 0 -308 135.5t-107 383.5q0 260 117 406.5t335 146.5zM586 135q94 0 145 72t51 186v285q0 103 -52.5 163t-139.5 60q-108 0 -147.5 -93
t-39.5 -298q0 -72 3.5 -123t15 -101.5t31 -81.5t53 -50t80.5 -19zM1227 1053l-64 67q60 50 82.5 89.5t22.5 82.5q0 84 -88 148l45 53q46 57 106 57t93.5 -43t33.5 -108q0 -87 -62 -178t-169 -168z" />
    <glyph glyph-name="Dcroat" unicode="&#x110;" horiz-adv-x="1525" 
d="M47 664v145h178v455l-149 12v158h547q192 0 339 -37t257 -117.5t167.5 -216t57.5 -322.5q0 -741 -879 -741h-489v158l149 14v492h-178zM563 168h49q249 0 360 134t111 427q0 132 -22.5 227t-61.5 154t-102.5 94t-134.5 47.5t-168 12.5h-31v-455h330v-145h-330v-496z" />
    <glyph glyph-name="dcroat" unicode="&#x111;" horiz-adv-x="1263" 
d="M401 1143v135h375v92l-145 16v136l463 14v-258h141v-135h-141v-985l129 -15v-143h-410l-20 137h-7q-39 -68 -114 -114t-189 -46q-201 0 -308 135.5t-107 383.5q0 257 116 394.5t336 137.5q166 0 250 -113l6 3v225h-375zM586 135q94 0 145 72t51 186v264
q0 103 -52.5 163.5t-139.5 60.5q-106 0 -146.5 -92.5t-40.5 -278.5q0 -72 3.5 -123t15 -101.5t31 -81.5t53 -50t80.5 -19z" />
    <glyph glyph-name="Emacron" unicode="&#x112;" horiz-adv-x="1327" 
d="M63 1434h1117l16 -455h-147q-20 95 -47.5 151t-76.5 87t-110 41t-164 10h-114v-467h51q103 0 147 47t68 176h119v-606h-123q-12 78 -27 124t-42 72.5t-61.5 34.5t-93.5 8h-38v-487h110q120 0 195.5 15.5t127.5 58.5t79 108t45 174h145l-16 -526h-1160v154l136 16v1092
l-136 16v156zM373 1591v181h557v-181h-557z" />
    <glyph glyph-name="emacron" unicode="&#x113;" horiz-adv-x="1077" 
d="M55 496q0 -237 133 -378t377 -141q163 0 274.5 79t157.5 225l-145 51q-41 -92 -94 -138.5t-142 -46.5q-54 0 -94.5 17.5t-65.5 46.5t-40.5 73.5t-21.5 92t-7 108.5h614q5 72 5 111q0 226 -119 339.5t-324 113.5q-224 0 -366 -147.5t-142 -405.5zM684 621h-295
q7 305 162 305q77 0 105 -62t28 -207v-36zM279 1223v180h557v-180h-557z" />
    <glyph glyph-name="Ebreve" unicode="&#x114;" horiz-adv-x="1327" 
d="M63 1434h1117l16 -455h-147q-20 95 -47.5 151t-76.5 87t-110 41t-164 10h-114v-467h51q103 0 147 47t68 176h119v-606h-123q-12 78 -27 124t-42 72.5t-61.5 34.5t-93.5 8h-38v-487h110q120 0 195.5 15.5t127.5 58.5t79 108t45 174h145l-16 -526h-1160v154l136 16v1092
l-136 16v156zM348 1829l92 20q27 -72 73.5 -102.5t141.5 -30.5q96 0 143.5 29.5t69.5 99.5l88 -14q-6 -61 -26 -112.5t-56 -95t-94.5 -68.5t-134.5 -25q-75 0 -131.5 25t-90.5 68.5t-52 94.5t-23 111z" />
    <glyph glyph-name="ebreve" unicode="&#x115;" horiz-adv-x="1077" 
d="M55 496q0 258 142 405.5t366 147.5q205 0 324 -113.5t119 -339.5q0 -38 -5 -111h-614q1 -61 7 -108.5t21.5 -92t40.5 -73.5t65.5 -46.5t94.5 -17.5q89 0 142 46.5t94 138.5l145 -51q-46 -146 -157.5 -225t-274.5 -79q-244 0 -377 141t-133 378zM389 621h295v36
q0 145 -28 207t-105 62q-155 0 -162 -305zM254 1475l92 20q29 -81 75 -115t140 -34q93 0 142 34.5t71 110.5l88 -14q-6 -64 -25.5 -118.5t-55.5 -100.5t-95 -72.5t-135 -26.5q-75 0 -131.5 26.5t-90.5 73t-52 100t-23 116.5z" />
    <glyph glyph-name="Edotaccent" unicode="&#x116;" horiz-adv-x="1327" 
d="M63 1434h1117l16 -455h-147q-20 95 -47.5 151t-76.5 87t-110 41t-164 10h-114v-467h51q103 0 147 47t68 176h119v-606h-123q-12 78 -27 124t-42 72.5t-61.5 34.5t-93.5 8h-38v-487h110q120 0 195.5 15.5t127.5 58.5t79 108t45 174h145l-16 -526h-1160v154l136 16v1092
l-136 16v156zM473 1706q0 74 44 121t136 47q85 0 131.5 -41.5t46.5 -124.5q0 -79 -44 -124.5t-136 -45.5q-51 0 -87 14.5t-55 40t-27.5 53t-8.5 60.5z" />
    <glyph glyph-name="edotaccent" unicode="&#x117;" horiz-adv-x="1077" 
d="M55 496q0 258 142 405.5t366 147.5q205 0 324 -113.5t119 -339.5q0 -38 -5 -111h-614q1 -61 7 -108.5t21.5 -92t40.5 -73.5t65.5 -46.5t94.5 -17.5q89 0 142 46.5t94 138.5l145 -51q-46 -146 -157.5 -225t-274.5 -79q-244 0 -377 141t-133 378zM389 621h295v36
q0 145 -28 207t-105 62q-155 0 -162 -305zM379 1327q0 74 44 121t136 47q85 0 131.5 -41.5t46.5 -124.5q0 -79 -44 -124.5t-136 -45.5q-51 0 -87 14.5t-55 40t-27.5 53t-8.5 60.5z" />
    <glyph glyph-name="Eogonek" unicode="&#x118;" horiz-adv-x="1327" 
d="M63 1434h1117l16 -455h-147q-20 95 -47.5 151t-76.5 87t-110 41t-164 10h-114v-467h51q103 0 147 47t68 176h119v-606h-123q-12 78 -27 124t-42 72.5t-61.5 34.5t-93.5 8h-38v-487h110q120 0 195.5 15.5t127.5 58.5t79 108t45 174h145l-16 -526q-86 -9 -153.5 -37.5
t-105 -67t-56.5 -78.5t-19 -79q0 -84 76 -84q24 0 45 12.5t32.5 25.5t30.5 38l80 -49q-84 -168 -266 -168q-102 0 -159.5 49t-57.5 137q0 93 63.5 163t200.5 138h-871v154l136 16v1092l-136 16v156z" />
    <glyph glyph-name="eogonek" unicode="&#x119;" horiz-adv-x="1077" 
d="M55 496q0 258 142 405.5t366 147.5q205 0 324 -113.5t119 -339.5q0 -38 -5 -111h-614q1 -61 7 -108.5t21.5 -92t40.5 -73.5t65.5 -46.5t94.5 -17.5q89 0 142 46.5t94 138.5l145 -51q-30 -95 -86 -157.5t-151 -125.5q-185 -126 -185 -260q0 -84 76 -84q24 0 45 12t33 25.5
t31 38.5l80 -49q-84 -168 -267 -168q-102 0 -159.5 49t-57.5 137q0 82 54 145.5t159 130.5q-242 0 -378 143.5t-136 377.5zM389 621h295v36q0 145 -28 207t-105 62q-155 0 -162 -305z" />
    <glyph glyph-name="Ecaron" unicode="&#x11a;" horiz-adv-x="1327" 
d="M63 1434h1117l16 -455h-147q-20 95 -47.5 151t-76.5 87t-110 41t-164 10h-114v-467h51q103 0 147 47t68 176h119v-606h-123q-12 78 -27 124t-42 72.5t-61.5 34.5t-93.5 8h-38v-487h110q120 0 195.5 15.5t127.5 58.5t79 108t45 174h145l-16 -526h-1160v154l136 16v1092
l-136 16v156zM989 1827l-244 -279q-52 -30 -104 -30q-44 0 -73.5 17.5t-61.5 57.5l-191 232l70 76l268 -164l275 159z" />
    <glyph glyph-name="ecaron" unicode="&#x11b;" horiz-adv-x="1077" 
d="M55 496q0 258 142 405.5t366 147.5q205 0 324 -113.5t119 -339.5q0 -38 -5 -111h-614q1 -61 7 -108.5t21.5 -92t40.5 -73.5t65.5 -46.5t94.5 -17.5q89 0 142 46.5t94 138.5l145 -51q-46 -146 -157.5 -225t-274.5 -79q-244 0 -377 141t-133 378zM389 621h295v36
q0 145 -28 207t-105 62q-155 0 -162 -305zM457 1174l-201 331l66 56l233 -179l229 174l66 -53l-160 -280q-45 -78 -129 -78q-30 0 -60.5 9.5t-43.5 19.5z" />
    <glyph glyph-name="Gcircumflex" unicode="&#x11c;" horiz-adv-x="1513" 
d="M801 1296q-359 0 -359 -577q0 -129 16.5 -228t53.5 -179t103.5 -122.5t160.5 -42.5q77 0 143 39t101 101v221l-176 16v156h629v-156l-130 -14v-514h-161q-13 37 -29 57.5t-45 20.5q-21 0 -58 -15t-76 -33.5t-106 -33.5t-141 -15q-151 0 -268.5 43t-203.5 130.5
t-131.5 228.5t-45.5 330q0 181 53.5 325t148 235.5t220 139t272.5 47.5q82 0 150.5 -19.5t112.5 -39t67 -19.5q21 0 33 14t24 46h141l15 -475h-154q-46 181 -129 257t-231 76zM434 1571l244 278q16 9 50 20t63 11q41 0 67 -17t60 -59l190 -231l-59 -72l-275 160l-278 -160z
" />
    <glyph glyph-name="gcircumflex" unicode="&#x11d;" horiz-adv-x="1085" 
d="M63 670q0 -111 51 -189.5t138 -113.5q-120 -94 -160.5 -147t-40.5 -124q0 -96 94 -143q-106 -78 -106 -174q0 -72 41 -117t143 -69.5t273 -24.5q154 0 265 24t177.5 70.5t97.5 109t31 144.5q0 85 -30 143.5t-86.5 90t-125 44.5t-159.5 13h-267q-49 0 -69.5 9t-20.5 34
q0 20 11.5 37t39.5 45q78 -21 156 -21q198 0 317 95t119 272q0 162 -116 252l188 18v191q-37 16 -74 16q-63 0 -121.5 -41t-91.5 -123q-81 58 -237 58q-198 0 -317.5 -103t-119.5 -276zM260 -84h395q97 0 139 -17t42 -71q0 -67 -75.5 -93t-238.5 -26q-166 0 -230.5 24
t-64.5 87q0 43 33 96zM375 692q0 240 139 240q72 0 100.5 -54.5t28.5 -181.5q0 -134 -29.5 -190.5t-101.5 -56.5q-77 0 -107 55.5t-30 187.5zM217 1180l199 329q13 10 49.5 21.5t66.5 11.5q44 0 70 -17t51 -61l156 -280l-68 -56l-227 177l-231 -181z" />
    <glyph glyph-name="Gbreve" unicode="&#x11e;" horiz-adv-x="1513" 
d="M801 1296q-359 0 -359 -577q0 -129 16.5 -228t53.5 -179t103.5 -122.5t160.5 -42.5q77 0 143 39t101 101v221l-176 16v156h629v-156l-130 -14v-514h-161q-13 37 -29 57.5t-45 20.5q-21 0 -58 -15t-76 -33.5t-106 -33.5t-141 -15q-151 0 -268.5 43t-203.5 130.5
t-131.5 228.5t-45.5 330q0 181 53.5 325t148 235.5t220 139t272.5 47.5q82 0 150.5 -19.5t112.5 -39t67 -19.5q21 0 33 14t24 46h141l15 -475h-154q-46 181 -129 257t-231 76zM471 1829l92 20q27 -72 73.5 -102.5t141.5 -30.5q96 0 143.5 29.5t69.5 99.5l88 -14
q-6 -61 -26 -112.5t-56 -95t-94.5 -68.5t-134.5 -25q-75 0 -131.5 25t-90.5 68.5t-52 94.5t-23 111z" />
    <glyph glyph-name="gbreve" unicode="&#x11f;" horiz-adv-x="1085" 
d="M63 670q0 173 119.5 276t317.5 103q156 0 237 -58q33 82 91.5 123t121.5 41q37 0 74 -16v-191l-188 -18q116 -90 116 -252q0 -177 -119 -272t-317 -95q-78 0 -156 21q-28 -28 -39.5 -45t-11.5 -37q0 -25 20.5 -34t69.5 -9h267q91 0 159.5 -13t125 -44.5t86.5 -90
t30 -143.5q0 -82 -31 -144.5t-97.5 -109t-177.5 -70.5t-265 -24q-171 0 -273 24.5t-143 69.5t-41 117q0 96 106 174q-94 47 -94 143q0 71 40.5 124t160.5 147q-87 35 -138 113.5t-51 189.5zM655 -84h-395q-33 -53 -33 -96q0 -63 64.5 -87t230.5 -24q163 0 238.5 26t75.5 93
q0 54 -42 71t-139 17zM375 692q0 -132 30 -187.5t107 -55.5q72 0 101.5 56.5t29.5 190.5q0 127 -28.5 181.5t-100.5 54.5q-139 0 -139 -240zM207 1475l92 20q29 -81 75 -115t140 -34q93 0 142 34.5t71 110.5l88 -14q-6 -64 -25.5 -118.5t-55.5 -100.5t-95 -72.5t-135 -26.5
q-75 0 -131.5 26.5t-90.5 73t-52 100t-23 116.5z" />
    <glyph glyph-name="Gdotaccent" unicode="&#x120;" horiz-adv-x="1513" 
d="M801 1296q-359 0 -359 -577q0 -129 16.5 -228t53.5 -179t103.5 -122.5t160.5 -42.5q77 0 143 39t101 101v221l-176 16v156h629v-156l-130 -14v-514h-161q-13 37 -29 57.5t-45 20.5q-21 0 -58 -15t-76 -33.5t-106 -33.5t-141 -15q-151 0 -268.5 43t-203.5 130.5
t-131.5 228.5t-45.5 330q0 181 53.5 325t148 235.5t220 139t272.5 47.5q82 0 150.5 -19.5t112.5 -39t67 -19.5q21 0 33 14t24 46h141l15 -475h-154q-46 181 -129 257t-231 76zM596 1706q0 74 44 121t136 47q85 0 131.5 -41.5t46.5 -124.5q0 -79 -44 -124.5t-136 -45.5
q-51 0 -87 14.5t-55 40t-27.5 53t-8.5 60.5z" />
    <glyph glyph-name="gdotaccent" unicode="&#x121;" horiz-adv-x="1085" 
d="M63 670q0 173 119.5 276t317.5 103q156 0 237 -58q33 82 91.5 123t121.5 41q37 0 74 -16v-191l-188 -18q116 -90 116 -252q0 -177 -119 -272t-317 -95q-78 0 -156 21q-28 -28 -39.5 -45t-11.5 -37q0 -25 20.5 -34t69.5 -9h267q91 0 159.5 -13t125 -44.5t86.5 -90
t30 -143.5q0 -82 -31 -144.5t-97.5 -109t-177.5 -70.5t-265 -24q-171 0 -273 24.5t-143 69.5t-41 117q0 96 106 174q-94 47 -94 143q0 71 40.5 124t160.5 147q-87 35 -138 113.5t-51 189.5zM655 -84h-395q-33 -53 -33 -96q0 -63 64.5 -87t230.5 -24q163 0 238.5 26t75.5 93
q0 54 -42 71t-139 17zM375 692q0 -132 30 -187.5t107 -55.5q72 0 101.5 56.5t29.5 190.5q0 127 -28.5 181.5t-100.5 54.5q-139 0 -139 -240zM332 1327q0 74 44 121t136 47q85 0 131.5 -41.5t46.5 -124.5q0 -79 -44 -124.5t-136 -45.5q-51 0 -87 14.5t-55 40t-27.5 53
t-8.5 60.5z" />
    <glyph glyph-name="Gcommaaccent" unicode="&#x122;" horiz-adv-x="1513" 
d="M801 1296q-359 0 -359 -577q0 -129 16.5 -228t53.5 -179t103.5 -122.5t160.5 -42.5q77 0 143 39t101 101v221l-176 16v156h629v-156l-130 -14v-514h-161q-13 37 -29 57.5t-45 20.5q-21 0 -58 -15t-76 -33.5t-106 -33.5t-141 -15q-151 0 -268.5 43t-203.5 130.5
t-131.5 228.5t-45.5 330q0 181 53.5 325t148 235.5t220 139t272.5 47.5q82 0 150.5 -19.5t112.5 -39t67 -19.5q21 0 33 14t24 46h141l15 -475h-154q-46 181 -129 257t-231 76zM711 -588l-47 60q65 53 93.5 93.5t28.5 82.5q0 43 -32 53l-60 -59q-36 12 -63 42t-27 72
q0 59 42.5 95t103.5 36q78 0 117.5 -51t39.5 -123q0 -91 -46.5 -162t-149.5 -139z" />
    <glyph glyph-name="gcommaaccent" unicode="&#x123;" horiz-adv-x="1085" 
d="M63 670q0 173 119.5 276t317.5 103q156 0 237 -58q33 82 91.5 123t121.5 41q37 0 74 -16v-191l-188 -18q116 -90 116 -252q0 -177 -119 -272t-317 -95q-78 0 -156 21q-28 -28 -39.5 -45t-11.5 -37q0 -25 20.5 -34t69.5 -9h267q91 0 159.5 -13t125 -44.5t86.5 -90
t30 -143.5q0 -82 -31 -144.5t-97.5 -109t-177.5 -70.5t-265 -24q-171 0 -273 24.5t-143 69.5t-41 117q0 96 106 174q-94 47 -94 143q0 71 40.5 124t160.5 147q-87 35 -138 113.5t-51 189.5zM655 -84h-395q-33 -53 -33 -96q0 -63 64.5 -87t230.5 -24q163 0 238.5 26t75.5 93
q0 54 -42 71t-139 17zM375 692q0 -132 30 -187.5t107 -55.5q72 0 101.5 56.5t29.5 190.5q0 127 -28.5 181.5t-100.5 54.5q-139 0 -139 -240zM422 1567l47 57q103 -66 150 -136.5t47 -162.5q0 -71 -40 -122.5t-118 -51.5q-61 0 -102 35.5t-41 95.5q0 41 26.5 72t61.5 43
l59 -62q33 13 33 56t-28.5 83t-94.5 93z" />
    <glyph glyph-name="Hcircumflex" unicode="&#x124;" horiz-adv-x="1572" 
d="M537 1264v-449h499v447l-133 14v158h606v-156l-135 -14v-1092l135 -16v-156h-606v156l133 16v465h-499v-465l135 -16v-156h-609v156l136 16v1090l-136 14v158h609v-156zM446 1571l244 278q16 9 50 20t63 11q41 0 67 -17t60 -59l190 -231l-59 -72l-275 160l-278 -160z" />
    <glyph glyph-name="hcircumflex" unicode="&#x125;" horiz-adv-x="1312" 
d="M51 1522l451 14v-543l-8 -129h12q32 56 68.5 94t101 64.5t149.5 26.5q156 0 237 -79.5t81 -254.5v-557l129 -15v-143h-543v143l96 15v516q0 47 -4 76.5t-17 56t-39.5 39t-68.5 12.5q-88 0 -141 -57.5t-53 -179.5v-463l104 -15v-143h-555v143l133 15v1208l-133 14v142z
M-49 1657l244 278q16 9 49.5 20t62.5 11q41 0 67 -17t60 -59l191 -231l-60 -72l-274 160l-279 -160z" />
    <glyph glyph-name="Hbar" unicode="&#x126;" horiz-adv-x="1572" 
d="M537 1264v-142h499v140l-133 14v158h606v-156l-135 -14v-142h158v-141h-158v-809l135 -16v-156h-606v156l133 16v465h-499v-465l135 -16v-156h-609v156l136 16v809h-158v141h158v140l-136 14v158h609v-156zM537 815h499v166h-499v-166z" />
    <glyph glyph-name="hbar" unicode="&#x127;" horiz-adv-x="1312" 
d="M51 1522l451 14v-258h370v-135h-370v-170l-8 -129h12q23 41 49.5 72t64 57.5t89.5 40.5t116 14q156 0 237 -79.5t81 -254.5v-536l129 -15v-143h-543v143l96 15v495q0 47 -4 76.5t-17 56.5t-39.5 39.5t-68.5 12.5q-88 0 -141 -58t-53 -180v-442l104 -15v-143h-555v143
l133 15v985h-151v135h151v88l-133 14v142z" />
    <glyph glyph-name="Itilde" unicode="&#x128;" horiz-adv-x="735" 
d="M199 170v1092l-136 14v158h609v-156l-135 -14v-1092l135 -16v-156h-609v156zM508 1548q-74 0 -182 47q-82 33 -121 33q-30 0 -53.5 -19t-45.5 -71l-69 23q34 132 85.5 190.5t139.5 58.5q16 0 30 -1t28.5 -4t23.5 -5t24.5 -8t21.5 -8.5t24 -10.5t24 -10q77 -30 121 -30
q36 0 57.5 18t42.5 70l68 -21q-52 -252 -219 -252z" />
    <glyph glyph-name="itilde" unicode="&#x129;" horiz-adv-x="692" 
d="M49 1014l467 16v-874l156 -15v-141h-627v141l154 15v706l-150 15v137zM430 1190q-74 0 -182 47q-82 33 -121 33q-29 0 -52.5 -19t-45.5 -71l-70 22q35 132 86.5 191t138.5 59q16 0 30 -1t28.5 -4t23.5 -5t24.5 -8t21.5 -8.5t24 -10.5t24 -10q79 -31 121 -31q36 0 58 18.5
t43 69.5l67 -20q-52 -252 -219 -252z" />
    <glyph glyph-name="Imacron" unicode="&#x12a;" horiz-adv-x="735" 
d="M199 170v1092l-136 14v158h609v-156l-135 -14v-1092l135 -16v-156h-609v156zM88 1591v181h557v-181h-557z" />
    <glyph glyph-name="imacron" unicode="&#x12b;" horiz-adv-x="692" 
d="M49 1014l467 16v-874l156 -15v-141h-627v141l154 15v706l-150 15v137zM14 1223v180h557v-180h-557z" />
    <glyph glyph-name="Ibreve" unicode="&#x12c;" horiz-adv-x="735" 
d="M199 170v1092l-136 14v158h609v-156l-135 -14v-1092l135 -16v-156h-609v156zM63 1829l93 20q27 -72 73.5 -102.5t141.5 -30.5q96 0 143.5 29.5t69.5 99.5l88 -14q-6 -61 -26 -112.5t-56 -95t-95 -68.5t-135 -25q-75 0 -131.5 25t-90.5 68.5t-52 94.5t-23 111z" />
    <glyph glyph-name="ibreve" unicode="&#x12d;" horiz-adv-x="692" 
d="M49 1014l467 16v-874l156 -15v-141h-627v141l154 15v706l-150 15v137zM-2 1475l92 20q29 -81 75 -115t140 -34q93 0 142 34.5t71 110.5l88 -14q-6 -64 -25.5 -118.5t-55.5 -100.5t-95 -72.5t-135 -26.5q-75 0 -131.5 26.5t-90.5 73t-52 100t-23 116.5z" />
    <glyph glyph-name="Iogonek" unicode="&#x12e;" horiz-adv-x="735" 
d="M199 170v1092l-136 14v158h609v-156l-135 -14v-1092l135 -16v-156h-189q-157 -145 -157 -262q0 -84 75 -84q24 0 45 12t33 25.5t31 38.5l80 -49q-84 -168 -266 -168q-102 0 -160 49.5t-58 136.5q0 86 62.5 159t165.5 142h-271v156z" />
    <glyph glyph-name="iogonek" unicode="&#x12f;" horiz-adv-x="692" 
d="M49 1014l467 16v-874l156 -15v-141h-191q-157 -145 -157 -262q0 -84 75 -84q24 0 45 12t33 25.5t31 38.5l80 -49q-84 -168 -266 -168q-102 0 -160 49.5t-58 136.5q0 86 62.5 159t165.5 142h-287v141l154 15v706l-150 15v137zM137 1339q0 79 48 130t147 51q90 0 139 -45
t49 -134q0 -82 -47.5 -131t-144.5 -49q-103 0 -147 52t-44 126z" />
    <glyph glyph-name="Idotaccent" unicode="&#x130;" horiz-adv-x="735" 
d="M199 170v1092l-136 14v158h609v-156l-135 -14v-1092l135 -16v-156h-609v156zM188 1706q0 74 44.5 121t136.5 47q85 0 131.5 -41.5t46.5 -124.5q0 -79 -44 -124.5t-136 -45.5q-51 0 -87.5 14.5t-55.5 40t-27.5 53.5t-8.5 60z" />
    <glyph glyph-name="dotlessi" unicode="&#x131;" horiz-adv-x="692" 
d="M49 1014l467 16v-874l156 -15v-141h-627v141l154 15v706l-150 15v137z" />
    <glyph glyph-name="IJ" unicode="&#x132;" horiz-adv-x="1804" 
d="M199 170v1092l-136 14v158h609v-156l-135 -14v-1092l135 -16v-156h-609v156zM1120 1434h641v-156l-131 -12v-803q0 -244 -128.5 -365t-350.5 -121q-182 0 -278.5 74t-96.5 195q0 93 50 142.5t124 49.5q73 0 114.5 -38t41.5 -107q0 -37 -16 -90h-64q-6 -15 -6 -31
q0 -31 31 -50.5t84 -19.5q91 0 124 52t33 178v932l-172 14v156z" />
    <glyph glyph-name="Jcircumflex" unicode="&#x134;" horiz-adv-x="1069" 
d="M385 1434h641v-156l-131 -12v-803q0 -244 -128.5 -365t-350.5 -121q-182 0 -278.5 74t-96.5 195q0 93 50 142.5t124 49.5q73 0 114.5 -38t41.5 -107q0 -34 -17 -90h-63q-6 -15 -6 -31q0 -31 30.5 -50.5t83.5 -19.5q91 0 124.5 52t33.5 178v932l-172 14v156zM373 1571
l243 278q16 9 50 20t63 11q41 0 67 -17t60 -59l191 -231l-60 -72l-274 160l-279 -160z" />
    <glyph glyph-name="jcircumflex" unicode="&#x135;" horiz-adv-x="671" 
d="M63 -326q79 0 105.5 70t26.5 223v895l-152 15v137l469 16v-831q0 -108 -13.5 -199t-46.5 -172.5t-83.5 -137.5t-128.5 -89t-179 -33q-148 0 -227.5 61t-79.5 150q0 77 46.5 123.5t119.5 46.5q71 0 109.5 -36t38.5 -99q0 -4 -5 -39l-71 -15q-8 -16 -8 -34q0 -52 79 -52z
M2 1180l199 329q13 10 49.5 21.5t66.5 11.5q44 0 70 -17t51 -61l156 -280l-68 -56l-227 177l-231 -181z" />
    <glyph glyph-name="Kcommaaccent" unicode="&#x136;" horiz-adv-x="1454" 
d="M74 1434h590v-156l-127 -14v-488l81 21l424 467l-122 14v156h430v-156l-113 -14l-375 -414l453 -682l108 -14v-154h-622v154l129 14l-316 487l-77 -20v-465l127 -14v-156h-590v156l125 14v1094l-125 14v156zM655 -588l-47 60q66 54 94.5 94t28.5 82q0 43 -33 53l-59 -59
q-36 12 -63 42t-27 72q0 60 42 95.5t103 35.5q78 0 118 -51.5t40 -122.5q0 -91 -47 -161.5t-150 -139.5z" />
    <glyph glyph-name="kcommaaccent" unicode="&#x137;" horiz-adv-x="1296" 
d="M55 1522l447 14v-1380l102 -15v-141h-551v141l131 15v1212l-129 14v140zM795 635l376 -479l99 -13v-143h-553v141l90 11v10l-293 373v38l352 297v13l-127 8v135h475v-139l-145 -15zM563 -588l-47 60q66 54 94.5 94t28.5 82q0 43 -33 53l-59 -59q-36 12 -63 42t-27 72
q0 60 42 95.5t103 35.5q78 0 118 -51.5t40 -122.5q0 -91 -47 -161.5t-150 -139.5z" />
    <glyph glyph-name="kgreenlandic" unicode="&#x138;" horiz-adv-x="1296" 
d="M55 1020l447 14v-878l102 -15v-141h-551v141l131 15v710l-129 15v139zM795 635l376 -479l99 -13v-143h-553v141l90 11v10l-293 373v38l352 297v13l-127 8v135h475v-139l-145 -15z" />
    <glyph glyph-name="Lacute" unicode="&#x139;" horiz-adv-x="1257" 
d="M63 1434h650v-156l-176 -18v-1090h92q100 0 166 15t119 56.5t85 115.5t50 190h147l-18 -547h-1115v156l136 16v1088l-136 16v158zM160 1573l272 309l96 -22q49 -12 67.5 -32t18.5 -56t-22 -60.5t-66 -46.5l-317 -154z" />
    <glyph glyph-name="lacute" unicode="&#x13a;" horiz-adv-x="684" 
d="M51 1520l455 16v-1380l141 -15v-141h-596v141l137 15v1212l-137 14v138zM100 1669l273 309l96 -22q49 -12 67.5 -32t18.5 -56t-22 -60.5t-66 -46.5l-317 -153z" />
    <glyph glyph-name="Lcommaaccent" unicode="&#x13b;" horiz-adv-x="1257" 
d="M63 1434h650v-156l-176 -18v-1090h92q100 0 166 15t119 56.5t85 115.5t50 190h147l-18 -547h-1115v156l136 16v1088l-136 16v158zM584 -588l-47 60q65 53 93.5 93.5t28.5 82.5q0 43 -32 53l-60 -59q-36 12 -63 42t-27 72q0 59 42.5 95t103.5 36q78 0 117.5 -51t39.5 -123
q0 -91 -46.5 -162t-149.5 -139z" />
    <glyph glyph-name="lcommaaccent" unicode="&#x13c;" horiz-adv-x="684" 
d="M51 1520l455 16v-1380l141 -15v-141h-596v141l137 15v1212l-137 14v138zM297 -588l-47 60q66 54 94.5 94t28.5 82q0 43 -33 53l-59 -59q-36 12 -63.5 42t-27.5 72q0 59 42.5 95t103.5 36q78 0 118 -51.5t40 -122.5q0 -91 -47 -161.5t-150 -139.5z" />
    <glyph glyph-name="Lcaron" unicode="&#x13d;" horiz-adv-x="1257" 
d="M63 1434h650v-156l-176 -18v-1090h92q100 0 166 15t119 56.5t85 115.5t50 190h147l-18 -547h-1115v156l136 16v1088l-136 16v158zM918 954l-64 68q59 50 81.5 89.5t22.5 82.5q0 83 -88 147l45 54q46 57 107 57q60 0 93.5 -43.5t33.5 -108.5q0 -87 -62 -178t-169 -168z
" />
    <glyph glyph-name="lcaron" unicode="&#x13e;" horiz-adv-x="870" 
d="M51 1520l455 16v-1380l141 -15v-141h-596v141l137 15v1212l-137 14v138zM639 1042l-64 68q60 50 82.5 89.5t22.5 82.5q0 84 -88 148l45 53q46 57 106 57t93.5 -43t33.5 -108q0 -87 -62 -178.5t-169 -168.5z" />
    <glyph glyph-name="Ldot" unicode="&#x13f;" horiz-adv-x="1257" 
d="M63 1434h650v-156l-176 -18v-1090h92q100 0 166 15t119 56.5t85 115.5t50 190h147l-18 -547h-1115v156l136 16v1088l-136 16v158zM807 807q0 -33 8.5 -60.5t27.5 -53t55 -40t87 -14.5q92 0 136 45.5t44 124.5q0 83 -46.5 124.5t-131.5 41.5q-92 0 -136 -47t-44 -121z" />
    <glyph glyph-name="ldot" unicode="&#x140;" horiz-adv-x="821" 
d="M51 1520l455 16v-1380l141 -15v-141h-596v141l137 15v1212l-137 14v138zM575 838q0 -32 8.5 -60t27.5 -53.5t55.5 -40t87.5 -14.5q92 0 136 45.5t44 124.5q0 83 -46.5 124.5t-131.5 41.5q-92 0 -136.5 -47t-44.5 -121z" />
    <glyph glyph-name="Lslash" unicode="&#x141;" horiz-adv-x="1257" 
d="M63 1434h650v-156l-176 -18v-390l315 172l37 -151l-352 -193v-528h92q100 0 166 15t119 56.5t85 115.5t50 190h147l-18 -547h-1115v156l136 16v367l-152 -82l-37 149l189 103v551l-136 16v158z" />
    <glyph glyph-name="lslash" unicode="&#x142;" horiz-adv-x="696" 
d="M51 1520l455 16v-571l143 75l37 -151l-180 -94v-639l141 -15v-141h-596v141l137 15v491l-155 -84l-33 152l188 102v551l-137 14v138z" />
    <glyph glyph-name="Nacute" unicode="&#x143;" horiz-adv-x="1505" 
d="M1325 1262v-1262h-272l-660 1133h-8v-965l141 -12v-156h-448v156l121 12v1094l-121 14v158h540l512 -920h9v748l-127 14v158h432v-158zM543 1573l272 309l96 -22q49 -12 67.5 -32t18.5 -56t-22 -60.5t-66 -46.5l-317 -154z" />
    <glyph glyph-name="nacute" unicode="&#x144;" horiz-adv-x="1314" 
d="M59 1020l396 14l14 -194h12q21 44 47 77.5t66.5 65t99.5 49t133 17.5q157 0 237.5 -79.5t80.5 -254.5v-557l129 -15v-143h-543v143l96 15v516q0 95 -24.5 139.5t-102.5 44.5q-89 0 -142.5 -56.5t-53.5 -174.5v-469l104 -15v-143h-549v143l127 15v706l-127 15v141z
M578 1167l135 369l98 27q49 14 87 -7t38 -69q0 -49 -49 -101l-240 -260z" />
    <glyph glyph-name="Ncommaaccent" unicode="&#x145;" horiz-adv-x="1505" 
d="M1325 1262v-1262h-272l-660 1133h-8v-965l141 -12v-156h-448v156l121 12v1094l-121 14v158h540l512 -920h9v748l-127 14v158h432v-158zM707 -588l-48 60q66 54 94.5 94t28.5 82q0 43 -32 53l-60 -59q-36 12 -63 42t-27 72q0 60 42 95.5t103 35.5q78 0 118 -51.5
t40 -122.5q0 -91 -46.5 -162t-149.5 -139z" />
    <glyph glyph-name="ncommaaccent" unicode="&#x146;" horiz-adv-x="1314" 
d="M59 1020l396 14l14 -194h12q21 44 47 77.5t66.5 65t99.5 49t133 17.5q157 0 237.5 -79.5t80.5 -254.5v-557l129 -15v-143h-543v143l96 15v516q0 95 -24.5 139.5t-102.5 44.5q-89 0 -142.5 -56.5t-53.5 -174.5v-469l104 -15v-143h-549v143l127 15v706l-127 15v141z
M612 -588l-47 60q66 54 94.5 94t28.5 82q0 43 -33 53l-59 -59q-36 12 -63 42t-27 72q0 60 42 95.5t103 35.5q78 0 118 -51.5t40 -122.5q0 -91 -47 -161.5t-150 -139.5z" />
    <glyph glyph-name="Ncaron" unicode="&#x147;" horiz-adv-x="1505" 
d="M1325 1262v-1262h-272l-660 1133h-8v-965l141 -12v-156h-448v156l121 12v1094l-121 14v158h540l512 -920h9v748l-127 14v158h432v-158zM1108 1827l-244 -279q-52 -30 -104 -30q-44 0 -73.5 17.5t-61.5 57.5l-191 232l70 76l268 -164l275 159z" />
    <glyph glyph-name="ncaron" unicode="&#x148;" horiz-adv-x="1314" 
d="M59 1020l396 14l14 -194h12q21 44 47 77.5t66.5 65t99.5 49t133 17.5q157 0 237.5 -79.5t80.5 -254.5v-557l129 -15v-143h-543v143l96 15v516q0 95 -24.5 139.5t-102.5 44.5q-89 0 -142.5 -56.5t-53.5 -174.5v-469l104 -15v-143h-549v143l127 15v706l-127 15v141z
M586 1174l-201 331l66 56l233 -179l229 174l66 -53l-160 -280q-45 -78 -129 -78q-30 0 -60.5 9.5t-43.5 19.5z" />
    <glyph glyph-name="napostrophe" unicode="&#x149;" horiz-adv-x="1380" 
d="M125 1020l395 14l15 -194h12q21 44 47 77.5t66.5 65t99.5 49t133 17.5q157 0 237 -79.5t80 -254.5v-557l129 -15v-143h-542v143l96 15v516q0 95 -24.5 139.5t-102.5 44.5q-89 0 -143 -56.5t-54 -174.5v-469l105 -15v-143h-549v143l127 15v706l-127 15v141zM-6 991l-47 60
q66 54 94.5 94t28.5 82q0 43 -33 53l-60 -59q-36 12 -63 42t-27 72q0 59 42.5 95t103.5 36q78 0 117.5 -51t39.5 -123q0 -91 -46.5 -162t-149.5 -139z" />
    <glyph glyph-name="Eng" unicode="&#x14a;" horiz-adv-x="1505" 
d="M1325 1262v-1282q0 -244 -112.5 -365t-305.5 -121q-183 0 -279 74t-96 194q0 93 50.5 143t124.5 50q72 0 113.5 -38t41.5 -107q0 -38 -16 -91h-64q-6 -15 -6 -30q0 -31 31 -50.5t84 -19.5q91 0 124.5 52t33.5 177v158l-656 1127h-8v-965l141 -12v-156h-448v156l121 12
v1094l-121 14v158h540l512 -920h9v748l-127 14v158h432v-158z" />
    <glyph glyph-name="eng" unicode="&#x14b;" horiz-adv-x="1314" 
d="M696 -387q79 0 105 70t26 223v768q0 94 -25.5 139t-101.5 45q-89 0 -142.5 -56.5t-53.5 -174.5v-469l104 -15v-143h-549v143l127 15v706l-127 15v141l396 14l14 -194h12q21 44 47 77.5t66.5 65t99.5 49t133 17.5q157 0 237.5 -79.5t80.5 -254.5v-578q0 -108 -13.5 -199
t-46.5 -172.5t-83.5 -137.5t-128.5 -89t-179 -33q-148 0 -227.5 61t-79.5 150q0 77 46.5 123.5t119.5 46.5q71 0 109 -36t38 -99q0 -11 -4 -39l-71 -14q-9 -18 -9 -35q0 -51 80 -51z" />
    <glyph glyph-name="Omacron" unicode="&#x14c;" horiz-adv-x="1505" 
d="M1061 723q0 114 -7 197t-26 160t-52.5 125t-88 76t-129.5 28q-78 0 -135 -28t-91.5 -76.5t-55 -126t-27.5 -162.5t-7 -201q0 -89 5 -159t17 -139.5t35 -119.5t57 -89.5t84.5 -59t115.5 -19.5q63 0 111.5 18.5t81.5 56t55.5 87t34.5 119.5t17 143.5t5 169.5zM78 713
q0 341 184 542t506 201q319 0 489 -190t170 -535q0 -358 -168.5 -556t-506.5 -198t-506 188.5t-168 547.5zM489 1591v181h558v-181h-558z" />
    <glyph glyph-name="omacron" unicode="&#x14d;" horiz-adv-x="1159" 
d="M768 508q0 87 -4 147t-16 114.5t-33 86t-55 50t-82 18.5q-57 0 -94 -26t-57 -81t-28 -124t-8 -171q0 -87 4.5 -149t17 -115.5t34.5 -85.5t55.5 -50t81.5 -18q55 0 91.5 26t56.5 80.5t28 124.5t8 173zM55 508q0 246 139 393.5t394 147.5q134 0 234.5 -39t161.5 -111.5
t90.5 -168t29.5 -214.5q0 -247 -136 -393t-393 -146q-261 0 -390.5 143.5t-129.5 387.5zM301 1223v180h557v-180h-557z" />
    <glyph glyph-name="Obreve" unicode="&#x14e;" horiz-adv-x="1505" 
d="M1061 723q0 114 -7 197t-26 160t-52.5 125t-88 76t-129.5 28q-78 0 -135 -28t-91.5 -76.5t-55 -126t-27.5 -162.5t-7 -201q0 -89 5 -159t17 -139.5t35 -119.5t57 -89.5t84.5 -59t115.5 -19.5q63 0 111.5 18.5t81.5 56t55.5 87t34.5 119.5t17 143.5t5 169.5zM78 713
q0 341 184 542t506 201q319 0 489 -190t170 -535q0 -358 -168.5 -556t-506.5 -198t-506 188.5t-168 547.5zM465 1829l92 20q27 -72 73.5 -102.5t141.5 -30.5q96 0 143.5 29.5t69.5 99.5l88 -14q-6 -61 -26 -112.5t-56 -95t-94.5 -68.5t-134.5 -25q-75 0 -131.5 25
t-90.5 68.5t-52 94.5t-23 111z" />
    <glyph glyph-name="obreve" unicode="&#x14f;" horiz-adv-x="1159" 
d="M768 508q0 87 -4 147t-16 114.5t-33 86t-55 50t-82 18.5q-57 0 -94 -26t-57 -81t-28 -124t-8 -171q0 -87 4.5 -149t17 -115.5t34.5 -85.5t55.5 -50t81.5 -18q55 0 91.5 26t56.5 80.5t28 124.5t8 173zM55 508q0 246 139 393.5t394 147.5q134 0 234.5 -39t161.5 -111.5
t90.5 -168t29.5 -214.5q0 -247 -136 -393t-393 -146q-261 0 -390.5 143.5t-129.5 387.5zM276 1475l93 20q29 -81 75 -115t140 -34q93 0 142 34.5t71 110.5l88 -14q-6 -64 -26 -118.5t-56 -100.5t-95 -72.5t-135 -26.5q-75 0 -131.5 26.5t-90.5 73t-52 100t-23 116.5z" />
    <glyph glyph-name="Ohungarumlaut" unicode="&#x150;" horiz-adv-x="1505" 
d="M1061 723q0 114 -7 197t-26 160t-52.5 125t-88 76t-129.5 28q-78 0 -135 -28t-91.5 -76.5t-55 -126t-27.5 -162.5t-7 -201q0 -89 5 -159t17 -139.5t35 -119.5t57 -89.5t84.5 -59t115.5 -19.5q63 0 111.5 18.5t81.5 56t55.5 87t34.5 119.5t17 143.5t5 169.5zM78 713
q0 341 184 542t506 201q319 0 489 -190t170 -535q0 -358 -168.5 -556t-506.5 -198t-506 188.5t-168 547.5zM836 1565l208 331l103 7q46 3 75 -20.5t29 -63.5q0 -55 -69 -105l-287 -203zM489 1561l189 344l100 12q47 6 80 -17t33 -65q0 -49 -66 -104l-274 -222z" />
    <glyph glyph-name="ohungarumlaut" unicode="&#x151;" horiz-adv-x="1159" 
d="M768 508q0 87 -4 147t-16 114.5t-33 86t-55 50t-82 18.5q-57 0 -94 -26t-57 -81t-28 -124t-8 -171q0 -87 4.5 -149t17 -115.5t34.5 -85.5t55.5 -50t81.5 -18q55 0 91.5 26t56.5 80.5t28 124.5t8 173zM55 508q0 246 139 393.5t394 147.5q134 0 234.5 -39t161.5 -111.5
t90.5 -168t29.5 -214.5q0 -247 -136 -393t-393 -146q-261 0 -390.5 143.5t-129.5 387.5zM662 1165l126 389l99 27q51 12 87 -9t36 -67q0 -48 -49 -104l-230 -273zM334 1165l129 389l96 25q52 14 88.5 -7t36.5 -69t-49 -104l-232 -271z" />
    <glyph glyph-name="OE" unicode="&#x152;" horiz-adv-x="2177" 
d="M78 713q0 340 183 541.5t499 201.5q130 0 235 -44.5t164 -121.5v144h871l16 -455h-145q-20 95 -47.5 151t-76.5 87t-110 41t-164 10h-117v-467h54q102 0 145.5 47t67.5 176h119v-606h-123q-12 79 -26.5 124.5t-41.5 72t-61 34.5t-93 8h-41v-487h111q120 0 195.5 15.5
t127.5 58.5t79 108t45 174h145l-16 -526h-914v158q-61 -79 -173.5 -130t-252.5 -51q-325 0 -490 189.5t-165 546.5zM1061 723q0 114 -7 197t-26 160t-52.5 125t-88 76t-129.5 28q-78 0 -135 -28t-91.5 -76.5t-55 -126t-27.5 -162.5t-7 -201q0 -89 5 -159.5t17 -140
t35 -119.5t57 -89.5t84.5 -59.5t115.5 -20q75 0 130 28.5t88.5 77t53 126.5t26.5 163t7 201z" />
    <glyph glyph-name="oe" unicode="&#x153;" horiz-adv-x="1773" 
d="M55 508q0 245 136 393t380 148q128 0 211.5 -41t141.5 -119q125 160 356 160q189 0 305.5 -114.5t116.5 -338.5q0 -44 -4 -102h-615q1 -79 11.5 -137.5t35 -108t70.5 -75.5t113 -26q89 0 141.5 46.5t93.5 138.5l146 -51q-46 -145 -155.5 -224.5t-262.5 -79.5
q-232 0 -354 162q-124 -162 -371 -162q-245 0 -370.5 144t-125.5 387zM768 508q0 87 -4 147t-16 114.5t-33 86t-55 50t-82 18.5q-57 0 -94 -26t-57 -81t-28 -124t-8 -171q0 -87 4.5 -149t17 -115.5t34.5 -85.5t55.5 -50t81.5 -18q55 0 91.5 26t56.5 80.5t28 124.5t8 173z
M1083 621h295v36q0 146 -27 207.5t-104 61.5q-59 0 -96 -40.5t-51.5 -105t-16.5 -159.5z" />
    <glyph glyph-name="Racute" unicode="&#x154;" horiz-adv-x="1460" 
d="M639 659h-94v-485l147 -16v-158h-633v158l148 16v1088l-148 16v156h527q73 0 133.5 -3.5t126 -13t116.5 -25.5t98 -43t78 -62.5t49.5 -86t18.5 -113.5q0 -170 -99 -247.5t-294 -91.5v-7q199 -22 278.5 -98.5t79.5 -253.5v-135q0 -59 13 -85t57 -26q47 0 64.5 41.5
t31.5 147.5l105 -15q-4 -81 -20 -139.5t-51 -106t-96.5 -71t-150.5 -23.5q-137 0 -215 71.5t-78 223.5v189q0 102 -44.5 150t-147.5 48zM545 1262v-459h28q147 0 213 59.5t66 184.5q0 120 -62.5 167.5t-203.5 47.5h-41zM377 1573l272 309l96 -22q49 -12 67.5 -32t18.5 -56
t-22 -60.5t-66 -46.5l-317 -154z" />
    <glyph glyph-name="racute" unicode="&#x155;" horiz-adv-x="1050" 
d="M502 158l233 -15v-143h-684v143l133 15v706l-133 15v139l418 14l14 -176h9q44 87 112.5 140t181.5 53q109 0 176.5 -61.5t67.5 -184.5q0 -100 -55 -157.5t-144 -57.5q-92 0 -133 50t-39 136l82 25q4 20 4 26q0 49 -59 49q-83 0 -133.5 -85.5t-50.5 -204.5v-426zM428 1167
l135 369l99 27q49 14 86.5 -7t37.5 -69q0 -49 -49 -101l-239 -260z" />
    <glyph glyph-name="Rcommaaccent" unicode="&#x156;" horiz-adv-x="1460" 
d="M639 659h-94v-485l147 -16v-158h-633v158l148 16v1088l-148 16v156h527q73 0 133.5 -3.5t126 -13t116.5 -25.5t98 -43t78 -62.5t49.5 -86t18.5 -113.5q0 -170 -99 -247.5t-294 -91.5v-7q199 -22 278.5 -98.5t79.5 -253.5v-135q0 -59 13 -85t57 -26q47 0 64.5 41.5
t31.5 147.5l105 -15q-4 -81 -20 -139.5t-51 -106t-96.5 -71t-150.5 -23.5q-137 0 -215 71.5t-78 223.5v189q0 102 -44.5 150t-147.5 48zM545 1262v-459h28q147 0 213 59.5t66 184.5q0 120 -62.5 167.5t-203.5 47.5h-41zM684 -588l-47 60q66 54 94.5 94t28.5 82q0 43 -33 53
l-59 -59q-36 12 -63 42t-27 72q0 60 42 95.5t103 35.5q78 0 118 -51.5t40 -122.5q0 -91 -47 -161.5t-150 -139.5z" />
    <glyph glyph-name="rcommaaccent" unicode="&#x157;" horiz-adv-x="1050" 
d="M502 158l233 -15v-143h-684v143l133 15v706l-133 15v139l418 14l14 -176h9q44 87 112.5 140t181.5 53q109 0 176.5 -61.5t67.5 -184.5q0 -100 -55 -157.5t-144 -57.5q-92 0 -133 50t-39 136l82 25q4 20 4 26q0 49 -59 49q-83 0 -133.5 -85.5t-50.5 -204.5v-426zM295 -588
l-47 60q66 54 94.5 94t28.5 82q0 43 -33 53l-59 -59q-36 12 -63.5 42t-27.5 72q0 59 42.5 95t103.5 36q78 0 118 -51.5t40 -122.5q0 -91 -47 -161.5t-150 -139.5z" />
    <glyph glyph-name="Rcaron" unicode="&#x158;" horiz-adv-x="1460" 
d="M639 659h-94v-485l147 -16v-158h-633v158l148 16v1088l-148 16v156h527q73 0 133.5 -3.5t126 -13t116.5 -25.5t98 -43t78 -62.5t49.5 -86t18.5 -113.5q0 -170 -99 -247.5t-294 -91.5v-7q199 -22 278.5 -98.5t79.5 -253.5v-135q0 -59 13 -85t57 -26q47 0 64.5 41.5
t31.5 147.5l105 -15q-4 -81 -20 -139.5t-51 -106t-96.5 -71t-150.5 -23.5q-137 0 -215 71.5t-78 223.5v189q0 102 -44.5 150t-147.5 48zM545 1262v-459h28q147 0 213 59.5t66 184.5q0 120 -62.5 167.5t-203.5 47.5h-41zM942 1827l-244 -279q-52 -30 -104 -30
q-44 0 -73.5 17.5t-61.5 57.5l-191 232l70 76l268 -164l275 159z" />
    <glyph glyph-name="rcaron" unicode="&#x159;" horiz-adv-x="1050" 
d="M502 158l233 -15v-143h-684v143l133 15v706l-133 15v139l418 14l14 -176h9q44 87 112.5 140t181.5 53q109 0 176.5 -61.5t67.5 -184.5q0 -100 -55 -157.5t-144 -57.5q-92 0 -133 50t-39 136l82 25q4 20 4 26q0 49 -59 49q-83 0 -133.5 -85.5t-50.5 -204.5v-426zM438 1174
l-200 331l65 56l234 -179l229 174l65 -53l-159 -280q-45 -78 -129 -78q-30 0 -61 10t-44 19z" />
    <glyph glyph-name="Sacute" unicode="&#x15a;" horiz-adv-x="1204" 
d="M629 143q130 0 202 52.5t72 150.5q0 44 -18 76t-41 53t-82 42t-103.5 32.5t-142.5 34.5q-218 51 -318 150.5t-100 281.5q0 91 31.5 170t90 139.5t150.5 95.5t205 35q59 0 113 -12t84.5 -26t57.5 -26t40 -12q20 0 31.5 12.5t26.5 45.5h121l14 -432h-158
q-43 151 -117.5 221.5t-205.5 70.5q-99 0 -162.5 -44t-63.5 -132q0 -38 15.5 -68t38 -50t64.5 -38t77.5 -28t95.5 -25q49 -12 81.5 -21t76 -22.5t72 -26t64.5 -30t59 -36.5t48.5 -44t41.5 -54t29.5 -64t19.5 -77.5t6 -91.5q0 -206 -137 -337.5t-355 -131.5q-67 0 -125.5 13
t-90.5 29t-62 29t-47 13q-22 0 -34 -16.5t-28 -62.5h-137l-20 487h159q43 -163 124 -244.5t237 -81.5zM385 1573l272 309l97 -22q49 -12 67.5 -32t18.5 -56t-22 -60.5t-66 -46.5l-318 -154z" />
    <glyph glyph-name="sacute" unicode="&#x15b;" horiz-adv-x="956" 
d="M74 -10v342h127q25 -98 103.5 -155.5t195.5 -57.5q170 0 170 112q0 27 -11.5 47t-27 32t-47 22.5t-54.5 15t-67 12.5q-148 27 -213 56q-160 72 -169 257q-1 12 -1 25q0 157 108 254t273 97q99 0 192 -50q21 -12 43 -12q19 0 25.5 9.5t15.5 39.5h109v-317h-125
q-41 101 -100.5 147.5t-155.5 46.5q-66 0 -111 -26.5t-45 -79.5q0 -20 6 -36t23 -28.5t28.5 -19.5t43.5 -15.5t45.5 -11.5t54.5 -12q153 -29 221 -62q172 -81 172 -286q0 -168 -102.5 -263.5t-274.5 -95.5q-59 0 -112 12t-77.5 22.5t-62.5 29.5q-23 10 -38 10
q-17 0 -25.5 -12.5t-17.5 -48.5h-119zM381 1167l135 369l98 27q49 14 87 -7t38 -69q0 -49 -49 -101l-239 -260z" />
    <glyph glyph-name="Scircumflex" unicode="&#x15c;" horiz-adv-x="1204" 
d="M629 143q130 0 202 52.5t72 150.5q0 44 -18 76t-41 53t-82 42t-103.5 32.5t-142.5 34.5q-218 51 -318 150.5t-100 281.5q0 91 31.5 170t90 139.5t150.5 95.5t205 35q59 0 113 -12t84.5 -26t57.5 -26t40 -12q20 0 31.5 12.5t26.5 45.5h121l14 -432h-158
q-43 151 -117.5 221.5t-205.5 70.5q-99 0 -162.5 -44t-63.5 -132q0 -38 15.5 -68t38 -50t64.5 -38t77.5 -28t95.5 -25q49 -12 81.5 -21t76 -22.5t72 -26t64.5 -30t59 -36.5t48.5 -44t41.5 -54t29.5 -64t19.5 -77.5t6 -91.5q0 -206 -137 -337.5t-355 -131.5q-67 0 -125.5 13
t-90.5 29t-62 29t-47 13q-22 0 -34 -16.5t-28 -62.5h-137l-20 487h159q43 -163 124 -244.5t237 -81.5zM252 1571l244 278q16 9 49.5 20t62.5 11q41 0 67 -17t60 -59l191 -231l-60 -72l-274 160l-279 -160z" />
    <glyph glyph-name="scircumflex" unicode="&#x15d;" horiz-adv-x="956" 
d="M74 -10v342h127q25 -98 103.5 -155.5t195.5 -57.5q170 0 170 112q0 27 -11.5 47t-27 32t-47 22.5t-54.5 15t-67 12.5q-148 27 -213 56q-160 72 -169 257q-1 12 -1 25q0 157 108 254t273 97q99 0 192 -50q21 -12 43 -12q19 0 25.5 9.5t15.5 39.5h109v-317h-125
q-41 101 -100.5 147.5t-155.5 46.5q-66 0 -111 -26.5t-45 -79.5q0 -20 6 -36t23 -28.5t28.5 -19.5t43.5 -15.5t45.5 -11.5t54.5 -12q153 -29 221 -62q172 -81 172 -286q0 -168 -102.5 -263.5t-274.5 -95.5q-59 0 -112 12t-77.5 22.5t-62.5 29.5q-23 10 -38 10
q-17 0 -25.5 -12.5t-17.5 -48.5h-119zM178 1180l199 329q13 10 50 21.5t67 11.5q43 0 69 -17t51 -61l156 -280l-68 -56l-227 177l-231 -181z" />
    <glyph glyph-name="Scedilla" unicode="&#x15e;" horiz-adv-x="1204" 
d="M629 143q130 0 202 52.5t72 150.5q0 44 -18 76t-41 53t-82 42t-103.5 32.5t-142.5 34.5q-218 51 -318 150.5t-100 281.5q0 91 31.5 170t90 139.5t150.5 95.5t205 35q59 0 113 -12t84.5 -26t57.5 -26t40 -12q20 0 31 13t27 45h121l14 -432h-158q-43 151 -117.5 221.5
t-205.5 70.5q-99 0 -162.5 -44t-63.5 -132q0 -38 15.5 -68t38 -50t64.5 -38t77.5 -28t95.5 -25q49 -12 81.5 -21t76 -22.5t72 -26t64.5 -30t59 -36.5t48.5 -44t41.5 -54t29.5 -64t19.5 -77.5t6 -91.5q0 -206 -137 -337.5t-355 -131.5h-6l-51 -83q21 6 68 6q89 0 138.5 -44.5
t49.5 -119.5q0 -80 -65.5 -138.5t-194.5 -58.5q-99 0 -152 39t-53 90q0 35 21 58.5t53 23.5q58 0 80 -59l-41 -39q0 -45 71 -45q93 0 93 110q0 50 -26 78.5t-71 28.5q-51 0 -75 -8l-19 51l74 121q-67 11 -134.5 42t-84.5 31q-22 0 -34 -16.5t-28 -62.5h-137l-20 487h159
q43 -163 124 -244.5t237 -81.5z" />
    <glyph glyph-name="scedilla" unicode="&#x15f;" horiz-adv-x="956" 
d="M74 -10v342h127q25 -98 103.5 -155.5t195.5 -57.5q170 0 170 112q0 27 -11.5 47t-27 32t-47 22.5t-54.5 15t-67 12.5q-38 6 -58.5 10t-58 13t-59 17t-53.5 23t-51 31.5t-41 41t-34 53.5t-20 67t-8 82q0 157 108 254t273 97q99 0 192 -50q21 -12 43 -12q19 0 25.5 9.5
t15.5 39.5h109v-317h-125q-41 101 -100.5 147.5t-155.5 46.5q-66 0 -111 -26.5t-45 -79.5q0 -20 6 -36t23 -28.5t28.5 -19.5t43.5 -15.5t45.5 -11.5t54.5 -12q153 -29 221 -62q172 -81 172 -286q0 -168 -102.5 -263.5t-274.5 -95.5h-16l-51 -83q21 6 67 6q89 0 139 -44.5
t50 -119.5q0 -80 -65.5 -138.5t-194.5 -58.5q-99 0 -152 39t-53 90q0 35 21 58.5t53 23.5q57 0 79 -59l-41 -39q0 -45 72 -45q92 0 92 110q0 51 -25.5 79t-70.5 28q-52 0 -76 -8l-18 51l74 123q-61 12 -136 51q-23 10 -38 10q-17 0 -25.5 -12.5t-17.5 -48.5h-119z" />
    <glyph glyph-name="Scaron" unicode="&#x160;" horiz-adv-x="1204" 
d="M629 143q130 0 202 52.5t72 150.5q0 44 -18 76t-41 53t-82 42t-103.5 32.5t-142.5 34.5q-218 51 -318 150.5t-100 281.5q0 91 31.5 170t90 139.5t150.5 95.5t205 35q59 0 113 -12t84.5 -26t57.5 -26t40 -12q20 0 31.5 12.5t26.5 45.5h121l14 -432h-158
q-43 151 -117.5 221.5t-205.5 70.5q-99 0 -162.5 -44t-63.5 -132q0 -38 15.5 -68t38 -50t64.5 -38t77.5 -28t95.5 -25q49 -12 81.5 -21t76 -22.5t72 -26t64.5 -30t59 -36.5t48.5 -44t41.5 -54t29.5 -64t19.5 -77.5t6 -91.5q0 -206 -137 -337.5t-355 -131.5q-67 0 -125.5 13
t-90.5 29t-62 29t-47 13q-22 0 -34 -16.5t-28 -62.5h-137l-20 487h159q43 -163 124 -244.5t237 -81.5zM924 1827l-244 -279q-53 -30 -105 -30q-44 0 -73.5 17.5t-61.5 57.5l-190 232l69 76l269 -164l274 159z" />
    <glyph glyph-name="scaron" unicode="&#x161;" horiz-adv-x="956" 
d="M74 -10v342h127q25 -98 103.5 -155.5t195.5 -57.5q170 0 170 112q0 27 -11.5 47t-27 32t-47 22.5t-54.5 15t-67 12.5q-148 27 -213 56q-160 72 -169 257q-1 12 -1 25q0 157 108 254t273 97q99 0 192 -50q21 -12 43 -12q19 0 25.5 9.5t15.5 39.5h109v-317h-125
q-41 101 -100.5 147.5t-155.5 46.5q-66 0 -111 -26.5t-45 -79.5q0 -20 6 -36t23 -28.5t28.5 -19.5t43.5 -15.5t45.5 -11.5t54.5 -12q153 -29 221 -62q172 -81 172 -286q0 -168 -102.5 -263.5t-274.5 -95.5q-59 0 -112 12t-77.5 22.5t-62.5 29.5q-23 10 -38 10
q-17 0 -25.5 -12.5t-17.5 -48.5h-119zM373 1174l-201 331l66 56l233 -179l229 174l66 -53l-160 -280q-45 -78 -129 -78q-30 0 -60.5 9.5t-43.5 19.5z" />
    <glyph glyph-name="uni0162" unicode="&#x162;" horiz-adv-x="1390" 
d="M1317 1434l20 -488h-149q-20 108 -40.5 168.5t-58.5 95.5t-84.5 44.5t-130.5 9.5h-10v-1092l199 -16v-156h-336l-65 -106q21 6 67 6q89 0 139 -44.5t50 -119.5q0 -80 -66 -138.5t-195 -58.5q-98 0 -151 39t-53 90q0 35 20.5 58.5t52.5 23.5q58 0 80 -59l-41 -39
q0 -45 72 -45q92 0 92 110q0 51 -25.5 79t-70.5 28q-52 0 -76 -8l-18 51l82 133h-289v156l194 16v1092h-8q-83 0 -132.5 -12t-87 -48.5t-58.5 -96t-39 -161.5h-148l21 488h1243z" />
    <glyph glyph-name="uni0163" unicode="&#x163;" horiz-adv-x="884" 
d="M176 289v581h-153v156h153v256l201 41h117v-297h274v-156h-274v-587q0 -71 22.5 -104.5t75.5 -33.5q55 0 88 49.5t65 167.5l119 -30q-30 -175 -116.5 -264.5t-247.5 -90.5l-51 -83q21 6 67 6q89 0 139 -44.5t50 -119.5q0 -80 -66 -138.5t-195 -58.5q-98 0 -151 39t-53 90
q0 35 20.5 58.5t52.5 23.5q58 0 80 -59l-41 -39q0 -45 72 -45q92 0 92 110q0 51 -25.5 79t-70.5 28q-52 0 -76 -8l-18 51l71 119q-221 42 -221 303z" />
    <glyph glyph-name="Tcaron" unicode="&#x164;" horiz-adv-x="1390" 
d="M1317 1434l20 -488h-149q-20 108 -40.5 168.5t-58.5 95.5t-84.5 44.5t-130.5 9.5h-10v-1092l199 -16v-156h-731v156l194 16v1092h-8q-83 0 -132.5 -12t-87 -48.5t-58.5 -96t-39 -161.5h-148l21 488h1243zM1032 1827l-244 -279q-53 -30 -104 -30q-44 0 -73.5 17.5
t-61.5 57.5l-191 232l70 76l268 -164l275 159z" />
    <glyph glyph-name="tcaron" unicode="&#x165;" horiz-adv-x="884" 
d="M176 289v581h-153v156h153v256l201 41h117v-297h274v-156h-274v-587q0 -71 22.5 -104.5t75.5 -33.5q55 0 88 49.5t65 167.5l119 -30q-30 -176 -117 -265.5t-249 -89.5q-159 0 -240.5 74t-81.5 238zM623 1108l-62 66q59 50 81 88t22 79q0 81 -86 146l43 51q44 55 104 55
q59 0 91 -42t32 -105q0 -84 -60.5 -173.5t-164.5 -164.5z" />
    <glyph glyph-name="Tbar" unicode="&#x166;" horiz-adv-x="1390" 
d="M1317 1434l20 -488h-149q-20 108 -40.5 168.5t-58.5 95.5t-84.5 44.5t-130.5 9.5h-10v-473h301v-162h-301v-457l199 -16v-156h-731v156l194 16v457h-301v162h301v473h-8q-83 0 -132.5 -12t-87 -48.5t-58.5 -96t-39 -161.5h-148l21 488h1243z" />
    <glyph glyph-name="tbar" unicode="&#x167;" horiz-adv-x="884" 
d="M23 565v152h153v153h-153v156h153v256l201 41h117v-297h274v-156h-274v-153h274v-152h-274v-282q0 -71 22.5 -104.5t75.5 -33.5q55 0 88 49.5t65 167.5l119 -30q-30 -176 -117 -265.5t-249 -89.5q-159 0 -240.5 74t-81.5 238v276h-153z" />
    <glyph glyph-name="Utilde" unicode="&#x168;" horiz-adv-x="1460" 
d="M799 174q-71 0 -122 17t-81.5 45t-48 73.5t-23.5 92.5t-6 112v750l135 12v158h-600v-158l127 -12v-793q0 -115 28 -201.5t77 -141.5t123 -89.5t158 -48t190 -13.5q271 0 399.5 127t128.5 363v795l121 14v158h-451v-158l129 -14v-770q0 -161 -66 -239.5t-218 -78.5z
M903 1548q-74 0 -182 47q-82 33 -121 33q-29 0 -52.5 -19t-45.5 -71l-70 23q34 132 85.5 190.5t139.5 58.5q16 0 30 -1t29 -4.5t23.5 -5t25 -8t21.5 -8t24.5 -10t23.5 -10.5q77 -30 120 -30q36 0 58 18.5t43 69.5l67 -21q-52 -252 -219 -252z" />
    <glyph glyph-name="utilde" unicode="&#x169;" horiz-adv-x="1302" 
d="M487 1032v-680q0 -94 25.5 -139t103.5 -45q84 0 135.5 56.5t51.5 178.5v465l-113 15v133l430 18v-876l127 -15v-143h-397l-12 184h-13q-22 -45 -46 -78t-62 -64.5t-94.5 -48t-128.5 -16.5q-159 0 -241.5 79.5t-82.5 254.5v557l-115 15v131zM745 1190q-74 0 -182 47
q-82 33 -121 33q-29 0 -52.5 -19t-45.5 -71l-70 22q34 132 86 191t140 59q16 0 30 -1t28.5 -4t23.5 -5t24.5 -8t21.5 -8.5t24 -10.5t24 -10q79 -31 121 -31q36 0 57.5 18t42.5 70l68 -20q-52 -252 -220 -252z" />
    <glyph glyph-name="Umacron" unicode="&#x16a;" horiz-adv-x="1460" 
d="M799 174q-71 0 -122 17t-81.5 45t-48 73.5t-23.5 92.5t-6 112v750l135 12v158h-600v-158l127 -12v-793q0 -115 28 -201.5t77 -141.5t123 -89.5t158 -48t190 -13.5q271 0 399.5 127t128.5 363v795l121 14v158h-451v-158l129 -14v-770q0 -161 -66 -239.5t-218 -78.5z
M489 1591v181h558v-181h-558z" />
    <glyph glyph-name="umacron" unicode="&#x16b;" horiz-adv-x="1302" 
d="M487 1032v-680q0 -94 25.5 -139t103.5 -45q84 0 135.5 56.5t51.5 178.5v465l-113 15v133l430 18v-876l127 -15v-143h-397l-12 184h-13q-22 -45 -46 -78t-62 -64.5t-94.5 -48t-128.5 -16.5q-159 0 -241.5 79.5t-82.5 254.5v557l-115 15v131zM330 1223v180h557v-180h-557z
" />
    <glyph glyph-name="Ubreve" unicode="&#x16c;" horiz-adv-x="1460" 
d="M799 174q152 0 218 78.5t66 239.5v770l-129 14v158h451v-158l-121 -14v-795q0 -236 -128.5 -363t-399.5 -127q-106 0 -190 13.5t-158 48t-123 89.5t-77 141.5t-28 201.5v793l-127 12v158h600v-158l-135 -12v-750q0 -65 6 -112t23.5 -92.5t48 -73.5t81.5 -45t122 -17z
M465 1829l92 20q27 -72 73.5 -102.5t141.5 -30.5q96 0 143.5 29.5t69.5 99.5l88 -14q-6 -61 -26 -112.5t-56 -95t-94.5 -68.5t-134.5 -25q-75 0 -131.5 25t-90.5 68.5t-52 94.5t-23 111z" />
    <glyph glyph-name="ubreve" unicode="&#x16d;" horiz-adv-x="1302" 
d="M487 1032v-680q0 -94 25.5 -139t103.5 -45q84 0 135.5 56.5t51.5 178.5v465l-113 15v133l430 18v-876l127 -15v-143h-397l-12 184h-13q-22 -45 -46 -78t-62 -64.5t-94.5 -48t-128.5 -16.5q-159 0 -241.5 79.5t-82.5 254.5v557l-115 15v131zM305 1475l92 20
q29 -81 75 -115t140 -34q93 0 142 34.5t71 110.5l88 -14q-6 -64 -25.5 -118.5t-55.5 -100.5t-95 -72.5t-135 -26.5q-75 0 -131.5 26.5t-90.5 73t-52 100t-23 116.5z" />
    <glyph glyph-name="Uring" unicode="&#x16e;" horiz-adv-x="1460" 
d="M799 174q-71 0 -122 17t-81.5 45t-48 73.5t-23.5 92.5t-6 112v750l135 12v158h-600v-158l127 -12v-793q0 -115 28 -201.5t77 -141.5t123 -89.5t158 -48t190 -13.5q271 0 399.5 127t128.5 363v795l121 14v158h-451v-158l129 -14v-770q0 -161 -66 -239.5t-218 -78.5z
M676 1720q0 -44 22.5 -74t73.5 -30q90 0 90 104q0 44 -23 73.5t-71 29.5q-46 0 -69 -30t-23 -73zM545 1720q0 88 60 147.5t169 59.5q105 0 162 -55t57 -148q0 -96 -59.5 -155.5t-163.5 -59.5q-112 0 -168.5 57t-56.5 154z" />
    <glyph glyph-name="uring" unicode="&#x16f;" horiz-adv-x="1302" 
d="M487 1032v-680q0 -94 25.5 -139t103.5 -45q84 0 135.5 56.5t51.5 178.5v465l-113 15v133l430 18v-876l127 -15v-143h-397l-12 184h-13q-22 -45 -46 -78t-62 -64.5t-94.5 -48t-128.5 -16.5q-159 0 -241.5 79.5t-82.5 254.5v557l-115 15v131zM516 1356q0 -44 22.5 -74.5
t73.5 -30.5q47 0 68.5 29.5t21.5 75.5q0 44 -23 73t-71 29q-46 0 -69 -29.5t-23 -72.5zM385 1356q0 88 60 147.5t169 59.5q105 0 162.5 -55t57.5 -148q0 -96 -60 -155.5t-164 -59.5q-112 0 -168.5 57t-56.5 154z" />
    <glyph glyph-name="Uhungarumlaut" unicode="&#x170;" horiz-adv-x="1460" 
d="M799 174q-71 0 -122 17t-81.5 45t-48 73.5t-23.5 92.5t-6 112v750l135 12v158h-600v-158l127 -12v-793q0 -115 28 -201.5t77 -141.5t123 -89.5t158 -48t190 -13.5q271 0 399.5 127t128.5 363v795l121 14v158h-451v-158l129 -14v-770q0 -161 -66 -239.5t-218 -78.5z
M850 1565l209 331l102 7q46 3 75.5 -20.5t29.5 -63.5q0 -54 -70 -105l-287 -203zM504 1561l188 344l101 12q47 6 79.5 -17t32.5 -65q0 -50 -65 -104l-275 -222z" />
    <glyph glyph-name="uhungarumlaut" unicode="&#x171;" horiz-adv-x="1302" 
d="M487 1032v-680q0 -94 25.5 -139t103.5 -45q84 0 135.5 56.5t51.5 178.5v465l-113 15v133l430 18v-876l127 -15v-143h-397l-12 184h-13q-22 -45 -46 -78t-62 -64.5t-94.5 -48t-128.5 -16.5q-159 0 -241.5 79.5t-82.5 254.5v557l-115 15v131zM709 1165l127 389l98 27
q51 12 87 -9t36 -67q0 -48 -49 -104l-230 -273zM381 1165l129 389l96 25q52 14 88.5 -7t36.5 -69t-49 -104l-231 -271z" />
    <glyph glyph-name="Uogonek" unicode="&#x172;" horiz-adv-x="1460" 
d="M799 174q152 0 218 78.5t66 239.5v770l-129 14v158h451v-158l-121 -14v-795q0 -156 -60 -260t-186 -187q-85 -56 -138.5 -132t-53.5 -150q0 -84 76 -84q24 0 45 12.5t32.5 25.5t30.5 38l80 -49q-84 -168 -266 -168q-102 0 -159.5 49t-57.5 137q0 80 53.5 147.5
t144.5 133.5q-35 -3 -69 -3q-106 0 -190 13.5t-158 48t-123 89.5t-77 141.5t-28 201.5v793l-127 12v158h600v-158l-135 -12v-750q0 -65 6 -112t23.5 -92.5t48 -73.5t81.5 -45t122 -17z" />
    <glyph glyph-name="uogonek" unicode="&#x173;" horiz-adv-x="1302" 
d="M487 1032v-680q0 -94 25.5 -139t103.5 -45q84 0 135.5 56.5t51.5 178.5v465l-113 15v133l430 18v-876l127 -15v-143h-141q-158 -146 -158 -262q0 -84 76 -84q24 0 45 12t33 25.5t31 38.5l79 -49q-84 -168 -266 -168q-102 0 -159.5 49t-57.5 137q0 86 62 159t165 142h-106
l-12 184h-13q-22 -45 -46 -78t-62 -64.5t-94.5 -48t-128.5 -16.5q-159 0 -241.5 79.5t-82.5 254.5v557l-115 15v131z" />
    <glyph glyph-name="Wcircumflex" unicode="&#x174;" horiz-adv-x="2060" 
d="M737 432l226 629l-82 199l-117 18v156h622v-156l-149 -18l301 -816h8l238 816l-150 18v156h424v-156l-114 -18l-373 -1260h-215l-309 827h-9l-295 -827h-217l-413 1260l-111 18v156h612v-156l-143 -18l258 -828h8zM733 1571l244 278q16 9 50 20t63 11q41 0 67 -17t60 -59
l190 -231l-59 -72l-275 160l-278 -160z" />
    <glyph glyph-name="wcircumflex" unicode="&#x175;" horiz-adv-x="1675" 
d="M8 1026v-141l92 -8l320 -877h233l193 520h10l188 -520h250l269 877l102 8v141h-391v-141l123 -8l-158 -580h-8l-197 580l101 8v141h-488v-141l88 -8l43 -142l-162 -436h-8l-182 578l96 8v141h-514zM578 1180l198 329q13 10 50 21.5t67 11.5q44 0 70 -17t51 -61l155 -280
l-67 -56l-228 177l-231 -181z" />
    <glyph glyph-name="Ycircumflex" unicode="&#x176;" horiz-adv-x="1318" 
d="M758 807l246 453l-144 14v160h457v-160l-121 -14l-358 -635v-453l174 -14v-158h-686v158l174 14v453l-375 635l-123 14v160h657v-160l-153 -14l246 -453h6zM352 1571l244 278q16 9 50 20t63 11q41 0 67 -17t60 -59l190 -231l-59 -72l-275 160l-278 -160z" />
    <glyph glyph-name="ycircumflex" unicode="&#x177;" horiz-adv-x="1105" 
d="M10 885v141h565v-141l-126 -8l182 -568h8l195 568l-125 8v141h393v-141l-103 -8l-366 -1008q-29 -80 -55 -130.5t-64 -92t-90.5 -60t-124.5 -18.5q-51 0 -97 12.5t-84 37t-60.5 67t-22.5 98.5q0 73 45.5 122.5t124.5 49.5q70 0 109 -42.5t38 -127.5l-92 -43
q-3 -28 15 -44.5t53 -16.5q51 0 81 41t68 149l58 164h-129l-304 842zM291 1180l198 329q13 10 50 21.5t67 11.5q44 0 70 -17t51 -61l156 -280l-68 -56l-227 177l-232 -181z" />
    <glyph glyph-name="Ydieresis" unicode="&#x178;" horiz-adv-x="1318" 
d="M758 807l246 453l-144 14v160h457v-160l-121 -14l-358 -635v-453l174 -14v-158h-686v158l174 14v453l-375 635l-123 14v160h657v-160l-153 -14l246 -453h6zM354 1702q0 57 38 98t104 41t105.5 -35t39.5 -104q0 -65 -37 -105.5t-104 -40.5q-76 0 -111 42.5t-35 103.5z
M778 1702q0 57 38 98t104 41t105.5 -35t39.5 -104q0 -65 -37 -105.5t-104 -40.5q-76 0 -111 42.5t-35 103.5z" />
    <glyph glyph-name="Zacute" unicode="&#x179;" horiz-adv-x="1306" 
d="M1202 1434v-177l-733 -1083h223q98 0 166 21.5t113 69t71 111t45 159.5h146l-25 -535h-1128v166l733 1091h-184q-56 0 -92.5 -2t-77 -9t-67 -20t-53.5 -35.5t-45.5 -55.5t-35 -80t-29.5 -109h-141l21 488h1093zM428 1573l272 309l97 -22q49 -12 67.5 -32t18.5 -56
t-22 -60.5t-66 -46.5l-318 -154z" />
    <glyph glyph-name="zacute" unicode="&#x17a;" horiz-adv-x="1021" 
d="M952 1026v-119l-520 -788h133q55 0 96.5 11.5t70 30t51.5 54t38.5 72t34.5 94.5h111l-25 -381h-874v113l526 794h-119q-48 0 -76 -2t-57.5 -10.5t-47 -23t-37.5 -42.5t-35.5 -65.5t-35.5 -95.5h-118l20 358h864zM406 1167l135 369l98 27q49 14 87 -7t38 -69
q0 -49 -49 -101l-240 -260z" />
    <glyph glyph-name="Zdotaccent" unicode="&#x17b;" horiz-adv-x="1306" 
d="M1202 1434v-177l-733 -1083h223q98 0 166 21.5t113 69t71 111t45 159.5h146l-25 -535h-1128v166l733 1091h-184q-56 0 -92.5 -2t-77 -9t-67 -20t-53.5 -35.5t-45.5 -55.5t-35 -80t-29.5 -109h-141l21 488h1093zM477 1706q0 74 44 121t136 47q85 0 132 -41.5t47 -124.5
q0 -79 -44.5 -124.5t-136.5 -45.5q-51 0 -87 14.5t-55 40t-27.5 53t-8.5 60.5z" />
    <glyph glyph-name="zdotaccent" unicode="&#x17c;" horiz-adv-x="1021" 
d="M952 1026v-119l-520 -788h133q55 0 96.5 11.5t70 30t51.5 54t38.5 72t34.5 94.5h111l-25 -381h-874v113l526 794h-119q-48 0 -76 -2t-57.5 -10.5t-47 -23t-37.5 -42.5t-35.5 -65.5t-35.5 -95.5h-118l20 358h864zM346 1327q0 74 44 121t136 47q85 0 132 -41.5t47 -124.5
q0 -79 -44.5 -124.5t-136.5 -45.5q-51 0 -87 14.5t-55 40t-27.5 53t-8.5 60.5z" />
    <glyph glyph-name="Zcaron" unicode="&#x17d;" horiz-adv-x="1306" 
d="M1202 1434v-177l-733 -1083h223q98 0 166 21.5t113 69t71 111t45 159.5h146l-25 -535h-1128v166l733 1091h-184q-56 0 -92.5 -2t-77 -9t-67 -20t-53.5 -35.5t-45.5 -55.5t-35 -80t-29.5 -109h-141l21 488h1093zM993 1827l-243 -279q-53 -30 -105 -30q-44 0 -73.5 17.5
t-61.5 57.5l-191 232l70 76l268 -164l275 159z" />
    <glyph glyph-name="zcaron" unicode="&#x17e;" horiz-adv-x="1021" 
d="M952 1026v-119l-520 -788h133q55 0 96.5 11.5t70 30t51.5 54t38.5 72t34.5 94.5h111l-25 -381h-874v113l526 794h-119q-48 0 -76 -2t-57.5 -10.5t-47 -23t-37.5 -42.5t-35.5 -65.5t-35.5 -95.5h-118l20 358h864zM420 1174l-201 331l66 56l233 -179l230 174l65 -53
l-160 -280q-45 -78 -129 -78q-30 0 -60.5 9.5t-43.5 19.5z" />
    <glyph glyph-name="longs" unicode="&#x17f;" horiz-adv-x="827" 
d="M504 1247v-1091l250 -19v-137h-707v137l139 19v911q0 245 116.5 380.5t348.5 135.5q77 0 137 -20.5t95 -55t53 -75t18 -84.5q0 -86 -43 -131.5t-116 -45.5t-111.5 39.5t-38.5 100.5q0 24 10 51l74 8q6 21 6 41q0 62 -80 62q-45 0 -75.5 -17t-46.5 -49t-22.5 -70.5
t-6.5 -89.5z" />
    <glyph glyph-name="florin" unicode="&#x192;" horiz-adv-x="1079" 
d="M936 795l-25 -133h-270l-113 -625q-42 -231 -172 -350t-333 -119q-156 0 -242 70t-86 176q0 78 45.5 130t124.5 52q73 0 110 -37t37 -98q0 -3 -10 -66l-76 -2q-8 -21 -8 -43q0 -34 24.5 -53t71.5 -19q36 0 63 14t43 33t30 59t20.5 70t17.5 89l129 719h-155l24 133h156
l35 192q17 101 57 184.5t103 148t155.5 100.5t206.5 36q145 0 230 -70t85 -184q0 -72 -41.5 -120t-119.5 -48q-74 0 -114 37t-40 96q0 26 10 68l72 2q8 19 8 43q0 34 -24 52t-64 18q-37 0 -65.5 -13.5t-46.5 -34t-32 -56.5t-21.5 -69t-16.5 -83l-53 -299h270z" />
    <glyph glyph-name="Aringacute" unicode="&#x1fa;" horiz-adv-x="1480" 
d="M518 1647q0 88 60.5 147t169.5 59q105 0 162 -54.5t57 -147.5q0 -127 -99 -185l463 -1294l139 -16v-156h-667v156l151 16l-80 231h-444l-80 -231l146 -16v-156h-486v156l131 16l482 1286q-105 48 -105 189zM666 1087l-187 -524h350l-157 524h-6zM518 1933l273 310l96 -23
q49 -12 67.5 -32t18.5 -56t-22 -60.5t-66 -46.5l-318 -153zM649 1647q0 -44 22.5 -74.5t73.5 -30.5q48 0 69.5 29.5t21.5 75.5q0 44 -23.5 73t-71.5 29q-46 0 -69 -29.5t-23 -72.5z" />
    <glyph glyph-name="aringacute" unicode="&#x1fb;" horiz-adv-x="1118" 
d="M496 535h145v147q0 127 -39.5 188.5t-142.5 61.5q-117 0 -117 -68q0 -8 4 -28h78q12 -54 12 -80q0 -64 -40 -103t-117 -39q-79 0 -119.5 45t-40.5 117q0 124 108.5 198.5t302.5 74.5q215 0 321.5 -87.5t106.5 -299.5v-422q0 -61 9 -85t39 -24q26 0 67 16l29 -104
q-36 -25 -99.5 -45.5t-132.5 -20.5q-94 0 -142.5 38.5t-68.5 115.5q-84 -154 -288 -154q-134 0 -217.5 65t-83.5 204q0 160 106 224.5t320 64.5zM508 131q58 0 95.5 41t37.5 129v127h-80q-93 0 -129.5 -37.5t-36.5 -120.5q0 -72 26.5 -105.5t86.5 -33.5zM455 1356
q0 -44 22.5 -74.5t73.5 -30.5q47 0 68.5 29.5t21.5 75.5q0 44 -23 73t-71 29q-46 0 -69 -29.5t-23 -72.5zM324 1356q0 88 60 147.5t169 59.5q105 0 162 -55t57 -148q0 -96 -59.5 -155.5t-163.5 -59.5q-112 0 -168.5 57t-56.5 154zM309 1647l273 309l96 -23q49 -12 67.5 -32
t18.5 -56t-21.5 -60t-66.5 -46l-318 -154z" />
    <glyph glyph-name="AEacute" unicode="&#x1fc;" horiz-adv-x="2150" 
d="M2003 1434l16 -455h-147q-16 76 -38 126t-50.5 83.5t-74.5 50t-99 23t-135 6.5h-115v-482h51q103 0 147 48t68 176h119v-607h-123q-16 104 -40.5 154.5t-64.5 68t-118 17.5h-39v-473h110q120 0 195.5 15.5t127.5 58.5t79 108t45 174h145l-16 -526h-1159v154l135 16v455
h-408l-258 -453l172 -16v-156h-520v156l135 16l639 1090l-145 16v156h1366zM983 1268l-281 -484h320v484h-39zM1176 1573l272 309l96 -22q49 -12 67.5 -32t18.5 -56t-22 -60.5t-66 -46.5l-317 -154z" />
    <glyph glyph-name="aeacute" unicode="&#x1fd;" horiz-adv-x="1654" 
d="M391 -23q226 0 354 166q128 -166 396 -166q163 0 275.5 79.5t158.5 224.5l-145 51q-41 -92 -94 -138.5t-142 -46.5q-67 0 -112 21t-69.5 64t-35 93.5t-12.5 123.5h614q4 62 4 116q0 230 -106.5 357t-300.5 127q-113 0 -195.5 -33.5t-149.5 -104.5q-48 70 -123.5 104
t-193.5 34q-185 0 -293 -75t-108 -198q0 -72 40.5 -117t118.5 -45q79 0 119.5 39t40.5 103q0 26 -12 80h-78q-4 20 -4 28q0 68 121 68q103 0 141.5 -62.5t38.5 -197.5v-111h-145q-209 0 -316.5 -71.5t-107.5 -229.5q0 -76 26 -132t72 -88t101.5 -47.5t121.5 -15.5zM1128 926
q77 0 105.5 -61t28.5 -206v-86h-297q2 176 38.5 264.5t124.5 88.5zM512 129q-119 0 -119 156q0 168 166 168h82q3 -121 43 -215q-29 -47 -76.5 -78t-95.5 -31zM684 1167l135 369l99 27q49 14 86.5 -7t37.5 -69q0 -49 -49 -101l-239 -260z" />
    <glyph glyph-name="Oslashacute" unicode="&#x1fe;" horiz-adv-x="1505" 
d="M78 713q0 341 184 542t506 201q139 0 254 -39l88 166l129 -65l-86 -164q135 -88 204.5 -246.5t69.5 -376.5q0 -358 -168.5 -556t-506.5 -198q-162 0 -297 50l-95 -181l-127 68l95 178q-250 180 -250 621zM1061 723q0 251 -41 381l-469 -893q76 -82 205 -82
q63 0 111.5 18.5t81.5 56t55.5 87t34.5 119.5t17 143.5t5 169.5zM442 715q0 -225 31 -342l461 876q-66 60 -176 60q-78 0 -135 -28t-91.5 -76.5t-55 -126t-27.5 -162.5t-7 -201zM555 1573l272 309l97 -22q49 -12 67.5 -32t18.5 -56t-22 -60.5t-66 -46.5l-318 -154z" />
    <glyph glyph-name="oslashacute" unicode="&#x1ff;" horiz-adv-x="1159" 
d="M55 508q0 246 139 393.5t394 147.5q88 0 166 -19l57 117l115 -53l-54 -109q232 -123 232 -469q0 -247 -136 -393t-393 -146q-95 0 -182 23l-69 -145l-113 53l68 139q-224 128 -224 461zM768 508q0 146 -14 231l-289 -592q43 -43 119 -43q55 0 91.5 26t56.5 80.5t28 124.5
t8 173zM391 522q0 -146 12 -217l283 584q-41 35 -108 35q-57 0 -94 -26t-57 -81t-28 -124t-8 -171zM475 1167l135 369l99 27q49 14 87 -7t38 -69t-50 -101l-239 -260z" />
    <glyph glyph-name="Scommaaccent" unicode="&#x218;" horiz-adv-x="1204" 
d="M629 143q130 0 202 52.5t72 150.5q0 44 -18 76t-41 53t-82 42t-103.5 32.5t-142.5 34.5q-218 51 -318 150.5t-100 281.5q0 91 31.5 170t90 139.5t150.5 95.5t205 35q59 0 113 -12t84.5 -26t57.5 -26t40 -12q20 0 31.5 12.5t26.5 45.5h121l14 -432h-158
q-43 151 -117.5 221.5t-205.5 70.5q-99 0 -162.5 -44t-63.5 -132q0 -38 15.5 -68t38 -50t64.5 -38t77.5 -28t95.5 -25q49 -12 81.5 -21t76 -22.5t72 -26t64.5 -30t59 -36.5t48.5 -44t41.5 -54t29.5 -64t19.5 -77.5t6 -91.5q0 -206 -137 -337.5t-355 -131.5q-67 0 -125.5 13
t-90.5 29t-62 29t-47 13q-22 0 -34 -16.5t-28 -62.5h-137l-20 487h159q43 -163 124 -244.5t237 -81.5zM557 -588l-47 60q66 54 94.5 94t28.5 82q0 43 -33 53l-59 -59q-36 12 -63 42t-27 72q0 60 42 95.5t103 35.5q78 0 118 -51.5t40 -122.5q0 -91 -47 -161.5t-150 -139.5z
" />
    <glyph glyph-name="scommaaccent" unicode="&#x219;" horiz-adv-x="956" 
d="M74 -10v342h127q25 -98 103.5 -155.5t195.5 -57.5q170 0 170 112q0 27 -11.5 47t-27 32t-47 22.5t-54.5 15t-67 12.5q-148 27 -213 56q-160 72 -169 257q-1 12 -1 25q0 157 108 254t273 97q99 0 192 -50q21 -12 43 -12q19 0 25.5 9.5t15.5 39.5h109v-317h-125
q-41 101 -100.5 147.5t-155.5 46.5q-66 0 -111 -26.5t-45 -79.5q0 -20 6 -36t23 -28.5t28.5 -19.5t43.5 -15.5t45.5 -11.5t54.5 -12q153 -29 221 -62q172 -81 172 -286q0 -168 -102.5 -263.5t-274.5 -95.5q-59 0 -112 12t-77.5 22.5t-62.5 29.5q-23 10 -38 10
q-17 0 -25.5 -12.5t-17.5 -48.5h-119zM434 -588l-47 60q66 54 94.5 94t28.5 82q0 43 -33 53l-59 -59q-36 12 -63 42t-27 72q0 60 42 95.5t103 35.5q78 0 118 -51.5t40 -122.5q0 -91 -47 -161.5t-150 -139.5z" />
    <glyph glyph-name="uni021A" unicode="&#x21a;" horiz-adv-x="1390" 
d="M1317 1434l20 -488h-149q-20 108 -40.5 168.5t-58.5 95.5t-84.5 44.5t-130.5 9.5h-10v-1092l199 -16v-156h-731v156l194 16v1092h-8q-83 0 -132.5 -12t-87 -48.5t-58.5 -96t-39 -161.5h-148l21 488h1243zM649 -588l-47 60q66 54 94.5 94t28.5 82q0 43 -33 53l-59 -59
q-36 12 -63 42t-27 72q0 60 42 95.5t103 35.5q78 0 118 -51.5t40 -122.5q0 -91 -47 -161.5t-150 -139.5z" />
    <glyph glyph-name="uni021B" unicode="&#x21b;" horiz-adv-x="884" 
d="M176 289v581h-153v156h153v256l201 41h117v-297h274v-156h-274v-587q0 -71 22.5 -104.5t75.5 -33.5q55 0 88 49.5t65 167.5l119 -30q-30 -176 -117 -265.5t-249 -89.5q-159 0 -240.5 74t-81.5 238zM397 -588l-47 60q66 54 94.5 94t28.5 82q0 43 -33 53l-59 -59
q-36 12 -63 42t-27 72q0 60 42 95.5t103 35.5q78 0 118 -51.5t40 -122.5q0 -91 -47 -161.5t-150 -139.5z" />
    <glyph glyph-name="dotlessj" unicode="&#x237;" horiz-adv-x="671" 
d="M63 -326q79 0 105.5 70t26.5 223v895l-152 15v137l469 16v-831q0 -108 -13.5 -199t-46.5 -172.5t-83.5 -137.5t-128.5 -89t-179 -33q-148 0 -227.5 61t-79.5 150q0 77 46.5 123.5t119.5 46.5q71 0 109.5 -36t38.5 -99q0 -4 -5 -39l-71 -15q-8 -16 -8 -34q0 -52 79 -52z
" />
    <glyph glyph-name="apostrophe" unicode="&#x2bc;" horiz-adv-x="432" 
d="M164 999l-47 60q66 54 94.5 94t28.5 82q0 43 -33 53l-60 -59q-36 12 -63 42t-27 72q0 60 42.5 96t103.5 36q78 0 117.5 -51.5t39.5 -123.5q0 -91 -46.5 -162t-149.5 -139z" />
    <glyph glyph-name="circumflex" unicode="&#x2c6;" horiz-adv-x="1024" 
d="M213 1180l199 329q13 10 49.5 21.5t66.5 11.5q44 0 70 -17t51 -61l156 -280l-68 -56l-227 177l-231 -181z" />
    <glyph glyph-name="caron" unicode="&#x2c7;" horiz-adv-x="1024" 
d="M412 1174l-201 331l65 56l234 -179l229 174l66 -53l-160 -280q-45 -78 -129 -78q-30 0 -60.5 9.5t-43.5 19.5z" />
    <glyph glyph-name="uni02C9" unicode="&#x2c9;" horiz-adv-x="1024" 
d="M233 1225v178h558v-178h-558z" />
    <glyph glyph-name="breve" unicode="&#x2d8;" horiz-adv-x="1024" 
d="M209 1475l92 20q29 -81 75 -115t140 -34q93 0 142 34.5t71 110.5l88 -14q-6 -64 -25.5 -118.5t-55.5 -100.5t-95 -72.5t-135 -26.5q-75 0 -131.5 26.5t-90.5 73t-52 100t-23 116.5z" />
    <glyph glyph-name="dotaccent" unicode="&#x2d9;" horiz-adv-x="1024" 
d="M326 1327q0 74 44 121t136 47q85 0 131.5 -41.5t46.5 -124.5q0 -79 -44 -124.5t-136 -45.5q-51 0 -87 14.5t-55 40t-27.5 53t-8.5 60.5z" />
    <glyph glyph-name="ring" unicode="&#x2da;" horiz-adv-x="1024" 
d="M418 1356q0 -44 22.5 -74.5t73.5 -30.5q47 0 68.5 29.5t21.5 75.5q0 44 -23 73t-71 29q-46 0 -69 -29.5t-23 -72.5zM287 1356q0 88 60 147.5t169 59.5q105 0 162 -55t57 -148q0 -96 -59.5 -155.5t-163.5 -59.5q-112 0 -168.5 57t-56.5 154z" />
    <glyph glyph-name="ogonek" unicode="&#x2db;" horiz-adv-x="1024" 
d="M535 35l94 -12l14 -13q-170 -154 -170 -272q0 -84 76 -84q24 0 45 12.5t32.5 25.5t30.5 38l80 -49q-84 -168 -266 -168q-102 0 -159.5 49t-57.5 137q0 52 24 101t71 93t86.5 73.5t99.5 68.5z" />
    <glyph glyph-name="tilde" unicode="&#x2dc;" horiz-adv-x="1024" 
d="M635 1190q-74 0 -182 47q-82 33 -121 33q-30 0 -53.5 -19t-45.5 -71l-69 22q35 132 86.5 191t138.5 59q16 0 30 -1t28.5 -4t23.5 -5t24.5 -8t21.5 -8.5t24 -10.5t24 -10q79 -31 121 -31q36 0 57.5 18t42.5 70l68 -20q-52 -252 -219 -252z" />
    <glyph glyph-name="hungarumlaut" unicode="&#x2dd;" horiz-adv-x="1024" 
d="M518 1165l127 389l98 27q51 12 87 -9t36 -67q0 -48 -49 -104l-229 -273zM190 1165l129 389l97 25q52 14 88.5 -7t36.5 -69t-49 -104l-232 -271z" />
    <glyph glyph-name="uni0394" unicode="&#x394;" horiz-adv-x="1404" 
d="M1384 0h-1364l582 1466h227zM637 1087l-334 -872h637l-297 872h-6z" />
    <glyph glyph-name="uni03A9" unicode="&#x3a9;" horiz-adv-x="1736" 
d="M971 0v193q107 117 162 254.5t55 336.5q0 95 -6.5 167t-25 142.5t-50.5 115.5t-85.5 72.5t-127.5 27.5q-77 0 -133 -27.5t-90 -73.5t-54 -118t-27 -147t-7 -175q0 -212 41.5 -336t128.5 -237v-195h-668l-25 477h131q19 -82 44 -130.5t69 -78t103 -39.5t155 -10h37v14
q-182 82 -282.5 219t-100.5 349q0 187 83 335.5t239 234t360 85.5q311 0 484 -170.5t173 -460.5q0 -97 -32.5 -186.5t-79.5 -153t-108.5 -118t-110.5 -85.5t-93 -51v-12h44q91 0 149.5 9.5t107 37t76 79t41.5 132.5h131l-24 -477h-684z" />
    <glyph glyph-name="uni03BC" unicode="&#x3bc;" horiz-adv-x="1239" 
d="M446 1026v-676q0 -108 32.5 -148t107.5 -40q79 0 132.5 60t53.5 169v617l305 18v-795q0 -58 9 -77t42 -19q26 0 66 12l29 -104q-32 -25 -87.5 -45.5t-119.5 -20.5q-100 0 -156 57t-55 175h-4q-14 -41 -25.5 -68t-32.5 -61t-44.5 -54t-59.5 -34.5t-80 -14.5
q-160 0 -201 189l-8 -2q17 -119 43.5 -278.5t32.5 -209.5q7 -53 -18.5 -85t-67.5 -37.5t-92 2.5l-105 22v1430z" />
    <glyph glyph-name="pi" unicode="&#x3c0;" horiz-adv-x="1253" 
d="M938 770h-59q-19 -192 -19 -307q0 -283 127 -283q83 0 117 123l84 -16q-48 -310 -254 -310q-109 0 -159 72.5t-50 190.5q0 54 5.5 119t10.5 105t21.5 151t23.5 161q-37 1 -169.5 10.5t-145.5 10.5q-3 -467 -37 -641q-10 -50 -28.5 -87t-42 -56t-46 -27.5t-45.5 -8.5
q-61 0 -96 31t-35 84q0 18 6.5 36.5t14 30t30.5 44.5t37 55q70 109 108 234t48 309q-20 0 -45.5 1t-28.5 1q-45 0 -70.5 -18t-52.5 -72l-84 18q39 179 93.5 254.5t150.5 75.5q52 0 320 -14.5t321 -14.5q36 0 58 18.5t43 69.5l84 -18q-39 -185 -89.5 -258.5t-146.5 -73.5z
" />
    <glyph glyph-name="Wgrave" unicode="&#x1e80;" horiz-adv-x="2060" 
d="M737 432l226 629l-82 199l-117 18v156h622v-156l-149 -18l301 -816h8l238 816l-150 18v156h424v-156l-114 -18l-373 -1260h-215l-309 827h-9l-295 -827h-217l-413 1260l-111 18v156h612v-156l-143 -18l258 -828h8zM1016 1884l260 -315l-51 -62l-316 160q-46 23 -66 46
t-20 59t29 60t74 34z" />
    <glyph glyph-name="wgrave" unicode="&#x1e81;" horiz-adv-x="1675" 
d="M8 885v141h514v-141l-96 -8l182 -578h8l162 436l-43 142l-88 8v141h488v-141l-101 -8l197 -580h8l158 580l-123 8v141h391v-141l-102 -8l-269 -877h-250l-188 520h-10l-193 -520h-233l-320 877zM899 1536l119 -377l-74 -37l-229 273q-43 50 -43 92q0 53 44 74t89 6z" />
    <glyph glyph-name="Wacute" unicode="&#x1e82;" horiz-adv-x="2060" 
d="M737 432l226 629l-82 199l-117 18v156h622v-156l-149 -18l301 -816h8l238 816l-150 18v156h424v-156l-114 -18l-373 -1260h-215l-309 827h-9l-295 -827h-217l-413 1260l-111 18v156h612v-156l-143 -18l258 -828h8zM846 1573l272 309l96 -22q49 -12 67.5 -32t18.5 -56
t-22 -60.5t-66 -46.5l-317 -154z" />
    <glyph glyph-name="wacute" unicode="&#x1e83;" horiz-adv-x="1675" 
d="M8 1026v-141l92 -8l320 -877h233l193 520h10l188 -520h250l269 877l102 8v141h-391v-141l123 -8l-158 -580h-8l-197 580l101 8v141h-488v-141l88 -8l43 -142l-162 -436h-8l-182 578l96 8v141h-514zM733 1167l135 369l99 27q49 14 87 -7t38 -69t-50 -101l-239 -260z" />
    <glyph glyph-name="Wdieresis" unicode="&#x1e84;" horiz-adv-x="2060" 
d="M737 432l226 629l-82 199l-117 18v156h622v-156l-149 -18l301 -816h8l238 816l-150 18v156h424v-156l-114 -18l-373 -1260h-215l-309 827h-9l-295 -827h-217l-413 1260l-111 18v156h612v-156l-143 -18l258 -828h8zM707 1702q0 57 37.5 98t103.5 41t105.5 -35t39.5 -104
q0 -65 -37 -105.5t-104 -40.5q-76 0 -110.5 42t-34.5 104zM1130 1702q0 57 38 98t104 41t105.5 -35t39.5 -104q0 -65 -37 -105.5t-104 -40.5q-76 0 -111 42.5t-35 103.5z" />
    <glyph glyph-name="wdieresis" unicode="&#x1e85;" horiz-adv-x="1675" 
d="M8 885v141h514v-141l-96 -8l182 -578h8l162 436l-43 142l-88 8v141h488v-141l-101 -8l197 -580h8l158 580l-123 8v141h391v-141l-102 -8l-269 -877h-250l-188 520h-10l-193 -520h-233l-320 877zM516 1339q0 58 37.5 99t103.5 41t106 -35.5t40 -104.5q0 -65 -37 -105
t-104 -40q-76 0 -111 42t-35 103zM940 1339q0 58 37.5 99t103.5 41t106 -35.5t40 -104.5q0 -65 -37.5 -105t-104.5 -40q-76 0 -110.5 42t-34.5 103z" />
    <glyph glyph-name="Ygrave" unicode="&#x1ef2;" horiz-adv-x="1318" 
d="M758 807l246 453l-144 14v160h457v-160l-121 -14l-358 -635v-453l174 -14v-158h-686v158l174 14v453l-375 635l-123 14v160h657v-160l-153 -14l246 -453h6zM588 1884l260 -315l-51 -62l-316 160q-46 23 -66 46t-20 59t29 60t74 34z" />
    <glyph glyph-name="ygrave" unicode="&#x1ef3;" horiz-adv-x="1105" 
d="M10 885v141h565v-141l-126 -8l182 -568h8l195 568l-125 8v141h393v-141l-103 -8l-366 -1008q-29 -80 -55 -130.5t-64 -92t-90.5 -60t-124.5 -18.5q-51 0 -97 12.5t-84 37t-60.5 67t-22.5 98.5q0 73 45.5 122.5t124.5 49.5q70 0 109 -42.5t38 -127.5l-92 -43
q-3 -28 15 -44.5t53 -16.5q51 0 81 41t68 149l58 164h-129l-304 842zM559 1536l119 -377l-74 -37l-229 273q-43 50 -43 92q0 53 44 74t89 6z" />
    <glyph glyph-name="thinspace" unicode="&#x2009;" horiz-adv-x="102" 
 />
    <glyph glyph-name="endash" unicode="&#x2013;" horiz-adv-x="1024" 
d="M41 492v120h942v-120h-942z" />
    <glyph glyph-name="emdash" unicode="&#x2014;" horiz-adv-x="2048" 
d="M41 492v120h1966v-120h-1966z" />
    <glyph glyph-name="quoteleft" unicode="&#x2018;" horiz-adv-x="514" 
d="M375 1565l49 -74q-174 -107 -174 -207q0 -49 33 -63l65 65q38 -16 67 -52t29 -85q0 -66 -45 -105.5t-114 -39.5q-84 0 -130 56t-46 136q0 218 266 369z" />
    <glyph glyph-name="quoteright" unicode="&#x2019;" horiz-adv-x="534" 
d="M162 907l-49 74q174 105 174 207q0 49 -33 63l-66 -65q-38 16 -67 52t-29 85q0 66 45.5 105.5t116.5 39.5q83 0 128.5 -56.5t45.5 -135.5q0 -220 -266 -369z" />
    <glyph glyph-name="quotesinglbase" unicode="&#x201a;" horiz-adv-x="536" 
d="M174 -319l-51 73q174 105 174 207q0 51 -33 64l-63 -66q-39 16 -69 51.5t-30 85.5q0 66 46 106t116 40q84 0 130 -56.5t46 -136.5q0 -217 -266 -368z" />
    <glyph glyph-name="quotedblleft" unicode="&#x201c;" horiz-adv-x="921" 
d="M377 1565l49 -74q-174 -107 -174 -207q0 -49 33 -63l65 65q38 -16 67 -52t29 -85q0 -66 -45 -105.5t-114 -39.5q-84 0 -130 56t-46 136q0 218 266 369zM780 1565l51 -74q-174 -105 -174 -207q0 -50 33 -63l64 65q39 -16 68.5 -51.5t29.5 -85.5q0 -66 -45.5 -105.5
t-116.5 -39.5q-84 0 -130 56t-46 136q0 218 266 369z" />
    <glyph glyph-name="quotedblright" unicode="&#x201d;" horiz-adv-x="935" 
d="M162 907l-49 74q174 105 174 207q0 49 -33 63l-66 -65q-38 16 -67 52t-29 85q0 66 45.5 105.5t116.5 39.5q83 0 128.5 -56.5t45.5 -135.5q0 -220 -266 -369zM563 907l-49 74q174 107 174 207q0 49 -33 63l-65 -65q-38 16 -67 52t-29 85q0 66 45 105.5t114 39.5
q84 0 130 -56t46 -136q0 -218 -266 -369z" />
    <glyph glyph-name="quotedblbase" unicode="&#x201e;" horiz-adv-x="933" 
d="M174 -319l-51 73q174 105 174 207q0 51 -33 64l-63 -66q-39 16 -69 51.5t-30 85.5q0 66 46 106t116 40q84 0 130 -56.5t46 -136.5q0 -217 -266 -368zM571 -319l-49 73q174 107 174 207q0 50 -32 64l-66 -66q-38 16 -67 52t-29 85q0 66 45.5 106t114.5 40q84 0 130 -56.5
t46 -136.5q0 -217 -267 -368z" />
    <glyph glyph-name="dagger" unicode="&#x2020;" horiz-adv-x="1052" 
d="M696 713v-13q-2 -3 -14 -26.5t-15 -29t-13.5 -28t-14 -33t-12.5 -35t-12 -41.5t-9 -45t-8.5 -54t-4.5 -59.5t-3 -69.5l-10 -525h-105l-8 527q-1 72 -7 130t-20.5 104t-24 69.5t-31 64t-26.5 51.5v13q39 48 77 126.5t48 137.5q-54 -3 -142.5 -41.5t-131.5 -38.5
q-53 0 -87 31t-34 90q0 57 34.5 86t82.5 29q52 0 138 -43.5t144 -45.5q-3 66 -43.5 157t-40.5 138q0 56 35.5 92.5t102.5 36.5q61 0 92 -36.5t31 -92.5q0 -45 -22.5 -91.5t-46 -98t-26.5 -107.5q57 4 148.5 47.5t138.5 43.5q43 0 76 -29t33 -86q0 -59 -32 -90t-79 -31
t-137.5 38.5t-143.5 41.5q7 -55 46 -136.5t77 -127.5z" />
    <glyph glyph-name="daggerdbl" unicode="&#x2021;" horiz-adv-x="1144" 
d="M745 786v-12q-3 -3 -15.5 -17.5t-16 -18.5t-15 -17.5t-16.5 -20.5t-14.5 -20t-16 -23t-14 -23t-14.5 -26q51 -95 118 -168v-12q-51 -51 -82 -94.5t-43 -95.5q54 3 143 42t132 39q52 0 86.5 -31.5t34.5 -90.5q0 -56 -35 -85.5t-82 -29.5q-52 0 -138.5 44t-144.5 46
q3 -66 43.5 -157t40.5 -138q0 -56 -33.5 -92.5t-99.5 -36.5q-63 0 -95 36.5t-32 92.5q0 36 14 73.5t31 65t32 70t17 86.5q-57 -4 -148 -47t-138 -43q-43 0 -76 29.5t-33 85.5q0 61 32 91.5t79 30.5t137 -39t143 -42q-11 35 -34 72.5t-42 60t-51 57.5v12q81 85 123 168
q-16 35 -38 67t-37.5 50t-43.5 49v12q103 100 125 191q-54 -3 -142.5 -41.5t-131.5 -38.5q-53 0 -87 31t-34 90q0 57 34.5 86t82.5 29q52 0 138 -43.5t144 -45.5q-3 66 -43 157t-40 138q0 56 35 92.5t102 36.5q61 0 92 -36.5t31 -92.5q0 -45 -22.5 -91.5t-46 -98
t-26.5 -107.5q57 4 148.5 47.5t138.5 43.5q43 0 76 -29t33 -86q0 -59 -32 -90t-79 -31t-137.5 38.5t-143.5 41.5q4 -15 10.5 -29.5t11.5 -25.5t16 -26.5t15.5 -22.5t18.5 -24t17 -20.5t20 -22t18 -20.5z" />
    <glyph glyph-name="bullet" unicode="&#x2022;" horiz-adv-x="808" 
d="M111 582q0 127 76 208.5t214 81.5q135 0 216 -72t81 -216q0 -134 -75.5 -215.5t-214.5 -81.5q-65 0 -116.5 17t-84.5 45t-55.5 66.5t-31.5 80t-9 86.5z" />
    <glyph glyph-name="ellipsis" unicode="&#x2026;" horiz-adv-x="1679" 
d="M1190 162q0 80 49.5 131t138.5 51t141 -44.5t52 -133.5q0 -85 -49.5 -135.5t-139.5 -50.5q-101 0 -146.5 53t-45.5 129zM645 162q0 80 50 131t139 51t140.5 -44.5t51.5 -133.5q0 -85 -49 -135.5t-139 -50.5q-100 0 -146.5 53t-46.5 129zM109 162q0 80 49.5 131t138.5 51
t140.5 -44.5t51.5 -133.5q0 -85 -49 -135.5t-139 -50.5q-101 0 -146.5 53t-45.5 129z" />
    <glyph glyph-name="perthousand" unicode="&#x2030;" horiz-adv-x="2265" 
d="M1554 264q0 141 90.5 223t237.5 82q141 0 227 -71t86 -217q0 -147 -91 -225.5t-230 -78.5q-156 0 -238 77t-82 210zM1763 266q0 -97 27.5 -144.5t87.5 -47.5q61 0 85 50t24 152t-25.5 148.5t-81.5 46.5q-61 0 -89 -49t-28 -156zM852 264q0 141 90.5 223t237.5 82
q141 0 227 -71t86 -217q0 -147 -91.5 -225.5t-230.5 -78.5q-156 0 -237.5 77t-81.5 210zM1061 266q0 -97 27.5 -144.5t87.5 -47.5q61 0 84.5 50t23.5 152q0 103 -25 149t-81 46q-61 0 -89 -49t-28 -156zM82 825q0 141 90.5 223t237.5 82q141 0 227 -71t86 -217
q0 -147 -91.5 -225t-230.5 -78q-156 0 -237.5 76.5t-81.5 209.5zM291 827q0 -97 27.5 -144.5t87.5 -47.5q61 0 84.5 50.5t23.5 152.5t-25 148t-81 46q-61 0 -89 -49t-28 -156zM375 0l680 1100h135l-678 -1100h-137z" />
    <glyph glyph-name="guilsinglleft" unicode="&#x2039;" horiz-adv-x="647" 
d="M96 557l353 283l73 -76l-219 -291l215 -319l-76 -70l-313 264q-68 55 -68 115q0 7 1 15t2.5 13.5t4.5 13.5t4.5 11.5t5.5 11.5t5.5 10t6.5 10t5 9z" />
    <glyph glyph-name="guilsinglright" unicode="&#x203a;" horiz-adv-x="649" 
d="M551 367l-352 -283l-74 74l219 293l-215 317l76 72l313 -265q68 -57 68 -116q0 -42 -35 -92z" />
    <glyph glyph-name="fraction" unicode="&#x2044;" horiz-adv-x="409" 
d="M-305 -23l889 1479h137l-887 -1479h-139z" />
    <glyph glyph-name="zerosuperior" unicode="&#x2070;" horiz-adv-x="854" 
d="M43 1237q0 225 105 332.5t280 107.5q85 0 153 -24t120.5 -74t81 -135t28.5 -201t-29 -201.5t-81.5 -136t-120.5 -74.5t-152 -24q-201 0 -293 114.5t-92 315.5zM315 1241q0 -136 10 -206.5t34 -100t69 -29.5q35 0 56 14.5t33.5 54.5t17 101t4.5 166q0 131 -11.5 204
t-35 102.5t-64.5 29.5q-62 0 -87.5 -72t-25.5 -264z" />
    <glyph glyph-name="foursuperior" unicode="&#x2074;" horiz-adv-x="792" 
d="M256 819v127l137 12v103h-348v141l358 463h236v-463h123v-141h-125v-105l102 -10v-127h-483zM162 1202h231v287h-6z" />
    <glyph glyph-name="fivesuperior" unicode="&#x2075;" horiz-adv-x="737" 
d="M311 1237q-64 0 -141 -55l-70 22l52 459l28 20q26 -3 179.5 -13.5t187.5 -12.5q30 -1 42.5 11t20.5 46l64 -6q-15 -150 -44.5 -207t-92.5 -57q-27 0 -70 12l-227 72l-37 -236q87 62 205 62q137 0 207.5 -68t70.5 -180q0 -142 -113.5 -220.5t-291.5 -78.5
q-134 0 -192 50.5t-58 125.5q0 51 32.5 90t94.5 39q55 0 81.5 -28.5t26.5 -73.5q0 -15 -8 -47h-53q-15 -18 -16 -35.5t20.5 -31t64.5 -13.5q138 0 138 190q0 86 -23.5 125t-77.5 39z" />
    <glyph glyph-name="sixsuperior" unicode="&#x2076;" horiz-adv-x="747" 
d="M385 899q54 0 75 44.5t21 141.5q0 80 -17 118t-65 38q-32 0 -57.5 -16t-36.5 -41q-16 -39 -16 -101q0 -92 19.5 -138t76.5 -46zM469 1599q-89 0 -140.5 -94.5t-56.5 -253.5q24 36 78 66.5t127 30.5q106 0 174 -58.5t68 -185.5q0 -137 -96.5 -217t-241.5 -80
q-157 0 -245.5 98.5t-88.5 282.5q0 233 109 361t293 128q112 0 174.5 -45.5t62.5 -130.5q0 -42 -27.5 -74t-80.5 -32q-50 0 -78.5 27.5t-28.5 72.5q0 1 6 43l49 4q14 29 -2.5 43t-54.5 14z" />
    <glyph glyph-name="sevensuperior" unicode="&#x2077;" horiz-adv-x="671" 
d="M152 944q0 60 38.5 123t141.5 170l211 219h-256q-48 0 -72.5 -3.5t-42 -19t-24.5 -36t-17 -64.5h-92l16 332h619v-123q-194 -336 -243.5 -440t-49.5 -172q0 -39 22 -82l-45 -43q-60 -4 -102.5 7.5t-64 34.5t-30.5 46.5t-9 50.5z" />
    <glyph glyph-name="eightsuperior" unicode="&#x2078;" horiz-adv-x="755" 
d="M281 1262q-111 7 -170.5 60.5t-59.5 133.5q0 101 86 161t244 60t243 -54.5t85 -154.5q0 -79 -63.5 -138t-164.5 -68v-5q124 -4 190 -61.5t66 -151.5q0 -111 -98 -174t-258 -63q-172 0 -264 59t-92 174q0 93 68.5 152t187.5 65v5zM381 1219q-92 0 -92 -164
q0 -78 19.5 -121t72.5 -43q90 0 90 162q0 81 -20 123.5t-70 42.5zM305 1444q0 -139 76 -139q41 0 56.5 35.5t15.5 105.5q0 73 -15 109t-57 36q-76 0 -76 -147z" />
    <glyph glyph-name="ninesuperior" unicode="&#x2079;" horiz-adv-x="751" 
d="M367 1585q-52 0 -73.5 -44t-21.5 -138q0 -82 16.5 -121t63.5 -39q66 0 97 60q16 36 16 94q0 94 -20.5 141t-77.5 47zM305 807q-118 0 -180 45t-62 127q0 49 29.5 82t85.5 33q49 0 77 -27.5t28 -73.5q0 -19 -7 -43l-47 -4q-10 -17 -10 -26q0 -35 66 -35q91 0 142 96
t54 252q-24 -37 -73.5 -66.5t-122.5 -29.5q-51 0 -94 13.5t-79 42t-56.5 79t-20.5 119.5q0 131 94 208.5t238 77.5q161 0 249.5 -99.5t88.5 -283.5q0 -237 -107 -362t-293 -125z" />
    <glyph glyph-name="plussuperior" unicode="&#x207a;" horiz-adv-x="724" 
d="M655 1196h-247v-244h-101v244h-237v86h237v229h101v-229h247v-86z" />
    <glyph glyph-name="minussuperior" unicode="&#x207b;" horiz-adv-x="724" 
d="M655 1196h-585v86h585v-86z" />
    <glyph glyph-name="equalsuperior" unicode="&#x207c;" horiz-adv-x="724" 
d="M655 1305h-585v86h585v-86zM655 1085h-585v86h585v-86z" />
    <glyph glyph-name="parenleftsuperior" unicode="&#x207d;" horiz-adv-x="456" 
d="M63 1217q0 72 19.5 139t39 110t76.5 110t83.5 93t108.5 104q3 4 5.5 6.5t5.5 4.5l54 -33q-144 -256 -144 -518q0 -281 140 -547l-54 -39q-62 57 -100.5 95t-88.5 98t-77.5 112t-47.5 122t-20 143z" />
    <glyph glyph-name="parenrightsuperior" unicode="&#x207e;" horiz-adv-x="456" 
d="M387 1219q0 -53 -10 -102.5t-22.5 -87.5t-42 -84t-49 -73t-65.5 -75t-69 -70t-80 -76l-55 33q145 247 145 518q0 283 -139 547l51 37q64 -58 102 -95t88.5 -97t78 -111.5t47.5 -121t20 -142.5z" />
    <glyph glyph-name="zeroinferior" unicode="&#x2080;" horiz-adv-x="854" 
d="M43 141q0 225 105 333t280 108q85 0 153 -24t120.5 -74t81 -135.5t28.5 -201.5t-29 -201.5t-81.5 -136t-120.5 -74.5t-152 -24q-201 0 -293 114.5t-92 315.5zM315 145q0 -136 10 -206.5t34 -99.5t69 -29q47 0 70 29.5t32 98t9 207.5q0 131 -11.5 204t-35 102.5
t-64.5 29.5q-62 0 -87.5 -72t-25.5 -264z" />
    <glyph glyph-name="oneinferior" unicode="&#x2081;" horiz-adv-x="641" 
d="M219 410l-151 -13l-13 123l279 49h145v-706l131 -10v-129h-540v126l149 13v547z" />
    <glyph glyph-name="twoinferior" unicode="&#x2082;" horiz-adv-x="724" 
d="M272 498q-43 0 -60 -18.5t-5 -47.5h45q8 -32 8 -51q0 -48 -27.5 -76.5t-87.5 -28.5q-57 0 -83.5 34t-26.5 79q0 81 78 137t235 56q158 0 237 -64.5t79 -161.5q0 -36 -10 -69t-24 -59t-44 -55.5t-54.5 -50t-72 -51t-80 -50t-94.5 -54.5l-101 -57v-6h224q87 0 123 29t51 90
h98l-8 -299h-637v155l164 156q106 101 149 169.5t43 155.5q0 71 -32 104.5t-87 33.5z" />
    <glyph glyph-name="threeinferior" unicode="&#x2083;" horiz-adv-x="733" 
d="M281 -207q75 0 114 45.5t39 122.5q0 107 -88 170q-54 -13 -115 -18l-16 82q103 14 142.5 51.5t39.5 124.5q0 64 -29.5 96.5t-80.5 32.5q-48 0 -63.5 -21.5t-4.5 -54.5h51q9 -36 9 -49q0 -47 -29 -74t-88 -27q-57 0 -86 33t-29 80q0 80 82 137.5t236 57.5q146 0 218 -52
t72 -141q0 -70 -56.5 -123.5t-152.5 -75.5v-4q120 -6 187 -58.5t67 -150.5q0 -71 -33.5 -124t-91.5 -83t-127 -44.5t-149 -14.5q-146 0 -209 49.5t-63 128.5q0 50 33 88.5t94 38.5q56 0 82 -27.5t26 -72.5q0 -19 -8 -47h-53q-14 -31 2.5 -53.5t77.5 -22.5z" />
    <glyph glyph-name="fourinferior" unicode="&#x2084;" horiz-adv-x="792" 
d="M256 -276v126l137 13v102h-348v141l358 463h236v-463h123v-141h-125v-104l102 -11v-126h-483zM162 106h231v287h-6z" />
    <glyph glyph-name="fiveinferior" unicode="&#x2085;" horiz-adv-x="737" 
d="M311 141q-64 0 -141 -55l-70 23l52 458l28 21q27 -3 181 -14t186 -13q30 -1 42.5 11t20.5 46l64 -6q-15 -150 -44.5 -207t-92.5 -57q-27 0 -70 12l-227 72l-37 -235q85 61 205 61q137 0 207.5 -68t70.5 -180q0 -142 -113.5 -220.5t-291.5 -78.5q-134 0 -192 50.5
t-58 125.5q0 51 32.5 90t94.5 39q55 0 81.5 -28.5t26.5 -73.5q0 -15 -8 -47h-53q-15 -18 -16 -35.5t20.5 -31t64.5 -13.5q138 0 138 190q0 86 -23.5 125t-77.5 39z" />
    <glyph glyph-name="sixinferior" unicode="&#x2086;" horiz-adv-x="747" 
d="M385 -197q54 0 75 44.5t21 142.5q0 80 -17 117.5t-65 37.5q-32 0 -57.5 -16t-36.5 -41q-16 -39 -16 -100q0 -92 19.5 -138.5t76.5 -46.5zM469 504q-89 0 -140.5 -94.5t-56.5 -253.5q24 35 78 65.5t127 30.5q106 0 174 -58.5t68 -185.5q0 -137 -96.5 -217t-241.5 -80
q-157 0 -245.5 98.5t-88.5 282.5q0 233 109 361.5t293 128.5q112 0 174.5 -45.5t62.5 -130.5q0 -42 -27.5 -74.5t-80.5 -32.5q-50 0 -78.5 27.5t-28.5 72.5q0 1 6 43l49 4q14 29 -2.5 43.5t-54.5 14.5z" />
    <glyph glyph-name="seveninferior" unicode="&#x2087;" horiz-adv-x="671" 
d="M152 -152q0 60 38.5 123t141.5 170l211 219h-256q-48 0 -72.5 -3.5t-42 -18.5t-24.5 -35.5t-17 -64.5h-92l16 331h619v-123q-194 -336 -243.5 -440t-49.5 -172q0 -39 22 -82l-45 -43q-60 -4 -102.5 7.5t-64 34.5t-30.5 46.5t-9 50.5z" />
    <glyph glyph-name="eightinferior" unicode="&#x2088;" horiz-adv-x="755" 
d="M281 166q-111 7 -170.5 60.5t-59.5 133.5q0 101 86 161.5t244 60.5t243 -54.5t85 -154.5q0 -79 -63.5 -138.5t-164.5 -68.5v-4q124 -4 190 -61.5t66 -151.5q0 -111 -98 -174.5t-258 -63.5q-172 0 -264 59.5t-92 174.5q0 93 68.5 152t187.5 65v4zM381 123q-92 0 -92 -164
q0 -78 19.5 -121t72.5 -43q90 0 90 162q0 81 -20 123.5t-70 42.5zM305 348q0 -139 76 -139q41 0 56.5 35.5t15.5 105.5q0 73 -15.5 109.5t-56.5 36.5q-76 0 -76 -148z" />
    <glyph glyph-name="nineinferior" unicode="&#x2089;" horiz-adv-x="751" 
d="M367 489q-52 0 -73.5 -44t-21.5 -138q0 -82 16.5 -121t63.5 -39q66 0 97 60q16 36 16 94q0 94 -20.5 141t-77.5 47zM305 -289q-118 0 -180 45t-62 127q0 49 29.5 82t85.5 33q49 0 77 -27t28 -73q0 -18 -7 -43l-47 -5q-10 -17 -10 -26q0 -35 66 -35q91 0 142 96t54 252
q-24 -37 -73.5 -66.5t-122.5 -29.5q-51 0 -94 13.5t-79 42t-56.5 79t-20.5 119.5q0 131 94 209t238 78q161 0 249.5 -99.5t88.5 -283.5q0 -237 -107 -362.5t-293 -125.5z" />
    <glyph glyph-name="parenleftinferior" unicode="&#x208d;" horiz-adv-x="456" 
d="M63 121q0 72 19.5 139t39 110t76.5 110t83.5 93t108.5 104q3 4 5.5 6.5t5.5 4.5l54 -33q-144 -256 -144 -518q0 -281 140 -547l-54 -39q-62 57 -100.5 95t-88.5 98t-77.5 112t-47.5 122t-20 143z" />
    <glyph glyph-name="parenrightinferior" unicode="&#x208e;" horiz-adv-x="456" 
d="M387 123q0 -72 -19.5 -139t-39 -110t-76.5 -110t-83.5 -93t-108.5 -104l-11 -11l-55 32q145 247 145 518q0 283 -139 547l51 37q64 -58 102 -95t88.5 -97t78 -111.5t47.5 -121t20 -142.5z" />
    <glyph glyph-name="Euro" unicode="&#x20ac;" horiz-adv-x="1177" 
d="M23 379v96h145q-4 42 0 129h-121v94h135q43 203 182.5 319t337.5 116q65 0 116 -14.5t81.5 -29t46.5 -14.5q22 0 43 41h92l15 -350h-129q-31 123 -87.5 179t-148.5 56q-98 0 -152 -74t-71 -229h348v-94h-356v-129h311v-96h-303q16 -135 69.5 -202.5t159.5 -67.5
q102 0 157 60t89 169h127l-12 -344h-99q-10 23 -19.5 33t-27.5 10t-53 -15t-90.5 -30t-124.5 -15q-199 0 -331.5 105.5t-172.5 296.5h-157z" />
    <glyph glyph-name="afii61352" unicode="&#x2116;" horiz-adv-x="1931" 
d="M1122 940v-940h-256l-465 778h-8v-612l131 -12v-154h-430v154l115 12v774l-115 12v156h467l371 -643h8v475l-113 12v156h408v-156zM1219 657q0 143 86.5 222t220.5 79q60 0 111 -15.5t93 -47.5t65.5 -88.5t23.5 -132.5t-25 -135t-67.5 -94t-95.5 -52.5t-113 -17.5
q-143 0 -221 75t-78 207zM1413 659q0 -170 109 -170q102 0 102 181q0 170 -100 170q-111 0 -111 -181zM1270 133v156h504v-156h-504z" />
    <glyph glyph-name="trademark" unicode="&#x2122;" horiz-adv-x="1912" 
d="M776 1327l10 -248h-67q-11 58 -23.5 91t-35.5 50.5t-48.5 22t-72.5 4.5h-15v-594l105 -10v-74h-375v74l106 10v594h-14q-48 0 -74 -4.5t-49 -22t-36 -50.5t-23 -91h-68l13 248h667zM1497 1327h309v-74l-82 -8v-594l82 -12v-70h-327v70l80 12v582h-5l-200 -664h-125
l-223 666h-5v-584l74 -12v-70h-237v70l69 12v594l-69 8v74h305l180 -555h4z" />
    <glyph glyph-name="Omega" unicode="&#x2126;" horiz-adv-x="1736" 
d="M971 0v193q107 117 162 254.5t55 336.5q0 95 -6.5 167t-25 142.5t-50.5 115.5t-85.5 72.5t-127.5 27.5q-77 0 -133 -27.5t-90 -73.5t-54 -118t-27 -147t-7 -175q0 -212 41.5 -336t128.5 -237v-195h-668l-25 477h131q19 -82 44 -130.5t69 -78t103 -39.5t155 -10h37v14
q-182 82 -282.5 219t-100.5 349q0 187 83 335.5t239 234t360 85.5q311 0 484 -170.5t173 -460.5q0 -97 -32.5 -186.5t-79.5 -153t-108.5 -118t-110.5 -85.5t-93 -51v-12h44q91 0 149.5 9.5t107 37t76 79t41.5 132.5h131l-24 -477h-684z" />
    <glyph glyph-name="onethird" unicode="&#x2153;" horiz-adv-x="1843" 
d="M221 1284l-151 -12l-13 123l279 49h145v-707l131 -10v-129h-540v127l149 12v547zM377 -23l889 1479h137l-887 -1479h-139zM1360 70q75 0 114 45.5t39 122.5q0 107 -88 170q-61 -15 -114 -19l-17 82q104 14 143.5 51.5t39.5 124.5q0 64 -30 96.5t-81 32.5
q-48 0 -63.5 -21.5t-4.5 -54.5h52q8 -32 8 -49q0 -46 -29 -73t-88 -27q-57 0 -86 33t-29 80q0 80 82 137t236 57q147 0 219 -51.5t72 -140.5q0 -70 -56.5 -123.5t-152.5 -75.5v-4q120 -6 187 -58.5t67 -150.5q0 -71 -33.5 -124t-92 -83t-127.5 -44.5t-149 -14.5
q-146 0 -209 49.5t-63 128.5q0 50 33 88.5t94 38.5q56 0 82 -27.5t26 -72.5q0 -20 -8 -48h-53q-14 -31 2 -53t78 -22z" />
    <glyph glyph-name="twothirds" unicode="&#x2154;" horiz-adv-x="1843" 
d="M309 1372q-43 0 -60 -18t-5 -47h45q8 -32 8 -52q0 -104 -115 -104q-57 0 -83.5 34t-26.5 79q0 81 78 136.5t235 55.5q158 0 236.5 -64t78.5 -161q0 -36 -10 -69t-24 -59t-43.5 -55.5t-54.5 -50.5t-72 -51t-80 -49.5t-94 -54.5l-101 -58v-6h223q87 0 123 29t51 90h99
l-8 -299h-637v156l164 155q106 101 149 170t43 156q0 137 -119 137zM422 -23l889 1479h137l-887 -1479h-139zM1352 70q75 0 114 45.5t39 122.5q0 107 -88 170q-61 -15 -114 -19l-17 82q103 14 142.5 51.5t39.5 124.5q0 64 -29.5 96.5t-80.5 32.5q-48 0 -63.5 -21.5
t-4.5 -54.5h51q9 -36 9 -49q0 -46 -29 -73t-88 -27q-57 0 -86 33t-29 80q0 80 82 137t236 57q147 0 218.5 -51.5t71.5 -140.5q0 -70 -56 -123.5t-152 -75.5v-4q120 -6 187 -58.5t67 -150.5q0 -71 -33.5 -124t-92 -83t-127.5 -44.5t-149 -14.5q-146 0 -209 49.5t-63 128.5
q0 50 33 88.5t94 38.5q56 0 82 -27.5t26 -72.5q0 -20 -8 -48h-53q-14 -31 2 -53t78 -22z" />
    <glyph glyph-name="oneeighth" unicode="&#x215b;" horiz-adv-x="1843" 
d="M260 1284l-151 -12l-13 123l279 49h145v-707l131 -10v-129h-540v127l149 12v547zM358 -23l889 1479h137l-886 -1479h-140zM1272 442q-111 7 -170.5 61t-59.5 134q0 101 86 161t244 60t243 -54.5t85 -154.5q0 -80 -63 -139t-164 -68v-4q124 -4 190 -61.5t66 -151.5
q0 -111 -98.5 -174t-258.5 -63q-172 0 -264 59t-92 174q0 93 68.5 152t187.5 65v4zM1372 399q-92 0 -92 -163q0 -78 19.5 -121t72.5 -43q90 0 90 161q0 81 -20 123.5t-70 42.5zM1296 625q0 -65 19 -102.5t57 -37.5q41 0 56.5 36t15.5 106q0 73 -15 109t-57 36
q-76 0 -76 -147z" />
    <glyph glyph-name="threeeighths" unicode="&#x215c;" horiz-adv-x="1843" 
d="M317 668q75 0 114.5 46t39.5 122q0 107 -88 170q-60 -15 -115 -19l-16 82q103 14 142.5 51.5t39.5 124.5q0 64 -29.5 96.5t-80.5 32.5q-48 0 -63.5 -21.5t-4.5 -54.5h51q8 -32 8 -49q0 -47 -28.5 -73.5t-87.5 -26.5q-57 0 -86 33t-29 80q0 80 81.5 137t235.5 57
q147 0 219 -51.5t72 -140.5q0 -70 -56.5 -123.5t-152.5 -75.5v-4q120 -6 187 -58.5t67 -150.5q0 -71 -33.5 -124t-91.5 -83t-127 -44.5t-149 -14.5q-146 0 -209.5 49.5t-63.5 128.5q0 50 33 88.5t94 38.5q57 0 83 -27.5t26 -72.5q0 -20 -8 -48h-53q-6 -18 -6.5 -35
t21.5 -28.5t64 -11.5zM387 -23l889 1479h137l-887 -1479h-139zM1305 442q-111 7 -170.5 61t-59.5 134q0 101 86 161t244 60t243 -54.5t85 -154.5q0 -79 -63.5 -138.5t-164.5 -68.5v-4q124 -4 190 -61.5t66 -151.5q0 -111 -98 -174t-258 -63q-172 0 -264 59t-92 174
q0 93 68.5 152t187.5 65v4zM1405 399q-92 0 -92 -163q0 -78 19.5 -121t72.5 -43q90 0 90 161q0 81 -20 123.5t-70 42.5zM1329 625q0 -65 19 -102.5t57 -37.5q41 0 56.5 36t15.5 106q0 73 -15 109t-57 36q-76 0 -76 -147z" />
    <glyph glyph-name="fiveeighths" unicode="&#x215d;" horiz-adv-x="1843" 
d="M342 1016q-64 0 -141 -55l-70 22l51 459l29 20q26 -3 179.5 -13.5t187.5 -12.5q30 -1 42.5 11t20.5 46l64 -6q-15 -149 -45 -206.5t-93 -57.5q-25 0 -69 12l-228 72l-37 -236q87 62 205 62q137 0 208 -68t71 -180q0 -142 -114 -220.5t-292 -78.5q-134 0 -192 50.5
t-58 125.5q0 51 32.5 90t94.5 39q55 0 82 -29t27 -74q0 -15 -8 -47h-53q-15 -18 -16 -35.5t20.5 -30.5t64.5 -13q73 0 105 48.5t32 141.5q0 86 -23.5 125t-76.5 39zM371 -23l889 1479h137l-887 -1479h-139zM1298 442q-111 7 -170 61t-59 134q0 101 86 161t244 60
t242.5 -54.5t84.5 -154.5q0 -80 -63 -139t-164 -68v-4q124 -4 190 -61.5t66 -151.5q0 -111 -98 -174t-258 -63q-172 0 -264.5 59.5t-92.5 173.5q0 93 68.5 152t187.5 65v4zM1399 399q-92 0 -92 -163q0 -78 19.5 -121t72.5 -43q90 0 90 161q0 81 -20 123.5t-70 42.5z
M1323 625q0 -65 19 -102.5t57 -37.5q41 0 56 36t15 106q0 73 -15 109t-56 36q-76 0 -76 -147z" />
    <glyph glyph-name="seveneighths" unicode="&#x215e;" horiz-adv-x="1843" 
d="M217 723q0 60 38.5 123t141.5 170l211 219h-256q-48 0 -72.5 -3.5t-41.5 -19t-24 -35.5t-17 -65h-93l17 332h618v-123q-194 -336 -243.5 -440t-49.5 -172q0 -37 23 -82l-45 -43q-60 -4 -103 7.5t-64 34.5t-30.5 47t-9.5 50zM291 -23l889 1479h137l-887 -1479h-139z
M1266 442q-111 7 -170.5 61t-59.5 134q0 101 86 161t244 60t243 -54.5t85 -154.5q0 -79 -63.5 -138.5t-164.5 -68.5v-4q124 -4 190 -61.5t66 -151.5q0 -111 -98 -174t-258 -63q-172 0 -264 59t-92 174q0 93 68.5 152t187.5 65v4zM1366 399q-92 0 -92 -163q0 -78 19.5 -121
t72.5 -43q90 0 90 161q0 81 -20 123.5t-70 42.5zM1290 625q0 -65 19 -102.5t57 -37.5q41 0 56.5 36t15.5 106q0 73 -15 109t-57 36q-76 0 -76 -147z" />
    <glyph glyph-name="partialdiff" unicode="&#x2202;" horiz-adv-x="1148" 
d="M571 684q-76 0 -127.5 -55t-72.5 -132.5t-21 -168.5q0 -111 35.5 -165t116.5 -54q64 0 112.5 37t74 94t38 114t12.5 109q0 221 -168 221zM567 1257q-66 0 -102.5 -22.5t-26.5 -77.5l78 -18q2 -89 -37.5 -139t-120.5 -50q-62 0 -104.5 37t-42.5 109q0 63 27.5 113t69.5 80
t97 50t105 27.5t98 7.5q229 0 356.5 -142.5t127.5 -428.5q0 -80 -9.5 -159t-31 -161.5t-54.5 -155.5t-83 -137.5t-112 -111.5t-146.5 -74t-182.5 -27q-201 0 -308.5 99.5t-107.5 275.5q0 211 120.5 345t332.5 134q207 0 276 -165q23 138 23 249q0 166 -61.5 254t-180.5 88z
" />
    <glyph glyph-name="Delta" unicode="&#x2206;" horiz-adv-x="1404" 
d="M1384 0h-1364l582 1466h227zM637 1087l-334 -872h637l-297 872h-6z" />
    <glyph glyph-name="product" unicode="&#x220f;" horiz-adv-x="1613" 
d="M84 1434h1446v-156l-135 -14v-1401l135 -17v-155h-606v155l133 17v1392h-500v-1392l135 -17v-155h-608v155l135 17v1399l-135 14v158z" />
    <glyph glyph-name="summation" unicode="&#x2211;" horiz-adv-x="1300" 
d="M1184 -309h-1149l-60 100l521 723l-531 827l58 93h1099l17 -459h-144q-16 77 -37 127t-48.5 84.5t-72 52t-97.5 24.5t-134 7h-219l385 -635l-504 -694h342q85 0 146.5 7t108.5 26t77 44t53 69t36 93.5t26 124.5h143z" />
    <glyph glyph-name="minus" unicode="&#x2212;" horiz-adv-x="1085" 
d="M1008 565h-930v119h930v-119z" />
    <glyph glyph-name="uni2215" unicode="&#x2215;" horiz-adv-x="409" 
d="M-291 0l862 1434h138l-861 -1434h-139z" />
    <glyph glyph-name="uni2219" unicode="&#x2219;" horiz-adv-x="595" 
d="M119 639q0 80 49.5 132t138.5 52t141 -44.5t52 -133.5q0 -85 -49.5 -135.5t-139.5 -50.5q-101 0 -146.5 52t-45.5 128z" />
    <glyph glyph-name="radical" unicode="&#x221a;" horiz-adv-x="1120" 
d="M1092 1524l-344 -1524h-144l-356 752l-146 -68l-32 82l329 162l312 -703l288 1315z" />
    <glyph glyph-name="infinity" unicode="&#x221e;" horiz-adv-x="1318" 
d="M1217 494q0 -113 -78.5 -182.5t-184.5 -69.5q-80 0 -146.5 33t-162.5 126q-162 -159 -303 -159q-112 0 -176 67t-64 176q0 66 24.5 119t64 85t86 48.5t94.5 16.5q72 0 139 -34t166 -128q74 68 154 108.5t147 40.5q112 0 176 -62t64 -185zM1094 496q0 65 -36 103t-95 38
q-94 0 -220 -119q74 -81 121 -112t105 -31t91.5 34.5t33.5 86.5zM362 350q49 0 97 29t114 94q-81 76 -132 112t-93 36q-54 0 -87.5 -35.5t-33.5 -89.5q0 -67 36 -106.5t99 -39.5z" />
    <glyph glyph-name="integral" unicode="&#x222b;" horiz-adv-x="968" 
d="M561 1165q0 -53 10.5 -132.5t29.5 -198.5t28 -187q51 -386 51 -567q0 -161 -59 -279q-56 -107 -159 -170t-241 -63q-147 0 -229 68t-82 184q0 78 47 131t133 53q64 0 100.5 -37.5t36.5 -97.5q0 -29 -6 -59l-84 -9q-14 -28 -14 -59q0 -66 88 -66q87 0 138.5 67t51.5 177
q0 62 -10.5 146t-33 225t-35.5 239q-37 308 -37 428q0 149 37 256q45 135 150.5 213t272.5 78q147 0 229.5 -68t82.5 -184q0 -78 -47.5 -131t-135.5 -53q-63 0 -100 37.5t-37 97.5q0 33 8 60l84 8q15 37 15 59q0 30 -22.5 48t-65.5 18q-93 -1 -144 -62t-51 -170z" />
    <glyph glyph-name="approxequal" unicode="&#x2248;" horiz-adv-x="980" 
d="M743 541q-18 0 -36.5 1t-42 4.5t-37 5.5t-44 8.5t-37.5 7.5t-43 9.5t-38 8.5q-19 4 -65.5 15t-79 16.5t-62.5 5.5q-36 0 -62 -20t-57 -77l-67 25q37 131 92 197.5t141 66.5q19 0 40.5 -2t37 -4t42 -7t37.5 -7.5t42.5 -9.5t38.5 -9q8 -2 33.5 -7.5t34.5 -7.5t31 -6.5
t34.5 -6.5t31 -4.5t34.5 -3.5t32 -1q42 0 63 18t48 72l71 -18q-63 -270 -213 -270zM743 172q-18 0 -36.5 1t-42 4.5t-37 5.5t-44 8.5t-37.5 7.5t-43 9.5t-38 8.5q-19 4 -65.5 15t-79 16.5t-62.5 5.5q-37 0 -62.5 -19.5t-56.5 -76.5l-67 24q37 131 92 197.5t141 66.5
q69 0 238 -38q8 -2 33.5 -7.5t34.5 -7.5t31 -6.5t34.5 -6.5t31 -4.5t34.5 -3.5t32 -1q42 0 63 18t48 72l71 -19q-63 -270 -213 -270z" />
    <glyph glyph-name="notequal" unicode="&#x2260;" 
d="M1079 338h-594l-209 -248l-81 72l147 176h-192v119h292l170 200h-462v119h561l176 207l84 -72l-115 -135h223v-119h-323l-170 -200h493v-119z" />
    <glyph glyph-name="lessequal" unicode="&#x2264;" 
d="M1079 0h-929v119h929v-119zM1077 123l-925 397v158l925 391v-133l-794 -334l794 -338v-141z" />
    <glyph glyph-name="greaterequal" unicode="&#x2265;" 
d="M1079 0h-929v119h929v-119zM1077 520l-925 -397v141l794 338l-794 334v133l925 -391v-158z" />
    <glyph glyph-name="triangle" unicode="&#x25b3;" horiz-adv-x="870" 
d="M307 416v473l379 -234z" />
    <glyph glyph-name="lozenge" unicode="&#x25ca;" 
d="M1028 635l-414 -660l-415 660l415 659zM870 633l-260 430l-256 -426l267 -436z" />
    <glyph glyph-name="circle" unicode="&#x25cb;" horiz-adv-x="1249" 
d="M205 602q0 173 123.5 296.5t296.5 123.5t296 -123.5t123 -296.5t-123 -296.5t-296 -123.5t-296.5 123.5t-123.5 296.5z" />
    <glyph glyph-name="ae.smcp" unicode="&#xf61f;" horiz-adv-x="1806" 
d="M512 1100h1163l15 -371h-134q-17 75 -35.5 116.5t-52.5 66t-77.5 31.5t-120.5 7h-133v-342h37q80 0 110 28.5t49 123.5h109v-455h-113q-9 56 -20.5 87.5t-32.5 48.5t-44.5 21.5t-66.5 4.5h-28v-313h129q74 0 122.5 8.5t82.5 25t55 51t34 76t25 111.5l135 4l-14 -430h-985
v139l102 15v313h-317l-193 -317l123 -13v-137h-426v137l107 13l499 806l-104 15v129zM823 950h-37l-204 -346h241v346z" />
    <glyph glyph-name="oe.smcp" unicode="&#xf621;" horiz-adv-x="1867" 
d="M973 1100h762l14 -371h-133q-14 60 -29 97.5t-35 63.5t-52 38t-70.5 17t-100.5 5h-133v-321h37q80 0 110.5 28.5t49.5 122.5h108v-454h-112q-9 56 -20.5 87.5t-32.5 48t-44.5 21t-66.5 4.5h-29v-333h129q92 0 146 11t90 45t52.5 81.5t31.5 134.5l135 4l-15 -430h-792v104
q-117 -127 -344 -127q-270 0 -409.5 148t-139.5 422q0 260 154 417.5t413 157.5q108 0 194 -36.5t132 -100.5v115zM881 555q0 88 -5 152t-19.5 121.5t-39.5 92.5t-65.5 55.5t-96.5 20.5q-58 0 -99 -20.5t-66 -55.5t-39.5 -93.5t-19.5 -123t-5 -155.5q0 -85 5 -146.5
t19 -120.5t39 -95.5t66.5 -58.5t99.5 -22q56 0 96.5 20.5t65.5 55.5t39.5 93.5t19.5 123.5t5 156z" />
    <glyph glyph-name="germandbls.smcp" unicode="&#xf637;" horiz-adv-x="2056" 
d="M549 129q99 0 154 34t55 95q0 29 -11 49.5t-32 35.5t-61 28t-87 23.5t-121 26.5q-4 1 -6 1q-184 38 -268 120.5t-84 227.5q0 153 108.5 252.5t297.5 99.5q64 0 117.5 -16t84 -31.5t41.5 -15.5q18 0 27.5 12t19.5 39h119l12 -338h-153q-37 102 -96 153.5t-166 51.5
q-72 0 -121 -29.5t-49 -89.5q0 -25 11.5 -44t29.5 -32t48.5 -24.5t60.5 -19.5t74 -19q6 -1 9 -2q61 -14 100 -25t88 -28t79.5 -35t62.5 -45.5t49.5 -60.5t29 -77.5t11.5 -99.5q0 -164 -112 -266.5t-275 -102.5q-81 0 -142.5 17t-96.5 34t-50 17q-18 0 -27 -13.5t-24 -54.5
h-135l-17 377h156q33 -110 100.5 -167.5t188.5 -57.5zM1550 129q99 0 154 34t55 95q0 24 -6 42t-25 33t-38 24.5t-61.5 21.5t-77.5 20t-104 22q-3 1 -5 1q-184 38 -268 120.5t-84 227.5q0 153 108 252.5t297 99.5q64 0 117.5 -16t84.5 -31.5t42 -15.5q18 0 27.5 12t19.5 39
h119l12 -338h-154q-37 102 -96 153.5t-166 51.5q-72 0 -121 -29.5t-49 -89.5q0 -30 16 -52t48 -37t69.5 -26t90.5 -24q7 -1 10 -2q61 -14 100 -25t88 -28t79.5 -35t62.5 -45.5t49.5 -60.5t29 -77.5t11.5 -99.5q0 -164 -112 -266.5t-276 -102.5q-63 0 -116 10.5t-80.5 23.5
t-52.5 23.5t-39 10.5q-18 0 -27.5 -14t-24.5 -54h-135l-16 377h156q33 -110 100 -167.5t188 -57.5z" />
    <glyph glyph-name="ordfeminine.smcp" unicode="&#xf640;" horiz-adv-x="862" 
d="M365 874h106v107q0 81 -27 121.5t-98 40.5q-31 0 -52.5 -11t-21.5 -34q0 -11 2 -15h60q8 -40 8 -55q0 -47 -31 -76.5t-92 -29.5t-92 35t-31 85q0 87 81 138t233 51q161 0 243 -58.5t82 -203.5v-273q0 -38 7 -52.5t30 -14.5q20 0 41 8l25 -82q-28 -19 -81.5 -37
t-109.5 -18q-73 0 -112.5 28.5t-47.5 77.5q-19 -39 -67.5 -71.5t-136.5 -32.5q-98 0 -160 44t-62 136q0 110 75.5 151t228.5 41zM393 612q38 0 58 24t20 85v80h-47q-56 0 -76 -21t-20 -73q0 -95 65 -95z" />
    <glyph glyph-name="ordmasculine.smcp" unicode="&#xf641;" horiz-adv-x="884" 
d="M557 862q0 157 -22 216t-93 59q-69 0 -92.5 -59.5t-23.5 -205.5q0 -156 23.5 -215t94.5 -59q65 0 89 59.5t24 204.5zM47 862q0 168 102.5 268.5t296.5 100.5q201 0 295.5 -97.5t94.5 -265.5q0 -169 -101 -267.5t-297 -98.5q-200 0 -295.5 96.5t-95.5 263.5z" />
    <glyph glyph-name="questiondown.smcp" unicode="&#xf642;" horiz-adv-x="915" 
d="M465 -25q-199 0 -293 74.5t-94 196.5q0 75 27 133.5t90 114.5l292 260v55h95v-289q0 -29 -19 -45l-125 -115q-50 -45 -69 -78t-19 -75q0 -131 170 -131q74 0 102.5 27.5t12.5 72.5h-66q-12 46 -12 64q0 55 37 92t108 37q69 0 102.5 -43t33.5 -103q0 -103 -98 -175.5
t-275 -72.5zM674 995q0 -55 -36 -92t-101 -37q-64 0 -102 32t-38 93q0 60 35.5 95.5t102.5 35.5q71 0 105 -37t34 -90z" />
    <glyph glyph-name="percent.smcp" unicode="&#xf69e;" horiz-adv-x="1560" 
d="M852 264q0 140 90.5 222.5t235.5 82.5q141 0 227 -71t86 -217q0 -147 -91.5 -225.5t-230.5 -78.5q-154 0 -235.5 77t-81.5 210zM1059 266q0 -192 115 -192q63 0 86.5 50t23.5 152t-26 148.5t-82 46.5q-60 0 -88.5 -49t-28.5 -156zM82 825q0 140 90.5 222.5t235.5 82.5
q141 0 227 -71t86 -217q0 -147 -91.5 -225t-230.5 -78q-155 0 -236 77t-81 209zM289 827q0 -97 27.5 -144.5t86.5 -47.5q61 0 86 51t25 152q0 102 -26 148t-82 46q-60 0 -88.5 -49t-28.5 -156zM373 0l680 1100h137l-678 -1100h-139z" />
    <glyph glyph-name="perthousand.smcp" unicode="&#xf69f;" horiz-adv-x="2265" 
d="M1554 264q0 141 90.5 223t237.5 82q141 0 227 -71t86 -217q0 -147 -91 -225.5t-230 -78.5q-156 0 -238 77t-82 210zM1763 266q0 -97 27.5 -144.5t87.5 -47.5q61 0 85 50t24 152t-25.5 148.5t-81.5 46.5q-61 0 -89 -49t-28 -156zM852 264q0 141 90.5 223t237.5 82
q141 0 227 -71t86 -217q0 -147 -91.5 -225.5t-230.5 -78.5q-156 0 -237.5 77t-81.5 210zM1061 266q0 -97 27.5 -144.5t87.5 -47.5q61 0 84.5 50t23.5 152q0 103 -25 149t-81 46q-61 0 -89 -49t-28 -156zM82 825q0 141 90.5 223t237.5 82q141 0 227 -71t86 -217
q0 -147 -91.5 -225t-230.5 -78q-156 0 -237.5 76.5t-81.5 209.5zM291 827q0 -97 27.5 -144.5t87.5 -47.5q61 0 84.5 50.5t23.5 152.5t-25 148t-81 46q-61 0 -89 -49t-28 -156zM375 0l680 1100h135l-678 -1100h-137z" />
    <glyph glyph-name="asterisk.smcp" unicode="&#xf6a9;" horiz-adv-x="999" 
d="M911 1061l-333 -76l235 -70q24 -7 38 -12t32 -15.5t26.5 -26.5t8.5 -38q0 -81 -123 -133l-238 232l66 -322q-63 -49 -123 -49q-39 0 -63.5 20.5t-24.5 55.5q0 41 16 90l68 207l-234 -234q-49 19 -87 53t-38 80q0 40 28 60t81 35l225 67l-328 74q-6 30 -6 65q0 45 22.5 83
t65.5 38q20 0 38 -8.5t29.5 -18t39.5 -34.5l164 -148l-64 324q63 49 121 49q40 0 64 -21t24 -55q0 -40 -20 -104l-62 -195l160 150q61 61 112 61q44 0 66.5 -34t22.5 -87q0 -33 -9 -63z" />
    <glyph glyph-name="quoteleft.smcp" unicode="&#xf6aa;" horiz-adv-x="526" 
d="M369 1442l49 -74q-174 -107 -174 -207q0 -49 32 -63l66 65q38 -16 67 -52t29 -85q0 -66 -45 -105.5t-114 -39.5q-84 0 -130.5 56.5t-46.5 135.5q0 218 267 369z" />
    <glyph glyph-name="quoteright.smcp" unicode="&#xf6ab;" horiz-adv-x="526" 
d="M143 784l-49 74q174 107 174 207q0 49 -32 63l-66 -65q-38 16 -67 52t-29 85q0 66 45 106t114 40q84 0 130.5 -57t46.5 -136q0 -218 -267 -369z" />
    <glyph glyph-name="quotedblleft.smcp" unicode="&#xf6ac;" horiz-adv-x="927" 
d="M369 1442l49 -74q-174 -107 -174 -207q0 -49 32 -63l66 65q38 -16 67 -52t29 -85q0 -66 -45 -105.5t-114 -39.5q-84 0 -130.5 56.5t-46.5 135.5q0 218 267 369zM770 1442l49 -74q-174 -107 -174 -207q0 -49 33 -63l65 65q38 -16 67.5 -52t29.5 -85q0 -66 -45.5 -105.5
t-114.5 -39.5q-84 0 -130 56t-46 136q0 218 266 369z" />
    <glyph glyph-name="quotedblright.smcp" unicode="&#xf6ad;" horiz-adv-x="921" 
d="M143 784l-49 74q174 107 174 207q0 49 -32 63l-66 -65q-38 16 -67 52t-29 85q0 66 45 106t114 40q84 0 130.5 -57t46.5 -136q0 -218 -267 -369zM539 784l-50 74q175 108 175 207q0 49 -33 63l-66 -65q-38 16 -67 52t-29 85q0 66 45.5 106t114.5 40q84 0 130 -56.5
t46 -136.5q0 -218 -266 -369z" />
    <glyph glyph-name="one.alt" unicode="&#xf801;" horiz-adv-x="1638" 
d="M184 614q0 132 45.5 249.5t127.5 204t203.5 137t264.5 50.5q159 0 282.5 -49.5t200 -137.5t115.5 -202.5t39 -249.5q0 -134 -42.5 -250t-121.5 -203.5t-202 -137.5t-275 -50q-156 0 -279 50t-200 137.5t-117.5 202t-40.5 249.5zM573 862l175 12v-522l-160 -12v-94h499v94
l-153 12v649h-90l-279 -36z" />
    <glyph glyph-name="two.alt" unicode="&#xf802;" horiz-adv-x="1638" 
d="M184 616q0 132 45.5 249t127.5 203.5t203.5 136.5t264.5 50q159 0 282.5 -49.5t200 -137t115.5 -201.5t39 -249q0 -134 -42.5 -250t-121.5 -203.5t-202 -137.5t-275 -50q-156 0 -279 50t-200 137.5t-117.5 202t-40.5 249.5zM762 928q143 0 143 -152q0 -45 -15.5 -87.5
t-55 -94t-115.5 -111t-187 -125.5v-110h631l11 295h-87q-16 -85 -53 -118.5t-135 -33.5h-190v6q207 107 303 195t96 188q0 48 -14 88t-46 75t-91.5 55t-141.5 20q-130 0 -225.5 -62t-95.5 -170q0 -50 26 -81t78 -31q44 0 71 21t27 55q0 32 -12 67h-45q-26 54 15 82.5
t108 28.5z" />
    <glyph glyph-name="three.alt" unicode="&#xf803;" horiz-adv-x="1638" 
d="M184 616q0 132 45.5 249t127.5 203.5t203.5 136.5t264.5 50q159 0 282.5 -49.5t200 -137t115.5 -201.5t39 -249q0 -134 -42.5 -250t-121.5 -203.5t-202 -137.5t-275 -50q-156 0 -279 50t-200 137.5t-117.5 202t-40.5 249.5zM1145 457q0 91 -62 137.5t-192 58.5v2
q203 49 203 187q0 84 -64.5 130t-187.5 46t-209 -52t-86 -143q0 -49 27 -73.5t75 -24.5q38 0 65 22t27 64q0 19 -8 55h-53q-11 29 17.5 47.5t88.5 18.5q57 0 86 -29.5t29 -81.5q0 -76 -51 -112t-158 -45l8 -78q100 11 136 18q50 -19 77 -53t27 -96q0 -68 -44 -106t-128 -38
q-55 0 -86 10t-35.5 25t2.5 33h60q8 21 8 45q0 42 -27.5 70t-73.5 28q-51 0 -82.5 -30.5t-31.5 -81.5q0 -87 80.5 -134t216.5 -47q57 0 115 12.5t111 38t86.5 71.5t33.5 106z" />
    <glyph glyph-name="four.alt" unicode="&#xf804;" horiz-adv-x="1638" 
d="M184 616q0 132 45.5 249t127.5 203.5t203.5 136.5t264.5 50q159 0 282.5 -49.5t200 -137t115.5 -201.5t39 -249q0 -134 -42.5 -250t-121.5 -203.5t-202 -137.5t-275 -50q-156 0 -279 50t-200 137.5t-117.5 202t-40.5 249.5zM1020 248v151h127v129h-127v473h-176
l-400 -473v-129h392v-151h184zM836 528h-271l264 310h7v-310z" />
    <glyph glyph-name="five.alt" unicode="&#xf805;" horiz-adv-x="1638" 
d="M184 616q0 132 45.5 249t127.5 203.5t203.5 136.5t264.5 50q159 0 282.5 -49.5t200 -137t115.5 -201.5t39 -249q0 -134 -42.5 -250t-121.5 -203.5t-202 -137.5t-275 -50q-156 0 -279 50t-200 137.5t-117.5 202t-40.5 249.5zM799 645q123 0 123 -149q0 -99 -49 -142
t-140 -43q-61 0 -83 17t-5 51h57q9 30 9 49q0 43 -28 67.5t-73 24.5q-48 0 -80 -29.5t-32 -80.5q0 -93 75 -137t189 -44q165 0 264.5 73t99.5 206q0 44 -11.5 81.5t-38 73t-80 56t-128.5 20.5q-105 0 -200 -55l28 164h269q64 0 88.5 42.5t44.5 149.5l-58 9
q-10 -27 -22 -38.5t-35 -11.5h-344l-23 -12l-41 -383l48 -18q102 59 176 59z" />
    <glyph glyph-name="six.alt" unicode="&#xf806;" horiz-adv-x="1638" 
d="M184 616q0 132 45.5 249t127.5 203.5t203.5 136.5t264.5 50q159 0 282.5 -49.5t200 -137t115.5 -201.5t39 -249q0 -134 -42.5 -250t-121.5 -203.5t-202 -137.5t-275 -50q-156 0 -279 50t-200 137.5t-117.5 202t-40.5 249.5zM688 461q0 80 35 125t106 45q111 0 111 -154
q0 -164 -123 -164q-129 0 -129 148zM889 936q50 0 74 -13.5t16 -45.5l-53 -7q0 -3 -3 -17.5t-3 -21.5q0 -41 26 -63.5t70 -22.5t72 28.5t28 78.5q0 77 -66 122.5t-173 45.5q-167 0 -274 -119.5t-107 -333.5q0 -169 84 -253.5t233 -84.5q146 0 231.5 70t85.5 184
q0 117 -71.5 175.5t-171.5 58.5q-133 0 -205 -92q1 156 57.5 233.5t149.5 77.5z" />
    <glyph glyph-name="seven.alt" unicode="&#xf807;" horiz-adv-x="1638" 
d="M184 616q0 132 45.5 249t127.5 203.5t203.5 136.5t264.5 50q159 0 282.5 -49.5t200 -137t115.5 -201.5t39 -249q0 -134 -42.5 -250t-121.5 -203.5t-202 -137.5t-275 -50q-156 0 -279 50t-200 137.5t-117.5 202t-40.5 249.5zM651 350q0 -53 48.5 -88t121.5 -29l60 54
q-21 38 -21 82q0 45 17.5 92t72 144.5t185.5 312.5v75h-586l-8 -266h75q15 75 39.5 94t112.5 19h246l-94 -97q-126 -139 -179.5 -206t-71.5 -105t-18 -82z" />
    <glyph glyph-name="eight.alt" unicode="&#xf808;" horiz-adv-x="1638" 
d="M184 616q0 132 45.5 249t127.5 203.5t203.5 136.5t264.5 50q159 0 282.5 -49.5t200 -137t115.5 -201.5t39 -249q0 -134 -42.5 -250t-121.5 -203.5t-202 -137.5t-275 -50q-156 0 -279 50t-200 137.5t-117.5 202t-40.5 249.5zM735 639v-8q-113 -6 -178 -58.5t-65 -138.5
q0 -104 85 -157.5t242 -53.5q147 0 237.5 57.5t90.5 157.5q0 85 -63 136t-181 57v8q96 7 156.5 59t60.5 125q0 91 -77 141t-224 50q-143 0 -222 -55t-79 -148q0 -73 56 -119.5t161 -52.5zM819 598q-66 0 -98.5 -41t-32.5 -108q0 -146 131 -146q129 0 129 141q0 154 -129 154
zM705 801q0 -131 114 -131q111 0 111 135q0 64 -24.5 95.5t-86.5 31.5q-114 0 -114 -131z" />
    <glyph glyph-name="nine.alt" unicode="&#xf809;" horiz-adv-x="1638" 
d="M184 616q0 132 45.5 249t127.5 203.5t203.5 136.5t264.5 50q159 0 282.5 -49.5t200 -137t115.5 -201.5t39 -249q0 -134 -42.5 -250t-121.5 -203.5t-202 -137.5t-275 -50q-156 0 -279 50t-200 137.5t-117.5 202t-40.5 249.5zM950 782q0 -166 -139 -166q-113 0 -113 146
q0 172 123 172q129 0 129 -152zM758 309q-56 0 -82 14.5t-17 47.5h58q4 28 4 45q0 39 -25.5 61.5t-68.5 22.5q-44 0 -73.5 -29t-29.5 -78q0 -78 68.5 -122t189.5 -44q176 0 268.5 110.5t92.5 311.5q0 190 -83.5 279.5t-234.5 89.5q-147 0 -232 -72.5t-85 -195.5
q0 -108 71.5 -164t174.5 -56q131 0 204 93q4 -152 -47.5 -233t-152.5 -81z" />
    <glyph glyph-name="s_t" unicode="&#xfb06;" horiz-adv-x="1787" 
d="M1079 289v581h-141v156h141v109q0 166 -50 243.5t-177 77.5q-108 0 -159.5 -51.5t-51.5 -132.5q0 -90 58 -158t147 -78v-317h-125q-40 105 -99.5 152t-156.5 47q-66 0 -113 -28t-47 -81q0 -20 6.5 -36.5t23 -28.5t30 -20t44 -16.5t46.5 -12t55 -11.5q153 -29 221 -62
q172 -81 172 -286q0 -168 -102.5 -263.5t-274.5 -95.5q-59 0 -112 12t-77.5 22.5t-62.5 29.5q-23 10 -38 10q-17 0 -25.5 -12.5t-17.5 -48.5h-119v342h127q25 -100 105 -159.5t198 -59.5q170 0 170 116q0 23 -7 41t-23 30.5t-31.5 21.5t-45 16.5t-48.5 11t-56 10.5
q-41 7 -58.5 10t-57.5 12t-59.5 17t-53 23t-51.5 31t-41 41t-34 53.5t-19.5 67t-8.5 83.5q0 157 108 254t273 97q52 0 96 -14t102.5 -46.5t63.5 -34.5l8 19q-113 59 -167 126t-54 169q0 63 24.5 120t72 103.5t127 74t181.5 27.5q482 0 482 -481v-86h274v-156h-274v-587
q0 -71 22.5 -104.5t75.5 -33.5q55 0 88.5 49.5t65.5 167.5l118 -30q-30 -176 -117 -265.5t-249 -89.5q-159 0 -240.5 74t-81.5 238z" />
    <glyph glyph-name="g.calt" horiz-adv-x="1044" 
d="M63 670q0 173 119.5 276t317.5 103q156 0 237 -58q33 82 91.5 123t121.5 41q37 0 74 -16v-191l-188 -18q116 -90 116 -252q0 -177 -119 -272t-317 -95q-78 0 -156 21q-28 -28 -39.5 -45t-11.5 -37q0 -25 20.5 -34t69.5 -9h226q91 0 159.5 -13t125 -44.5t86.5 -90
t30 -143.5q0 -83 -27.5 -145t-88 -108.5t-164.5 -70.5t-250 -24q-171 0 -273 24.5t-143 69.5t-41 117q0 96 106 174q-94 47 -94 143q0 71 40.5 124t160.5 147q-87 35 -138 113.5t-51 189.5zM614 -84h-354q-33 -53 -33 -96q0 -63 64.5 -87t230.5 -24q145 0 209 25.5t64 93.5
q0 54 -42 71t-139 17zM375 692q0 -132 30 -187.5t107 -55.5q72 0 101.5 56.5t29.5 190.5q0 127 -28.5 181.5t-100.5 54.5q-139 0 -139 -240z" />
    <glyph glyph-name="j.calt" horiz-adv-x="675" 
d="M29 -432l-21 106q100 24 145.5 91t45.5 202v895l-152 15v137l469 16v-909q0 -122 -24.5 -216t-79.5 -169t-151 -118t-232 -50zM133 1339q0 79 48 130t147 51q90 0 139 -45t49 -134q0 -82 -47.5 -131t-144.5 -49q-103 0 -147 52t-44 126z" />
    <glyph glyph-name="hyphen.case" horiz-adv-x="690" 
d="M102 598v178h486v-178h-486z" />
    <glyph glyph-name="idotaccent" horiz-adv-x="692" 
d="M137 1339q0 79 48 130t147 51q90 0 139 -45t49 -134q0 -82 -47.5 -131t-144.5 -49q-103 0 -147 52t-44 126zM49 1014l467 16v-874l156 -15v-141h-627v141l154 15v706l-150 15v137z" />
    <glyph glyph-name="s_p" horiz-adv-x="2142" 
d="M1356 1112v-231l12 -2q85 170 303 170q198 0 302 -133.5t104 -387.5q0 -259 -116.5 -405t-322.5 -146q-179 0 -270 105l-8 -2l8 -334l193 -16v-140h-633v144l123 14v1387q0 85 -8.5 140.5t-31 98.5t-64.5 62.5t-107 19.5q-108 0 -159.5 -51.5t-51.5 -132.5
q0 -89 63.5 -157t153.5 -79v-317h-125q-40 105 -99.5 152t-156.5 47q-66 0 -113 -28t-47 -81q0 -20 6.5 -36.5t23 -28.5t30 -20t44 -16.5t46.5 -12t55 -11.5q153 -29 221 -62q172 -81 172 -286q0 -168 -102.5 -263.5t-274.5 -95.5q-59 0 -112 12t-77.5 22.5t-62.5 29.5
q-23 10 -38 10q-17 0 -25.5 -12.5t-17.5 -48.5h-119v342h127q25 -100 105 -159.5t198 -59.5q170 0 170 116q0 23 -7 41t-23 30.5t-31.5 21.5t-45 16.5t-48.5 11t-56 10.5q-41 7 -58.5 10t-57.5 12t-59.5 17t-53 23t-51.5 31t-41 41t-34 53.5t-19.5 67t-8.5 83.5
q0 157 108 254t273 97q52 0 96 -14t102.5 -46.5t63.5 -34.5l8 19q-117 61 -175 128t-58 167q0 63 24.5 120t72 103.5t127 74t181.5 27.5q78 0 142 -13t123.5 -46t99.5 -86t64 -138.5t24 -197.5zM1559 885q-97 0 -147 -69t-50 -189v-273q0 -108 51 -168.5t141 -60.5
q108 0 146.5 90t38.5 299q0 77 -4 130.5t-15 102t-31 77t-52 45t-78 16.5z" />
    <glyph glyph-name="c_t" horiz-adv-x="1890" 
d="M1182 289v581h-154v156h154v168q0 37 -0.5 57t-2.5 52t-7 49t-13.5 40.5t-22 36t-32.5 25.5t-46 18t-61 5q-59 0 -103 -15t-69 -38t-40.5 -56.5t-20 -64.5t-4.5 -68q0 -103 39 -225q88 -38 133 -110t45 -159q0 -81 -45.5 -132.5t-126.5 -51.5q-73 0 -112.5 45t-39.5 109
q0 45 15 88h77l-30 104q-32 19 -86 19q-124 0 -181 -107.5t-57 -294.5q0 -190 49.5 -282.5t175.5 -92.5q37 0 68.5 12t53 29.5t41.5 46t31.5 51.5t25.5 56l147 -51q-13 -50 -39.5 -98.5t-74.5 -99.5t-128.5 -82.5t-181.5 -31.5q-243 0 -373.5 135.5t-130.5 374.5
q0 260 144 411t395 151q18 0 80 -5q-33 112 -33 193q0 71 23 132t70.5 112.5t132 81.5t196.5 30q94 0 167.5 -19t136.5 -64t97.5 -129.5t34.5 -204.5v-150h275v-156h-275v-587q0 -71 22.5 -104.5t75.5 -33.5q55 0 88.5 49.5t65.5 167.5l119 -30q-30 -175 -117.5 -265
t-249.5 -90q-159 0 -240 74t-81 238z" />
    <glyph glyph-name="c_h" horiz-adv-x="2291" 
d="M629 922q-124 0 -181 -107.5t-57 -294.5q0 -190 49.5 -282.5t175.5 -92.5q37 0 68.5 12t53 29.5t41.5 46t31.5 51.5t25.5 56l147 -51q-13 -50 -39.5 -98.5t-74.5 -99.5t-128.5 -82.5t-181.5 -31.5q-243 0 -373.5 135.5t-130.5 374.5q0 260 144 411t395 151q14 0 76 -5
q-29 95 -29 179q0 54 13.5 101t45.5 89.5t80 73t120 48t163 17.5q144 0 418 -16v-543l-8 -129h12q32 56 68.5 94t101 64.5t149.5 26.5q156 0 237 -79.5t81 -254.5v-557l129 -15v-143h-543v143l96 15v516q0 47 -4 76.5t-17 56t-39.5 39t-68.5 12.5q-88 0 -141 -57.5
t-53 -179.5v-463l104 -15v-143h-555v143l133 15v1231q-74 22 -153 22q-137 0 -192.5 -52.5t-55.5 -144.5q0 -87 37 -204q88 -38 133 -110t45 -159q0 -81 -45.5 -132.5t-126.5 -51.5q-73 0 -112.5 45t-39.5 109q0 45 15 88h77l-30 106q-33 17 -86 17z" />
    <glyph glyph-name="c_k" horiz-adv-x="2256" 
d="M629 922q-124 0 -181 -107.5t-57 -294.5q0 -190 49.5 -282.5t175.5 -92.5q37 0 68.5 12t53 29.5t41.5 46t31.5 51.5t25.5 56l147 -51q-13 -50 -39.5 -98.5t-74.5 -99.5t-128.5 -82.5t-181.5 -31.5q-243 0 -373.5 135.5t-130.5 374.5q0 260 144 411t395 151q14 0 76 -5
q-29 95 -29 179q0 54 13.5 101t45.5 89.5t80 73t120 48t163 17.5q173 0 399 -16v-1380l103 -15v-141h-551v141l131 15v1239q-66 16 -135 16q-137 0 -192.5 -52.5t-55.5 -144.5q0 -87 37 -204q88 -38 133 -110t45 -159q0 -81 -45.5 -132.5t-126.5 -51.5q-73 0 -112.5 45
t-39.5 109q0 45 15 88h77l-30 106q-33 17 -86 17zM1755 635l377 -479l98 -13v-143h-553v141l90 11v10l-292 373v38l352 297v13l-127 8v135h475v-139l-145 -15z" />
    <glyph glyph-name="T_h" horiz-adv-x="2703" 
d="M74 1434h1048q240 0 510 16v-457l-8 -129h12q31 56 68.5 94t102 64.5t149.5 26.5q156 0 236.5 -79.5t80.5 -254.5v-557l129 -15v-143h-542v143l96 15v516q0 47 -4 76.5t-17 56t-39.5 39t-68.5 12.5q-88 0 -141.5 -57.5t-53.5 -179.5v-463l105 -15v-143h-555v143l133 15
v1106h-451v-1092l199 -16v-156h-731v156l194 16v1092h-8q-83 0 -132.5 -12t-87 -48.5t-58.5 -96t-39 -161.5h-148z" />
    <glyph glyph-name="hyphensuperior" horiz-adv-x="477" 
d="M66 1169v127h346v-127h-346z" />
    <glyph glyph-name="commasuperior" horiz-adv-x="385" 
d="M139 608l-55 60q79 59 106 94.5t27 68.5q0 37 -29 48l-57 -56q-32 10 -57 38t-25 65q0 57 39 86.5t96 29.5q71 0 111.5 -42.5t40.5 -106.5q0 -77 -47 -145.5t-150 -139.5z" />
    <glyph glyph-name="periodsuperior" horiz-adv-x="372" 
d="M47 932q0 55 36 89t101 34q142 0 142 -121q0 -58 -36.5 -92.5t-101.5 -34.5q-75 0 -108 36.5t-33 88.5z" />
    </font>
</defs>
</svg>
