<svg width="46" height="46" viewBox="0 0 46 46" fill="none" xmlns="http://www.w3.org/2000/svg">
<g clip-path="url(#clip0)">
<path d="M0.00120519 33.1207C0.0249216 33.6808 0.392975 34.1677 0.925426 34.3434L8.99457 37.0053L11.6566 45.0745C11.8322 45.6069 12.3191 45.9749 12.8792 45.9987C13.4486 46.0222 13.9589 45.6891 14.1757 45.1812L22.7998 24.9684C23.2753 23.8538 22.1461 22.7248 21.0315 23.2001L0.818702 31.8242C0.30314 32.0443 -0.0224214 32.5606 0.00120519 33.1207Z" fill="black"/>
<path d="M22.9978 34.5909C29.3879 34.5909 34.5865 29.3923 34.5865 23.0022C34.5865 16.6122 29.3879 11.4135 22.9978 11.4135C16.6078 11.4135 11.4092 16.6122 11.4092 23.0022C11.4092 23.7464 10.8058 24.3498 10.0616 24.3498C9.31744 24.3498 8.71411 23.7464 8.71411 23.0022C8.71411 15.1262 15.1218 8.71851 22.9978 8.71851C30.8739 8.71851 37.2816 15.1262 37.2816 23.0022C37.2816 30.8783 30.8739 37.286 22.9978 37.286C22.2537 37.286 21.6503 36.6826 21.6503 35.9384C21.6503 35.1943 22.2537 34.5909 22.9978 34.5909Z" fill="black"/>
<path d="M22.9977 43.3044C34.1927 43.3044 43.3004 34.1967 43.3004 23.0018C43.3004 11.8068 34.1927 2.69909 22.9977 2.69909C11.8028 2.69909 2.69504 11.8068 2.69504 23.0018C2.69504 23.7459 2.09171 24.3493 1.34752 24.3493C0.60333 24.3493 0 23.7459 0 23.0018C0 16.8828 2.39877 11.1142 6.7545 6.75855C15.7649 -2.25197 30.2274 -2.25503 39.2409 6.75855C48.2514 15.769 48.2545 30.2315 39.2409 39.245C34.8853 43.6007 29.1166 45.9995 22.9977 45.9995C22.2535 45.9995 21.6502 45.3961 21.6502 44.6519C21.6502 43.9077 22.2535 43.3044 22.9977 43.3044Z" fill="black"/>
</g>
<defs>
<clipPath id="clip0">
<rect width="46" height="46" fill="white"/>
</clipPath>
</defs>
</svg>
