<svg width="46" height="46" viewBox="0 0 46 46" fill="none" xmlns="http://www.w3.org/2000/svg">
<path d="M44.6847 6.28862C44.008 5.61075 42.91 5.60958 42.2333 6.28575L21.4351 27.0291L13.9312 18.8791C13.2828 18.1752 12.1865 18.1296 11.4815 18.7779C10.777 19.4263 10.7319 20.5231 11.3803 21.2276L20.1065 30.7044C20.4261 31.0517 20.8733 31.2534 21.3449 31.2632C21.3576 31.2637 21.3698 31.2637 21.3819 31.2637C21.8402 31.2637 22.2811 31.0817 22.6059 30.7581L44.6813 8.74055C45.3597 8.06447 45.3609 6.96649 44.6847 6.28862Z" fill="black"/>
<path d="M44.2663 21.2663C43.3087 21.2663 42.5327 22.0424 42.5327 23C42.5327 33.7707 33.7707 42.5327 23 42.5327C12.2299 42.5327 3.46734 33.7707 3.46734 23C3.46734 12.2299 12.2299 3.46734 23 3.46734C23.9576 3.46734 24.7337 2.69127 24.7337 1.73371C24.7337 0.77607 23.9576 0 23 0C10.3177 0 0 10.3177 0 23C0 35.6818 10.3177 46 23 46C35.6818 46 46 35.6818 46 23C46 22.0424 45.2239 21.2663 44.2663 21.2663Z" fill="black"/>
</svg>
