<svg width="46" height="46" viewBox="0 0 46 46" fill="none" xmlns="http://www.w3.org/2000/svg">
<path d="M23 0C10.318 0 0 10.318 0 23C0 35.682 10.318 46 23 46C35.682 46 46 35.682 46 23C46 10.318 35.682 0 23 0ZM23 43.125C11.9029 43.125 2.87501 34.0971 2.87501 23C2.87501 11.9029 11.9029 2.87501 23 2.87501C34.0971 2.87501 43.125 11.9029 43.125 23C43.125 34.0971 34.0971 43.125 23 43.125Z" fill="black"/>
<path d="M24.4375 8.625H21.5625V23.5952L30.6086 32.6413L32.6413 30.6086L24.4375 22.4047V8.625Z" fill="black"/>
</svg>
