<svg width="622" height="323" viewBox="0 0 622 323" fill="none" xmlns="http://www.w3.org/2000/svg">
<path fill-rule="evenodd" clip-rule="evenodd" d="M329.315 14.4069C388.223 29.4132 425.41 81.4158 473.767 118.253C520.617 153.942 583.251 173.059 607.835 226.577C633.588 282.639 617.371 346.403 606.463 407.125C593.759 477.846 597.94 564.563 539.589 606.491C481.24 648.417 401.16 605.461 329.315 606.268C256.269 607.087 178.517 648.342 115.584 611.25C51.6608 573.574 31.4574 491.717 13.0194 419.845C-4.41083 351.901 -4.53209 282.264 13.8191 214.563C32.9801 143.874 57.4047 67.1775 119.249 27.9425C179.985 -10.5894 259.614 -3.34893 329.315 14.4069Z" fill="#15C6BF"/>
</svg>
