<svg width="44" height="121" viewBox="0 0 44 121" fill="none" xmlns="http://www.w3.org/2000/svg">
<path fill-rule="evenodd" clip-rule="evenodd" d="M1.49706 66.2958C0.167819 58.2382 1.55985 50.4949 2.90561 42.4469C4.86379 30.7367 2.49988 16.7801 11.1281 8.70032C20.0422 0.352767 34.6059 -2.02372 46.1463 1.95451C57.2329 5.77627 60.9278 19.1609 68.2408 28.3883C74.3246 36.0646 81.8924 42.2201 85.337 51.4043C89.3848 62.1968 92.8045 73.8885 89.4343 84.8956C85.7922 96.7908 77.2475 106.931 66.4712 113.019C55.5532 119.188 41.7112 123.369 30.1933 118.365C19.0901 113.541 16.4077 99.3664 10.5386 88.7171C6.55328 81.4856 2.84206 74.449 1.49706 66.2958Z" fill="#E2FFFE"/>
</svg>
