<svg width="533" height="435" viewBox="0 0 533 435" fill="none" xmlns="http://www.w3.org/2000/svg">
<path fill-rule="evenodd" clip-rule="evenodd" d="M251.834 496.283C323.185 502.046 355.939 404.89 401.417 349.61C434.755 309.087 459.708 266.181 480.701 218.09C504.279 164.076 539.82 111.316 530.862 53.0649C521.236 -9.53204 479.635 -62.3588 431.282 -103.261C380.058 -146.592 318.915 -184.238 251.834 -182.969C185.286 -181.71 121.316 -146.45 77.2533 -96.5634C37.7494 -51.8378 40.6355 12.6385 27.625 70.8766C16.1234 122.36 -12.0049 174.008 5.70599 223.699C23.2639 272.96 83.7877 287.968 118.836 326.784C168.172 381.423 178.455 490.356 251.834 496.283Z" fill="#FFD5CE"/>
</svg>
