<svg width="191" height="94" viewBox="0 0 191 94" fill="none" xmlns="http://www.w3.org/2000/svg">
<path fill-rule="evenodd" clip-rule="evenodd" d="M96.2791 -43.9951C109.169 -43.8359 120.819 -39.5139 132.956 -35.1797C150.615 -28.8731 172.959 -28.6934 183.135 -12.9769C193.647 3.26043 193.321 26.6647 183.952 43.5846C174.952 59.839 153.13 61.8967 136.77 70.7583C123.16 78.1302 111.504 88.2419 96.2791 91.0738C78.3882 94.4017 59.273 96.4992 43.0962 88.1824C25.6144 79.1946 12.213 63.037 5.72552 44.5181C-0.847296 25.7557 -3.52523 2.97779 7.4322 -13.6222C17.9951 -29.6246 40.7652 -29.882 58.9363 -36.0939C71.2755 -40.3121 83.2363 -44.1562 96.2791 -43.9951Z" fill="#E2FFFE"/>
</svg>
