<svg width="422" height="295" viewBox="0 0 422 295" fill="none" xmlns="http://www.w3.org/2000/svg">
<path fill-rule="evenodd" clip-rule="evenodd" d="M415.384 225.36C425.206 273.165 472.348 316.707 455.399 362.461C438.557 407.925 383.661 429.63 336.195 439.132C292.731 447.832 251.042 426.905 209.392 411.707C171.411 397.847 136.402 381.108 105.532 354.961C67.5086 322.755 19.3744 292.952 11.1144 243.762C2.64294 193.313 24.9638 137.264 63.3041 103.484C99.096 71.9489 155.657 93.839 200.292 77.085C244.84 60.3637 273.852 -1.91819 320.607 6.90446C366.711 15.6044 385.989 72.5483 404.691 115.656C419.678 150.199 407.805 188.469 415.384 225.36Z" fill="#FF7176"/>
</svg>
