<svg width="18" height="22" viewBox="0 0 18 22" fill="none" xmlns="http://www.w3.org/2000/svg">
<path d="M16.8572 7.85715H16.0714V7.07142C16.0714 3.16598 12.9055 0 9.00001 0C5.09457 0 1.92859 3.16598 1.92859 7.07142V7.85715H1.14291C0.708953 7.85715 0.357178 8.20893 0.357178 8.64288V21.2143C0.357178 21.6482 0.708953 22 1.14291 22H16.8572C17.2911 22 17.6429 21.6482 17.6429 21.2143V8.64284C17.6429 8.20893 17.2911 7.85715 16.8572 7.85715ZM11.2224 14.9188C10.985 15.5901 10.457 16.1181 9.78574 16.3554V18.0714C9.78574 18.5054 9.43397 18.8572 9.00001 18.8572C8.56606 18.8572 8.21428 18.5054 8.21428 18.0714V16.3554C6.98691 15.9215 6.34372 14.5747 6.77767 13.3474C7.21163 12.12 8.55837 11.4768 9.78574 11.9107C11.0131 12.3447 11.6563 13.6914 11.2224 14.9188ZM14.5 7.85715H3.50005V7.07142C3.50005 4.03384 5.96248 1.57141 9.00006 1.57141C12.0376 1.57141 14.5 4.03384 14.5 7.07142V7.85715Z" fill="#FFD5CE"/>
</svg>
