<svg width="18" height="19" viewBox="0 0 18 19" fill="none" xmlns="http://www.w3.org/2000/svg">
<path d="M12.8645 12.2046H12.0515L11.7633 11.9276C12.7719 10.7584 13.3791 9.24035 13.3791 7.58901C13.3791 3.90684 10.3842 0.922119 6.68954 0.922119C2.99485 0.922119 0 3.90684 0 7.58901C0 11.2712 2.99485 14.2559 6.68954 14.2559C8.34648 14.2559 9.86964 13.6508 11.0429 12.6456L11.3208 12.9328V13.7431L16.4666 18.8612L18 17.3329L12.8645 12.2046ZM6.68954 12.2046C4.12693 12.2046 2.05832 10.1429 2.05832 7.58901C2.05832 5.03508 4.12693 2.97347 6.68954 2.97347C9.25214 2.97347 11.3208 5.03508 11.3208 7.58901C11.3208 10.1429 9.25214 12.2046 6.68954 12.2046Z" fill="black"/>
</svg>
