<svg width="58" height="58" viewBox="0 0 58 58" fill="none" xmlns="http://www.w3.org/2000/svg">
<g clip-path="url(#clip0)">
<path d="M57.0338 2.53081e-08C57.0337 2.53081e-08 57.0335 2.53081e-08 57.0333 2.53081e-08H0.966667C0.432946 -0.000120808 0.000120833 0.432462 0 0.966183C0 0.966304 0 0.966546 0 0.966667V20.3H1.93333V1.93333H56.0667V23.2H22.2333V25.1333H57.0333C57.5671 25.1335 57.9999 24.7009 58 24.1671C58 24.167 58 24.1668 58 24.1667V0.966667C58.0001 0.432946 57.5675 0.000120859 57.0338 2.53081e-08Z" fill="white"/>
<path d="M51.2332 4.83337H31.8999V6.76671H51.2332V4.83337Z" fill="white"/>
<path d="M54.1334 10.6333H34.8V12.5666H54.1334V10.6333Z" fill="white"/>
<path d="M50.2667 16.4333H30.9333V18.3667H50.2667V16.4333Z" fill="white"/>
<path d="M30.8562 8.33439C30.1944 6.74362 28.3684 5.99059 26.7778 6.65239C26.7506 6.66375 26.7235 6.67535 26.6967 6.68743L18.8585 10.7535C19.1676 10.1128 19.3298 9.41126 19.3333 8.70003C19.3333 6.0307 17.1693 3.8667 14.5 3.8667C11.8307 3.8667 9.66667 6.0307 9.66667 8.70003C9.67029 9.74923 10.0187 10.7682 10.6581 11.6H10.6179C7.87398 11.6184 5.42457 13.3242 4.45585 15.8916L1.87533 24.786C1.26102 26.3817 2.05658 28.1734 3.65243 28.7877C4.38009 29.0678 5.18665 29.0631 5.91105 28.7744C6.74335 28.4391 7.39101 27.762 7.68911 26.9157L8.7 23.6985V37.6889C7.86818 37.0496 6.8492 36.7012 5.8 36.6975C3.13466 36.6935 0.970654 38.851 0.966667 41.5164C0.964733 42.8218 1.49157 44.0722 2.42718 44.9825C0.942379 45.7411 0.00580003 47.2656 2.53081e-08 48.9328V57.0334C-0.000120808 57.5671 0.432463 57.9999 0.966183 58C0.966304 58 0.966546 58 0.966667 58H10.6333C11.1671 58.0002 11.5999 57.5676 11.6 57.0338C11.6 57.0337 11.6 57.0335 11.6 57.0334V48.9328C11.5953 47.5627 10.9587 46.2715 9.87498 45.4334H17.1918C16.1079 46.2715 15.4714 47.5627 15.4668 48.9328V57.0334C15.4667 57.5671 15.8993 57.9999 16.433 58C16.4331 58 16.4333 58 16.4335 58H26.1001C26.6338 58.0002 27.0667 57.5676 27.0668 57.0338C27.0668 57.0337 27.0668 57.0335 27.0668 57.0334V48.9328C27.061 47.2656 26.1244 45.7411 24.6396 44.9825C26.5482 43.1196 26.5853 40.0622 24.7224 38.1536C23.5752 36.9783 21.9093 36.4666 20.3001 36.7952V17.0205L29.1742 12.4128C30.7649 11.7511 31.5179 9.92504 30.8562 8.33439ZM14.5 5.80003C16.1016 5.80003 17.4 7.09839 17.4 8.70003C17.4 10.3017 16.1016 11.6 14.5 11.6C12.8991 11.5983 11.6017 10.301 11.6 8.70003C11.6 7.09839 12.8984 5.80003 14.5 5.80003ZM5.8 38.6308C7.40165 38.6308 8.7 39.9292 8.7 41.5308C8.7 43.1325 7.40165 44.4308 5.8 44.4308C4.19835 44.4308 2.9 43.1325 2.9 41.5308C2.90169 39.9299 4.19908 38.6326 5.8 38.6308ZM9.66667 56.0667H1.93333V48.9328C1.93527 47.5347 3.06832 46.4017 4.4666 46.4H7.1334C8.53156 46.4017 9.66473 47.5347 9.66667 48.9328V56.0667ZM25.1333 48.9328V56.0667H17.4V48.9328C17.4019 47.5347 18.535 46.4017 19.9333 46.4H22.6001C23.9983 46.4017 25.1314 47.5347 25.1333 48.9328ZM21.2667 38.6308C22.8676 38.6325 24.165 39.9299 24.1667 41.5308C24.1667 43.1325 22.8683 44.4308 21.2667 44.4308C19.665 44.4308 18.3667 43.1325 18.3667 41.5308C18.3667 39.9292 19.665 38.6308 21.2667 38.6308ZM29.0874 9.94703C28.958 10.2791 28.6922 10.5397 28.3577 10.6626L18.8883 15.5752C18.5679 15.7415 18.3667 16.0724 18.3667 16.4334V37.6889C16.556 39.0277 15.9287 41.4508 16.8625 43.5H15.4667V27.0667H13.5333V43.5H10.2041C10.4791 42.8922 10.624 42.2337 10.6297 41.5667H10.6333V17.4C10.6332 16.8661 10.2003 16.4334 9.66643 16.4335C9.24435 16.4336 8.8711 16.7075 8.74447 17.1103L5.858 26.2954C5.63929 26.8986 4.9729 27.2104 4.3697 26.9915C4.3274 26.9762 4.28596 26.9584 4.2456 26.9383C3.68795 26.6501 3.45124 25.9773 3.70572 25.4033L6.28611 16.5089C6.98199 14.7218 8.69988 13.5417 10.6177 13.5334H17.4624C17.6173 13.5336 17.77 13.4963 17.9075 13.4249L27.5152 8.4377C28.0916 8.19725 28.7559 8.44326 29.0365 9.00127C29.1852 9.29538 29.2037 9.63855 29.0874 9.94703Z" fill="white"/>
<path d="M40.1062 44.9825C42.0181 43.1198 42.058 40.0597 40.1952 38.1477C38.3324 36.2358 35.2723 36.1959 33.3604 38.0587C31.4485 39.9214 31.4086 42.9815 33.2714 44.8935C33.3007 44.9236 33.3304 44.9533 33.3605 44.9825C31.8758 45.7411 30.9391 47.2656 30.9333 48.9328V57.0334C30.9332 57.5671 31.3658 57.9999 31.8995 58C31.8997 58 31.8999 58 31.9 58H41.5667C42.1004 58.0001 42.5332 57.5676 42.5333 57.0338C42.5333 57.0337 42.5333 57.0335 42.5333 57.0334V48.9328C42.5275 47.2656 41.591 45.7411 40.1062 44.9825ZM36.7333 38.6308C38.335 38.6308 39.6333 39.9292 39.6333 41.5308C39.6333 43.1324 38.335 44.4308 36.7333 44.4308C35.1317 44.4308 33.8333 43.1324 33.8333 41.5308C33.835 39.9299 35.1324 38.6326 36.7333 38.6308ZM40.6 56.0667H32.8667V48.9328C32.8686 47.5346 34.0017 46.4017 35.3999 46.4H38.0667C39.4649 46.4017 40.5981 47.5346 40.6 48.9328V56.0667Z" fill="white"/>
<path d="M55.5727 44.9825C57.4847 43.1198 57.5245 40.0597 55.6618 38.1477C53.799 36.2358 50.7389 36.1959 48.827 38.0587C46.915 39.9214 46.8751 42.9815 48.7379 44.8935C48.7673 44.9236 48.797 44.9533 48.8271 44.9825C47.3424 45.7411 46.4057 47.2656 46.3999 48.9328V57.0334C46.3998 57.5671 46.8324 57.9999 47.3661 58C47.3662 58 47.3664 58 47.3666 58H57.0332C57.5669 58.0001 57.9998 57.5676 57.9999 57.0338C57.9999 57.0337 57.9999 57.0335 57.9999 57.0334V48.9328C57.9941 47.2656 57.0575 45.7411 55.5727 44.9825ZM52.1999 38.6308C53.8015 38.6308 55.0999 39.9292 55.0999 41.5308C55.0999 43.1324 53.8015 44.4308 52.1999 44.4308C50.5983 44.4308 49.2999 43.1324 49.2999 41.5308C49.3016 39.9299 50.599 38.6326 52.1999 38.6308ZM56.0666 56.0667H48.3332V48.9328C48.3352 47.5346 49.4682 46.4017 50.8665 46.4H53.5333C54.9315 46.4017 56.0646 47.5346 56.0666 48.9328V56.0667Z" fill="white"/>
</g>
<defs>
<clipPath id="clip0">
<rect width="58" height="58" fill="white"/>
</clipPath>
</defs>
</svg>
