<svg width="58" height="58" viewBox="0 0 58 58" fill="none" xmlns="http://www.w3.org/2000/svg">
<path d="M29.341 1.20068C25.6477 1.20068 22.6538 4.13091 22.6538 7.74555C22.658 11.3584 25.6495 14.2863 29.341 14.2904C33.0342 14.2904 36.0281 11.3602 36.0281 7.74555C36.0281 4.13091 33.0342 1.20068 29.341 1.20068ZM29.341 12.4205C26.703 12.4205 24.5644 10.3274 24.5644 7.74555C24.5675 5.165 26.7043 3.07368 29.341 3.07064C31.9789 3.07064 34.1175 5.16372 34.1175 7.74555C34.1175 10.3274 31.9789 12.4205 29.341 12.4205Z" fill="white"/>
<path d="M32.2065 15.2253H26.4747C21.7285 15.2305 17.8822 18.9949 17.877 23.6402V39.5348H21.6982V57.2994H23.6088V35.7949H21.6982V37.6649H19.7876V23.6402C19.7917 20.0273 22.7833 17.0994 26.4747 17.0953H32.2065C35.898 17.0994 38.8895 20.0273 38.8937 23.6402V37.6649H36.9831V35.7949H35.0725V57.2994H36.9831V39.5348H40.8043V23.6402C40.799 18.9949 36.9527 15.2305 32.2065 15.2253Z" fill="white"/>
<path d="M30.2959 39.5349H28.3853V57.2995H30.2959V39.5349Z" fill="white"/>
<path d="M48.4472 10.5505C45.2815 10.5505 42.7153 13.0621 42.7153 16.1604C42.7184 19.2574 45.2828 21.7673 48.4472 21.7703C51.6128 21.7703 54.179 19.2587 54.179 16.1604C54.179 13.0621 51.6128 10.5505 48.4472 10.5505ZM48.4472 19.9003C46.3368 19.9003 44.6259 18.2259 44.6259 16.1604C44.6259 14.0949 46.3368 12.4205 48.4472 12.4205C50.5576 12.4205 52.2684 14.0949 52.2684 16.1604C52.2684 18.2259 50.5576 19.9003 48.4472 19.9003Z" fill="white"/>
<path d="M51.3131 22.7052H42.7153V24.5752H51.3131C53.9497 24.5782 56.0865 26.6695 56.0896 29.2501V41.4048H54.179V39.5348H52.2684V57.2995H54.179V43.2748H58.0002V29.2501C57.996 25.6372 55.0045 22.7093 51.3131 22.7052Z" fill="white"/>
<path d="M42.7148 39.5349V41.4049H38.8936V43.2748H42.7148V57.2995H44.6254V39.5349H42.7148Z" fill="white"/>
<path d="M49.4023 43.2748H47.4917V57.2995H49.4023V43.2748Z" fill="white"/>
<path d="M10.2348 10.5505C7.06912 10.5505 4.50293 13.0621 4.50293 16.1604C4.50603 19.2574 7.07043 21.7673 10.2348 21.7703C13.4004 21.7703 15.9666 19.2587 15.9666 16.1604C15.9666 13.0621 13.4004 10.5505 10.2348 10.5505ZM10.2348 19.9003C8.12437 19.9003 6.41354 18.2259 6.41354 16.1604C6.41354 14.0949 8.12437 12.4205 10.2348 12.4205C12.3452 12.4205 14.056 14.0949 14.056 16.1604C14.056 18.2259 12.3452 19.9003 10.2348 19.9003Z" fill="white"/>
<path d="M7.36878 22.7052C3.67736 22.7093 0.68582 25.6372 0.681641 29.2501V43.2748H4.50286V57.2995H6.41348V39.5348H4.50286V41.4048H2.59225V29.2501C2.59536 26.6695 4.73214 24.5782 7.36878 24.5752H15.9665V22.7052H7.36878Z" fill="white"/>
<path d="M15.9663 41.4049V39.5349H14.0557V57.2995H15.9663V43.2748H19.7875V41.4049H15.9663Z" fill="white"/>
<path d="M11.1894 43.2748H9.27881V57.2995H11.1894V43.2748Z" fill="white"/>
</svg>
