<svg width="58" height="58" viewBox="0 0 58 58" fill="none" xmlns="http://www.w3.org/2000/svg">
<path d="M44.7146 42.9641C47.53 42.9641 49.8205 40.4344 49.8205 37.3251C49.8205 34.2157 47.53 31.686 44.7146 31.686C41.8992 31.686 39.6089 34.2157 39.6089 37.3251C39.6089 40.4344 41.8992 42.9641 44.7146 42.9641ZM44.7146 33.5625C46.5931 33.5625 48.1213 35.2503 48.1213 37.325C48.1213 39.3995 46.5931 41.0873 44.7146 41.0873C42.8363 41.0873 41.308 39.3995 41.308 37.325C41.308 35.2503 42.8363 33.5625 44.7146 33.5625Z" fill="white"/>
<path d="M36.2649 14.3799C36.7342 14.3799 37.1145 13.9598 37.1145 13.4416C37.1145 12.9234 36.7342 12.5033 36.2649 12.5033H21.7354C21.266 12.5033 20.8857 12.9234 20.8857 13.4416C20.8857 13.9598 21.266 14.3799 21.7354 14.3799H36.2649Z" fill="white"/>
<path d="M33.4815 32.9041C33.4815 32.3858 33.1012 31.9658 32.6319 31.9658H25.3672C24.8979 31.9658 24.5176 32.3858 24.5176 32.9041C24.5176 33.4224 24.8979 33.8424 25.3672 33.8424H32.6319C33.1012 33.8424 33.4815 33.4224 33.4815 32.9041Z" fill="white"/>
<path d="M13.6211 17.3267C13.6211 17.8449 14.0014 18.265 14.4707 18.265H43.5295C43.9988 18.265 44.3791 17.8449 44.3791 17.3267C44.3791 16.8085 43.9988 16.3884 43.5295 16.3884H14.4707C14.0015 16.3884 13.6211 16.8085 13.6211 17.3267Z" fill="white"/>
<path d="M14.4707 22.1499H43.5295C43.9988 22.1499 44.3791 21.7299 44.3791 21.2116C44.3791 20.6934 43.9988 20.2733 43.5295 20.2733H14.4707C14.0014 20.2733 13.6211 20.6934 13.6211 21.2116C13.6211 21.7298 14.0015 22.1499 14.4707 22.1499Z" fill="white"/>
<path d="M14.4707 26.0349H43.5295C43.9988 26.0349 44.3791 25.6149 44.3791 25.0966C44.3791 24.5783 43.9988 24.1583 43.5295 24.1583H14.4707C14.0014 24.1583 13.6211 24.5783 13.6211 25.0966C13.6211 25.6149 14.0015 26.0349 14.4707 26.0349Z" fill="white"/>
<path d="M0 4.88416V38.9031C0 41.5962 1.984 43.7873 4.42248 43.7873H38.5679C38.6261 43.8153 38.6847 43.8412 38.7433 43.8657V56.2169C38.7433 56.8863 39.0778 57.4929 39.6164 57.8002C39.8508 57.9339 40.1049 58 40.3578 58C40.6858 58 41.0117 57.8889 41.2909 57.6701L43.0671 56.2779H43.0672L44.7136 54.9876L48.1364 57.6701C48.6308 58.0578 49.2726 58.1071 49.8109 57.8002C50.3495 57.4929 50.684 56.8862 50.684 56.2169V43.8658C50.7427 43.8413 50.8012 43.8153 50.8596 43.7873H53.5775C56.016 43.7873 58 41.5962 58 38.9031V24.083C58 23.5647 57.6197 23.1447 57.1504 23.1447C56.6811 23.1447 56.3008 23.5647 56.3008 24.083V38.9031C56.3008 40.5615 55.0792 41.9107 53.5775 41.9107H52.1638C52.249 41.1952 52.12 40.4056 52.2325 40.0231C52.3966 39.4646 53.4637 38.6016 53.4637 37.3251C53.4637 36.4874 53.0121 35.8439 52.6494 35.327C52.2841 34.8063 52.2357 34.6954 52.2069 34.5011C52.4367 34.4473 52.6713 34.4193 52.9093 34.4193C53.9025 34.4272 54.6016 33.5717 54.6016 32.595V11.1923C54.6016 10.1685 53.8453 9.35684 52.9402 9.36785C51.0013 9.37548 49.5044 7.65927 49.5178 5.58826C49.5258 4.57489 48.7827 3.75332 47.8657 3.75332H10.1343C9.26977 3.75332 8.47873 4.4977 8.48235 5.62216C8.48258 7.66703 6.99441 9.37548 5.05991 9.36785C4.14959 9.35709 3.39842 10.1733 3.39842 11.1923V32.595C3.39842 33.5601 4.08638 34.4269 5.09129 34.4193C6.93346 34.4196 8.48926 36.0642 8.48224 38.1989C8.4742 39.2125 9.21732 40.034 10.1343 40.034H27.0176C27.4869 40.034 27.8672 39.614 27.8672 39.0957C27.8672 38.5773 27.4869 38.1574 27.0176 38.1574H10.1816C10.1779 35.0632 7.89941 32.5468 5.09764 32.5427V11.2444C7.90609 11.2404 10.1779 8.73243 10.1816 5.62979H47.8183C47.8201 7.12907 48.3495 8.53814 49.3093 9.59817C50.2693 10.6581 51.5449 11.2426 52.9024 11.2444V32.5427C52.6474 32.5431 52.3946 32.5642 52.1453 32.6059C51.9305 31.2494 51.0124 30.8719 50.0981 30.5752C49.3211 30.3232 49.3154 30.3112 48.8731 29.5937C48.5417 29.0562 48.1294 28.3874 47.418 28.1323C46.73 27.8861 46.0531 28.1508 45.509 28.3641C44.7281 28.6697 44.699 28.6697 43.9183 28.3641C43.4784 28.1918 42.9515 27.9856 42.4023 28.0434H14.4706C14.0013 28.0434 13.621 28.4634 13.621 28.9817C13.621 29.5 14.0013 29.92 14.4706 29.92H40.3476C40.2495 30.0671 40.1539 30.1936 40.0675 30.263C39.5518 30.6776 37.895 30.6269 37.3887 32.1575C37.0877 33.067 37.3405 34.1318 37.1948 34.6272C36.9988 35.295 35.487 36.4239 36.1139 38.1575H30.9824C30.5131 38.1575 30.1328 38.5775 30.1328 39.0958C30.1328 39.6141 30.5131 40.0341 30.9824 40.0341H37.1973C37.3052 40.4237 37.1785 41.1977 37.2636 41.9108H4.42248C2.92083 41.9108 1.69921 40.5617 1.69921 38.9032V4.88416C1.69921 3.22575 2.92083 1.8766 4.42248 1.8766H53.5775C55.0792 1.8766 56.3008 3.22575 56.3008 4.88416V19.7043C56.3008 20.2225 56.6811 20.6426 57.1504 20.6426C57.6197 20.6426 58 20.2225 58 19.7043V4.88416C58 2.19099 56.016 0 53.5775 0H4.42248C1.984 0 0 2.19099 0 4.88416H0ZM41.7258 55.028L40.4425 56.0338V44.8768C40.7527 45.3689 41.1125 46.0349 41.7258 46.3856V55.028ZM46.0024 53.6962L45.6479 53.4184C45.613 53.391 45.5773 53.3653 45.5409 53.3413C45.2866 53.1735 45 53.0897 44.7136 53.0897C44.3862 53.0897 44.059 53.1992 43.7797 53.4182L43.4251 53.6962V46.4671C45.1297 45.918 44.2308 45.8988 46.0024 46.4671V53.6962ZM48.9848 56.0338L47.7016 55.0281V46.3856C48.3143 46.0351 48.6737 45.3703 48.9848 44.8768V56.0338ZM38.1211 36.4764C38.8396 35.4524 38.9696 35.0513 38.9368 33.6914C38.9133 32.719 38.931 32.7023 39.3858 32.5224C40.6484 32.0231 41.0096 32.1892 41.9586 30.6497C42.1423 30.3521 42.3701 29.9829 42.5286 29.9197C42.7145 29.9197 42.7108 29.8819 43.3503 30.1325C44.5113 30.5875 44.9218 30.5852 46.0769 30.1325C46.3625 30.0206 46.7542 29.8669 46.893 29.9171C47.0518 29.9739 47.2827 30.3486 47.4685 30.6497C48.1479 31.7512 48.4595 31.9991 49.6189 32.3754C50.5347 32.6726 50.5156 32.6458 50.4904 33.6914C50.4583 35.0512 50.5859 35.4502 51.306 36.4763C51.9035 37.3279 51.904 37.3216 51.306 38.1735C50.4855 39.3425 50.4723 39.6932 50.4945 41.1597C50.5099 42.1865 50.447 41.9314 49.1353 42.4418C48.288 42.7702 47.9775 43.1744 47.4684 43.9998C46.9133 44.9004 46.9444 44.8559 46.0759 44.5164C44.4619 43.8856 44.2345 44.2472 42.9347 44.6699C42.4174 44.8364 42.4751 44.7894 41.7731 43.7045C40.6739 42.0059 39.5153 42.4652 39.0241 41.9213C38.9053 41.7826 38.9303 41.2125 38.9365 40.9582C38.9625 39.8755 38.9089 39.3799 38.3747 38.5459C37.5756 37.3135 37.4119 37.4867 38.1211 36.4764Z" fill="white"/>
</svg>
