<svg width="58" height="58" viewBox="0 0 58 58" fill="none" xmlns="http://www.w3.org/2000/svg">
<path d="M1.4223 36.1434C1.7402 36.3646 2.07617 36.5587 2.42666 36.7234C2.84426 36.9371 3.54413 37.2947 3.59343 37.5451C3.65425 37.8756 3.61451 38.2167 3.47936 38.5243C3.33533 38.8337 3.18453 39.0995 3.05403 39.3286C2.70023 39.954 2.10766 41.0019 3.00086 41.7317C3.20966 41.9251 3.57023 42.2044 3.8989 42.4567C3.65695 42.8798 3.5475 43.3657 3.58473 43.8516C3.63583 44.2341 3.84343 44.5783 4.15796 44.8019C4.37256 44.9536 4.60166 45.0851 4.82786 45.2137C5.39916 45.5394 5.62246 45.6912 5.69786 45.9938C5.75157 46.3828 5.71856 46.779 5.6012 47.1538C5.54416 47.4119 5.48906 47.6709 5.4562 47.9271C5.36021 48.8081 5.46905 49.6993 5.77423 50.5313C6.20895 52.0669 7.59769 53.1368 9.19333 53.1655C9.45974 53.1647 9.72536 53.1365 9.986 53.0814C12.7476 52.4268 15.4688 51.6124 18.136 50.6425C20.3139 51.9204 21.6894 55.8064 22.0481 57.2651C22.1551 57.6963 22.5424 57.999 22.9867 57.9988L47.25 57.9311C47.5575 57.9305 47.8464 57.7837 48.0281 57.5356C48.2097 57.2875 48.2626 56.9678 48.1703 56.6745C47.9313 56.0195 47.6017 55.4013 47.1911 54.8378C46.9593 54.5036 46.7503 54.1542 46.5656 53.7919C46.1281 52.9065 45.7631 51.9871 45.4743 51.0427C44.9297 49.1949 44.5499 47.3025 44.3394 45.3877C44.3077 45.0363 44.0871 44.73 43.7638 44.5887C43.4405 44.4474 43.0659 44.4935 42.7864 44.7089C42.507 44.9244 42.3671 45.2749 42.4215 45.6235C42.6451 47.6531 43.0485 49.6587 43.627 51.6169C43.945 52.656 44.3462 53.6678 44.8266 54.6425C45.0472 55.0803 45.2975 55.5024 45.5758 55.906L45.6405 56.0026L23.7175 56.0655C23.0758 53.7724 21.9111 51.6593 20.3148 49.8923L21.1848 49.5878C21.8325 49.3616 22.3207 49.1915 22.571 49.1113C26.7122 47.8014 28.7828 45.9155 28.7268 43.5046C28.7276 43.247 28.6228 43.0003 28.4368 42.8221C28.2509 42.6438 28 42.5495 27.7427 42.5611C27.2091 42.5738 26.7868 43.0165 26.7992 43.55C26.8224 44.5447 26.0075 45.9957 21.9891 47.2669C21.7271 47.351 21.2225 47.5269 20.5526 47.7608C19.8344 48.0122 18.9209 48.3312 17.9136 48.6734H17.9069C15.1865 49.6706 12.4107 50.5097 9.59353 51.1867C8.69209 51.3604 7.8142 50.7918 7.60413 49.8981C7.39762 49.3482 7.3199 48.7583 7.37696 48.1736C7.4021 47.9706 7.4485 47.7695 7.49296 47.5675C7.68994 46.8989 7.71883 46.1919 7.57706 45.5095C7.29495 44.6228 6.64222 43.902 5.78776 43.5336L5.5867 43.4186C5.69108 43.2078 5.81572 43.0078 5.95886 42.8212C6.12103 42.6157 6.19293 42.3532 6.15814 42.0938C6.12334 41.8344 5.98481 41.6001 5.77423 41.4446C5.54223 41.2745 4.9951 40.8646 4.5949 40.5418C4.6413 40.4577 4.69156 40.3649 4.7399 40.2808C4.89166 40.0149 5.0647 39.7056 5.23386 39.3479C5.53976 38.6703 5.62987 37.9151 5.49196 37.1845C5.25996 36.0052 4.1309 35.4271 3.30633 35.0057C3.02905 34.8744 2.76326 34.7202 2.51173 34.5446C2.30445 34.4053 2.11031 34.2474 1.93173 34.0728C1.93173 33.9269 2.08833 33.5731 2.82493 32.675C4.55608 30.4472 6.03963 28.0377 7.24936 25.4888C7.4776 25.0894 7.60595 24.6407 7.62346 24.1809C7.52362 23.2093 7.00871 22.3282 6.21116 21.7643C5.81966 21.4056 5.45136 21.0673 5.40883 20.7551C5.41529 20.526 5.46652 20.3004 5.55963 20.091C5.7172 19.6763 5.89893 19.2703 6.08163 18.8633C6.47801 18.046 6.79461 17.1923 7.02703 16.3142L7.1237 15.9024C7.3287 14.9359 7.59277 13.9829 7.91443 13.0488C8.67645 10.9456 9.85627 9.01834 11.3828 7.38316C13.2321 5.42663 16.1427 4.04236 20.048 3.26613C23.0353 2.61034 26.0664 2.17354 29.1173 1.9592C30.6389 1.87682 32.1649 1.96338 33.6674 2.2173C34.1868 2.29514 34.6733 1.94408 34.7631 1.42665C34.8529 0.90922 34.5132 0.414723 33.998 0.312962C32.3533 0.03345 30.6826 -0.0618719 29.0168 0.0287618C25.8713 0.246928 22.7461 0.695374 19.6662 1.3705C15.3075 2.2405 12.1397 3.7688 9.9773 6.054C8.27153 7.87923 6.95264 10.0307 6.1 12.3789C5.75187 13.3893 5.46585 14.4201 5.24353 15.4655L5.14686 15.8734C4.94055 16.6316 4.66385 17.3688 4.32036 18.0755C4.12703 18.5163 3.92596 18.9571 3.75293 19.4133C3.53037 19.9216 3.44216 20.4784 3.49676 21.0306C3.69183 21.8961 4.19218 22.6624 4.90616 23.1891C5.37886 23.6232 5.68916 23.9286 5.69303 24.1945C5.65804 24.3417 5.60239 24.4833 5.52773 24.615C4.36966 27.0548 2.95 29.3615 1.29373 31.4947C0.594831 32.3464 -0.136936 33.3391 0.0186972 34.3319C0.223445 35.1002 0.729514 35.7533 1.4223 36.1434Z" fill="white"/>
<path d="M10.7948 17.1998L10.8915 16.7696C11.0609 15.966 11.2762 15.1727 11.5362 14.3936C12.1184 12.7797 13.0206 11.3001 14.1888 10.0436C15.4416 8.86231 16.9751 8.02021 18.6441 7.59694C18.9811 7.50198 19.2404 7.23222 19.322 6.89174C19.4036 6.55125 19.2947 6.19328 19.0373 5.95591C18.7799 5.71855 18.4143 5.63891 18.0815 5.74771C16.0896 6.26536 14.2648 7.28781 12.7832 8.71634C11.4371 10.1635 10.3971 11.8676 9.72567 13.7266C9.43564 14.5846 9.19646 15.4591 9.00937 16.3453L8.9127 16.7638C8.79207 17.2835 9.11524 17.8027 9.6348 17.9238C9.70672 17.9407 9.78037 17.9492 9.85424 17.949C10.3038 17.9484 10.6936 17.6379 10.7948 17.1998Z" fill="white"/>
<path d="M8.70006 21.2666C9.23394 21.2666 9.66673 20.8338 9.66673 20.2999C9.66673 19.766 9.23394 19.3333 8.70006 19.3333C8.16619 19.3333 7.7334 19.766 7.7334 20.2999C7.7334 20.8338 8.16619 21.2666 8.70006 21.2666Z" fill="white"/>
<path d="M26.1001 19.5363C26.0339 22.8318 27.1985 26.0337 29.3665 28.5166C30.0488 29.2256 30.7929 29.8726 31.5898 30.4499C33.004 31.5432 34.3438 32.5882 34.6996 34.0421C33.5951 34.4792 32.8689 35.5455 32.8668 36.7333V38.6666C32.8718 39.8912 33.6455 40.9806 34.8001 41.3887V41.5666C34.8001 43.7021 36.5313 45.4333 38.6668 45.4333C40.8023 45.4333 42.5334 43.7021 42.5334 41.5666V41.3887C43.688 40.9806 44.4617 39.8912 44.4668 38.6666V36.7333C44.464 35.5446 43.736 34.4779 42.6301 34.0421C42.9849 32.5921 44.3256 31.5432 45.7399 30.4499C46.5366 29.8724 47.2806 29.2254 47.9632 28.5166C50.132 26.0339 51.2979 22.8322 51.2334 19.5363C51.2065 12.5737 45.628 6.90513 38.6668 6.7666C31.7055 6.90513 26.1271 12.5737 26.1001 19.5363ZM35.7668 21.2666H34.8001C34.2662 21.2666 33.8334 20.8338 33.8334 20.2999C33.8334 19.7661 34.2662 19.3333 34.8001 19.3333C35.334 19.3333 35.7668 19.7661 35.7668 20.2999V21.2666ZM39.6334 33.8333H37.7001V23.1999H39.6334V33.8333ZM38.6668 43.4999C37.599 43.4999 36.7334 42.6344 36.7334 41.5666H40.6001C40.6001 42.6344 39.7345 43.4999 38.6668 43.4999ZM42.5334 38.6666C42.5334 39.2005 42.1006 39.6333 41.5668 39.6333H35.7668C35.2329 39.6333 34.8001 39.2005 34.8001 38.6666V36.7333C34.8001 36.1994 35.2329 35.7666 35.7668 35.7666H41.5668C42.1006 35.7666 42.5334 36.1994 42.5334 36.7333V38.6666ZM49.3001 19.5662C49.3602 22.3731 48.3737 25.1018 46.5325 27.2213C45.9262 27.843 45.2674 28.4112 44.5634 28.9197C43.4237 29.7137 42.4129 30.6785 41.5668 31.7801V23.1999H42.5334C44.135 23.1999 45.4334 21.9016 45.4334 20.2999C45.4334 18.6983 44.135 17.3999 42.5334 17.3999C40.9318 17.3999 39.6334 18.6983 39.6334 20.2999V21.2666H37.7001V20.2999C37.7001 18.6983 36.4017 17.3999 34.8001 17.3999C33.1985 17.3999 31.9001 18.6983 31.9001 20.2999C31.9001 21.9016 33.1985 23.1999 34.8001 23.1999H35.7668V31.7801C34.9222 30.679 33.9131 29.7146 32.7749 28.9207C32.0707 28.4118 31.4115 27.8432 30.8049 27.2213C28.9618 25.1027 27.9738 22.3737 28.0334 19.5662C28.1301 13.6754 32.9944 8.69993 38.6668 8.69993C44.3392 8.69993 49.2083 13.6754 49.3001 19.5662ZM41.5668 21.2666V20.2999C41.5668 19.7661 41.9995 19.3333 42.5334 19.3333C43.0673 19.3333 43.5001 19.7661 43.5001 20.2999C43.5001 20.8338 43.0673 21.2666 42.5334 21.2666H41.5668Z" fill="white"/>
<path d="M54.1334 20.2999H57.0334C57.5673 20.2999 58.0001 19.8671 58.0001 19.3332C58.0001 18.7994 57.5673 18.3666 57.0334 18.3666H54.1334C53.5995 18.3666 53.1667 18.7994 53.1667 19.3332C53.1667 19.8671 53.5995 20.2999 54.1334 20.2999Z" fill="white"/>
<path d="M49.6027 9.36406C49.8594 9.36426 50.1056 9.26236 50.2871 9.08082L52.3374 7.02956C52.5887 6.78685 52.6895 6.42744 52.601 6.08947C52.5126 5.75149 52.2486 5.48755 51.9106 5.39908C51.5727 5.31062 51.2133 5.4114 50.9706 5.66269L48.9193 7.71299C48.6422 7.98936 48.5591 8.40552 48.7088 8.7671C48.8585 9.12869 49.2114 9.36436 49.6027 9.36406Z" fill="white"/>
<path d="M38.6669 4.83333C39.2007 4.83333 39.6335 4.40054 39.6335 3.86667V0.966667C39.6335 0.432791 39.2007 0 38.6669 0C38.133 0 37.7002 0.432791 37.7002 0.966667V3.86667C37.7002 4.40054 38.133 4.83333 38.6669 4.83333Z" fill="white"/>
<path d="M28.4144 9.08082C28.596 8.89951 28.6979 8.65347 28.6979 8.39691C28.6979 8.14034 28.596 7.89431 28.4144 7.71299L26.3632 5.66269C26.1205 5.4114 25.7611 5.31062 25.4231 5.39908C25.0851 5.48755 24.8212 5.75149 24.7327 6.08947C24.6442 6.42744 24.745 6.78685 24.9963 7.02956L27.0466 9.08082C27.2279 9.26234 27.474 9.36433 27.7305 9.36433C27.9871 9.36433 28.2331 9.26234 28.4144 9.08082Z" fill="white"/>
<path d="M20.2999 18.3666C19.766 18.3666 19.3333 18.7994 19.3333 19.3332C19.3333 19.8671 19.766 20.2999 20.2999 20.2999H23.1999C23.7338 20.2999 24.1666 19.8671 24.1666 19.3332C24.1666 18.7994 23.7338 18.3666 23.1999 18.3666H20.2999Z" fill="white"/>
</svg>
