<svg width="87" height="73" viewBox="0 0 87 73" fill="none" xmlns="http://www.w3.org/2000/svg">
<g opacity="0.5">
<path d="M59.155 39.7294C61.2977 40.3463 63.4405 40.6593 65.5249 40.6593C68.7436 40.6593 71.4293 39.9237 73.5119 39.023C71.5042 46.3731 66.6811 59.0555 57.0733 60.4838C56.1836 60.6161 55.4544 61.2595 55.2117 62.1255L53.1118 69.6363C52.9347 70.2714 53.0397 70.9513 53.402 71.5025C53.7643 72.0538 54.3465 72.4215 54.999 72.511C55.7081 72.6077 56.4309 72.657 57.1473 72.657C68.6797 72.657 80.1008 60.6198 84.9202 43.3843C87.7493 33.2727 88.5788 18.0706 81.6102 8.50191C77.7107 3.14767 72.0216 0.288483 64.7008 0.00283813C64.6707 0.00193024 64.6415 0.00101471 64.6114 0.00101471C55.5785 0.00101471 47.5687 6.08443 45.1321 14.7934C43.6765 19.9998 44.3344 25.4599 46.9864 30.1717C49.6102 34.8305 53.9313 38.2263 59.155 39.7294Z" fill="#FFD5CE"/>
<path d="M2.61154 30.1707C5.23524 34.8305 9.55637 38.2263 14.7801 39.7294C16.9228 40.3463 19.0656 40.6593 21.149 40.6593C24.3678 40.6593 27.0544 39.9237 29.137 39.023C27.1293 46.3731 22.3062 59.0555 12.6975 60.4838C11.8077 60.6161 11.0795 61.2595 10.8358 62.1255L8.73595 69.6363C8.55891 70.2714 8.66386 70.9513 9.02616 71.5025C9.38755 72.0538 9.96978 72.4215 10.6232 72.511C11.3314 72.6077 12.0541 72.657 12.7714 72.657C24.3039 72.657 35.725 60.6198 40.5453 43.3843C43.3734 33.2727 44.203 18.0706 37.2335 8.50008C33.3349 3.14676 27.6449 0.286659 20.325 0.00192261C20.2949 0.00101471 20.2657 9.91821e-05 20.2346 9.91821e-05C11.2027 9.91821e-05 3.19195 6.08351 0.755329 14.7925C-0.698433 19.9989 -0.0395432 25.4599 2.61154 30.1707Z" fill="#FFD5CE"/>
</g>
</svg>
