<svg width="250" height="43" viewBox="0 0 250 43" fill="none" xmlns="http://www.w3.org/2000/svg">
<path fill-rule="evenodd" clip-rule="evenodd" d="M0 5.34056C0 3.47119 0 2.5365 0.363804 1.8225C0.683814 1.19444 1.19444 0.683814 1.8225 0.363804C2.5365 0 3.47119 0 5.34056 0H37.363C39.2323 0 40.167 0 40.881 0.363804C41.5091 0.683814 42.0197 1.19444 42.3397 1.8225C42.7035 2.5365 42.7035 3.47119 42.7035 5.34056V36.991C42.7035 38.8604 42.7035 39.795 42.3397 40.509C42.0197 41.1371 41.5091 41.6477 40.881 41.9677C40.167 42.3315 39.2323 42.3315 37.363 42.3315H5.34056C3.47119 42.3315 2.5365 42.3315 1.8225 41.9677C1.19444 41.6477 0.683814 41.1371 0.363804 40.509C0 39.795 0 38.8604 0 36.991V5.34056Z" fill="#02A2DB"/>
<path fill-rule="evenodd" clip-rule="evenodd" d="M0 5.34056C0 3.47119 0 2.5365 0.363804 1.8225C0.683814 1.19444 1.19444 0.683814 1.8225 0.363804C2.5365 0 3.47119 0 5.34056 0H37.363C39.2323 0 40.167 0 40.881 0.363804C41.5091 0.683814 42.0197 1.19444 42.3397 1.8225C42.7035 2.5365 42.7035 3.47119 42.7035 5.34056V36.991C42.7035 38.8604 42.7035 39.795 42.3397 40.509C42.0197 41.1371 41.5091 41.6477 40.881 41.9677C40.167 42.3315 39.2323 42.3315 37.363 42.3315H5.34056C3.47119 42.3315 2.5365 42.3315 1.8225 41.9677C1.19444 41.6477 0.683814 41.1371 0.363804 40.509C0 39.795 0 38.8604 0 36.991V5.34056Z" fill="#2ED2FF"/>
<path fill-rule="evenodd" clip-rule="evenodd" d="M33.4402 18.3123C32.4826 11.6257 26.8776 8.80078 21.769 8.80078C15.4899 8.80078 9.03345 13.1273 9.03345 21.6021C9.03345 30.1121 15.4899 34.3674 21.769 34.3674C27.055 34.3674 32.589 31.5424 33.5469 24.4983H27.303C26.629 27.2159 24.4652 28.5387 21.769 28.5387C18.0087 28.5387 15.5966 25.2849 15.5966 21.6021C15.5966 17.4541 18.0442 14.6292 21.769 14.6292C24.4652 14.6292 26.31 15.7379 27.1969 18.3123H33.4402ZM21.7689 31.2563C25.0683 31.2563 27.7999 29.7905 29.3606 26.751H29.7864C28.2609 29.8975 25.1747 31.6139 21.7689 31.6139C16.9799 31.6139 12.1553 28.1098 12.1553 21.602C12.1553 15.13 16.9799 11.5541 21.7689 11.5541C25.1392 11.5541 27.9771 13.0202 29.6445 16.0237H29.2187C27.658 13.199 24.9973 11.876 21.7689 11.876C17.1927 11.876 12.5101 15.3445 12.5101 21.602C12.5101 27.8237 17.1927 31.2563 21.7689 31.2563Z" fill="#FEFEFE"/>
<path d="M60.543 29.3467C59.0299 29.3467 57.8568 28.8848 57.024 27.961C56.1974 27.0308 55.7842 25.7179 55.7842 24.0222C55.7842 22.2821 56.2038 20.9375 57.043 19.9884C57.8886 19.0393 59.0903 18.5648 60.6479 18.5648C61.1502 18.5648 61.6525 18.6185 62.1547 18.7261C62.657 18.8337 63.0512 18.9602 63.3373 19.1058L62.8509 20.444C62.5012 20.3048 62.1198 20.1909 61.7065 20.1023C61.2932 20.0074 60.9277 19.96 60.6098 19.96C58.4863 19.96 57.4245 21.3077 57.4245 24.0032C57.4245 25.2813 57.682 26.2621 58.197 26.9454C58.7183 27.6288 59.4876 27.9705 60.5049 27.9705C61.3759 27.9705 62.2692 27.7838 63.1847 27.4105V28.8057C62.4853 29.1663 61.6048 29.3467 60.543 29.3467Z" fill="white"/>
<path d="M72.1015 29.1568L71.7868 27.6762H71.7105C71.1892 28.328 70.6679 28.7709 70.1465 29.005C69.6315 29.2328 68.9862 29.3467 68.2106 29.3467C67.1742 29.3467 66.3604 29.0809 65.7691 28.5494C65.1842 28.0179 64.8918 27.2618 64.8918 26.281C64.8918 24.1803 66.5798 23.0794 69.9558 22.9781L71.7296 22.9212V22.2758C71.7296 21.4596 71.5516 20.8584 71.1956 20.4725C70.8459 20.0802 70.2832 19.884 69.5076 19.884C68.6365 19.884 67.6511 20.1498 66.5512 20.6813L66.0648 19.4759C66.5798 19.1975 67.1424 18.9792 67.7528 18.821C68.3695 18.6628 68.9862 18.5837 69.6029 18.5837C70.8491 18.5837 71.7709 18.859 72.3686 19.4095C72.9726 19.96 73.2746 20.8426 73.2746 22.0575V29.1568H72.1015ZM68.5253 28.0464C69.5107 28.0464 70.2832 27.7775 70.8427 27.2396C71.4085 26.7018 71.6915 25.9488 71.6915 24.9808V24.0411L70.1084 24.1076C68.8495 24.1519 67.9403 24.348 67.3809 24.696C66.8277 25.0377 66.5512 25.5724 66.5512 26.3C66.5512 26.8695 66.7228 27.3029 67.0661 27.6003C67.4158 27.8977 67.9022 28.0464 68.5253 28.0464Z" fill="white"/>
<path d="M83.2881 26.319C83.2881 27.2871 82.9257 28.0337 82.201 28.5589C81.4762 29.0841 80.4589 29.3467 79.1492 29.3467C77.7632 29.3467 76.6824 29.1284 75.9067 28.6918V27.2301C76.409 27.4832 76.9462 27.6826 77.5184 27.8281C78.097 27.9736 78.6533 28.0464 79.1873 28.0464C80.0139 28.0464 80.6496 27.9167 81.0947 27.6572C81.5397 27.3915 81.7623 26.9897 81.7623 26.4519C81.7623 26.0469 81.5842 25.7021 81.2282 25.4173C80.8785 25.1263 80.1919 24.7846 79.1683 24.3923C78.1955 24.0316 77.5025 23.7184 77.0893 23.4527C76.6824 23.1806 76.3772 22.8737 76.1737 22.532C75.9766 22.1904 75.8781 21.7822 75.8781 21.3077C75.8781 20.4598 76.2246 19.7923 76.9176 19.3051C77.6106 18.8115 78.5611 18.5648 79.7691 18.5648C80.8944 18.5648 81.9943 18.7925 83.0688 19.2481L82.5061 20.5294C81.4571 20.0992 80.5066 19.884 79.6546 19.884C78.9044 19.884 78.3386 20.0011 77.9571 20.2352C77.5756 20.4693 77.3849 20.792 77.3849 21.2033C77.3849 21.4817 77.4548 21.719 77.5947 21.9151C77.7409 22.1113 77.973 22.2979 78.2909 22.4751C78.6088 22.6523 79.2191 22.9085 80.1219 23.2439C81.3617 23.6931 82.1978 24.1455 82.6301 24.6011C83.0688 25.0567 83.2881 25.6293 83.2881 26.319Z" fill="white"/>
<path d="M89.2486 28.0464C89.5284 28.0464 89.7986 28.0274 90.0592 27.9894C90.3199 27.9451 90.5265 27.9009 90.6791 27.8566V29.0619C90.5075 29.1442 90.2531 29.2106 89.9162 29.2612C89.5856 29.3182 89.2868 29.3467 89.0197 29.3467C86.9979 29.3467 85.987 28.2868 85.987 26.1671V19.9789H84.4898V19.2196L85.987 18.5648L86.6546 16.3438H87.5701V18.7546H90.6028V19.9789H87.5701V26.1007C87.5701 26.7271 87.7196 27.208 88.0184 27.5434C88.3172 27.8787 88.7273 28.0464 89.2486 28.0464Z" fill="white"/>
<path d="M94.3603 29.1568H92.7772V18.7546H94.3603V29.1568ZM92.6437 15.9357C92.6437 15.5751 92.7327 15.3125 92.9107 15.148C93.0887 14.9771 93.3113 14.8917 93.5783 14.8917C93.8326 14.8917 94.0519 14.9771 94.2363 15.148C94.4207 15.3188 94.5129 15.5814 94.5129 15.9357C94.5129 16.2901 94.4207 16.5558 94.2363 16.733C94.0519 16.9038 93.8326 16.9892 93.5783 16.9892C93.3113 16.9892 93.0887 16.9038 92.9107 16.733C92.7327 16.5558 92.6437 16.2901 92.6437 15.9357Z" fill="white"/>
<path d="M104.87 29.1568V22.4276C104.87 21.5798 104.676 20.947 104.288 20.5294C103.9 20.1118 103.293 19.903 102.467 19.903C101.373 19.903 100.572 20.1972 100.063 20.7857C99.5546 21.3741 99.3003 22.3454 99.3003 23.6995V29.1568H97.7172V18.7546H99.0047L99.2622 20.1783H99.3385C99.6627 19.6657 100.117 19.2703 100.702 18.9919C101.287 18.7071 101.939 18.5648 102.657 18.5648C103.916 18.5648 104.863 18.8685 105.499 19.4759C106.135 20.077 106.453 21.0419 106.453 22.3707V29.1568H104.87Z" fill="white"/>
<path d="M118.269 18.7546V19.7512L116.333 19.9789C116.511 20.2004 116.67 20.4915 116.81 20.8521C116.95 21.2065 117.02 21.6082 117.02 22.0575C117.02 23.0762 116.67 23.8893 115.971 24.4967C115.271 25.1041 114.311 25.4079 113.09 25.4079C112.779 25.4079 112.486 25.3825 112.213 25.3319C111.539 25.6863 111.202 26.1323 111.202 26.6702C111.202 26.9549 111.32 27.1669 111.555 27.3061C111.79 27.439 112.194 27.5054 112.766 27.5054H114.616C115.748 27.5054 116.616 27.7427 117.22 28.2172C117.83 28.6918 118.135 29.3815 118.135 30.2863C118.135 31.4379 117.671 32.3142 116.743 32.9153C115.815 33.5228 114.461 33.8265 112.68 33.8265C111.313 33.8265 110.258 33.5734 109.514 33.0672C108.777 32.561 108.408 31.846 108.408 30.9222C108.408 30.2895 108.611 29.7421 109.018 29.2802C109.425 28.8183 109.997 28.5051 110.735 28.3406C110.468 28.2204 110.242 28.0337 110.058 27.7806C109.88 27.5275 109.791 27.2333 109.791 26.898C109.791 26.5183 109.892 26.1861 110.096 25.9014C110.299 25.6167 110.62 25.3414 111.059 25.0757C110.519 24.8542 110.077 24.4777 109.734 23.9462C109.397 23.4147 109.228 22.8073 109.228 22.1239C109.228 20.985 109.571 20.1087 110.258 19.4949C110.945 18.8748 111.917 18.5648 113.176 18.5648C113.723 18.5648 114.216 18.628 114.654 18.7546H118.269ZM109.934 30.9032C109.934 31.4664 110.172 31.8934 110.649 32.1845C111.126 32.4756 111.809 32.6211 112.699 32.6211C114.028 32.6211 115.011 32.4218 115.646 32.0232C116.288 31.6309 116.61 31.0962 116.61 30.4192C116.61 29.856 116.435 29.4637 116.085 29.2423C115.735 29.0271 115.077 28.9196 114.111 28.9196H112.213C111.495 28.9196 110.935 29.0904 110.535 29.4321C110.134 29.7738 109.934 30.2641 109.934 30.9032ZM110.792 22.086C110.792 22.8136 110.999 23.3641 111.412 23.7374C111.825 24.1107 112.401 24.2974 113.138 24.2974C114.683 24.2974 115.456 23.5508 115.456 22.0575C115.456 20.4946 114.674 19.7132 113.11 19.7132C112.366 19.7132 111.793 19.9125 111.393 20.3111C110.992 20.7098 110.792 21.3014 110.792 22.086Z" fill="white"/>
<path d="M128.95 29.1568L127.033 23.0541C126.912 22.6807 126.687 21.8329 126.356 20.5104H126.28C126.025 21.6177 125.803 22.4719 125.612 23.073L123.638 29.1568H121.807L118.956 18.7546H120.615C121.289 21.3678 121.801 23.3578 122.15 24.7245C122.506 26.0912 122.71 27.0119 122.761 27.4864H122.837C122.907 27.1257 123.018 26.6607 123.171 26.0912C123.33 25.5154 123.466 25.0598 123.581 24.7245L125.498 18.7546H127.214L129.084 24.7245C129.44 25.8128 129.681 26.7271 129.808 27.4674H129.885C129.91 27.2396 129.977 26.8885 130.085 26.4139C130.199 25.9394 130.864 23.3862 132.078 18.7546H133.718L130.829 29.1568H128.95Z" fill="white"/>
<path d="M144.638 23.9462C144.638 25.642 144.209 26.9676 143.351 27.923C142.492 28.8721 141.307 29.3467 139.793 29.3467C138.859 29.3467 138.029 29.1284 137.304 28.6918C136.579 28.2552 136.02 27.6288 135.626 26.8125C135.232 25.9963 135.035 25.0409 135.035 23.9462C135.035 22.2505 135.46 20.9312 136.312 19.9884C137.164 19.0393 138.347 18.5648 139.86 18.5648C141.322 18.5648 142.483 19.0488 143.341 20.0169C144.206 20.985 144.638 22.2948 144.638 23.9462ZM136.675 23.9462C136.675 25.275 136.942 26.2874 137.476 26.9834C138.01 27.6794 138.795 28.0274 139.831 28.0274C140.868 28.0274 141.653 27.6826 142.187 26.9929C142.727 26.2969 142.998 25.2813 142.998 23.9462C142.998 22.6238 142.727 21.6209 142.187 20.9375C141.653 20.2479 140.861 19.903 139.812 19.903C138.776 19.903 137.994 20.2415 137.466 20.9186C136.939 21.5956 136.675 22.6048 136.675 23.9462Z" fill="white"/>
<path d="M152.191 18.5648C152.655 18.5648 153.072 18.6027 153.44 18.6787L153.221 20.1403C152.789 20.0454 152.407 19.9979 152.077 19.9979C151.231 19.9979 150.506 20.3396 149.902 21.023C149.305 21.7063 149.006 22.5574 149.006 23.5761V29.1568H147.423V18.7546H148.729L148.91 20.6813H148.987C149.375 20.0042 149.842 19.4822 150.389 19.1152C150.935 18.7483 151.536 18.5648 152.191 18.5648Z" fill="white"/>
<path d="M156.959 23.8323C157.233 23.4464 157.649 22.9402 158.209 22.3138L161.585 18.7546H163.464L159.229 23.1869L163.759 29.1568H161.842L158.152 24.2404L156.959 25.2655V29.1568H155.395V14.3887H156.959V22.2188C156.959 22.5668 156.934 23.1047 156.883 23.8323H156.959Z" fill="white"/>
<path d="M170.521 18.5837C171.894 18.5837 172.959 19.052 173.716 19.9884C174.478 20.9186 174.86 22.2378 174.86 23.9462C174.86 25.6546 174.475 26.9834 173.706 27.9325C172.943 28.8753 171.881 29.3467 170.521 29.3467C169.84 29.3467 169.217 29.2233 168.652 28.9765C168.092 28.7234 167.622 28.3374 167.24 27.8186H167.126L166.792 29.1568H165.657V14.3887H167.24V17.9763C167.24 18.7799 167.215 19.5012 167.164 20.1403H167.24C167.978 19.1026 169.071 18.5837 170.521 18.5837ZM170.292 19.903C169.211 19.903 168.432 20.2131 167.955 20.8331C167.479 21.4469 167.24 22.4846 167.24 23.9462C167.24 25.4079 167.485 26.455 167.974 27.0878C168.464 27.7142 169.249 28.0274 170.33 28.0274C171.303 28.0274 172.028 27.6762 172.504 26.9739C172.981 26.2652 173.22 25.2497 173.22 23.9272C173.22 22.5732 172.981 21.564 172.504 20.8996C172.028 20.2352 171.29 19.903 170.292 19.903Z" fill="white"/>
<path d="M186.657 23.9462C186.657 25.642 186.228 26.9676 185.369 27.923C184.511 28.8721 183.325 29.3467 181.812 29.3467C180.878 29.3467 180.048 29.1284 179.323 28.6918C178.598 28.2552 178.039 27.6288 177.645 26.8125C177.25 25.9963 177.053 25.0409 177.053 23.9462C177.053 22.2505 177.479 20.9312 178.331 19.9884C179.183 19.0393 180.366 18.5648 181.879 18.5648C183.341 18.5648 184.502 19.0488 185.36 20.0169C186.225 20.985 186.657 22.2948 186.657 23.9462ZM178.694 23.9462C178.694 25.275 178.961 26.2874 179.495 26.9834C180.029 27.6794 180.814 28.0274 181.85 28.0274C182.887 28.0274 183.672 27.6826 184.206 26.9929C184.746 26.2969 185.017 25.2813 185.017 23.9462C185.017 22.6238 184.746 21.6209 184.206 20.9375C183.672 20.2479 182.88 19.903 181.831 19.903C180.795 19.903 180.013 20.2415 179.485 20.9186C178.958 21.5956 178.694 22.6048 178.694 23.9462Z" fill="white"/>
<path d="M198.463 23.9462C198.463 25.642 198.034 26.9676 197.176 27.923C196.318 28.8721 195.132 29.3467 193.619 29.3467C192.684 29.3467 191.854 29.1284 191.13 28.6918C190.405 28.2552 189.845 27.6288 189.451 26.8125C189.057 25.9963 188.86 25.0409 188.86 23.9462C188.86 22.2505 189.286 20.9312 190.138 19.9884C190.99 19.0393 192.172 18.5648 193.685 18.5648C195.148 18.5648 196.308 19.0488 197.166 20.0169C198.031 20.985 198.463 22.2948 198.463 23.9462ZM190.5 23.9462C190.5 25.275 190.767 26.2874 191.301 26.9834C191.835 27.6794 192.621 28.0274 193.657 28.0274C194.693 28.0274 195.478 27.6826 196.012 26.9929C196.553 26.2969 196.823 25.2813 196.823 23.9462C196.823 22.6238 196.553 21.6209 196.012 20.9375C195.478 20.2479 194.687 19.903 193.638 19.903C192.601 19.903 191.819 20.2415 191.292 20.9186C190.764 21.5956 190.5 22.6048 190.5 23.9462Z" fill="white"/>
<path d="M202.812 23.8323C203.086 23.4464 203.502 22.9402 204.061 22.3138L207.437 18.7546H209.316L205.082 23.1869L209.612 29.1568H207.695L204.004 24.2404L202.812 25.2655V29.1568H201.248V14.3887H202.812V22.2188C202.812 22.5668 202.787 23.1047 202.736 23.8323H202.812Z" fill="white"/>
<path d="M214.266 29.1568H211.357V14.3887H214.266V29.1568Z" fill="white"/>
<path d="M224.098 29.1568L223.535 27.7142H223.459C222.97 28.328 222.464 28.7551 221.943 28.9955C221.428 29.2296 220.754 29.3467 219.921 29.3467C218.897 29.3467 218.09 29.0556 217.499 28.4735C216.914 27.8914 216.621 27.0625 216.621 25.9868C216.621 24.8605 217.016 24.0316 217.804 23.5001C218.599 22.9623 219.794 22.6649 221.39 22.608L223.24 22.551V22.086C223.24 21.0103 222.687 20.4725 221.58 20.4725C220.729 20.4725 219.727 20.7287 218.576 21.2413L217.613 19.2861C218.84 18.647 220.201 18.3275 221.695 18.3275C223.125 18.3275 224.222 18.6375 224.985 19.2576C225.748 19.8777 226.129 20.8205 226.129 22.086V29.1568H224.098ZM223.24 24.2404L222.115 24.2784C221.269 24.3037 220.639 24.4556 220.226 24.734C219.813 25.0124 219.606 25.4363 219.606 26.0058C219.606 26.822 220.077 27.2301 221.018 27.2301C221.692 27.2301 222.229 27.0372 222.629 26.6512C223.036 26.2652 223.24 25.7527 223.24 25.1136V24.2404Z" fill="white"/>
<path d="M235.065 18.3465C236.324 18.3465 237.31 18.8368 238.022 19.8176C238.734 20.792 239.09 22.1303 239.09 23.8323C239.09 25.585 238.721 26.9423 237.984 27.904C237.253 28.8658 236.254 29.3467 234.989 29.3467C233.737 29.3467 232.754 28.8943 232.042 27.9894H231.842L231.356 29.1568H229.134V14.3887H232.042V17.8245C232.042 18.261 232.004 18.9602 231.928 19.922H232.042C232.723 18.8716 233.73 18.3465 235.065 18.3465ZM234.131 20.6623C233.412 20.6623 232.888 20.8838 232.557 21.3267C232.227 21.7633 232.055 22.4878 232.042 23.5001V23.8133C232.042 24.9523 232.211 25.7685 232.548 26.2621C232.891 26.7556 233.431 27.0024 234.169 27.0024C234.767 27.0024 235.24 26.7303 235.59 26.1861C235.946 25.6356 236.124 24.8384 236.124 23.7944C236.124 22.7503 235.946 21.9689 235.59 21.4501C235.234 20.9249 234.748 20.6623 234.131 20.6623Z" fill="white"/>
<path d="M248.932 26.0058C248.932 27.0941 248.55 27.923 247.787 28.4925C247.031 29.0619 245.896 29.3467 244.383 29.3467C243.607 29.3467 242.946 29.2929 242.399 29.1853C241.852 29.0841 241.341 28.9322 240.864 28.7297V26.338C241.404 26.5911 242.011 26.803 242.685 26.9739C243.366 27.1447 243.963 27.2301 244.478 27.2301C245.534 27.2301 246.061 26.9264 246.061 26.319C246.061 26.0912 245.991 25.9077 245.851 25.7685C245.712 25.623 245.47 25.4616 245.127 25.2845C244.783 25.101 244.326 24.889 243.753 24.6486C242.933 24.3069 242.329 23.9905 241.941 23.6995C241.56 23.4084 241.28 23.0762 241.102 22.7029C240.93 22.3232 240.845 21.8582 240.845 21.3077C240.845 20.3649 241.21 19.6373 241.941 19.1247C242.679 18.6059 243.722 18.3465 245.069 18.3465C246.354 18.3465 247.603 18.6249 248.817 19.1817L247.94 21.2697C247.406 21.0419 246.907 20.8553 246.443 20.7098C245.979 20.5642 245.505 20.4915 245.022 20.4915C244.163 20.4915 243.734 20.7224 243.734 21.1843C243.734 21.4437 243.871 21.6684 244.144 21.8582C244.424 22.048 245.031 22.3296 245.966 22.7029C246.799 23.0382 247.409 23.3514 247.797 23.6425C248.185 23.9336 248.471 24.2689 248.655 24.6486C248.84 25.0282 248.932 25.4806 248.932 26.0058Z" fill="white"/>
</svg>
