<svg width="50" height="50" viewBox="0 0 50 50" fill="none" xmlns="http://www.w3.org/2000/svg">
<circle r="25" transform="matrix(1 0 0 -1 25 25)" fill="white"/>
<circle r="24" transform="matrix(1 0 0 -1 25 25)" stroke="#222D4D" stroke-opacity="0.2" stroke-width="2"/>
<path opacity="0.3" d="M28.9355 17.0001H31.3742C31.8054 17.0001 32.2189 17.1687 32.5238 17.4687C32.8287 17.7688 33 18.1757 33 18.6001V24.2001C33 24.6244 32.8287 25.0314 32.5238 25.3314C32.2189 25.6315 31.8054 25.8 31.3742 25.8H28.9355M23.2452 27.4V30.6C23.2452 31.2365 23.5021 31.847 23.9595 32.2971C24.4168 32.7471 25.0371 33 25.6839 33L28.9355 25.8V17.0001H19.766C19.3739 16.9957 18.9934 17.131 18.6947 17.3809C18.3959 17.6308 18.199 17.9786 18.1402 18.3601L17.0184 25.56C16.983 25.7894 16.9988 26.0235 17.0645 26.2462C17.1302 26.469 17.2443 26.675 17.399 26.85C17.5536 27.0251 17.7451 27.1649 17.9601 27.2599C18.1751 27.3548 18.4085 27.4027 18.6442 27.4H23.2452Z" stroke="#2E3764" stroke-width="2" stroke-linecap="round" stroke-linejoin="round"/>
</svg>
