<svg width="50" height="50" viewBox="0 0 50 50" fill="none" xmlns="http://www.w3.org/2000/svg">
<circle cx="25" cy="25" r="25" fill="white"/>
<circle cx="25" cy="25" r="24" stroke="#222D4D" stroke-opacity="0.2" stroke-width="2"/>
<path opacity="0.3" d="M21.0645 32.9999H18.6258C18.1946 32.9999 17.7811 32.8313 17.4762 32.5313C17.1713 32.2312 17 31.8243 17 31.3999V25.7999C17 25.3756 17.1713 24.9686 17.4762 24.6686C17.7811 24.3685 18.1946 24.2 18.6258 24.2H21.0645M26.7548 22.6V19.4C26.7548 18.7635 26.4979 18.153 26.0405 17.7029C25.5832 17.2529 24.9629 17 24.3161 17L21.0645 24.2V32.9999H30.234C30.6261 33.0043 31.0066 32.869 31.3053 32.6191C31.6041 32.3692 31.801 32.0214 31.8598 31.6399L32.9816 24.44C33.017 24.2106 33.0012 23.9765 32.9355 23.7538C32.8698 23.531 32.7557 23.325 32.601 23.15C32.4464 22.9749 32.2549 22.8351 32.0399 22.7401C31.8249 22.6452 31.5915 22.5973 31.3558 22.6H26.7548Z" stroke="#2E3764" stroke-width="2" stroke-linecap="round" stroke-linejoin="round"/>
</svg>
