<svg width="24" height="24" viewBox="0 0 24 24" fill="none" xmlns="http://www.w3.org/2000/svg">
<path d="M1.97385 3.94769H18.0152C19.1053 3.94769 19.9891 3.06397 19.9891 1.97385C19.9891 0.883719 19.1053 0 18.0152 0H1.97385C0.883719 0 0 0.883719 0 1.97385C0 3.06397 0.883813 3.94769 1.97385 3.94769Z" fill="white"/>
<path d="M12.0002 8.02118H1.97433C0.884208 8.02118 0.000488281 8.9049 0.000488281 9.99503C0.000488281 11.0852 0.884208 11.9689 1.97433 11.9689H12.0002C13.0903 11.9689 13.974 11.0852 13.974 9.99503C13.974 8.9049 13.0903 8.02118 12.0002 8.02118Z" fill="white"/>
<path d="M9.99501 16.0419H1.97434C0.884208 16.0419 0.000488281 16.9257 0.000488281 18.0158C0.000488281 19.1059 0.884208 19.9896 1.97434 19.9896H9.99501C11.0851 19.9896 11.9689 19.1059 11.9689 18.0158C11.9689 16.9257 11.0851 16.0419 9.99501 16.0419Z" fill="white"/>
<path d="M23.2588 16.4744L18.2459 12.4641C16.9566 11.4326 15.0391 12.3523 15.0391 14.0054V22.0261C15.0391 23.6912 16.969 24.5889 18.246 23.5674L23.2589 19.557C24.2456 18.7676 24.2461 17.2643 23.2588 16.4744Z" fill="white"/>
</svg>
