<svg width="108" height="108" viewBox="0 0 108 108" fill="none" xmlns="http://www.w3.org/2000/svg">
<g filter="url(#filter0_d)">
<rect x="30" y="25" width="48" height="48" rx="10" fill="white"/>
</g>
<path d="M45.645 42.2899H59.0134C59.9219 42.2899 60.6583 41.5534 60.6583 40.645C60.6583 39.7365 59.9219 39 59.0134 39H45.645C44.7365 39 44 39.7365 44 40.645C44 41.5534 44.7365 42.2899 45.645 42.2899Z" fill="#601D7C"/>
<path d="M54.0002 45.6842H45.645C44.7365 45.6842 44 46.4207 44 47.3292C44 48.2377 44.7365 48.9741 45.645 48.9741H54.0002C54.9087 48.9741 55.6452 48.2377 55.6452 47.3292C55.6452 46.4207 54.9087 45.6842 54.0002 45.6842Z" fill="#601D7C"/>
<path d="M52.3292 52.3684H45.645C44.7365 52.3684 44 53.1049 44 54.0134C44 54.9219 44.7365 55.6583 45.645 55.6583H52.3292C53.2377 55.6583 53.9741 54.9219 53.9741 54.0134C53.9741 53.1049 53.2377 52.3684 52.3292 52.3684Z" fill="#601D7C"/>
<path d="M63.3833 52.7289L59.2057 49.3868C58.1312 48.5272 56.5332 49.2936 56.5332 50.6713V57.3555C56.5332 58.7432 58.1416 59.4913 59.2058 58.64L63.3834 55.2979C64.2057 54.64 64.2061 53.3872 63.3833 52.7289Z" fill="#601D7C"/>
<defs>
<filter id="filter0_d" x="0" y="0" width="108" height="108" filterUnits="userSpaceOnUse" color-interpolation-filters="sRGB">
<feFlood flood-opacity="0" result="BackgroundImageFix"/>
<feColorMatrix in="SourceAlpha" type="matrix" values="0 0 0 0 0 0 0 0 0 0 0 0 0 0 0 0 0 0 127 0"/>
<feOffset dy="5"/>
<feGaussianBlur stdDeviation="15"/>
<feColorMatrix type="matrix" values="0 0 0 0 0.0588235 0 0 0 0 0.176471 0 0 0 0 0.784314 0 0 0 0.1 0"/>
<feBlend mode="normal" in2="BackgroundImageFix" result="effect1_dropShadow"/>
<feBlend mode="normal" in="SourceGraphic" in2="effect1_dropShadow" result="shape"/>
</filter>
</defs>
</svg>
