<svg width="20" height="20" viewBox="0 0 20 20" fill="none" xmlns="http://www.w3.org/2000/svg">
<path d="M1.64495 3.2899H15.0134C15.9219 3.2899 16.6583 2.55343 16.6583 1.64495C16.6583 0.736468 15.9219 0 15.0134 0H1.64495C0.736468 0 0 0.736468 0 1.64495C0 2.55343 0.736546 3.2899 1.64495 3.2899Z" fill="#601D7C"/>
<path d="M10.0002 6.68422H1.64495C0.736468 6.68422 0 7.42069 0 8.32917C0 9.23765 0.736468 9.97412 1.64495 9.97412H10.0002C10.9087 9.97412 11.6452 9.23765 11.6452 8.32917C11.6452 7.42069 10.9087 6.68422 10.0002 6.68422Z" fill="#601D7C"/>
<path d="M8.32917 13.3684H1.64495C0.736468 13.3684 0 14.1049 0 15.0134C0 15.9219 0.736468 16.6583 1.64495 16.6583H8.32917C9.23765 16.6583 9.97412 15.9219 9.97412 15.0134C9.97412 14.1049 9.23765 13.3684 8.32917 13.3684Z" fill="#601D7C"/>
<path d="M19.3833 13.7289L15.2057 10.3868C14.1312 9.52724 12.5332 10.2936 12.5332 11.6713V18.3555C12.5332 19.7432 14.1416 20.4913 15.2058 19.64L19.3834 16.2979C20.2057 15.64 20.2061 14.3872 19.3833 13.7289Z" fill="#601D7C"/>
</svg>
