<?xml version="1.0" encoding="UTF-8"?>
<svg xmlns="http://www.w3.org/2000/svg" xmlns:xlink="http://www.w3.org/1999/xlink" width="34pt" height="34pt" viewBox="0 0 34 34" version="1.1">
<g id="surface8681869">
<path style=" stroke:none;fill-rule:nonzero;fill:rgb(88.235294%,28.235294%,9.019608%);fill-opacity:1;" d="M 14.425781 4.222656 C 14.140625 4.207031 13.855469 4.265625 13.597656 4.40625 C 13.074219 4.683594 12.75 5.222656 12.75 5.8125 L 12.75 27.125 C 12.75 27.710938 13.070312 28.25 13.589844 28.53125 C 13.824219 28.65625 14.085938 28.71875 14.34375 28.71875 C 14.652344 28.71875 14.957031 28.628906 15.222656 28.453125 L 31.171875 17.886719 C 31.617188 17.589844 31.882812 17.097656 31.886719 16.566406 C 31.886719 16.03125 31.625 15.535156 31.183594 15.238281 L 15.234375 4.492188 C 14.988281 4.328125 14.710938 4.234375 14.425781 4.222656 Z M 5.835938 4.25 C 4.957031 4.25 4.238281 4.957031 4.25 5.835938 L 4.25 27.085938 C 4.238281 27.96875 4.957031 28.6875 5.835938 28.6875 L 9.023438 28.6875 C 9.90625 28.6875 10.625 27.96875 10.625 27.085938 L 10.625 5.835938 C 10.625 4.957031 9.90625 4.25 9.023438 4.25 Z M 14.347656 5.277344 C 14.433594 5.277344 14.535156 5.300781 14.640625 5.371094 L 30.589844 16.117188 C 30.738281 16.21875 30.824219 16.378906 30.824219 16.558594 C 30.824219 16.742188 30.734375 16.898438 30.585938 17 L 14.636719 27.566406 C 14.398438 27.730469 14.175781 27.636719 14.09375 27.589844 C 14.007812 27.546875 13.8125 27.410156 13.8125 27.125 L 13.8125 5.8125 C 13.8125 5.523438 14.007812 5.390625 14.09375 5.34375 C 14.140625 5.320312 14.234375 5.277344 14.347656 5.277344 Z M 5.835938 5.3125 L 9.023438 5.3125 C 9.316406 5.3125 9.550781 5.546875 9.550781 5.835938 L 9.550781 27.085938 C 9.550781 27.378906 9.316406 27.613281 9.023438 27.613281 L 5.835938 27.613281 C 5.546875 27.613281 5.3125 27.378906 5.3125 27.085938 L 5.3125 5.835938 C 5.3125 5.546875 5.546875 5.3125 5.835938 5.3125 Z M 6.90625 6.375 C 6.613281 6.375 6.375 6.613281 6.375 6.90625 C 6.375 7.199219 6.613281 7.4375 6.90625 7.4375 L 7.96875 7.4375 C 8.261719 7.4375 8.5 7.199219 8.5 6.90625 C 8.5 6.613281 8.261719 6.375 7.96875 6.375 Z M 6.90625 9.03125 C 6.613281 9.03125 6.375 9.269531 6.375 9.5625 C 6.375 9.855469 6.613281 10.09375 6.90625 10.09375 L 7.96875 10.09375 C 8.261719 10.09375 8.5 9.855469 8.5 9.5625 C 8.5 9.269531 8.261719 9.03125 7.96875 9.03125 Z M 6.90625 11.6875 C 6.613281 11.6875 6.375 11.925781 6.375 12.21875 C 6.375 12.511719 6.613281 12.75 6.90625 12.75 L 7.96875 12.75 C 8.261719 12.75 8.5 12.511719 8.5 12.21875 C 8.5 11.925781 8.261719 11.6875 7.96875 11.6875 Z M 6.90625 14.34375 C 6.613281 14.34375 6.375 14.582031 6.375 14.875 C 6.375 15.167969 6.613281 15.40625 6.90625 15.40625 L 7.96875 15.40625 C 8.261719 15.40625 8.5 15.167969 8.5 14.875 C 8.5 14.582031 8.261719 14.34375 7.96875 14.34375 Z M 6.90625 17 C 6.613281 17 6.375 17.238281 6.375 17.53125 C 6.375 17.824219 6.613281 18.0625 6.90625 18.0625 L 7.96875 18.0625 C 8.261719 18.0625 8.5 17.824219 8.5 17.53125 C 8.5 17.238281 8.261719 17 7.96875 17 Z M 26.140625 17.097656 C 26.070312 17.109375 26.003906 17.132812 25.941406 17.175781 L 25.019531 17.765625 C 24.773438 17.921875 24.699219 18.25 24.859375 18.496094 C 24.960938 18.65625 25.132812 18.742188 25.308594 18.742188 C 25.40625 18.742188 25.507812 18.714844 25.59375 18.65625 L 26.515625 18.070312 C 26.761719 17.910156 26.835938 17.582031 26.675781 17.335938 C 26.554688 17.148438 26.34375 17.0625 26.140625 17.097656 Z M 23.367188 18.871094 C 23.300781 18.882812 23.234375 18.910156 23.171875 18.949219 L 16.769531 23.054688 C 16.519531 23.214844 16.449219 23.542969 16.609375 23.789062 C 16.710938 23.945312 16.878906 24.03125 17.054688 24.03125 C 17.152344 24.03125 17.253906 24.007812 17.339844 23.949219 L 23.746094 19.84375 C 23.992188 19.683594 24.066406 19.355469 23.90625 19.109375 C 23.789062 18.921875 23.574219 18.835938 23.367188 18.871094 Z M 6.90625 19.65625 C 6.613281 19.65625 6.375 19.894531 6.375 20.1875 C 6.375 20.480469 6.613281 20.71875 6.90625 20.71875 L 7.96875 20.71875 C 8.261719 20.71875 8.5 20.480469 8.5 20.1875 C 8.5 19.894531 8.261719 19.65625 7.96875 19.65625 Z M 6.90625 22.3125 C 6.613281 22.3125 6.375 22.550781 6.375 22.84375 C 6.375 23.136719 6.613281 23.375 6.90625 23.375 L 7.96875 23.375 C 8.261719 23.375 8.5 23.136719 8.5 22.84375 C 8.5 22.550781 8.261719 22.3125 7.96875 22.3125 Z M 6.90625 24.96875 C 6.613281 24.96875 6.375 25.207031 6.375 25.5 C 6.375 25.792969 6.613281 26.03125 6.90625 26.03125 L 7.96875 26.03125 C 8.261719 26.03125 8.5 25.792969 8.5 25.5 C 8.5 25.207031 8.261719 24.96875 7.96875 24.96875 Z M 6.90625 24.96875 "/>
</g>
</svg>
