<svg width="187" height="33" viewBox="0 0 187 33" fill="none" xmlns="http://www.w3.org/2000/svg">
<path d="M99.442 15.5747C99.7042 15.5747 99.914 15.6524 100.071 15.8077C100.246 15.963 100.334 16.1786 100.334 16.4547V22.8994C100.334 23.3136 100.264 23.6242 100.124 23.8312C100.001 24.0383 99.7653 24.2021 99.4157 24.323C98.7164 24.6163 97.8686 24.8492 96.8722 25.0218C95.8757 25.1944 94.8792 25.2806 93.8828 25.2806C92.0472 25.2806 90.4651 24.9097 89.1365 24.1677C87.8078 23.4257 86.7851 22.3559 86.0684 20.9583C85.3691 19.5606 85.0195 17.8868 85.0195 15.9371C85.0195 14.0218 85.3691 12.3653 86.0684 10.9677C86.7678 9.57003 87.7729 8.50024 89.084 7.75827C90.3952 6.99906 91.9336 6.61945 93.6992 6.61945C94.923 6.61945 96.0593 6.80924 97.1082 7.18886C98.1571 7.55121 99.0399 8.07748 99.7566 8.76768C100.054 9.06101 100.202 9.36298 100.202 9.67356C100.202 9.91513 100.132 10.1308 99.9926 10.3206C99.8528 10.4932 99.678 10.5794 99.4682 10.5794C99.2584 10.5794 99.0137 10.4759 98.734 10.2689C97.8249 9.57866 97.0033 9.10415 96.269 8.84533C95.5348 8.56924 94.687 8.43121 93.7254 8.43121C91.6452 8.43121 90.0456 9.07827 88.9267 10.3724C87.8253 11.6665 87.2747 13.5214 87.2747 15.9371C87.2747 18.4045 87.834 20.2853 88.9529 21.5794C90.0892 22.8563 91.75 23.4947 93.9352 23.4947C95.561 23.4947 97.0382 23.2532 98.3668 22.77V17.2312H94.5383C94.2412 17.2312 94.0052 17.1536 93.8303 16.9983C93.6555 16.843 93.5681 16.6445 93.5681 16.403C93.5681 16.1442 93.6555 15.9457 93.8303 15.8077C94.0052 15.6524 94.2412 15.5747 94.5383 15.5747H99.442ZM121.118 23.8571C121.188 23.9951 121.223 24.1418 121.223 24.2971C121.223 24.5559 121.118 24.7715 120.909 24.9442C120.716 25.1168 120.48 25.203 120.201 25.203C119.764 25.203 119.458 24.9959 119.283 24.5818L117.421 20.3889H107.535L105.647 24.5818C105.472 24.9959 105.166 25.203 104.729 25.203C104.45 25.203 104.205 25.1168 103.995 24.9442C103.785 24.7544 103.68 24.53 103.68 24.2712C103.68 24.1332 103.715 23.9951 103.785 23.8571L111.285 7.39592C111.39 7.15435 111.547 6.97318 111.757 6.85239C111.967 6.7316 112.194 6.67121 112.439 6.67121C112.701 6.67121 112.937 6.74024 113.147 6.87827C113.356 6.99906 113.514 7.1716 113.619 7.39592L121.118 23.8571ZM108.322 18.6289H116.634L112.465 9.33709L108.322 18.6289ZM125.827 25.0736C125.53 25.0736 125.276 24.9873 125.067 24.8147C124.874 24.625 124.778 24.3833 124.778 24.09V7.78415C124.778 7.4563 124.874 7.19748 125.067 7.00768C125.259 6.80062 125.521 6.69709 125.853 6.69709C126.185 6.69709 126.448 6.80062 126.64 7.00768C126.832 7.19748 126.928 7.4563 126.928 7.78415V23.2618H135.398C135.713 23.2618 135.958 23.3394 136.132 23.4947C136.307 23.65 136.395 23.8744 136.395 24.1677C136.395 24.461 136.307 24.6853 136.132 24.8406C135.958 24.9959 135.713 25.0736 135.398 25.0736H125.827ZM150.563 7.24062C150.65 7.05082 150.772 6.90415 150.93 6.80062C151.104 6.69709 151.288 6.64533 151.48 6.64533C151.76 6.64533 152.005 6.74024 152.215 6.93003C152.442 7.10259 152.556 7.31827 152.556 7.57709C152.556 7.71513 152.52 7.85318 152.451 7.99121L144.925 24.5042C144.82 24.7285 144.663 24.901 144.453 25.0218C144.243 25.1426 144.016 25.203 143.771 25.203C143.526 25.203 143.299 25.1426 143.089 25.0218C142.879 24.901 142.722 24.7285 142.617 24.5042L135.117 7.99121C135.065 7.85318 135.039 7.72377 135.039 7.60298C135.039 7.32689 135.152 7.10259 135.38 6.93003C135.607 6.74024 135.86 6.64533 136.14 6.64533C136.56 6.64533 136.866 6.84376 137.058 7.24062L143.823 22.33L150.563 7.24062ZM156.735 25.203C156.403 25.203 156.141 25.108 155.949 24.9183C155.756 24.7112 155.66 24.4438 155.66 24.1159V7.78415C155.66 7.4563 155.756 7.19748 155.949 7.00768C156.141 6.80062 156.403 6.69709 156.735 6.69709C157.068 6.69709 157.33 6.80062 157.522 7.00768C157.715 7.19748 157.811 7.4563 157.811 7.78415V24.1159C157.811 24.4438 157.715 24.7112 157.522 24.9183C157.33 25.108 157.068 25.203 156.735 25.203ZM176.713 6.69709C177.028 6.69709 177.272 6.80062 177.448 7.00768C177.623 7.19748 177.71 7.4563 177.71 7.78415V24.1159C177.71 24.4438 177.613 24.7112 177.421 24.9183C177.246 25.108 176.994 25.203 176.661 25.203C176.328 25.203 176.04 25.0563 175.796 24.763L164.913 10.3983V24.1159C164.913 24.4438 164.817 24.7112 164.625 24.9183C164.449 25.108 164.205 25.203 163.891 25.203C163.576 25.203 163.331 25.108 163.156 24.9183C162.981 24.7112 162.894 24.4438 162.894 24.1159V7.78415C162.894 7.4563 162.981 7.19748 163.156 7.00768C163.349 6.80062 163.611 6.69709 163.943 6.69709C164.292 6.69709 164.59 6.84377 164.835 7.13709L175.691 21.5018V7.78415C175.691 7.4563 175.778 7.19748 175.953 7.00768C176.145 6.80062 176.399 6.69709 176.713 6.69709Z" fill="#333333"/>
<path d="M16.389 23.5919C16.5114 23.7817 16.5726 23.9802 16.5726 24.1872C16.5726 24.446 16.4677 24.6617 16.2579 24.8343C16.0656 24.9896 15.8383 25.0672 15.5761 25.0672C15.174 25.0672 14.8594 24.8946 14.6321 24.5496L11.1183 19.0625C10.6638 18.355 10.1917 17.8719 9.70225 17.6131C9.21276 17.337 8.54846 17.199 7.70933 17.199H4.40528V23.9543C4.40528 24.282 4.30913 24.5496 4.11683 24.7566C3.92454 24.9464 3.67105 25.0413 3.35638 25.0413C3.02422 25.0413 2.76199 24.9464 2.5697 24.7566C2.37741 24.5496 2.28125 24.282 2.28125 23.9543V7.70012C2.28125 7.38953 2.37741 7.13934 2.5697 6.94953C2.77948 6.75973 3.05044 6.66482 3.3826 6.66482H9.88581C11.8962 6.66482 13.4259 7.10482 14.4748 7.98482C15.5412 8.86482 16.0743 10.1589 16.0743 11.8672C16.0743 13.3166 15.646 14.4813 14.7894 15.3613C13.9503 16.2413 12.7441 16.7761 11.1707 16.966C11.6078 17.104 12.0011 17.3284 12.3507 17.639C12.7004 17.9496 13.05 18.3808 13.3996 18.9331L16.389 23.5919ZM9.70225 15.4389C11.1358 15.4389 12.2021 15.1456 12.9014 14.5589C13.6182 13.9723 13.9765 13.0836 13.9765 11.8931C13.9765 10.7197 13.6269 9.84835 12.9276 9.27894C12.2284 8.70953 11.1532 8.42482 9.70225 8.42482H4.40528V15.4389H9.70225ZM28.3901 25.119C26.677 25.119 25.1823 24.7393 23.9061 23.9802C22.6474 23.2208 21.6771 22.1425 20.9953 20.7449C20.3136 19.3472 19.9727 17.6993 19.9727 15.8013C19.9727 13.886 20.3049 12.2295 20.9691 10.8319C21.6509 9.41699 22.6211 8.33855 23.8798 7.59659C25.1561 6.83738 26.6594 6.45776 28.3901 6.45776C30.1208 6.45776 31.6155 6.83738 32.8742 7.59659C34.1504 8.33855 35.1206 9.41699 35.7849 10.8319C36.4667 12.2295 36.8076 13.8774 36.8076 15.7754C36.8076 17.6734 36.4667 19.3299 35.7849 20.7449C35.1031 22.1425 34.1242 23.2208 32.848 23.9802C31.5893 24.7393 30.1034 25.119 28.3901 25.119ZM28.3901 23.3072C30.3481 23.3072 31.869 22.6602 32.9529 21.366C34.0542 20.0546 34.6049 18.1911 34.6049 15.7754C34.6049 13.3597 34.0631 11.5048 32.9791 10.2107C31.8953 8.91659 30.3657 8.26953 28.3901 8.26953C26.4323 8.26953 24.9025 8.92523 23.8012 10.2366C22.7174 11.5307 22.1754 13.377 22.1754 15.7754C22.1754 18.1738 22.7174 20.0287 23.8012 21.3402C24.9025 22.6514 26.4323 23.3072 28.3901 23.3072ZM51.6935 15.5425C52.7598 15.8186 53.5815 16.3361 54.1584 17.0955C54.7527 17.8546 55.05 18.8037 55.05 19.9425C55.05 21.5472 54.5167 22.7808 53.4504 23.6437C52.384 24.4891 50.8718 24.9119 48.9139 24.9119H42.3058C41.9736 24.9119 41.7027 24.817 41.4929 24.6272C41.3005 24.4373 41.2045 24.1872 41.2045 23.8766V7.70012C41.2045 7.38953 41.3005 7.13934 41.4929 6.94953C41.7027 6.75973 41.9736 6.66482 42.3058 6.66482H48.6255C50.5309 6.66482 52.0082 7.07894 53.0571 7.90718C54.106 8.73541 54.6304 9.90875 54.6304 11.4272C54.6304 12.4107 54.3682 13.2562 53.8438 13.9636C53.3367 14.6711 52.62 15.1974 51.6935 15.5425ZM43.3285 14.766H48.3108C49.6917 14.766 50.732 14.4899 51.4313 13.9378C52.148 13.3856 52.5064 12.5833 52.5064 11.5307C52.5064 9.46012 51.1078 8.42482 48.3108 8.42482H43.3285V14.766ZM48.7041 23.1519C50.1551 23.1519 51.2215 22.8931 51.9033 22.3755C52.6024 21.8405 52.9522 21.0123 52.9522 19.8908C52.9522 17.6476 51.5362 16.526 48.7041 16.526H43.3285V23.1519H48.7041Z" fill="#333333"/>
<path d="M65.5593 8.67921C65.4451 9.86873 65.7862 11.0573 66.5153 12.0099C66.6192 12.1519 66.751 12.2715 66.9029 12.3617C67.0548 12.4519 67.2236 12.5106 67.399 12.5344C67.5745 12.5583 67.753 12.5466 67.9239 12.5003C68.0947 12.454 68.2544 12.3738 68.393 12.2648C68.6451 12.0677 68.8162 11.7866 68.874 11.4738C68.932 11.1611 68.8729 10.8382 68.7078 10.5654C68.4854 10.2042 68.3722 9.7875 68.3815 9.3646C68.3715 8.94628 68.4985 8.53599 68.7439 8.19512C68.9891 7.85425 69.3393 7.60111 69.742 7.47359C70.1448 7.34605 70.5785 7.35099 70.9782 7.48765C71.378 7.62432 71.7221 7.88536 71.9594 8.23172C72.8695 9.42125 72.1312 10.4408 71.4728 11.0186L68.1124 13.7432L66.0058 15.4878C65.0126 16.2273 64.2269 17.2056 63.7233 18.3299C63.2196 19.4543 63.0148 20.6875 63.128 21.9122C63.2414 23.1369 63.6692 24.3126 64.3708 25.3279C65.0724 26.3429 66.0246 27.1639 67.1369 27.7126C68.2493 28.2613 69.4848 28.5196 70.7265 28.463C71.9681 28.4064 73.1745 28.0368 74.2311 27.3891C75.2877 26.7415 76.1596 25.8374 76.7639 24.7628C77.3683 23.688 77.685 22.4784 77.684 21.2485C77.684 18.6373 76.2644 16.649 74.2492 15.046C73.992 14.8414 73.6719 14.7299 73.3419 14.7299C73.0118 14.7299 72.6917 14.8414 72.4346 15.046H72.4059C72.2548 15.1693 72.1332 15.3241 72.0496 15.4994C71.966 15.6747 71.9227 15.8661 71.9227 16.0599C71.9227 16.2537 71.966 16.4452 72.0496 16.6204C72.1332 16.7957 72.2548 16.9505 72.4059 17.0738C74.0087 18.4389 76.167 21.1126 73.4994 24.0693C73.119 24.5092 72.6501 24.8657 72.1228 25.1163C71.5956 25.3668 71.0213 25.5061 70.4366 25.5252C69.8615 25.5296 69.291 25.4215 68.7582 25.2069C68.2252 24.9924 67.7406 24.6756 67.332 24.2751C66.9232 23.8744 66.5987 23.3977 66.3771 22.8724C66.1554 22.3472 66.0408 21.7837 66.0402 21.2145C66.0599 20.4908 66.2429 19.7805 66.5756 19.1357C66.9085 18.4907 67.3826 17.9276 67.9636 17.4873L73.7455 12.6896C74.2431 12.2747 74.6466 11.7605 74.9298 11.1808C75.2128 10.601 75.3692 9.96858 75.3884 9.32495C75.3902 8.59677 75.2296 7.87719 74.9177 7.2176C74.606 6.558 74.1508 5.97468 73.5847 5.50931C73.0187 5.04395 72.3559 4.70801 71.6435 4.52551C70.931 4.343 70.1866 4.31843 69.4634 4.45357C68.4389 4.64662 67.505 5.16252 66.8015 5.92416C66.0977 6.68579 65.6619 7.65227 65.5593 8.67921Z" fill="#1772E4"/>
</svg>
