<svg xmlns="http://www.w3.org/2000/svg" viewBox="0 0 355.36 289.43"><defs><style>.cls-1{fill:#fff;}</style></defs><title>Asset 74</title><g id="Layer_2" data-name="Layer 2"><g id="Layer_1-2" data-name="Layer 1"><polygon class="cls-1" points="141.28 234.25 132.69 234.25 132.69 229.27 139.95 229.27 139.95 227.14 132.69 227.14 132.69 222.5 141.08 222.5 141.08 220.23 130.12 220.23 130.12 236.51 141.28 236.51 141.28 234.25"/><polygon class="cls-1" points="144.59 236.51 147.43 236.51 151.76 230.32 156.1 236.51 158.92 236.51 153.14 228.49 159.1 220.23 156.28 220.23 151.76 226.65 147.25 220.23 144.4 220.23 150.39 228.49 144.59 236.51"/><path class="cls-1" d="M165.8,230.85h4.4a4.46,4.46,0,0,0,2-.45,4.76,4.76,0,0,0,1.55-1.19,5.76,5.76,0,0,0,1.35-3.68,5.27,5.27,0,0,0-.38-1.94,5.62,5.62,0,0,0-1-1.69,5.33,5.33,0,0,0-1.6-1.21,4.58,4.58,0,0,0-2-.46h-6.83v16.29h2.57Zm0-8.35h4.1a2.41,2.41,0,0,1,1,.22,2.77,2.77,0,0,1,.84.62,3.12,3.12,0,0,1,.57.95,3.47,3.47,0,0,1,.21,1.24,4,4,0,0,1-.19,1.22,3.36,3.36,0,0,1-.5,1,2.24,2.24,0,0,1-.77.64,2.2,2.2,0,0,1-1,.23H165.8Z"/><polygon class="cls-1" points="190.98 234.25 182.38 234.25 182.38 229.27 189.65 229.27 189.65 227.14 182.38 227.14 182.38 222.5 190.77 222.5 190.77 220.23 179.81 220.23 179.81 236.51 190.98 236.51 190.98 234.25"/><path class="cls-1" d="M198.5,230.85h3.76l3.53,5.67h2.91l-3.83-6.2a4,4,0,0,0,1.31-.7,4.46,4.46,0,0,0,1-1.11,5.24,5.24,0,0,0,.64-1.4,5.49,5.49,0,0,0,.23-1.58,5.08,5.08,0,0,0-.38-1.94,5.62,5.62,0,0,0-1-1.69,5.16,5.16,0,0,0-1.59-1.21,4.62,4.62,0,0,0-2-.46h-7.09v16.29h2.57Zm0-8.35h4.36a2.11,2.11,0,0,1,1,.24,2.91,2.91,0,0,1,.83.66,3.49,3.49,0,0,1,.57,1,3.08,3.08,0,0,1,.22,1.17,3.69,3.69,0,0,1-.69,2.15,2.42,2.42,0,0,1-.77.66,2.08,2.08,0,0,1-1,.24H198.5Z"/><polygon class="cls-1" points="217.07 236.51 219.67 236.51 219.67 222.5 225.08 222.5 225.08 220.23 211.64 220.23 211.64 222.5 217.07 222.5 217.07 236.51"/><path class="cls-1" d="M64.5,166.32,62,172.56a.05.05,0,0,0,0,.07H67a0,0,0,0,0,0-.07l-2.43-6.24A.05.05,0,0,0,64.5,166.32Z"/><path class="cls-1" d="M306.64,102.81H257V79.27a79.27,79.27,0,1,0-158.54,0v23.54H48.72a48.72,48.72,0,0,0,0,97.44H98.41v9.91a79.27,79.27,0,1,0,158.54,0v-9.91h49.69a48.72,48.72,0,1,0,0-97.44ZM100,79.27a77.7,77.7,0,1,1,155.4,0v23.54H100Zm145,56a1.49,1.49,0,1,1,0,3H234.66v8.91a1.52,1.52,0,0,1-1.54,1.49h-.48a1.52,1.52,0,0,1-1.54-1.49V125.66a1.54,1.54,0,0,1,1.57-1.52h13.56a1.52,1.52,0,0,1,1.54,1.51v0a1.52,1.52,0,0,1-1.54,1.48H234.66v8.14Zm-15.63,29.84a1,1,0,0,1-1-1v-.11a1,1,0,0,1,1-1h10.84a1,1,0,0,1,1,1v.11a1,1,0,0,1-1,1H235.9v12.55a1,1,0,0,1-1,1h-.32a1,1,0,0,1-1-1V165.14Zm-6.82,12a1,1,0,0,1,0,1,1,1,0,0,1-.85.5h-.28a1,1,0,0,1-.82-.45l-3.19-5h-3.78v4.51a1,1,0,0,1-1,1h-.32a1,1,0,0,1-1-1V164.06a1,1,0,0,1,1-1h5.72a4.27,4.27,0,0,1,1.92.44,4.63,4.63,0,0,1,1.51,1.15,5.6,5.6,0,0,1,1,1.62,4.84,4.84,0,0,1,.35,1.83,5.25,5.25,0,0,1-.23,1.58,5.09,5.09,0,0,1-.66,1.39,4.64,4.64,0,0,1-1,1.07,4.07,4.07,0,0,1-1.16.58ZM212.76,147V125.87a1.67,1.67,0,1,1,3.34,0V147a1.67,1.67,0,1,1-3.34,0Zm-13.67-.79a1.56,1.56,0,0,1-1.18,2.52h-.15a1.51,1.51,0,0,1-1.17-.57l-8.22-10.29a2.84,2.84,0,0,1,0-3.53l7.69-9.59a1.53,1.53,0,0,1,1.17-.56,1.56,1.56,0,0,1,1.18,2.53l-7.25,9.22Zm-8,31.16L196.58,164a1.38,1.38,0,0,1,2.55,0l5.46,13.37a1,1,0,0,1-.89,1.34h-.32a1,1,0,0,1-.9-.61l-1.56-3.86h-6.17l-1.54,3.86a1,1,0,0,1-.9.61H192a1,1,0,0,1-.89-1.34ZM182,163.09a4.34,4.34,0,0,1,1.93.44,4.74,4.74,0,0,1,1.51,1.15,5.36,5.36,0,0,1,1,1.62,4.85,4.85,0,0,1,.36,1.83,5.48,5.48,0,0,1-.34,1.88,5.25,5.25,0,0,1-.94,1.62,4.55,4.55,0,0,1-1.47,1.13,4.27,4.27,0,0,1-1.9.42h-4.39v4.51a1,1,0,0,1-1,1h-.32a1,1,0,0,1-1-1V164.06a1,1,0,0,1,1-1ZM179.42,147V125.87a1.67,1.67,0,1,1,3.33,0V147a1.67,1.67,0,1,1-3.33,0Zm-28,18a1.05,1.05,0,0,1,.31-1.46,1.07,1.07,0,0,1,1.46.31l4.12,7.11,4.12-7.11a1.06,1.06,0,0,1,1.77,1.15l-4.84,8.21v4.62a1.06,1.06,0,1,1-2.11,0v-4.63Zm10.27-17.26L148,129.66V147a1.72,1.72,0,0,1-1.73,1.69h-.08a1.72,1.72,0,0,1-1.73-1.69V126.53a2.42,2.42,0,0,1,2.45-2.39,2.49,2.49,0,0,1,2,1l13.8,18.09V125.83a1.73,1.73,0,0,1,3.46,0v20.46a2.41,2.41,0,0,1-2.44,2.39A2.45,2.45,0,0,1,161.68,147.72Zm-26,27.45a5.7,5.7,0,0,0,8.06,0,1,1,0,0,1,1.48,0,1,1,0,0,1,0,1.47,7.79,7.79,0,1,1,0-11,1,1,0,0,1,0,1.48,1.06,1.06,0,0,1-1.48,0,5.7,5.7,0,1,0-8.06,8.06ZM126.07,147V125.87a1.67,1.67,0,1,1,3.34,0V147a1.67,1.67,0,1,1-3.34,0Zm.73,17.56v13.28a1.13,1.13,0,0,1-1.13,1.13h-.2a1.1,1.1,0,0,1-.88-.42L116.14,168a.16.16,0,0,0-.29.1v9.74a1.13,1.13,0,0,1-2.26,0V164.48a1.14,1.14,0,0,1,1.13-1.13h.15a1,1,0,0,1,.76.37l8.62,10.84a.16.16,0,0,0,.29-.1v-10a1.13,1.13,0,0,1,1.13-1.13h0A1.13,1.13,0,0,1,126.8,164.51Zm-55.6,14a1,1,0,0,1-.8.43h-.29a1,1,0,0,1-1-.64l-1.53-3.79a0,0,0,0,0,0,0h-6.1a.05.05,0,0,0,0,0l-1.51,3.79a1,1,0,0,1-1,.64h-.28a1,1,0,0,1-.8-.43,1,1,0,0,1-.1-.91l5.44-13.26a1.5,1.5,0,0,1,1.15-1,1.39,1.39,0,0,1,1.45.85l5.46,13.38A.93.93,0,0,1,71.2,178.49Zm-1.72-51.33v20a1.53,1.53,0,0,1-1.55,1.51h-.45a1.53,1.53,0,0,1-1.55-1.51v-20H59.27a1.51,1.51,0,1,1,0-3H76.18a1.51,1.51,0,1,1,0,3Zm10.57,48a5.7,5.7,0,0,0,4,1.67,5.63,5.63,0,0,0,3.7-1.38v-2.53H85.13a1.06,1.06,0,1,1,0-2.11h3.71a1,1,0,0,1,1,1.05v3.92s0,0,0,.06a1,1,0,0,1-.29.79,7.79,7.79,0,1,1,0-11,1,1,0,0,1-1.48,1.48,5.7,5.7,0,1,0-8.06,8.06ZM92.93,147a1.77,1.77,0,0,1-3.53,0V125.87a1.77,1.77,0,0,1,3.53,0v9.28h14.6v-9.28a1.77,1.77,0,0,1,3.54,0V147a1.77,1.77,0,0,1-3.54,0v-8.78H92.93Zm4.35,32a1,1,0,0,1-1-1V164.32a1,1,0,0,1,1-1h8.54a1,1,0,0,1,1,1v.11a1,1,0,0,1-1,1H98.57V170h6.18a1,1,0,1,1,0,1.94H98.57v4.93H106a1,1,0,0,1,1,1v.1a1,1,0,0,1-1,1Zm158.1,31.24a77.7,77.7,0,1,1-155.4,0v-9.91h155.4Zm5.36-32.47a1,1,0,0,1-1,1h-.44a.94.94,0,0,1-.76-.37l-8.78-11v10.36a1,1,0,0,1-1,1h-.32a1,1,0,0,1-1-1V164.06a1,1,0,0,1,1-1h.31a1,1,0,0,1,.76.37l8.9,11.19V164.08a1,1,0,0,1,1-1h.33a1,1,0,0,1,1,1Zm2.61-30.89a1.74,1.74,0,0,1-3.48,0V126a1.74,1.74,0,0,1,3.48,0Zm16.1,30.89a1,1,0,0,1-1,1h-8.74a1,1,0,0,1-1-1V164.06a1,1,0,0,1,1-1h8.54a1,1,0,0,1,1,1v.11a1,1,0,0,1-1,1H271v4.6h6.18a1,1,0,0,1,0,1.94H271v4.93h7.45a1,1,0,0,1,1,1Zm-3.38-41.35c0-6.83,5.72-12.19,13-12.19a14,14,0,0,1,7.94,2.53,1.46,1.46,0,0,1,.27,2.12l-.07.08a1.53,1.53,0,0,1-2.07.28,10.24,10.24,0,0,0-6-2.06,9.23,9.23,0,1,0,0,18.45,10.89,10.89,0,0,0,6-2,1.54,1.54,0,0,1,2,.2A1.47,1.47,0,0,1,297,146a14,14,0,0,1-8.06,2.71C281.73,148.68,276.07,143.26,276.07,136.34Zm21.25,40.83a1,1,0,0,1-.82,1.49h-.28a1,1,0,0,1-.82-.45l-3.19-5h-3.78v4.51a1,1,0,0,1-1,1h-.32a1,1,0,0,1-1-1V164.06a1,1,0,0,1,1-1h5.72a4.34,4.34,0,0,1,1.93.44,4.85,4.85,0,0,1,1.51,1.15,5.57,5.57,0,0,1,1,1.62,4.85,4.85,0,0,1,.36,1.83,5.26,5.26,0,0,1-.24,1.58,5.09,5.09,0,0,1-.66,1.39,4.64,4.64,0,0,1-1.05,1.07,4.07,4.07,0,0,1-1.16.58Z"/><polygon class="cls-1" points="197.85 165.93 195.27 172.36 200.36 172.36 197.85 165.93"/><path class="cls-1" d="M183,170.91a2.26,2.26,0,0,0,.77-.64,3.45,3.45,0,0,0,.51-1,3.77,3.77,0,0,0,.18-1.17,3.35,3.35,0,0,0-.21-1.19,3.39,3.39,0,0,0-.57-1,2.38,2.38,0,0,0-.83-.62,2.24,2.24,0,0,0-1-.22h-4.15v6H182A2.24,2.24,0,0,0,183,170.91Z"/><path class="cls-1" d="M219.77,166a2.53,2.53,0,0,0-.82-.64,2.15,2.15,0,0,0-1-.23h-4.32v6h4.45a2.05,2.05,0,0,0,1-.24,2.56,2.56,0,0,0,.78-.65,3.45,3.45,0,0,0,.69-2.12,3.19,3.19,0,0,0-.21-1.16A3.33,3.33,0,0,0,219.77,166Z"/><path class="cls-1" d="M294.57,166a2.68,2.68,0,0,0-.83-.64,2.15,2.15,0,0,0-1-.23h-4.32v6h4.45a2.05,2.05,0,0,0,1-.24,2.56,2.56,0,0,0,.78-.65,3.45,3.45,0,0,0,.51-1,3.74,3.74,0,0,0,.18-1.15,3.19,3.19,0,0,0-.21-1.16A3.54,3.54,0,0,0,294.57,166Z"/><path class="cls-1" d="M187.71,35a14.58,14.58,0,0,0-10,4A14.67,14.67,0,0,0,157,59.76l-1.14,1.14a3.72,3.72,0,0,0,2.63,6.35c.15,0,.29,0,.44,0a3.13,3.13,0,0,0,0,.44,3.7,3.7,0,0,0,3.72,3.71,2.71,2.71,0,0,0,.4,0,3.7,3.7,0,0,0,3.68,4.13,2.58,2.58,0,0,0,.39,0,3.71,3.71,0,0,0,6.31,3l1.13-1.12,1.59,1.59a3.72,3.72,0,0,0,6.35-2.63,3.12,3.12,0,0,0,0-.44,3.42,3.42,0,0,0,.44,0,3.7,3.7,0,0,0,3.68-4.12c.14,0,.27,0,.41,0a3.7,3.7,0,0,0,3.72-3.71,3.12,3.12,0,0,0-.05-.44,3.42,3.42,0,0,0,.44,0,3.7,3.7,0,0,0,3.68-4.17l3.4-3.41A14.69,14.69,0,0,0,187.71,35ZM154.58,49.71a13.06,13.06,0,0,1,22.3-9.24l4.51,4.5a2.74,2.74,0,0,1,0,3.86,2.8,2.8,0,0,1-3.86,0l-4.24-4.22h0a.8.8,0,0,0-1.14,0h0l-14,14A12.94,12.94,0,0,1,154.58,49.71ZM172.2,77.28a2.09,2.09,0,0,1-3,0,2.06,2.06,0,0,1-.62-1.48,2,2,0,0,1,.5-1.3l.16-.14,1.56-1.55a3.62,3.62,0,0,0,1,1.86l1.49,1.49Zm8.6-1a2.07,2.07,0,0,1-.62,1.48,2.16,2.16,0,0,1-3,0L173,73.52a2.08,2.08,0,0,1,0-3,2.08,2.08,0,0,1,1.48-.62,2.11,2.11,0,0,1,1.49.62l4.22,4.22A2.1,2.1,0,0,1,180.8,76.27Zm3.5-2.63a2.12,2.12,0,0,1-3,0l-4.23-4.23a2.11,2.11,0,0,1-.61-1.48,2.08,2.08,0,0,1,2.1-2.1,2.05,2.05,0,0,1,1.37.54l.08.1,4.23,4.23.1.08A2.1,2.1,0,0,1,184.3,73.64Zm4.7-5.57a2.09,2.09,0,0,1-3.48,1.55l-.08-.1-4.22-4.22-.1-.08a2.09,2.09,0,0,1,1.55-3.48,2.11,2.11,0,0,1,1.49.62l4.22,4.22A2.1,2.1,0,0,1,189,68.07Zm3.5-2.63a2.12,2.12,0,0,1-3,0l-4.23-4.23a2.11,2.11,0,0,1-.61-1.48,2.13,2.13,0,0,1,.61-1.49,2.11,2.11,0,0,1,3,0l4.23,4.23A2.12,2.12,0,0,1,192.5,65.44ZM197,59l-2.89,2.88a4.93,4.93,0,0,0-.42-.51l-4.22-4.22a3.72,3.72,0,0,0-5.26,0,3.65,3.65,0,0,0-1.09,2.63,3.27,3.27,0,0,0,0,.44A3.67,3.67,0,0,0,179,64.25a2.71,2.71,0,0,0-.4,0,3.72,3.72,0,0,0-3.72,3.72,3.27,3.27,0,0,0,0,.44,3.69,3.69,0,0,0-3.07,1,4,4,0,0,0-.62.86.68.68,0,0,0-.43.21l-2.7,2.69c-.05,0-.08.11-.13.16a2.07,2.07,0,0,1-2.86-3l.1-.08L169,66.52a.81.81,0,0,0,0-1.15h0a0,0,0,0,0,0,0,.8.8,0,0,0-1.14,0L164,69.1l-.08.1a2.14,2.14,0,0,1-2.86-.07,2.11,2.11,0,0,1-.61-1.48,2.13,2.13,0,0,1,.61-1.49l3.76-3.75a.83.83,0,0,0,0-1.15.81.81,0,0,0-1.15,0L159.94,65a2.12,2.12,0,0,1-3,0,2.1,2.1,0,0,1-.62-1.49,2.06,2.06,0,0,1,.62-1.48l15.74-15.74L176.39,50a4.35,4.35,0,0,0,6.14-6.15l-3.69-3.68A13.06,13.06,0,0,1,197,59Z"/></g></g></svg>