<svg width="1300" height="307" viewBox="0 0 1300 307" fill="none" xmlns="http://www.w3.org/2000/svg">
<g clip-path="url(#clip0)">
<path d="M114.593 54.2812H138.718V78.4062C138.718 81.7385 141.417 84.4375 144.749 84.4375H156.812C160.144 84.4375 162.843 81.7385 162.843 78.4062V54.2812H186.968C190.3 54.2812 192.999 51.5823 192.999 48.25V36.1875C192.999 32.8552 190.3 30.1562 186.968 30.1562H162.843V6.03125C162.843 2.69898 160.144 0 156.812 0H144.749C141.417 0 138.718 2.69898 138.718 6.03125V30.1562H114.593C111.261 30.1562 108.562 32.8552 108.562 36.1875V48.25C108.562 51.5823 111.261 54.2812 114.593 54.2812ZM188.321 137.249L166.255 127.248L105.494 154.788C102.644 156.081 99.6169 156.737 96.4995 156.737C93.3821 156.737 90.3589 156.081 87.5054 154.788L26.7443 127.248L4.67747 137.249C-1.56111 140.076 -1.56111 149.5 4.67747 152.327L92.4849 192.129C95.0482 193.29 97.947 193.29 100.51 192.129L188.321 152.327C194.56 149.5 194.56 140.076 188.321 137.249V137.249ZM4.67747 104.001L92.4849 143.804C95.0482 144.965 97.947 144.965 100.51 143.804L168.874 112.815V105.811C163.1 107.462 157.087 108.559 150.781 108.559C117.605 108.559 90.1968 84.1812 85.2964 52.3776L4.67747 88.9232C-1.56111 91.7504 -1.56111 101.174 4.67747 104.001Z" fill="#18CCA3"/>
</g>
<g opacity="0.5">
<path d="M646.88 227.64C647.68 227.64 648.32 227.88 648.8 228.36C649.333 228.84 649.6 229.507 649.6 230.36V250.28C649.6 251.56 649.387 252.52 648.96 253.16C648.587 253.8 647.867 254.307 646.8 254.68C644.667 255.587 642.08 256.307 639.04 256.84C636 257.373 632.96 257.64 629.92 257.64C624.32 257.64 619.493 256.493 615.44 254.2C611.387 251.907 608.267 248.6 606.08 244.28C603.947 239.96 602.88 234.787 602.88 228.76C602.88 222.84 603.947 217.72 606.08 213.4C608.213 209.08 611.28 205.773 615.28 203.48C619.28 201.133 623.973 199.96 629.36 199.96C633.093 199.96 636.56 200.547 639.76 201.72C642.96 202.84 645.653 204.467 647.84 206.6C648.747 207.507 649.2 208.44 649.2 209.4C649.2 210.147 648.987 210.813 648.56 211.4C648.133 211.933 647.6 212.2 646.96 212.2C646.32 212.2 645.573 211.88 644.72 211.24C641.947 209.107 639.44 207.64 637.2 206.84C634.96 205.987 632.373 205.56 629.44 205.56C623.093 205.56 618.213 207.56 614.8 211.56C611.44 215.56 609.76 221.293 609.76 228.76C609.76 236.387 611.467 242.2 614.88 246.2C618.347 250.147 623.413 252.12 630.08 252.12C635.04 252.12 639.547 251.373 643.6 249.88V232.76H631.92C631.013 232.76 630.293 232.52 629.76 232.04C629.227 231.56 628.96 230.947 628.96 230.2C628.96 229.4 629.227 228.787 629.76 228.36C630.293 227.88 631.013 227.64 631.92 227.64H646.88ZM713.011 253.24C713.224 253.667 713.331 254.12 713.331 254.6C713.331 255.4 713.011 256.067 712.371 256.6C711.784 257.133 711.064 257.4 710.211 257.4C708.877 257.4 707.944 256.76 707.411 255.48L701.731 242.52H671.571L665.811 255.48C665.277 256.76 664.344 257.4 663.011 257.4C662.157 257.4 661.411 257.133 660.771 256.6C660.131 256.013 659.811 255.32 659.811 254.52C659.811 254.093 659.917 253.667 660.131 253.24L683.011 202.36C683.331 201.613 683.811 201.053 684.451 200.68C685.091 200.307 685.784 200.12 686.531 200.12C687.331 200.12 688.051 200.333 688.691 200.76C689.331 201.133 689.811 201.667 690.131 202.36L713.011 253.24ZM673.971 237.08H699.331L686.611 208.36L673.971 237.08ZM727.376 257C726.469 257 725.696 256.733 725.056 256.2C724.469 255.613 724.176 254.867 724.176 253.96V203.56C724.176 202.547 724.469 201.747 725.056 201.16C725.642 200.52 726.442 200.2 727.456 200.2C728.469 200.2 729.269 200.52 729.856 201.16C730.442 201.747 730.736 202.547 730.736 203.56V251.4H756.576C757.536 251.4 758.282 251.64 758.816 252.12C759.349 252.6 759.616 253.293 759.616 254.2C759.616 255.107 759.349 255.8 758.816 256.28C758.282 256.76 757.536 257 756.576 257H727.376ZM802.839 201.88C803.105 201.293 803.479 200.84 803.959 200.52C804.492 200.2 805.052 200.04 805.639 200.04C806.492 200.04 807.239 200.333 807.879 200.92C808.572 201.453 808.919 202.12 808.919 202.92C808.919 203.347 808.812 203.773 808.599 204.2L785.639 255.24C785.319 255.933 784.839 256.467 784.199 256.84C783.559 257.213 782.865 257.4 782.119 257.4C781.372 257.4 780.679 257.213 780.039 256.84C779.399 256.467 778.919 255.933 778.599 255.24L755.719 204.2C755.559 203.773 755.479 203.373 755.479 203C755.479 202.147 755.825 201.453 756.519 200.92C757.212 200.333 757.985 200.04 758.839 200.04C760.119 200.04 761.052 200.653 761.639 201.88L782.279 248.52L802.839 201.88ZM821.671 257.4C820.658 257.4 819.858 257.107 819.271 256.52C818.685 255.88 818.391 255.053 818.391 254.04V203.56C818.391 202.547 818.685 201.747 819.271 201.16C819.858 200.52 820.658 200.2 821.671 200.2C822.685 200.2 823.485 200.52 824.071 201.16C824.658 201.747 824.951 202.547 824.951 203.56V254.04C824.951 255.053 824.658 255.88 824.071 256.52C823.485 257.107 822.685 257.4 821.671 257.4ZM882.62 200.2C883.58 200.2 884.327 200.52 884.86 201.16C885.393 201.747 885.66 202.547 885.66 203.56V254.04C885.66 255.053 885.367 255.88 884.78 256.52C884.247 257.107 883.473 257.4 882.46 257.4C881.447 257.4 880.567 256.947 879.82 256.04L846.62 211.64V254.04C846.62 255.053 846.327 255.88 845.74 256.52C845.207 257.107 844.46 257.4 843.5 257.4C842.54 257.4 841.793 257.107 841.26 256.52C840.727 255.88 840.46 255.053 840.46 254.04V203.56C840.46 202.547 840.727 201.747 841.26 201.16C841.847 200.52 842.647 200.2 843.66 200.2C844.727 200.2 845.633 200.653 846.38 201.56L879.5 245.96V203.56C879.5 202.547 879.767 201.747 880.3 201.16C880.887 200.52 881.66 200.2 882.62 200.2Z" fill="#333333"/>
<path d="M275.96 228.04C279.213 228.893 281.72 230.493 283.48 232.84C285.293 235.187 286.2 238.12 286.2 241.64C286.2 246.6 284.573 250.413 281.32 253.08C278.067 255.693 273.453 257 267.48 257H247.32C246.307 257 245.48 256.707 244.84 256.12C244.253 255.533 243.96 254.76 243.96 253.8V203.8C243.96 202.84 244.253 202.067 244.84 201.48C245.48 200.893 246.307 200.6 247.32 200.6H266.6C272.413 200.6 276.92 201.88 280.12 204.44C283.32 207 284.92 210.627 284.92 215.32C284.92 218.36 284.12 220.973 282.52 223.16C280.973 225.347 278.787 226.973 275.96 228.04ZM250.44 225.64H265.64C269.853 225.64 273.027 224.787 275.16 223.08C277.347 221.373 278.44 218.893 278.44 215.64C278.44 209.24 274.173 206.04 265.64 206.04H250.44V225.64ZM266.84 251.56C271.267 251.56 274.52 250.76 276.6 249.16C278.733 247.507 279.8 244.947 279.8 241.48C279.8 234.547 275.48 231.08 266.84 231.08H250.44V251.56H266.84ZM333.652 201.48C334.292 200.68 335.066 200.28 335.973 200.28C336.719 200.28 337.386 200.573 337.972 201.16C338.559 201.747 338.853 202.467 338.853 203.32C338.853 204.12 338.613 204.787 338.133 205.32L318.693 229.88V254.04C318.693 255.107 318.373 255.933 317.733 256.52C317.146 257.107 316.372 257.4 315.412 257.4C314.452 257.4 313.652 257.107 313.012 256.52C312.426 255.933 312.132 255.107 312.132 254.04V229.8L292.692 205.32C292.159 204.733 291.892 204.067 291.892 203.32C291.892 202.467 292.186 201.747 292.772 201.16C293.412 200.573 294.132 200.28 294.932 200.28C295.839 200.28 296.612 200.68 297.252 201.48L315.493 224.76L333.652 201.48ZM413.284 252.92C413.658 253.507 413.844 254.12 413.844 254.76C413.844 255.56 413.524 256.227 412.884 256.76C412.298 257.24 411.604 257.48 410.804 257.48C409.578 257.48 408.618 256.947 407.924 255.88L397.204 238.92C395.818 236.733 394.378 235.24 392.884 234.44C391.391 233.587 389.364 233.16 386.804 233.16H376.724V254.04C376.724 255.053 376.431 255.88 375.844 256.52C375.258 257.107 374.484 257.4 373.524 257.4C372.511 257.4 371.711 257.107 371.124 256.52C370.538 255.88 370.244 255.053 370.244 254.04V203.8C370.244 202.84 370.538 202.067 371.124 201.48C371.764 200.893 372.591 200.6 373.604 200.6H393.444C399.578 200.6 404.244 201.96 407.444 204.68C410.698 207.4 412.324 211.4 412.324 216.68C412.324 221.16 411.018 224.76 408.404 227.48C405.844 230.2 402.164 231.853 397.364 232.44C398.698 232.867 399.898 233.56 400.964 234.52C402.031 235.48 403.098 236.813 404.164 238.52L413.284 252.92ZM392.884 227.72C397.258 227.72 400.511 226.813 402.644 225C404.831 223.187 405.924 220.44 405.924 216.76C405.924 213.133 404.858 210.44 402.724 208.68C400.591 206.92 397.311 206.04 392.884 206.04H376.724V227.72H392.884ZM449.897 257.64C444.671 257.64 440.111 256.467 436.217 254.12C432.377 251.773 429.417 248.44 427.337 244.12C425.257 239.8 424.217 234.707 424.217 228.84C424.217 222.92 425.231 217.8 427.257 213.48C429.337 209.107 432.297 205.773 436.137 203.48C440.031 201.133 444.617 199.96 449.897 199.96C455.177 199.96 459.737 201.133 463.577 203.48C467.471 205.773 470.431 209.107 472.457 213.48C474.537 217.8 475.577 222.893 475.577 228.76C475.577 234.627 474.537 239.747 472.457 244.12C470.377 248.44 467.391 251.773 463.497 254.12C459.657 256.467 455.124 257.64 449.897 257.64ZM449.897 252.04C455.871 252.04 460.511 250.04 463.817 246.04C467.177 241.987 468.857 236.227 468.857 228.76C468.857 221.293 467.204 215.56 463.897 211.56C460.591 207.56 455.924 205.56 449.897 205.56C443.924 205.56 439.257 207.587 435.897 211.64C432.591 215.64 430.937 221.347 430.937 228.76C430.937 236.173 432.591 241.907 435.897 245.96C439.257 250.013 443.924 252.04 449.897 252.04ZM520.991 228.04C524.245 228.893 526.751 230.493 528.511 232.84C530.325 235.187 531.231 238.12 531.231 241.64C531.231 246.6 529.605 250.413 526.351 253.08C523.098 255.693 518.485 257 512.511 257H492.351C491.338 257 490.511 256.707 489.871 256.12C489.285 255.533 488.991 254.76 488.991 253.8V203.8C488.991 202.84 489.285 202.067 489.871 201.48C490.511 200.893 491.338 200.6 492.351 200.6H511.631C517.445 200.6 521.951 201.88 525.151 204.44C528.351 207 529.951 210.627 529.951 215.32C529.951 218.36 529.151 220.973 527.551 223.16C526.005 225.347 523.818 226.973 520.991 228.04ZM495.471 225.64H510.671C514.885 225.64 518.058 224.787 520.191 223.08C522.378 221.373 523.471 218.893 523.471 215.64C523.471 209.24 519.205 206.04 510.671 206.04H495.471V225.64ZM511.871 251.56C516.298 251.56 519.551 250.76 521.631 249.16C523.765 247.507 524.831 244.947 524.831 241.48C524.831 234.547 520.511 231.08 511.871 231.08H495.471V251.56H511.871Z" fill="#333333"/>
<path d="M556.088 212.736C555.759 215.352 556.741 217.965 558.841 220.059C559.14 220.371 559.519 220.634 559.957 220.832C560.394 221.03 560.88 221.16 561.385 221.212C561.891 221.264 562.405 221.239 562.897 221.137C563.389 221.035 563.848 220.859 564.247 220.619V220.619C564.973 220.186 565.466 219.568 565.633 218.88C565.8 218.193 565.629 217.483 565.154 216.883C564.513 216.089 564.187 215.173 564.214 214.243C564.185 213.324 564.551 212.422 565.258 211.672C565.964 210.923 566.972 210.366 568.132 210.086C569.292 209.806 570.54 209.816 571.691 210.117C572.842 210.417 573.833 210.991 574.516 211.753C577.137 214.368 575.011 216.609 573.115 217.88L563.44 223.869L557.374 227.705C554.514 229.331 552.252 231.481 550.801 233.953C549.351 236.425 548.761 239.136 549.087 241.828C549.414 244.521 550.646 247.106 552.666 249.338C554.686 251.569 557.428 253.374 560.631 254.58C563.834 255.787 567.391 256.355 570.967 256.23C574.542 256.106 578.015 255.293 581.058 253.869C584.1 252.446 586.611 250.458 588.351 248.096C590.091 245.733 591.003 243.073 591 240.37C591 234.629 586.912 230.258 581.11 226.734C580.369 226.284 579.447 226.039 578.497 226.039C577.547 226.039 576.625 226.284 575.885 226.734L575.802 226.734C575.367 227.005 575.017 227.345 574.776 227.73C574.536 228.116 574.411 228.537 574.411 228.963C574.411 229.389 574.536 229.81 574.776 230.195C575.017 230.58 575.367 230.921 575.802 231.192C580.418 234.193 586.632 240.071 578.951 246.571C577.855 247.538 576.505 248.322 574.987 248.873C573.469 249.424 571.815 249.73 570.132 249.772C568.475 249.781 566.833 249.544 565.299 249.072C563.764 248.6 562.369 247.904 561.192 247.023C560.016 246.142 559.081 245.094 558.443 243.94C557.804 242.785 557.475 241.546 557.473 240.295C557.529 238.704 558.056 237.142 559.015 235.724C559.973 234.307 561.338 233.069 563.011 232.101L579.659 221.553C581.092 220.641 582.254 219.511 583.07 218.236C583.885 216.961 584.335 215.571 584.39 214.156C584.395 212.555 583.933 210.973 583.035 209.523C582.137 208.073 580.826 206.791 579.197 205.768C577.567 204.744 575.658 204.006 573.607 203.605C571.555 203.203 569.412 203.149 567.33 203.447C564.38 203.871 561.691 205.005 559.664 206.68C557.638 208.354 556.384 210.479 556.088 212.736Z" fill="#4F4F4F"/>
</g>
<path d="M259.4 154.96C256.307 154.96 253.8 154.053 251.88 152.24C250.067 150.32 249.16 147.76 249.16 144.56V50.96C249.16 47.8667 250.013 45.4667 251.72 43.76C253.533 42.0533 255.987 41.2 259.08 41.2H298.44C310.493 41.2 319.88 44.24 326.6 50.32C333.32 56.2933 336.68 64.72 336.68 75.6C336.68 86.48 333.32 94.96 326.6 101.04C319.88 107.12 310.493 110.16 298.44 110.16H269.8V144.56C269.8 147.76 268.84 150.32 266.92 152.24C265.107 154.053 262.6 154.96 259.4 154.96ZM295.88 94.32C310.067 94.32 317.16 88.1333 317.16 75.76C317.16 63.3867 310.067 57.2 295.88 57.2H269.8V94.32H295.88ZM389.092 155.28C381.092 155.28 374.052 153.627 367.972 150.32C361.999 147.013 357.359 142.267 354.052 136.08C350.746 129.893 349.092 122.693 349.092 114.48C349.092 106.267 350.746 99.12 354.052 93.04C357.359 86.8533 361.999 82.1067 367.972 78.8C374.052 75.4933 381.092 73.84 389.092 73.84C397.092 73.84 404.079 75.4933 410.053 78.8C416.132 82.1067 420.773 86.8533 423.973 93.04C427.279 99.12 428.932 106.267 428.932 114.48C428.932 122.693 427.279 129.893 423.973 136.08C420.773 142.267 416.132 147.013 410.053 150.32C404.079 153.627 397.092 155.28 389.092 155.28ZM388.932 139.76C395.439 139.76 400.399 137.627 403.813 133.36C407.226 129.093 408.933 122.8 408.933 114.48C408.933 106.267 407.226 100.027 403.813 95.76C400.399 91.3867 395.492 89.2 389.092 89.2C382.692 89.2 377.732 91.3867 374.212 95.76C370.799 100.027 369.092 106.267 369.092 114.48C369.092 122.8 370.799 129.093 374.212 133.36C377.626 137.627 382.532 139.76 388.932 139.76ZM553.154 80.08C553.9 78.16 554.967 76.72 556.354 75.76C557.847 74.8 559.447 74.32 561.154 74.32C563.607 74.32 565.794 75.1733 567.714 76.88C569.74 78.48 570.754 80.5067 570.754 82.96C570.754 84.3467 570.487 85.5733 569.954 86.64L543.554 148.56C542.7 150.587 541.367 152.133 539.554 153.2C537.847 154.267 535.927 154.8 533.794 154.8C531.767 154.8 529.847 154.267 528.034 153.2C526.327 152.133 525.047 150.587 524.194 148.56L505.154 102.8L486.754 148.56C485.9 150.587 484.567 152.133 482.754 153.2C481.047 154.267 479.127 154.8 476.994 154.8C474.967 154.8 473.047 154.267 471.234 153.2C469.42 152.133 468.087 150.587 467.234 148.56L440.994 86.64C440.46 85.2533 440.194 84.08 440.194 83.12C440.194 80.6667 441.26 78.5867 443.394 76.88C445.527 75.0667 447.874 74.16 450.434 74.16C452.247 74.16 453.9 74.64 455.394 75.6C456.887 76.56 458.007 78 458.754 79.92L477.634 128.72L496.994 80.4C497.847 78.3733 499.074 76.88 500.674 75.92C502.274 74.8533 504.034 74.32 505.954 74.32C507.874 74.32 509.634 74.8533 511.234 75.92C512.834 76.88 514.06 78.3733 514.914 80.4L534.434 128.88L553.154 80.08ZM648.295 132.56C650.108 132.56 651.548 133.253 652.615 134.64C653.788 136.027 654.375 137.893 654.375 140.24C654.375 143.547 652.402 146.32 648.455 148.56C644.828 150.587 640.722 152.24 636.135 153.52C631.548 154.693 627.175 155.28 623.015 155.28C610.428 155.28 600.455 151.653 593.095 144.4C585.735 137.147 582.055 127.227 582.055 114.64C582.055 106.64 583.655 99.5467 586.855 93.36C590.055 87.1733 594.535 82.3733 600.295 78.96C606.162 75.5467 612.775 73.84 620.135 73.84C627.175 73.84 633.308 75.3867 638.535 78.48C643.762 81.5733 647.815 85.9467 650.695 91.6C653.575 97.2533 655.015 103.92 655.015 111.6C655.015 116.187 652.988 118.48 648.935 118.48H601.735C602.375 125.84 604.455 131.28 607.975 134.8C611.495 138.213 616.615 139.92 623.335 139.92C626.748 139.92 629.735 139.493 632.295 138.64C634.962 137.787 637.948 136.613 641.255 135.12C644.455 133.413 646.802 132.56 648.295 132.56ZM620.615 87.92C615.175 87.92 610.802 89.6267 607.495 93.04C604.295 96.4533 602.375 101.36 601.735 107.76H637.895C637.682 101.253 636.082 96.3467 633.095 93.04C630.108 89.6267 625.948 87.92 620.615 87.92ZM718.255 74.16C721.028 73.9467 723.215 74.5333 724.815 75.92C726.415 77.3067 727.215 79.3867 727.215 82.16C727.215 85.04 726.522 87.1733 725.135 88.56C723.748 89.9467 721.242 90.8533 717.615 91.28L712.815 91.76C706.522 92.4 701.882 94.5333 698.895 98.16C696.015 101.787 694.575 106.32 694.575 111.76V145.36C694.575 148.453 693.615 150.853 691.695 152.56C689.775 154.16 687.375 154.96 684.495 154.96C681.615 154.96 679.215 154.16 677.295 152.56C675.482 150.853 674.575 148.453 674.575 145.36V83.44C674.575 80.4533 675.482 78.16 677.295 76.56C679.215 74.96 681.562 74.16 684.335 74.16C687.108 74.16 689.348 74.96 691.055 76.56C692.762 78.0533 693.615 80.24 693.615 83.12V89.52C695.642 84.8267 698.628 81.2 702.575 78.64C706.628 76.08 711.108 74.64 716.015 74.32L718.255 74.16ZM787.345 155.44C771.878 155.44 760.145 151.44 752.145 143.44C744.145 135.44 740.145 123.76 740.145 108.4V50.64C740.145 47.5467 741.052 45.0933 742.865 43.28C744.678 41.36 747.132 40.4 750.225 40.4C753.318 40.4 755.772 41.36 757.585 43.28C759.398 45.0933 760.305 47.5467 760.305 50.64V109.52C760.305 119.227 762.598 126.587 767.185 131.6C771.772 136.507 778.492 138.96 787.345 138.96C796.092 138.96 802.758 136.453 807.345 131.44C811.932 126.427 814.225 119.12 814.225 109.52V50.64C814.225 47.5467 815.132 45.0933 816.945 43.28C818.758 41.36 821.212 40.4 824.305 40.4C827.398 40.4 829.852 41.36 831.665 43.28C833.478 45.0933 834.385 47.5467 834.385 50.64V108.4C834.385 123.653 830.385 135.333 822.385 143.44C814.385 151.44 802.705 155.44 787.345 155.44ZM904.529 73.84C911.249 73.84 917.222 75.5467 922.449 78.96C927.782 82.3733 931.889 87.2267 934.769 93.52C937.755 99.7067 939.249 106.853 939.249 114.96C939.249 123.067 937.755 130.16 934.769 136.24C931.889 142.32 927.835 147.013 922.609 150.32C917.382 153.627 911.355 155.28 904.529 155.28C898.982 155.28 894.022 154.107 889.649 151.76C885.275 149.413 881.915 146.16 879.569 142V174.64C879.569 177.413 878.662 179.6 876.849 181.2C875.035 182.8 872.635 183.6 869.649 183.6C866.662 183.6 864.209 182.747 862.289 181.04C860.475 179.333 859.569 177.093 859.569 174.32V83.6C859.569 80.72 860.422 78.4267 862.129 76.72C863.942 75.0133 866.342 74.16 869.329 74.16C872.315 74.16 874.715 75.0133 876.529 76.72C878.342 78.4267 879.249 80.72 879.249 83.6V87.6C881.595 83.2267 884.955 79.8667 889.329 77.52C893.809 75.0667 898.875 73.84 904.529 73.84ZM899.249 139.76C905.542 139.76 910.449 137.627 913.969 133.36C917.489 128.987 919.249 122.853 919.249 114.96C919.249 106.853 917.489 100.56 913.969 96.08C910.449 91.6 905.542 89.36 899.249 89.36C892.849 89.36 887.889 91.5467 884.369 95.92C880.955 100.293 879.249 106.533 879.249 114.64C879.249 122.64 880.955 128.827 884.369 133.2C887.889 137.573 892.849 139.76 899.249 139.76ZM987.183 155.28C975.556 155.28 966.169 152.987 959.023 148.4C955.609 146.373 953.903 143.493 953.903 139.76C953.903 137.627 954.489 135.92 955.663 134.64C956.836 133.253 958.276 132.56 959.983 132.56C961.796 132.56 964.303 133.413 967.503 135.12C970.916 136.72 974.009 137.947 976.783 138.8C979.663 139.653 983.289 140.08 987.663 140.08C992.143 140.08 995.609 139.333 998.063 137.84C1000.62 136.347 1001.9 134.267 1001.9 131.6C1001.9 129.787 1001.37 128.347 1000.3 127.28C999.343 126.213 997.529 125.253 994.863 124.4C992.303 123.44 988.356 122.373 983.023 121.2C973.529 119.28 966.703 116.56 962.543 113.04C958.489 109.52 956.463 104.667 956.463 98.48C956.463 93.7867 957.849 89.5733 960.623 85.84C963.396 82 967.183 79.0667 971.983 77.04C976.889 74.9067 982.436 73.84 988.623 73.84C993.103 73.84 997.423 74.4267 1001.58 75.6C1005.74 76.6667 1009.48 78.2667 1012.78 80.4C1016.2 82.5333 1017.9 85.36 1017.9 88.88C1017.9 91.0133 1017.32 92.8267 1016.14 94.32C1014.97 95.7067 1013.53 96.4 1011.82 96.4C1010.65 96.4 1009.48 96.1867 1008.3 95.76C1007.24 95.2267 1005.85 94.48 1004.14 93.52C1001.05 91.92 998.383 90.7467 996.143 90C993.903 89.1467 991.129 88.72 987.823 88.72C983.876 88.72 980.729 89.52 978.383 91.12C976.143 92.72 975.023 94.9067 975.023 97.68C975.023 100.347 976.196 102.373 978.543 103.76C980.889 105.147 985.423 106.533 992.143 107.92C999.289 109.413 1004.89 111.12 1008.94 113.04C1013 114.96 1015.88 117.36 1017.58 120.24C1019.4 123.12 1020.3 126.8 1020.3 131.28C1020.3 138.533 1017.26 144.347 1011.18 148.72C1005.21 153.093 997.209 155.28 987.183 155.28Z" fill="#18CCA3"/>
<defs>
<clipPath id="clip0">
<rect width="193" height="193" fill="white"/>
</clipPath>
</defs>
</svg>
